<?xml version="1.0" encoding="UTF-8" standalone="no"?>
<!DOCTYPE svg PUBLIC "-//W3C//DTD SVG 1.1//EN"
 "http://www.w3.org/Graphics/SVG/1.1/DTD/svg11.dtd">
<!-- Generated by graphviz version 2.44.0 ()
 -->
<!-- Title: src/Api/Animator.cpp Pages: 1 -->
<svg width="436pt" height="252pt"
 viewBox="0.00 0.00 436.09 252.00" xmlns="http://www.w3.org/2000/svg" xmlns:xlink="http://www.w3.org/1999/xlink">
<g id="graph0" class="graph" transform="scale(1 1) rotate(0) translate(4 248)">
<title>src/Api/Animator.cpp</title>
<!-- Node1 -->
<g id="node1" class="node">
<title>Node1</title>
<g id="a_node1"><a xlink:title=" ">
<polygon fill="#bfbfbf" stroke="black" points="167.59,-224.5 167.59,-243.5 274.59,-243.5 274.59,-224.5 167.59,-224.5"/>
<text text-anchor="middle" x="221.09" y="-231.5" font-family="Helvetica,sans-Serif" font-size="10.00">src/Api/Animator.cpp</text>
</a>
</g>
</g>
<!-- Node2 -->
<g id="node2" class="node">
<title>Node2</title>
<g id="a_node2"><a xlink:href="Animator_8hpp.html" target="_top" xlink:title=" ">
<polygon fill="none" stroke="black" points="106.09,-168.5 106.09,-187.5 180.09,-187.5 180.09,-168.5 106.09,-168.5"/>
<text text-anchor="middle" x="143.09" y="-175.5" font-family="Helvetica,sans-Serif" font-size="10.00">Animator.hpp</text>
</a>
</g>
</g>
<!-- Node1&#45;&gt;Node2 -->
<g id="edge1" class="edge">
<title>Node1&#45;&gt;Node2</title>
<path fill="none" stroke="midnightblue" d="M208.56,-224.32C196.51,-215.98 178.06,-203.21 163.82,-193.35"/>
<polygon fill="midnightblue" stroke="midnightblue" points="165.81,-190.47 155.59,-187.65 161.82,-196.22 165.81,-190.47"/>
</g>
<!-- Node9 -->
<g id="node9" class="node">
<title>Node9</title>
<g id="a_node9"><a xlink:href="GameObject_8hpp.html" target="_top" xlink:title=" ">
<polygon fill="none" stroke="black" points="202.59,-112.5 202.59,-131.5 291.59,-131.5 291.59,-112.5 202.59,-112.5"/>
<text text-anchor="middle" x="247.09" y="-119.5" font-family="Helvetica,sans-Serif" font-size="10.00">GameObject.hpp</text>
</a>
</g>
</g>
<!-- Node1&#45;&gt;Node9 -->
<g id="edge10" class="edge">
<title>Node1&#45;&gt;Node9</title>
<path fill="none" stroke="midnightblue" d="M223.13,-224.37C227.33,-206.62 237.01,-165.67 242.7,-141.6"/>
<polygon fill="midnightblue" stroke="midnightblue" points="246.17,-142.13 245.06,-131.59 239.35,-140.52 246.17,-142.13"/>
</g>
<!-- Node12 -->
<g id="node12" class="node">
<title>Node12</title>
<g id="a_node12"><a xlink:title=" ">
<polygon fill="none" stroke="#bfbfbf" points="249.59,-168.5 249.59,-187.5 288.59,-187.5 288.59,-168.5 249.59,-168.5"/>
<text text-anchor="middle" x="269.09" y="-175.5" font-family="Helvetica,sans-Serif" font-size="10.00">utility</text>
</a>
</g>
</g>
<!-- Node1&#45;&gt;Node12 -->
<g id="edge17" class="edge">
<title>Node1&#45;&gt;Node12</title>
<path fill="none" stroke="midnightblue" d="M229.02,-224.08C235.94,-216.3 246.16,-204.8 254.54,-195.37"/>
<polygon fill="midnightblue" stroke="midnightblue" points="257.28,-197.55 261.31,-187.75 252.05,-192.9 257.28,-197.55"/>
</g>
<!-- Node3 -->
<g id="node3" class="node">
<title>Node3</title>
<g id="a_node3"><a xlink:href="Component_8hpp.html" target="_top" xlink:title=" ">
<polygon fill="none" stroke="black" points="12.09,-56.5 12.09,-75.5 96.09,-75.5 96.09,-56.5 12.09,-56.5"/>
<text text-anchor="middle" x="54.09" y="-63.5" font-family="Helvetica,sans-Serif" font-size="10.00">Component.hpp</text>
</a>
</g>
</g>
<!-- Node2&#45;&gt;Node3 -->
<g id="edge2" class="edge">
<title>Node2&#45;&gt;Node3</title>
<path fill="none" stroke="midnightblue" d="M135.17,-168.17C127.17,-159.19 114.55,-144.81 104.09,-132 90.92,-115.87 76.48,-96.96 66.52,-83.7"/>
<polygon fill="midnightblue" stroke="midnightblue" points="69.2,-81.45 60.41,-75.54 63.6,-85.64 69.2,-81.45"/>
</g>
<!-- Node4 -->
<g id="node4" class="node">
<title>Node4</title>
<g id="a_node4"><a xlink:title=" ">
<polygon fill="none" stroke="#bfbfbf" points="28.59,-0.5 28.59,-19.5 79.59,-19.5 79.59,-0.5 28.59,-0.5"/>
<text text-anchor="middle" x="54.09" y="-7.5" font-family="Helvetica,sans-Serif" font-size="10.00">memory</text>
</a>
</g>
</g>
<!-- Node2&#45;&gt;Node4 -->
<g id="edge9" class="edge">
<title>Node2&#45;&gt;Node4</title>
<path fill="none" stroke="midnightblue" d="M120.17,-168.39C87.22,-154.62 27.73,-124.16 3.09,-76 -6.73,-56.8 12.59,-37.72 30.2,-25.25"/>
<polygon fill="midnightblue" stroke="midnightblue" points="32.18,-28.14 38.57,-19.69 28.3,-22.31 32.18,-28.14"/>
</g>
<!-- Node5 -->
<g id="node5" class="node">
<title>Node5</title>
<g id="a_node5"><a xlink:href="Sprite_8hpp.html" target="_top" xlink:title=" ">
<polygon fill="none" stroke="black" points="113.09,-112.5 113.09,-131.5 173.09,-131.5 173.09,-112.5 113.09,-112.5"/>
<text text-anchor="middle" x="143.09" y="-119.5" font-family="Helvetica,sans-Serif" font-size="10.00">Sprite.hpp</text>
</a>
</g>
</g>
<!-- Node2&#45;&gt;Node5 -->
<g id="edge4" class="edge">
<title>Node2&#45;&gt;Node5</title>
<path fill="none" stroke="midnightblue" d="M143.09,-168.08C143.09,-161.01 143.09,-150.86 143.09,-141.99"/>
<polygon fill="midnightblue" stroke="midnightblue" points="146.59,-141.75 143.09,-131.75 139.59,-141.75 146.59,-141.75"/>
</g>
<!-- Node8 -->
<g id="node8" class="node">
<title>Node8</title>
<g id="a_node8"><a xlink:title=" ">
<polygon fill="none" stroke="#bfbfbf" points="384.09,-56.5 384.09,-75.5 428.09,-75.5 428.09,-56.5 384.09,-56.5"/>
<text text-anchor="middle" x="406.09" y="-63.5" font-family="Helvetica,sans-Serif" font-size="10.00">vector</text>
</a>
</g>
</g>
<!-- Node2&#45;&gt;Node8 -->
<g id="edge8" class="edge">
<title>Node2&#45;&gt;Node8</title>
<path fill="none" stroke="midnightblue" d="M180.18,-169.5C212.85,-162.18 261.3,-149.57 301.09,-132 332.7,-118.04 366.12,-95.9 386.55,-81.41"/>
<polygon fill="midnightblue" stroke="midnightblue" points="388.64,-84.21 394.71,-75.53 384.55,-78.53 388.64,-84.21"/>
</g>
<!-- Node3&#45;&gt;Node4 -->
<g id="edge3" class="edge">
<title>Node3&#45;&gt;Node4</title>
<path fill="none" stroke="midnightblue" d="M54.09,-56.08C54.09,-49.01 54.09,-38.86 54.09,-29.99"/>
<polygon fill="midnightblue" stroke="midnightblue" points="57.59,-29.75 54.09,-19.75 50.59,-29.75 57.59,-29.75"/>
</g>
<!-- Node5&#45;&gt;Node3 -->
<g id="edge5" class="edge">
<title>Node5&#45;&gt;Node3</title>
<path fill="none" stroke="midnightblue" d="M128.79,-112.32C114.91,-103.9 93.6,-90.97 77.29,-81.07"/>
<polygon fill="midnightblue" stroke="midnightblue" points="78.72,-77.85 68.36,-75.65 75.09,-83.83 78.72,-77.85"/>
</g>
<!-- Node6 -->
<g id="node6" class="node">
<title>Node6</title>
<g id="a_node6"><a xlink:href="Color_8hpp.html" target="_top" xlink:title=" ">
<polygon fill="none" stroke="black" points="114.59,-56.5 114.59,-75.5 171.59,-75.5 171.59,-56.5 114.59,-56.5"/>
<text text-anchor="middle" x="143.09" y="-63.5" font-family="Helvetica,sans-Serif" font-size="10.00">Color.hpp</text>
</a>
</g>
</g>
<!-- Node5&#45;&gt;Node6 -->
<g id="edge6" class="edge">
<title>Node5&#45;&gt;Node6</title>
<path fill="none" stroke="midnightblue" d="M143.09,-112.08C143.09,-105.01 143.09,-94.86 143.09,-85.99"/>
<polygon fill="midnightblue" stroke="midnightblue" points="146.59,-85.75 143.09,-75.75 139.59,-85.75 146.59,-85.75"/>
</g>
<!-- Node7 -->
<g id="node7" class="node">
<title>Node7</title>
<g id="a_node7"><a xlink:title=" ">
<polygon fill="none" stroke="#bfbfbf" points="189.59,-56.5 189.59,-75.5 230.59,-75.5 230.59,-56.5 189.59,-56.5"/>
<text text-anchor="middle" x="210.09" y="-63.5" font-family="Helvetica,sans-Serif" font-size="10.00">string</text>
</a>
</g>
</g>
<!-- Node5&#45;&gt;Node7 -->
<g id="edge7" class="edge">
<title>Node5&#45;&gt;Node7</title>
<path fill="none" stroke="midnightblue" d="M153.86,-112.32C163.86,-104.26 178.98,-92.08 191.02,-82.37"/>
<polygon fill="midnightblue" stroke="midnightblue" points="193.54,-84.83 199.13,-75.83 189.15,-79.38 193.54,-84.83"/>
</g>
<!-- Node9&#45;&gt;Node3 -->
<g id="edge11" class="edge">
<title>Node9&#45;&gt;Node3</title>
<path fill="none" stroke="midnightblue" d="M216.51,-112.44C183.48,-103.2 130.7,-88.44 94.33,-78.26"/>
<polygon fill="midnightblue" stroke="midnightblue" points="95.1,-74.84 84.53,-75.52 93.22,-81.58 95.1,-74.84"/>
</g>
<!-- Node9&#45;&gt;Node4 -->
<g id="edge16" class="edge">
<title>Node9&#45;&gt;Node4</title>
<path fill="none" stroke="midnightblue" d="M249.01,-112.19C251.46,-98.41 253.87,-71.7 240.09,-56 220.59,-33.78 138.33,-20.71 89.98,-14.8"/>
<polygon fill="midnightblue" stroke="midnightblue" points="90.27,-11.31 79.93,-13.62 89.45,-18.26 90.27,-11.31"/>
</g>
<!-- Node9&#45;&gt;Node7 -->
<g id="edge14" class="edge">
<title>Node9&#45;&gt;Node7</title>
<path fill="none" stroke="midnightblue" d="M240.98,-112.08C235.81,-104.53 228.25,-93.49 221.9,-84.23"/>
<polygon fill="midnightblue" stroke="midnightblue" points="224.63,-82.02 216.09,-75.75 218.85,-85.98 224.63,-82.02"/>
</g>
<!-- Node9&#45;&gt;Node8 -->
<g id="edge15" class="edge">
<title>Node9&#45;&gt;Node8</title>
<path fill="none" stroke="midnightblue" d="M272.29,-112.44C299.98,-103.04 344.51,-87.91 374.51,-77.72"/>
<polygon fill="midnightblue" stroke="midnightblue" points="375.74,-81 384.09,-74.47 373.49,-74.37 375.74,-81"/>
</g>
<!-- Node10 -->
<g id="node10" class="node">
<title>Node10</title>
<g id="a_node10"><a xlink:href="Transform_8hpp.html" target="_top" xlink:title=" ">
<polygon fill="none" stroke="black" points="287.59,-56.5 287.59,-75.5 366.59,-75.5 366.59,-56.5 287.59,-56.5"/>
<text text-anchor="middle" x="327.09" y="-63.5" font-family="Helvetica,sans-Serif" font-size="10.00">Transform.hpp</text>
</a>
</g>
</g>
<!-- Node9&#45;&gt;Node10 -->
<g id="edge12" class="edge">
<title>Node9&#45;&gt;Node10</title>
<path fill="none" stroke="midnightblue" d="M259.94,-112.32C272.31,-103.98 291.22,-91.21 305.83,-81.35"/>
<polygon fill="midnightblue" stroke="midnightblue" points="307.94,-84.15 314.27,-75.65 304.02,-78.35 307.94,-84.15"/>
</g>
<!-- Node11 -->
<g id="node11" class="node">
<title>Node11</title>
<g id="a_node11"><a xlink:href="Point_8hpp.html" target="_top" xlink:title=" ">
<polygon fill="none" stroke="black" points="298.59,-0.5 298.59,-19.5 355.59,-19.5 355.59,-0.5 298.59,-0.5"/>
<text text-anchor="middle" x="327.09" y="-7.5" font-family="Helvetica,sans-Serif" font-size="10.00">Point.hpp</text>
</a>
</g>
</g>
<!-- Node10&#45;&gt;Node11 -->
<g id="edge13" class="edge">
<title>Node10&#45;&gt;Node11</title>
<path fill="none" stroke="midnightblue" d="M327.09,-56.08C327.09,-49.01 327.09,-38.86 327.09,-29.99"/>
<polygon fill="midnightblue" stroke="midnightblue" points="330.59,-29.75 327.09,-19.75 323.59,-29.75 330.59,-29.75"/>
</g>
</g>
</svg>
