<?xml version="1.0" encoding="UTF-8" standalone="no"?>
<!DOCTYPE svg PUBLIC "-//W3C//DTD SVG 1.1//EN"
 "http://www.w3.org/Graphics/SVG/1.1/DTD/svg11.dtd">
<!-- Generated by graphviz version 2.44.0 ()
 -->
<!-- Title: src/Managers/AudioManager.hpp Pages: 1 -->
<svg width="277pt" height="140pt"
 viewBox="0.00 0.00 276.50 140.00" xmlns="http://www.w3.org/2000/svg" xmlns:xlink="http://www.w3.org/1999/xlink">
<g id="graph0" class="graph" transform="scale(1 1) rotate(0) translate(4 136)">
<title>src/Managers/AudioManager.hpp</title>
<!-- Node1 -->
<g id="node1" class="node">
<title>Node1</title>
<g id="a_node1"><a xlink:title=" ">
<polygon fill="#bfbfbf" stroke="black" points="20,-112.5 20,-131.5 179,-131.5 179,-112.5 20,-112.5"/>
<text text-anchor="middle" x="99.5" y="-119.5" font-family="Helvetica,sans-Serif" font-size="10.00">src/Managers/AudioManager.hpp</text>
</a>
</g>
</g>
<!-- Node2 -->
<g id="node2" class="node">
<title>Node2</title>
<g id="a_node2"><a xlink:title=" ">
<polygon fill="none" stroke="#bfbfbf" points="0,-56.5 0,-75.5 41,-75.5 41,-56.5 0,-56.5"/>
<text text-anchor="middle" x="20.5" y="-63.5" font-family="Helvetica,sans-Serif" font-size="10.00">string</text>
</a>
</g>
</g>
<!-- Node1&#45;&gt;Node2 -->
<g id="edge1" class="edge">
<title>Node1&#45;&gt;Node2</title>
<path fill="none" stroke="midnightblue" d="M86.81,-112.32C74.6,-103.98 55.92,-91.21 41.5,-81.35"/>
<polygon fill="midnightblue" stroke="midnightblue" points="43.39,-78.41 33.16,-75.65 39.44,-84.19 43.39,-78.41"/>
</g>
<!-- Node3 -->
<g id="node3" class="node">
<title>Node3</title>
<g id="a_node3"><a xlink:title=" ">
<polygon fill="none" stroke="#bfbfbf" points="59,-56.5 59,-75.5 94,-75.5 94,-56.5 59,-56.5"/>
<text text-anchor="middle" x="76.5" y="-63.5" font-family="Helvetica,sans-Serif" font-size="10.00">map</text>
</a>
</g>
</g>
<!-- Node1&#45;&gt;Node3 -->
<g id="edge2" class="edge">
<title>Node1&#45;&gt;Node3</title>
<path fill="none" stroke="midnightblue" d="M95.7,-112.08C92.59,-104.77 88.08,-94.18 84.21,-85.1"/>
<polygon fill="midnightblue" stroke="midnightblue" points="87.37,-83.58 80.23,-75.75 80.93,-86.32 87.37,-83.58"/>
</g>
<!-- Node4 -->
<g id="node4" class="node">
<title>Node4</title>
<g id="a_node4"><a xlink:title=" ">
<polygon fill="none" stroke="#bfbfbf" points="101,-0.5 101,-19.5 152,-19.5 152,-0.5 101,-0.5"/>
<text text-anchor="middle" x="126.5" y="-7.5" font-family="Helvetica,sans-Serif" font-size="10.00">memory</text>
</a>
</g>
</g>
<!-- Node1&#45;&gt;Node4 -->
<g id="edge3" class="edge">
<title>Node1&#45;&gt;Node4</title>
<path fill="none" stroke="midnightblue" d="M101.62,-112.37C105.98,-94.62 116.03,-53.67 121.94,-29.6"/>
<polygon fill="midnightblue" stroke="midnightblue" points="125.41,-30.14 124.39,-19.59 118.61,-28.47 125.41,-30.14"/>
</g>
<!-- Node5 -->
<g id="node5" class="node">
<title>Node5</title>
<g id="a_node5"><a xlink:href="AudioClip_8hpp.html" target="_top" xlink:title=" ">
<polygon fill="none" stroke="black" points="150.5,-56.5 150.5,-75.5 268.5,-75.5 268.5,-56.5 150.5,-56.5"/>
<text text-anchor="middle" x="209.5" y="-63.5" font-family="Helvetica,sans-Serif" font-size="10.00">../Models/AudioClip.hpp</text>
</a>
</g>
</g>
<!-- Node1&#45;&gt;Node5 -->
<g id="edge4" class="edge">
<title>Node1&#45;&gt;Node5</title>
<path fill="none" stroke="midnightblue" d="M117.17,-112.32C134.89,-103.62 162.4,-90.12 182.79,-80.11"/>
<polygon fill="midnightblue" stroke="midnightblue" points="184.44,-83.2 191.87,-75.65 181.35,-76.92 184.44,-83.2"/>
</g>
<!-- Node5&#45;&gt;Node4 -->
<g id="edge5" class="edge">
<title>Node5&#45;&gt;Node4</title>
<path fill="none" stroke="midnightblue" d="M196.16,-56.32C183.34,-47.98 163.72,-35.21 148.56,-25.35"/>
<polygon fill="midnightblue" stroke="midnightblue" points="150.09,-22.17 139.8,-19.65 146.28,-28.04 150.09,-22.17"/>
</g>
<!-- Node6 -->
<g id="node6" class="node">
<title>Node6</title>
<g id="a_node6"><a xlink:title=" ">
<polygon fill="none" stroke="#bfbfbf" points="173.5,-0.5 173.5,-19.5 245.5,-19.5 245.5,-0.5 173.5,-0.5"/>
<text text-anchor="middle" x="209.5" y="-7.5" font-family="Helvetica,sans-Serif" font-size="10.00">SDL_mixer.h</text>
</a>
</g>
</g>
<!-- Node5&#45;&gt;Node6 -->
<g id="edge6" class="edge">
<title>Node5&#45;&gt;Node6</title>
<path fill="none" stroke="midnightblue" d="M209.5,-56.08C209.5,-49.01 209.5,-38.86 209.5,-29.99"/>
<polygon fill="midnightblue" stroke="midnightblue" points="213,-29.75 209.5,-19.75 206,-29.75 213,-29.75"/>
</g>
</g>
</svg>
