<?xml version="1.0" encoding="UTF-8" standalone="no"?>
<!DOCTYPE svg PUBLIC "-//W3C//DTD SVG 1.1//EN"
 "http://www.w3.org/Graphics/SVG/1.1/DTD/svg11.dtd">
<!-- Generated by graphviz version 2.44.0 ()
 -->
<!-- Title: src/Managers/AudioManager.cpp Pages: 1 -->
<svg width="734pt" height="196pt"
 viewBox="0.00 0.00 734.00 196.00" xmlns="http://www.w3.org/2000/svg" xmlns:xlink="http://www.w3.org/1999/xlink">
<g id="graph0" class="graph" transform="scale(1 1) rotate(0) translate(4 192)">
<title>src/Managers/AudioManager.cpp</title>
<!-- Node1 -->
<g id="node1" class="node">
<title>Node1</title>
<g id="a_node1"><a xlink:title=" ">
<polygon fill="#bfbfbf" stroke="black" points="410.5,-168.5 410.5,-187.5 569.5,-187.5 569.5,-168.5 410.5,-168.5"/>
<text text-anchor="middle" x="490" y="-175.5" font-family="Helvetica,sans-Serif" font-size="10.00">src/Managers/AudioManager.cpp</text>
</a>
</g>
</g>
<!-- Node2 -->
<g id="node2" class="node">
<title>Node2</title>
<g id="a_node2"><a xlink:href="AudioManager_8hpp.html" target="_top" xlink:title=" ">
<polygon fill="none" stroke="black" points="151.5,-112.5 151.5,-131.5 248.5,-131.5 248.5,-112.5 151.5,-112.5"/>
<text text-anchor="middle" x="200" y="-119.5" font-family="Helvetica,sans-Serif" font-size="10.00">AudioManager.hpp</text>
</a>
</g>
</g>
<!-- Node1&#45;&gt;Node2 -->
<g id="edge1" class="edge">
<title>Node1&#45;&gt;Node2</title>
<path fill="none" stroke="midnightblue" d="M444.05,-168.44C392.93,-158.92 310.35,-143.55 255.62,-133.36"/>
<polygon fill="midnightblue" stroke="midnightblue" points="256.21,-129.91 245.74,-131.52 254.93,-136.79 256.21,-129.91"/>
</g>
<!-- Node8 -->
<g id="node8" class="node">
<title>Node8</title>
<g id="a_node8"><a xlink:href="Debug_8hpp.html" target="_top" xlink:title=" ">
<polygon fill="none" stroke="black" points="321,-112.5 321,-131.5 383,-131.5 383,-112.5 321,-112.5"/>
<text text-anchor="middle" x="352" y="-119.5" font-family="Helvetica,sans-Serif" font-size="10.00">Debug.hpp</text>
</a>
</g>
</g>
<!-- Node1&#45;&gt;Node8 -->
<g id="edge8" class="edge">
<title>Node1&#45;&gt;Node8</title>
<path fill="none" stroke="midnightblue" d="M468.13,-168.44C445.22,-159.48 409.02,-145.31 383.13,-135.18"/>
<polygon fill="midnightblue" stroke="midnightblue" points="384.35,-131.9 373.76,-131.52 381.8,-138.42 384.35,-131.9"/>
</g>
<!-- Node11 -->
<g id="node11" class="node">
<title>Node11</title>
<g id="a_node11"><a xlink:href="SDLMixerException_8hpp.html" target="_top" xlink:title=" ">
<polygon fill="none" stroke="black" points="401.5,-112.5 401.5,-131.5 578.5,-131.5 578.5,-112.5 401.5,-112.5"/>
<text text-anchor="middle" x="490" y="-119.5" font-family="Helvetica,sans-Serif" font-size="10.00">../Exceptions/SDLMixerException.hpp</text>
</a>
</g>
</g>
<!-- Node1&#45;&gt;Node11 -->
<g id="edge12" class="edge">
<title>Node1&#45;&gt;Node11</title>
<path fill="none" stroke="midnightblue" d="M490,-168.08C490,-161.01 490,-150.86 490,-141.99"/>
<polygon fill="midnightblue" stroke="midnightblue" points="493.5,-141.75 490,-131.75 486.5,-141.75 493.5,-141.75"/>
</g>
<!-- Node14 -->
<g id="node14" class="node">
<title>Node14</title>
<g id="a_node14"><a xlink:title=" ">
<polygon fill="none" stroke="#bfbfbf" points="596.5,-112.5 596.5,-131.5 655.5,-131.5 655.5,-112.5 596.5,-112.5"/>
<text text-anchor="middle" x="626" y="-119.5" font-family="Helvetica,sans-Serif" font-size="10.00">stdexcept</text>
</a>
</g>
</g>
<!-- Node1&#45;&gt;Node14 -->
<g id="edge16" class="edge">
<title>Node1&#45;&gt;Node14</title>
<path fill="none" stroke="midnightblue" d="M511.55,-168.44C534.03,-159.52 569.49,-145.44 594.98,-135.32"/>
<polygon fill="midnightblue" stroke="midnightblue" points="596.55,-138.46 604.55,-131.52 593.97,-131.95 596.55,-138.46"/>
</g>
<!-- Node15 -->
<g id="node15" class="node">
<title>Node15</title>
<g id="a_node15"><a xlink:title=" ">
<polygon fill="none" stroke="#bfbfbf" points="674,-112.5 674,-131.5 726,-131.5 726,-112.5 674,-112.5"/>
<text text-anchor="middle" x="700" y="-119.5" font-family="Helvetica,sans-Serif" font-size="10.00">sstream</text>
</a>
</g>
</g>
<!-- Node1&#45;&gt;Node15 -->
<g id="edge17" class="edge">
<title>Node1&#45;&gt;Node15</title>
<path fill="none" stroke="midnightblue" d="M523.28,-168.44C561.68,-158.57 624.62,-142.38 664.1,-132.23"/>
<polygon fill="midnightblue" stroke="midnightblue" points="665.03,-135.61 673.85,-129.73 663.29,-128.83 665.03,-135.61"/>
</g>
<!-- Node3 -->
<g id="node3" class="node">
<title>Node3</title>
<g id="a_node3"><a xlink:title=" ">
<polygon fill="none" stroke="#bfbfbf" points="331.5,-0.5 331.5,-19.5 372.5,-19.5 372.5,-0.5 331.5,-0.5"/>
<text text-anchor="middle" x="352" y="-7.5" font-family="Helvetica,sans-Serif" font-size="10.00">string</text>
</a>
</g>
</g>
<!-- Node2&#45;&gt;Node3 -->
<g id="edge2" class="edge">
<title>Node2&#45;&gt;Node3</title>
<path fill="none" stroke="midnightblue" d="M205.9,-112.43C215.52,-98.98 235.75,-72.72 258,-56 277.46,-41.38 302.43,-29.69 321.74,-21.9"/>
<polygon fill="midnightblue" stroke="midnightblue" points="323.22,-25.08 331.27,-18.19 320.68,-18.56 323.22,-25.08"/>
</g>
<!-- Node4 -->
<g id="node4" class="node">
<title>Node4</title>
<g id="a_node4"><a xlink:title=" ">
<polygon fill="none" stroke="#bfbfbf" points="136.5,-56.5 136.5,-75.5 171.5,-75.5 171.5,-56.5 136.5,-56.5"/>
<text text-anchor="middle" x="154" y="-63.5" font-family="Helvetica,sans-Serif" font-size="10.00">map</text>
</a>
</g>
</g>
<!-- Node2&#45;&gt;Node4 -->
<g id="edge3" class="edge">
<title>Node2&#45;&gt;Node4</title>
<path fill="none" stroke="midnightblue" d="M192.4,-112.08C185.77,-104.3 175.98,-92.8 167.94,-83.37"/>
<polygon fill="midnightblue" stroke="midnightblue" points="170.6,-81.09 161.45,-75.75 165.27,-85.63 170.6,-81.09"/>
</g>
<!-- Node5 -->
<g id="node5" class="node">
<title>Node5</title>
<g id="a_node5"><a xlink:title=" ">
<polygon fill="none" stroke="#bfbfbf" points="144.5,-0.5 144.5,-19.5 195.5,-19.5 195.5,-0.5 144.5,-0.5"/>
<text text-anchor="middle" x="170" y="-7.5" font-family="Helvetica,sans-Serif" font-size="10.00">memory</text>
</a>
</g>
</g>
<!-- Node2&#45;&gt;Node5 -->
<g id="edge4" class="edge">
<title>Node2&#45;&gt;Node5</title>
<path fill="none" stroke="midnightblue" d="M197.65,-112.37C192.78,-94.54 181.54,-53.3 174.98,-29.27"/>
<polygon fill="midnightblue" stroke="midnightblue" points="178.35,-28.32 172.34,-19.59 171.6,-30.16 178.35,-28.32"/>
</g>
<!-- Node6 -->
<g id="node6" class="node">
<title>Node6</title>
<g id="a_node6"><a xlink:href="AudioClip_8hpp.html" target="_top" xlink:title=" ">
<polygon fill="none" stroke="black" points="0,-56.5 0,-75.5 118,-75.5 118,-56.5 0,-56.5"/>
<text text-anchor="middle" x="59" y="-63.5" font-family="Helvetica,sans-Serif" font-size="10.00">../Models/AudioClip.hpp</text>
</a>
</g>
</g>
<!-- Node2&#45;&gt;Node6 -->
<g id="edge5" class="edge">
<title>Node2&#45;&gt;Node6</title>
<path fill="none" stroke="midnightblue" d="M177.66,-112.44C154.25,-103.48 117.26,-89.31 90.81,-79.18"/>
<polygon fill="midnightblue" stroke="midnightblue" points="91.83,-75.82 81.24,-75.52 89.32,-82.36 91.83,-75.82"/>
</g>
<!-- Node6&#45;&gt;Node5 -->
<g id="edge6" class="edge">
<title>Node6&#45;&gt;Node5</title>
<path fill="none" stroke="midnightblue" d="M76.83,-56.32C94.72,-47.62 122.48,-34.12 143.05,-24.11"/>
<polygon fill="midnightblue" stroke="midnightblue" points="144.75,-27.18 152.21,-19.65 141.69,-20.88 144.75,-27.18"/>
</g>
<!-- Node7 -->
<g id="node7" class="node">
<title>Node7</title>
<g id="a_node7"><a xlink:title=" ">
<polygon fill="none" stroke="#bfbfbf" points="23,-0.5 23,-19.5 95,-19.5 95,-0.5 23,-0.5"/>
<text text-anchor="middle" x="59" y="-7.5" font-family="Helvetica,sans-Serif" font-size="10.00">SDL_mixer.h</text>
</a>
</g>
</g>
<!-- Node6&#45;&gt;Node7 -->
<g id="edge7" class="edge">
<title>Node6&#45;&gt;Node7</title>
<path fill="none" stroke="midnightblue" d="M59,-56.08C59,-49.01 59,-38.86 59,-29.99"/>
<polygon fill="midnightblue" stroke="midnightblue" points="62.5,-29.75 59,-19.75 55.5,-29.75 62.5,-29.75"/>
</g>
<!-- Node8&#45;&gt;Node3 -->
<g id="edge11" class="edge">
<title>Node8&#45;&gt;Node3</title>
<path fill="none" stroke="midnightblue" d="M352,-112.37C352,-94.62 352,-53.67 352,-29.6"/>
<polygon fill="midnightblue" stroke="midnightblue" points="355.5,-29.59 352,-19.59 348.5,-29.59 355.5,-29.59"/>
</g>
<!-- Node9 -->
<g id="node9" class="node">
<title>Node9</title>
<g id="a_node9"><a xlink:href="Point_8hpp.html" target="_top" xlink:title=" ">
<polygon fill="none" stroke="black" points="380.5,-56.5 380.5,-75.5 437.5,-75.5 437.5,-56.5 380.5,-56.5"/>
<text text-anchor="middle" x="409" y="-63.5" font-family="Helvetica,sans-Serif" font-size="10.00">Point.hpp</text>
</a>
</g>
</g>
<!-- Node8&#45;&gt;Node9 -->
<g id="edge9" class="edge">
<title>Node8&#45;&gt;Node9</title>
<path fill="none" stroke="midnightblue" d="M361.16,-112.32C369.5,-104.42 382.03,-92.55 392.18,-82.94"/>
<polygon fill="midnightblue" stroke="midnightblue" points="394.82,-85.25 399.68,-75.83 390.01,-80.17 394.82,-85.25"/>
</g>
<!-- Node10 -->
<g id="node10" class="node">
<title>Node10</title>
<g id="a_node10"><a xlink:href="Color_8hpp.html" target="_top" xlink:title=" ">
<polygon fill="none" stroke="black" points="266.5,-56.5 266.5,-75.5 323.5,-75.5 323.5,-56.5 266.5,-56.5"/>
<text text-anchor="middle" x="295" y="-63.5" font-family="Helvetica,sans-Serif" font-size="10.00">Color.hpp</text>
</a>
</g>
</g>
<!-- Node8&#45;&gt;Node10 -->
<g id="edge10" class="edge">
<title>Node8&#45;&gt;Node10</title>
<path fill="none" stroke="midnightblue" d="M342.84,-112.32C334.5,-104.42 321.97,-92.55 311.82,-82.94"/>
<polygon fill="midnightblue" stroke="midnightblue" points="313.99,-80.17 304.32,-75.83 309.18,-85.25 313.99,-80.17"/>
</g>
<!-- Node12 -->
<g id="node12" class="node">
<title>Node12</title>
<g id="a_node12"><a xlink:href="EngineException_8hpp.html" target="_top" xlink:title=" ">
<polygon fill="none" stroke="black" points="456,-56.5 456,-75.5 562,-75.5 562,-56.5 456,-56.5"/>
<text text-anchor="middle" x="509" y="-63.5" font-family="Helvetica,sans-Serif" font-size="10.00">EngineException.hpp</text>
</a>
</g>
</g>
<!-- Node11&#45;&gt;Node12 -->
<g id="edge13" class="edge">
<title>Node11&#45;&gt;Node12</title>
<path fill="none" stroke="midnightblue" d="M493.14,-112.08C495.68,-104.85 499.36,-94.41 502.53,-85.4"/>
<polygon fill="midnightblue" stroke="midnightblue" points="505.9,-86.35 505.92,-75.75 499.3,-84.02 505.9,-86.35"/>
</g>
<!-- Node12&#45;&gt;Node3 -->
<g id="edge15" class="edge">
<title>Node12&#45;&gt;Node3</title>
<path fill="none" stroke="midnightblue" d="M484.12,-56.44C456.59,-46.97 412.19,-31.7 382.56,-21.51"/>
<polygon fill="midnightblue" stroke="midnightblue" points="383.34,-18.08 372.75,-18.14 381.07,-24.7 383.34,-18.08"/>
</g>
<!-- Node13 -->
<g id="node13" class="node">
<title>Node13</title>
<g id="a_node13"><a xlink:title=" ">
<polygon fill="none" stroke="#bfbfbf" points="480,-0.5 480,-19.5 538,-19.5 538,-0.5 480,-0.5"/>
<text text-anchor="middle" x="509" y="-7.5" font-family="Helvetica,sans-Serif" font-size="10.00">exception</text>
</a>
</g>
</g>
<!-- Node12&#45;&gt;Node13 -->
<g id="edge14" class="edge">
<title>Node12&#45;&gt;Node13</title>
<path fill="none" stroke="midnightblue" d="M509,-56.08C509,-49.01 509,-38.86 509,-29.99"/>
<polygon fill="midnightblue" stroke="midnightblue" points="512.5,-29.75 509,-19.75 505.5,-29.75 512.5,-29.75"/>
</g>
</g>
</svg>
