<?xml version="1.0" encoding="UTF-8" standalone="no"?>
<!DOCTYPE svg PUBLIC "-//W3C//DTD SVG 1.1//EN"
 "http://www.w3.org/Graphics/SVG/1.1/DTD/svg11.dtd">
<!-- Generated by graphviz version 2.44.0 ()
 -->
<!-- Title: includes/spic&#45;api&#45;headers/BehaviourScript.hpp Pages: 1 -->
<svg width="887pt" height="296pt"
 viewBox="0.00 0.00 887.00 296.00" xmlns="http://www.w3.org/2000/svg" xmlns:xlink="http://www.w3.org/1999/xlink">
<g id="graph0" class="graph" transform="scale(1 1) rotate(0) translate(4 292)">
<title>includes/spic&#45;api&#45;headers/BehaviourScript.hpp</title>
<!-- Node1 -->
<g id="node1" class="node">
<title>Node1</title>
<g id="a_node1"><a xlink:title=" ">
<polygon fill="#bfbfbf" stroke="black" points="326.5,-257.5 326.5,-287.5 453.5,-287.5 453.5,-257.5 326.5,-257.5"/>
<text text-anchor="start" x="334.5" y="-275.5" font-family="Helvetica,sans-Serif" font-size="10.00">includes/spic&#45;api&#45;headers</text>
<text text-anchor="middle" x="390" y="-264.5" font-family="Helvetica,sans-Serif" font-size="10.00">/BehaviourScript.hpp</text>
</a>
</g>
</g>
<!-- Node2 -->
<g id="node2" class="node">
<title>Node2</title>
<g id="a_node2"><a xlink:href="BehaviourScript_8cpp.html" target="_top" xlink:title=" ">
<polygon fill="none" stroke="black" points="16.5,-196 16.5,-215 153.5,-215 153.5,-196 16.5,-196"/>
<text text-anchor="middle" x="85" y="-203" font-family="Helvetica,sans-Serif" font-size="10.00">src/Api/BehaviourScript.cpp</text>
</a>
</g>
</g>
<!-- Node1&#45;&gt;Node2 -->
<g id="edge1" class="edge">
<title>Node1&#45;&gt;Node2</title>
<path fill="none" stroke="midnightblue" d="M316.62,-255.86C256.53,-243.06 173.79,-225.42 125.19,-215.06"/>
<polygon fill="midnightblue" stroke="midnightblue" points="315.92,-259.29 326.43,-257.95 317.38,-252.45 315.92,-259.29"/>
</g>
<!-- Node3 -->
<g id="node3" class="node">
<title>Node3</title>
<g id="a_node3"><a xlink:href="ContactListener_8cpp.html" target="_top" xlink:title=" ">
<polygon fill="none" stroke="black" points="0,-129 0,-148 164,-148 164,-129 0,-129"/>
<text text-anchor="middle" x="82" y="-136" font-family="Helvetica,sans-Serif" font-size="10.00">src/Listeners/ContactListener.cpp</text>
</a>
</g>
</g>
<!-- Node1&#45;&gt;Node3 -->
<g id="edge2" class="edge">
<title>Node1&#45;&gt;Node3</title>
<path fill="none" stroke="midnightblue" d="M316.41,-259.17C280.35,-251.33 237.05,-239.15 201,-221 181.22,-211.04 180.06,-202.82 162,-190 139.9,-174.31 113.06,-157.87 96.76,-148.16"/>
<polygon fill="midnightblue" stroke="midnightblue" points="315.87,-262.63 326.38,-261.27 317.31,-255.78 315.87,-262.63"/>
</g>
<!-- Node4 -->
<g id="node4" class="node">
<title>Node4</title>
<g id="a_node4"><a xlink:href="ContactListener_8hpp.html" target="_top" xlink:title=" ">
<polygon fill="none" stroke="black" points="210,-196 210,-215 374,-215 374,-196 210,-196"/>
<text text-anchor="middle" x="292" y="-203" font-family="Helvetica,sans-Serif" font-size="10.00">src/Listeners/ContactListener.hpp</text>
</a>
</g>
</g>
<!-- Node1&#45;&gt;Node4 -->
<g id="edge3" class="edge">
<title>Node1&#45;&gt;Node4</title>
<path fill="none" stroke="midnightblue" d="M360.31,-251.81C341.77,-239.51 318.84,-224.3 304.83,-215.01"/>
<polygon fill="midnightblue" stroke="midnightblue" points="358.47,-254.79 368.74,-257.4 362.34,-248.95 358.47,-254.79"/>
</g>
<!-- Node9 -->
<g id="node9" class="node">
<title>Node9</title>
<g id="a_node9"><a xlink:href="BehaviourScriptSubsystem_8cpp.html" target="_top" xlink:title=" ">
<polygon fill="none" stroke="black" points="745,-123.5 745,-153.5 879,-153.5 879,-123.5 745,-123.5"/>
<text text-anchor="start" x="753" y="-141.5" font-family="Helvetica,sans-Serif" font-size="10.00">src/Subsystems/Behaviour</text>
<text text-anchor="middle" x="812" y="-130.5" font-family="Helvetica,sans-Serif" font-size="10.00">ScriptSubsystem.cpp</text>
</a>
</g>
</g>
<!-- Node1&#45;&gt;Node9 -->
<g id="edge9" class="edge">
<title>Node1&#45;&gt;Node9</title>
<path fill="none" stroke="midnightblue" d="M462.34,-254.73C490.62,-246.64 522.74,-235.5 550,-221 569.55,-210.61 569.03,-199.57 589,-190 603.12,-183.23 684.51,-165.63 744.91,-153.11"/>
<polygon fill="midnightblue" stroke="midnightblue" points="461.21,-251.42 452.51,-257.47 463.09,-258.16 461.21,-251.42"/>
</g>
<!-- Node10 -->
<g id="node10" class="node">
<title>Node10</title>
<g id="a_node10"><a xlink:href="BehaviourScriptSubsystem_8hpp.html" target="_top" xlink:title=" ">
<polygon fill="none" stroke="black" points="407,-190.5 407,-220.5 541,-220.5 541,-190.5 407,-190.5"/>
<text text-anchor="start" x="415" y="-208.5" font-family="Helvetica,sans-Serif" font-size="10.00">src/Subsystems/Behaviour</text>
<text text-anchor="middle" x="474" y="-197.5" font-family="Helvetica,sans-Serif" font-size="10.00">ScriptSubsystem.hpp</text>
</a>
</g>
</g>
<!-- Node1&#45;&gt;Node10 -->
<g id="edge10" class="edge">
<title>Node1&#45;&gt;Node10</title>
<path fill="none" stroke="midnightblue" d="M416.28,-251.17C429.12,-241.23 444.26,-229.51 455.81,-220.58"/>
<polygon fill="midnightblue" stroke="midnightblue" points="413.99,-248.51 408.23,-257.4 418.28,-254.04 413.99,-248.51"/>
</g>
<!-- Node15 -->
<g id="node15" class="node">
<title>Node15</title>
<g id="a_node15"><a xlink:href="Api_8hpp.html" target="_top" xlink:title=" ">
<polygon fill="none" stroke="black" points="597.5,-190.5 597.5,-220.5 724.5,-220.5 724.5,-190.5 597.5,-190.5"/>
<text text-anchor="start" x="605.5" y="-208.5" font-family="Helvetica,sans-Serif" font-size="10.00">includes/spic&#45;api&#45;headers</text>
<text text-anchor="middle" x="661" y="-197.5" font-family="Helvetica,sans-Serif" font-size="10.00">/Api.hpp</text>
</a>
</g>
</g>
<!-- Node1&#45;&gt;Node15 -->
<g id="edge18" class="edge">
<title>Node1&#45;&gt;Node15</title>
<path fill="none" stroke="midnightblue" d="M458.3,-255.12C502.64,-244.48 559.84,-230.76 602.17,-220.61"/>
<polygon fill="midnightblue" stroke="midnightblue" points="457.38,-251.74 448.47,-257.48 459.01,-258.55 457.38,-251.74"/>
</g>
<!-- Node4&#45;&gt;Node3 -->
<g id="edge4" class="edge">
<title>Node4&#45;&gt;Node3</title>
<path fill="none" stroke="midnightblue" d="M254.35,-192.85C212.76,-179.97 146.76,-159.55 109.67,-148.06"/>
<polygon fill="midnightblue" stroke="midnightblue" points="253.53,-196.26 264.11,-195.87 255.6,-189.57 253.53,-196.26"/>
</g>
<!-- Node5 -->
<g id="node5" class="node">
<title>Node5</title>
<g id="a_node5"><a xlink:href="PhysicsSubsystem_8hpp.html" target="_top" xlink:title=" ">
<polygon fill="none" stroke="black" points="182.5,-129 182.5,-148 373.5,-148 373.5,-129 182.5,-129"/>
<text text-anchor="middle" x="278" y="-136" font-family="Helvetica,sans-Serif" font-size="10.00">src/Subsystems/PhysicsSubsystem.hpp</text>
</a>
</g>
</g>
<!-- Node4&#45;&gt;Node5 -->
<g id="edge5" class="edge">
<title>Node4&#45;&gt;Node5</title>
<path fill="none" stroke="midnightblue" d="M288,-185.91C285.32,-173.49 281.92,-157.72 279.86,-148.13"/>
<polygon fill="midnightblue" stroke="midnightblue" points="284.58,-186.69 290.11,-195.73 291.43,-185.22 284.58,-186.69"/>
</g>
<!-- Node6 -->
<g id="node6" class="node">
<title>Node6</title>
<g id="a_node6"><a xlink:href="PhysicsSubsystem_8cpp.html" target="_top" xlink:title=" ">
<polygon fill="none" stroke="black" points="90.5,-62 90.5,-81 281.5,-81 281.5,-62 90.5,-62"/>
<text text-anchor="middle" x="186" y="-69" font-family="Helvetica,sans-Serif" font-size="10.00">src/Subsystems/PhysicsSubsystem.cpp</text>
</a>
</g>
</g>
<!-- Node5&#45;&gt;Node6 -->
<g id="edge6" class="edge">
<title>Node5&#45;&gt;Node6</title>
<path fill="none" stroke="midnightblue" d="M257.36,-122.92C239.18,-110.07 213.29,-91.78 198.21,-81.13"/>
<polygon fill="midnightblue" stroke="midnightblue" points="255.41,-125.82 265.59,-128.73 259.44,-120.1 255.41,-125.82"/>
</g>
<!-- Node7 -->
<g id="node7" class="node">
<title>Node7</title>
<g id="a_node7"><a xlink:href="Subsystems_8hpp.html" target="_top" xlink:title=" ">
<polygon fill="none" stroke="black" points="483,-62 483,-81 645,-81 645,-62 483,-62"/>
<text text-anchor="middle" x="564" y="-69" font-family="Helvetica,sans-Serif" font-size="10.00">src/Subsystems/Subsystems.hpp</text>
</a>
</g>
</g>
<!-- Node5&#45;&gt;Node7 -->
<g id="edge7" class="edge">
<title>Node5&#45;&gt;Node7</title>
<path fill="none" stroke="midnightblue" d="M325.77,-126.64C382.12,-113.84 474.64,-92.81 526.23,-81.08"/>
<polygon fill="midnightblue" stroke="midnightblue" points="324.66,-123.31 315.68,-128.94 326.21,-130.13 324.66,-123.31"/>
</g>
<!-- Node8 -->
<g id="node8" class="node">
<title>Node8</title>
<g id="a_node8"><a xlink:href="Engine_8cpp.html" target="_top" xlink:title=" ">
<polygon fill="none" stroke="black" points="515,-0.5 515,-19.5 613,-19.5 613,-0.5 515,-0.5"/>
<text text-anchor="middle" x="564" y="-7.5" font-family="Helvetica,sans-Serif" font-size="10.00">src/Api/Engine.cpp</text>
</a>
</g>
</g>
<!-- Node7&#45;&gt;Node8 -->
<g id="edge8" class="edge">
<title>Node7&#45;&gt;Node8</title>
<path fill="none" stroke="midnightblue" d="M564,-51.82C564,-41 564,-27.9 564,-19.51"/>
<polygon fill="midnightblue" stroke="midnightblue" points="560.5,-51.98 564,-61.98 567.5,-51.98 560.5,-51.98"/>
</g>
<!-- Node10&#45;&gt;Node9 -->
<g id="edge11" class="edge">
<title>Node10&#45;&gt;Node9</title>
<path fill="none" stroke="midnightblue" d="M551.11,-189.67C609.57,-178.43 689.11,-163.13 744.95,-152.4"/>
<polygon fill="midnightblue" stroke="midnightblue" points="550.34,-186.25 541.18,-191.58 551.66,-193.13 550.34,-186.25"/>
</g>
<!-- Node11 -->
<g id="node11" class="node">
<title>Node11</title>
<g id="a_node11"><a xlink:href="LateUpdateBehaviourScriptSubsystem_8hpp.html" target="_top" xlink:title=" ">
<polygon fill="none" stroke="black" points="575,-123.5 575,-153.5 727,-153.5 727,-123.5 575,-123.5"/>
<text text-anchor="start" x="583" y="-141.5" font-family="Helvetica,sans-Serif" font-size="10.00">src/Subsystems/LateUpdate</text>
<text text-anchor="middle" x="651" y="-130.5" font-family="Helvetica,sans-Serif" font-size="10.00">BehaviourScriptSubsystem.hpp</text>
</a>
</g>
</g>
<!-- Node10&#45;&gt;Node11 -->
<g id="edge12" class="edge">
<title>Node10&#45;&gt;Node11</title>
<path fill="none" stroke="midnightblue" d="M522.15,-186.82C550.6,-176.37 586.13,-163.32 612.67,-153.58"/>
<polygon fill="midnightblue" stroke="midnightblue" points="520.59,-183.66 512.41,-190.4 523,-190.23 520.59,-183.66"/>
</g>
<!-- Node13 -->
<g id="node13" class="node">
<title>Node13</title>
<g id="a_node13"><a xlink:href="UpdateBehaviourScriptSubsystem_8hpp.html" target="_top" xlink:title=" ">
<polygon fill="none" stroke="black" points="391.5,-123.5 391.5,-153.5 556.5,-153.5 556.5,-123.5 391.5,-123.5"/>
<text text-anchor="start" x="399.5" y="-141.5" font-family="Helvetica,sans-Serif" font-size="10.00">src/Subsystems/UpdateBehaviour</text>
<text text-anchor="middle" x="474" y="-130.5" font-family="Helvetica,sans-Serif" font-size="10.00">ScriptSubsystem.hpp</text>
</a>
</g>
</g>
<!-- Node10&#45;&gt;Node13 -->
<g id="edge15" class="edge">
<title>Node10&#45;&gt;Node13</title>
<path fill="none" stroke="midnightblue" d="M474,-180.11C474,-171.15 474,-161.32 474,-153.58"/>
<polygon fill="midnightblue" stroke="midnightblue" points="470.5,-180.4 474,-190.4 477.5,-180.4 470.5,-180.4"/>
</g>
<!-- Node11&#45;&gt;Node7 -->
<g id="edge14" class="edge">
<title>Node11&#45;&gt;Node7</title>
<path fill="none" stroke="midnightblue" d="M624.02,-117.34C607.78,-105.21 587.94,-90.39 575.64,-81.19"/>
<polygon fill="midnightblue" stroke="midnightblue" points="622.02,-120.21 632.12,-123.4 626.21,-114.61 622.02,-120.21"/>
</g>
<!-- Node12 -->
<g id="node12" class="node">
<title>Node12</title>
<g id="a_node12"><a xlink:href="LateUpdateBehaviourScriptSubsystem_8cpp.html" target="_top" xlink:title=" ">
<polygon fill="none" stroke="black" points="663,-56.5 663,-86.5 815,-86.5 815,-56.5 663,-56.5"/>
<text text-anchor="start" x="671" y="-74.5" font-family="Helvetica,sans-Serif" font-size="10.00">src/Subsystems/LateUpdate</text>
<text text-anchor="middle" x="739" y="-63.5" font-family="Helvetica,sans-Serif" font-size="10.00">BehaviourScriptSubsystem.cpp</text>
</a>
</g>
</g>
<!-- Node11&#45;&gt;Node12 -->
<g id="edge13" class="edge">
<title>Node11&#45;&gt;Node12</title>
<path fill="none" stroke="midnightblue" d="M678.14,-117.45C691.68,-107.45 707.73,-95.6 719.94,-86.58"/>
<polygon fill="midnightblue" stroke="midnightblue" points="676.06,-114.64 670.09,-123.4 680.22,-120.27 676.06,-114.64"/>
</g>
<!-- Node13&#45;&gt;Node7 -->
<g id="edge16" class="edge">
<title>Node13&#45;&gt;Node7</title>
<path fill="none" stroke="midnightblue" d="M501.96,-117.31C518.86,-105.1 539.52,-90.18 552.22,-81.01"/>
<polygon fill="midnightblue" stroke="midnightblue" points="499.59,-114.7 493.53,-123.4 503.68,-120.38 499.59,-114.7"/>
</g>
<!-- Node14 -->
<g id="node14" class="node">
<title>Node14</title>
<g id="a_node14"><a xlink:href="UpdateBehaviourScriptSubsystem_8cpp.html" target="_top" xlink:title=" ">
<polygon fill="none" stroke="black" points="299.5,-56.5 299.5,-86.5 464.5,-86.5 464.5,-56.5 299.5,-56.5"/>
<text text-anchor="start" x="307.5" y="-74.5" font-family="Helvetica,sans-Serif" font-size="10.00">src/Subsystems/UpdateBehaviour</text>
<text text-anchor="middle" x="382" y="-63.5" font-family="Helvetica,sans-Serif" font-size="10.00">ScriptSubsystem.cpp</text>
</a>
</g>
</g>
<!-- Node13&#45;&gt;Node14 -->
<g id="edge17" class="edge">
<title>Node13&#45;&gt;Node14</title>
<path fill="none" stroke="midnightblue" d="M445.62,-117.45C431.47,-107.45 414.69,-95.6 401.92,-86.58"/>
<polygon fill="midnightblue" stroke="midnightblue" points="443.85,-120.48 454.04,-123.4 447.89,-114.77 443.85,-120.48"/>
</g>
</g>
</svg>
