<?xml version="1.0" encoding="UTF-8" standalone="no"?>
<!DOCTYPE svg PUBLIC "-//W3C//DTD SVG 1.1//EN"
 "http://www.w3.org/Graphics/SVG/1.1/DTD/svg11.dtd">
<!-- Generated by graphviz version 2.44.0 ()
 -->
<!-- Title: src/Api/BehaviourScript.cpp Pages: 1 -->
<svg width="260pt" height="252pt"
 viewBox="0.00 0.00 259.50 252.00" xmlns="http://www.w3.org/2000/svg" xmlns:xlink="http://www.w3.org/1999/xlink">
<g id="graph0" class="graph" transform="scale(1 1) rotate(0) translate(4 248)">
<title>src/Api/BehaviourScript.cpp</title>
<!-- Node1 -->
<g id="node1" class="node">
<title>Node1</title>
<g id="a_node1"><a xlink:title=" ">
<polygon fill="#bfbfbf" stroke="black" points="79.5,-224.5 79.5,-243.5 216.5,-243.5 216.5,-224.5 79.5,-224.5"/>
<text text-anchor="middle" x="148" y="-231.5" font-family="Helvetica,sans-Serif" font-size="10.00">src/Api/BehaviourScript.cpp</text>
</a>
</g>
</g>
<!-- Node2 -->
<g id="node2" class="node">
<title>Node2</title>
<g id="a_node2"><a xlink:href="BehaviourScript_8hpp.html" target="_top" xlink:title=" ">
<polygon fill="none" stroke="black" points="0,-168.5 0,-187.5 104,-187.5 104,-168.5 0,-168.5"/>
<text text-anchor="middle" x="52" y="-175.5" font-family="Helvetica,sans-Serif" font-size="10.00">BehaviourScript.hpp</text>
</a>
</g>
</g>
<!-- Node1&#45;&gt;Node2 -->
<g id="edge1" class="edge">
<title>Node1&#45;&gt;Node2</title>
<path fill="none" stroke="midnightblue" d="M132.58,-224.32C117.46,-215.82 94.18,-202.73 76.53,-192.8"/>
<polygon fill="midnightblue" stroke="midnightblue" points="77.82,-189.51 67.39,-187.65 74.39,-195.61 77.82,-189.51"/>
</g>
<!-- Node6 -->
<g id="node6" class="node">
<title>Node6</title>
<g id="a_node6"><a xlink:title=" ">
<polygon fill="none" stroke="#bfbfbf" points="122,-168.5 122,-187.5 174,-187.5 174,-168.5 122,-168.5"/>
<text text-anchor="middle" x="148" y="-175.5" font-family="Helvetica,sans-Serif" font-size="10.00">sstream</text>
</a>
</g>
</g>
<!-- Node1&#45;&gt;Node6 -->
<g id="edge6" class="edge">
<title>Node1&#45;&gt;Node6</title>
<path fill="none" stroke="midnightblue" d="M148,-224.08C148,-217.01 148,-206.86 148,-197.99"/>
<polygon fill="midnightblue" stroke="midnightblue" points="151.5,-197.75 148,-187.75 144.5,-197.75 151.5,-197.75"/>
</g>
<!-- Node7 -->
<g id="node7" class="node">
<title>Node7</title>
<g id="a_node7"><a xlink:title=" ">
<polygon fill="none" stroke="#bfbfbf" points="192.5,-168.5 192.5,-187.5 251.5,-187.5 251.5,-168.5 192.5,-168.5"/>
<text text-anchor="middle" x="222" y="-175.5" font-family="Helvetica,sans-Serif" font-size="10.00">stdexcept</text>
</a>
</g>
</g>
<!-- Node1&#45;&gt;Node7 -->
<g id="edge7" class="edge">
<title>Node1&#45;&gt;Node7</title>
<path fill="none" stroke="midnightblue" d="M159.89,-224.32C171.15,-216.11 188.29,-203.6 201.71,-193.81"/>
<polygon fill="midnightblue" stroke="midnightblue" points="203.88,-196.56 209.89,-187.83 199.75,-190.9 203.88,-196.56"/>
</g>
<!-- Node3 -->
<g id="node3" class="node">
<title>Node3</title>
<g id="a_node3"><a xlink:href="Component_8hpp.html" target="_top" xlink:title=" ">
<polygon fill="none" stroke="black" points="10,-56.5 10,-75.5 94,-75.5 94,-56.5 10,-56.5"/>
<text text-anchor="middle" x="52" y="-63.5" font-family="Helvetica,sans-Serif" font-size="10.00">Component.hpp</text>
</a>
</g>
</g>
<!-- Node2&#45;&gt;Node3 -->
<g id="edge2" class="edge">
<title>Node2&#45;&gt;Node3</title>
<path fill="none" stroke="midnightblue" d="M48.91,-168.17C45.95,-159.2 41.68,-144.83 40,-132 37.93,-116.18 41.65,-98.36 45.48,-85.39"/>
<polygon fill="midnightblue" stroke="midnightblue" points="48.84,-86.38 48.6,-75.79 42.18,-84.22 48.84,-86.38"/>
</g>
<!-- Node5 -->
<g id="node5" class="node">
<title>Node5</title>
<g id="a_node5"><a xlink:href="Collider_8hpp.html" target="_top" xlink:title=" ">
<polygon fill="none" stroke="black" points="49.5,-112.5 49.5,-131.5 116.5,-131.5 116.5,-112.5 49.5,-112.5"/>
<text text-anchor="middle" x="83" y="-119.5" font-family="Helvetica,sans-Serif" font-size="10.00">Collider.hpp</text>
</a>
</g>
</g>
<!-- Node2&#45;&gt;Node5 -->
<g id="edge4" class="edge">
<title>Node2&#45;&gt;Node5</title>
<path fill="none" stroke="midnightblue" d="M57.12,-168.08C61.41,-160.61 67.66,-149.72 72.94,-140.52"/>
<polygon fill="midnightblue" stroke="midnightblue" points="76.03,-142.17 77.98,-131.75 69.96,-138.68 76.03,-142.17"/>
</g>
<!-- Node4 -->
<g id="node4" class="node">
<title>Node4</title>
<g id="a_node4"><a xlink:title=" ">
<polygon fill="none" stroke="#bfbfbf" points="26.5,-0.5 26.5,-19.5 77.5,-19.5 77.5,-0.5 26.5,-0.5"/>
<text text-anchor="middle" x="52" y="-7.5" font-family="Helvetica,sans-Serif" font-size="10.00">memory</text>
</a>
</g>
</g>
<!-- Node3&#45;&gt;Node4 -->
<g id="edge3" class="edge">
<title>Node3&#45;&gt;Node4</title>
<path fill="none" stroke="midnightblue" d="M52,-56.08C52,-49.01 52,-38.86 52,-29.99"/>
<polygon fill="midnightblue" stroke="midnightblue" points="55.5,-29.75 52,-19.75 48.5,-29.75 55.5,-29.75"/>
</g>
<!-- Node5&#45;&gt;Node3 -->
<g id="edge5" class="edge">
<title>Node5&#45;&gt;Node3</title>
<path fill="none" stroke="midnightblue" d="M77.88,-112.08C73.59,-104.61 67.34,-93.72 62.06,-84.52"/>
<polygon fill="midnightblue" stroke="midnightblue" points="65.04,-82.68 57.02,-75.75 58.97,-86.17 65.04,-82.68"/>
</g>
</g>
</svg>
