<?xml version="1.0" encoding="UTF-8" standalone="no"?>
<!DOCTYPE svg PUBLIC "-//W3C//DTD SVG 1.1//EN"
 "http://www.w3.org/Graphics/SVG/1.1/DTD/svg11.dtd">
<!-- Generated by graphviz version 2.44.0 ()
 -->
<!-- Title: src/Subsystems/BehaviourScriptSubsystem.hpp Pages: 1 -->
<svg width="588pt" height="229pt"
 viewBox="0.00 0.00 587.50 229.00" xmlns="http://www.w3.org/2000/svg" xmlns:xlink="http://www.w3.org/1999/xlink">
<g id="graph0" class="graph" transform="scale(1 1) rotate(0) translate(4 225)">
<title>src/Subsystems/BehaviourScriptSubsystem.hpp</title>
<!-- Node1 -->
<g id="node1" class="node">
<title>Node1</title>
<g id="a_node1"><a xlink:title=" ">
<polygon fill="#bfbfbf" stroke="black" points="161,-190.5 161,-220.5 295,-220.5 295,-190.5 161,-190.5"/>
<text text-anchor="start" x="169" y="-208.5" font-family="Helvetica,sans-Serif" font-size="10.00">src/Subsystems/Behaviour</text>
<text text-anchor="middle" x="228" y="-197.5" font-family="Helvetica,sans-Serif" font-size="10.00">ScriptSubsystem.hpp</text>
</a>
</g>
</g>
<!-- Node2 -->
<g id="node2" class="node">
<title>Node2</title>
<g id="a_node2"><a xlink:href="BehaviourScriptSubsystem_8cpp.html" target="_top" xlink:title=" ">
<polygon fill="none" stroke="black" points="0,-123.5 0,-153.5 134,-153.5 134,-123.5 0,-123.5"/>
<text text-anchor="start" x="8" y="-141.5" font-family="Helvetica,sans-Serif" font-size="10.00">src/Subsystems/Behaviour</text>
<text text-anchor="middle" x="67" y="-130.5" font-family="Helvetica,sans-Serif" font-size="10.00">ScriptSubsystem.cpp</text>
</a>
</g>
</g>
<!-- Node1&#45;&gt;Node2 -->
<g id="edge1" class="edge">
<title>Node1&#45;&gt;Node2</title>
<path fill="none" stroke="midnightblue" d="M183.52,-186.54C157.76,-176.14 125.8,-163.24 101.87,-153.58"/>
<polygon fill="midnightblue" stroke="midnightblue" points="182.48,-189.9 193.07,-190.4 185.1,-183.41 182.48,-189.9"/>
</g>
<!-- Node3 -->
<g id="node3" class="node">
<title>Node3</title>
<g id="a_node3"><a xlink:href="LateUpdateBehaviourScriptSubsystem_8hpp.html" target="_top" xlink:title=" ">
<polygon fill="none" stroke="black" points="152,-123.5 152,-153.5 304,-153.5 304,-123.5 152,-123.5"/>
<text text-anchor="start" x="160" y="-141.5" font-family="Helvetica,sans-Serif" font-size="10.00">src/Subsystems/LateUpdate</text>
<text text-anchor="middle" x="228" y="-130.5" font-family="Helvetica,sans-Serif" font-size="10.00">BehaviourScriptSubsystem.hpp</text>
</a>
</g>
</g>
<!-- Node1&#45;&gt;Node3 -->
<g id="edge2" class="edge">
<title>Node1&#45;&gt;Node3</title>
<path fill="none" stroke="midnightblue" d="M228,-180.11C228,-171.15 228,-161.32 228,-153.58"/>
<polygon fill="midnightblue" stroke="midnightblue" points="224.5,-180.4 228,-190.4 231.5,-180.4 224.5,-180.4"/>
</g>
<!-- Node7 -->
<g id="node7" class="node">
<title>Node7</title>
<g id="a_node7"><a xlink:href="UpdateBehaviourScriptSubsystem_8hpp.html" target="_top" xlink:title=" ">
<polygon fill="none" stroke="black" points="322.5,-123.5 322.5,-153.5 487.5,-153.5 487.5,-123.5 322.5,-123.5"/>
<text text-anchor="start" x="330.5" y="-141.5" font-family="Helvetica,sans-Serif" font-size="10.00">src/Subsystems/UpdateBehaviour</text>
<text text-anchor="middle" x="405" y="-130.5" font-family="Helvetica,sans-Serif" font-size="10.00">ScriptSubsystem.hpp</text>
</a>
</g>
</g>
<!-- Node1&#45;&gt;Node7 -->
<g id="edge6" class="edge">
<title>Node1&#45;&gt;Node7</title>
<path fill="none" stroke="midnightblue" d="M276.15,-186.82C304.6,-176.37 340.13,-163.32 366.67,-153.58"/>
<polygon fill="midnightblue" stroke="midnightblue" points="274.59,-183.66 266.41,-190.4 277,-190.23 274.59,-183.66"/>
</g>
<!-- Node4 -->
<g id="node4" class="node">
<title>Node4</title>
<g id="a_node4"><a xlink:href="LateUpdateBehaviourScriptSubsystem_8cpp.html" target="_top" xlink:title=" ">
<polygon fill="none" stroke="black" points="64,-56.5 64,-86.5 216,-86.5 216,-56.5 64,-56.5"/>
<text text-anchor="start" x="72" y="-74.5" font-family="Helvetica,sans-Serif" font-size="10.00">src/Subsystems/LateUpdate</text>
<text text-anchor="middle" x="140" y="-63.5" font-family="Helvetica,sans-Serif" font-size="10.00">BehaviourScriptSubsystem.cpp</text>
</a>
</g>
</g>
<!-- Node3&#45;&gt;Node4 -->
<g id="edge3" class="edge">
<title>Node3&#45;&gt;Node4</title>
<path fill="none" stroke="midnightblue" d="M200.86,-117.45C187.32,-107.45 171.27,-95.6 159.06,-86.58"/>
<polygon fill="midnightblue" stroke="midnightblue" points="198.78,-120.27 208.91,-123.4 202.94,-114.64 198.78,-120.27"/>
</g>
<!-- Node5 -->
<g id="node5" class="node">
<title>Node5</title>
<g id="a_node5"><a xlink:href="Subsystems_8hpp.html" target="_top" xlink:title=" ">
<polygon fill="none" stroke="black" points="234,-62 234,-81 396,-81 396,-62 234,-62"/>
<text text-anchor="middle" x="315" y="-69" font-family="Helvetica,sans-Serif" font-size="10.00">src/Subsystems/Subsystems.hpp</text>
</a>
</g>
</g>
<!-- Node3&#45;&gt;Node5 -->
<g id="edge4" class="edge">
<title>Node3&#45;&gt;Node5</title>
<path fill="none" stroke="midnightblue" d="M254.98,-117.34C271.22,-105.21 291.06,-90.39 303.36,-81.19"/>
<polygon fill="midnightblue" stroke="midnightblue" points="252.79,-114.61 246.88,-123.4 256.98,-120.21 252.79,-114.61"/>
</g>
<!-- Node6 -->
<g id="node6" class="node">
<title>Node6</title>
<g id="a_node6"><a xlink:href="Engine_8cpp.html" target="_top" xlink:title=" ">
<polygon fill="none" stroke="black" points="266,-0.5 266,-19.5 364,-19.5 364,-0.5 266,-0.5"/>
<text text-anchor="middle" x="315" y="-7.5" font-family="Helvetica,sans-Serif" font-size="10.00">src/Api/Engine.cpp</text>
</a>
</g>
</g>
<!-- Node5&#45;&gt;Node6 -->
<g id="edge5" class="edge">
<title>Node5&#45;&gt;Node6</title>
<path fill="none" stroke="midnightblue" d="M315,-51.82C315,-41 315,-27.9 315,-19.51"/>
<polygon fill="midnightblue" stroke="midnightblue" points="311.5,-51.98 315,-61.98 318.5,-51.98 311.5,-51.98"/>
</g>
<!-- Node7&#45;&gt;Node5 -->
<g id="edge7" class="edge">
<title>Node7&#45;&gt;Node5</title>
<path fill="none" stroke="midnightblue" d="M377.04,-117.31C360.14,-105.1 339.48,-90.18 326.78,-81.01"/>
<polygon fill="midnightblue" stroke="midnightblue" points="375.32,-120.38 385.47,-123.4 379.41,-114.7 375.32,-120.38"/>
</g>
<!-- Node8 -->
<g id="node8" class="node">
<title>Node8</title>
<g id="a_node8"><a xlink:href="UpdateBehaviourScriptSubsystem_8cpp.html" target="_top" xlink:title=" ">
<polygon fill="none" stroke="black" points="414.5,-56.5 414.5,-86.5 579.5,-86.5 579.5,-56.5 414.5,-56.5"/>
<text text-anchor="start" x="422.5" y="-74.5" font-family="Helvetica,sans-Serif" font-size="10.00">src/Subsystems/UpdateBehaviour</text>
<text text-anchor="middle" x="497" y="-63.5" font-family="Helvetica,sans-Serif" font-size="10.00">ScriptSubsystem.cpp</text>
</a>
</g>
</g>
<!-- Node7&#45;&gt;Node8 -->
<g id="edge8" class="edge">
<title>Node7&#45;&gt;Node8</title>
<path fill="none" stroke="midnightblue" d="M433.38,-117.45C447.53,-107.45 464.31,-95.6 477.08,-86.58"/>
<polygon fill="midnightblue" stroke="midnightblue" points="431.11,-114.77 424.96,-123.4 435.15,-120.48 431.11,-114.77"/>
</g>
</g>
</svg>
