<?xml version="1.0" encoding="UTF-8" standalone="no"?>
<!DOCTYPE svg PUBLIC "-//W3C//DTD SVG 1.1//EN"
 "http://www.w3.org/Graphics/SVG/1.1/DTD/svg11.dtd">
<!-- Generated by graphviz version 2.44.0 ()
 -->
<!-- Title: includes/spic&#45;api&#45;headers/BoxCollider.hpp Pages: 1 -->
<svg width="479pt" height="106pt"
 viewBox="0.00 0.00 479.00 106.00" xmlns="http://www.w3.org/2000/svg" xmlns:xlink="http://www.w3.org/1999/xlink">
<g id="graph0" class="graph" transform="scale(1 1) rotate(0) translate(4 102)">
<title>includes/spic&#45;api&#45;headers/BoxCollider.hpp</title>
<!-- Node1 -->
<g id="node1" class="node">
<title>Node1</title>
<g id="a_node1"><a xlink:title=" ">
<polygon fill="#bfbfbf" stroke="black" points="167,-67.5 167,-97.5 294,-97.5 294,-67.5 167,-67.5"/>
<text text-anchor="start" x="175" y="-85.5" font-family="Helvetica,sans-Serif" font-size="10.00">includes/spic&#45;api&#45;headers</text>
<text text-anchor="middle" x="230.5" y="-74.5" font-family="Helvetica,sans-Serif" font-size="10.00">/BoxCollider.hpp</text>
</a>
</g>
</g>
<!-- Node2 -->
<g id="node2" class="node">
<title>Node2</title>
<g id="a_node2"><a xlink:href="BoxCollider_8cpp.html" target="_top" xlink:title=" ">
<polygon fill="none" stroke="black" points="0,-6 0,-25 117,-25 117,-6 0,-6"/>
<text text-anchor="middle" x="58.5" y="-13" font-family="Helvetica,sans-Serif" font-size="10.00">src/Api/BoxCollider.cpp</text>
</a>
</g>
</g>
<!-- Node1&#45;&gt;Node2 -->
<g id="edge1" class="edge">
<title>Node1&#45;&gt;Node2</title>
<path fill="none" stroke="midnightblue" d="M183.62,-63.78C150.27,-51.18 106.95,-34.81 81.01,-25.01"/>
<polygon fill="midnightblue" stroke="midnightblue" points="182.59,-67.13 193.18,-67.4 185.06,-60.59 182.59,-67.13"/>
</g>
<!-- Node3 -->
<g id="node3" class="node">
<title>Node3</title>
<g id="a_node3"><a xlink:href="PhysicsSubsystem_8cpp.html" target="_top" xlink:title=" ">
<polygon fill="none" stroke="black" points="135,-6 135,-25 326,-25 326,-6 135,-6"/>
<text text-anchor="middle" x="230.5" y="-13" font-family="Helvetica,sans-Serif" font-size="10.00">src/Subsystems/PhysicsSubsystem.cpp</text>
</a>
</g>
</g>
<!-- Node1&#45;&gt;Node3 -->
<g id="edge2" class="edge">
<title>Node1&#45;&gt;Node3</title>
<path fill="none" stroke="midnightblue" d="M230.5,-57.25C230.5,-46.02 230.5,-33.38 230.5,-25.19"/>
<polygon fill="midnightblue" stroke="midnightblue" points="227,-57.4 230.5,-67.4 234,-57.4 227,-57.4"/>
</g>
<!-- Node4 -->
<g id="node4" class="node">
<title>Node4</title>
<g id="a_node4"><a xlink:href="Api_8hpp.html" target="_top" xlink:title=" ">
<polygon fill="none" stroke="black" points="344,-0.5 344,-30.5 471,-30.5 471,-0.5 344,-0.5"/>
<text text-anchor="start" x="352" y="-18.5" font-family="Helvetica,sans-Serif" font-size="10.00">includes/spic&#45;api&#45;headers</text>
<text text-anchor="middle" x="407.5" y="-7.5" font-family="Helvetica,sans-Serif" font-size="10.00">/Api.hpp</text>
</a>
</g>
</g>
<!-- Node1&#45;&gt;Node4 -->
<g id="edge3" class="edge">
<title>Node1&#45;&gt;Node4</title>
<path fill="none" stroke="midnightblue" d="M278.65,-63.82C307.1,-53.37 342.63,-40.32 369.17,-30.58"/>
<polygon fill="midnightblue" stroke="midnightblue" points="277.09,-60.66 268.91,-67.4 279.5,-67.23 277.09,-60.66"/>
</g>
</g>
</svg>
