<?xml version="1.0" encoding="UTF-8" standalone="no"?>
<!DOCTYPE svg PUBLIC "-//W3C//DTD SVG 1.1//EN"
 "http://www.w3.org/Graphics/SVG/1.1/DTD/svg11.dtd">
<!-- Generated by graphviz version 2.44.0 ()
 -->
<!-- Title: includes/spic&#45;api&#45;headers/CircleCollider.hpp Pages: 1 -->
<svg width="487pt" height="106pt"
 viewBox="0.00 0.00 487.00 106.00" xmlns="http://www.w3.org/2000/svg" xmlns:xlink="http://www.w3.org/1999/xlink">
<g id="graph0" class="graph" transform="scale(1 1) rotate(0) translate(4 102)">
<title>includes/spic&#45;api&#45;headers/CircleCollider.hpp</title>
<!-- Node1 -->
<g id="node1" class="node">
<title>Node1</title>
<g id="a_node1"><a xlink:title=" ">
<polygon fill="#bfbfbf" stroke="black" points="175,-67.5 175,-97.5 302,-97.5 302,-67.5 175,-67.5"/>
<text text-anchor="start" x="183" y="-85.5" font-family="Helvetica,sans-Serif" font-size="10.00">includes/spic&#45;api&#45;headers</text>
<text text-anchor="middle" x="238.5" y="-74.5" font-family="Helvetica,sans-Serif" font-size="10.00">/CircleCollider.hpp</text>
</a>
</g>
</g>
<!-- Node2 -->
<g id="node2" class="node">
<title>Node2</title>
<g id="a_node2"><a xlink:href="CircleCollider_8cpp.html" target="_top" xlink:title=" ">
<polygon fill="none" stroke="black" points="0,-6 0,-25 125,-25 125,-6 0,-6"/>
<text text-anchor="middle" x="62.5" y="-13" font-family="Helvetica,sans-Serif" font-size="10.00">src/Api/CircleCollider.cpp</text>
</a>
</g>
</g>
<!-- Node1&#45;&gt;Node2 -->
<g id="edge1" class="edge">
<title>Node1&#45;&gt;Node2</title>
<path fill="none" stroke="midnightblue" d="M190.53,-63.78C156.4,-51.18 112.07,-34.81 85.53,-25.01"/>
<polygon fill="midnightblue" stroke="midnightblue" points="189.72,-67.21 200.31,-67.4 192.14,-60.65 189.72,-67.21"/>
</g>
<!-- Node3 -->
<g id="node3" class="node">
<title>Node3</title>
<g id="a_node3"><a xlink:href="PhysicsSubsystem_8cpp.html" target="_top" xlink:title=" ">
<polygon fill="none" stroke="black" points="143,-6 143,-25 334,-25 334,-6 143,-6"/>
<text text-anchor="middle" x="238.5" y="-13" font-family="Helvetica,sans-Serif" font-size="10.00">src/Subsystems/PhysicsSubsystem.cpp</text>
</a>
</g>
</g>
<!-- Node1&#45;&gt;Node3 -->
<g id="edge2" class="edge">
<title>Node1&#45;&gt;Node3</title>
<path fill="none" stroke="midnightblue" d="M238.5,-57.25C238.5,-46.02 238.5,-33.38 238.5,-25.19"/>
<polygon fill="midnightblue" stroke="midnightblue" points="235,-57.4 238.5,-67.4 242,-57.4 235,-57.4"/>
</g>
<!-- Node4 -->
<g id="node4" class="node">
<title>Node4</title>
<g id="a_node4"><a xlink:href="Api_8hpp.html" target="_top" xlink:title=" ">
<polygon fill="none" stroke="black" points="352,-0.5 352,-30.5 479,-30.5 479,-0.5 352,-0.5"/>
<text text-anchor="start" x="360" y="-18.5" font-family="Helvetica,sans-Serif" font-size="10.00">includes/spic&#45;api&#45;headers</text>
<text text-anchor="middle" x="415.5" y="-7.5" font-family="Helvetica,sans-Serif" font-size="10.00">/Api.hpp</text>
</a>
</g>
</g>
<!-- Node1&#45;&gt;Node4 -->
<g id="edge3" class="edge">
<title>Node1&#45;&gt;Node4</title>
<path fill="none" stroke="midnightblue" d="M286.65,-63.82C315.1,-53.37 350.63,-40.32 377.17,-30.58"/>
<polygon fill="midnightblue" stroke="midnightblue" points="285.09,-60.66 276.91,-67.4 287.5,-67.23 285.09,-60.66"/>
</g>
</g>
</svg>
