<?xml version="1.0" encoding="UTF-8" standalone="no"?>
<!DOCTYPE svg PUBLIC "-//W3C//DTD SVG 1.1//EN"
 "http://www.w3.org/Graphics/SVG/1.1/DTD/svg11.dtd">
<!-- Generated by graphviz version 2.44.0 ()
 -->
<!-- Title: engine::ISubsystem Pages: 1 -->
<svg width="1275pt" height="364pt"
 viewBox="0.00 0.00 1274.50 364.00" xmlns="http://www.w3.org/2000/svg" xmlns:xlink="http://www.w3.org/1999/xlink">
<g id="graph0" class="graph" transform="scale(1 1) rotate(0) translate(4 360)">
<title>engine::ISubsystem</title>
<!-- Node1 -->
<g id="node1" class="node">
<title>Node1</title>
<g id="a_node1"><a xlink:title="Interface for subsystems.">
<polygon fill="#bfbfbf" stroke="black" points="594.5,-298.5 594.5,-355.5 716.5,-355.5 716.5,-298.5 594.5,-298.5"/>
<text text-anchor="middle" x="655.5" y="-343.5" font-family="Helvetica,sans-Serif" font-size="10.00">engine::ISubsystem</text>
<polyline fill="none" stroke="black" points="594.5,-336.5 716.5,-336.5 "/>
<text text-anchor="middle" x="655.5" y="-324.5" font-family="Helvetica,sans-Serif" font-size="10.00"> </text>
<polyline fill="none" stroke="black" points="594.5,-317.5 716.5,-317.5 "/>
<text text-anchor="start" x="602.5" y="-305.5" font-family="Helvetica,sans-Serif" font-size="10.00">+ virtual void Update()=0</text>
</a>
</g>
</g>
<!-- Node2 -->
<g id="node2" class="node">
<title>Node2</title>
<g id="a_node2"><a xlink:href="classengine_1_1AnimatorSubsystem.html" target="_top" xlink:title="Subsystem to handle Animator components.">
<polygon fill="none" stroke="black" points="0,-171.5 0,-228.5 137,-228.5 137,-171.5 0,-171.5"/>
<text text-anchor="middle" x="68.5" y="-216.5" font-family="Helvetica,sans-Serif" font-size="10.00">engine::AnimatorSubsystem</text>
<polyline fill="none" stroke="black" points="0,-209.5 137,-209.5 "/>
<text text-anchor="middle" x="68.5" y="-197.5" font-family="Helvetica,sans-Serif" font-size="10.00"> </text>
<polyline fill="none" stroke="black" points="0,-190.5 137,-190.5 "/>
<text text-anchor="start" x="8" y="-178.5" font-family="Helvetica,sans-Serif" font-size="10.00">+ void Update() override</text>
</a>
</g>
</g>
<!-- Node1&#45;&gt;Node2 -->
<g id="edge1" class="edge">
<title>Node1&#45;&gt;Node2</title>
<path fill="none" stroke="midnightblue" d="M584.17,-321.73C463.35,-313.71 224,-294.26 146.5,-262 127.93,-254.27 110.04,-240.87 96.09,-228.59"/>
<polygon fill="none" stroke="midnightblue" points="584.22,-325.24 594.43,-322.4 584.68,-318.25 584.22,-325.24"/>
</g>
<!-- Node3 -->
<g id="node3" class="node">
<title>Node3</title>
<g id="a_node3"><a xlink:href="classengine_1_1AudioSubsystem.html" target="_top" xlink:title="Subsystem to handle AudioSource components.">
<polygon fill="none" stroke="black" points="155.5,-138.5 155.5,-261.5 293.5,-261.5 293.5,-138.5 155.5,-138.5"/>
<text text-anchor="middle" x="224.5" y="-249.5" font-family="Helvetica,sans-Serif" font-size="10.00">engine::AudioSubsystem</text>
<polyline fill="none" stroke="black" points="155.5,-242.5 293.5,-242.5 "/>
<text text-anchor="middle" x="224.5" y="-230.5" font-family="Helvetica,sans-Serif" font-size="10.00"> </text>
<polyline fill="none" stroke="black" points="155.5,-223.5 293.5,-223.5 "/>
<text text-anchor="start" x="163.5" y="-211.5" font-family="Helvetica,sans-Serif" font-size="10.00">+ AudioSubsystem()</text>
<text text-anchor="start" x="163.5" y="-200.5" font-family="Helvetica,sans-Serif" font-size="10.00">+ void Update() override</text>
<text text-anchor="start" x="163.5" y="-189.5" font-family="Helvetica,sans-Serif" font-size="10.00">+ static void PauseAllAudio</text>
<text text-anchor="start" x="163.5" y="-178.5" font-family="Helvetica,sans-Serif" font-size="10.00">Playback()</text>
<text text-anchor="start" x="163.5" y="-167.5" font-family="Helvetica,sans-Serif" font-size="10.00">+ static void StopAllAudio</text>
<text text-anchor="start" x="163.5" y="-156.5" font-family="Helvetica,sans-Serif" font-size="10.00">Playback(const std::shared</text>
<text text-anchor="start" x="163.5" y="-145.5" font-family="Helvetica,sans-Serif" font-size="10.00">_ptr&lt; spic::Scene &gt; &amp;scene)</text>
</a>
</g>
</g>
<!-- Node1&#45;&gt;Node3 -->
<g id="edge2" class="edge">
<title>Node1&#45;&gt;Node3</title>
<path fill="none" stroke="midnightblue" d="M584.36,-322.94C511.12,-317.56 395.1,-302.76 303.5,-262 300.18,-260.52 296.86,-258.87 293.59,-257.1"/>
<polygon fill="none" stroke="midnightblue" points="584.18,-326.43 594.4,-323.64 584.67,-319.45 584.18,-326.43"/>
</g>
<!-- Node4 -->
<g id="node4" class="node">
<title>Node4</title>
<g id="a_node4"><a xlink:href="classengine_1_1BehaviourScriptSubsystem.html" target="_top" xlink:title="Subsystem to handle BehaviourScript components.">
<polygon fill="none" stroke="black" points="312,-149.5 312,-250.5 479,-250.5 479,-149.5 312,-149.5"/>
<text text-anchor="middle" x="395.5" y="-238.5" font-family="Helvetica,sans-Serif" font-size="10.00">engine::BehaviourScriptSubsystem</text>
<polyline fill="none" stroke="black" points="312,-231.5 479,-231.5 "/>
<text text-anchor="middle" x="395.5" y="-219.5" font-family="Helvetica,sans-Serif" font-size="10.00"> </text>
<polyline fill="none" stroke="black" points="312,-212.5 479,-212.5 "/>
<text text-anchor="start" x="320" y="-200.5" font-family="Helvetica,sans-Serif" font-size="10.00">+ void Update() override</text>
<text text-anchor="start" x="320" y="-189.5" font-family="Helvetica,sans-Serif" font-size="10.00"># virtual void Handle</text>
<text text-anchor="start" x="320" y="-178.5" font-family="Helvetica,sans-Serif" font-size="10.00">(const std::shared_ptr</text>
<text text-anchor="start" x="320" y="-167.5" font-family="Helvetica,sans-Serif" font-size="10.00">&lt; spic::BehaviourScript</text>
<text text-anchor="start" x="320" y="-156.5" font-family="Helvetica,sans-Serif" font-size="10.00"> &gt; &amp;behaviourScript)=0</text>
</a>
</g>
</g>
<!-- Node1&#45;&gt;Node4 -->
<g id="edge3" class="edge">
<title>Node1&#45;&gt;Node4</title>
<path fill="none" stroke="midnightblue" d="M584.61,-302.64C554.35,-291.71 519.05,-277.64 488.5,-262 481.71,-258.52 474.8,-254.67 467.97,-250.63"/>
<polygon fill="none" stroke="midnightblue" points="583.65,-306.02 594.24,-306.08 586,-299.42 583.65,-306.02"/>
</g>
<!-- Node7 -->
<g id="node7" class="node">
<title>Node7</title>
<g id="a_node7"><a xlink:href="classengine_1_1FpsCounterSubsystem.html" target="_top" xlink:title="Subsystem to handle show the FPS counter in the top right corner.">
<polygon fill="none" stroke="black" points="497,-160.5 497,-239.5 646,-239.5 646,-160.5 497,-160.5"/>
<text text-anchor="middle" x="571.5" y="-227.5" font-family="Helvetica,sans-Serif" font-size="10.00">engine::FpsCounterSubsystem</text>
<polyline fill="none" stroke="black" points="497,-220.5 646,-220.5 "/>
<text text-anchor="middle" x="571.5" y="-208.5" font-family="Helvetica,sans-Serif" font-size="10.00"> </text>
<polyline fill="none" stroke="black" points="497,-201.5 646,-201.5 "/>
<text text-anchor="start" x="505" y="-189.5" font-family="Helvetica,sans-Serif" font-size="10.00">+ FpsCounterSubsystem</text>
<text text-anchor="start" x="505" y="-178.5" font-family="Helvetica,sans-Serif" font-size="10.00">(Window *window)</text>
<text text-anchor="start" x="505" y="-167.5" font-family="Helvetica,sans-Serif" font-size="10.00">+ void Update() override</text>
</a>
</g>
</g>
<!-- Node1&#45;&gt;Node7 -->
<g id="edge6" class="edge">
<title>Node1&#45;&gt;Node7</title>
<path fill="none" stroke="midnightblue" d="M631.19,-289.82C620.6,-274.07 608.18,-255.58 597.42,-239.57"/>
<polygon fill="none" stroke="midnightblue" points="628.38,-291.91 636.86,-298.26 634.19,-288.01 628.38,-291.91"/>
</g>
<!-- Node8 -->
<g id="node8" class="node">
<title>Node8</title>
<g id="a_node8"><a xlink:href="classengine_1_1GameSpeedSubsystem.html" target="_top" xlink:title="Subsystem to handle game speed changes.">
<polygon fill="none" stroke="black" points="664.5,-171.5 664.5,-228.5 816.5,-228.5 816.5,-171.5 664.5,-171.5"/>
<text text-anchor="middle" x="740.5" y="-216.5" font-family="Helvetica,sans-Serif" font-size="10.00">engine::GameSpeedSubsystem</text>
<polyline fill="none" stroke="black" points="664.5,-209.5 816.5,-209.5 "/>
<text text-anchor="middle" x="740.5" y="-197.5" font-family="Helvetica,sans-Serif" font-size="10.00"> </text>
<polyline fill="none" stroke="black" points="664.5,-190.5 816.5,-190.5 "/>
<text text-anchor="start" x="672.5" y="-178.5" font-family="Helvetica,sans-Serif" font-size="10.00">+ void Update() override</text>
</a>
</g>
</g>
<!-- Node1&#45;&gt;Node8 -->
<g id="edge7" class="edge">
<title>Node1&#45;&gt;Node8</title>
<path fill="none" stroke="midnightblue" d="M680.04,-289.91C693.31,-270.4 709.43,-246.69 721.69,-228.66"/>
<polygon fill="none" stroke="midnightblue" points="677.09,-288.02 674.36,-298.26 682.88,-291.96 677.09,-288.02"/>
</g>
<!-- Node9 -->
<g id="node9" class="node">
<title>Node9</title>
<g id="a_node9"><a xlink:href="classengine_1_1InputSubsystem.html" target="_top" xlink:title="Subsystem to handle Input from the mouse and keyboard.">
<polygon fill="none" stroke="black" points="834.5,-171.5 834.5,-228.5 954.5,-228.5 954.5,-171.5 834.5,-171.5"/>
<text text-anchor="middle" x="894.5" y="-216.5" font-family="Helvetica,sans-Serif" font-size="10.00">engine::InputSubsystem</text>
<polyline fill="none" stroke="black" points="834.5,-209.5 954.5,-209.5 "/>
<text text-anchor="middle" x="894.5" y="-197.5" font-family="Helvetica,sans-Serif" font-size="10.00"> </text>
<polyline fill="none" stroke="black" points="834.5,-190.5 954.5,-190.5 "/>
<text text-anchor="start" x="842.5" y="-178.5" font-family="Helvetica,sans-Serif" font-size="10.00">+ void Update() override</text>
</a>
</g>
</g>
<!-- Node1&#45;&gt;Node9 -->
<g id="edge8" class="edge">
<title>Node1&#45;&gt;Node9</title>
<path fill="none" stroke="midnightblue" d="M726.18,-305.81C757.79,-295.2 794.77,-280.5 825.5,-262 840.7,-252.84 855.7,-240.16 867.8,-228.73"/>
<polygon fill="none" stroke="midnightblue" points="724.96,-302.53 716.56,-308.98 727.15,-309.18 724.96,-302.53"/>
</g>
<!-- Node10 -->
<g id="node10" class="node">
<title>Node10</title>
<g id="a_node10"><a xlink:href="classengine_1_1PhysicsSubsystem.html" target="_top" xlink:title="Subsystem to handle RigidBody and Collider components.">
<polygon fill="none" stroke="black" points="973,-166 973,-234 1106,-234 1106,-166 973,-166"/>
<text text-anchor="middle" x="1039.5" y="-222" font-family="Helvetica,sans-Serif" font-size="10.00">engine::PhysicsSubsystem</text>
<polyline fill="none" stroke="black" points="973,-215 1106,-215 "/>
<text text-anchor="middle" x="1039.5" y="-203" font-family="Helvetica,sans-Serif" font-size="10.00"> </text>
<polyline fill="none" stroke="black" points="973,-196 1106,-196 "/>
<text text-anchor="start" x="981" y="-184" font-family="Helvetica,sans-Serif" font-size="10.00">+ void Update() override</text>
<text text-anchor="start" x="981" y="-173" font-family="Helvetica,sans-Serif" font-size="10.00">+ PhysicsSubsystem()</text>
</a>
</g>
</g>
<!-- Node1&#45;&gt;Node10 -->
<g id="edge9" class="edge">
<title>Node1&#45;&gt;Node10</title>
<path fill="none" stroke="midnightblue" d="M726.68,-320.73C791.11,-313.8 887.3,-297.93 963.5,-262 978.34,-255 992.85,-244.55 1005.14,-234.26"/>
<polygon fill="none" stroke="midnightblue" points="726.21,-317.26 716.62,-321.77 726.93,-324.23 726.21,-317.26"/>
</g>
<!-- Node11 -->
<g id="node11" class="node">
<title>Node11</title>
<g id="a_node11"><a xlink:href="classengine_1_1RenderSubsystem.html" target="_top" xlink:title="Subsystem to handle Sprite components and Text objects.">
<polygon fill="none" stroke="black" points="1124.5,-160.5 1124.5,-239.5 1266.5,-239.5 1266.5,-160.5 1124.5,-160.5"/>
<text text-anchor="middle" x="1195.5" y="-227.5" font-family="Helvetica,sans-Serif" font-size="10.00">engine::RenderSubsystem</text>
<polyline fill="none" stroke="black" points="1124.5,-220.5 1266.5,-220.5 "/>
<text text-anchor="middle" x="1195.5" y="-208.5" font-family="Helvetica,sans-Serif" font-size="10.00"> </text>
<polyline fill="none" stroke="black" points="1124.5,-201.5 1266.5,-201.5 "/>
<text text-anchor="start" x="1132.5" y="-189.5" font-family="Helvetica,sans-Serif" font-size="10.00">+ RenderSubsystem(Window</text>
<text text-anchor="start" x="1132.5" y="-178.5" font-family="Helvetica,sans-Serif" font-size="10.00"> *window)</text>
<text text-anchor="start" x="1132.5" y="-167.5" font-family="Helvetica,sans-Serif" font-size="10.00">+ void Update() override</text>
</a>
</g>
</g>
<!-- Node1&#45;&gt;Node11 -->
<g id="edge10" class="edge">
<title>Node1&#45;&gt;Node11</title>
<path fill="none" stroke="midnightblue" d="M726.62,-320.54C837.69,-311.28 1046.76,-290.65 1115.5,-262 1128.72,-256.49 1141.68,-248.25 1153.19,-239.6"/>
<polygon fill="none" stroke="midnightblue" points="726.19,-317.07 716.51,-321.38 726.76,-324.04 726.19,-317.07"/>
</g>
<!-- Node5 -->
<g id="node5" class="node">
<title>Node5</title>
<g id="a_node5"><a xlink:href="classengine_1_1LateUpdateBehaviourScriptSubsystem.html" target="_top" xlink:title=" ">
<polygon fill="none" stroke="black" points="240.5,-0.5 240.5,-101.5 384.5,-101.5 384.5,-0.5 240.5,-0.5"/>
<text text-anchor="start" x="248.5" y="-89.5" font-family="Helvetica,sans-Serif" font-size="10.00">engine::LateUpdateBehaviour</text>
<text text-anchor="middle" x="312.5" y="-78.5" font-family="Helvetica,sans-Serif" font-size="10.00">ScriptSubsystem</text>
<polyline fill="none" stroke="black" points="240.5,-71.5 384.5,-71.5 "/>
<text text-anchor="middle" x="312.5" y="-59.5" font-family="Helvetica,sans-Serif" font-size="10.00"> </text>
<polyline fill="none" stroke="black" points="240.5,-52.5 384.5,-52.5 "/>
<text text-anchor="start" x="248.5" y="-40.5" font-family="Helvetica,sans-Serif" font-size="10.00"># void Handle(const std</text>
<text text-anchor="start" x="248.5" y="-29.5" font-family="Helvetica,sans-Serif" font-size="10.00">::shared_ptr&lt; spic::Behaviour</text>
<text text-anchor="start" x="248.5" y="-18.5" font-family="Helvetica,sans-Serif" font-size="10.00">Script &gt; &amp;behaviourScript)</text>
<text text-anchor="start" x="248.5" y="-7.5" font-family="Helvetica,sans-Serif" font-size="10.00"> override</text>
</a>
</g>
</g>
<!-- Node4&#45;&gt;Node5 -->
<g id="edge4" class="edge">
<title>Node4&#45;&gt;Node5</title>
<path fill="none" stroke="midnightblue" d="M362.45,-140.47C355.21,-127.64 347.6,-114.17 340.57,-101.72"/>
<polygon fill="none" stroke="midnightblue" points="359.44,-142.25 367.4,-149.23 365.53,-138.8 359.44,-142.25"/>
</g>
<!-- Node6 -->
<g id="node6" class="node">
<title>Node6</title>
<g id="a_node6"><a xlink:href="classengine_1_1UpdateBehaviourScriptSubsystem.html" target="_top" xlink:title=" ">
<polygon fill="none" stroke="black" points="402.5,-0.5 402.5,-101.5 552.5,-101.5 552.5,-0.5 402.5,-0.5"/>
<text text-anchor="start" x="410.5" y="-89.5" font-family="Helvetica,sans-Serif" font-size="10.00">engine::UpdateBehaviourScript</text>
<text text-anchor="middle" x="477.5" y="-78.5" font-family="Helvetica,sans-Serif" font-size="10.00">Subsystem</text>
<polyline fill="none" stroke="black" points="402.5,-71.5 552.5,-71.5 "/>
<text text-anchor="middle" x="477.5" y="-59.5" font-family="Helvetica,sans-Serif" font-size="10.00"> </text>
<polyline fill="none" stroke="black" points="402.5,-52.5 552.5,-52.5 "/>
<text text-anchor="start" x="410.5" y="-40.5" font-family="Helvetica,sans-Serif" font-size="10.00"># void Handle(const std</text>
<text text-anchor="start" x="410.5" y="-29.5" font-family="Helvetica,sans-Serif" font-size="10.00">::shared_ptr&lt; spic::Behaviour</text>
<text text-anchor="start" x="410.5" y="-18.5" font-family="Helvetica,sans-Serif" font-size="10.00">Script &gt; &amp;behaviourScript)</text>
<text text-anchor="start" x="410.5" y="-7.5" font-family="Helvetica,sans-Serif" font-size="10.00"> override</text>
</a>
</g>
</g>
<!-- Node4&#45;&gt;Node6 -->
<g id="edge5" class="edge">
<title>Node4&#45;&gt;Node6</title>
<path fill="none" stroke="midnightblue" d="M428.15,-140.47C435.31,-127.64 442.82,-114.17 449.77,-101.72"/>
<polygon fill="none" stroke="midnightblue" points="425.08,-138.79 423.26,-149.23 431.19,-142.2 425.08,-138.79"/>
</g>
</g>
</svg>
