<?xml version="1.0" encoding="UTF-8" standalone="no"?>
<!DOCTYPE svg PUBLIC "-//W3C//DTD SVG 1.1//EN"
 "http://www.w3.org/Graphics/SVG/1.1/DTD/svg11.dtd">
<!-- Generated by graphviz version 2.44.0 ()
 -->
<!-- Title: engine::AudioSubsystem Pages: 1 -->
<svg width="146pt" height="226pt"
 viewBox="0.00 0.00 146.00 226.00" xmlns="http://www.w3.org/2000/svg" xmlns:xlink="http://www.w3.org/1999/xlink">
<g id="graph0" class="graph" transform="scale(1 1) rotate(0) translate(4 222)">
<title>engine::AudioSubsystem</title>
<!-- Node1 -->
<g id="node1" class="node">
<title>Node1</title>
<g id="a_node1"><a xlink:title="Subsystem to handle AudioSource components.">
<polygon fill="#bfbfbf" stroke="black" points="0,-0.5 0,-123.5 138,-123.5 138,-0.5 0,-0.5"/>
<text text-anchor="middle" x="69" y="-111.5" font-family="Helvetica,sans-Serif" font-size="10.00">engine::AudioSubsystem</text>
<polyline fill="none" stroke="black" points="0,-104.5 138,-104.5 "/>
<text text-anchor="middle" x="69" y="-92.5" font-family="Helvetica,sans-Serif" font-size="10.00"> </text>
<polyline fill="none" stroke="black" points="0,-85.5 138,-85.5 "/>
<text text-anchor="start" x="8" y="-73.5" font-family="Helvetica,sans-Serif" font-size="10.00">+ AudioSubsystem()</text>
<text text-anchor="start" x="8" y="-62.5" font-family="Helvetica,sans-Serif" font-size="10.00">+ void Update() override</text>
<text text-anchor="start" x="8" y="-51.5" font-family="Helvetica,sans-Serif" font-size="10.00">+ static void PauseAllAudio</text>
<text text-anchor="start" x="8" y="-40.5" font-family="Helvetica,sans-Serif" font-size="10.00">Playback()</text>
<text text-anchor="start" x="8" y="-29.5" font-family="Helvetica,sans-Serif" font-size="10.00">+ static void StopAllAudio</text>
<text text-anchor="start" x="8" y="-18.5" font-family="Helvetica,sans-Serif" font-size="10.00">Playback(const std::shared</text>
<text text-anchor="start" x="8" y="-7.5" font-family="Helvetica,sans-Serif" font-size="10.00">_ptr&lt; spic::Scene &gt; &amp;scene)</text>
</a>
</g>
</g>
<!-- Node2 -->
<g id="node2" class="node">
<title>Node2</title>
<g id="a_node2"><a xlink:href="classengine_1_1ISubsystem.html" target="_top" xlink:title="Interface for subsystems.">
<polygon fill="none" stroke="black" points="8,-160.5 8,-217.5 130,-217.5 130,-160.5 8,-160.5"/>
<text text-anchor="middle" x="69" y="-205.5" font-family="Helvetica,sans-Serif" font-size="10.00">engine::ISubsystem</text>
<polyline fill="none" stroke="black" points="8,-198.5 130,-198.5 "/>
<text text-anchor="middle" x="69" y="-186.5" font-family="Helvetica,sans-Serif" font-size="10.00"> </text>
<polyline fill="none" stroke="black" points="8,-179.5 130,-179.5 "/>
<text text-anchor="start" x="16" y="-167.5" font-family="Helvetica,sans-Serif" font-size="10.00">+ virtual void Update()=0</text>
</a>
</g>
</g>
<!-- Node2&#45;&gt;Node1 -->
<g id="edge1" class="edge">
<title>Node2&#45;&gt;Node1</title>
<path fill="none" stroke="midnightblue" d="M69,-150.1C69,-141.74 69,-132.68 69,-123.67"/>
<polygon fill="none" stroke="midnightblue" points="65.5,-150.26 69,-160.26 72.5,-150.26 65.5,-150.26"/>
</g>
</g>
</svg>
