<?xml version="1.0" encoding="UTF-8" standalone="no"?>
<!DOCTYPE svg PUBLIC "-//W3C//DTD SVG 1.1//EN"
 "http://www.w3.org/Graphics/SVG/1.1/DTD/svg11.dtd">
<!-- Generated by graphviz version 2.44.0 ()
 -->
<!-- Title: spic::Component Pages: 1 -->
<svg width="889pt" height="749pt"
 viewBox="0.00 0.00 889.00 749.00" xmlns="http://www.w3.org/2000/svg" xmlns:xlink="http://www.w3.org/1999/xlink">
<g id="graph0" class="graph" transform="scale(1 1) rotate(0) translate(4 745)">
<title>spic::Component</title>
<!-- Node1 -->
<g id="node1" class="node">
<title>Node1</title>
<g id="a_node1"><a xlink:title="Base class for all components. @spicapi.">
<polygon fill="#bfbfbf" stroke="black" points="352.5,-573.5 352.5,-740.5 498.5,-740.5 498.5,-573.5 352.5,-573.5"/>
<text text-anchor="middle" x="425.5" y="-728.5" font-family="Helvetica,sans-Serif" font-size="10.00">spic::Component</text>
<polyline fill="none" stroke="black" points="352.5,-721.5 498.5,-721.5 "/>
<text text-anchor="middle" x="425.5" y="-709.5" font-family="Helvetica,sans-Serif" font-size="10.00"> </text>
<polyline fill="none" stroke="black" points="352.5,-702.5 498.5,-702.5 "/>
<text text-anchor="start" x="360.5" y="-690.5" font-family="Helvetica,sans-Serif" font-size="10.00">+ Component()</text>
<text text-anchor="start" x="360.5" y="-679.5" font-family="Helvetica,sans-Serif" font-size="10.00">+ virtual ~Component</text>
<text text-anchor="start" x="360.5" y="-668.5" font-family="Helvetica,sans-Serif" font-size="10.00">()=default</text>
<text text-anchor="start" x="360.5" y="-657.5" font-family="Helvetica,sans-Serif" font-size="10.00">+ bool Active() const</text>
<text text-anchor="start" x="360.5" y="-646.5" font-family="Helvetica,sans-Serif" font-size="10.00">+ void Active(bool flag)</text>
<text text-anchor="start" x="360.5" y="-635.5" font-family="Helvetica,sans-Serif" font-size="10.00">+ std::weak_ptr&lt; spic</text>
<text text-anchor="start" x="360.5" y="-624.5" font-family="Helvetica,sans-Serif" font-size="10.00">::GameObject &gt; GameObject</text>
<text text-anchor="start" x="360.5" y="-613.5" font-family="Helvetica,sans-Serif" font-size="10.00">() const</text>
<text text-anchor="start" x="360.5" y="-602.5" font-family="Helvetica,sans-Serif" font-size="10.00">+ void GameObject(std</text>
<text text-anchor="start" x="360.5" y="-591.5" font-family="Helvetica,sans-Serif" font-size="10.00">::weak_ptr&lt; spic::GameObject</text>
<text text-anchor="start" x="360.5" y="-580.5" font-family="Helvetica,sans-Serif" font-size="10.00"> &gt; gameObject)</text>
</a>
</g>
</g>
<!-- Node2 -->
<g id="node2" class="node">
<title>Node2</title>
<g id="a_node2"><a xlink:href="classspic_1_1Animator.html" target="_top" xlink:title="A component which can play animated sequences of sprites. @spicapi.">
<polygon fill="none" stroke="black" points="0,-287 0,-421 121,-421 121,-287 0,-287"/>
<text text-anchor="middle" x="60.5" y="-409" font-family="Helvetica,sans-Serif" font-size="10.00">spic::Animator</text>
<polyline fill="none" stroke="black" points="0,-402 121,-402 "/>
<text text-anchor="middle" x="60.5" y="-390" font-family="Helvetica,sans-Serif" font-size="10.00"> </text>
<polyline fill="none" stroke="black" points="0,-383 121,-383 "/>
<text text-anchor="start" x="8" y="-371" font-family="Helvetica,sans-Serif" font-size="10.00">+ Animator(int fps,</text>
<text text-anchor="start" x="8" y="-360" font-family="Helvetica,sans-Serif" font-size="10.00"> const std::vector&lt;</text>
<text text-anchor="start" x="8" y="-349" font-family="Helvetica,sans-Serif" font-size="10.00"> std::shared_ptr&lt; Sprite</text>
<text text-anchor="start" x="8" y="-338" font-family="Helvetica,sans-Serif" font-size="10.00"> &gt;&gt; &amp;sprites)</text>
<text text-anchor="start" x="8" y="-327" font-family="Helvetica,sans-Serif" font-size="10.00">+ void Play(bool looping)</text>
<text text-anchor="start" x="8" y="-316" font-family="Helvetica,sans-Serif" font-size="10.00">+ void Stop()</text>
<text text-anchor="start" x="8" y="-305" font-family="Helvetica,sans-Serif" font-size="10.00">+ int FPS() const</text>
<text text-anchor="start" x="8" y="-294" font-family="Helvetica,sans-Serif" font-size="10.00">+ void FPS(int newFps)</text>
</a>
</g>
</g>
<!-- Node1&#45;&gt;Node2 -->
<g id="edge1" class="edge">
<title>Node1&#45;&gt;Node2</title>
<path fill="none" stroke="midnightblue" d="M342.46,-641.34C277.06,-625.79 187.69,-595.13 130.5,-537 99.63,-505.63 82.07,-459.19 72.25,-421.07"/>
<polygon fill="none" stroke="midnightblue" points="341.8,-644.78 352.33,-643.61 343.37,-637.95 341.8,-644.78"/>
</g>
<!-- Node3 -->
<g id="node3" class="node">
<title>Node3</title>
<g id="a_node3"><a xlink:href="classspic_1_1AudioSource.html" target="_top" xlink:title="Component which can play audio. @spicapi.">
<polygon fill="none" stroke="black" points="139.5,-281.5 139.5,-426.5 261.5,-426.5 261.5,-281.5 139.5,-281.5"/>
<text text-anchor="middle" x="200.5" y="-414.5" font-family="Helvetica,sans-Serif" font-size="10.00">spic::AudioSource</text>
<polyline fill="none" stroke="black" points="139.5,-407.5 261.5,-407.5 "/>
<text text-anchor="middle" x="200.5" y="-395.5" font-family="Helvetica,sans-Serif" font-size="10.00"> </text>
<polyline fill="none" stroke="black" points="139.5,-388.5 261.5,-388.5 "/>
<text text-anchor="start" x="147.5" y="-376.5" font-family="Helvetica,sans-Serif" font-size="10.00">+ AudioSource(const</text>
<text text-anchor="start" x="147.5" y="-365.5" font-family="Helvetica,sans-Serif" font-size="10.00"> std::string &amp;audioClip,</text>
<text text-anchor="start" x="147.5" y="-354.5" font-family="Helvetica,sans-Serif" font-size="10.00"> bool playOnAwake, bool</text>
<text text-anchor="start" x="147.5" y="-343.5" font-family="Helvetica,sans-Serif" font-size="10.00"> looping, double volume)</text>
<text text-anchor="start" x="147.5" y="-332.5" font-family="Helvetica,sans-Serif" font-size="10.00">+ void Play(bool looping)</text>
<text text-anchor="start" x="147.5" y="-321.5" font-family="Helvetica,sans-Serif" font-size="10.00">+ void Stop()</text>
<text text-anchor="start" x="147.5" y="-310.5" font-family="Helvetica,sans-Serif" font-size="10.00">+ double Volume() const</text>
<text text-anchor="start" x="147.5" y="-299.5" font-family="Helvetica,sans-Serif" font-size="10.00">+ void Volume(double</text>
<text text-anchor="start" x="147.5" y="-288.5" font-family="Helvetica,sans-Serif" font-size="10.00"> newVolume)</text>
</a>
</g>
</g>
<!-- Node1&#45;&gt;Node3 -->
<g id="edge2" class="edge">
<title>Node1&#45;&gt;Node3</title>
<path fill="none" stroke="midnightblue" d="M343.91,-606.35C317.72,-587.27 290.38,-563.61 270.5,-537 246.09,-504.32 229.15,-462.08 218.05,-426.52"/>
<polygon fill="none" stroke="midnightblue" points="342.19,-609.42 352.37,-612.38 346.26,-603.72 342.19,-609.42"/>
</g>
<!-- Node4 -->
<g id="node4" class="node">
<title>Node4</title>
<g id="a_node4"><a xlink:href="classspic_1_1BehaviourScript.html" target="_top" xlink:title="Base class for script running in the game.">
<polygon fill="none" stroke="black" points="279.5,-265 279.5,-443 423.5,-443 423.5,-265 279.5,-265"/>
<text text-anchor="middle" x="351.5" y="-431" font-family="Helvetica,sans-Serif" font-size="10.00">spic::BehaviourScript</text>
<polyline fill="none" stroke="black" points="279.5,-424 423.5,-424 "/>
<text text-anchor="middle" x="351.5" y="-412" font-family="Helvetica,sans-Serif" font-size="10.00"> </text>
<polyline fill="none" stroke="black" points="279.5,-405 423.5,-405 "/>
<text text-anchor="start" x="287.5" y="-393" font-family="Helvetica,sans-Serif" font-size="10.00">+ BehaviourScript()</text>
<text text-anchor="start" x="287.5" y="-382" font-family="Helvetica,sans-Serif" font-size="10.00">+ virtual void OnStart()</text>
<text text-anchor="start" x="287.5" y="-371" font-family="Helvetica,sans-Serif" font-size="10.00">+ virtual void OnUpdate()</text>
<text text-anchor="start" x="287.5" y="-360" font-family="Helvetica,sans-Serif" font-size="10.00">+ virtual void OnLateUpdate()</text>
<text text-anchor="start" x="287.5" y="-349" font-family="Helvetica,sans-Serif" font-size="10.00">+ virtual void OnTriggerEnter2</text>
<text text-anchor="start" x="287.5" y="-338" font-family="Helvetica,sans-Serif" font-size="10.00">D(const Collider &amp;collider)</text>
<text text-anchor="start" x="287.5" y="-327" font-family="Helvetica,sans-Serif" font-size="10.00">+ virtual void OnTriggerExit2</text>
<text text-anchor="start" x="287.5" y="-316" font-family="Helvetica,sans-Serif" font-size="10.00">D(const Collider &amp;collider)</text>
<text text-anchor="start" x="287.5" y="-305" font-family="Helvetica,sans-Serif" font-size="10.00">+ virtual void OnTriggerStay2</text>
<text text-anchor="start" x="287.5" y="-294" font-family="Helvetica,sans-Serif" font-size="10.00">D(const Collider &amp;collider)</text>
<text text-anchor="start" x="287.5" y="-283" font-family="Helvetica,sans-Serif" font-size="10.00">+ void Started(bool started)</text>
<text text-anchor="start" x="287.5" y="-272" font-family="Helvetica,sans-Serif" font-size="10.00">+ bool Started() const</text>
</a>
</g>
</g>
<!-- Node1&#45;&gt;Node4 -->
<g id="edge3" class="edge">
<title>Node1&#45;&gt;Node4</title>
<path fill="none" stroke="midnightblue" d="M402.7,-563.26C393.31,-525.05 382.47,-480.99 373.2,-443.26"/>
<polygon fill="none" stroke="midnightblue" points="399.4,-564.48 405.18,-573.35 406.19,-562.81 399.4,-564.48"/>
</g>
<!-- Node5 -->
<g id="node5" class="node">
<title>Node5</title>
<g id="a_node5"><a xlink:href="classspic_1_1Collider.html" target="_top" xlink:title="The base class for all colliders. @spicapi.">
<polygon fill="none" stroke="black" points="441.5,-309 441.5,-399 557.5,-399 557.5,-309 441.5,-309"/>
<text text-anchor="middle" x="499.5" y="-387" font-family="Helvetica,sans-Serif" font-size="10.00">spic::Collider</text>
<polyline fill="none" stroke="black" points="441.5,-380 557.5,-380 "/>
<text text-anchor="middle" x="499.5" y="-368" font-family="Helvetica,sans-Serif" font-size="10.00"> </text>
<polyline fill="none" stroke="black" points="441.5,-361 557.5,-361 "/>
<text text-anchor="start" x="449.5" y="-349" font-family="Helvetica,sans-Serif" font-size="10.00">+ Collider()</text>
<text text-anchor="start" x="449.5" y="-338" font-family="Helvetica,sans-Serif" font-size="10.00">+ bool IsTrigger() const</text>
<text text-anchor="start" x="449.5" y="-327" font-family="Helvetica,sans-Serif" font-size="10.00">+ void IsTrigger(bool</text>
<text text-anchor="start" x="449.5" y="-316" font-family="Helvetica,sans-Serif" font-size="10.00"> newIsTrigger)</text>
</a>
</g>
</g>
<!-- Node1&#45;&gt;Node5 -->
<g id="edge4" class="edge">
<title>Node1&#45;&gt;Node5</title>
<path fill="none" stroke="midnightblue" d="M448.29,-563.31C461.7,-508.77 478.04,-442.28 488.61,-399.31"/>
<polygon fill="none" stroke="midnightblue" points="444.81,-562.81 445.82,-573.35 451.6,-564.48 444.81,-562.81"/>
</g>
<!-- Node8 -->
<g id="node8" class="node">
<title>Node8</title>
<g id="a_node8"><a xlink:href="classspic_1_1RigidBody.html" target="_top" xlink:title="A component representing a rigid body. @spicapi.">
<polygon fill="none" stroke="black" points="575.5,-254 575.5,-454 723.5,-454 723.5,-254 575.5,-254"/>
<text text-anchor="middle" x="649.5" y="-442" font-family="Helvetica,sans-Serif" font-size="10.00">spic::RigidBody</text>
<polyline fill="none" stroke="black" points="575.5,-435 723.5,-435 "/>
<text text-anchor="middle" x="649.5" y="-423" font-family="Helvetica,sans-Serif" font-size="10.00"> </text>
<polyline fill="none" stroke="black" points="575.5,-416 723.5,-416 "/>
<text text-anchor="start" x="583.5" y="-404" font-family="Helvetica,sans-Serif" font-size="10.00">+ RigidBody(double mass,</text>
<text text-anchor="start" x="583.5" y="-393" font-family="Helvetica,sans-Serif" font-size="10.00"> double gravityScale,</text>
<text text-anchor="start" x="583.5" y="-382" font-family="Helvetica,sans-Serif" font-size="10.00"> const BodyType &amp;bodyType)</text>
<text text-anchor="start" x="583.5" y="-371" font-family="Helvetica,sans-Serif" font-size="10.00">+ void AddForce(const</text>
<text text-anchor="start" x="583.5" y="-360" font-family="Helvetica,sans-Serif" font-size="10.00"> Point &amp;forceDirection)</text>
<text text-anchor="start" x="583.5" y="-349" font-family="Helvetica,sans-Serif" font-size="10.00">+ BodyType Type() const</text>
<text text-anchor="start" x="583.5" y="-338" font-family="Helvetica,sans-Serif" font-size="10.00">+ void Type(BodyType</text>
<text text-anchor="start" x="583.5" y="-327" font-family="Helvetica,sans-Serif" font-size="10.00"> newBodyType)</text>
<text text-anchor="start" x="583.5" y="-316" font-family="Helvetica,sans-Serif" font-size="10.00">+ double Mass() const</text>
<text text-anchor="start" x="583.5" y="-305" font-family="Helvetica,sans-Serif" font-size="10.00">+ void Mass(double newMass)</text>
<text text-anchor="start" x="583.5" y="-294" font-family="Helvetica,sans-Serif" font-size="10.00">+ double GravityScale</text>
<text text-anchor="start" x="583.5" y="-283" font-family="Helvetica,sans-Serif" font-size="10.00">() const</text>
<text text-anchor="start" x="583.5" y="-272" font-family="Helvetica,sans-Serif" font-size="10.00">+ void GravityScale(double</text>
<text text-anchor="start" x="583.5" y="-261" font-family="Helvetica,sans-Serif" font-size="10.00"> newGravityScale)</text>
</a>
</g>
</g>
<!-- Node1&#45;&gt;Node8 -->
<g id="edge7" class="edge">
<title>Node1&#45;&gt;Node8</title>
<path fill="none" stroke="midnightblue" d="M506.49,-598.09C527.84,-580.2 549.61,-559.28 566.5,-537 585.28,-512.23 601.08,-482.54 613.68,-454.39"/>
<polygon fill="none" stroke="midnightblue" points="504.15,-595.49 498.65,-604.55 508.6,-600.89 504.15,-595.49"/>
</g>
<!-- Node9 -->
<g id="node9" class="node">
<title>Node9</title>
<g id="a_node9"><a xlink:href="classspic_1_1Sprite.html" target="_top" xlink:title="A component representing a sprite (small image) @spicapi.">
<polygon fill="none" stroke="black" points="742,-171.5 742,-536.5 881,-536.5 881,-171.5 742,-171.5"/>
<text text-anchor="middle" x="811.5" y="-524.5" font-family="Helvetica,sans-Serif" font-size="10.00">spic::Sprite</text>
<polyline fill="none" stroke="black" points="742,-517.5 881,-517.5 "/>
<text text-anchor="middle" x="811.5" y="-505.5" font-family="Helvetica,sans-Serif" font-size="10.00"> </text>
<polyline fill="none" stroke="black" points="742,-498.5 881,-498.5 "/>
<text text-anchor="start" x="750" y="-486.5" font-family="Helvetica,sans-Serif" font-size="10.00">+ Sprite(const std::</text>
<text text-anchor="start" x="750" y="-475.5" font-family="Helvetica,sans-Serif" font-size="10.00">string &amp;sprite, bool</text>
<text text-anchor="start" x="750" y="-464.5" font-family="Helvetica,sans-Serif" font-size="10.00"> flipX, bool flipY, int</text>
<text text-anchor="start" x="750" y="-453.5" font-family="Helvetica,sans-Serif" font-size="10.00"> sortingLayer, int orderLayer)</text>
<text text-anchor="start" x="750" y="-442.5" font-family="Helvetica,sans-Serif" font-size="10.00">+ Sprite(const std::</text>
<text text-anchor="start" x="750" y="-431.5" font-family="Helvetica,sans-Serif" font-size="10.00">string &amp;sprite, const</text>
<text text-anchor="start" x="750" y="-420.5" font-family="Helvetica,sans-Serif" font-size="10.00"> Color &amp;color, bool flipX,</text>
<text text-anchor="start" x="750" y="-409.5" font-family="Helvetica,sans-Serif" font-size="10.00"> bool flipY, int sortingLayer,</text>
<text text-anchor="start" x="750" y="-398.5" font-family="Helvetica,sans-Serif" font-size="10.00"> int orderInLayer)</text>
<text text-anchor="start" x="750" y="-387.5" font-family="Helvetica,sans-Serif" font-size="10.00">+ void Texture(const</text>
<text text-anchor="start" x="750" y="-376.5" font-family="Helvetica,sans-Serif" font-size="10.00"> std::string &amp;sprite)</text>
<text text-anchor="start" x="750" y="-365.5" font-family="Helvetica,sans-Serif" font-size="10.00">+ const std::string &amp;</text>
<text text-anchor="start" x="750" y="-354.5" font-family="Helvetica,sans-Serif" font-size="10.00"> Texture() const</text>
<text text-anchor="start" x="750" y="-343.5" font-family="Helvetica,sans-Serif" font-size="10.00">+ void Color(const spic</text>
<text text-anchor="start" x="750" y="-332.5" font-family="Helvetica,sans-Serif" font-size="10.00">::Color &amp;color)</text>
<text text-anchor="start" x="750" y="-321.5" font-family="Helvetica,sans-Serif" font-size="10.00">+ const spic::Color &amp;</text>
<text text-anchor="start" x="750" y="-310.5" font-family="Helvetica,sans-Serif" font-size="10.00"> Color() const</text>
<text text-anchor="start" x="750" y="-299.5" font-family="Helvetica,sans-Serif" font-size="10.00">+ void FlipX(bool flipX)</text>
<text text-anchor="start" x="750" y="-288.5" font-family="Helvetica,sans-Serif" font-size="10.00">+ bool FlipX() const</text>
<text text-anchor="start" x="750" y="-277.5" font-family="Helvetica,sans-Serif" font-size="10.00">+ void FlipY(bool flipY)</text>
<text text-anchor="start" x="750" y="-266.5" font-family="Helvetica,sans-Serif" font-size="10.00">+ bool FlipY() const</text>
<text text-anchor="start" x="750" y="-255.5" font-family="Helvetica,sans-Serif" font-size="10.00">+ void SortingLayer(int</text>
<text text-anchor="start" x="750" y="-244.5" font-family="Helvetica,sans-Serif" font-size="10.00"> sortingLayer)</text>
<text text-anchor="start" x="750" y="-233.5" font-family="Helvetica,sans-Serif" font-size="10.00">+ int SortingLayer()</text>
<text text-anchor="start" x="750" y="-222.5" font-family="Helvetica,sans-Serif" font-size="10.00"> const</text>
<text text-anchor="start" x="750" y="-211.5" font-family="Helvetica,sans-Serif" font-size="10.00">+ void OrderInLayer(int</text>
<text text-anchor="start" x="750" y="-200.5" font-family="Helvetica,sans-Serif" font-size="10.00"> orderInLayer)</text>
<text text-anchor="start" x="750" y="-189.5" font-family="Helvetica,sans-Serif" font-size="10.00">+ int OrderInLayer()</text>
<text text-anchor="start" x="750" y="-178.5" font-family="Helvetica,sans-Serif" font-size="10.00"> const</text>
</a>
</g>
</g>
<!-- Node1&#45;&gt;Node9 -->
<g id="edge8" class="edge">
<title>Node1&#45;&gt;Node9</title>
<path fill="none" stroke="midnightblue" d="M508.51,-642.14C576.36,-626.91 670.83,-596.27 732.5,-537 735.73,-533.9 738.83,-530.64 741.82,-527.25"/>
<polygon fill="none" stroke="midnightblue" points="507.72,-638.73 498.7,-644.27 509.21,-645.57 507.72,-638.73"/>
</g>
<!-- Node6 -->
<g id="node6" class="node">
<title>Node6</title>
<g id="a_node6"><a xlink:href="classspic_1_1BoxCollider.html" target="_top" xlink:title="A collider which represents a rectangular collision area. @spicapi.">
<polygon fill="none" stroke="black" points="349,-0.5 349,-134.5 498,-134.5 498,-0.5 349,-0.5"/>
<text text-anchor="middle" x="423.5" y="-122.5" font-family="Helvetica,sans-Serif" font-size="10.00">spic::BoxCollider</text>
<polyline fill="none" stroke="black" points="349,-115.5 498,-115.5 "/>
<text text-anchor="middle" x="423.5" y="-103.5" font-family="Helvetica,sans-Serif" font-size="10.00"> </text>
<polyline fill="none" stroke="black" points="349,-96.5 498,-96.5 "/>
<text text-anchor="start" x="357" y="-84.5" font-family="Helvetica,sans-Serif" font-size="10.00">+ BoxCollider()</text>
<text text-anchor="start" x="357" y="-73.5" font-family="Helvetica,sans-Serif" font-size="10.00">+ BoxCollider(double</text>
<text text-anchor="start" x="357" y="-62.5" font-family="Helvetica,sans-Serif" font-size="10.00"> width, double height)</text>
<text text-anchor="start" x="357" y="-51.5" font-family="Helvetica,sans-Serif" font-size="10.00">+ double Width() const</text>
<text text-anchor="start" x="357" y="-40.5" font-family="Helvetica,sans-Serif" font-size="10.00">+ void Width(double newWidth)</text>
<text text-anchor="start" x="357" y="-29.5" font-family="Helvetica,sans-Serif" font-size="10.00">+ double Height() const</text>
<text text-anchor="start" x="357" y="-18.5" font-family="Helvetica,sans-Serif" font-size="10.00">+ void Height(double</text>
<text text-anchor="start" x="357" y="-7.5" font-family="Helvetica,sans-Serif" font-size="10.00"> newHeight)</text>
</a>
</g>
</g>
<!-- Node5&#45;&gt;Node6 -->
<g id="edge5" class="edge">
<title>Node5&#45;&gt;Node6</title>
<path fill="none" stroke="midnightblue" d="M485.06,-298.94C472.59,-252.25 454.53,-184.64 441.19,-134.72"/>
<polygon fill="none" stroke="midnightblue" points="481.75,-300.1 487.71,-308.86 488.51,-298.29 481.75,-300.1"/>
</g>
<!-- Node7 -->
<g id="node7" class="node">
<title>Node7</title>
<g id="a_node7"><a xlink:href="classspic_1_1CircleCollider.html" target="_top" xlink:title="A collider which represents a circular collision area. @spicapi.">
<polygon fill="none" stroke="black" points="516.5,-11.5 516.5,-123.5 634.5,-123.5 634.5,-11.5 516.5,-11.5"/>
<text text-anchor="middle" x="575.5" y="-111.5" font-family="Helvetica,sans-Serif" font-size="10.00">spic::CircleCollider</text>
<polyline fill="none" stroke="black" points="516.5,-104.5 634.5,-104.5 "/>
<text text-anchor="middle" x="575.5" y="-92.5" font-family="Helvetica,sans-Serif" font-size="10.00"> </text>
<polyline fill="none" stroke="black" points="516.5,-85.5 634.5,-85.5 "/>
<text text-anchor="start" x="524.5" y="-73.5" font-family="Helvetica,sans-Serif" font-size="10.00">+ CircleCollider()</text>
<text text-anchor="start" x="524.5" y="-62.5" font-family="Helvetica,sans-Serif" font-size="10.00">+ CircleCollider(double</text>
<text text-anchor="start" x="524.5" y="-51.5" font-family="Helvetica,sans-Serif" font-size="10.00"> radius)</text>
<text text-anchor="start" x="524.5" y="-40.5" font-family="Helvetica,sans-Serif" font-size="10.00">+ double Radius() const</text>
<text text-anchor="start" x="524.5" y="-29.5" font-family="Helvetica,sans-Serif" font-size="10.00">+ void Radius(double</text>
<text text-anchor="start" x="524.5" y="-18.5" font-family="Helvetica,sans-Serif" font-size="10.00"> newRadius)</text>
</a>
</g>
</g>
<!-- Node5&#45;&gt;Node7 -->
<g id="edge6" class="edge">
<title>Node5&#45;&gt;Node7</title>
<path fill="none" stroke="midnightblue" d="M513.88,-299.16C527.3,-248.95 547.21,-174.39 560.74,-123.73"/>
<polygon fill="none" stroke="midnightblue" points="510.49,-298.29 511.29,-308.86 517.25,-300.1 510.49,-298.29"/>
</g>
</g>
</svg>
