<?xml version="1.0" encoding="UTF-8" standalone="no"?>
<!DOCTYPE svg PUBLIC "-//W3C//DTD SVG 1.1//EN"
 "http://www.w3.org/Graphics/SVG/1.1/DTD/svg11.dtd">
<!-- Generated by graphviz version 2.44.0 ()
 -->
<!-- Title: includes/spic&#45;api&#45;headers/Collider.hpp Pages: 1 -->
<!--zoomable 363 -->
<svg id="main" version="1.1" xmlns="http://www.w3.org/2000/svg" xmlns:xlink="http://www.w3.org/1999/xlink" xml:space="preserve" onload="init(evt)">
<style type="text/css"><![CDATA[
.edge:hover path { stroke: red; }
.edge:hover polygon { stroke: red; fill: red; }
]]></style>
<script type="text/javascript"><![CDATA[
var edges = document.getElementsByTagName('g');
if (edges && edges.length) {
  for (var i=0;i<edges.length;i++) {
    if (edges[i].id.substr(0,4)=='edge') {
      edges[i].setAttribute('class','edge');
    }
  }
}
]]></script>
        <defs>
                <circle id="rim" cx="0" cy="0" r="7"/>
                <circle id="rim2" cx="0" cy="0" r="3.5"/>
                <g id="zoomPlus">
                        <use xlink:href="#rim" fill="#404040">
                                <set attributeName="fill" to="#808080" begin="zoomplus.mouseover" end="zoomplus.mouseout"/>
                        </use>
                        <path d="M-4,0h8M0,-4v8" fill="none" stroke="white" stroke-width="1.5" pointer-events="none"/>
                </g>
                <g id="zoomMin">
                        <use xlink:href="#rim" fill="#404040">
                                <set attributeName="fill" to="#808080" begin="zoomminus.mouseover" end="zoomminus.mouseout"/>
                        </use>
                        <path d="M-4,0h8" fill="none" stroke="white" stroke-width="1.5" pointer-events="none"/>
                </g>
                <g id="dirArrow">
                        <path fill="none" stroke="white" stroke-width="1.5" d="M0,-3.0v7 M-2.5,-0.5L0,-3.0L2.5,-0.5"/>
                </g>
               <g id="resetDef">
                       <use xlink:href="#rim2" fill="#404040">
                               <set attributeName="fill" to="#808080" begin="reset.mouseover" end="reset.mouseout"/>
                       </use>
               </g>
        </defs>

<script type="text/javascript">
var viewWidth = 1314;
var viewHeight = 363;
var sectionId = 'dynsection-1';
</script>
<script xlink:href="svgpan.js"/>
<svg id="graph" class="graph">
<g id="viewport">
<title>includes/spic&#45;api&#45;headers/Collider.hpp</title>
<!-- Node1 -->
<g id="node1" class="node">
<title>Node1</title>
<g id="a_node1"><a xlink:title=" ">
<polygon fill="#bfbfbf" stroke="black" points="264,-324.5 264,-354.5 391,-354.5 391,-324.5 264,-324.5"/>
<text text-anchor="start" x="272" y="-342.5" font-family="Helvetica,sans-Serif" font-size="10.00">includes/spic&#45;api&#45;headers</text>
<text text-anchor="middle" x="327.5" y="-331.5" font-family="Helvetica,sans-Serif" font-size="10.00">/Collider.hpp</text>
</a>
</g>
</g>
<!-- Node2 -->
<g id="node2" class="node">
<title>Node2</title>
<g id="a_node2"><a xlink:href="Collider_8cpp.html" target="_top" xlink:title=" ">
<polygon fill="none" stroke="black" points="0,-263 0,-282 101,-282 101,-263 0,-263"/>
<text text-anchor="middle" x="50.5" y="-270" font-family="Helvetica,sans-Serif" font-size="10.00">src/Api/Collider.cpp</text>
</a>
</g>
</g>
<!-- Node1&#45;&gt;Node2 -->
<g id="edge1" class="edge">
<title>Node1&#45;&gt;Node2</title>
<path fill="none" stroke="midnightblue" d="M255.91,-322.17C213.35,-312.4 158.3,-299.65 109.5,-288 101.5,-286.09 92.89,-284 84.8,-282.01"/>
<polygon fill="midnightblue" stroke="midnightblue" points="255.37,-325.64 265.9,-324.46 256.94,-318.81 255.37,-325.64"/>
</g>
<!-- Node3 -->
<g id="node3" class="node">
<title>Node3</title>
<g id="a_node3"><a xlink:href="Api_8hpp.html" target="_top" xlink:title=" ">
<polygon fill="none" stroke="black" points="356,-190.5 356,-220.5 483,-220.5 483,-190.5 356,-190.5"/>
<text text-anchor="start" x="364" y="-208.5" font-family="Helvetica,sans-Serif" font-size="10.00">includes/spic&#45;api&#45;headers</text>
<text text-anchor="middle" x="419.5" y="-197.5" font-family="Helvetica,sans-Serif" font-size="10.00">/Api.hpp</text>
</a>
</g>
</g>
<!-- Node1&#45;&gt;Node3 -->
<g id="edge2" class="edge">
<title>Node1&#45;&gt;Node3</title>
<path fill="none" stroke="midnightblue" d="M365.91,-318.89C378.27,-310.85 390.97,-300.47 399.5,-288 413.56,-267.44 417.76,-237.98 419,-220.69"/>
<polygon fill="midnightblue" stroke="midnightblue" points="363.73,-316.12 357.02,-324.32 367.38,-322.09 363.73,-316.12"/>
</g>
<!-- Node4 -->
<g id="node4" class="node">
<title>Node4</title>
<g id="a_node4"><a xlink:href="BehaviourScript_8hpp.html" target="_top" xlink:title=" ">
<polygon fill="none" stroke="black" points="603,-257.5 603,-287.5 730,-287.5 730,-257.5 603,-257.5"/>
<text text-anchor="start" x="611" y="-275.5" font-family="Helvetica,sans-Serif" font-size="10.00">includes/spic&#45;api&#45;headers</text>
<text text-anchor="middle" x="666.5" y="-264.5" font-family="Helvetica,sans-Serif" font-size="10.00">/BehaviourScript.hpp</text>
</a>
</g>
</g>
<!-- Node1&#45;&gt;Node4 -->
<g id="edge3" class="edge">
<title>Node1&#45;&gt;Node4</title>
<path fill="none" stroke="midnightblue" d="M401.45,-324.32C461.58,-312.79 545.53,-296.69 602.74,-285.73"/>
<polygon fill="midnightblue" stroke="midnightblue" points="400.43,-320.95 391.26,-326.27 401.74,-327.83 400.43,-320.95"/>
</g>
<!-- Node18 -->
<g id="node18" class="node">
<title>Node18</title>
<g id="a_node18"><a xlink:href="BoxCollider_8hpp.html" target="_top" xlink:title=" ">
<polygon fill="none" stroke="black" points="264,-257.5 264,-287.5 391,-287.5 391,-257.5 264,-257.5"/>
<text text-anchor="start" x="272" y="-275.5" font-family="Helvetica,sans-Serif" font-size="10.00">includes/spic&#45;api&#45;headers</text>
<text text-anchor="middle" x="327.5" y="-264.5" font-family="Helvetica,sans-Serif" font-size="10.00">/BoxCollider.hpp</text>
</a>
</g>
</g>
<!-- Node1&#45;&gt;Node18 -->
<g id="edge22" class="edge">
<title>Node1&#45;&gt;Node18</title>
<path fill="none" stroke="midnightblue" d="M327.5,-314.11C327.5,-305.15 327.5,-295.32 327.5,-287.58"/>
<polygon fill="midnightblue" stroke="midnightblue" points="324,-314.4 327.5,-324.4 331,-314.4 324,-314.4"/>
</g>
<!-- Node20 -->
<g id="node20" class="node">
<title>Node20</title>
<g id="a_node20"><a xlink:href="CircleCollider_8hpp.html" target="_top" xlink:title=" ">
<polygon fill="none" stroke="black" points="119,-257.5 119,-287.5 246,-287.5 246,-257.5 119,-257.5"/>
<text text-anchor="start" x="127" y="-275.5" font-family="Helvetica,sans-Serif" font-size="10.00">includes/spic&#45;api&#45;headers</text>
<text text-anchor="middle" x="182.5" y="-264.5" font-family="Helvetica,sans-Serif" font-size="10.00">/CircleCollider.hpp</text>
</a>
</g>
</g>
<!-- Node1&#45;&gt;Node20 -->
<g id="edge26" class="edge">
<title>Node1&#45;&gt;Node20</title>
<path fill="none" stroke="midnightblue" d="M286.83,-320.27C263.74,-309.92 235.26,-297.15 213.9,-287.58"/>
<polygon fill="midnightblue" stroke="midnightblue" points="285.48,-323.5 296.04,-324.4 288.34,-317.11 285.48,-323.5"/>
</g>
<!-- Node4&#45;&gt;Node3 -->
<g id="edge21" class="edge">
<title>Node4&#45;&gt;Node3</title>
<path fill="none" stroke="midnightblue" d="M603.49,-254.92C563.18,-244.31 511.46,-230.7 473.12,-220.61"/>
<polygon fill="midnightblue" stroke="midnightblue" points="602.65,-258.32 613.21,-257.48 604.43,-251.55 602.65,-258.32"/>
</g>
<!-- Node5 -->
<g id="node5" class="node">
<title>Node5</title>
<g id="a_node5"><a xlink:href="BehaviourScript_8cpp.html" target="_top" xlink:title=" ">
<polygon fill="none" stroke="black" points="501,-196 501,-215 638,-215 638,-196 501,-196"/>
<text text-anchor="middle" x="569.5" y="-203" font-family="Helvetica,sans-Serif" font-size="10.00">src/Api/BehaviourScript.cpp</text>
</a>
</g>
</g>
<!-- Node4&#45;&gt;Node5 -->
<g id="edge4" class="edge">
<title>Node4&#45;&gt;Node5</title>
<path fill="none" stroke="midnightblue" d="M636.86,-251.64C618.56,-239.37 596.01,-224.26 582.2,-215.01"/>
<polygon fill="midnightblue" stroke="midnightblue" points="635.2,-254.74 645.45,-257.4 639.09,-248.92 635.2,-254.74"/>
</g>
<!-- Node6 -->
<g id="node6" class="node">
<title>Node6</title>
<g id="a_node6"><a xlink:href="ContactListener_8cpp.html" target="_top" xlink:title=" ">
<polygon fill="none" stroke="black" points="426.5,-129 426.5,-148 590.5,-148 590.5,-129 426.5,-129"/>
<text text-anchor="middle" x="508.5" y="-136" font-family="Helvetica,sans-Serif" font-size="10.00">src/Listeners/ContactListener.cpp</text>
</a>
</g>
</g>
<!-- Node4&#45;&gt;Node6 -->
<g id="edge5" class="edge">
<title>Node4&#45;&gt;Node6</title>
<path fill="none" stroke="midnightblue" d="M666.38,-247.05C665.03,-229.22 660.42,-205.55 646.5,-190 626.33,-167.48 595.27,-154.99 567.71,-148.06"/>
<polygon fill="midnightblue" stroke="midnightblue" points="662.9,-247.45 666.86,-257.28 669.89,-247.12 662.9,-247.45"/>
</g>
<!-- Node7 -->
<g id="node7" class="node">
<title>Node7</title>
<g id="a_node7"><a xlink:href="ContactListener_8hpp.html" target="_top" xlink:title=" ">
<polygon fill="none" stroke="black" points="694.5,-196 694.5,-215 858.5,-215 858.5,-196 694.5,-196"/>
<text text-anchor="middle" x="776.5" y="-203" font-family="Helvetica,sans-Serif" font-size="10.00">src/Listeners/ContactListener.hpp</text>
</a>
</g>
</g>
<!-- Node4&#45;&gt;Node7 -->
<g id="edge6" class="edge">
<title>Node4&#45;&gt;Node7</title>
<path fill="none" stroke="midnightblue" d="M698.98,-252.31C719.93,-239.93 746.16,-224.43 762.1,-215.01"/>
<polygon fill="midnightblue" stroke="midnightblue" points="697.2,-249.3 690.37,-257.4 700.76,-255.32 697.2,-249.3"/>
</g>
<!-- Node12 -->
<g id="node12" class="node">
<title>Node12</title>
<g id="a_node12"><a xlink:href="BehaviourScriptSubsystem_8cpp.html" target="_top" xlink:title=" ">
<polygon fill="none" stroke="black" points="1171.5,-123.5 1171.5,-153.5 1305.5,-153.5 1305.5,-123.5 1171.5,-123.5"/>
<text text-anchor="start" x="1179.5" y="-141.5" font-family="Helvetica,sans-Serif" font-size="10.00">src/Subsystems/Behaviour</text>
<text text-anchor="middle" x="1238.5" y="-130.5" font-family="Helvetica,sans-Serif" font-size="10.00">ScriptSubsystem.cpp</text>
</a>
</g>
</g>
<!-- Node4&#45;&gt;Node12 -->
<g id="edge12" class="edge">
<title>Node4&#45;&gt;Node12</title>
<path fill="none" stroke="midnightblue" d="M740.41,-270.85C825.69,-268.23 969.24,-258.04 1086.5,-221 1136.75,-205.13 1189.75,-172.56 1217.97,-153.75"/>
<polygon fill="midnightblue" stroke="midnightblue" points="740.2,-267.35 730.3,-271.13 740.4,-274.35 740.2,-267.35"/>
</g>
<!-- Node13 -->
<g id="node13" class="node">
<title>Node13</title>
<g id="a_node13"><a xlink:href="BehaviourScriptSubsystem_8hpp.html" target="_top" xlink:title=" ">
<polygon fill="none" stroke="black" points="943.5,-190.5 943.5,-220.5 1077.5,-220.5 1077.5,-190.5 943.5,-190.5"/>
<text text-anchor="start" x="951.5" y="-208.5" font-family="Helvetica,sans-Serif" font-size="10.00">src/Subsystems/Behaviour</text>
<text text-anchor="middle" x="1010.5" y="-197.5" font-family="Helvetica,sans-Serif" font-size="10.00">ScriptSubsystem.hpp</text>
</a>
</g>
</g>
<!-- Node4&#45;&gt;Node13 -->
<g id="edge13" class="edge">
<title>Node4&#45;&gt;Node13</title>
<path fill="none" stroke="midnightblue" d="M740.23,-257.57C800.51,-246.18 885.02,-230.21 943.42,-219.17"/>
<polygon fill="midnightblue" stroke="midnightblue" points="739.57,-254.13 730.4,-259.43 740.87,-261.01 739.57,-254.13"/>
</g>
<!-- Node7&#45;&gt;Node6 -->
<g id="edge7" class="edge">
<title>Node7&#45;&gt;Node6</title>
<path fill="none" stroke="midnightblue" d="M731.41,-193.56C678.58,-180.75 592.14,-159.78 543.89,-148.08"/>
<polygon fill="midnightblue" stroke="midnightblue" points="730.64,-196.98 741.19,-195.94 732.29,-190.18 730.64,-196.98"/>
</g>
<!-- Node8 -->
<g id="node8" class="node">
<title>Node8</title>
<g id="a_node8"><a xlink:href="PhysicsSubsystem_8hpp.html" target="_top" xlink:title=" ">
<polygon fill="none" stroke="black" points="609,-129 609,-148 800,-148 800,-129 609,-129"/>
<text text-anchor="middle" x="704.5" y="-136" font-family="Helvetica,sans-Serif" font-size="10.00">src/Subsystems/PhysicsSubsystem.hpp</text>
</a>
</g>
</g>
<!-- Node7&#45;&gt;Node8 -->
<g id="edge8" class="edge">
<title>Node7&#45;&gt;Node8</title>
<path fill="none" stroke="midnightblue" d="M759.17,-188.86C745.02,-176.08 725.54,-158.49 714.06,-148.13"/>
<polygon fill="midnightblue" stroke="midnightblue" points="757.02,-191.63 766.79,-195.73 761.71,-186.43 757.02,-191.63"/>
</g>
<!-- Node9 -->
<g id="node9" class="node">
<title>Node9</title>
<g id="a_node9"><a xlink:href="PhysicsSubsystem_8cpp.html" target="_top" xlink:title=" ">
<polygon fill="none" stroke="black" points="232,-62 232,-81 423,-81 423,-62 232,-62"/>
<text text-anchor="middle" x="327.5" y="-69" font-family="Helvetica,sans-Serif" font-size="10.00">src/Subsystems/PhysicsSubsystem.cpp</text>
</a>
</g>
</g>
<!-- Node8&#45;&gt;Node9 -->
<g id="edge9" class="edge">
<title>Node8&#45;&gt;Node9</title>
<path fill="none" stroke="midnightblue" d="M644.73,-127.19C570.69,-114.43 445.91,-92.92 376.98,-81.03"/>
<polygon fill="midnightblue" stroke="midnightblue" points="644.38,-130.69 654.83,-128.94 645.57,-123.79 644.38,-130.69"/>
</g>
<!-- Node10 -->
<g id="node10" class="node">
<title>Node10</title>
<g id="a_node10"><a xlink:href="Subsystems_8hpp.html" target="_top" xlink:title=" ">
<polygon fill="none" stroke="black" points="820.5,-62 820.5,-81 982.5,-81 982.5,-62 820.5,-62"/>
<text text-anchor="middle" x="901.5" y="-69" font-family="Helvetica,sans-Serif" font-size="10.00">src/Subsystems/Subsystems.hpp</text>
</a>
</g>
</g>
<!-- Node8&#45;&gt;Node10 -->
<g id="edge10" class="edge">
<title>Node8&#45;&gt;Node10</title>
<path fill="none" stroke="midnightblue" d="M740.56,-125.6C779.62,-112.71 840.97,-92.47 875.55,-81.06"/>
<polygon fill="midnightblue" stroke="midnightblue" points="739.06,-122.41 730.66,-128.87 741.25,-129.06 739.06,-122.41"/>
</g>
<!-- Node11 -->
<g id="node11" class="node">
<title>Node11</title>
<g id="a_node11"><a xlink:href="Engine_8cpp.html" target="_top" xlink:title=" ">
<polygon fill="none" stroke="black" points="852.5,-0.5 852.5,-19.5 950.5,-19.5 950.5,-0.5 852.5,-0.5"/>
<text text-anchor="middle" x="901.5" y="-7.5" font-family="Helvetica,sans-Serif" font-size="10.00">src/Api/Engine.cpp</text>
</a>
</g>
</g>
<!-- Node10&#45;&gt;Node11 -->
<g id="edge11" class="edge">
<title>Node10&#45;&gt;Node11</title>
<path fill="none" stroke="midnightblue" d="M901.5,-51.82C901.5,-41 901.5,-27.9 901.5,-19.51"/>
<polygon fill="midnightblue" stroke="midnightblue" points="898,-51.98 901.5,-61.98 905,-51.98 898,-51.98"/>
</g>
<!-- Node13&#45;&gt;Node12 -->
<g id="edge14" class="edge">
<title>Node13&#45;&gt;Node12</title>
<path fill="none" stroke="midnightblue" d="M1069.38,-187.71C1106.48,-177.14 1153.84,-163.63 1189,-153.61"/>
<polygon fill="midnightblue" stroke="midnightblue" points="1068.35,-184.37 1059.69,-190.48 1070.27,-191.1 1068.35,-184.37"/>
</g>
<!-- Node14 -->
<g id="node14" class="node">
<title>Node14</title>
<g id="a_node14"><a xlink:href="LateUpdateBehaviourScriptSubsystem_8hpp.html" target="_top" xlink:title=" ">
<polygon fill="none" stroke="black" points="1001.5,-123.5 1001.5,-153.5 1153.5,-153.5 1153.5,-123.5 1001.5,-123.5"/>
<text text-anchor="start" x="1009.5" y="-141.5" font-family="Helvetica,sans-Serif" font-size="10.00">src/Subsystems/LateUpdate</text>
<text text-anchor="middle" x="1077.5" y="-130.5" font-family="Helvetica,sans-Serif" font-size="10.00">BehaviourScriptSubsystem.hpp</text>
</a>
</g>
</g>
<!-- Node13&#45;&gt;Node14 -->
<g id="edge15" class="edge">
<title>Node13&#45;&gt;Node14</title>
<path fill="none" stroke="midnightblue" d="M1032.34,-183.31C1042.39,-173.56 1054.04,-162.26 1062.99,-153.58"/>
<polygon fill="midnightblue" stroke="midnightblue" points="1029.78,-180.92 1025.04,-190.4 1034.65,-185.94 1029.78,-180.92"/>
</g>
<!-- Node16 -->
<g id="node16" class="node">
<title>Node16</title>
<g id="a_node16"><a xlink:href="UpdateBehaviourScriptSubsystem_8hpp.html" target="_top" xlink:title=" ">
<polygon fill="none" stroke="black" points="818,-123.5 818,-153.5 983,-153.5 983,-123.5 818,-123.5"/>
<text text-anchor="start" x="826" y="-141.5" font-family="Helvetica,sans-Serif" font-size="10.00">src/Subsystems/UpdateBehaviour</text>
<text text-anchor="middle" x="900.5" y="-130.5" font-family="Helvetica,sans-Serif" font-size="10.00">ScriptSubsystem.hpp</text>
</a>
</g>
</g>
<!-- Node13&#45;&gt;Node16 -->
<g id="edge18" class="edge">
<title>Node13&#45;&gt;Node16</title>
<path fill="none" stroke="midnightblue" d="M978,-185.3C960.79,-175.12 940.02,-162.85 924.32,-153.58"/>
<polygon fill="midnightblue" stroke="midnightblue" points="976.24,-188.32 986.63,-190.4 979.8,-182.3 976.24,-188.32"/>
</g>
<!-- Node14&#45;&gt;Node10 -->
<g id="edge17" class="edge">
<title>Node14&#45;&gt;Node10</title>
<path fill="none" stroke="midnightblue" d="M1029.53,-119.78C995.4,-107.18 951.07,-90.81 924.53,-81.01"/>
<polygon fill="midnightblue" stroke="midnightblue" points="1028.72,-123.21 1039.31,-123.4 1031.14,-116.65 1028.72,-123.21"/>
</g>
<!-- Node15 -->
<g id="node15" class="node">
<title>Node15</title>
<g id="a_node15"><a xlink:href="LateUpdateBehaviourScriptSubsystem_8cpp.html" target="_top" xlink:title=" ">
<polygon fill="none" stroke="black" points="1001.5,-56.5 1001.5,-86.5 1153.5,-86.5 1153.5,-56.5 1001.5,-56.5"/>
<text text-anchor="start" x="1009.5" y="-74.5" font-family="Helvetica,sans-Serif" font-size="10.00">src/Subsystems/LateUpdate</text>
<text text-anchor="middle" x="1077.5" y="-63.5" font-family="Helvetica,sans-Serif" font-size="10.00">BehaviourScriptSubsystem.cpp</text>
</a>
</g>
</g>
<!-- Node14&#45;&gt;Node15 -->
<g id="edge16" class="edge">
<title>Node14&#45;&gt;Node15</title>
<path fill="none" stroke="midnightblue" d="M1077.5,-113.11C1077.5,-104.15 1077.5,-94.32 1077.5,-86.58"/>
<polygon fill="midnightblue" stroke="midnightblue" points="1074,-113.4 1077.5,-123.4 1081,-113.4 1074,-113.4"/>
</g>
<!-- Node16&#45;&gt;Node10 -->
<g id="edge19" class="edge">
<title>Node16&#45;&gt;Node10</title>
<path fill="none" stroke="midnightblue" d="M900.87,-113.25C901.05,-102.02 901.24,-89.38 901.37,-81.19"/>
<polygon fill="midnightblue" stroke="midnightblue" points="897.37,-113.34 900.72,-123.4 904.37,-113.45 897.37,-113.34"/>
</g>
<!-- Node17 -->
<g id="node17" class="node">
<title>Node17</title>
<g id="a_node17"><a xlink:href="UpdateBehaviourScriptSubsystem_8cpp.html" target="_top" xlink:title=" ">
<polygon fill="none" stroke="black" points="637,-56.5 637,-86.5 802,-86.5 802,-56.5 637,-56.5"/>
<text text-anchor="start" x="645" y="-74.5" font-family="Helvetica,sans-Serif" font-size="10.00">src/Subsystems/UpdateBehaviour</text>
<text text-anchor="middle" x="719.5" y="-63.5" font-family="Helvetica,sans-Serif" font-size="10.00">ScriptSubsystem.cpp</text>
</a>
</g>
</g>
<!-- Node16&#45;&gt;Node17 -->
<g id="edge20" class="edge">
<title>Node16&#45;&gt;Node17</title>
<path fill="none" stroke="midnightblue" d="M851.64,-119.96C822.49,-109.48 785.96,-96.37 758.7,-86.58"/>
<polygon fill="midnightblue" stroke="midnightblue" points="850.63,-123.31 861.23,-123.4 853,-116.72 850.63,-123.31"/>
</g>
<!-- Node18&#45;&gt;Node3 -->
<g id="edge25" class="edge">
<title>Node18&#45;&gt;Node3</title>
<path fill="none" stroke="midnightblue" d="M355.88,-251.45C370.03,-241.45 386.81,-229.6 399.58,-220.58"/>
<polygon fill="midnightblue" stroke="midnightblue" points="353.61,-248.77 347.46,-257.4 357.65,-254.48 353.61,-248.77"/>
</g>
<!-- Node18&#45;&gt;Node9 -->
<g id="edge24" class="edge">
<title>Node18&#45;&gt;Node9</title>
<path fill="none" stroke="midnightblue" d="M327.5,-246.96C327.5,-202.43 327.5,-110.25 327.5,-81.36"/>
<polygon fill="midnightblue" stroke="midnightblue" points="324,-247.19 327.5,-257.19 331,-247.19 324,-247.19"/>
</g>
<!-- Node19 -->
<g id="node19" class="node">
<title>Node19</title>
<g id="a_node19"><a xlink:href="BoxCollider_8cpp.html" target="_top" xlink:title=" ">
<polygon fill="none" stroke="black" points="182,-196 182,-215 299,-215 299,-196 182,-196"/>
<text text-anchor="middle" x="240.5" y="-203" font-family="Helvetica,sans-Serif" font-size="10.00">src/Api/BoxCollider.cpp</text>
</a>
</g>
</g>
<!-- Node18&#45;&gt;Node19 -->
<g id="edge23" class="edge">
<title>Node18&#45;&gt;Node19</title>
<path fill="none" stroke="midnightblue" d="M300.52,-251.34C284.28,-239.21 264.44,-224.39 252.14,-215.19"/>
<polygon fill="midnightblue" stroke="midnightblue" points="298.52,-254.21 308.62,-257.4 302.71,-248.61 298.52,-254.21"/>
</g>
<!-- Node20&#45;&gt;Node3 -->
<g id="edge29" class="edge">
<title>Node20&#45;&gt;Node3</title>
<path fill="none" stroke="midnightblue" d="M243.7,-254.71C282.27,-244.14 331.5,-230.63 368.05,-220.61"/>
<polygon fill="midnightblue" stroke="midnightblue" points="242.35,-251.46 233.63,-257.48 244.2,-258.21 242.35,-251.46"/>
</g>
<!-- Node20&#45;&gt;Node9 -->
<g id="edge28" class="edge">
<title>Node20&#45;&gt;Node9</title>
<path fill="none" stroke="midnightblue" d="M108.81,-255.83C74.69,-246.94 39.49,-234.82 29.5,-221 21.43,-209.83 21.75,-201.39 29.5,-190 76.12,-121.5 169.43,-92.93 239.27,-81.02"/>
<polygon fill="midnightblue" stroke="midnightblue" points="108.3,-259.32 118.86,-258.37 110.02,-252.53 108.3,-259.32"/>
</g>
<!-- Node21 -->
<g id="node21" class="node">
<title>Node21</title>
<g id="a_node21"><a xlink:href="CircleCollider_8cpp.html" target="_top" xlink:title=" ">
<polygon fill="none" stroke="black" points="39,-196 39,-215 164,-215 164,-196 39,-196"/>
<text text-anchor="middle" x="101.5" y="-203" font-family="Helvetica,sans-Serif" font-size="10.00">src/Api/CircleCollider.cpp</text>
</a>
</g>
</g>
<!-- Node20&#45;&gt;Node21 -->
<g id="edge27" class="edge">
<title>Node20&#45;&gt;Node21</title>
<path fill="none" stroke="midnightblue" d="M156.96,-251.01C141.93,-238.94 123.69,-224.3 112.33,-215.19"/>
<polygon fill="midnightblue" stroke="midnightblue" points="154.93,-253.87 164.92,-257.4 159.32,-248.41 154.93,-253.87"/>
</g>
</g>
</svg>
        <g id="navigator" transform="translate(0 0)" fill="#404254">
                <rect fill="#f2f5e9" fill-opacity="0.5" stroke="#606060" stroke-width=".5" x="0" y="0" width="60" height="60"/>
                <use id="zoomplus" xlink:href="#zoomPlus" x="17" y="9" onmousedown="handleZoom(evt,'in')"/>
                <use id="zoomminus" xlink:href="#zoomMin" x="42" y="9" onmousedown="handleZoom(evt,'out')"/>
                <use id="reset" xlink:href="#resetDef" x="30" y="36" onmousedown="handleReset()"/>
                <g id="arrowUp" xlink:href="#dirArrow" transform="translate(30 24)" onmousedown="handlePan(0,-1)">
                  <use xlink:href="#rim" fill="#404040">
                        <set attributeName="fill" to="#808080" begin="arrowUp.mouseover" end="arrowUp.mouseout"/>
                  </use>
                  <path fill="none" stroke="white" stroke-width="1.5" d="M0,-3.0v7 M-2.5,-0.5L0,-3.0L2.5,-0.5"/>
                </g>
                <g id="arrowRight" xlink:href="#dirArrow" transform="rotate(90) translate(36 -43)" onmousedown="handlePan(1,0)">
                  <use xlink:href="#rim" fill="#404040">
                        <set attributeName="fill" to="#808080" begin="arrowRight.mouseover" end="arrowRight.mouseout"/>
                  </use>
                  <path fill="none" stroke="white" stroke-width="1.5" d="M0,-3.0v7 M-2.5,-0.5L0,-3.0L2.5,-0.5"/>
                </g>
                <g id="arrowDown" xlink:href="#dirArrow" transform="rotate(180) translate(-30 -48)" onmousedown="handlePan(0,1)">
                  <use xlink:href="#rim" fill="#404040">
                        <set attributeName="fill" to="#808080" begin="arrowDown.mouseover" end="arrowDown.mouseout"/>
                  </use>
                  <path fill="none" stroke="white" stroke-width="1.5" d="M0,-3.0v7 M-2.5,-0.5L0,-3.0L2.5,-0.5"/>
                </g>
                <g id="arrowLeft" xlink:href="#dirArrow" transform="rotate(270) translate(-36 17)" onmousedown="handlePan(-1,0)">
                  <use xlink:href="#rim" fill="#404040">
                        <set attributeName="fill" to="#808080" begin="arrowLeft.mouseover" end="arrowLeft.mouseout"/>
                  </use>
                  <path fill="none" stroke="white" stroke-width="1.5" d="M0,-3.0v7 M-2.5,-0.5L0,-3.0L2.5,-0.5"/>
                </g>
        </g>
        <svg viewBox="0 0 15 15" width="100%" height="30px" preserveAspectRatio="xMaxYMin meet">
         <g id="arrow_out" transform="scale(0.3 0.3)">
          <a xlink:href="Collider_8hpp__dep__incl_org.svg" target="_base">
           <rect id="button" ry="5" rx="5" y="6" x="6" height="38" width="38"
                fill="#f2f5e9" fill-opacity="0.5" stroke="#606060" stroke-width="1.0"/>
           <path id="arrow"
             d="M 11.500037,31.436501 C 11.940474,20.09759 22.043105,11.32322 32.158766,21.979434 L 37.068811,17.246167 C 37.068811,17.246167 37.088388,32 37.088388,32 L 22.160133,31.978069 C 22.160133,31.978069 26.997745,27.140456 26.997745,27.140456 C 18.528582,18.264221 13.291696,25.230495 11.500037,31.436501 z"
             style="fill:#404040;"/>
          </a>
         </g>
        </svg>
</svg>
