<?xml version="1.0" encoding="UTF-8" standalone="no"?>
<!DOCTYPE svg PUBLIC "-//W3C//DTD SVG 1.1//EN"
 "http://www.w3.org/Graphics/SVG/1.1/DTD/svg11.dtd">
<!-- Generated by graphviz version 2.44.0 ()
 -->
<!-- Title: includes/spic&#45;api&#45;headers/Collider.hpp Pages: 1 -->
<svg width="995pt" height="341pt"
 viewBox="0.00 0.00 995.30 341.00" xmlns="http://www.w3.org/2000/svg" xmlns:xlink="http://www.w3.org/1999/xlink">
<g id="graph0" class="graph" transform="scale(1 1) rotate(0) translate(4 337)">
<title>includes/spic&#45;api&#45;headers/Collider.hpp</title>
<!-- Node1 -->
<g id="node1" class="node">
<title>Node1</title>
<g id="a_node1"><a xlink:title=" ">
<polygon fill="#bfbfbf" stroke="black" points="528.5,-302.5 528.5,-332.5 655.5,-332.5 655.5,-302.5 528.5,-302.5"/>
<text text-anchor="start" x="536.5" y="-320.5" font-family="Helvetica,sans-Serif" font-size="10.00">includes/spic&#45;api&#45;headers</text>
<text text-anchor="middle" x="592" y="-309.5" font-family="Helvetica,sans-Serif" font-size="10.00">/Collider.hpp</text>
</a>
</g>
</g>
<!-- Node2 -->
<g id="node2" class="node">
<title>Node2</title>
<g id="a_node2"><a xlink:href="Collider_8cpp.html" target="_top" xlink:title=" ">
<polygon fill="none" stroke="black" points="245.5,-241 245.5,-260 346.5,-260 346.5,-241 245.5,-241"/>
<text text-anchor="middle" x="296" y="-248" font-family="Helvetica,sans-Serif" font-size="10.00">src/Api/Collider.cpp</text>
</a>
</g>
</g>
<!-- Node1&#45;&gt;Node2 -->
<g id="edge1" class="edge">
<title>Node1&#45;&gt;Node2</title>
<path fill="none" stroke="midnightblue" d="M518.2,-301.39C471.37,-291.65 409.53,-278.51 355,-266 346.88,-264.14 338.15,-262.04 329.96,-260.04"/>
<polygon fill="midnightblue" stroke="midnightblue" points="517.76,-304.87 528.26,-303.48 519.18,-298.02 517.76,-304.87"/>
</g>
<!-- Node3 -->
<g id="node3" class="node">
<title>Node3</title>
<g id="a_node3"><a xlink:href="Api_8hpp.html" target="_top" xlink:title=" ">
<polygon fill="none" stroke="black" points="528.5,-168.5 528.5,-198.5 655.5,-198.5 655.5,-168.5 528.5,-168.5"/>
<text text-anchor="start" x="536.5" y="-186.5" font-family="Helvetica,sans-Serif" font-size="10.00">includes/spic&#45;api&#45;headers</text>
<text text-anchor="middle" x="592" y="-175.5" font-family="Helvetica,sans-Serif" font-size="10.00">/Api.hpp</text>
</a>
</g>
</g>
<!-- Node1&#45;&gt;Node3 -->
<g id="edge2" class="edge">
<title>Node1&#45;&gt;Node3</title>
<path fill="none" stroke="midnightblue" d="M592,-292.02C592,-264.51 592,-220.79 592,-198.52"/>
<polygon fill="midnightblue" stroke="midnightblue" points="588.5,-292.37 592,-302.37 595.5,-292.37 588.5,-292.37"/>
</g>
<!-- Node4 -->
<g id="node4" class="node">
<title>Node4</title>
<g id="a_node4"><a xlink:href="BehaviourScript_8hpp.html" target="_top" xlink:title=" ">
<polygon fill="none" stroke="black" points="364.5,-235.5 364.5,-265.5 491.5,-265.5 491.5,-235.5 364.5,-235.5"/>
<text text-anchor="start" x="372.5" y="-253.5" font-family="Helvetica,sans-Serif" font-size="10.00">includes/spic&#45;api&#45;headers</text>
<text text-anchor="middle" x="428" y="-242.5" font-family="Helvetica,sans-Serif" font-size="10.00">/BehaviourScript.hpp</text>
</a>
</g>
</g>
<!-- Node1&#45;&gt;Node4 -->
<g id="edge3" class="edge">
<title>Node1&#45;&gt;Node4</title>
<path fill="none" stroke="midnightblue" d="M547.04,-298.68C520.74,-288.26 488,-275.28 463.52,-265.58"/>
<polygon fill="midnightblue" stroke="midnightblue" points="545.83,-301.97 556.41,-302.4 548.41,-295.46 545.83,-301.97"/>
</g>
<!-- Node13 -->
<g id="node13" class="node">
<title>Node13</title>
<g id="a_node13"><a xlink:href="BoxCollider_8hpp.html" target="_top" xlink:title=" ">
<polygon fill="none" stroke="black" points="644.5,-235.5 644.5,-265.5 771.5,-265.5 771.5,-235.5 644.5,-235.5"/>
<text text-anchor="start" x="652.5" y="-253.5" font-family="Helvetica,sans-Serif" font-size="10.00">includes/spic&#45;api&#45;headers</text>
<text text-anchor="middle" x="708" y="-242.5" font-family="Helvetica,sans-Serif" font-size="10.00">/BoxCollider.hpp</text>
</a>
</g>
</g>
<!-- Node1&#45;&gt;Node13 -->
<g id="edge14" class="edge">
<title>Node1&#45;&gt;Node13</title>
<path fill="none" stroke="midnightblue" d="M626.27,-297.3C644.42,-287.12 666.32,-274.85 682.88,-265.58"/>
<polygon fill="midnightblue" stroke="midnightblue" points="624.18,-294.45 617.17,-302.4 627.6,-300.56 624.18,-294.45"/>
</g>
<!-- Node15 -->
<g id="node15" class="node">
<title>Node15</title>
<g id="a_node15"><a xlink:href="CircleCollider_8hpp.html" target="_top" xlink:title=" ">
<polygon fill="none" stroke="black" points="817.5,-235.5 817.5,-265.5 944.5,-265.5 944.5,-235.5 817.5,-235.5"/>
<text text-anchor="start" x="825.5" y="-253.5" font-family="Helvetica,sans-Serif" font-size="10.00">includes/spic&#45;api&#45;headers</text>
<text text-anchor="middle" x="881" y="-242.5" font-family="Helvetica,sans-Serif" font-size="10.00">/CircleCollider.hpp</text>
</a>
</g>
</g>
<!-- Node1&#45;&gt;Node15 -->
<g id="edge18" class="edge">
<title>Node1&#45;&gt;Node15</title>
<path fill="none" stroke="midnightblue" d="M664.24,-300.25C711.61,-289.6 772.93,-275.81 818.26,-265.61"/>
<polygon fill="midnightblue" stroke="midnightblue" points="663.34,-296.87 654.35,-302.48 664.88,-303.7 663.34,-296.87"/>
</g>
<!-- Node4&#45;&gt;Node3 -->
<g id="edge13" class="edge">
<title>Node4&#45;&gt;Node3</title>
<path fill="none" stroke="midnightblue" d="M472.96,-231.68C499.26,-221.26 532,-208.28 556.48,-198.58"/>
<polygon fill="midnightblue" stroke="midnightblue" points="471.59,-228.46 463.59,-235.4 474.17,-234.97 471.59,-228.46"/>
</g>
<!-- Node5 -->
<g id="node5" class="node">
<title>Node5</title>
<g id="a_node5"><a xlink:href="BehaviourScript_8cpp.html" target="_top" xlink:title=" ">
<polygon fill="none" stroke="black" points="152.5,-174 152.5,-193 289.5,-193 289.5,-174 152.5,-174"/>
<text text-anchor="middle" x="221" y="-181" font-family="Helvetica,sans-Serif" font-size="10.00">src/Api/BehaviourScript.cpp</text>
</a>
</g>
</g>
<!-- Node4&#45;&gt;Node5 -->
<g id="edge4" class="edge">
<title>Node4&#45;&gt;Node5</title>
<path fill="none" stroke="midnightblue" d="M373.64,-232.43C333.27,-219.75 279.92,-203 248.16,-193.03"/>
<polygon fill="midnightblue" stroke="midnightblue" points="372.75,-235.82 383.34,-235.48 374.85,-229.14 372.75,-235.82"/>
</g>
<!-- Node6 -->
<g id="node6" class="node">
<title>Node6</title>
<g id="a_node6"><a xlink:href="ContactListener_8cpp.html" target="_top" xlink:title=" ">
<polygon fill="none" stroke="black" points="264,-112.5 264,-131.5 428,-131.5 428,-112.5 264,-112.5"/>
<text text-anchor="middle" x="346" y="-119.5" font-family="Helvetica,sans-Serif" font-size="10.00">src/Listeners/ContactListener.cpp</text>
</a>
</g>
</g>
<!-- Node4&#45;&gt;Node6 -->
<g id="edge5" class="edge">
<title>Node4&#45;&gt;Node6</title>
<path fill="none" stroke="midnightblue" d="M372.96,-230.86C358.77,-223.28 345.2,-212.92 337,-199 324.33,-177.47 335.12,-146.58 341.75,-131.68"/>
<polygon fill="midnightblue" stroke="midnightblue" points="371.81,-234.2 382.33,-235.46 374.89,-227.91 371.81,-234.2"/>
</g>
<!-- Node7 -->
<g id="node7" class="node">
<title>Node7</title>
<g id="a_node7"><a xlink:href="ContactListener_8hpp.html" target="_top" xlink:title=" ">
<polygon fill="none" stroke="black" points="346,-174 346,-193 510,-193 510,-174 346,-174"/>
<text text-anchor="middle" x="428" y="-181" font-family="Helvetica,sans-Serif" font-size="10.00">src/Listeners/ContactListener.hpp</text>
</a>
</g>
</g>
<!-- Node4&#45;&gt;Node7 -->
<g id="edge6" class="edge">
<title>Node4&#45;&gt;Node7</title>
<path fill="none" stroke="midnightblue" d="M428,-225.25C428,-214.02 428,-201.38 428,-193.19"/>
<polygon fill="midnightblue" stroke="midnightblue" points="424.5,-225.4 428,-235.4 431.5,-225.4 424.5,-225.4"/>
</g>
<!-- Node12 -->
<g id="node12" class="node">
<title>Node12</title>
<g id="a_node12"><a xlink:href="BehaviourScriptSubsystem_8cpp.html" target="_top" xlink:title=" ">
<polygon fill="none" stroke="black" points="0,-168.5 0,-198.5 134,-198.5 134,-168.5 0,-168.5"/>
<text text-anchor="start" x="8" y="-186.5" font-family="Helvetica,sans-Serif" font-size="10.00">src/Subsystems/Behaviour</text>
<text text-anchor="middle" x="67" y="-175.5" font-family="Helvetica,sans-Serif" font-size="10.00">ScriptSubsystem.cpp</text>
</a>
</g>
</g>
<!-- Node4&#45;&gt;Node12 -->
<g id="edge12" class="edge">
<title>Node4&#45;&gt;Node12</title>
<path fill="none" stroke="midnightblue" d="M354.29,-234.9C259.34,-217.56 233.93,-215.39 143,-199 140.09,-198.48 137.12,-197.93 134.12,-197.38"/>
<polygon fill="midnightblue" stroke="midnightblue" points="353.85,-238.38 364.32,-236.74 355.12,-231.49 353.85,-238.38"/>
</g>
<!-- Node7&#45;&gt;Node6 -->
<g id="edge7" class="edge">
<title>Node7&#45;&gt;Node6</title>
<path fill="none" stroke="midnightblue" d="M407.73,-167.79C392,-156.38 370.75,-140.96 357.73,-131.51"/>
<polygon fill="midnightblue" stroke="midnightblue" points="406.1,-170.93 416.25,-173.98 410.21,-165.27 406.1,-170.93"/>
</g>
<!-- Node8 -->
<g id="node8" class="node">
<title>Node8</title>
<g id="a_node8"><a xlink:href="PhysicsSubsystem_8hpp.html" target="_top" xlink:title=" ">
<polygon fill="none" stroke="black" points="473.5,-112.5 473.5,-131.5 664.5,-131.5 664.5,-112.5 473.5,-112.5"/>
<text text-anchor="middle" x="569" y="-119.5" font-family="Helvetica,sans-Serif" font-size="10.00">src/Subsystems/PhysicsSubsystem.hpp</text>
</a>
</g>
</g>
<!-- Node7&#45;&gt;Node8 -->
<g id="edge8" class="edge">
<title>Node7&#45;&gt;Node8</title>
<path fill="none" stroke="midnightblue" d="M457.67,-169.98C485.05,-158.42 524.98,-141.58 548.84,-131.51"/>
<polygon fill="midnightblue" stroke="midnightblue" points="456.05,-166.86 448.2,-173.98 458.78,-173.31 456.05,-166.86"/>
</g>
<!-- Node9 -->
<g id="node9" class="node">
<title>Node9</title>
<g id="a_node9"><a xlink:href="PhysicsSubsystem_8cpp.html" target="_top" xlink:title=" ">
<polygon fill="none" stroke="black" points="723.5,-56.5 723.5,-75.5 914.5,-75.5 914.5,-56.5 723.5,-56.5"/>
<text text-anchor="middle" x="819" y="-63.5" font-family="Helvetica,sans-Serif" font-size="10.00">src/Subsystems/PhysicsSubsystem.cpp</text>
</a>
</g>
</g>
<!-- Node8&#45;&gt;Node9 -->
<g id="edge9" class="edge">
<title>Node8&#45;&gt;Node9</title>
<path fill="none" stroke="midnightblue" d="M618.62,-110.28C665.87,-100.08 736.04,-84.92 779.57,-75.52"/>
<polygon fill="midnightblue" stroke="midnightblue" points="617.65,-106.91 608.61,-112.44 619.13,-113.75 617.65,-106.91"/>
</g>
<!-- Node10 -->
<g id="node10" class="node">
<title>Node10</title>
<g id="a_node10"><a xlink:href="Subsystems_8hpp.html" target="_top" xlink:title=" ">
<polygon fill="none" stroke="black" points="488,-56.5 488,-75.5 650,-75.5 650,-56.5 488,-56.5"/>
<text text-anchor="middle" x="569" y="-63.5" font-family="Helvetica,sans-Serif" font-size="10.00">src/Subsystems/Subsystems.hpp</text>
</a>
</g>
</g>
<!-- Node8&#45;&gt;Node10 -->
<g id="edge10" class="edge">
<title>Node8&#45;&gt;Node10</title>
<path fill="none" stroke="midnightblue" d="M569,-101.8C569,-92.91 569,-82.78 569,-75.75"/>
<polygon fill="midnightblue" stroke="midnightblue" points="565.5,-102.08 569,-112.08 572.5,-102.08 565.5,-102.08"/>
</g>
<!-- Node11 -->
<g id="node11" class="node">
<title>Node11</title>
<g id="a_node11"><a xlink:href="Engine_8cpp.html" target="_top" xlink:title=" ">
<polygon fill="none" stroke="black" points="520,-0.5 520,-19.5 618,-19.5 618,-0.5 520,-0.5"/>
<text text-anchor="middle" x="569" y="-7.5" font-family="Helvetica,sans-Serif" font-size="10.00">src/Api/Engine.cpp</text>
</a>
</g>
</g>
<!-- Node10&#45;&gt;Node11 -->
<g id="edge11" class="edge">
<title>Node10&#45;&gt;Node11</title>
<path fill="none" stroke="midnightblue" d="M569,-45.8C569,-36.91 569,-26.78 569,-19.75"/>
<polygon fill="midnightblue" stroke="midnightblue" points="565.5,-46.08 569,-56.08 572.5,-46.08 565.5,-46.08"/>
</g>
<!-- Node13&#45;&gt;Node3 -->
<g id="edge17" class="edge">
<title>Node13&#45;&gt;Node3</title>
<path fill="none" stroke="midnightblue" d="M673.73,-230.3C655.58,-220.12 633.68,-207.85 617.12,-198.58"/>
<polygon fill="midnightblue" stroke="midnightblue" points="672.4,-233.56 682.83,-235.4 675.82,-227.45 672.4,-233.56"/>
</g>
<!-- Node13&#45;&gt;Node9 -->
<g id="edge16" class="edge">
<title>Node13&#45;&gt;Node9</title>
<path fill="none" stroke="midnightblue" d="M760.78,-231.03C775.65,-223.35 790.38,-212.89 800,-199 827.16,-159.79 822.91,-98.21 820.22,-75.65"/>
<polygon fill="midnightblue" stroke="midnightblue" points="759.05,-227.98 751.55,-235.46 762.08,-234.29 759.05,-227.98"/>
</g>
<!-- Node14 -->
<g id="node14" class="node">
<title>Node14</title>
<g id="a_node14"><a xlink:href="BoxCollider_8cpp.html" target="_top" xlink:title=" ">
<polygon fill="none" stroke="black" points="673.5,-174 673.5,-193 790.5,-193 790.5,-174 673.5,-174"/>
<text text-anchor="middle" x="732" y="-181" font-family="Helvetica,sans-Serif" font-size="10.00">src/Api/BoxCollider.cpp</text>
</a>
</g>
</g>
<!-- Node13&#45;&gt;Node14 -->
<g id="edge15" class="edge">
<title>Node13&#45;&gt;Node14</title>
<path fill="none" stroke="midnightblue" d="M716.7,-225.94C720.91,-214.54 725.71,-201.55 728.79,-193.19"/>
<polygon fill="midnightblue" stroke="midnightblue" points="713.39,-224.8 713.21,-235.4 719.95,-227.23 713.39,-224.8"/>
</g>
<!-- Node15&#45;&gt;Node3 -->
<g id="edge21" class="edge">
<title>Node15&#45;&gt;Node3</title>
<path fill="none" stroke="midnightblue" d="M808.76,-233.25C761.39,-222.6 700.07,-208.81 654.74,-198.61"/>
<polygon fill="midnightblue" stroke="midnightblue" points="808.12,-236.7 818.65,-235.48 809.66,-229.87 808.12,-236.7"/>
</g>
<!-- Node15&#45;&gt;Node9 -->
<g id="edge20" class="edge">
<title>Node15&#45;&gt;Node9</title>
<path fill="none" stroke="midnightblue" d="M943.89,-231.17C958.93,-223.68 973.17,-213.29 982,-199 989.24,-187.28 988.7,-180.04 982,-168 953.58,-116.95 887.52,-88.43 848.79,-75.54"/>
<polygon fill="midnightblue" stroke="midnightblue" points="942.11,-228.13 934.47,-235.46 945.02,-234.5 942.11,-228.13"/>
</g>
<!-- Node16 -->
<g id="node16" class="node">
<title>Node16</title>
<g id="a_node16"><a xlink:href="CircleCollider_8cpp.html" target="_top" xlink:title=" ">
<polygon fill="none" stroke="black" points="847.5,-174 847.5,-193 972.5,-193 972.5,-174 847.5,-174"/>
<text text-anchor="middle" x="910" y="-181" font-family="Helvetica,sans-Serif" font-size="10.00">src/Api/CircleCollider.cpp</text>
</a>
</g>
</g>
<!-- Node15&#45;&gt;Node16 -->
<g id="edge19" class="edge">
<title>Node15&#45;&gt;Node16</title>
<path fill="none" stroke="midnightblue" d="M891.51,-225.94C896.6,-214.54 902.4,-201.55 906.12,-193.19"/>
<polygon fill="midnightblue" stroke="midnightblue" points="888.17,-224.84 887.29,-235.4 894.56,-227.69 888.17,-224.84"/>
</g>
</g>
</svg>
