<?xml version="1.0" encoding="UTF-8" standalone="no"?>
<!DOCTYPE svg PUBLIC "-//W3C//DTD SVG 1.1//EN"
 "http://www.w3.org/Graphics/SVG/1.1/DTD/svg11.dtd">
<!-- Generated by graphviz version 2.44.0 ()
 -->
<!-- Title: includes/spic&#45;api&#45;headers/Color.hpp Pages: 1 -->
<svg width="1992pt" height="363pt"
 viewBox="0.00 0.00 1991.88 363.00" xmlns="http://www.w3.org/2000/svg" xmlns:xlink="http://www.w3.org/1999/xlink">
<g id="graph0" class="graph" transform="scale(1 1) rotate(0) translate(4 359)">
<title>includes/spic&#45;api&#45;headers/Color.hpp</title>
<!-- Node1 -->
<g id="node1" class="node">
<title>Node1</title>
<g id="a_node1"><a xlink:title=" ">
<polygon fill="#bfbfbf" stroke="black" points="1109.5,-324.5 1109.5,-354.5 1236.5,-354.5 1236.5,-324.5 1109.5,-324.5"/>
<text text-anchor="start" x="1117.5" y="-342.5" font-family="Helvetica,sans-Serif" font-size="10.00">includes/spic&#45;api&#45;headers</text>
<text text-anchor="middle" x="1173" y="-331.5" font-family="Helvetica,sans-Serif" font-size="10.00">/Color.hpp</text>
</a>
</g>
</g>
<!-- Node2 -->
<g id="node2" class="node">
<title>Node2</title>
<g id="a_node2"><a xlink:href="src_2Api_2Color_8cpp.html" target="_top" xlink:title=" ">
<polygon fill="none" stroke="black" points="614.5,-263 614.5,-282 705.5,-282 705.5,-263 614.5,-263"/>
<text text-anchor="middle" x="660" y="-270" font-family="Helvetica,sans-Serif" font-size="10.00">src/Api/Color.cpp</text>
</a>
</g>
</g>
<!-- Node1&#45;&gt;Node2 -->
<g id="edge1" class="edge">
<title>Node1&#45;&gt;Node2</title>
<path fill="none" stroke="midnightblue" d="M1099.22,-333.87C1008.1,-327.35 848.66,-313.33 714,-288 705.7,-286.44 696.81,-284.26 688.68,-282.07"/>
<polygon fill="midnightblue" stroke="midnightblue" points="1099.22,-337.38 1109.44,-334.59 1099.71,-330.39 1099.22,-337.38"/>
</g>
<!-- Node3 -->
<g id="node3" class="node">
<title>Node3</title>
<g id="a_node3"><a xlink:href="TextureManager_8hpp.html" target="_top" xlink:title=" ">
<polygon fill="none" stroke="black" points="723.5,-263 723.5,-282 890.5,-282 890.5,-263 723.5,-263"/>
<text text-anchor="middle" x="807" y="-270" font-family="Helvetica,sans-Serif" font-size="10.00">src/Managers/TextureManager.hpp</text>
</a>
</g>
</g>
<!-- Node1&#45;&gt;Node3 -->
<g id="edge2" class="edge">
<title>Node1&#45;&gt;Node3</title>
<path fill="none" stroke="midnightblue" d="M1099.22,-325.4C1026.36,-312.46 917.09,-293.05 854.87,-282"/>
<polygon fill="midnightblue" stroke="midnightblue" points="1098.79,-328.88 1109.25,-327.18 1100.01,-321.98 1098.79,-328.88"/>
</g>
<!-- Node5 -->
<g id="node5" class="node">
<title>Node5</title>
<g id="a_node5"><a xlink:href="Window_8hpp.html" target="_top" xlink:title=" ">
<polygon fill="none" stroke="black" points="708,-196 708,-215 828,-215 828,-196 708,-196"/>
<text text-anchor="middle" x="768" y="-203" font-family="Helvetica,sans-Serif" font-size="10.00">src/Models/Window.hpp</text>
</a>
</g>
</g>
<!-- Node1&#45;&gt;Node5 -->
<g id="edge18" class="edge">
<title>Node1&#45;&gt;Node5</title>
<path fill="none" stroke="midnightblue" d="M1120.3,-321.32C1032.72,-292.78 860.31,-236.59 794.44,-215.12"/>
<polygon fill="midnightblue" stroke="midnightblue" points="1119.45,-324.73 1130.04,-324.5 1121.62,-318.07 1119.45,-324.73"/>
</g>
<!-- Node16 -->
<g id="node16" class="node">
<title>Node16</title>
<g id="a_node16"><a xlink:href="Api_8hpp.html" target="_top" xlink:title=" ">
<polygon fill="none" stroke="black" points="1493.5,-123.5 1493.5,-153.5 1620.5,-153.5 1620.5,-123.5 1493.5,-123.5"/>
<text text-anchor="start" x="1501.5" y="-141.5" font-family="Helvetica,sans-Serif" font-size="10.00">includes/spic&#45;api&#45;headers</text>
<text text-anchor="middle" x="1557" y="-130.5" font-family="Helvetica,sans-Serif" font-size="10.00">/Api.hpp</text>
</a>
</g>
</g>
<!-- Node1&#45;&gt;Node16 -->
<g id="edge19" class="edge">
<title>Node1&#45;&gt;Node16</title>
<path fill="none" stroke="midnightblue" d="M1246.61,-338.35C1340.79,-336.52 1496.51,-327.4 1536,-288 1572.31,-251.77 1565.17,-183.36 1559.95,-153.75"/>
<polygon fill="midnightblue" stroke="midnightblue" points="1246.5,-334.86 1236.57,-338.53 1246.62,-341.85 1246.5,-334.86"/>
</g>
<!-- Node17 -->
<g id="node17" class="node">
<title>Node17</title>
<g id="a_node17"><a xlink:href="Camera_8hpp.html" target="_top" xlink:title=" ">
<polygon fill="none" stroke="black" points="1399.5,-257.5 1399.5,-287.5 1526.5,-287.5 1526.5,-257.5 1399.5,-257.5"/>
<text text-anchor="start" x="1407.5" y="-275.5" font-family="Helvetica,sans-Serif" font-size="10.00">includes/spic&#45;api&#45;headers</text>
<text text-anchor="middle" x="1463" y="-264.5" font-family="Helvetica,sans-Serif" font-size="10.00">/Camera.hpp</text>
</a>
</g>
</g>
<!-- Node1&#45;&gt;Node17 -->
<g id="edge20" class="edge">
<title>Node1&#45;&gt;Node17</title>
<path fill="none" stroke="midnightblue" d="M1245.49,-322.25C1293.02,-311.6 1354.56,-297.81 1400.04,-287.61"/>
<polygon fill="midnightblue" stroke="midnightblue" points="1244.56,-318.87 1235.57,-324.48 1246.09,-325.7 1244.56,-318.87"/>
</g>
<!-- Node19 -->
<g id="node19" class="node">
<title>Node19</title>
<g id="a_node19"><a xlink:href="includes_2spic-api-headers_2Color_8cpp.html" target="_top" xlink:title=" ">
<polygon fill="none" stroke="black" points="1254.5,-257.5 1254.5,-287.5 1381.5,-287.5 1381.5,-257.5 1254.5,-257.5"/>
<text text-anchor="start" x="1262.5" y="-275.5" font-family="Helvetica,sans-Serif" font-size="10.00">includes/spic&#45;api&#45;headers</text>
<text text-anchor="middle" x="1318" y="-264.5" font-family="Helvetica,sans-Serif" font-size="10.00">/Color.cpp</text>
</a>
</g>
</g>
<!-- Node1&#45;&gt;Node19 -->
<g id="edge23" class="edge">
<title>Node1&#45;&gt;Node19</title>
<path fill="none" stroke="midnightblue" d="M1213.67,-320.27C1236.76,-309.92 1265.24,-297.15 1286.6,-287.58"/>
<polygon fill="midnightblue" stroke="midnightblue" points="1212.16,-317.11 1204.46,-324.4 1215.02,-323.5 1212.16,-317.11"/>
</g>
<!-- Node20 -->
<g id="node20" class="node">
<title>Node20</title>
<g id="a_node20"><a xlink:href="Debug_8hpp.html" target="_top" xlink:title=" ">
<polygon fill="none" stroke="black" points="1011.5,-190.5 1011.5,-220.5 1138.5,-220.5 1138.5,-190.5 1011.5,-190.5"/>
<text text-anchor="start" x="1019.5" y="-208.5" font-family="Helvetica,sans-Serif" font-size="10.00">includes/spic&#45;api&#45;headers</text>
<text text-anchor="middle" x="1075" y="-197.5" font-family="Helvetica,sans-Serif" font-size="10.00">/Debug.hpp</text>
</a>
</g>
</g>
<!-- Node1&#45;&gt;Node20 -->
<g id="edge24" class="edge">
<title>Node1&#45;&gt;Node20</title>
<path fill="none" stroke="midnightblue" d="M1135.14,-319.13C1122.43,-311.02 1109.17,-300.53 1100,-288 1085.06,-267.57 1078.92,-238.07 1076.5,-220.73"/>
<polygon fill="midnightblue" stroke="midnightblue" points="1133.42,-322.19 1143.79,-324.37 1137.04,-316.2 1133.42,-322.19"/>
</g>
<!-- Node26 -->
<g id="node26" class="node">
<title>Node26</title>
<g id="a_node26"><a xlink:href="Sprite_8hpp.html" target="_top" xlink:title=" ">
<polygon fill="none" stroke="black" points="1643.5,-257.5 1643.5,-287.5 1770.5,-287.5 1770.5,-257.5 1643.5,-257.5"/>
<text text-anchor="start" x="1651.5" y="-275.5" font-family="Helvetica,sans-Serif" font-size="10.00">includes/spic&#45;api&#45;headers</text>
<text text-anchor="middle" x="1707" y="-264.5" font-family="Helvetica,sans-Serif" font-size="10.00">/Sprite.hpp</text>
</a>
</g>
</g>
<!-- Node1&#45;&gt;Node26 -->
<g id="edge32" class="edge">
<title>Node1&#45;&gt;Node26</title>
<path fill="none" stroke="midnightblue" d="M1246.85,-329.51C1352.23,-316.68 1543.96,-293.35 1643.39,-281.24"/>
<polygon fill="midnightblue" stroke="midnightblue" points="1246.12,-326.07 1236.62,-330.76 1246.97,-333.02 1246.12,-326.07"/>
</g>
<!-- Node31 -->
<g id="node31" class="node">
<title>Node31</title>
<g id="a_node31"><a xlink:href="Text_8hpp.html" target="_top" xlink:title=" ">
<polygon fill="none" stroke="black" points="1109.5,-257.5 1109.5,-287.5 1236.5,-287.5 1236.5,-257.5 1109.5,-257.5"/>
<text text-anchor="start" x="1117.5" y="-275.5" font-family="Helvetica,sans-Serif" font-size="10.00">includes/spic&#45;api&#45;headers</text>
<text text-anchor="middle" x="1173" y="-264.5" font-family="Helvetica,sans-Serif" font-size="10.00">/Text.hpp</text>
</a>
</g>
</g>
<!-- Node1&#45;&gt;Node31 -->
<g id="edge40" class="edge">
<title>Node1&#45;&gt;Node31</title>
<path fill="none" stroke="midnightblue" d="M1173,-314.11C1173,-305.15 1173,-295.32 1173,-287.58"/>
<polygon fill="midnightblue" stroke="midnightblue" points="1169.5,-314.4 1173,-324.4 1176.5,-314.4 1169.5,-314.4"/>
</g>
<!-- Node4 -->
<g id="node4" class="node">
<title>Node4</title>
<g id="a_node4"><a xlink:href="TextureManager_8cpp.html" target="_top" xlink:title=" ">
<polygon fill="none" stroke="black" points="523.5,-196 523.5,-215 690.5,-215 690.5,-196 523.5,-196"/>
<text text-anchor="middle" x="607" y="-203" font-family="Helvetica,sans-Serif" font-size="10.00">src/Managers/TextureManager.cpp</text>
</a>
</g>
</g>
<!-- Node3&#45;&gt;Node4 -->
<g id="edge3" class="edge">
<title>Node3&#45;&gt;Node4</title>
<path fill="none" stroke="midnightblue" d="M770.89,-259.77C731.27,-246.89 668.6,-226.52 633.35,-215.06"/>
<polygon fill="midnightblue" stroke="midnightblue" points="769.85,-263.11 780.44,-262.87 772.01,-256.45 769.85,-263.11"/>
</g>
<!-- Node3&#45;&gt;Node5 -->
<g id="edge4" class="edge">
<title>Node3&#45;&gt;Node5</title>
<path fill="none" stroke="midnightblue" d="M796.52,-254.03C788.97,-241.45 779.1,-225.01 773.18,-215.13"/>
<polygon fill="midnightblue" stroke="midnightblue" points="793.59,-255.96 801.74,-262.73 799.6,-252.36 793.59,-255.96"/>
</g>
<!-- Node6 -->
<g id="node6" class="node">
<title>Node6</title>
<g id="a_node6"><a xlink:href="TimeManager_8hpp.html" target="_top" xlink:title=" ">
<polygon fill="none" stroke="black" points="0,-129 0,-148 156,-148 156,-129 0,-129"/>
<text text-anchor="middle" x="78" y="-136" font-family="Helvetica,sans-Serif" font-size="10.00">src/Managers/TimeManager.hpp</text>
</a>
</g>
</g>
<!-- Node5&#45;&gt;Node6 -->
<g id="edge5" class="edge">
<title>Node5&#45;&gt;Node6</title>
<path fill="none" stroke="midnightblue" d="M722.09,-193.92C714.41,-192.42 706.5,-191.04 699,-190 463.36,-157.46 401.27,-181.59 165,-154 151.62,-152.44 137.15,-150.24 123.93,-148.02"/>
<polygon fill="midnightblue" stroke="midnightblue" points="721.5,-197.37 732,-195.94 722.9,-190.51 721.5,-197.37"/>
</g>
<!-- Node11 -->
<g id="node11" class="node">
<title>Node11</title>
<g id="a_node11"><a xlink:href="Window_8cpp.html" target="_top" xlink:title=" ">
<polygon fill="none" stroke="black" points="332,-129 332,-148 452,-148 452,-129 332,-129"/>
<text text-anchor="middle" x="392" y="-136" font-family="Helvetica,sans-Serif" font-size="10.00">src/Models/Window.cpp</text>
</a>
</g>
</g>
<!-- Node5&#45;&gt;Node11 -->
<g id="edge10" class="edge">
<title>Node5&#45;&gt;Node11</title>
<path fill="none" stroke="midnightblue" d="M719.22,-193.91C712.44,-192.54 705.55,-191.19 699,-190 595.91,-171.22 569.21,-172.08 466,-154 455.68,-152.19 444.59,-150.1 434.21,-148.07"/>
<polygon fill="midnightblue" stroke="midnightblue" points="718.53,-197.34 729.03,-195.93 719.94,-190.48 718.53,-197.34"/>
</g>
<!-- Node12 -->
<g id="node12" class="node">
<title>Node12</title>
<g id="a_node12"><a xlink:href="FpsCounterSubsystem_8hpp.html" target="_top" xlink:title=" ">
<polygon fill="none" stroke="black" points="174,-123.5 174,-153.5 314,-153.5 314,-123.5 174,-123.5"/>
<text text-anchor="start" x="182" y="-141.5" font-family="Helvetica,sans-Serif" font-size="10.00">src/Subsystems/FpsCounter</text>
<text text-anchor="middle" x="244" y="-130.5" font-family="Helvetica,sans-Serif" font-size="10.00">Subsystem.hpp</text>
</a>
</g>
</g>
<!-- Node5&#45;&gt;Node12 -->
<g id="edge11" class="edge">
<title>Node5&#45;&gt;Node12</title>
<path fill="none" stroke="midnightblue" d="M721.29,-193.95C713.86,-192.48 706.24,-191.1 699,-190 533.04,-164.7 489.27,-177.17 323,-154 320.1,-153.6 317.14,-153.16 314.16,-152.7"/>
<polygon fill="midnightblue" stroke="midnightblue" points="720.76,-197.41 731.26,-195.98 722.16,-190.55 720.76,-197.41"/>
</g>
<!-- Node14 -->
<g id="node14" class="node">
<title>Node14</title>
<g id="a_node14"><a xlink:href="RenderSubsystem_8hpp.html" target="_top" xlink:title=" ">
<polygon fill="none" stroke="black" points="508,-129 508,-148 696,-148 696,-129 508,-129"/>
<text text-anchor="middle" x="602" y="-136" font-family="Helvetica,sans-Serif" font-size="10.00">src/Subsystems/RenderSubsystem.hpp</text>
</a>
</g>
</g>
<!-- Node5&#45;&gt;Node14 -->
<g id="edge15" class="edge">
<title>Node5&#45;&gt;Node14</title>
<path fill="none" stroke="midnightblue" d="M736.34,-192.1C703.38,-179.2 652.64,-159.33 623.87,-148.06"/>
<polygon fill="midnightblue" stroke="midnightblue" points="735.37,-195.48 745.96,-195.87 737.92,-188.96 735.37,-195.48"/>
</g>
<!-- Node7 -->
<g id="node7" class="node">
<title>Node7</title>
<g id="a_node7"><a xlink:href="Engine_8cpp.html" target="_top" xlink:title=" ">
<polygon fill="none" stroke="black" points="247,-0.5 247,-19.5 345,-19.5 345,-0.5 247,-0.5"/>
<text text-anchor="middle" x="296" y="-7.5" font-family="Helvetica,sans-Serif" font-size="10.00">src/Api/Engine.cpp</text>
</a>
</g>
</g>
<!-- Node6&#45;&gt;Node7 -->
<g id="edge6" class="edge">
<title>Node6&#45;&gt;Node7</title>
<path fill="none" stroke="midnightblue" d="M61.24,-121.57C44.81,-104.04 24.46,-75.72 41,-56 66.75,-25.31 180.27,-15.54 246.85,-12.44"/>
<polygon fill="midnightblue" stroke="midnightblue" points="58.85,-124.14 68.37,-128.8 63.84,-119.22 58.85,-124.14"/>
</g>
<!-- Node8 -->
<g id="node8" class="node">
<title>Node8</title>
<g id="a_node8"><a xlink:href="src_2Api_2Time_8cpp.html" target="_top" xlink:title=" ">
<polygon fill="none" stroke="black" points="50,-62 50,-81 140,-81 140,-62 50,-62"/>
<text text-anchor="middle" x="95" y="-69" font-family="Helvetica,sans-Serif" font-size="10.00">src/Api/Time.cpp</text>
</a>
</g>
</g>
<!-- Node6&#45;&gt;Node8 -->
<g id="edge7" class="edge">
<title>Node6&#45;&gt;Node8</title>
<path fill="none" stroke="midnightblue" d="M82.86,-118.91C86.11,-106.49 90.24,-90.72 92.74,-81.13"/>
<polygon fill="midnightblue" stroke="midnightblue" points="79.44,-118.17 80.29,-128.73 86.21,-119.94 79.44,-118.17"/>
</g>
<!-- Node9 -->
<g id="node9" class="node">
<title>Node9</title>
<g id="a_node9"><a xlink:href="TimeManager_8cpp.html" target="_top" xlink:title=" ">
<polygon fill="none" stroke="black" points="316,-62 316,-81 472,-81 472,-62 316,-62"/>
<text text-anchor="middle" x="394" y="-69" font-family="Helvetica,sans-Serif" font-size="10.00">src/Managers/TimeManager.cpp</text>
</a>
</g>
</g>
<!-- Node6&#45;&gt;Node9 -->
<g id="edge8" class="edge">
<title>Node6&#45;&gt;Node9</title>
<path fill="none" stroke="midnightblue" d="M129.63,-126.88C191.87,-114.08 295.22,-92.82 352.52,-81.03"/>
<polygon fill="midnightblue" stroke="midnightblue" points="128.73,-123.49 119.64,-128.94 130.14,-130.35 128.73,-123.49"/>
</g>
<!-- Node10 -->
<g id="node10" class="node">
<title>Node10</title>
<g id="a_node10"><a xlink:href="FpsCounterSubsystem_8cpp.html" target="_top" xlink:title=" ">
<polygon fill="none" stroke="black" points="158,-56.5 158,-86.5 298,-86.5 298,-56.5 158,-56.5"/>
<text text-anchor="start" x="166" y="-74.5" font-family="Helvetica,sans-Serif" font-size="10.00">src/Subsystems/FpsCounter</text>
<text text-anchor="middle" x="228" y="-63.5" font-family="Helvetica,sans-Serif" font-size="10.00">Subsystem.cpp</text>
</a>
</g>
</g>
<!-- Node6&#45;&gt;Node10 -->
<g id="edge9" class="edge">
<title>Node6&#45;&gt;Node10</title>
<path fill="none" stroke="midnightblue" d="M107.38,-124.77C132.77,-113.77 169.4,-97.89 195.63,-86.53"/>
<polygon fill="midnightblue" stroke="midnightblue" points="105.7,-121.68 97.92,-128.87 108.49,-128.1 105.7,-121.68"/>
</g>
<!-- Node12&#45;&gt;Node10 -->
<g id="edge12" class="edge">
<title>Node12&#45;&gt;Node10</title>
<path fill="none" stroke="midnightblue" d="M238.07,-113.4C235.84,-104.37 233.39,-94.41 231.46,-86.58"/>
<polygon fill="midnightblue" stroke="midnightblue" points="234.74,-114.52 240.53,-123.4 241.54,-112.85 234.74,-114.52"/>
</g>
<!-- Node13 -->
<g id="node13" class="node">
<title>Node13</title>
<g id="a_node13"><a xlink:href="Subsystems_8hpp.html" target="_top" xlink:title=" ">
<polygon fill="none" stroke="black" points="490,-62 490,-81 652,-81 652,-62 490,-62"/>
<text text-anchor="middle" x="571" y="-69" font-family="Helvetica,sans-Serif" font-size="10.00">src/Subsystems/Subsystems.hpp</text>
</a>
</g>
</g>
<!-- Node12&#45;&gt;Node13 -->
<g id="edge13" class="edge">
<title>Node12&#45;&gt;Node13</title>
<path fill="none" stroke="midnightblue" d="M324.26,-121.55C388.57,-108.76 476.32,-91.32 527.99,-81.05"/>
<polygon fill="midnightblue" stroke="midnightblue" points="323.28,-118.17 314.15,-123.56 324.64,-125.04 323.28,-118.17"/>
</g>
<!-- Node13&#45;&gt;Node7 -->
<g id="edge14" class="edge">
<title>Node13&#45;&gt;Node7</title>
<path fill="none" stroke="midnightblue" d="M521.69,-59.83C468.36,-48.29 384.41,-30.13 335.33,-19.51"/>
<polygon fill="midnightblue" stroke="midnightblue" points="521.09,-63.28 531.6,-61.98 522.57,-56.44 521.09,-63.28"/>
</g>
<!-- Node14&#45;&gt;Node13 -->
<g id="edge17" class="edge">
<title>Node14&#45;&gt;Node13</title>
<path fill="none" stroke="midnightblue" d="M593.49,-119.66C587.51,-107.13 579.78,-90.91 575.11,-81.13"/>
<polygon fill="midnightblue" stroke="midnightblue" points="590.36,-121.21 597.82,-128.73 596.67,-118.2 590.36,-121.21"/>
</g>
<!-- Node15 -->
<g id="node15" class="node">
<title>Node15</title>
<g id="a_node15"><a xlink:href="RenderSubsystem_8cpp.html" target="_top" xlink:title=" ">
<polygon fill="none" stroke="black" points="1371,-62 1371,-81 1559,-81 1559,-62 1371,-62"/>
<text text-anchor="middle" x="1465" y="-69" font-family="Helvetica,sans-Serif" font-size="10.00">src/Subsystems/RenderSubsystem.cpp</text>
</a>
</g>
</g>
<!-- Node14&#45;&gt;Node15 -->
<g id="edge16" class="edge">
<title>Node14&#45;&gt;Node15</title>
<path fill="none" stroke="midnightblue" d="M666.94,-127.62C679.54,-125.91 692.67,-124.28 705,-123 944.23,-98.25 1227.14,-83.18 1370.91,-76.52"/>
<polygon fill="midnightblue" stroke="midnightblue" points="666.39,-124.16 656.97,-129 667.35,-131.1 666.39,-124.16"/>
</g>
<!-- Node17&#45;&gt;Node16 -->
<g id="edge22" class="edge">
<title>Node17&#45;&gt;Node16</title>
<path fill="none" stroke="midnightblue" d="M1479.5,-249.2C1485.94,-240.44 1493.36,-230.28 1500,-221 1516.79,-197.55 1535.93,-170.02 1547.21,-153.7"/>
<polygon fill="midnightblue" stroke="midnightblue" points="1476.56,-247.28 1473.45,-257.41 1482.2,-251.44 1476.56,-247.28"/>
</g>
<!-- Node18 -->
<g id="node18" class="node">
<title>Node18</title>
<g id="a_node18"><a xlink:href="Camera_8cpp.html" target="_top" xlink:title=" ">
<polygon fill="none" stroke="black" points="1389,-196 1389,-215 1491,-215 1491,-196 1389,-196"/>
<text text-anchor="middle" x="1440" y="-203" font-family="Helvetica,sans-Serif" font-size="10.00">src/Api/Camera.cpp</text>
</a>
</g>
</g>
<!-- Node17&#45;&gt;Node18 -->
<g id="edge21" class="edge">
<title>Node17&#45;&gt;Node18</title>
<path fill="none" stroke="midnightblue" d="M1454.66,-247.94C1450.63,-236.54 1446.03,-223.55 1443.08,-215.19"/>
<polygon fill="midnightblue" stroke="midnightblue" points="1451.37,-249.14 1458.01,-257.4 1457.97,-246.8 1451.37,-249.14"/>
</g>
<!-- Node20&#45;&gt;Node9 -->
<g id="edge27" class="edge">
<title>Node20&#45;&gt;Node9</title>
<path fill="none" stroke="midnightblue" d="M1001.19,-199.19C850.97,-188.22 521.91,-163.31 499,-154 478.81,-145.8 478.15,-136.45 461,-123 441.97,-108.08 419.45,-91.27 405.97,-81.3"/>
<polygon fill="midnightblue" stroke="midnightblue" points="1001.03,-202.69 1011.25,-199.92 1001.53,-195.7 1001.03,-202.69"/>
</g>
<!-- Node20&#45;&gt;Node16 -->
<g id="edge31" class="edge">
<title>Node20&#45;&gt;Node16</title>
<path fill="none" stroke="midnightblue" d="M1148.52,-194.58C1242.66,-181.89 1404.24,-160.1 1493.35,-148.08"/>
<polygon fill="midnightblue" stroke="midnightblue" points="1147.95,-191.13 1138.51,-195.94 1148.89,-198.07 1147.95,-191.13"/>
</g>
<!-- Node21 -->
<g id="node21" class="node">
<title>Node21</title>
<g id="a_node21"><a xlink:href="Debug_8cpp.html" target="_top" xlink:title=" ">
<polygon fill="none" stroke="black" points="1164,-129 1164,-148 1260,-148 1260,-129 1164,-129"/>
<text text-anchor="middle" x="1212" y="-136" font-family="Helvetica,sans-Serif" font-size="10.00">src/Api/Debug.cpp</text>
</a>
</g>
</g>
<!-- Node20&#45;&gt;Node21 -->
<g id="edge25" class="edge">
<title>Node20&#45;&gt;Node21</title>
<path fill="none" stroke="midnightblue" d="M1114.06,-185.97C1140.38,-173.48 1173.86,-157.6 1194.07,-148.01"/>
<polygon fill="midnightblue" stroke="midnightblue" points="1112.26,-182.95 1104.73,-190.4 1115.26,-189.27 1112.26,-182.95"/>
</g>
<!-- Node22 -->
<g id="node22" class="node">
<title>Node22</title>
<g id="a_node22"><a xlink:href="AudioManager_8cpp.html" target="_top" xlink:title=" ">
<polygon fill="none" stroke="black" points="1278.5,-129 1278.5,-148 1437.5,-148 1437.5,-129 1278.5,-129"/>
<text text-anchor="middle" x="1358" y="-136" font-family="Helvetica,sans-Serif" font-size="10.00">src/Managers/AudioManager.cpp</text>
</a>
</g>
</g>
<!-- Node20&#45;&gt;Node22 -->
<g id="edge26" class="edge">
<title>Node20&#45;&gt;Node22</title>
<path fill="none" stroke="midnightblue" d="M1145.84,-188.23C1201.41,-175.47 1276.53,-158.21 1320.87,-148.03"/>
<polygon fill="midnightblue" stroke="midnightblue" points="1145.02,-184.83 1136.06,-190.48 1146.59,-191.65 1145.02,-184.83"/>
</g>
<!-- Node23 -->
<g id="node23" class="node">
<title>Node23</title>
<g id="a_node23"><a xlink:href="Texture_8cpp.html" target="_top" xlink:title=" ">
<polygon fill="none" stroke="black" points="714,-129 714,-148 832,-148 832,-129 714,-129"/>
<text text-anchor="middle" x="773" y="-136" font-family="Helvetica,sans-Serif" font-size="10.00">src/Models/Texture.cpp</text>
</a>
</g>
</g>
<!-- Node20&#45;&gt;Node23 -->
<g id="edge28" class="edge">
<title>Node20&#45;&gt;Node23</title>
<path fill="none" stroke="midnightblue" d="M1001.23,-188.62C941.75,-175.82 860.39,-158.31 812.59,-148.02"/>
<polygon fill="midnightblue" stroke="midnightblue" points="1000.81,-192.11 1011.32,-190.79 1002.28,-185.27 1000.81,-192.11"/>
</g>
<!-- Node24 -->
<g id="node24" class="node">
<title>Node24</title>
<g id="a_node24"><a xlink:href="BehaviourScriptSubsystem_8cpp.html" target="_top" xlink:title=" ">
<polygon fill="none" stroke="black" points="850,-123.5 850,-153.5 984,-153.5 984,-123.5 850,-123.5"/>
<text text-anchor="start" x="858" y="-141.5" font-family="Helvetica,sans-Serif" font-size="10.00">src/Subsystems/Behaviour</text>
<text text-anchor="middle" x="917" y="-130.5" font-family="Helvetica,sans-Serif" font-size="10.00">ScriptSubsystem.cpp</text>
</a>
</g>
</g>
<!-- Node20&#45;&gt;Node24 -->
<g id="edge29" class="edge">
<title>Node20&#45;&gt;Node24</title>
<path fill="none" stroke="midnightblue" d="M1031.35,-186.54C1006.07,-176.14 974.7,-163.24 951.22,-153.58"/>
<polygon fill="midnightblue" stroke="midnightblue" points="1030.14,-189.83 1040.72,-190.4 1032.8,-183.35 1030.14,-189.83"/>
</g>
<!-- Node25 -->
<g id="node25" class="node">
<title>Node25</title>
<g id="a_node25"><a xlink:href="GameSpeedSubsystem_8cpp.html" target="_top" xlink:title=" ">
<polygon fill="none" stroke="black" points="1002,-123.5 1002,-153.5 1146,-153.5 1146,-123.5 1002,-123.5"/>
<text text-anchor="start" x="1010" y="-141.5" font-family="Helvetica,sans-Serif" font-size="10.00">src/Subsystems/GameSpeed</text>
<text text-anchor="middle" x="1074" y="-130.5" font-family="Helvetica,sans-Serif" font-size="10.00">Subsystem.cpp</text>
</a>
</g>
</g>
<!-- Node20&#45;&gt;Node25 -->
<g id="edge30" class="edge">
<title>Node20&#45;&gt;Node25</title>
<path fill="none" stroke="midnightblue" d="M1074.62,-180.11C1074.49,-171.15 1074.34,-161.32 1074.22,-153.58"/>
<polygon fill="midnightblue" stroke="midnightblue" points="1071.13,-180.45 1074.78,-190.4 1078.13,-180.34 1071.13,-180.45"/>
</g>
<!-- Node26&#45;&gt;Node15 -->
<g id="edge34" class="edge">
<title>Node26&#45;&gt;Node15</title>
<path fill="none" stroke="midnightblue" d="M1780.73,-258.15C1878.51,-237.4 2031.83,-192.44 1969,-123 1942.08,-93.25 1697.4,-80.25 1559.12,-75.24"/>
<polygon fill="midnightblue" stroke="midnightblue" points="1779.94,-254.74 1770.86,-260.2 1781.37,-261.59 1779.94,-254.74"/>
</g>
<!-- Node26&#45;&gt;Node16 -->
<g id="edge39" class="edge">
<title>Node26&#45;&gt;Node16</title>
<path fill="none" stroke="midnightblue" d="M1707.14,-247.14C1705.98,-229.36 1701.66,-205.7 1688,-190 1676.92,-177.27 1639.49,-163.53 1607.46,-153.6"/>
<polygon fill="midnightblue" stroke="midnightblue" points="1703.65,-247.47 1707.51,-257.33 1710.64,-247.21 1703.65,-247.47"/>
</g>
<!-- Node27 -->
<g id="node27" class="node">
<title>Node27</title>
<g id="a_node27"><a xlink:href="Sprite_8cpp.html" target="_top" xlink:title=" ">
<polygon fill="none" stroke="black" points="1585,-196 1585,-215 1679,-215 1679,-196 1585,-196"/>
<text text-anchor="middle" x="1632" y="-203" font-family="Helvetica,sans-Serif" font-size="10.00">src/Api/Sprite.cpp</text>
</a>
</g>
</g>
<!-- Node26&#45;&gt;Node27 -->
<g id="edge33" class="edge">
<title>Node26&#45;&gt;Node27</title>
<path fill="none" stroke="midnightblue" d="M1682.97,-250.67C1669.12,-238.67 1652.45,-224.22 1642.03,-215.19"/>
<polygon fill="midnightblue" stroke="midnightblue" points="1680.88,-253.49 1690.73,-257.4 1685.46,-248.2 1680.88,-253.49"/>
</g>
<!-- Node28 -->
<g id="node28" class="node">
<title>Node28</title>
<g id="a_node28"><a xlink:href="Animator_8hpp.html" target="_top" xlink:title=" ">
<polygon fill="none" stroke="black" points="1735.5,-190.5 1735.5,-220.5 1862.5,-220.5 1862.5,-190.5 1735.5,-190.5"/>
<text text-anchor="start" x="1743.5" y="-208.5" font-family="Helvetica,sans-Serif" font-size="10.00">includes/spic&#45;api&#45;headers</text>
<text text-anchor="middle" x="1799" y="-197.5" font-family="Helvetica,sans-Serif" font-size="10.00">/Animator.hpp</text>
</a>
</g>
</g>
<!-- Node26&#45;&gt;Node28 -->
<g id="edge35" class="edge">
<title>Node26&#45;&gt;Node28</title>
<path fill="none" stroke="midnightblue" d="M1735.38,-251.45C1749.53,-241.45 1766.31,-229.6 1779.08,-220.58"/>
<polygon fill="midnightblue" stroke="midnightblue" points="1733.11,-248.77 1726.96,-257.4 1737.15,-254.48 1733.11,-248.77"/>
</g>
<!-- Node28&#45;&gt;Node16 -->
<g id="edge38" class="edge">
<title>Node28&#45;&gt;Node16</title>
<path fill="none" stroke="midnightblue" d="M1737.01,-187.85C1697.55,-177.25 1647.01,-163.68 1609.54,-153.61"/>
<polygon fill="midnightblue" stroke="midnightblue" points="1736.22,-191.26 1746.79,-190.48 1738.04,-184.5 1736.22,-191.26"/>
</g>
<!-- Node29 -->
<g id="node29" class="node">
<title>Node29</title>
<g id="a_node29"><a xlink:href="Animator_8cpp.html" target="_top" xlink:title=" ">
<polygon fill="none" stroke="black" points="1852.5,-129 1852.5,-148 1959.5,-148 1959.5,-129 1852.5,-129"/>
<text text-anchor="middle" x="1906" y="-136" font-family="Helvetica,sans-Serif" font-size="10.00">src/Api/Animator.cpp</text>
</a>
</g>
</g>
<!-- Node28&#45;&gt;Node29 -->
<g id="edge36" class="edge">
<title>Node28&#45;&gt;Node29</title>
<path fill="none" stroke="midnightblue" d="M1830.87,-185.14C1851.2,-172.79 1876.55,-157.39 1892,-148.01"/>
<polygon fill="midnightblue" stroke="midnightblue" points="1828.95,-182.21 1822.22,-190.4 1832.58,-188.2 1828.95,-182.21"/>
</g>
<!-- Node30 -->
<g id="node30" class="node">
<title>Node30</title>
<g id="a_node30"><a xlink:href="AnimatorSubsystem_8cpp.html" target="_top" xlink:title=" ">
<polygon fill="none" stroke="black" points="1639,-129 1639,-148 1835,-148 1835,-129 1639,-129"/>
<text text-anchor="middle" x="1737" y="-136" font-family="Helvetica,sans-Serif" font-size="10.00">src/Subsystems/AnimatorSubsystem.cpp</text>
</a>
</g>
</g>
<!-- Node28&#45;&gt;Node30 -->
<g id="edge37" class="edge">
<title>Node28&#45;&gt;Node30</title>
<path fill="none" stroke="midnightblue" d="M1778.49,-183C1767.17,-171.13 1753.74,-157.05 1745.29,-148.19"/>
<polygon fill="midnightblue" stroke="midnightblue" points="1776.11,-185.58 1785.55,-190.4 1781.18,-180.74 1776.11,-185.58"/>
</g>
<!-- Node31&#45;&gt;Node5 -->
<g id="edge42" class="edge">
<title>Node31&#45;&gt;Node5</title>
<path fill="none" stroke="midnightblue" d="M1099.22,-259.66C1018.81,-246.75 892.16,-226.43 821.03,-215.01"/>
<polygon fill="midnightblue" stroke="midnightblue" points="1098.84,-263.14 1109.27,-261.27 1099.95,-256.23 1098.84,-263.14"/>
</g>
<!-- Node31&#45;&gt;Node15 -->
<g id="edge43" class="edge">
<title>Node31&#45;&gt;Node15</title>
<path fill="none" stroke="midnightblue" d="M1183.54,-248.21C1193.33,-229.38 1209.76,-203.8 1232,-190 1313.95,-139.14 1375.71,-220.04 1446,-154 1466.54,-134.7 1466.86,-97.85 1465.81,-81.13"/>
<polygon fill="midnightblue" stroke="midnightblue" points="1180.32,-246.83 1179.03,-257.35 1186.6,-249.93 1180.32,-246.83"/>
</g>
<!-- Node31&#45;&gt;Node16 -->
<g id="edge44" class="edge">
<title>Node31&#45;&gt;Node16</title>
<path fill="none" stroke="midnightblue" d="M1197.71,-250.48C1224.75,-227.65 1265.4,-193.91 1274,-190 1358.22,-151.74 1387.97,-170.45 1479,-154 1483.61,-153.17 1488.37,-152.3 1493.16,-151.42"/>
<polygon fill="midnightblue" stroke="midnightblue" points="1195.18,-248.03 1189.81,-257.17 1199.7,-253.38 1195.18,-248.03"/>
</g>
<!-- Node32 -->
<g id="node32" class="node">
<title>Node32</title>
<g id="a_node32"><a xlink:href="Text_8cpp.html" target="_top" xlink:title=" ">
<polygon fill="none" stroke="black" points="1283.5,-196 1283.5,-215 1370.5,-215 1370.5,-196 1283.5,-196"/>
<text text-anchor="middle" x="1327" y="-203" font-family="Helvetica,sans-Serif" font-size="10.00">src/Api/Text.cpp</text>
</a>
</g>
</g>
<!-- Node31&#45;&gt;Node32 -->
<g id="edge41" class="edge">
<title>Node31&#45;&gt;Node32</title>
<path fill="none" stroke="midnightblue" d="M1215.74,-253.46C1245.5,-240.9 1283.82,-224.72 1306.84,-215.01"/>
<polygon fill="midnightblue" stroke="midnightblue" points="1214.27,-250.28 1206.42,-257.4 1216.99,-256.73 1214.27,-250.28"/>
</g>
</g>
</svg>
