<?xml version="1.0" encoding="UTF-8" standalone="no"?>
<!DOCTYPE svg PUBLIC "-//W3C//DTD SVG 1.1//EN"
 "http://www.w3.org/Graphics/SVG/1.1/DTD/svg11.dtd">
<!-- Generated by graphviz version 2.44.0 ()
 -->
<!-- Title: includes/spic&#45;api&#45;headers/Color.hpp Pages: 1 -->
<!--zoomable 363 -->
<svg id="main" version="1.1" xmlns="http://www.w3.org/2000/svg" xmlns:xlink="http://www.w3.org/1999/xlink" xml:space="preserve" onload="init(evt)">
<style type="text/css"><![CDATA[
.edge:hover path { stroke: red; }
.edge:hover polygon { stroke: red; fill: red; }
]]></style>
<script type="text/javascript"><![CDATA[
var edges = document.getElementsByTagName('g');
if (edges && edges.length) {
  for (var i=0;i<edges.length;i++) {
    if (edges[i].id.substr(0,4)=='edge') {
      edges[i].setAttribute('class','edge');
    }
  }
}
]]></script>
        <defs>
                <circle id="rim" cx="0" cy="0" r="7"/>
                <circle id="rim2" cx="0" cy="0" r="3.5"/>
                <g id="zoomPlus">
                        <use xlink:href="#rim" fill="#404040">
                                <set attributeName="fill" to="#808080" begin="zoomplus.mouseover" end="zoomplus.mouseout"/>
                        </use>
                        <path d="M-4,0h8M0,-4v8" fill="none" stroke="white" stroke-width="1.5" pointer-events="none"/>
                </g>
                <g id="zoomMin">
                        <use xlink:href="#rim" fill="#404040">
                                <set attributeName="fill" to="#808080" begin="zoomminus.mouseover" end="zoomminus.mouseout"/>
                        </use>
                        <path d="M-4,0h8" fill="none" stroke="white" stroke-width="1.5" pointer-events="none"/>
                </g>
                <g id="dirArrow">
                        <path fill="none" stroke="white" stroke-width="1.5" d="M0,-3.0v7 M-2.5,-0.5L0,-3.0L2.5,-0.5"/>
                </g>
               <g id="resetDef">
                       <use xlink:href="#rim2" fill="#404040">
                               <set attributeName="fill" to="#808080" begin="reset.mouseover" end="reset.mouseout"/>
                       </use>
               </g>
        </defs>

<script type="text/javascript">
var viewWidth = 2695;
var viewHeight = 363;
var sectionId = 'dynsection-0';
</script>
<script xlink:href="svgpan.js"/>
<svg id="graph" class="graph">
<g id="viewport">
<title>includes/spic&#45;api&#45;headers/Color.hpp</title>
<!-- Node1 -->
<g id="node1" class="node">
<title>Node1</title>
<g id="a_node1"><a xlink:title=" ">
<polygon fill="#bfbfbf" stroke="black" points="1101.5,-324.5 1101.5,-354.5 1228.5,-354.5 1228.5,-324.5 1101.5,-324.5"/>
<text text-anchor="start" x="1109.5" y="-342.5" font-family="Helvetica,sans-Serif" font-size="10.00">includes/spic&#45;api&#45;headers</text>
<text text-anchor="middle" x="1165" y="-331.5" font-family="Helvetica,sans-Serif" font-size="10.00">/Color.hpp</text>
</a>
</g>
</g>
<!-- Node2 -->
<g id="node2" class="node">
<title>Node2</title>
<g id="a_node2"><a xlink:href="src_2Api_2Color_8cpp.html" target="_top" xlink:title=" ">
<polygon fill="none" stroke="black" points="516.5,-263 516.5,-282 607.5,-282 607.5,-263 516.5,-263"/>
<text text-anchor="middle" x="562" y="-270" font-family="Helvetica,sans-Serif" font-size="10.00">src/Api/Color.cpp</text>
</a>
</g>
</g>
<!-- Node1&#45;&gt;Node2 -->
<g id="edge1" class="edge">
<title>Node1&#45;&gt;Node2</title>
<path fill="none" stroke="midnightblue" d="M1090.86,-335.69C984.86,-330.78 784.23,-318.1 616,-288 607.5,-286.48 598.38,-284.26 590.1,-282.02"/>
<polygon fill="midnightblue" stroke="midnightblue" points="1090.98,-339.2 1101.13,-336.16 1091.29,-332.21 1090.98,-339.2"/>
</g>
<!-- Node3 -->
<g id="node3" class="node">
<title>Node3</title>
<g id="a_node3"><a xlink:href="TextureManager_8hpp.html" target="_top" xlink:title=" ">
<polygon fill="none" stroke="black" points="625.5,-263 625.5,-282 792.5,-282 792.5,-263 625.5,-263"/>
<text text-anchor="middle" x="709" y="-270" font-family="Helvetica,sans-Serif" font-size="10.00">src/Managers/TextureManager.hpp</text>
</a>
</g>
</g>
<!-- Node1&#45;&gt;Node3 -->
<g id="edge2" class="edge">
<title>Node1&#45;&gt;Node3</title>
<path fill="none" stroke="midnightblue" d="M1091.01,-327.95C1001.25,-315.16 851.67,-293.84 768.83,-282.03"/>
<polygon fill="midnightblue" stroke="midnightblue" points="1090.72,-331.45 1101.12,-329.39 1091.71,-324.52 1090.72,-331.45"/>
</g>
<!-- Node5 -->
<g id="node5" class="node">
<title>Node5</title>
<g id="a_node5"><a xlink:href="Window_8hpp.html" target="_top" xlink:title=" ">
<polygon fill="none" stroke="black" points="615,-196 615,-215 735,-215 735,-196 615,-196"/>
<text text-anchor="middle" x="675" y="-203" font-family="Helvetica,sans-Serif" font-size="10.00">src/Models/Window.hpp</text>
</a>
</g>
</g>
<!-- Node1&#45;&gt;Node5 -->
<g id="edge18" class="edge">
<title>Node1&#45;&gt;Node5</title>
<path fill="none" stroke="midnightblue" d="M1103.15,-321.84C997.67,-293.42 786.64,-236.57 706.69,-215.04"/>
<polygon fill="midnightblue" stroke="midnightblue" points="1102.46,-325.28 1113.03,-324.5 1104.28,-318.52 1102.46,-325.28"/>
</g>
<!-- Node16 -->
<g id="node16" class="node">
<title>Node16</title>
<g id="a_node16"><a xlink:href="DebugLines_8hpp.html" target="_top" xlink:title=" ">
<polygon fill="none" stroke="black" points="1046.5,-196 1046.5,-215 1183.5,-215 1183.5,-196 1046.5,-196"/>
<text text-anchor="middle" x="1115" y="-203" font-family="Helvetica,sans-Serif" font-size="10.00">src/Structs/DebugLines.hpp</text>
</a>
</g>
</g>
<!-- Node1&#45;&gt;Node16 -->
<g id="edge19" class="edge">
<title>Node1&#45;&gt;Node16</title>
<path fill="none" stroke="midnightblue" d="M1152.53,-315.29C1148.25,-306.84 1143.63,-297.11 1140,-288 1129.71,-262.15 1121.05,-230.31 1117.18,-215.22"/>
<polygon fill="midnightblue" stroke="midnightblue" points="1149.43,-316.93 1157.14,-324.2 1155.65,-313.71 1149.43,-316.93"/>
</g>
<!-- Node19 -->
<g id="node19" class="node">
<title>Node19</title>
<g id="a_node19"><a xlink:href="Api_8hpp.html" target="_top" xlink:title=" ">
<polygon fill="none" stroke="black" points="1240.5,-123.5 1240.5,-153.5 1367.5,-153.5 1367.5,-123.5 1240.5,-123.5"/>
<text text-anchor="start" x="1248.5" y="-141.5" font-family="Helvetica,sans-Serif" font-size="10.00">includes/spic&#45;api&#45;headers</text>
<text text-anchor="middle" x="1304" y="-130.5" font-family="Helvetica,sans-Serif" font-size="10.00">/Api.hpp</text>
</a>
</g>
</g>
<!-- Node1&#45;&gt;Node19 -->
<g id="edge23" class="edge">
<title>Node1&#45;&gt;Node19</title>
<path fill="none" stroke="midnightblue" d="M1235.5,-321.39C1285.42,-304.98 1348.11,-274.55 1375,-221 1381.18,-208.69 1381.32,-202.24 1375,-190 1366.75,-174 1350.83,-161.97 1336.15,-153.66"/>
<polygon fill="midnightblue" stroke="midnightblue" points="1234.18,-318.13 1225.7,-324.48 1236.29,-324.81 1234.18,-318.13"/>
</g>
<!-- Node20 -->
<g id="node20" class="node">
<title>Node20</title>
<g id="a_node20"><a xlink:href="Camera_8hpp.html" target="_top" xlink:title=" ">
<polygon fill="none" stroke="black" points="848.5,-190.5 848.5,-220.5 975.5,-220.5 975.5,-190.5 848.5,-190.5"/>
<text text-anchor="start" x="856.5" y="-208.5" font-family="Helvetica,sans-Serif" font-size="10.00">includes/spic&#45;api&#45;headers</text>
<text text-anchor="middle" x="912" y="-197.5" font-family="Helvetica,sans-Serif" font-size="10.00">/Camera.hpp</text>
</a>
</g>
</g>
<!-- Node1&#45;&gt;Node20 -->
<g id="edge24" class="edge">
<title>Node1&#45;&gt;Node20</title>
<path fill="none" stroke="midnightblue" d="M1128.84,-319.63C1077.48,-292.84 984.59,-244.37 938.88,-220.52"/>
<polygon fill="midnightblue" stroke="midnightblue" points="1127.44,-322.85 1137.92,-324.37 1130.68,-316.64 1127.44,-322.85"/>
</g>
<!-- Node23 -->
<g id="node23" class="node">
<title>Node23</title>
<g id="a_node23"><a xlink:href="includes_2spic-api-headers_2Color_8cpp.html" target="_top" xlink:title=" ">
<polygon fill="none" stroke="black" points="1644.5,-257.5 1644.5,-287.5 1771.5,-287.5 1771.5,-257.5 1644.5,-257.5"/>
<text text-anchor="start" x="1652.5" y="-275.5" font-family="Helvetica,sans-Serif" font-size="10.00">includes/spic&#45;api&#45;headers</text>
<text text-anchor="middle" x="1708" y="-264.5" font-family="Helvetica,sans-Serif" font-size="10.00">/Color.cpp</text>
</a>
</g>
</g>
<!-- Node1&#45;&gt;Node23 -->
<g id="edge29" class="edge">
<title>Node1&#45;&gt;Node23</title>
<path fill="none" stroke="midnightblue" d="M1238.78,-332.22C1330.68,-324.01 1492.36,-308.24 1630,-288 1634.63,-287.32 1639.41,-286.56 1644.21,-285.76"/>
<polygon fill="midnightblue" stroke="midnightblue" points="1238.4,-328.74 1228.75,-333.12 1239.02,-335.72 1238.4,-328.74"/>
</g>
<!-- Node24 -->
<g id="node24" class="node">
<title>Node24</title>
<g id="a_node24"><a xlink:href="Debug_8hpp.html" target="_top" xlink:title=" ">
<polygon fill="none" stroke="black" points="2121.5,-190.5 2121.5,-220.5 2248.5,-220.5 2248.5,-190.5 2121.5,-190.5"/>
<text text-anchor="start" x="2129.5" y="-208.5" font-family="Helvetica,sans-Serif" font-size="10.00">includes/spic&#45;api&#45;headers</text>
<text text-anchor="middle" x="2185" y="-197.5" font-family="Helvetica,sans-Serif" font-size="10.00">/Debug.hpp</text>
</a>
</g>
</g>
<!-- Node1&#45;&gt;Node24 -->
<g id="edge30" class="edge">
<title>Node1&#45;&gt;Node24</title>
<path fill="none" stroke="midnightblue" d="M1239.16,-334.74C1345.14,-328.53 1534.08,-314.16 1597,-288 1617.45,-279.5 1615.42,-265.16 1636,-257 1725.35,-221.58 1971.4,-230.86 2067,-221 2084.66,-219.18 2103.77,-216.94 2121.36,-214.78"/>
<polygon fill="midnightblue" stroke="midnightblue" points="1238.64,-331.26 1228.86,-335.33 1239.04,-338.25 1238.64,-331.26"/>
</g>
<!-- Node29 -->
<g id="node29" class="node">
<title>Node29</title>
<g id="a_node29"><a xlink:href="Sprite_8hpp.html" target="_top" xlink:title=" ">
<polygon fill="none" stroke="black" points="1460.5,-257.5 1460.5,-287.5 1587.5,-287.5 1587.5,-257.5 1460.5,-257.5"/>
<text text-anchor="start" x="1468.5" y="-275.5" font-family="Helvetica,sans-Serif" font-size="10.00">includes/spic&#45;api&#45;headers</text>
<text text-anchor="middle" x="1524" y="-264.5" font-family="Helvetica,sans-Serif" font-size="10.00">/Sprite.hpp</text>
</a>
</g>
</g>
<!-- Node1&#45;&gt;Node29 -->
<g id="edge38" class="edge">
<title>Node1&#45;&gt;Node29</title>
<path fill="none" stroke="midnightblue" d="M1238.98,-325.11C1304.21,-313.3 1398.25,-296.27 1460.22,-285.05"/>
<polygon fill="midnightblue" stroke="midnightblue" points="1237.98,-321.73 1228.77,-326.95 1239.23,-328.62 1237.98,-321.73"/>
</g>
<!-- Node36 -->
<g id="node36" class="node">
<title>Node36</title>
<g id="a_node36"><a xlink:href="Text_8hpp.html" target="_top" xlink:title=" ">
<polygon fill="none" stroke="black" points="1148.5,-257.5 1148.5,-287.5 1275.5,-287.5 1275.5,-257.5 1148.5,-257.5"/>
<text text-anchor="start" x="1156.5" y="-275.5" font-family="Helvetica,sans-Serif" font-size="10.00">includes/spic&#45;api&#45;headers</text>
<text text-anchor="middle" x="1212" y="-264.5" font-family="Helvetica,sans-Serif" font-size="10.00">/Text.hpp</text>
</a>
</g>
</g>
<!-- Node1&#45;&gt;Node36 -->
<g id="edge48" class="edge">
<title>Node1&#45;&gt;Node36</title>
<path fill="none" stroke="midnightblue" d="M1181.16,-316.16C1188.01,-306.68 1195.79,-295.92 1201.82,-287.58"/>
<polygon fill="midnightblue" stroke="midnightblue" points="1178.22,-314.24 1175.2,-324.4 1183.89,-318.34 1178.22,-314.24"/>
</g>
<!-- Node4 -->
<g id="node4" class="node">
<title>Node4</title>
<g id="a_node4"><a xlink:href="TextureManager_8cpp.html" target="_top" xlink:title=" ">
<polygon fill="none" stroke="black" points="430.5,-196 430.5,-215 597.5,-215 597.5,-196 430.5,-196"/>
<text text-anchor="middle" x="514" y="-203" font-family="Helvetica,sans-Serif" font-size="10.00">src/Managers/TextureManager.cpp</text>
</a>
</g>
</g>
<!-- Node3&#45;&gt;Node4 -->
<g id="edge3" class="edge">
<title>Node3&#45;&gt;Node4</title>
<path fill="none" stroke="midnightblue" d="M673.3,-259.6C634.64,-246.71 573.92,-226.47 539.69,-215.06"/>
<polygon fill="midnightblue" stroke="midnightblue" points="672.51,-263.03 683.11,-262.87 674.73,-256.39 672.51,-263.03"/>
</g>
<!-- Node3&#45;&gt;Node5 -->
<g id="edge4" class="edge">
<title>Node3&#45;&gt;Node5</title>
<path fill="none" stroke="midnightblue" d="M699.67,-253.66C693.11,-241.13 684.63,-224.91 679.51,-215.13"/>
<polygon fill="midnightblue" stroke="midnightblue" points="696.68,-255.5 704.41,-262.73 702.88,-252.25 696.68,-255.5"/>
</g>
<!-- Node6 -->
<g id="node6" class="node">
<title>Node6</title>
<g id="a_node6"><a xlink:href="TimeManager_8hpp.html" target="_top" xlink:title=" ">
<polygon fill="none" stroke="black" points="502,-129 502,-148 658,-148 658,-129 502,-129"/>
<text text-anchor="middle" x="580" y="-136" font-family="Helvetica,sans-Serif" font-size="10.00">src/Managers/TimeManager.hpp</text>
</a>
</g>
</g>
<!-- Node5&#45;&gt;Node6 -->
<g id="edge5" class="edge">
<title>Node5&#45;&gt;Node6</title>
<path fill="none" stroke="midnightblue" d="M653.69,-189.92C634.91,-177.07 608.18,-158.78 592.61,-148.13"/>
<polygon fill="midnightblue" stroke="midnightblue" points="651.96,-192.98 662.19,-195.73 655.91,-187.2 651.96,-192.98"/>
</g>
<!-- Node11 -->
<g id="node11" class="node">
<title>Node11</title>
<g id="a_node11"><a xlink:href="Window_8cpp.html" target="_top" xlink:title=" ">
<polygon fill="none" stroke="black" points="0,-129 0,-148 120,-148 120,-129 0,-129"/>
<text text-anchor="middle" x="60" y="-136" font-family="Helvetica,sans-Serif" font-size="10.00">src/Models/Window.cpp</text>
</a>
</g>
</g>
<!-- Node5&#45;&gt;Node11 -->
<g id="edge10" class="edge">
<title>Node5&#45;&gt;Node11</title>
<path fill="none" stroke="midnightblue" d="M629.08,-193.97C621.41,-192.46 613.5,-191.07 606,-190 395.51,-160.07 339.49,-183.93 129,-154 118.21,-152.47 106.59,-150.25 96.01,-148"/>
<polygon fill="midnightblue" stroke="midnightblue" points="628.49,-197.42 638.99,-196 629.89,-190.56 628.49,-197.42"/>
</g>
<!-- Node12 -->
<g id="node12" class="node">
<title>Node12</title>
<g id="a_node12"><a xlink:href="FpsCounterSubsystem_8hpp.html" target="_top" xlink:title=" ">
<polygon fill="none" stroke="black" points="138,-123.5 138,-153.5 278,-153.5 278,-123.5 138,-123.5"/>
<text text-anchor="start" x="146" y="-141.5" font-family="Helvetica,sans-Serif" font-size="10.00">src/Subsystems/FpsCounter</text>
<text text-anchor="middle" x="208" y="-130.5" font-family="Helvetica,sans-Serif" font-size="10.00">Subsystem.hpp</text>
</a>
</g>
</g>
<!-- Node5&#45;&gt;Node12 -->
<g id="edge11" class="edge">
<title>Node5&#45;&gt;Node12</title>
<path fill="none" stroke="midnightblue" d="M627.27,-193.86C620.16,-192.45 612.9,-191.11 606,-190 465.14,-167.3 428.14,-174.89 287,-154 284.1,-153.57 281.15,-153.12 278.17,-152.64"/>
<polygon fill="midnightblue" stroke="midnightblue" points="627.02,-197.38 637.52,-195.95 628.42,-190.52 627.02,-197.38"/>
</g>
<!-- Node14 -->
<g id="node14" class="node">
<title>Node14</title>
<g id="a_node14"><a xlink:href="RenderSubsystem_8hpp.html" target="_top" xlink:title=" ">
<polygon fill="none" stroke="black" points="296,-129 296,-148 484,-148 484,-129 296,-129"/>
<text text-anchor="middle" x="390" y="-136" font-family="Helvetica,sans-Serif" font-size="10.00">src/Subsystems/RenderSubsystem.hpp</text>
</a>
</g>
</g>
<!-- Node5&#45;&gt;Node14 -->
<g id="edge15" class="edge">
<title>Node5&#45;&gt;Node14</title>
<path fill="none" stroke="midnightblue" d="M627.4,-193.64C571.25,-180.84 479.05,-159.81 427.64,-148.08"/>
<polygon fill="midnightblue" stroke="midnightblue" points="626.92,-197.12 637.45,-195.94 628.48,-190.3 626.92,-197.12"/>
</g>
<!-- Node7 -->
<g id="node7" class="node">
<title>Node7</title>
<g id="a_node7"><a xlink:href="Engine_8cpp.html" target="_top" xlink:title=" ">
<polygon fill="none" stroke="black" points="381,-0.5 381,-19.5 479,-19.5 479,-0.5 381,-0.5"/>
<text text-anchor="middle" x="430" y="-7.5" font-family="Helvetica,sans-Serif" font-size="10.00">src/Api/Engine.cpp</text>
</a>
</g>
</g>
<!-- Node6&#45;&gt;Node7 -->
<g id="edge6" class="edge">
<title>Node6&#45;&gt;Node7</title>
<path fill="none" stroke="midnightblue" d="M591.61,-120.15C601.92,-102.34 613.34,-74.66 599,-56 584.43,-37.04 523.82,-24.38 479.33,-17.44"/>
<polygon fill="midnightblue" stroke="midnightblue" points="588.47,-118.57 586.16,-128.91 594.41,-122.27 588.47,-118.57"/>
</g>
<!-- Node8 -->
<g id="node8" class="node">
<title>Node8</title>
<g id="a_node8"><a xlink:href="src_2Api_2Time_8cpp.html" target="_top" xlink:title=" ">
<polygon fill="none" stroke="black" points="500,-62 500,-81 590,-81 590,-62 500,-62"/>
<text text-anchor="middle" x="545" y="-69" font-family="Helvetica,sans-Serif" font-size="10.00">src/Api/Time.cpp</text>
</a>
</g>
</g>
<!-- Node6&#45;&gt;Node8 -->
<g id="edge7" class="edge">
<title>Node6&#45;&gt;Node8</title>
<path fill="none" stroke="midnightblue" d="M570.4,-119.66C563.65,-107.13 554.91,-90.91 549.65,-81.13"/>
<polygon fill="midnightblue" stroke="midnightblue" points="567.46,-121.59 575.28,-128.73 573.62,-118.27 567.46,-121.59"/>
</g>
<!-- Node9 -->
<g id="node9" class="node">
<title>Node9</title>
<g id="a_node9"><a xlink:href="TimeManager_8cpp.html" target="_top" xlink:title=" ">
<polygon fill="none" stroke="black" points="1786,-62 1786,-81 1942,-81 1942,-62 1786,-62"/>
<text text-anchor="middle" x="1864" y="-69" font-family="Helvetica,sans-Serif" font-size="10.00">src/Managers/TimeManager.cpp</text>
</a>
</g>
</g>
<!-- Node6&#45;&gt;Node9 -->
<g id="edge8" class="edge">
<title>Node6&#45;&gt;Node9</title>
<path fill="none" stroke="midnightblue" d="M655.74,-127.83C671.97,-126 689.04,-124.27 705,-123 1111.06,-90.64 1598.92,-77.89 1785.88,-73.96"/>
<polygon fill="midnightblue" stroke="midnightblue" points="655.3,-124.36 645.76,-128.97 656.09,-131.31 655.3,-124.36"/>
</g>
<!-- Node10 -->
<g id="node10" class="node">
<title>Node10</title>
<g id="a_node10"><a xlink:href="FpsCounterSubsystem_8cpp.html" target="_top" xlink:title=" ">
<polygon fill="none" stroke="black" points="342,-56.5 342,-86.5 482,-86.5 482,-56.5 342,-56.5"/>
<text text-anchor="start" x="350" y="-74.5" font-family="Helvetica,sans-Serif" font-size="10.00">src/Subsystems/FpsCounter</text>
<text text-anchor="middle" x="412" y="-63.5" font-family="Helvetica,sans-Serif" font-size="10.00">Subsystem.cpp</text>
</a>
</g>
</g>
<!-- Node6&#45;&gt;Node10 -->
<g id="edge9" class="edge">
<title>Node6&#45;&gt;Node10</title>
<path fill="none" stroke="midnightblue" d="M548.22,-125.2C519.75,-114.19 478.02,-98.04 448.26,-86.53"/>
<polygon fill="midnightblue" stroke="midnightblue" points="547.1,-128.52 557.69,-128.87 549.63,-122 547.1,-128.52"/>
</g>
<!-- Node12&#45;&gt;Node10 -->
<g id="edge12" class="edge">
<title>Node12&#45;&gt;Node10</title>
<path fill="none" stroke="midnightblue" d="M261.96,-120.31C294.96,-109.79 336.66,-96.51 367.71,-86.61"/>
<polygon fill="midnightblue" stroke="midnightblue" points="260.48,-117.11 252.01,-123.48 262.6,-123.77 260.48,-117.11"/>
</g>
<!-- Node13 -->
<g id="node13" class="node">
<title>Node13</title>
<g id="a_node13"><a xlink:href="Subsystems_8hpp.html" target="_top" xlink:title=" ">
<polygon fill="none" stroke="black" points="162,-62 162,-81 324,-81 324,-62 162,-62"/>
<text text-anchor="middle" x="243" y="-69" font-family="Helvetica,sans-Serif" font-size="10.00">src/Subsystems/Subsystems.hpp</text>
</a>
</g>
</g>
<!-- Node12&#45;&gt;Node13 -->
<g id="edge13" class="edge">
<title>Node12&#45;&gt;Node13</title>
<path fill="none" stroke="midnightblue" d="M220.5,-114.29C226.68,-102.8 233.78,-89.63 238.32,-81.19"/>
<polygon fill="midnightblue" stroke="midnightblue" points="217.25,-112.93 215.59,-123.4 223.42,-116.25 217.25,-112.93"/>
</g>
<!-- Node13&#45;&gt;Node7 -->
<g id="edge14" class="edge">
<title>Node13&#45;&gt;Node7</title>
<path fill="none" stroke="midnightblue" d="M279.52,-58.88C315.87,-47.32 370.79,-29.84 403.26,-19.51"/>
<polygon fill="midnightblue" stroke="midnightblue" points="278.26,-55.61 269.79,-61.98 280.38,-62.28 278.26,-55.61"/>
</g>
<!-- Node14&#45;&gt;Node13 -->
<g id="edge17" class="edge">
<title>Node14&#45;&gt;Node13</title>
<path fill="none" stroke="midnightblue" d="M361.24,-124.78C332.12,-111.91 287.9,-92.35 262.6,-81.17"/>
<polygon fill="midnightblue" stroke="midnightblue" points="359.92,-128.03 370.48,-128.87 362.75,-121.62 359.92,-128.03"/>
</g>
<!-- Node15 -->
<g id="node15" class="node">
<title>Node15</title>
<g id="a_node15"><a xlink:href="RenderSubsystem_8cpp.html" target="_top" xlink:title=" ">
<polygon fill="none" stroke="black" points="1080,-62 1080,-81 1268,-81 1268,-62 1080,-62"/>
<text text-anchor="middle" x="1174" y="-69" font-family="Helvetica,sans-Serif" font-size="10.00">src/Subsystems/RenderSubsystem.cpp</text>
</a>
</g>
</g>
<!-- Node14&#45;&gt;Node15 -->
<g id="edge16" class="edge">
<title>Node14&#45;&gt;Node15</title>
<path fill="none" stroke="midnightblue" d="M455.97,-127.56C468.26,-125.89 481.01,-124.29 493,-123 702.08,-100.56 948.36,-84.97 1079.91,-77.51"/>
<polygon fill="midnightblue" stroke="midnightblue" points="455.2,-124.13 445.78,-128.96 456.16,-131.06 455.2,-124.13"/>
</g>
<!-- Node16&#45;&gt;Node15 -->
<g id="edge22" class="edge">
<title>Node16&#45;&gt;Node15</title>
<path fill="none" stroke="midnightblue" d="M1130.87,-188.32C1139.2,-178.99 1148.91,-166.62 1155,-154 1166.99,-129.14 1171.65,-96.29 1173.25,-81"/>
<polygon fill="midnightblue" stroke="midnightblue" points="1128.28,-185.97 1124.03,-195.67 1133.41,-190.73 1128.28,-185.97"/>
</g>
<!-- Node17 -->
<g id="node17" class="node">
<title>Node17</title>
<g id="a_node17"><a xlink:href="Debug_8cpp.html" target="_top" xlink:title=" ">
<polygon fill="none" stroke="black" points="1724,-129 1724,-148 1820,-148 1820,-129 1724,-129"/>
<text text-anchor="middle" x="1772" y="-136" font-family="Helvetica,sans-Serif" font-size="10.00">src/Api/Debug.cpp</text>
</a>
</g>
</g>
<!-- Node16&#45;&gt;Node17 -->
<g id="edge20" class="edge">
<title>Node16&#45;&gt;Node17</title>
<path fill="none" stroke="midnightblue" d="M1193.93,-196.92C1218.32,-194.63 1245.26,-192.16 1270,-190 1467.67,-172.76 1519.27,-186.57 1715,-154 1723.96,-152.51 1733.59,-150.3 1742.32,-148.06"/>
<polygon fill="midnightblue" stroke="midnightblue" points="1193.28,-193.47 1183.66,-197.89 1193.94,-200.44 1193.28,-193.47"/>
</g>
<!-- Node18 -->
<g id="node18" class="node">
<title>Node18</title>
<g id="a_node18"><a xlink:href="DebugLines_8cpp.html" target="_top" xlink:title=" ">
<polygon fill="none" stroke="black" points="1008.5,-129 1008.5,-148 1145.5,-148 1145.5,-129 1008.5,-129"/>
<text text-anchor="middle" x="1077" y="-136" font-family="Helvetica,sans-Serif" font-size="10.00">src/Structs/DebugLines.cpp</text>
</a>
</g>
</g>
<!-- Node16&#45;&gt;Node18 -->
<g id="edge21" class="edge">
<title>Node16&#45;&gt;Node18</title>
<path fill="none" stroke="midnightblue" d="M1104.79,-187.03C1097.43,-174.45 1087.82,-158.01 1082.04,-148.13"/>
<polygon fill="midnightblue" stroke="midnightblue" points="1101.81,-188.87 1109.88,-195.73 1107.85,-185.33 1101.81,-188.87"/>
</g>
<!-- Node20&#45;&gt;Node15 -->
<g id="edge27" class="edge">
<title>Node20&#45;&gt;Node15</title>
<path fill="none" stroke="midnightblue" d="M838.39,-199.16C762.84,-190.99 661.96,-170.92 705,-123 729.56,-95.66 950.26,-81.83 1079.97,-76.01"/>
<polygon fill="midnightblue" stroke="midnightblue" points="838.09,-202.65 848.4,-200.19 838.81,-195.69 838.09,-202.65"/>
</g>
<!-- Node20&#45;&gt;Node19 -->
<g id="edge28" class="edge">
<title>Node20&#45;&gt;Node19</title>
<path fill="none" stroke="midnightblue" d="M985.96,-192.24C1059.44,-180.05 1170.92,-161.57 1240.5,-150.03"/>
<polygon fill="midnightblue" stroke="midnightblue" points="985.15,-188.82 975.85,-193.91 986.29,-195.73 985.15,-188.82"/>
</g>
<!-- Node21 -->
<g id="node21" class="node">
<title>Node21</title>
<g id="a_node21"><a xlink:href="Camera_8cpp.html" target="_top" xlink:title=" ">
<polygon fill="none" stroke="black" points="714,-129 714,-148 816,-148 816,-129 714,-129"/>
<text text-anchor="middle" x="765" y="-136" font-family="Helvetica,sans-Serif" font-size="10.00">src/Api/Camera.cpp</text>
</a>
</g>
</g>
<!-- Node20&#45;&gt;Node21 -->
<g id="edge25" class="edge">
<title>Node20&#45;&gt;Node21</title>
<path fill="none" stroke="midnightblue" d="M870.83,-186.3C842.48,-173.76 806.12,-157.68 784.24,-148.01"/>
<polygon fill="midnightblue" stroke="midnightblue" points="869.54,-189.55 880.1,-190.4 872.37,-183.15 869.54,-189.55"/>
</g>
<!-- Node22 -->
<g id="node22" class="node">
<title>Node22</title>
<g id="a_node22"><a xlink:href="InputManager_8cpp.html" target="_top" xlink:title=" ">
<polygon fill="none" stroke="black" points="834,-129 834,-148 990,-148 990,-129 834,-129"/>
<text text-anchor="middle" x="912" y="-136" font-family="Helvetica,sans-Serif" font-size="10.00">src/Managers/InputManager.cpp</text>
</a>
</g>
</g>
<!-- Node20&#45;&gt;Node22 -->
<g id="edge26" class="edge">
<title>Node20&#45;&gt;Node22</title>
<path fill="none" stroke="midnightblue" d="M912,-180.25C912,-169.02 912,-156.38 912,-148.19"/>
<polygon fill="midnightblue" stroke="midnightblue" points="908.5,-180.4 912,-190.4 915.5,-180.4 908.5,-180.4"/>
</g>
<!-- Node24&#45;&gt;Node9 -->
<g id="edge33" class="edge">
<title>Node24&#45;&gt;Node9</title>
<path fill="none" stroke="midnightblue" d="M2258.59,-192.48C2314.45,-180.31 2376.68,-158.18 2345,-123 2318.59,-93.67 2071.56,-80.19 1942.19,-75.09"/>
<polygon fill="midnightblue" stroke="midnightblue" points="2257.69,-189.09 2248.62,-194.57 2259.13,-195.95 2257.69,-189.09"/>
</g>
<!-- Node24&#45;&gt;Node17 -->
<g id="edge31" class="edge">
<title>Node24&#45;&gt;Node17</title>
<path fill="none" stroke="midnightblue" d="M2111.37,-192.91C2027.23,-179.67 1891.92,-158.37 1820.21,-147.09"/>
<polygon fill="midnightblue" stroke="midnightblue" points="2110.95,-196.39 2121.37,-194.49 2112.04,-189.47 2110.95,-196.39"/>
</g>
<!-- Node24&#45;&gt;Node19 -->
<g id="edge37" class="edge">
<title>Node24&#45;&gt;Node19</title>
<path fill="none" stroke="midnightblue" d="M2111.36,-194.64C2096.68,-192.91 2081.37,-191.26 2067,-190 1761.08,-163.26 1681.72,-192.01 1377,-154 1373.92,-153.62 1370.78,-153.18 1367.61,-152.7"/>
<polygon fill="midnightblue" stroke="midnightblue" points="2111.05,-198.13 2121.4,-195.85 2111.89,-191.18 2111.05,-198.13"/>
</g>
<!-- Node25 -->
<g id="node25" class="node">
<title>Node25</title>
<g id="a_node25"><a xlink:href="AudioManager_8cpp.html" target="_top" xlink:title=" ">
<polygon fill="none" stroke="black" points="2391.5,-129 2391.5,-148 2550.5,-148 2550.5,-129 2391.5,-129"/>
<text text-anchor="middle" x="2471" y="-136" font-family="Helvetica,sans-Serif" font-size="10.00">src/Managers/AudioManager.cpp</text>
</a>
</g>
</g>
<!-- Node24&#45;&gt;Node25 -->
<g id="edge32" class="edge">
<title>Node24&#45;&gt;Node25</title>
<path fill="none" stroke="midnightblue" d="M2256.6,-188.23C2312.75,-175.47 2388.67,-158.21 2433.47,-148.03"/>
<polygon fill="midnightblue" stroke="midnightblue" points="2255.68,-184.85 2246.71,-190.48 2257.23,-191.67 2255.68,-184.85"/>
</g>
<!-- Node26 -->
<g id="node26" class="node">
<title>Node26</title>
<g id="a_node26"><a xlink:href="Texture_8cpp.html" target="_top" xlink:title=" ">
<polygon fill="none" stroke="black" points="2569,-129 2569,-148 2687,-148 2687,-129 2569,-129"/>
<text text-anchor="middle" x="2628" y="-136" font-family="Helvetica,sans-Serif" font-size="10.00">src/Models/Texture.cpp</text>
</a>
</g>
</g>
<!-- Node24&#45;&gt;Node26 -->
<g id="edge34" class="edge">
<title>Node24&#45;&gt;Node26</title>
<path fill="none" stroke="midnightblue" d="M2258.98,-196.22C2334.8,-187.35 2456,-172.06 2560,-154 2569.87,-152.29 2580.49,-150.16 2590.33,-148.07"/>
<polygon fill="midnightblue" stroke="midnightblue" points="2258.12,-192.8 2248.59,-197.43 2258.93,-199.75 2258.12,-192.8"/>
</g>
<!-- Node27 -->
<g id="node27" class="node">
<title>Node27</title>
<g id="a_node27"><a xlink:href="BehaviourScriptSubsystem_8cpp.html" target="_top" xlink:title=" ">
<polygon fill="none" stroke="black" points="2040,-123.5 2040,-153.5 2174,-153.5 2174,-123.5 2040,-123.5"/>
<text text-anchor="start" x="2048" y="-141.5" font-family="Helvetica,sans-Serif" font-size="10.00">src/Subsystems/Behaviour</text>
<text text-anchor="middle" x="2107" y="-130.5" font-family="Helvetica,sans-Serif" font-size="10.00">ScriptSubsystem.cpp</text>
</a>
</g>
</g>
<!-- Node24&#45;&gt;Node27 -->
<g id="edge35" class="edge">
<title>Node24&#45;&gt;Node27</title>
<path fill="none" stroke="midnightblue" d="M2160.26,-183.88C2148.41,-174.01 2134.52,-162.43 2123.89,-153.58"/>
<polygon fill="midnightblue" stroke="midnightblue" points="2158.15,-186.68 2168.08,-190.4 2162.63,-181.31 2158.15,-186.68"/>
</g>
<!-- Node28 -->
<g id="node28" class="node">
<title>Node28</title>
<g id="a_node28"><a xlink:href="GameSpeedSubsystem_8cpp.html" target="_top" xlink:title=" ">
<polygon fill="none" stroke="black" points="2192,-123.5 2192,-153.5 2336,-153.5 2336,-123.5 2192,-123.5"/>
<text text-anchor="start" x="2200" y="-141.5" font-family="Helvetica,sans-Serif" font-size="10.00">src/Subsystems/GameSpeed</text>
<text text-anchor="middle" x="2264" y="-130.5" font-family="Helvetica,sans-Serif" font-size="10.00">Subsystem.cpp</text>
</a>
</g>
</g>
<!-- Node24&#45;&gt;Node28 -->
<g id="edge36" class="edge">
<title>Node24&#45;&gt;Node28</title>
<path fill="none" stroke="midnightblue" d="M2210.06,-183.88C2222.06,-174.01 2236.13,-162.43 2246.89,-153.58"/>
<polygon fill="midnightblue" stroke="midnightblue" points="2207.64,-181.34 2202.14,-190.4 2212.09,-186.75 2207.64,-181.34"/>
</g>
<!-- Node29&#45;&gt;Node15 -->
<g id="edge40" class="edge">
<title>Node29&#45;&gt;Node15</title>
<path fill="none" stroke="midnightblue" d="M1592.19,-254.81C1673.35,-233.4 1801.4,-194.21 1829,-154 1836.8,-142.64 1838.36,-133.11 1829,-123 1791.71,-82.72 1440.14,-74.47 1268.03,-72.85"/>
<polygon fill="midnightblue" stroke="midnightblue" points="1590.84,-251.54 1582.04,-257.46 1592.6,-258.32 1590.84,-251.54"/>
</g>
<!-- Node29&#45;&gt;Node19 -->
<g id="edge45" class="edge">
<title>Node29&#45;&gt;Node19</title>
<path fill="none" stroke="midnightblue" d="M1495.55,-251.57C1482.31,-242.28 1466.34,-231.08 1452,-221 1432.43,-207.24 1428.6,-202.15 1408,-190 1384.83,-176.34 1357.42,-163.14 1336.56,-153.67"/>
<polygon fill="midnightblue" stroke="midnightblue" points="1493.62,-254.49 1503.82,-257.36 1497.64,-248.76 1493.62,-254.49"/>
</g>
<!-- Node30 -->
<g id="node30" class="node">
<title>Node30</title>
<g id="a_node30"><a xlink:href="Sprite_8cpp.html" target="_top" xlink:title=" ">
<polygon fill="none" stroke="black" points="1818,-196 1818,-215 1912,-215 1912,-196 1818,-196"/>
<text text-anchor="middle" x="1865" y="-203" font-family="Helvetica,sans-Serif" font-size="10.00">src/Api/Sprite.cpp</text>
</a>
</g>
</g>
<!-- Node29&#45;&gt;Node30 -->
<g id="edge39" class="edge">
<title>Node29&#45;&gt;Node30</title>
<path fill="none" stroke="midnightblue" d="M1598.08,-257.72C1599.4,-257.47 1600.7,-257.24 1602,-257 1691.72,-240.67 1714.71,-239.55 1804,-221 1812.63,-219.21 1821.91,-217.1 1830.56,-215.05"/>
<polygon fill="midnightblue" stroke="midnightblue" points="1597.05,-254.35 1587.84,-259.59 1598.31,-261.23 1597.05,-254.35"/>
</g>
<!-- Node31 -->
<g id="node31" class="node">
<title>Node31</title>
<g id="a_node31"><a xlink:href="Animator_8hpp.html" target="_top" xlink:title=" ">
<polygon fill="none" stroke="black" points="1460.5,-190.5 1460.5,-220.5 1587.5,-220.5 1587.5,-190.5 1460.5,-190.5"/>
<text text-anchor="start" x="1468.5" y="-208.5" font-family="Helvetica,sans-Serif" font-size="10.00">includes/spic&#45;api&#45;headers</text>
<text text-anchor="middle" x="1524" y="-197.5" font-family="Helvetica,sans-Serif" font-size="10.00">/Animator.hpp</text>
</a>
</g>
</g>
<!-- Node29&#45;&gt;Node31 -->
<g id="edge41" class="edge">
<title>Node29&#45;&gt;Node31</title>
<path fill="none" stroke="midnightblue" d="M1524,-247.11C1524,-238.15 1524,-228.32 1524,-220.58"/>
<polygon fill="midnightblue" stroke="midnightblue" points="1520.5,-247.4 1524,-257.4 1527.5,-247.4 1520.5,-247.4"/>
</g>
<!-- Node34 -->
<g id="node34" class="node">
<title>Node34</title>
<g id="a_node34"><a xlink:href="AnimatorUtil_8hpp.html" target="_top" xlink:title=" ">
<polygon fill="none" stroke="black" points="1930.5,-190.5 1930.5,-220.5 2057.5,-220.5 2057.5,-190.5 1930.5,-190.5"/>
<text text-anchor="start" x="1938.5" y="-208.5" font-family="Helvetica,sans-Serif" font-size="10.00">includes/spic&#45;api&#45;headers</text>
<text text-anchor="middle" x="1994" y="-197.5" font-family="Helvetica,sans-Serif" font-size="10.00">/Utils/AnimatorUtil.hpp</text>
</a>
</g>
</g>
<!-- Node29&#45;&gt;Node34 -->
<g id="edge46" class="edge">
<title>Node29&#45;&gt;Node34</title>
<path fill="none" stroke="midnightblue" d="M1598.06,-257.6C1599.38,-257.39 1600.7,-257.19 1602,-257 1743.12,-235.95 1780.02,-242.92 1921,-221 1924.06,-220.52 1927.2,-220.01 1930.35,-219.47"/>
<polygon fill="midnightblue" stroke="midnightblue" points="1597.1,-254.21 1587.79,-259.26 1598.22,-261.12 1597.1,-254.21"/>
</g>
<!-- Node31&#45;&gt;Node19 -->
<g id="edge44" class="edge">
<title>Node31&#45;&gt;Node19</title>
<path fill="none" stroke="midnightblue" d="M1466.73,-187.58C1431,-177.02 1385.54,-163.59 1351.76,-153.61"/>
<polygon fill="midnightblue" stroke="midnightblue" points="1465.95,-191 1476.53,-190.48 1467.94,-184.29 1465.95,-191"/>
</g>
<!-- Node32 -->
<g id="node32" class="node">
<title>Node32</title>
<g id="a_node32"><a xlink:href="Animator_8cpp.html" target="_top" xlink:title=" ">
<polygon fill="none" stroke="black" points="1385.5,-129 1385.5,-148 1492.5,-148 1492.5,-129 1385.5,-129"/>
<text text-anchor="middle" x="1439" y="-136" font-family="Helvetica,sans-Serif" font-size="10.00">src/Api/Animator.cpp</text>
</a>
</g>
</g>
<!-- Node31&#45;&gt;Node32 -->
<g id="edge42" class="edge">
<title>Node31&#45;&gt;Node32</title>
<path fill="none" stroke="midnightblue" d="M1497.2,-184.01C1481.42,-171.94 1462.28,-157.3 1450.37,-148.19"/>
<polygon fill="midnightblue" stroke="midnightblue" points="1495.49,-187.1 1505.56,-190.4 1499.74,-181.54 1495.49,-187.1"/>
</g>
<!-- Node33 -->
<g id="node33" class="node">
<title>Node33</title>
<g id="a_node33"><a xlink:href="AnimatorSubsystem_8cpp.html" target="_top" xlink:title=" ">
<polygon fill="none" stroke="black" points="1510,-129 1510,-148 1706,-148 1706,-129 1510,-129"/>
<text text-anchor="middle" x="1608" y="-136" font-family="Helvetica,sans-Serif" font-size="10.00">src/Subsystems/AnimatorSubsystem.cpp</text>
</a>
</g>
</g>
<!-- Node31&#45;&gt;Node33 -->
<g id="edge43" class="edge">
<title>Node31&#45;&gt;Node33</title>
<path fill="none" stroke="midnightblue" d="M1550.48,-184.01C1566.08,-171.94 1584.99,-157.3 1596.76,-148.19"/>
<polygon fill="midnightblue" stroke="midnightblue" points="1547.99,-181.51 1542.23,-190.4 1552.28,-187.04 1547.99,-181.51"/>
</g>
<!-- Node35 -->
<g id="node35" class="node">
<title>Node35</title>
<g id="a_node35"><a xlink:href="AnimatorUtil_8cpp.html" target="_top" xlink:title=" ">
<polygon fill="none" stroke="black" points="1876,-129 1876,-148 2022,-148 2022,-129 1876,-129"/>
<text text-anchor="middle" x="1949" y="-136" font-family="Helvetica,sans-Serif" font-size="10.00">src/Api/Utils/AnimatorUtil.cpp</text>
</a>
</g>
</g>
<!-- Node34&#45;&gt;Node35 -->
<g id="edge47" class="edge">
<title>Node34&#45;&gt;Node35</title>
<path fill="none" stroke="midnightblue" d="M1978.41,-181.97C1970.35,-170.33 1960.98,-156.8 1955.02,-148.19"/>
<polygon fill="midnightblue" stroke="midnightblue" points="1975.67,-184.17 1984.24,-190.4 1981.42,-180.18 1975.67,-184.17"/>
</g>
<!-- Node36&#45;&gt;Node5 -->
<g id="edge50" class="edge">
<title>Node36&#45;&gt;Node5</title>
<path fill="none" stroke="midnightblue" d="M1138.2,-262.57C1031.04,-249.6 834.35,-225.79 735.33,-213.8"/>
<polygon fill="midnightblue" stroke="midnightblue" points="1137.94,-266.06 1148.29,-263.79 1138.78,-259.11 1137.94,-266.06"/>
</g>
<!-- Node36&#45;&gt;Node15 -->
<g id="edge51" class="edge">
<title>Node36&#45;&gt;Node15</title>
<path fill="none" stroke="midnightblue" d="M1207.37,-247.24C1198.89,-202.82 1181.22,-110.31 1175.69,-81.36"/>
<polygon fill="midnightblue" stroke="midnightblue" points="1203.95,-248.02 1209.27,-257.19 1210.83,-246.71 1203.95,-248.02"/>
</g>
<!-- Node36&#45;&gt;Node19 -->
<g id="edge52" class="edge">
<title>Node36&#45;&gt;Node19</title>
<path fill="none" stroke="midnightblue" d="M1227.8,-248.83C1246.87,-221.47 1278.36,-176.28 1294.23,-153.52"/>
<polygon fill="midnightblue" stroke="midnightblue" points="1224.69,-247.17 1221.85,-257.37 1230.43,-251.17 1224.69,-247.17"/>
</g>
<!-- Node37 -->
<g id="node37" class="node">
<title>Node37</title>
<g id="a_node37"><a xlink:href="Text_8cpp.html" target="_top" xlink:title=" ">
<polygon fill="none" stroke="black" points="1278.5,-196 1278.5,-215 1365.5,-215 1365.5,-196 1278.5,-196"/>
<text text-anchor="middle" x="1322" y="-203" font-family="Helvetica,sans-Serif" font-size="10.00">src/Api/Text.cpp</text>
</a>
</g>
</g>
<!-- Node36&#45;&gt;Node37 -->
<g id="edge49" class="edge">
<title>Node36&#45;&gt;Node37</title>
<path fill="none" stroke="midnightblue" d="M1244.48,-252.31C1265.43,-239.93 1291.66,-224.43 1307.6,-215.01"/>
<polygon fill="midnightblue" stroke="midnightblue" points="1242.7,-249.3 1235.87,-257.4 1246.26,-255.32 1242.7,-249.3"/>
</g>
</g>
</svg>
        <g id="navigator" transform="translate(0 0)" fill="#404254">
                <rect fill="#f2f5e9" fill-opacity="0.5" stroke="#606060" stroke-width=".5" x="0" y="0" width="60" height="60"/>
                <use id="zoomplus" xlink:href="#zoomPlus" x="17" y="9" onmousedown="handleZoom(evt,'in')"/>
                <use id="zoomminus" xlink:href="#zoomMin" x="42" y="9" onmousedown="handleZoom(evt,'out')"/>
                <use id="reset" xlink:href="#resetDef" x="30" y="36" onmousedown="handleReset()"/>
                <g id="arrowUp" xlink:href="#dirArrow" transform="translate(30 24)" onmousedown="handlePan(0,-1)">
                  <use xlink:href="#rim" fill="#404040">
                        <set attributeName="fill" to="#808080" begin="arrowUp.mouseover" end="arrowUp.mouseout"/>
                  </use>
                  <path fill="none" stroke="white" stroke-width="1.5" d="M0,-3.0v7 M-2.5,-0.5L0,-3.0L2.5,-0.5"/>
                </g>
                <g id="arrowRight" xlink:href="#dirArrow" transform="rotate(90) translate(36 -43)" onmousedown="handlePan(1,0)">
                  <use xlink:href="#rim" fill="#404040">
                        <set attributeName="fill" to="#808080" begin="arrowRight.mouseover" end="arrowRight.mouseout"/>
                  </use>
                  <path fill="none" stroke="white" stroke-width="1.5" d="M0,-3.0v7 M-2.5,-0.5L0,-3.0L2.5,-0.5"/>
                </g>
                <g id="arrowDown" xlink:href="#dirArrow" transform="rotate(180) translate(-30 -48)" onmousedown="handlePan(0,1)">
                  <use xlink:href="#rim" fill="#404040">
                        <set attributeName="fill" to="#808080" begin="arrowDown.mouseover" end="arrowDown.mouseout"/>
                  </use>
                  <path fill="none" stroke="white" stroke-width="1.5" d="M0,-3.0v7 M-2.5,-0.5L0,-3.0L2.5,-0.5"/>
                </g>
                <g id="arrowLeft" xlink:href="#dirArrow" transform="rotate(270) translate(-36 17)" onmousedown="handlePan(-1,0)">
                  <use xlink:href="#rim" fill="#404040">
                        <set attributeName="fill" to="#808080" begin="arrowLeft.mouseover" end="arrowLeft.mouseout"/>
                  </use>
                  <path fill="none" stroke="white" stroke-width="1.5" d="M0,-3.0v7 M-2.5,-0.5L0,-3.0L2.5,-0.5"/>
                </g>
        </g>
        <svg viewBox="0 0 15 15" width="100%" height="30px" preserveAspectRatio="xMaxYMin meet">
         <g id="arrow_out" transform="scale(0.3 0.3)">
          <a xlink:href="Color_8hpp__dep__incl_org.svg" target="_base">
           <rect id="button" ry="5" rx="5" y="6" x="6" height="38" width="38"
                fill="#f2f5e9" fill-opacity="0.5" stroke="#606060" stroke-width="1.0"/>
           <path id="arrow"
             d="M 11.500037,31.436501 C 11.940474,20.09759 22.043105,11.32322 32.158766,21.979434 L 37.068811,17.246167 C 37.068811,17.246167 37.088388,32 37.088388,32 L 22.160133,31.978069 C 22.160133,31.978069 26.997745,27.140456 26.997745,27.140456 C 18.528582,18.264221 13.291696,25.230495 11.500037,31.436501 z"
             style="fill:#404040;"/>
          </a>
         </g>
        </svg>
</svg>
