<?xml version="1.0" encoding="UTF-8" standalone="no"?>
<!DOCTYPE svg PUBLIC "-//W3C//DTD SVG 1.1//EN"
 "http://www.w3.org/Graphics/SVG/1.1/DTD/svg11.dtd">
<!-- Generated by graphviz version 2.44.0 ()
 -->
<!-- Title: includes/spic&#45;api&#45;headers/Color.hpp Pages: 1 -->
<svg width="2204pt" height="363pt"
 viewBox="0.00 0.00 2204.00 363.00" xmlns="http://www.w3.org/2000/svg" xmlns:xlink="http://www.w3.org/1999/xlink">
<g id="graph0" class="graph" transform="scale(1 1) rotate(0) translate(4 359)">
<title>includes/spic&#45;api&#45;headers/Color.hpp</title>
<!-- Node1 -->
<g id="node1" class="node">
<title>Node1</title>
<g id="a_node1"><a xlink:title=" ">
<polygon fill="#bfbfbf" stroke="black" points="1274.5,-324.5 1274.5,-354.5 1401.5,-354.5 1401.5,-324.5 1274.5,-324.5"/>
<text text-anchor="start" x="1282.5" y="-342.5" font-family="Helvetica,sans-Serif" font-size="10.00">includes/spic&#45;api&#45;headers</text>
<text text-anchor="middle" x="1338" y="-331.5" font-family="Helvetica,sans-Serif" font-size="10.00">/Color.hpp</text>
</a>
</g>
</g>
<!-- Node2 -->
<g id="node2" class="node">
<title>Node2</title>
<g id="a_node2"><a xlink:href="src_2Api_2Color_8cpp.html" target="_top" xlink:title=" ">
<polygon fill="none" stroke="black" points="530.5,-263 530.5,-282 621.5,-282 621.5,-263 530.5,-263"/>
<text text-anchor="middle" x="576" y="-270" font-family="Helvetica,sans-Serif" font-size="10.00">src/Api/Color.cpp</text>
</a>
</g>
</g>
<!-- Node1&#45;&gt;Node2 -->
<g id="edge1" class="edge">
<title>Node1&#45;&gt;Node2</title>
<path fill="none" stroke="midnightblue" d="M1263.98,-337.74C1134.69,-335.41 859.7,-325.97 631,-288 622.23,-286.54 612.83,-284.32 604.33,-282.05"/>
<polygon fill="midnightblue" stroke="midnightblue" points="1264.1,-341.24 1274.16,-337.91 1264.22,-334.24 1264.1,-341.24"/>
</g>
<!-- Node3 -->
<g id="node3" class="node">
<title>Node3</title>
<g id="a_node3"><a xlink:href="TextureManager_8hpp.html" target="_top" xlink:title=" ">
<polygon fill="none" stroke="black" points="639.5,-263 639.5,-282 806.5,-282 806.5,-263 639.5,-263"/>
<text text-anchor="middle" x="723" y="-270" font-family="Helvetica,sans-Serif" font-size="10.00">src/Managers/TextureManager.hpp</text>
</a>
</g>
</g>
<!-- Node1&#45;&gt;Node3 -->
<g id="edge2" class="edge">
<title>Node1&#45;&gt;Node3</title>
<path fill="none" stroke="midnightblue" d="M1263.99,-330.68C1147.81,-318.4 923.5,-294.69 803.45,-282"/>
<polygon fill="midnightblue" stroke="midnightblue" points="1263.9,-334.19 1274.21,-331.76 1264.64,-327.23 1263.9,-334.19"/>
</g>
<!-- Node5 -->
<g id="node5" class="node">
<title>Node5</title>
<g id="a_node5"><a xlink:href="Window_8hpp.html" target="_top" xlink:title=" ">
<polygon fill="none" stroke="black" points="556,-196 556,-215 676,-215 676,-196 556,-196"/>
<text text-anchor="middle" x="616" y="-203" font-family="Helvetica,sans-Serif" font-size="10.00">src/Models/Window.hpp</text>
</a>
</g>
</g>
<!-- Node1&#45;&gt;Node5 -->
<g id="edge18" class="edge">
<title>Node1&#45;&gt;Node5</title>
<path fill="none" stroke="midnightblue" d="M1264.31,-325.03C1115.9,-297.9 784.79,-237.36 662.53,-215.01"/>
<polygon fill="midnightblue" stroke="midnightblue" points="1263.78,-328.49 1274.24,-326.84 1265.04,-321.6 1263.78,-328.49"/>
</g>
<!-- Node16 -->
<g id="node16" class="node">
<title>Node16</title>
<g id="a_node16"><a xlink:href="DebugLines_8hpp.html" target="_top" xlink:title=" ">
<polygon fill="none" stroke="black" points="797.5,-196 797.5,-215 934.5,-215 934.5,-196 797.5,-196"/>
<text text-anchor="middle" x="866" y="-203" font-family="Helvetica,sans-Serif" font-size="10.00">src/Structs/DebugLines.hpp</text>
</a>
</g>
</g>
<!-- Node1&#45;&gt;Node16 -->
<g id="edge19" class="edge">
<title>Node1&#45;&gt;Node16</title>
<path fill="none" stroke="midnightblue" d="M1283.57,-321.43C1228.8,-304.43 1141.83,-277.92 1066,-257 1008.87,-241.24 942.02,-224.75 901.89,-215.06"/>
<polygon fill="midnightblue" stroke="midnightblue" points="1282.82,-324.86 1293.41,-324.49 1284.9,-318.17 1282.82,-324.86"/>
</g>
<!-- Node19 -->
<g id="node19" class="node">
<title>Node19</title>
<g id="a_node19"><a xlink:href="Api_8hpp.html" target="_top" xlink:title=" ">
<polygon fill="none" stroke="black" points="1686.5,-123.5 1686.5,-153.5 1813.5,-153.5 1813.5,-123.5 1686.5,-123.5"/>
<text text-anchor="start" x="1694.5" y="-141.5" font-family="Helvetica,sans-Serif" font-size="10.00">includes/spic&#45;api&#45;headers</text>
<text text-anchor="middle" x="1750" y="-130.5" font-family="Helvetica,sans-Serif" font-size="10.00">/Api.hpp</text>
</a>
</g>
</g>
<!-- Node1&#45;&gt;Node19 -->
<g id="edge23" class="edge">
<title>Node1&#45;&gt;Node19</title>
<path fill="none" stroke="midnightblue" d="M1412.06,-334.54C1523.83,-327.79 1724.98,-312.4 1747,-288 1781.03,-250.28 1764.46,-182.68 1755.02,-153.52"/>
<polygon fill="midnightblue" stroke="midnightblue" points="1411.64,-331.05 1401.86,-335.14 1412.05,-338.04 1411.64,-331.05"/>
</g>
<!-- Node20 -->
<g id="node20" class="node">
<title>Node20</title>
<g id="a_node20"><a xlink:href="Camera_8hpp.html" target="_top" xlink:title=" ">
<polygon fill="none" stroke="black" points="1610.5,-257.5 1610.5,-287.5 1737.5,-287.5 1737.5,-257.5 1610.5,-257.5"/>
<text text-anchor="start" x="1618.5" y="-275.5" font-family="Helvetica,sans-Serif" font-size="10.00">includes/spic&#45;api&#45;headers</text>
<text text-anchor="middle" x="1674" y="-264.5" font-family="Helvetica,sans-Serif" font-size="10.00">/Camera.hpp</text>
</a>
</g>
</g>
<!-- Node1&#45;&gt;Node20 -->
<g id="edge24" class="edge">
<title>Node1&#45;&gt;Node20</title>
<path fill="none" stroke="midnightblue" d="M1411.5,-324.64C1464.48,-314.6 1537.69,-300.63 1602,-288 1604.75,-287.46 1607.56,-286.9 1610.4,-286.34"/>
<polygon fill="midnightblue" stroke="midnightblue" points="1410.69,-321.23 1401.51,-326.53 1411.99,-328.11 1410.69,-321.23"/>
</g>
<!-- Node22 -->
<g id="node22" class="node">
<title>Node22</title>
<g id="a_node22"><a xlink:href="includes_2spic-api-headers_2Color_8cpp.html" target="_top" xlink:title=" ">
<polygon fill="none" stroke="black" points="1465.5,-257.5 1465.5,-287.5 1592.5,-287.5 1592.5,-257.5 1465.5,-257.5"/>
<text text-anchor="start" x="1473.5" y="-275.5" font-family="Helvetica,sans-Serif" font-size="10.00">includes/spic&#45;api&#45;headers</text>
<text text-anchor="middle" x="1529" y="-264.5" font-family="Helvetica,sans-Serif" font-size="10.00">/Color.cpp</text>
</a>
</g>
</g>
<!-- Node1&#45;&gt;Node22 -->
<g id="edge27" class="edge">
<title>Node1&#45;&gt;Node22</title>
<path fill="none" stroke="midnightblue" d="M1389.15,-321.09C1419.99,-310.6 1458.75,-297.41 1487.64,-287.58"/>
<polygon fill="midnightblue" stroke="midnightblue" points="1387.78,-317.86 1379.44,-324.4 1390.04,-324.49 1387.78,-317.86"/>
</g>
<!-- Node23 -->
<g id="node23" class="node">
<title>Node23</title>
<g id="a_node23"><a xlink:href="Debug_8hpp.html" target="_top" xlink:title=" ">
<polygon fill="none" stroke="black" points="1249.5,-190.5 1249.5,-220.5 1376.5,-220.5 1376.5,-190.5 1249.5,-190.5"/>
<text text-anchor="start" x="1257.5" y="-208.5" font-family="Helvetica,sans-Serif" font-size="10.00">includes/spic&#45;api&#45;headers</text>
<text text-anchor="middle" x="1313" y="-197.5" font-family="Helvetica,sans-Serif" font-size="10.00">/Debug.hpp</text>
</a>
</g>
</g>
<!-- Node1&#45;&gt;Node23 -->
<g id="edge28" class="edge">
<title>Node1&#45;&gt;Node23</title>
<path fill="none" stroke="midnightblue" d="M1323.23,-315.47C1318.69,-307.15 1314.29,-297.47 1312,-288 1306.4,-264.9 1308.58,-237.02 1310.74,-220.58"/>
<polygon fill="midnightblue" stroke="midnightblue" points="1320.25,-317.32 1328.3,-324.21 1326.3,-313.8 1320.25,-317.32"/>
</g>
<!-- Node28 -->
<g id="node28" class="node">
<title>Node28</title>
<g id="a_node28"><a xlink:href="Sprite_8hpp.html" target="_top" xlink:title=" ">
<polygon fill="none" stroke="black" points="1794.5,-257.5 1794.5,-287.5 1921.5,-287.5 1921.5,-257.5 1794.5,-257.5"/>
<text text-anchor="start" x="1802.5" y="-275.5" font-family="Helvetica,sans-Serif" font-size="10.00">includes/spic&#45;api&#45;headers</text>
<text text-anchor="middle" x="1858" y="-264.5" font-family="Helvetica,sans-Serif" font-size="10.00">/Sprite.hpp</text>
</a>
</g>
</g>
<!-- Node1&#45;&gt;Node28 -->
<g id="edge36" class="edge">
<title>Node1&#45;&gt;Node28</title>
<path fill="none" stroke="midnightblue" d="M1412.01,-331.64C1499.97,-323.12 1651.05,-307.33 1780,-288 1784.63,-287.31 1789.41,-286.54 1794.21,-285.73"/>
<polygon fill="midnightblue" stroke="midnightblue" points="1411.48,-328.18 1401.86,-332.62 1412.15,-335.15 1411.48,-328.18"/>
</g>
<!-- Node33 -->
<g id="node33" class="node">
<title>Node33</title>
<g id="a_node33"><a xlink:href="Text_8hpp.html" target="_top" xlink:title=" ">
<polygon fill="none" stroke="black" points="1320.5,-257.5 1320.5,-287.5 1447.5,-287.5 1447.5,-257.5 1320.5,-257.5"/>
<text text-anchor="start" x="1328.5" y="-275.5" font-family="Helvetica,sans-Serif" font-size="10.00">includes/spic&#45;api&#45;headers</text>
<text text-anchor="middle" x="1384" y="-264.5" font-family="Helvetica,sans-Serif" font-size="10.00">/Text.hpp</text>
</a>
</g>
</g>
<!-- Node1&#45;&gt;Node33 -->
<g id="edge44" class="edge">
<title>Node1&#45;&gt;Node33</title>
<path fill="none" stroke="midnightblue" d="M1353.81,-316.16C1360.52,-306.68 1368.13,-295.92 1374.04,-287.58"/>
<polygon fill="midnightblue" stroke="midnightblue" points="1350.9,-314.21 1347.98,-324.4 1356.62,-318.26 1350.9,-314.21"/>
</g>
<!-- Node4 -->
<g id="node4" class="node">
<title>Node4</title>
<g id="a_node4"><a xlink:href="TextureManager_8cpp.html" target="_top" xlink:title=" ">
<polygon fill="none" stroke="black" points="371.5,-196 371.5,-215 538.5,-215 538.5,-196 371.5,-196"/>
<text text-anchor="middle" x="455" y="-203" font-family="Helvetica,sans-Serif" font-size="10.00">src/Managers/TextureManager.cpp</text>
</a>
</g>
</g>
<!-- Node3&#45;&gt;Node4 -->
<g id="edge3" class="edge">
<title>Node3&#45;&gt;Node4</title>
<path fill="none" stroke="midnightblue" d="M677.91,-260.56C625.08,-247.75 538.64,-226.78 490.39,-215.08"/>
<polygon fill="midnightblue" stroke="midnightblue" points="677.14,-263.98 687.69,-262.94 678.79,-257.18 677.14,-263.98"/>
</g>
<!-- Node3&#45;&gt;Node5 -->
<g id="edge4" class="edge">
<title>Node3&#45;&gt;Node5</title>
<path fill="none" stroke="midnightblue" d="M699.86,-257.44C678.67,-244.57 647.98,-225.93 630.2,-215.13"/>
<polygon fill="midnightblue" stroke="midnightblue" points="698.21,-260.53 708.57,-262.73 701.84,-254.55 698.21,-260.53"/>
</g>
<!-- Node6 -->
<g id="node6" class="node">
<title>Node6</title>
<g id="a_node6"><a xlink:href="TimeManager_8hpp.html" target="_top" xlink:title=" ">
<polygon fill="none" stroke="black" points="138,-129 138,-148 294,-148 294,-129 138,-129"/>
<text text-anchor="middle" x="216" y="-136" font-family="Helvetica,sans-Serif" font-size="10.00">src/Managers/TimeManager.hpp</text>
</a>
</g>
</g>
<!-- Node5&#45;&gt;Node6 -->
<g id="edge5" class="edge">
<title>Node5&#45;&gt;Node6</title>
<path fill="none" stroke="midnightblue" d="M567.48,-193.92C560.62,-192.53 553.64,-191.19 547,-190 439.09,-170.72 411.29,-171.01 303,-154 291.05,-152.12 278.19,-150.02 266.12,-148.02"/>
<polygon fill="midnightblue" stroke="midnightblue" points="566.9,-197.37 577.4,-195.96 568.31,-190.51 566.9,-197.37"/>
</g>
<!-- Node11 -->
<g id="node11" class="node">
<title>Node11</title>
<g id="a_node11"><a xlink:href="Window_8cpp.html" target="_top" xlink:title=" ">
<polygon fill="none" stroke="black" points="0,-129 0,-148 120,-148 120,-129 0,-129"/>
<text text-anchor="middle" x="60" y="-136" font-family="Helvetica,sans-Serif" font-size="10.00">src/Models/Window.cpp</text>
</a>
</g>
</g>
<!-- Node5&#45;&gt;Node11 -->
<g id="edge10" class="edge">
<title>Node5&#45;&gt;Node11</title>
<path fill="none" stroke="midnightblue" d="M569.81,-193.99C562.22,-192.49 554.41,-191.09 547,-190 362.53,-162.78 313.47,-181.22 129,-154 118.34,-152.43 106.86,-150.22 96.38,-148.01"/>
<polygon fill="midnightblue" stroke="midnightblue" points="569.12,-197.42 579.62,-195.99 570.53,-190.56 569.12,-197.42"/>
</g>
<!-- Node12 -->
<g id="node12" class="node">
<title>Node12</title>
<g id="a_node12"><a xlink:href="FpsCounterSubsystem_8hpp.html" target="_top" xlink:title=" ">
<polygon fill="none" stroke="black" points="312,-123.5 312,-153.5 452,-153.5 452,-123.5 312,-123.5"/>
<text text-anchor="start" x="320" y="-141.5" font-family="Helvetica,sans-Serif" font-size="10.00">src/Subsystems/FpsCounter</text>
<text text-anchor="middle" x="382" y="-130.5" font-family="Helvetica,sans-Serif" font-size="10.00">Subsystem.hpp</text>
</a>
</g>
</g>
<!-- Node5&#45;&gt;Node12 -->
<g id="edge11" class="edge">
<title>Node5&#45;&gt;Node12</title>
<path fill="none" stroke="midnightblue" d="M575.06,-193.13C535.39,-182.11 475.13,-165.37 432.5,-153.53"/>
<polygon fill="midnightblue" stroke="midnightblue" points="574.35,-196.56 584.93,-195.87 576.23,-189.82 574.35,-196.56"/>
</g>
<!-- Node14 -->
<g id="node14" class="node">
<title>Node14</title>
<g id="a_node14"><a xlink:href="RenderSubsystem_8hpp.html" target="_top" xlink:title=" ">
<polygon fill="none" stroke="black" points="470,-129 470,-148 658,-148 658,-129 470,-129"/>
<text text-anchor="middle" x="564" y="-136" font-family="Helvetica,sans-Serif" font-size="10.00">src/Subsystems/RenderSubsystem.hpp</text>
</a>
</g>
</g>
<!-- Node5&#45;&gt;Node14 -->
<g id="edge15" class="edge">
<title>Node5&#45;&gt;Node14</title>
<path fill="none" stroke="midnightblue" d="M602.62,-187.77C592.48,-175.1 578.96,-158.2 570.9,-148.13"/>
<polygon fill="midnightblue" stroke="midnightblue" points="600.01,-190.11 608.99,-195.73 605.47,-185.74 600.01,-190.11"/>
</g>
<!-- Node7 -->
<g id="node7" class="node">
<title>Node7</title>
<g id="a_node7"><a xlink:href="Engine_8cpp.html" target="_top" xlink:title=" ">
<polygon fill="none" stroke="black" points="334,-0.5 334,-19.5 432,-19.5 432,-0.5 334,-0.5"/>
<text text-anchor="middle" x="383" y="-7.5" font-family="Helvetica,sans-Serif" font-size="10.00">src/Api/Engine.cpp</text>
</a>
</g>
</g>
<!-- Node6&#45;&gt;Node7 -->
<g id="edge6" class="edge">
<title>Node6&#45;&gt;Node7</title>
<path fill="none" stroke="midnightblue" d="M223.75,-119.35C232.37,-101.08 247.92,-73.22 269,-56 291.16,-37.89 321.5,-26.39 345.31,-19.55"/>
<polygon fill="midnightblue" stroke="midnightblue" points="220.49,-118.05 219.58,-128.61 226.87,-120.93 220.49,-118.05"/>
</g>
<!-- Node8 -->
<g id="node8" class="node">
<title>Node8</title>
<g id="a_node8"><a xlink:href="src_2Api_2Time_8cpp.html" target="_top" xlink:title=" ">
<polygon fill="none" stroke="black" points="132,-62 132,-81 222,-81 222,-62 132,-62"/>
<text text-anchor="middle" x="177" y="-69" font-family="Helvetica,sans-Serif" font-size="10.00">src/Api/Time.cpp</text>
</a>
</g>
</g>
<!-- Node6&#45;&gt;Node8 -->
<g id="edge7" class="edge">
<title>Node6&#45;&gt;Node8</title>
<path fill="none" stroke="midnightblue" d="M205.52,-120.03C197.97,-107.45 188.1,-91.01 182.18,-81.13"/>
<polygon fill="midnightblue" stroke="midnightblue" points="202.59,-121.96 210.74,-128.73 208.6,-118.36 202.59,-121.96"/>
</g>
<!-- Node9 -->
<g id="node9" class="node">
<title>Node9</title>
<g id="a_node9"><a xlink:href="TimeManager_8cpp.html" target="_top" xlink:title=" ">
<polygon fill="none" stroke="black" points="1008,-62 1008,-81 1164,-81 1164,-62 1008,-62"/>
<text text-anchor="middle" x="1086" y="-69" font-family="Helvetica,sans-Serif" font-size="10.00">src/Managers/TimeManager.cpp</text>
</a>
</g>
</g>
<!-- Node6&#45;&gt;Node9 -->
<g id="edge8" class="edge">
<title>Node6&#45;&gt;Node9</title>
<path fill="none" stroke="midnightblue" d="M272.04,-127.31C282.31,-125.68 292.96,-124.16 303,-123 560.11,-93.36 866.88,-79.9 1007.97,-74.93"/>
<polygon fill="midnightblue" stroke="midnightblue" points="271.24,-123.89 261.93,-128.96 272.36,-130.8 271.24,-123.89"/>
</g>
<!-- Node10 -->
<g id="node10" class="node">
<title>Node10</title>
<g id="a_node10"><a xlink:href="FpsCounterSubsystem_8cpp.html" target="_top" xlink:title=" ">
<polygon fill="none" stroke="black" points="278,-56.5 278,-86.5 418,-86.5 418,-56.5 278,-56.5"/>
<text text-anchor="start" x="286" y="-74.5" font-family="Helvetica,sans-Serif" font-size="10.00">src/Subsystems/FpsCounter</text>
<text text-anchor="middle" x="348" y="-63.5" font-family="Helvetica,sans-Serif" font-size="10.00">Subsystem.cpp</text>
</a>
</g>
</g>
<!-- Node6&#45;&gt;Node10 -->
<g id="edge9" class="edge">
<title>Node6&#45;&gt;Node10</title>
<path fill="none" stroke="midnightblue" d="M242.72,-124.34C264.94,-113.4 296.5,-97.86 319.26,-86.65"/>
<polygon fill="midnightblue" stroke="midnightblue" points="240.95,-121.31 233.53,-128.87 244.05,-127.59 240.95,-121.31"/>
</g>
<!-- Node12&#45;&gt;Node10 -->
<g id="edge12" class="edge">
<title>Node12&#45;&gt;Node10</title>
<path fill="none" stroke="midnightblue" d="M369.86,-114.28C365.01,-105.02 359.59,-94.66 355.36,-86.58"/>
<polygon fill="midnightblue" stroke="midnightblue" points="366.89,-116.16 374.62,-123.4 373.09,-112.91 366.89,-116.16"/>
</g>
<!-- Node13 -->
<g id="node13" class="node">
<title>Node13</title>
<g id="a_node13"><a xlink:href="Subsystems_8hpp.html" target="_top" xlink:title=" ">
<polygon fill="none" stroke="black" points="436,-62 436,-81 598,-81 598,-62 436,-62"/>
<text text-anchor="middle" x="517" y="-69" font-family="Helvetica,sans-Serif" font-size="10.00">src/Subsystems/Subsystems.hpp</text>
</a>
</g>
</g>
<!-- Node12&#45;&gt;Node13 -->
<g id="edge13" class="edge">
<title>Node12&#45;&gt;Node13</title>
<path fill="none" stroke="midnightblue" d="M420.49,-118.97C446.42,-106.48 479.41,-90.6 499.33,-81.01"/>
<polygon fill="midnightblue" stroke="midnightblue" points="418.78,-115.9 411.29,-123.4 421.82,-122.21 418.78,-115.9"/>
</g>
<!-- Node13&#45;&gt;Node7 -->
<g id="edge14" class="edge">
<title>Node13&#45;&gt;Node7</title>
<path fill="none" stroke="midnightblue" d="M488.46,-57.83C462.45,-46.28 424.74,-29.53 402.16,-19.51"/>
<polygon fill="midnightblue" stroke="midnightblue" points="487.24,-61.12 497.8,-61.98 490.08,-54.72 487.24,-61.12"/>
</g>
<!-- Node14&#45;&gt;Node13 -->
<g id="edge17" class="edge">
<title>Node14&#45;&gt;Node13</title>
<path fill="none" stroke="midnightblue" d="M551.64,-120.4C542.51,-107.77 530.45,-91.1 523.24,-81.13"/>
<polygon fill="midnightblue" stroke="midnightblue" points="548.97,-122.68 557.66,-128.73 554.64,-118.58 548.97,-122.68"/>
</g>
<!-- Node15 -->
<g id="node15" class="node">
<title>Node15</title>
<g id="a_node15"><a xlink:href="RenderSubsystem_8cpp.html" target="_top" xlink:title=" ">
<polygon fill="none" stroke="black" points="1390,-62 1390,-81 1578,-81 1578,-62 1390,-62"/>
<text text-anchor="middle" x="1484" y="-69" font-family="Helvetica,sans-Serif" font-size="10.00">src/Subsystems/RenderSubsystem.cpp</text>
</a>
</g>
</g>
<!-- Node14&#45;&gt;Node15 -->
<g id="edge16" class="edge">
<title>Node14&#45;&gt;Node15</title>
<path fill="none" stroke="midnightblue" d="M631.71,-127.66C645.04,-125.93 658.95,-124.28 672,-123 808.79,-109.58 1206.92,-87.38 1389.95,-77.5"/>
<polygon fill="midnightblue" stroke="midnightblue" points="631.1,-124.21 621.64,-128.99 632.01,-131.15 631.1,-124.21"/>
</g>
<!-- Node16&#45;&gt;Node15 -->
<g id="edge22" class="edge">
<title>Node16&#45;&gt;Node15</title>
<path fill="none" stroke="midnightblue" d="M800.72,-194.01C742.7,-182.06 671.94,-159.34 706,-123 717.56,-110.66 1185.33,-86.81 1389.88,-76.94"/>
<polygon fill="midnightblue" stroke="midnightblue" points="800.15,-197.47 810.64,-195.98 801.51,-190.6 800.15,-197.47"/>
</g>
<!-- Node17 -->
<g id="node17" class="node">
<title>Node17</title>
<g id="a_node17"><a xlink:href="Debug_8cpp.html" target="_top" xlink:title=" ">
<polygon fill="none" stroke="black" points="870,-129 870,-148 966,-148 966,-129 870,-129"/>
<text text-anchor="middle" x="918" y="-136" font-family="Helvetica,sans-Serif" font-size="10.00">src/Api/Debug.cpp</text>
</a>
</g>
</g>
<!-- Node16&#45;&gt;Node17 -->
<g id="edge20" class="edge">
<title>Node16&#45;&gt;Node17</title>
<path fill="none" stroke="midnightblue" d="M879.38,-187.77C889.52,-175.1 903.04,-158.2 911.1,-148.13"/>
<polygon fill="midnightblue" stroke="midnightblue" points="876.53,-185.74 873.01,-195.73 881.99,-190.11 876.53,-185.74"/>
</g>
<!-- Node18 -->
<g id="node18" class="node">
<title>Node18</title>
<g id="a_node18"><a xlink:href="DebugLines_8cpp.html" target="_top" xlink:title=" ">
<polygon fill="none" stroke="black" points="714.5,-129 714.5,-148 851.5,-148 851.5,-129 714.5,-129"/>
<text text-anchor="middle" x="783" y="-136" font-family="Helvetica,sans-Serif" font-size="10.00">src/Structs/DebugLines.cpp</text>
</a>
</g>
</g>
<!-- Node16&#45;&gt;Node18 -->
<g id="edge21" class="edge">
<title>Node16&#45;&gt;Node18</title>
<path fill="none" stroke="midnightblue" d="M846.93,-189.57C830.55,-176.74 807.5,-158.69 794.02,-148.13"/>
<polygon fill="midnightblue" stroke="midnightblue" points="844.78,-192.32 854.81,-195.73 849.09,-186.81 844.78,-192.32"/>
</g>
<!-- Node20&#45;&gt;Node19 -->
<g id="edge26" class="edge">
<title>Node20&#45;&gt;Node19</title>
<path fill="none" stroke="midnightblue" d="M1647.96,-250.15C1630.8,-233.43 1613.75,-209.76 1627,-190 1640.5,-169.87 1663.61,-157.75 1686.19,-150.47"/>
<polygon fill="midnightblue" stroke="midnightblue" points="1646.01,-253.12 1655.74,-257.31 1650.75,-247.96 1646.01,-253.12"/>
</g>
<!-- Node21 -->
<g id="node21" class="node">
<title>Node21</title>
<g id="a_node21"><a xlink:href="Camera_8cpp.html" target="_top" xlink:title=" ">
<polygon fill="none" stroke="black" points="1636,-196 1636,-215 1738,-215 1738,-196 1636,-196"/>
<text text-anchor="middle" x="1687" y="-203" font-family="Helvetica,sans-Serif" font-size="10.00">src/Api/Camera.cpp</text>
</a>
</g>
</g>
<!-- Node20&#45;&gt;Node21 -->
<g id="edge25" class="edge">
<title>Node20&#45;&gt;Node21</title>
<path fill="none" stroke="midnightblue" d="M1678.85,-247.25C1681.1,-236.02 1683.62,-223.38 1685.26,-215.19"/>
<polygon fill="midnightblue" stroke="midnightblue" points="1675.35,-246.9 1676.82,-257.4 1682.21,-248.28 1675.35,-246.9"/>
</g>
<!-- Node23&#45;&gt;Node9 -->
<g id="edge31" class="edge">
<title>Node23&#45;&gt;Node9</title>
<path fill="none" stroke="midnightblue" d="M1370.23,-186.91C1408.46,-172.25 1447.87,-149.53 1425,-123 1392.02,-84.75 1253.73,-75.02 1164.28,-72.81"/>
<polygon fill="midnightblue" stroke="midnightblue" points="1368.76,-183.73 1360.58,-190.47 1371.17,-190.3 1368.76,-183.73"/>
</g>
<!-- Node23&#45;&gt;Node17 -->
<g id="edge29" class="edge">
<title>Node23&#45;&gt;Node17</title>
<path fill="none" stroke="midnightblue" d="M1239.15,-195.65C1170.42,-186.89 1065.32,-172.19 975,-154 966.59,-152.31 957.56,-150.16 949.23,-148.05"/>
<polygon fill="midnightblue" stroke="midnightblue" points="1239.08,-199.16 1249.44,-196.95 1239.96,-192.22 1239.08,-199.16"/>
</g>
<!-- Node23&#45;&gt;Node19 -->
<g id="edge35" class="edge">
<title>Node23&#45;&gt;Node19</title>
<path fill="none" stroke="midnightblue" d="M1386.53,-193.56C1470.56,-181.06 1606.73,-160.81 1686.38,-148.96"/>
<polygon fill="midnightblue" stroke="midnightblue" points="1385.92,-190.12 1376.54,-195.05 1386.95,-197.04 1385.92,-190.12"/>
</g>
<!-- Node24 -->
<g id="node24" class="node">
<title>Node24</title>
<g id="a_node24"><a xlink:href="AudioManager_8cpp.html" target="_top" xlink:title=" ">
<polygon fill="none" stroke="black" points="1471.5,-129 1471.5,-148 1630.5,-148 1630.5,-129 1471.5,-129"/>
<text text-anchor="middle" x="1551" y="-136" font-family="Helvetica,sans-Serif" font-size="10.00">src/Managers/AudioManager.cpp</text>
</a>
</g>
</g>
<!-- Node23&#45;&gt;Node24 -->
<g id="edge30" class="edge">
<title>Node23&#45;&gt;Node24</title>
<path fill="none" stroke="midnightblue" d="M1374.04,-187.83C1420.62,-175.11 1482.87,-158.11 1519.77,-148.03"/>
<polygon fill="midnightblue" stroke="midnightblue" points="1373.07,-184.46 1364.35,-190.48 1374.92,-191.22 1373.07,-184.46"/>
</g>
<!-- Node25 -->
<g id="node25" class="node">
<title>Node25</title>
<g id="a_node25"><a xlink:href="Texture_8cpp.html" target="_top" xlink:title=" ">
<polygon fill="none" stroke="black" points="984,-129 984,-148 1102,-148 1102,-129 984,-129"/>
<text text-anchor="middle" x="1043" y="-136" font-family="Helvetica,sans-Serif" font-size="10.00">src/Models/Texture.cpp</text>
</a>
</g>
</g>
<!-- Node23&#45;&gt;Node25 -->
<g id="edge32" class="edge">
<title>Node23&#45;&gt;Node25</title>
<path fill="none" stroke="midnightblue" d="M1244.75,-188.07C1191.8,-175.32 1120.55,-158.17 1078.43,-148.03"/>
<polygon fill="midnightblue" stroke="midnightblue" points="1244.2,-191.54 1254.75,-190.48 1245.84,-184.73 1244.2,-191.54"/>
</g>
<!-- Node26 -->
<g id="node26" class="node">
<title>Node26</title>
<g id="a_node26"><a xlink:href="BehaviourScriptSubsystem_8cpp.html" target="_top" xlink:title=" ">
<polygon fill="none" stroke="black" points="1120,-123.5 1120,-153.5 1254,-153.5 1254,-123.5 1120,-123.5"/>
<text text-anchor="start" x="1128" y="-141.5" font-family="Helvetica,sans-Serif" font-size="10.00">src/Subsystems/Behaviour</text>
<text text-anchor="middle" x="1187" y="-130.5" font-family="Helvetica,sans-Serif" font-size="10.00">ScriptSubsystem.cpp</text>
</a>
</g>
</g>
<!-- Node23&#45;&gt;Node26 -->
<g id="edge33" class="edge">
<title>Node23&#45;&gt;Node26</title>
<path fill="none" stroke="midnightblue" d="M1276.58,-185.71C1256.71,-175.46 1232.52,-162.98 1214.29,-153.58"/>
<polygon fill="midnightblue" stroke="midnightblue" points="1275.17,-188.92 1285.66,-190.4 1278.38,-182.7 1275.17,-188.92"/>
</g>
<!-- Node27 -->
<g id="node27" class="node">
<title>Node27</title>
<g id="a_node27"><a xlink:href="GameSpeedSubsystem_8cpp.html" target="_top" xlink:title=" ">
<polygon fill="none" stroke="black" points="1272,-123.5 1272,-153.5 1416,-153.5 1416,-123.5 1272,-123.5"/>
<text text-anchor="start" x="1280" y="-141.5" font-family="Helvetica,sans-Serif" font-size="10.00">src/Subsystems/GameSpeed</text>
<text text-anchor="middle" x="1344" y="-130.5" font-family="Helvetica,sans-Serif" font-size="10.00">Subsystem.cpp</text>
</a>
</g>
</g>
<!-- Node23&#45;&gt;Node27 -->
<g id="edge34" class="edge">
<title>Node23&#45;&gt;Node27</title>
<path fill="none" stroke="midnightblue" d="M1324.07,-181.28C1328.49,-172.02 1333.43,-161.66 1337.29,-153.58"/>
<polygon fill="midnightblue" stroke="midnightblue" points="1320.87,-179.86 1319.73,-190.4 1327.19,-182.88 1320.87,-179.86"/>
</g>
<!-- Node28&#45;&gt;Node15 -->
<g id="edge38" class="edge">
<title>Node28&#45;&gt;Node15</title>
<path fill="none" stroke="midnightblue" d="M1859.92,-246.87C1861.03,-213.57 1857.51,-154.74 1823,-123 1788.18,-90.98 1665.84,-79.25 1578.13,-74.96"/>
<polygon fill="midnightblue" stroke="midnightblue" points="1856.41,-246.94 1859.4,-257.1 1863.4,-247.29 1856.41,-246.94"/>
</g>
<!-- Node28&#45;&gt;Node19 -->
<g id="edge43" class="edge">
<title>Node28&#45;&gt;Node19</title>
<path fill="none" stroke="midnightblue" d="M1840.04,-249.54C1817.71,-222.25 1780.26,-176.48 1761.47,-153.52"/>
<polygon fill="midnightblue" stroke="midnightblue" points="1837.4,-251.85 1846.44,-257.37 1842.82,-247.42 1837.4,-251.85"/>
</g>
<!-- Node29 -->
<g id="node29" class="node">
<title>Node29</title>
<g id="a_node29"><a xlink:href="Sprite_8cpp.html" target="_top" xlink:title=" ">
<polygon fill="none" stroke="black" points="2016,-196 2016,-215 2110,-215 2110,-196 2016,-196"/>
<text text-anchor="middle" x="2063" y="-203" font-family="Helvetica,sans-Serif" font-size="10.00">src/Api/Sprite.cpp</text>
</a>
</g>
</g>
<!-- Node28&#45;&gt;Node29 -->
<g id="edge37" class="edge">
<title>Node28&#45;&gt;Node29</title>
<path fill="none" stroke="midnightblue" d="M1911.84,-254.43C1951.81,-241.75 2004.65,-225 2036.1,-215.03"/>
<polygon fill="midnightblue" stroke="midnightblue" points="1910.7,-251.12 1902.23,-257.48 1912.82,-257.79 1910.7,-251.12"/>
</g>
<!-- Node30 -->
<g id="node30" class="node">
<title>Node30</title>
<g id="a_node30"><a xlink:href="Animator_8hpp.html" target="_top" xlink:title=" ">
<polygon fill="none" stroke="black" points="1870.5,-190.5 1870.5,-220.5 1997.5,-220.5 1997.5,-190.5 1870.5,-190.5"/>
<text text-anchor="start" x="1878.5" y="-208.5" font-family="Helvetica,sans-Serif" font-size="10.00">includes/spic&#45;api&#45;headers</text>
<text text-anchor="middle" x="1934" y="-197.5" font-family="Helvetica,sans-Serif" font-size="10.00">/Animator.hpp</text>
</a>
</g>
</g>
<!-- Node28&#45;&gt;Node30 -->
<g id="edge39" class="edge">
<title>Node28&#45;&gt;Node30</title>
<path fill="none" stroke="midnightblue" d="M1882.11,-250.88C1893.66,-241.01 1907.19,-229.43 1917.54,-220.58"/>
<polygon fill="midnightblue" stroke="midnightblue" points="1879.82,-248.24 1874.49,-257.4 1884.37,-253.56 1879.82,-248.24"/>
</g>
<!-- Node30&#45;&gt;Node19 -->
<g id="edge42" class="edge">
<title>Node30&#45;&gt;Node19</title>
<path fill="none" stroke="midnightblue" d="M1884.33,-186.96C1854.7,-176.48 1817.56,-163.37 1789.85,-153.58"/>
<polygon fill="midnightblue" stroke="midnightblue" points="1883.48,-190.37 1894.07,-190.4 1885.81,-183.76 1883.48,-190.37"/>
</g>
<!-- Node31 -->
<g id="node31" class="node">
<title>Node31</title>
<g id="a_node31"><a xlink:href="Animator_8cpp.html" target="_top" xlink:title=" ">
<polygon fill="none" stroke="black" points="1875.5,-129 1875.5,-148 1982.5,-148 1982.5,-129 1875.5,-129"/>
<text text-anchor="middle" x="1929" y="-136" font-family="Helvetica,sans-Serif" font-size="10.00">src/Api/Animator.cpp</text>
</a>
</g>
</g>
<!-- Node30&#45;&gt;Node31 -->
<g id="edge40" class="edge">
<title>Node30&#45;&gt;Node31</title>
<path fill="none" stroke="midnightblue" d="M1932.13,-180.25C1931.27,-169.02 1930.3,-156.38 1929.67,-148.19"/>
<polygon fill="midnightblue" stroke="midnightblue" points="1928.66,-180.69 1932.92,-190.4 1935.64,-180.16 1928.66,-180.69"/>
</g>
<!-- Node32 -->
<g id="node32" class="node">
<title>Node32</title>
<g id="a_node32"><a xlink:href="AnimatorSubsystem_8cpp.html" target="_top" xlink:title=" ">
<polygon fill="none" stroke="black" points="2000,-129 2000,-148 2196,-148 2196,-129 2000,-129"/>
<text text-anchor="middle" x="2098" y="-136" font-family="Helvetica,sans-Serif" font-size="10.00">src/Subsystems/AnimatorSubsystem.cpp</text>
</a>
</g>
</g>
<!-- Node30&#45;&gt;Node32 -->
<g id="edge41" class="edge">
<title>Node30&#45;&gt;Node32</title>
<path fill="none" stroke="midnightblue" d="M1979.11,-186.62C2010.85,-174.04 2051.91,-157.77 2076.54,-148.01"/>
<polygon fill="midnightblue" stroke="midnightblue" points="1977.59,-183.46 1969.59,-190.4 1980.17,-189.97 1977.59,-183.46"/>
</g>
<!-- Node33&#45;&gt;Node5 -->
<g id="edge46" class="edge">
<title>Node33&#45;&gt;Node5</title>
<path fill="none" stroke="midnightblue" d="M1310.37,-265.27C1158.95,-252.45 815.22,-223.36 676.11,-211.59"/>
<polygon fill="midnightblue" stroke="midnightblue" points="1310.24,-268.77 1320.5,-266.13 1310.83,-261.79 1310.24,-268.77"/>
</g>
<!-- Node33&#45;&gt;Node15 -->
<g id="edge47" class="edge">
<title>Node33&#45;&gt;Node15</title>
<path fill="none" stroke="midnightblue" d="M1393.75,-248.29C1402.89,-229.51 1418.39,-203.96 1440,-190 1515.87,-141 1582.07,-223.29 1640,-154 1672.73,-114.85 1596.37,-92.1 1539.32,-81.01"/>
<polygon fill="midnightblue" stroke="midnightblue" points="1390.56,-246.85 1389.55,-257.4 1396.92,-249.78 1390.56,-246.85"/>
</g>
<!-- Node33&#45;&gt;Node19 -->
<g id="edge48" class="edge">
<title>Node33&#45;&gt;Node19</title>
<path fill="none" stroke="midnightblue" d="M1407.22,-250.3C1431.21,-228.83 1467.4,-197.73 1484,-190 1486.32,-188.92 1608.37,-165.98 1686.32,-151.39"/>
<polygon fill="midnightblue" stroke="midnightblue" points="1404.69,-247.87 1399.6,-257.16 1409.38,-253.07 1404.69,-247.87"/>
</g>
<!-- Node34 -->
<g id="node34" class="node">
<title>Node34</title>
<g id="a_node34"><a xlink:href="Text_8cpp.html" target="_top" xlink:title=" ">
<polygon fill="none" stroke="black" points="1492.5,-196 1492.5,-215 1579.5,-215 1579.5,-196 1492.5,-196"/>
<text text-anchor="middle" x="1536" y="-203" font-family="Helvetica,sans-Serif" font-size="10.00">src/Api/Text.cpp</text>
</a>
</g>
</g>
<!-- Node33&#45;&gt;Node34 -->
<g id="edge45" class="edge">
<title>Node33&#45;&gt;Node34</title>
<path fill="none" stroke="midnightblue" d="M1426.19,-253.46C1455.56,-240.9 1493.38,-224.72 1516.11,-215.01"/>
<polygon fill="midnightblue" stroke="midnightblue" points="1424.8,-250.25 1416.98,-257.4 1427.55,-256.68 1424.8,-250.25"/>
</g>
</g>
</svg>
