<?xml version="1.0" encoding="UTF-8" standalone="no"?>
<!DOCTYPE svg PUBLIC "-//W3C//DTD SVG 1.1//EN"
 "http://www.w3.org/Graphics/SVG/1.1/DTD/svg11.dtd">
<!-- Generated by graphviz version 2.44.0 ()
 -->
<!-- Title: includes/spic&#45;api&#45;headers/Color.hpp Pages: 1 -->
<svg width="2012pt" height="363pt"
 viewBox="0.00 0.00 2011.60 363.00" xmlns="http://www.w3.org/2000/svg" xmlns:xlink="http://www.w3.org/1999/xlink">
<g id="graph0" class="graph" transform="scale(1 1) rotate(0) translate(4 359)">
<title>includes/spic&#45;api&#45;headers/Color.hpp</title>
<!-- Node1 -->
<g id="node1" class="node">
<title>Node1</title>
<g id="a_node1"><a xlink:title=" ">
<polygon fill="#bfbfbf" stroke="black" points="990.6,-324.5 990.6,-354.5 1117.6,-354.5 1117.6,-324.5 990.6,-324.5"/>
<text text-anchor="start" x="998.6" y="-342.5" font-family="Helvetica,sans-Serif" font-size="10.00">includes/spic&#45;api&#45;headers</text>
<text text-anchor="middle" x="1054.1" y="-331.5" font-family="Helvetica,sans-Serif" font-size="10.00">/Color.hpp</text>
</a>
</g>
</g>
<!-- Node2 -->
<g id="node2" class="node">
<title>Node2</title>
<g id="a_node2"><a xlink:href="src_2Api_2Color_8cpp.html" target="_top" xlink:title=" ">
<polygon fill="none" stroke="black" points="560.6,-263 560.6,-282 651.6,-282 651.6,-263 560.6,-263"/>
<text text-anchor="middle" x="606.1" y="-270" font-family="Helvetica,sans-Serif" font-size="10.00">src/Api/Color.cpp</text>
</a>
</g>
</g>
<!-- Node1&#45;&gt;Node2 -->
<g id="edge1" class="edge">
<title>Node1&#45;&gt;Node2</title>
<path fill="none" stroke="midnightblue" d="M980.35,-331.29C902.02,-323.08 774.76,-308.14 666.1,-288 657.14,-286.34 647.52,-284.18 638.66,-282.04"/>
<polygon fill="midnightblue" stroke="midnightblue" points="980.29,-334.8 990.6,-332.36 981.01,-327.84 980.29,-334.8"/>
</g>
<!-- Node3 -->
<g id="node3" class="node">
<title>Node3</title>
<g id="a_node3"><a xlink:href="Window_8hpp.html" target="_top" xlink:title=" ">
<polygon fill="none" stroke="black" points="387.1,-196 387.1,-215 507.1,-215 507.1,-196 387.1,-196"/>
<text text-anchor="middle" x="447.1" y="-203" font-family="Helvetica,sans-Serif" font-size="10.00">src/Models/Window.hpp</text>
</a>
</g>
</g>
<!-- Node1&#45;&gt;Node3 -->
<g id="edge2" class="edge">
<title>Node1&#45;&gt;Node3</title>
<path fill="none" stroke="midnightblue" d="M980.21,-339.09C906.42,-337.16 791.17,-327.22 700.1,-288 679.76,-279.24 681.02,-266.66 661.1,-257 612.15,-233.26 551.39,-220.3 507.13,-213.48"/>
<polygon fill="midnightblue" stroke="midnightblue" points="980.27,-342.59 990.34,-339.31 980.42,-335.59 980.27,-342.59"/>
</g>
<!-- Node14 -->
<g id="node14" class="node">
<title>Node14</title>
<g id="a_node14"><a xlink:href="Api_8hpp.html" target="_top" xlink:title=" ">
<polygon fill="none" stroke="black" points="1096.6,-123.5 1096.6,-153.5 1223.6,-153.5 1223.6,-123.5 1096.6,-123.5"/>
<text text-anchor="start" x="1104.6" y="-141.5" font-family="Helvetica,sans-Serif" font-size="10.00">includes/spic&#45;api&#45;headers</text>
<text text-anchor="middle" x="1160.1" y="-130.5" font-family="Helvetica,sans-Serif" font-size="10.00">/Api.hpp</text>
</a>
</g>
</g>
<!-- Node1&#45;&gt;Node14 -->
<g id="edge16" class="edge">
<title>Node1&#45;&gt;Node14</title>
<path fill="none" stroke="midnightblue" d="M1066.44,-315.33C1088.59,-273.74 1134.47,-187.61 1152.54,-153.68"/>
<polygon fill="midnightblue" stroke="midnightblue" points="1063.33,-313.72 1061.72,-324.19 1069.51,-317.01 1063.33,-313.72"/>
</g>
<!-- Node15 -->
<g id="node15" class="node">
<title>Node15</title>
<g id="a_node15"><a xlink:href="Camera_8hpp.html" target="_top" xlink:title=" ">
<polygon fill="none" stroke="black" points="1139.6,-257.5 1139.6,-287.5 1266.6,-287.5 1266.6,-257.5 1139.6,-257.5"/>
<text text-anchor="start" x="1147.6" y="-275.5" font-family="Helvetica,sans-Serif" font-size="10.00">includes/spic&#45;api&#45;headers</text>
<text text-anchor="middle" x="1203.1" y="-264.5" font-family="Helvetica,sans-Serif" font-size="10.00">/Camera.hpp</text>
</a>
</g>
</g>
<!-- Node1&#45;&gt;Node15 -->
<g id="edge17" class="edge">
<title>Node1&#45;&gt;Node15</title>
<path fill="none" stroke="midnightblue" d="M1095.89,-320.27C1119.62,-309.92 1148.88,-297.15 1170.83,-287.58"/>
<polygon fill="midnightblue" stroke="midnightblue" points="1094.19,-317.19 1086.43,-324.4 1096.99,-323.61 1094.19,-317.19"/>
</g>
<!-- Node17 -->
<g id="node17" class="node">
<title>Node17</title>
<g id="a_node17"><a xlink:href="includes_2spic-api-headers_2Color_8cpp.html" target="_top" xlink:title=" ">
<polygon fill="none" stroke="black" points="1323.6,-257.5 1323.6,-287.5 1450.6,-287.5 1450.6,-257.5 1323.6,-257.5"/>
<text text-anchor="start" x="1331.6" y="-275.5" font-family="Helvetica,sans-Serif" font-size="10.00">includes/spic&#45;api&#45;headers</text>
<text text-anchor="middle" x="1387.1" y="-264.5" font-family="Helvetica,sans-Serif" font-size="10.00">/Color.cpp</text>
</a>
</g>
</g>
<!-- Node1&#45;&gt;Node17 -->
<g id="edge20" class="edge">
<title>Node1&#45;&gt;Node17</title>
<path fill="none" stroke="midnightblue" d="M1127.85,-324.1C1186.5,-312.66 1267.69,-296.81 1323.5,-285.91"/>
<polygon fill="midnightblue" stroke="midnightblue" points="1127.05,-320.69 1117.91,-326.04 1128.39,-327.56 1127.05,-320.69"/>
</g>
<!-- Node18 -->
<g id="node18" class="node">
<title>Node18</title>
<g id="a_node18"><a xlink:href="Debug_8hpp.html" target="_top" xlink:title=" ">
<polygon fill="none" stroke="black" points="1459.6,-190.5 1459.6,-220.5 1586.6,-220.5 1586.6,-190.5 1459.6,-190.5"/>
<text text-anchor="start" x="1467.6" y="-208.5" font-family="Helvetica,sans-Serif" font-size="10.00">includes/spic&#45;api&#45;headers</text>
<text text-anchor="middle" x="1523.1" y="-197.5" font-family="Helvetica,sans-Serif" font-size="10.00">/Debug.hpp</text>
</a>
</g>
</g>
<!-- Node1&#45;&gt;Node18 -->
<g id="edge21" class="edge">
<title>Node1&#45;&gt;Node18</title>
<path fill="none" stroke="midnightblue" d="M1127.72,-330.18C1172.31,-323.13 1229.39,-310.43 1276.1,-288 1296.06,-278.42 1295.21,-266.73 1315.1,-257 1360.66,-234.71 1416.77,-221.84 1459.23,-214.67"/>
<polygon fill="midnightblue" stroke="midnightblue" points="1127.19,-326.72 1117.83,-331.69 1128.24,-333.64 1127.19,-326.72"/>
</g>
<!-- Node24 -->
<g id="node24" class="node">
<title>Node24</title>
<g id="a_node24"><a xlink:href="Sprite_8hpp.html" target="_top" xlink:title=" ">
<polygon fill="none" stroke="black" points="934.6,-257.5 934.6,-287.5 1061.6,-287.5 1061.6,-257.5 934.6,-257.5"/>
<text text-anchor="start" x="942.6" y="-275.5" font-family="Helvetica,sans-Serif" font-size="10.00">includes/spic&#45;api&#45;headers</text>
<text text-anchor="middle" x="998.1" y="-264.5" font-family="Helvetica,sans-Serif" font-size="10.00">/Sprite.hpp</text>
</a>
</g>
</g>
<!-- Node1&#45;&gt;Node24 -->
<g id="edge29" class="edge">
<title>Node1&#45;&gt;Node24</title>
<path fill="none" stroke="midnightblue" d="M1035.35,-316.74C1027.06,-307.12 1017.56,-296.09 1010.22,-287.58"/>
<polygon fill="midnightblue" stroke="midnightblue" points="1032.77,-319.1 1041.94,-324.4 1038.07,-314.54 1032.77,-319.1"/>
</g>
<!-- Node29 -->
<g id="node29" class="node">
<title>Node29</title>
<g id="a_node29"><a xlink:href="Text_8hpp.html" target="_top" xlink:title=" ">
<polygon fill="none" stroke="black" points="708.6,-257.5 708.6,-287.5 835.6,-287.5 835.6,-257.5 708.6,-257.5"/>
<text text-anchor="start" x="716.6" y="-275.5" font-family="Helvetica,sans-Serif" font-size="10.00">includes/spic&#45;api&#45;headers</text>
<text text-anchor="middle" x="772.1" y="-264.5" font-family="Helvetica,sans-Serif" font-size="10.00">/Text.hpp</text>
</a>
</g>
</g>
<!-- Node1&#45;&gt;Node29 -->
<g id="edge37" class="edge">
<title>Node1&#45;&gt;Node29</title>
<path fill="none" stroke="midnightblue" d="M983.32,-322.19C937.13,-311.54 877.45,-297.78 833.32,-287.61"/>
<polygon fill="midnightblue" stroke="midnightblue" points="982.72,-325.64 993.25,-324.48 984.29,-318.82 982.72,-325.64"/>
</g>
<!-- Node4 -->
<g id="node4" class="node">
<title>Node4</title>
<g id="a_node4"><a xlink:href="TimeManager_8hpp.html" target="_top" xlink:title=" ">
<polygon fill="none" stroke="black" points="5.1,-129 5.1,-148 161.1,-148 161.1,-129 5.1,-129"/>
<text text-anchor="middle" x="83.1" y="-136" font-family="Helvetica,sans-Serif" font-size="10.00">src/Managers/TimeManager.hpp</text>
</a>
</g>
</g>
<!-- Node3&#45;&gt;Node4 -->
<g id="edge3" class="edge">
<title>Node3&#45;&gt;Node4</title>
<path fill="none" stroke="midnightblue" d="M388.94,-194.12C317.4,-181.34 197.29,-159.89 130.87,-148.03"/>
<polygon fill="midnightblue" stroke="midnightblue" points="388.68,-197.62 399.13,-195.94 389.91,-190.73 388.68,-197.62"/>
</g>
<!-- Node9 -->
<g id="node9" class="node">
<title>Node9</title>
<g id="a_node9"><a xlink:href="Window_8cpp.html" target="_top" xlink:title=" ">
<polygon fill="none" stroke="black" points="337.1,-129 337.1,-148 457.1,-148 457.1,-129 337.1,-129"/>
<text text-anchor="middle" x="397.1" y="-136" font-family="Helvetica,sans-Serif" font-size="10.00">src/Models/Window.cpp</text>
</a>
</g>
</g>
<!-- Node3&#45;&gt;Node9 -->
<g id="edge8" class="edge">
<title>Node3&#45;&gt;Node9</title>
<path fill="none" stroke="midnightblue" d="M434.23,-187.77C424.48,-175.1 411.48,-158.2 403.73,-148.13"/>
<polygon fill="midnightblue" stroke="midnightblue" points="431.48,-189.94 440.35,-195.73 437.03,-185.67 431.48,-189.94"/>
</g>
<!-- Node10 -->
<g id="node10" class="node">
<title>Node10</title>
<g id="a_node10"><a xlink:href="FpsCounterSubsystem_8hpp.html" target="_top" xlink:title=" ">
<polygon fill="none" stroke="black" points="179.1,-123.5 179.1,-153.5 319.1,-153.5 319.1,-123.5 179.1,-123.5"/>
<text text-anchor="start" x="187.1" y="-141.5" font-family="Helvetica,sans-Serif" font-size="10.00">src/Subsystems/FpsCounter</text>
<text text-anchor="middle" x="249.1" y="-130.5" font-family="Helvetica,sans-Serif" font-size="10.00">Subsystem.hpp</text>
</a>
</g>
</g>
<!-- Node3&#45;&gt;Node10 -->
<g id="edge9" class="edge">
<title>Node3&#45;&gt;Node10</title>
<path fill="none" stroke="midnightblue" d="M410.95,-192.63C377.37,-181.61 327.36,-165.19 291.83,-153.53"/>
<polygon fill="midnightblue" stroke="midnightblue" points="410.21,-196.07 420.8,-195.87 412.39,-189.42 410.21,-196.07"/>
</g>
<!-- Node12 -->
<g id="node12" class="node">
<title>Node12</title>
<g id="a_node12"><a xlink:href="RenderSubsystem_8hpp.html" target="_top" xlink:title=" ">
<polygon fill="none" stroke="black" points="475.1,-129 475.1,-148 663.1,-148 663.1,-129 475.1,-129"/>
<text text-anchor="middle" x="569.1" y="-136" font-family="Helvetica,sans-Serif" font-size="10.00">src/Subsystems/RenderSubsystem.hpp</text>
</a>
</g>
</g>
<!-- Node3&#45;&gt;Node12 -->
<g id="edge13" class="edge">
<title>Node3&#45;&gt;Node12</title>
<path fill="none" stroke="midnightblue" d="M472.24,-191.1C496.4,-178.23 532.2,-159.16 552.83,-148.17"/>
<polygon fill="midnightblue" stroke="midnightblue" points="470.48,-188.08 463.3,-195.87 473.77,-194.26 470.48,-188.08"/>
</g>
<!-- Node5 -->
<g id="node5" class="node">
<title>Node5</title>
<g id="a_node5"><a xlink:href="Engine_8cpp.html" target="_top" xlink:title=" ">
<polygon fill="none" stroke="black" points="212.1,-0.5 212.1,-19.5 310.1,-19.5 310.1,-0.5 212.1,-0.5"/>
<text text-anchor="middle" x="261.1" y="-7.5" font-family="Helvetica,sans-Serif" font-size="10.00">src/Api/Engine.cpp</text>
</a>
</g>
</g>
<!-- Node4&#45;&gt;Node5 -->
<g id="edge4" class="edge">
<title>Node4&#45;&gt;Node5</title>
<path fill="none" stroke="midnightblue" d="M54.52,-124.06C24.73,-108.27 -14.9,-81.03 6.1,-56 31.85,-25.31 145.37,-15.54 211.95,-12.44"/>
<polygon fill="midnightblue" stroke="midnightblue" points="53.25,-127.35 63.75,-128.77 56.43,-121.11 53.25,-127.35"/>
</g>
<!-- Node6 -->
<g id="node6" class="node">
<title>Node6</title>
<g id="a_node6"><a xlink:href="src_2Api_2Time_8cpp.html" target="_top" xlink:title=" ">
<polygon fill="none" stroke="black" points="15.1,-62 15.1,-81 105.1,-81 105.1,-62 15.1,-62"/>
<text text-anchor="middle" x="60.1" y="-69" font-family="Helvetica,sans-Serif" font-size="10.00">src/Api/Time.cpp</text>
</a>
</g>
</g>
<!-- Node4&#45;&gt;Node6 -->
<g id="edge5" class="edge">
<title>Node4&#45;&gt;Node6</title>
<path fill="none" stroke="midnightblue" d="M76.65,-119.29C72.24,-106.81 66.58,-90.81 63.15,-81.13"/>
<polygon fill="midnightblue" stroke="midnightblue" points="73.36,-120.47 79.99,-128.73 79.96,-118.14 73.36,-120.47"/>
</g>
<!-- Node7 -->
<g id="node7" class="node">
<title>Node7</title>
<g id="a_node7"><a xlink:href="TimeManager_8cpp.html" target="_top" xlink:title=" ">
<polygon fill="none" stroke="black" points="281.1,-62 281.1,-81 437.1,-81 437.1,-62 281.1,-62"/>
<text text-anchor="middle" x="359.1" y="-69" font-family="Helvetica,sans-Serif" font-size="10.00">src/Managers/TimeManager.cpp</text>
</a>
</g>
</g>
<!-- Node4&#45;&gt;Node7 -->
<g id="edge6" class="edge">
<title>Node4&#45;&gt;Node7</title>
<path fill="none" stroke="midnightblue" d="M129.53,-126.56C183.94,-113.75 272.96,-92.78 322.65,-81.08"/>
<polygon fill="midnightblue" stroke="midnightblue" points="128.39,-123.24 119.46,-128.94 130,-130.05 128.39,-123.24"/>
</g>
<!-- Node8 -->
<g id="node8" class="node">
<title>Node8</title>
<g id="a_node8"><a xlink:href="FpsCounterSubsystem_8cpp.html" target="_top" xlink:title=" ">
<polygon fill="none" stroke="black" points="123.1,-56.5 123.1,-86.5 263.1,-86.5 263.1,-56.5 123.1,-56.5"/>
<text text-anchor="start" x="131.1" y="-74.5" font-family="Helvetica,sans-Serif" font-size="10.00">src/Subsystems/FpsCounter</text>
<text text-anchor="middle" x="193.1" y="-63.5" font-family="Helvetica,sans-Serif" font-size="10.00">Subsystem.cpp</text>
</a>
</g>
</g>
<!-- Node4&#45;&gt;Node8 -->
<g id="edge7" class="edge">
<title>Node4&#45;&gt;Node8</title>
<path fill="none" stroke="midnightblue" d="M106.61,-123.6C125.08,-112.69 150.7,-97.55 169.25,-86.59"/>
<polygon fill="midnightblue" stroke="midnightblue" points="104.76,-120.63 97.93,-128.73 108.32,-126.66 104.76,-120.63"/>
</g>
<!-- Node10&#45;&gt;Node8 -->
<g id="edge10" class="edge">
<title>Node10&#45;&gt;Node8</title>
<path fill="none" stroke="midnightblue" d="M230.35,-115.74C222.06,-106.12 212.56,-95.09 205.22,-86.58"/>
<polygon fill="midnightblue" stroke="midnightblue" points="227.77,-118.1 236.94,-123.4 233.07,-113.54 227.77,-118.1"/>
</g>
<!-- Node11 -->
<g id="node11" class="node">
<title>Node11</title>
<g id="a_node11"><a xlink:href="Subsystems_8hpp.html" target="_top" xlink:title=" ">
<polygon fill="none" stroke="black" points="455.1,-62 455.1,-81 617.1,-81 617.1,-62 455.1,-62"/>
<text text-anchor="middle" x="536.1" y="-69" font-family="Helvetica,sans-Serif" font-size="10.00">src/Subsystems/Subsystems.hpp</text>
</a>
</g>
</g>
<!-- Node10&#45;&gt;Node11 -->
<g id="edge11" class="edge">
<title>Node10&#45;&gt;Node11</title>
<path fill="none" stroke="midnightblue" d="M320.94,-121.23C377.29,-108.47 453.48,-91.21 498.44,-81.03"/>
<polygon fill="midnightblue" stroke="midnightblue" points="320,-117.85 311.02,-123.48 321.54,-124.68 320,-117.85"/>
</g>
<!-- Node11&#45;&gt;Node5 -->
<g id="edge12" class="edge">
<title>Node11&#45;&gt;Node5</title>
<path fill="none" stroke="midnightblue" d="M486.78,-59.83C433.45,-48.29 349.5,-30.13 300.42,-19.51"/>
<polygon fill="midnightblue" stroke="midnightblue" points="486.18,-63.28 496.69,-61.98 487.66,-56.44 486.18,-63.28"/>
</g>
<!-- Node12&#45;&gt;Node11 -->
<g id="edge15" class="edge">
<title>Node12&#45;&gt;Node11</title>
<path fill="none" stroke="midnightblue" d="M560.04,-119.66C553.68,-107.13 545.44,-90.91 540.48,-81.13"/>
<polygon fill="midnightblue" stroke="midnightblue" points="557,-121.4 564.65,-128.73 563.24,-118.23 557,-121.4"/>
</g>
<!-- Node13 -->
<g id="node13" class="node">
<title>Node13</title>
<g id="a_node13"><a xlink:href="RenderSubsystem_8cpp.html" target="_top" xlink:title=" ">
<polygon fill="none" stroke="black" points="635.1,-62 635.1,-81 823.1,-81 823.1,-62 635.1,-62"/>
<text text-anchor="middle" x="729.1" y="-69" font-family="Helvetica,sans-Serif" font-size="10.00">src/Subsystems/RenderSubsystem.cpp</text>
</a>
</g>
</g>
<!-- Node12&#45;&gt;Node13 -->
<g id="edge14" class="edge">
<title>Node12&#45;&gt;Node13</title>
<path fill="none" stroke="midnightblue" d="M599.61,-125.1C631.38,-112.2 680.29,-92.33 708.02,-81.06"/>
<polygon fill="midnightblue" stroke="midnightblue" points="598.29,-121.86 590.34,-128.87 600.92,-128.35 598.29,-121.86"/>
</g>
<!-- Node15&#45;&gt;Node14 -->
<g id="edge19" class="edge">
<title>Node15&#45;&gt;Node14</title>
<path fill="none" stroke="midnightblue" d="M1190.69,-248.1C1186.59,-239.72 1182.27,-230.09 1179.1,-221 1171.04,-197.96 1165.37,-170.06 1162.43,-153.6"/>
<polygon fill="midnightblue" stroke="midnightblue" points="1187.69,-249.91 1195.32,-257.26 1193.93,-246.76 1187.69,-249.91"/>
</g>
<!-- Node16 -->
<g id="node16" class="node">
<title>Node16</title>
<g id="a_node16"><a xlink:href="Camera_8cpp.html" target="_top" xlink:title=" ">
<polygon fill="none" stroke="black" points="1188.1,-196 1188.1,-215 1290.1,-215 1290.1,-196 1188.1,-196"/>
<text text-anchor="middle" x="1239.1" y="-203" font-family="Helvetica,sans-Serif" font-size="10.00">src/Api/Camera.cpp</text>
</a>
</g>
</g>
<!-- Node15&#45;&gt;Node16 -->
<g id="edge18" class="edge">
<title>Node15&#45;&gt;Node16</title>
<path fill="none" stroke="midnightblue" d="M1215.76,-248.63C1222.17,-237.07 1229.56,-223.71 1234.28,-215.19"/>
<polygon fill="midnightblue" stroke="midnightblue" points="1212.69,-246.95 1210.91,-257.4 1218.81,-250.34 1212.69,-246.95"/>
</g>
<!-- Node18&#45;&gt;Node7 -->
<g id="edge24" class="edge">
<title>Node18&#45;&gt;Node7</title>
<path fill="none" stroke="midnightblue" d="M1596.81,-191.99C1653.22,-179.45 1716.19,-157.07 1683.1,-123 1635.19,-73.68 514.52,-93.67 446.1,-87 432.07,-85.63 416.9,-83.38 403.2,-81.05"/>
<polygon fill="midnightblue" stroke="midnightblue" points="1595.79,-188.63 1586.75,-194.15 1597.26,-195.48 1595.79,-188.63"/>
</g>
<!-- Node18&#45;&gt;Node14 -->
<g id="edge28" class="edge">
<title>Node18&#45;&gt;Node14</title>
<path fill="none" stroke="midnightblue" d="M1449.45,-192.17C1390.79,-182.23 1306.59,-167.7 1233.1,-154 1230.05,-153.43 1226.93,-152.84 1223.78,-152.24"/>
<polygon fill="midnightblue" stroke="midnightblue" points="1448.93,-195.63 1459.37,-193.85 1450.1,-188.73 1448.93,-195.63"/>
</g>
<!-- Node19 -->
<g id="node19" class="node">
<title>Node19</title>
<g id="a_node19"><a xlink:href="Debug_8cpp.html" target="_top" xlink:title=" ">
<polygon fill="none" stroke="black" points="1730.1,-129 1730.1,-148 1826.1,-148 1826.1,-129 1730.1,-129"/>
<text text-anchor="middle" x="1778.1" y="-136" font-family="Helvetica,sans-Serif" font-size="10.00">src/Api/Debug.cpp</text>
</a>
</g>
</g>
<!-- Node18&#45;&gt;Node19 -->
<g id="edge22" class="edge">
<title>Node18&#45;&gt;Node19</title>
<path fill="none" stroke="midnightblue" d="M1587.87,-187.99C1637.84,-175.25 1704.94,-158.15 1744.64,-148.03"/>
<polygon fill="midnightblue" stroke="midnightblue" points="1586.94,-184.61 1578.11,-190.48 1588.67,-191.4 1586.94,-184.61"/>
</g>
<!-- Node20 -->
<g id="node20" class="node">
<title>Node20</title>
<g id="a_node20"><a xlink:href="AudioManager_8cpp.html" target="_top" xlink:title=" ">
<polygon fill="none" stroke="black" points="1844.6,-129 1844.6,-148 2003.6,-148 2003.6,-129 1844.6,-129"/>
<text text-anchor="middle" x="1924.1" y="-136" font-family="Helvetica,sans-Serif" font-size="10.00">src/Managers/AudioManager.cpp</text>
</a>
</g>
</g>
<!-- Node18&#45;&gt;Node20 -->
<g id="edge23" class="edge">
<title>Node18&#45;&gt;Node20</title>
<path fill="none" stroke="midnightblue" d="M1596.62,-192.62C1659.84,-182.4 1753.48,-167.25 1835.1,-154 1846.99,-152.07 1859.79,-149.99 1871.86,-148.02"/>
<polygon fill="midnightblue" stroke="midnightblue" points="1596.05,-189.17 1586.74,-194.22 1597.17,-196.08 1596.05,-189.17"/>
</g>
<!-- Node21 -->
<g id="node21" class="node">
<title>Node21</title>
<g id="a_node21"><a xlink:href="Texture_8cpp.html" target="_top" xlink:title=" ">
<polygon fill="none" stroke="black" points="1242.1,-129 1242.1,-148 1360.1,-148 1360.1,-129 1242.1,-129"/>
<text text-anchor="middle" x="1301.1" y="-136" font-family="Helvetica,sans-Serif" font-size="10.00">src/Models/Texture.cpp</text>
</a>
</g>
</g>
<!-- Node18&#45;&gt;Node21 -->
<g id="edge25" class="edge">
<title>Node18&#45;&gt;Node21</title>
<path fill="none" stroke="midnightblue" d="M1465.34,-187.59C1421.99,-174.9 1364.43,-158.04 1330.22,-148.03"/>
<polygon fill="midnightblue" stroke="midnightblue" points="1464.62,-191.02 1475.2,-190.48 1466.58,-184.31 1464.62,-191.02"/>
</g>
<!-- Node22 -->
<g id="node22" class="node">
<title>Node22</title>
<g id="a_node22"><a xlink:href="BehaviourScriptSubsystem_8cpp.html" target="_top" xlink:title=" ">
<polygon fill="none" stroke="black" points="1378.1,-123.5 1378.1,-153.5 1512.1,-153.5 1512.1,-123.5 1378.1,-123.5"/>
<text text-anchor="start" x="1386.1" y="-141.5" font-family="Helvetica,sans-Serif" font-size="10.00">src/Subsystems/Behaviour</text>
<text text-anchor="middle" x="1445.1" y="-130.5" font-family="Helvetica,sans-Serif" font-size="10.00">ScriptSubsystem.cpp</text>
</a>
</g>
</g>
<!-- Node18&#45;&gt;Node22 -->
<g id="edge26" class="edge">
<title>Node18&#45;&gt;Node22</title>
<path fill="none" stroke="midnightblue" d="M1498.36,-183.88C1486.5,-174.01 1472.61,-162.43 1461.99,-153.58"/>
<polygon fill="midnightblue" stroke="midnightblue" points="1496.25,-186.68 1506.17,-190.4 1500.73,-181.31 1496.25,-186.68"/>
</g>
<!-- Node23 -->
<g id="node23" class="node">
<title>Node23</title>
<g id="a_node23"><a xlink:href="GameSpeedSubsystem_8cpp.html" target="_top" xlink:title=" ">
<polygon fill="none" stroke="black" points="1530.1,-123.5 1530.1,-153.5 1674.1,-153.5 1674.1,-123.5 1530.1,-123.5"/>
<text text-anchor="start" x="1538.1" y="-141.5" font-family="Helvetica,sans-Serif" font-size="10.00">src/Subsystems/GameSpeed</text>
<text text-anchor="middle" x="1602.1" y="-130.5" font-family="Helvetica,sans-Serif" font-size="10.00">Subsystem.cpp</text>
</a>
</g>
</g>
<!-- Node18&#45;&gt;Node23 -->
<g id="edge27" class="edge">
<title>Node18&#45;&gt;Node23</title>
<path fill="none" stroke="midnightblue" d="M1548.15,-183.88C1560.16,-174.01 1574.23,-162.43 1584.99,-153.58"/>
<polygon fill="midnightblue" stroke="midnightblue" points="1545.74,-181.34 1540.24,-190.4 1550.18,-186.75 1545.74,-181.34"/>
</g>
<!-- Node24&#45;&gt;Node13 -->
<g id="edge31" class="edge">
<title>Node24&#45;&gt;Node13</title>
<path fill="none" stroke="midnightblue" d="M924.52,-264.77C863.08,-257.62 781.97,-244.08 759.1,-221 720.21,-181.77 724.94,-106.97 727.89,-81.36"/>
<polygon fill="midnightblue" stroke="midnightblue" points="924.25,-268.27 934.58,-265.91 925.04,-261.31 924.25,-268.27"/>
</g>
<!-- Node24&#45;&gt;Node14 -->
<g id="edge36" class="edge">
<title>Node24&#45;&gt;Node14</title>
<path fill="none" stroke="midnightblue" d="M1022.93,-250.9C1042.91,-234.37 1071.73,-210.6 1097.1,-190 1112.33,-177.63 1129.74,-163.68 1142.39,-153.59"/>
<polygon fill="midnightblue" stroke="midnightblue" points="1020.68,-248.22 1015.21,-257.3 1025.14,-253.62 1020.68,-248.22"/>
</g>
<!-- Node25 -->
<g id="node25" class="node">
<title>Node25</title>
<g id="a_node25"><a xlink:href="Sprite_8cpp.html" target="_top" xlink:title=" ">
<polygon fill="none" stroke="black" points="951.1,-196 951.1,-215 1045.1,-215 1045.1,-196 951.1,-196"/>
<text text-anchor="middle" x="998.1" y="-203" font-family="Helvetica,sans-Serif" font-size="10.00">src/Api/Sprite.cpp</text>
</a>
</g>
</g>
<!-- Node24&#45;&gt;Node25 -->
<g id="edge30" class="edge">
<title>Node24&#45;&gt;Node25</title>
<path fill="none" stroke="midnightblue" d="M998.1,-247.25C998.1,-236.02 998.1,-223.38 998.1,-215.19"/>
<polygon fill="midnightblue" stroke="midnightblue" points="994.6,-247.4 998.1,-257.4 1001.6,-247.4 994.6,-247.4"/>
</g>
<!-- Node26 -->
<g id="node26" class="node">
<title>Node26</title>
<g id="a_node26"><a xlink:href="Animator_8hpp.html" target="_top" xlink:title=" ">
<polygon fill="none" stroke="black" points="767.6,-190.5 767.6,-220.5 894.6,-220.5 894.6,-190.5 767.6,-190.5"/>
<text text-anchor="start" x="775.6" y="-208.5" font-family="Helvetica,sans-Serif" font-size="10.00">includes/spic&#45;api&#45;headers</text>
<text text-anchor="middle" x="831.1" y="-197.5" font-family="Helvetica,sans-Serif" font-size="10.00">/Animator.hpp</text>
</a>
</g>
</g>
<!-- Node24&#45;&gt;Node26 -->
<g id="edge32" class="edge">
<title>Node24&#45;&gt;Node26</title>
<path fill="none" stroke="midnightblue" d="M952.32,-253.68C925.53,-243.26 892.19,-230.28 867.26,-220.58"/>
<polygon fill="midnightblue" stroke="midnightblue" points="951.27,-257.03 961.86,-257.4 953.81,-250.51 951.27,-257.03"/>
</g>
<!-- Node26&#45;&gt;Node14 -->
<g id="edge35" class="edge">
<title>Node26&#45;&gt;Node14</title>
<path fill="none" stroke="midnightblue" d="M904.73,-190C955.89,-179.92 1025.65,-166.16 1087.1,-154 1090.14,-153.4 1093.25,-152.78 1096.4,-152.16"/>
<polygon fill="midnightblue" stroke="midnightblue" points="903.88,-186.6 894.75,-191.97 905.24,-193.47 903.88,-186.6"/>
</g>
<!-- Node27 -->
<g id="node27" class="node">
<title>Node27</title>
<g id="a_node27"><a xlink:href="Animator_8cpp.html" target="_top" xlink:title=" ">
<polygon fill="none" stroke="black" points="757.6,-129 757.6,-148 864.6,-148 864.6,-129 757.6,-129"/>
<text text-anchor="middle" x="811.1" y="-136" font-family="Helvetica,sans-Serif" font-size="10.00">src/Api/Animator.cpp</text>
</a>
</g>
</g>
<!-- Node26&#45;&gt;Node27 -->
<g id="edge33" class="edge">
<title>Node26&#45;&gt;Node27</title>
<path fill="none" stroke="midnightblue" d="M823.74,-180.6C820.26,-169.28 816.31,-156.46 813.77,-148.19"/>
<polygon fill="midnightblue" stroke="midnightblue" points="820.47,-181.87 826.76,-190.4 827.16,-179.81 820.47,-181.87"/>
</g>
<!-- Node28 -->
<g id="node28" class="node">
<title>Node28</title>
<g id="a_node28"><a xlink:href="AnimatorSubsystem_8cpp.html" target="_top" xlink:title=" ">
<polygon fill="none" stroke="black" points="882.1,-129 882.1,-148 1078.1,-148 1078.1,-129 882.1,-129"/>
<text text-anchor="middle" x="980.1" y="-136" font-family="Helvetica,sans-Serif" font-size="10.00">src/Subsystems/AnimatorSubsystem.cpp</text>
</a>
</g>
</g>
<!-- Node26&#45;&gt;Node28 -->
<g id="edge34" class="edge">
<title>Node26&#45;&gt;Node28</title>
<path fill="none" stroke="midnightblue" d="M872.83,-186.3C901.56,-173.76 938.42,-157.68 960.6,-148.01"/>
<polygon fill="midnightblue" stroke="midnightblue" points="871.19,-183.19 863.43,-190.4 873.99,-189.61 871.19,-183.19"/>
</g>
<!-- Node29&#45;&gt;Node3 -->
<g id="edge39" class="edge">
<title>Node29&#45;&gt;Node3</title>
<path fill="none" stroke="midnightblue" d="M698.2,-256.72C633.92,-243.87 543.01,-225.68 490.04,-215.09"/>
<polygon fill="midnightblue" stroke="midnightblue" points="697.78,-260.21 708.27,-258.74 699.15,-253.34 697.78,-260.21"/>
</g>
<!-- Node29&#45;&gt;Node13 -->
<g id="edge40" class="edge">
<title>Node29&#45;&gt;Node13</title>
<path fill="none" stroke="midnightblue" d="M739.97,-251.15C730.1,-243.08 720.44,-232.87 715.1,-221 692.99,-171.88 716.05,-104.55 725.47,-81.02"/>
<polygon fill="midnightblue" stroke="midnightblue" points="738.14,-254.15 748.22,-257.41 742.37,-248.57 738.14,-254.15"/>
</g>
<!-- Node29&#45;&gt;Node14 -->
<g id="edge41" class="edge">
<title>Node29&#45;&gt;Node14</title>
<path fill="none" stroke="midnightblue" d="M829.22,-254.12C853.15,-245.72 880.77,-234.51 904.1,-221 922.96,-210.08 922.53,-199.6 942.1,-190 956,-183.18 1037.21,-165.25 1096.45,-152.71"/>
<polygon fill="midnightblue" stroke="midnightblue" points="827.89,-250.88 819.56,-257.44 830.16,-257.5 827.89,-250.88"/>
</g>
<!-- Node30 -->
<g id="node30" class="node">
<title>Node30</title>
<g id="a_node30"><a xlink:href="Text_8cpp.html" target="_top" xlink:title=" ">
<polygon fill="none" stroke="black" points="575.6,-196 575.6,-215 662.6,-215 662.6,-196 575.6,-196"/>
<text text-anchor="middle" x="619.1" y="-203" font-family="Helvetica,sans-Serif" font-size="10.00">src/Api/Text.cpp</text>
</a>
</g>
</g>
<!-- Node29&#45;&gt;Node30 -->
<g id="edge38" class="edge">
<title>Node29&#45;&gt;Node30</title>
<path fill="none" stroke="midnightblue" d="M729.63,-253.46C700.07,-240.9 661.99,-224.72 639.12,-215.01"/>
<polygon fill="midnightblue" stroke="midnightblue" points="728.32,-256.71 738.9,-257.4 731.06,-250.26 728.32,-256.71"/>
</g>
</g>
</svg>
