<?xml version="1.0" encoding="UTF-8" standalone="no"?>
<!DOCTYPE svg PUBLIC "-//W3C//DTD SVG 1.1//EN"
 "http://www.w3.org/Graphics/SVG/1.1/DTD/svg11.dtd">
<!-- Generated by graphviz version 2.44.0 ()
 -->
<!-- Title: includes/spic&#45;api&#45;headers/Color.hpp Pages: 1 -->
<svg width="2532pt" height="363pt"
 viewBox="0.00 0.00 2532.00 363.00" xmlns="http://www.w3.org/2000/svg" xmlns:xlink="http://www.w3.org/1999/xlink">
<g id="graph0" class="graph" transform="scale(1 1) rotate(0) translate(4 359)">
<title>includes/spic&#45;api&#45;headers/Color.hpp</title>
<!-- Node1 -->
<g id="node1" class="node">
<title>Node1</title>
<g id="a_node1"><a xlink:title=" ">
<polygon fill="#bfbfbf" stroke="black" points="1126.5,-324.5 1126.5,-354.5 1253.5,-354.5 1253.5,-324.5 1126.5,-324.5"/>
<text text-anchor="start" x="1134.5" y="-342.5" font-family="Helvetica,sans-Serif" font-size="10.00">includes/spic&#45;api&#45;headers</text>
<text text-anchor="middle" x="1190" y="-331.5" font-family="Helvetica,sans-Serif" font-size="10.00">/Color.hpp</text>
</a>
</g>
</g>
<!-- Node2 -->
<g id="node2" class="node">
<title>Node2</title>
<g id="a_node2"><a xlink:href="src_2Api_2Color_8cpp.html" target="_top" xlink:title=" ">
<polygon fill="none" stroke="black" points="505.5,-263 505.5,-282 596.5,-282 596.5,-263 505.5,-263"/>
<text text-anchor="middle" x="551" y="-270" font-family="Helvetica,sans-Serif" font-size="10.00">src/Api/Color.cpp</text>
</a>
</g>
</g>
<!-- Node1&#45;&gt;Node2 -->
<g id="edge1" class="edge">
<title>Node1&#45;&gt;Node2</title>
<path fill="none" stroke="midnightblue" d="M1116.35,-336.18C1005.09,-331.76 787.82,-319.59 606,-288 597.34,-286.5 588.06,-284.28 579.62,-282.04"/>
<polygon fill="midnightblue" stroke="midnightblue" points="1116.33,-339.68 1126.46,-336.57 1116.6,-332.69 1116.33,-339.68"/>
</g>
<!-- Node3 -->
<g id="node3" class="node">
<title>Node3</title>
<g id="a_node3"><a xlink:href="TextureManager_8hpp.html" target="_top" xlink:title=" ">
<polygon fill="none" stroke="black" points="614.5,-263 614.5,-282 781.5,-282 781.5,-263 614.5,-263"/>
<text text-anchor="middle" x="698" y="-270" font-family="Helvetica,sans-Serif" font-size="10.00">src/Managers/TextureManager.hpp</text>
</a>
</g>
</g>
<!-- Node1&#45;&gt;Node3 -->
<g id="edge2" class="edge">
<title>Node1&#45;&gt;Node3</title>
<path fill="none" stroke="midnightblue" d="M1116.52,-328.79C1020.51,-316.11 853.93,-294.1 762.56,-282.03"/>
<polygon fill="midnightblue" stroke="midnightblue" points="1116.06,-332.26 1126.44,-330.1 1116.98,-325.32 1116.06,-332.26"/>
</g>
<!-- Node5 -->
<g id="node5" class="node">
<title>Node5</title>
<g id="a_node5"><a xlink:href="Window_8hpp.html" target="_top" xlink:title=" ">
<polygon fill="none" stroke="black" points="601,-196 601,-215 721,-215 721,-196 601,-196"/>
<text text-anchor="middle" x="661" y="-203" font-family="Helvetica,sans-Serif" font-size="10.00">src/Models/Window.hpp</text>
</a>
</g>
</g>
<!-- Node1&#45;&gt;Node5 -->
<g id="edge18" class="edge">
<title>Node1&#45;&gt;Node5</title>
<path fill="none" stroke="midnightblue" d="M1123.92,-322.01C1010.27,-293.65 781.7,-236.62 695.21,-215.04"/>
<polygon fill="midnightblue" stroke="midnightblue" points="1123.34,-325.47 1133.89,-324.5 1125.03,-318.68 1123.34,-325.47"/>
</g>
<!-- Node16 -->
<g id="node16" class="node">
<title>Node16</title>
<g id="a_node16"><a xlink:href="DebugLines_8hpp.html" target="_top" xlink:title=" ">
<polygon fill="none" stroke="black" points="863.5,-196 863.5,-215 1000.5,-215 1000.5,-196 863.5,-196"/>
<text text-anchor="middle" x="932" y="-203" font-family="Helvetica,sans-Serif" font-size="10.00">src/Structs/DebugLines.hpp</text>
</a>
</g>
</g>
<!-- Node1&#45;&gt;Node16 -->
<g id="edge19" class="edge">
<title>Node1&#45;&gt;Node16</title>
<path fill="none" stroke="midnightblue" d="M1153.41,-319.78C1096.74,-290.79 989.99,-236.17 948.8,-215.1"/>
<polygon fill="midnightblue" stroke="midnightblue" points="1151.89,-322.93 1162.39,-324.37 1155.08,-316.7 1151.89,-322.93"/>
</g>
<!-- Node19 -->
<g id="node19" class="node">
<title>Node19</title>
<g id="a_node19"><a xlink:href="Api_8hpp.html" target="_top" xlink:title=" ">
<polygon fill="none" stroke="black" points="1354.5,-123.5 1354.5,-153.5 1481.5,-153.5 1481.5,-123.5 1354.5,-123.5"/>
<text text-anchor="start" x="1362.5" y="-141.5" font-family="Helvetica,sans-Serif" font-size="10.00">includes/spic&#45;api&#45;headers</text>
<text text-anchor="middle" x="1418" y="-130.5" font-family="Helvetica,sans-Serif" font-size="10.00">/Api.hpp</text>
</a>
</g>
</g>
<!-- Node1&#45;&gt;Node19 -->
<g id="edge23" class="edge">
<title>Node1&#45;&gt;Node19</title>
<path fill="none" stroke="midnightblue" d="M1244.09,-320.8C1289.77,-302.96 1353.15,-270.86 1388,-221 1402.68,-199.99 1411.1,-170.95 1415.09,-153.8"/>
<polygon fill="midnightblue" stroke="midnightblue" points="1242.73,-317.57 1234.63,-324.39 1245.22,-324.11 1242.73,-317.57"/>
</g>
<!-- Node20 -->
<g id="node20" class="node">
<title>Node20</title>
<g id="a_node20"><a xlink:href="Camera_8hpp.html" target="_top" xlink:title=" ">
<polygon fill="none" stroke="black" points="1080.5,-190.5 1080.5,-220.5 1207.5,-220.5 1207.5,-190.5 1080.5,-190.5"/>
<text text-anchor="start" x="1088.5" y="-208.5" font-family="Helvetica,sans-Serif" font-size="10.00">includes/spic&#45;api&#45;headers</text>
<text text-anchor="middle" x="1144" y="-197.5" font-family="Helvetica,sans-Serif" font-size="10.00">/Camera.hpp</text>
</a>
</g>
</g>
<!-- Node1&#45;&gt;Node20 -->
<g id="edge24" class="edge">
<title>Node1&#45;&gt;Node20</title>
<path fill="none" stroke="midnightblue" d="M1176.69,-315.45C1172.2,-307.01 1167.47,-297.26 1164,-288 1155.42,-265.08 1149.49,-237.14 1146.42,-220.64"/>
<polygon fill="midnightblue" stroke="midnightblue" points="1173.68,-317.25 1181.56,-324.33 1179.82,-313.88 1173.68,-317.25"/>
</g>
<!-- Node23 -->
<g id="node23" class="node">
<title>Node23</title>
<g id="a_node23"><a xlink:href="includes_2spic-api-headers_2Color_8cpp.html" target="_top" xlink:title=" ">
<polygon fill="none" stroke="black" points="1640.5,-257.5 1640.5,-287.5 1767.5,-287.5 1767.5,-257.5 1640.5,-257.5"/>
<text text-anchor="start" x="1648.5" y="-275.5" font-family="Helvetica,sans-Serif" font-size="10.00">includes/spic&#45;api&#45;headers</text>
<text text-anchor="middle" x="1704" y="-264.5" font-family="Helvetica,sans-Serif" font-size="10.00">/Color.cpp</text>
</a>
</g>
</g>
<!-- Node1&#45;&gt;Node23 -->
<g id="edge29" class="edge">
<title>Node1&#45;&gt;Node23</title>
<path fill="none" stroke="midnightblue" d="M1263.75,-331.51C1350.61,-322.93 1499.16,-307.11 1626,-288 1630.63,-287.3 1635.41,-286.53 1640.21,-285.73"/>
<polygon fill="midnightblue" stroke="midnightblue" points="1263.33,-328.04 1253.72,-332.5 1264.02,-335 1263.33,-328.04"/>
</g>
<!-- Node24 -->
<g id="node24" class="node">
<title>Node24</title>
<g id="a_node24"><a xlink:href="Debug_8hpp.html" target="_top" xlink:title=" ">
<polygon fill="none" stroke="black" points="1903.5,-190.5 1903.5,-220.5 2030.5,-220.5 2030.5,-190.5 1903.5,-190.5"/>
<text text-anchor="start" x="1911.5" y="-208.5" font-family="Helvetica,sans-Serif" font-size="10.00">includes/spic&#45;api&#45;headers</text>
<text text-anchor="middle" x="1967" y="-197.5" font-family="Helvetica,sans-Serif" font-size="10.00">/Debug.hpp</text>
</a>
</g>
</g>
<!-- Node1&#45;&gt;Node24 -->
<g id="edge30" class="edge">
<title>Node1&#45;&gt;Node24</title>
<path fill="none" stroke="midnightblue" d="M1263.51,-334.06C1363.13,-327.22 1535.19,-312.32 1593,-288 1613.41,-279.42 1611.7,-265.84 1632,-257 1638.19,-254.3 1808.09,-229.46 1903.49,-215.65"/>
<polygon fill="midnightblue" stroke="midnightblue" points="1263.25,-330.57 1253.51,-334.73 1263.73,-337.55 1263.25,-330.57"/>
</g>
<!-- Node29 -->
<g id="node29" class="node">
<title>Node29</title>
<g id="a_node29"><a xlink:href="Sprite_8hpp.html" target="_top" xlink:title=" ">
<polygon fill="none" stroke="black" points="1456.5,-257.5 1456.5,-287.5 1583.5,-287.5 1583.5,-257.5 1456.5,-257.5"/>
<text text-anchor="start" x="1464.5" y="-275.5" font-family="Helvetica,sans-Serif" font-size="10.00">includes/spic&#45;api&#45;headers</text>
<text text-anchor="middle" x="1520" y="-264.5" font-family="Helvetica,sans-Serif" font-size="10.00">/Sprite.hpp</text>
</a>
</g>
</g>
<!-- Node1&#45;&gt;Node29 -->
<g id="edge38" class="edge">
<title>Node1&#45;&gt;Node29</title>
<path fill="none" stroke="midnightblue" d="M1263.8,-323.96C1321.62,-312.58 1401.22,-296.9 1456.29,-286.05"/>
<polygon fill="midnightblue" stroke="midnightblue" points="1262.76,-320.6 1253.63,-325.97 1264.12,-327.47 1262.76,-320.6"/>
</g>
<!-- Node34 -->
<g id="node34" class="node">
<title>Node34</title>
<g id="a_node34"><a xlink:href="Text_8hpp.html" target="_top" xlink:title=" ">
<polygon fill="none" stroke="black" points="1172.5,-257.5 1172.5,-287.5 1299.5,-287.5 1299.5,-257.5 1172.5,-257.5"/>
<text text-anchor="start" x="1180.5" y="-275.5" font-family="Helvetica,sans-Serif" font-size="10.00">includes/spic&#45;api&#45;headers</text>
<text text-anchor="middle" x="1236" y="-264.5" font-family="Helvetica,sans-Serif" font-size="10.00">/Text.hpp</text>
</a>
</g>
</g>
<!-- Node1&#45;&gt;Node34 -->
<g id="edge46" class="edge">
<title>Node1&#45;&gt;Node34</title>
<path fill="none" stroke="midnightblue" d="M1205.81,-316.16C1212.52,-306.68 1220.13,-295.92 1226.04,-287.58"/>
<polygon fill="midnightblue" stroke="midnightblue" points="1202.9,-314.21 1199.98,-324.4 1208.62,-318.26 1202.9,-314.21"/>
</g>
<!-- Node4 -->
<g id="node4" class="node">
<title>Node4</title>
<g id="a_node4"><a xlink:href="TextureManager_8cpp.html" target="_top" xlink:title=" ">
<polygon fill="none" stroke="black" points="416.5,-196 416.5,-215 583.5,-215 583.5,-196 416.5,-196"/>
<text text-anchor="middle" x="500" y="-203" font-family="Helvetica,sans-Serif" font-size="10.00">src/Managers/TextureManager.cpp</text>
</a>
</g>
</g>
<!-- Node3&#45;&gt;Node4 -->
<g id="edge3" class="edge">
<title>Node3&#45;&gt;Node4</title>
<path fill="none" stroke="midnightblue" d="M662,-259.68C622.76,-246.8 560.91,-226.5 526.09,-215.06"/>
<polygon fill="midnightblue" stroke="midnightblue" points="661.11,-263.07 671.71,-262.87 663.3,-256.42 661.11,-263.07"/>
</g>
<!-- Node3&#45;&gt;Node5 -->
<g id="edge4" class="edge">
<title>Node3&#45;&gt;Node5</title>
<path fill="none" stroke="midnightblue" d="M688.06,-254.03C680.89,-241.45 671.53,-225.01 665.91,-215.13"/>
<polygon fill="midnightblue" stroke="midnightblue" points="685.02,-255.77 693.01,-262.73 691.1,-252.31 685.02,-255.77"/>
</g>
<!-- Node6 -->
<g id="node6" class="node">
<title>Node6</title>
<g id="a_node6"><a xlink:href="TimeManager_8hpp.html" target="_top" xlink:title=" ">
<polygon fill="none" stroke="black" points="364,-129 364,-148 520,-148 520,-129 364,-129"/>
<text text-anchor="middle" x="442" y="-136" font-family="Helvetica,sans-Serif" font-size="10.00">src/Managers/TimeManager.hpp</text>
</a>
</g>
</g>
<!-- Node5&#45;&gt;Node6 -->
<g id="edge5" class="edge">
<title>Node5&#45;&gt;Node6</title>
<path fill="none" stroke="midnightblue" d="M622.29,-193.01C578.94,-180.15 509.7,-159.59 470.85,-148.06"/>
<polygon fill="midnightblue" stroke="midnightblue" points="621.34,-196.38 631.92,-195.87 623.33,-189.67 621.34,-196.38"/>
</g>
<!-- Node11 -->
<g id="node11" class="node">
<title>Node11</title>
<g id="a_node11"><a xlink:href="Window_8cpp.html" target="_top" xlink:title=" ">
<polygon fill="none" stroke="black" points="538,-129 538,-148 658,-148 658,-129 538,-129"/>
<text text-anchor="middle" x="598" y="-136" font-family="Helvetica,sans-Serif" font-size="10.00">src/Models/Window.cpp</text>
</a>
</g>
</g>
<!-- Node5&#45;&gt;Node11 -->
<g id="edge10" class="edge">
<title>Node5&#45;&gt;Node11</title>
<path fill="none" stroke="midnightblue" d="M645.49,-188.5C633.13,-175.75 616.31,-158.39 606.36,-148.13"/>
<polygon fill="midnightblue" stroke="midnightblue" points="643.03,-190.99 652.5,-195.73 648.06,-186.12 643.03,-190.99"/>
</g>
<!-- Node12 -->
<g id="node12" class="node">
<title>Node12</title>
<g id="a_node12"><a xlink:href="FpsCounterSubsystem_8hpp.html" target="_top" xlink:title=" ">
<polygon fill="none" stroke="black" points="0,-123.5 0,-153.5 140,-153.5 140,-123.5 0,-123.5"/>
<text text-anchor="start" x="8" y="-141.5" font-family="Helvetica,sans-Serif" font-size="10.00">src/Subsystems/FpsCounter</text>
<text text-anchor="middle" x="70" y="-130.5" font-family="Helvetica,sans-Serif" font-size="10.00">Subsystem.hpp</text>
</a>
</g>
</g>
<!-- Node5&#45;&gt;Node12 -->
<g id="edge11" class="edge">
<title>Node5&#45;&gt;Node12</title>
<path fill="none" stroke="midnightblue" d="M614.82,-193.96C607.22,-192.47 599.41,-191.08 592,-190 396.51,-161.63 344.84,-179.86 149,-154 146.1,-153.62 143.14,-153.2 140.15,-152.75"/>
<polygon fill="midnightblue" stroke="midnightblue" points="614.13,-197.39 624.63,-195.96 615.53,-190.53 614.13,-197.39"/>
</g>
<!-- Node14 -->
<g id="node14" class="node">
<title>Node14</title>
<g id="a_node14"><a xlink:href="RenderSubsystem_8hpp.html" target="_top" xlink:title=" ">
<polygon fill="none" stroke="black" points="158,-129 158,-148 346,-148 346,-129 158,-129"/>
<text text-anchor="middle" x="252" y="-136" font-family="Helvetica,sans-Serif" font-size="10.00">src/Subsystems/RenderSubsystem.hpp</text>
</a>
</g>
</g>
<!-- Node5&#45;&gt;Node14 -->
<g id="edge15" class="edge">
<title>Node5&#45;&gt;Node14</title>
<path fill="none" stroke="midnightblue" d="M612.48,-193.92C605.61,-192.54 598.64,-191.19 592,-190 539.65,-180.62 395.36,-159.82 312.55,-148.05"/>
<polygon fill="midnightblue" stroke="midnightblue" points="611.9,-197.38 622.4,-195.96 613.31,-190.52 611.9,-197.38"/>
</g>
<!-- Node7 -->
<g id="node7" class="node">
<title>Node7</title>
<g id="a_node7"><a xlink:href="Engine_8cpp.html" target="_top" xlink:title=" ">
<polygon fill="none" stroke="black" points="222,-0.5 222,-19.5 320,-19.5 320,-0.5 222,-0.5"/>
<text text-anchor="middle" x="271" y="-7.5" font-family="Helvetica,sans-Serif" font-size="10.00">src/Api/Engine.cpp</text>
</a>
</g>
</g>
<!-- Node6&#45;&gt;Node7 -->
<g id="edge6" class="edge">
<title>Node6&#45;&gt;Node7</title>
<path fill="none" stroke="midnightblue" d="M433.71,-119.6C424.42,-101.33 407.78,-73.29 386,-56 363.25,-37.94 332.36,-26.39 308.33,-19.52"/>
<polygon fill="midnightblue" stroke="midnightblue" points="430.57,-121.15 438.09,-128.61 436.86,-118.08 430.57,-121.15"/>
</g>
<!-- Node8 -->
<g id="node8" class="node">
<title>Node8</title>
<g id="a_node8"><a xlink:href="src_2Api_2Time_8cpp.html" target="_top" xlink:title=" ">
<polygon fill="none" stroke="black" points="433,-62 433,-81 523,-81 523,-62 433,-62"/>
<text text-anchor="middle" x="478" y="-69" font-family="Helvetica,sans-Serif" font-size="10.00">src/Api/Time.cpp</text>
</a>
</g>
</g>
<!-- Node6&#45;&gt;Node8 -->
<g id="edge7" class="edge">
<title>Node6&#45;&gt;Node8</title>
<path fill="none" stroke="midnightblue" d="M451.88,-119.66C458.82,-107.13 467.8,-90.91 473.22,-81.13"/>
<polygon fill="midnightblue" stroke="midnightblue" points="448.64,-118.29 446.86,-128.73 454.76,-121.68 448.64,-118.29"/>
</g>
<!-- Node9 -->
<g id="node9" class="node">
<title>Node9</title>
<g id="a_node9"><a xlink:href="TimeManager_8cpp.html" target="_top" xlink:title=" ">
<polygon fill="none" stroke="black" points="1400,-62 1400,-81 1556,-81 1556,-62 1400,-62"/>
<text text-anchor="middle" x="1478" y="-69" font-family="Helvetica,sans-Serif" font-size="10.00">src/Managers/TimeManager.cpp</text>
</a>
</g>
</g>
<!-- Node6&#45;&gt;Node9 -->
<g id="edge8" class="edge">
<title>Node6&#45;&gt;Node9</title>
<path fill="none" stroke="midnightblue" d="M497.36,-127.32C507.84,-125.66 518.73,-124.13 529,-123 851.07,-87.7 1237.44,-76.84 1399.95,-73.7"/>
<polygon fill="midnightblue" stroke="midnightblue" points="496.78,-123.87 487.47,-128.93 497.9,-130.78 496.78,-123.87"/>
</g>
<!-- Node10 -->
<g id="node10" class="node">
<title>Node10</title>
<g id="a_node10"><a xlink:href="FpsCounterSubsystem_8cpp.html" target="_top" xlink:title=" ">
<polygon fill="none" stroke="black" points="237,-56.5 237,-86.5 377,-86.5 377,-56.5 237,-56.5"/>
<text text-anchor="start" x="245" y="-74.5" font-family="Helvetica,sans-Serif" font-size="10.00">src/Subsystems/FpsCounter</text>
<text text-anchor="middle" x="307" y="-63.5" font-family="Helvetica,sans-Serif" font-size="10.00">Subsystem.cpp</text>
</a>
</g>
</g>
<!-- Node6&#45;&gt;Node10 -->
<g id="edge9" class="edge">
<title>Node6&#45;&gt;Node10</title>
<path fill="none" stroke="midnightblue" d="M414.95,-124.47C392.12,-113.49 359.53,-97.79 336.14,-86.53"/>
<polygon fill="midnightblue" stroke="midnightblue" points="413.54,-127.68 424.07,-128.87 416.58,-121.38 413.54,-127.68"/>
</g>
<!-- Node12&#45;&gt;Node10 -->
<g id="edge12" class="edge">
<title>Node12&#45;&gt;Node10</title>
<path fill="none" stroke="midnightblue" d="M131.2,-120.71C169.77,-110.14 219,-96.63 255.55,-86.61"/>
<polygon fill="midnightblue" stroke="midnightblue" points="129.85,-117.46 121.13,-123.48 131.7,-124.21 129.85,-117.46"/>
</g>
<!-- Node13 -->
<g id="node13" class="node">
<title>Node13</title>
<g id="a_node13"><a xlink:href="Subsystems_8hpp.html" target="_top" xlink:title=" ">
<polygon fill="none" stroke="black" points="57,-62 57,-81 219,-81 219,-62 57,-62"/>
<text text-anchor="middle" x="138" y="-69" font-family="Helvetica,sans-Serif" font-size="10.00">src/Subsystems/Subsystems.hpp</text>
</a>
</g>
</g>
<!-- Node12&#45;&gt;Node13 -->
<g id="edge13" class="edge">
<title>Node12&#45;&gt;Node13</title>
<path fill="none" stroke="midnightblue" d="M92.14,-116.34C104.63,-104.4 119.55,-90.14 128.9,-81.19"/>
<polygon fill="midnightblue" stroke="midnightblue" points="89.57,-113.96 84.75,-123.4 94.4,-119.02 89.57,-113.96"/>
</g>
<!-- Node13&#45;&gt;Node7 -->
<g id="edge14" class="edge">
<title>Node13&#45;&gt;Node7</title>
<path fill="none" stroke="midnightblue" d="M166.33,-57.83C192.15,-46.28 229.58,-29.53 251.98,-19.51"/>
<polygon fill="midnightblue" stroke="midnightblue" points="164.75,-54.7 157.06,-61.98 167.61,-61.09 164.75,-54.7"/>
</g>
<!-- Node14&#45;&gt;Node13 -->
<g id="edge17" class="edge">
<title>Node14&#45;&gt;Node13</title>
<path fill="none" stroke="midnightblue" d="M227.65,-123.62C205.06,-110.74 172.16,-91.98 153.13,-81.13"/>
<polygon fill="midnightblue" stroke="midnightblue" points="226.2,-126.82 236.63,-128.73 229.67,-120.74 226.2,-126.82"/>
</g>
<!-- Node15 -->
<g id="node15" class="node">
<title>Node15</title>
<g id="a_node15"><a xlink:href="RenderSubsystem_8cpp.html" target="_top" xlink:title=" ">
<polygon fill="none" stroke="black" points="786,-62 786,-81 974,-81 974,-62 786,-62"/>
<text text-anchor="middle" x="880" y="-69" font-family="Helvetica,sans-Serif" font-size="10.00">src/Subsystems/RenderSubsystem.cpp</text>
</a>
</g>
</g>
<!-- Node14&#45;&gt;Node15 -->
<g id="edge16" class="edge">
<title>Node14&#45;&gt;Node15</title>
<path fill="none" stroke="midnightblue" d="M319.07,-127.62C331.03,-125.99 343.37,-124.38 355,-123 505.49,-105.18 680.82,-89.29 785.98,-80.29"/>
<polygon fill="midnightblue" stroke="midnightblue" points="318.57,-124.16 309.15,-129 319.53,-131.09 318.57,-124.16"/>
</g>
<!-- Node16&#45;&gt;Node15 -->
<g id="edge22" class="edge">
<title>Node16&#45;&gt;Node15</title>
<path fill="none" stroke="midnightblue" d="M853.1,-197.26C795.49,-190.15 724.38,-176.94 706,-154 672.94,-112.74 747.52,-91.33 809.12,-81.01"/>
<polygon fill="midnightblue" stroke="midnightblue" points="852.98,-200.77 863.32,-198.48 853.8,-193.82 852.98,-200.77"/>
</g>
<!-- Node17 -->
<g id="node17" class="node">
<title>Node17</title>
<g id="a_node17"><a xlink:href="Debug_8cpp.html" target="_top" xlink:title=" ">
<polygon fill="none" stroke="black" points="1082,-129 1082,-148 1178,-148 1178,-129 1082,-129"/>
<text text-anchor="middle" x="1130" y="-136" font-family="Helvetica,sans-Serif" font-size="10.00">src/Api/Debug.cpp</text>
</a>
</g>
</g>
<!-- Node16&#45;&gt;Node17 -->
<g id="edge20" class="edge">
<title>Node16&#45;&gt;Node17</title>
<path fill="none" stroke="midnightblue" d="M968,-192.68C1007.24,-179.8 1069.09,-159.5 1103.91,-148.06"/>
<polygon fill="midnightblue" stroke="midnightblue" points="966.7,-189.42 958.29,-195.87 968.89,-196.07 966.7,-189.42"/>
</g>
<!-- Node18 -->
<g id="node18" class="node">
<title>Node18</title>
<g id="a_node18"><a xlink:href="DebugLines_8cpp.html" target="_top" xlink:title=" ">
<polygon fill="none" stroke="black" points="714.5,-129 714.5,-148 851.5,-148 851.5,-129 714.5,-129"/>
<text text-anchor="middle" x="783" y="-136" font-family="Helvetica,sans-Serif" font-size="10.00">src/Structs/DebugLines.cpp</text>
</a>
</g>
</g>
<!-- Node16&#45;&gt;Node18 -->
<g id="edge21" class="edge">
<title>Node16&#45;&gt;Node18</title>
<path fill="none" stroke="midnightblue" d="M902.84,-191.78C873.34,-178.91 828.51,-159.35 802.87,-148.17"/>
<polygon fill="midnightblue" stroke="midnightblue" points="901.65,-195.08 912.21,-195.87 904.45,-188.66 901.65,-195.08"/>
</g>
<!-- Node20&#45;&gt;Node15 -->
<g id="edge27" class="edge">
<title>Node20&#45;&gt;Node15</title>
<path fill="none" stroke="midnightblue" d="M1069.92,-197.98C1006.93,-190.9 922.97,-177.36 899,-154 878.81,-134.33 878.31,-97.67 879.25,-81.06"/>
<polygon fill="midnightblue" stroke="midnightblue" points="1069.91,-201.5 1080.23,-199.1 1070.67,-194.54 1069.91,-201.5"/>
</g>
<!-- Node20&#45;&gt;Node19 -->
<g id="edge28" class="edge">
<title>Node20&#45;&gt;Node19</title>
<path fill="none" stroke="midnightblue" d="M1213.05,-188.12C1257.89,-177.48 1315.72,-163.76 1358.52,-153.61"/>
<polygon fill="midnightblue" stroke="midnightblue" points="1212.04,-184.76 1203.12,-190.48 1213.65,-191.57 1212.04,-184.76"/>
</g>
<!-- Node21 -->
<g id="node21" class="node">
<title>Node21</title>
<g id="a_node21"><a xlink:href="Camera_8cpp.html" target="_top" xlink:title=" ">
<polygon fill="none" stroke="black" points="1196,-129 1196,-148 1298,-148 1298,-129 1196,-129"/>
<text text-anchor="middle" x="1247" y="-136" font-family="Helvetica,sans-Serif" font-size="10.00">src/Api/Camera.cpp</text>
</a>
</g>
</g>
<!-- Node20&#45;&gt;Node21 -->
<g id="edge25" class="edge">
<title>Node20&#45;&gt;Node21</title>
<path fill="none" stroke="midnightblue" d="M1174.94,-184.97C1194.47,-172.65 1218.72,-157.35 1233.52,-148.01"/>
<polygon fill="midnightblue" stroke="midnightblue" points="1172.94,-182.1 1166.35,-190.4 1176.67,-188.02 1172.94,-182.1"/>
</g>
<!-- Node22 -->
<g id="node22" class="node">
<title>Node22</title>
<g id="a_node22"><a xlink:href="InputManager_8cpp.html" target="_top" xlink:title=" ">
<polygon fill="none" stroke="black" points="908,-129 908,-148 1064,-148 1064,-129 908,-129"/>
<text text-anchor="middle" x="986" y="-136" font-family="Helvetica,sans-Serif" font-size="10.00">src/Managers/InputManager.cpp</text>
</a>
</g>
</g>
<!-- Node20&#45;&gt;Node22 -->
<g id="edge26" class="edge">
<title>Node20&#45;&gt;Node22</title>
<path fill="none" stroke="midnightblue" d="M1100.15,-186.46C1069.62,-173.9 1030.3,-157.72 1006.68,-148.01"/>
<polygon fill="midnightblue" stroke="midnightblue" points="1099.14,-189.83 1109.72,-190.4 1101.8,-183.35 1099.14,-189.83"/>
</g>
<!-- Node24&#45;&gt;Node9 -->
<g id="edge33" class="edge">
<title>Node24&#45;&gt;Node9</title>
<path fill="none" stroke="midnightblue" d="M1942.37,-184.08C1914.54,-161.19 1871.95,-126.76 1863,-123 1809.24,-100.42 1652.32,-85.3 1556.21,-77.86"/>
<polygon fill="midnightblue" stroke="midnightblue" points="1940.19,-186.82 1950.13,-190.48 1944.64,-181.42 1940.19,-186.82"/>
</g>
<!-- Node24&#45;&gt;Node17 -->
<g id="edge31" class="edge">
<title>Node24&#45;&gt;Node17</title>
<path fill="none" stroke="midnightblue" d="M1892.94,-199.89C1701.57,-187.94 1204.3,-156.74 1187,-154 1177.92,-152.56 1168.18,-150.35 1159.37,-148.07"/>
<polygon fill="midnightblue" stroke="midnightblue" points="1892.99,-203.4 1903.18,-200.53 1893.42,-196.41 1892.99,-203.4"/>
</g>
<!-- Node24&#45;&gt;Node19 -->
<g id="edge37" class="edge">
<title>Node24&#45;&gt;Node19</title>
<path fill="none" stroke="midnightblue" d="M1893.01,-198.74C1799.17,-190.95 1632.55,-175.52 1491,-154 1487.93,-153.53 1484.8,-153.03 1481.64,-152.49"/>
<polygon fill="midnightblue" stroke="midnightblue" points="1892.99,-202.25 1903.25,-199.58 1893.57,-195.27 1892.99,-202.25"/>
</g>
<!-- Node25 -->
<g id="node25" class="node">
<title>Node25</title>
<g id="a_node25"><a xlink:href="AudioManager_8cpp.html" target="_top" xlink:title=" ">
<polygon fill="none" stroke="black" points="1914.5,-129 1914.5,-148 2073.5,-148 2073.5,-129 1914.5,-129"/>
<text text-anchor="middle" x="1994" y="-136" font-family="Helvetica,sans-Serif" font-size="10.00">src/Managers/AudioManager.cpp</text>
</a>
</g>
</g>
<!-- Node24&#45;&gt;Node25 -->
<g id="edge32" class="edge">
<title>Node24&#45;&gt;Node25</title>
<path fill="none" stroke="midnightblue" d="M1976.79,-180.94C1981.52,-169.54 1986.92,-156.55 1990.39,-148.19"/>
<polygon fill="midnightblue" stroke="midnightblue" points="1973.46,-179.82 1972.86,-190.4 1979.93,-182.5 1973.46,-179.82"/>
</g>
<!-- Node26 -->
<g id="node26" class="node">
<title>Node26</title>
<g id="a_node26"><a xlink:href="Texture_8cpp.html" target="_top" xlink:title=" ">
<polygon fill="none" stroke="black" points="2092,-129 2092,-148 2210,-148 2210,-129 2092,-129"/>
<text text-anchor="middle" x="2151" y="-136" font-family="Helvetica,sans-Serif" font-size="10.00">src/Models/Texture.cpp</text>
</a>
</g>
</g>
<!-- Node24&#45;&gt;Node26 -->
<g id="edge34" class="edge">
<title>Node24&#45;&gt;Node26</title>
<path fill="none" stroke="midnightblue" d="M2016.69,-186.95C2052.43,-174.32 2099.05,-157.85 2126.92,-148.01"/>
<polygon fill="midnightblue" stroke="midnightblue" points="2015.19,-183.76 2006.93,-190.4 2017.52,-190.37 2015.19,-183.76"/>
</g>
<!-- Node27 -->
<g id="node27" class="node">
<title>Node27</title>
<g id="a_node27"><a xlink:href="BehaviourScriptSubsystem_8cpp.html" target="_top" xlink:title=" ">
<polygon fill="none" stroke="black" points="2228,-123.5 2228,-153.5 2362,-153.5 2362,-123.5 2228,-123.5"/>
<text text-anchor="start" x="2236" y="-141.5" font-family="Helvetica,sans-Serif" font-size="10.00">src/Subsystems/Behaviour</text>
<text text-anchor="middle" x="2295" y="-130.5" font-family="Helvetica,sans-Serif" font-size="10.00">ScriptSubsystem.cpp</text>
</a>
</g>
</g>
<!-- Node24&#45;&gt;Node27 -->
<g id="edge35" class="edge">
<title>Node24&#45;&gt;Node27</title>
<path fill="none" stroke="midnightblue" d="M2040.51,-189.93C2096.65,-178.81 2173.39,-163.6 2227.88,-152.8"/>
<polygon fill="midnightblue" stroke="midnightblue" points="2039.76,-186.51 2030.63,-191.89 2041.12,-193.38 2039.76,-186.51"/>
</g>
<!-- Node28 -->
<g id="node28" class="node">
<title>Node28</title>
<g id="a_node28"><a xlink:href="GameSpeedSubsystem_8cpp.html" target="_top" xlink:title=" ">
<polygon fill="none" stroke="black" points="2380,-123.5 2380,-153.5 2524,-153.5 2524,-123.5 2380,-123.5"/>
<text text-anchor="start" x="2388" y="-141.5" font-family="Helvetica,sans-Serif" font-size="10.00">src/Subsystems/GameSpeed</text>
<text text-anchor="middle" x="2452" y="-130.5" font-family="Helvetica,sans-Serif" font-size="10.00">Subsystem.cpp</text>
</a>
</g>
</g>
<!-- Node24&#45;&gt;Node28 -->
<g id="edge36" class="edge">
<title>Node24&#45;&gt;Node28</title>
<path fill="none" stroke="midnightblue" d="M2040.93,-196.44C2122.06,-187.33 2256.07,-171.46 2371,-154 2373.82,-153.57 2376.7,-153.12 2379.61,-152.65"/>
<polygon fill="midnightblue" stroke="midnightblue" points="2040.37,-192.99 2030.82,-197.58 2041.15,-199.94 2040.37,-192.99"/>
</g>
<!-- Node29&#45;&gt;Node15 -->
<g id="edge40" class="edge">
<title>Node29&#45;&gt;Node15</title>
<path fill="none" stroke="midnightblue" d="M1593.69,-255.44C1649.98,-242.93 1720.06,-226.76 1733,-221 1788.99,-196.09 1872.17,-167.47 1830,-123 1815.39,-107.6 1211.34,-84.36 974.18,-75.81"/>
<polygon fill="midnightblue" stroke="midnightblue" points="1592.72,-252.07 1583.71,-257.65 1594.23,-258.9 1592.72,-252.07"/>
</g>
<!-- Node29&#45;&gt;Node19 -->
<g id="edge45" class="edge">
<title>Node29&#45;&gt;Node19</title>
<path fill="none" stroke="midnightblue" d="M1499.63,-249.78C1491.7,-241.03 1482.7,-230.73 1475,-221 1457.01,-198.25 1438.08,-170.26 1427.2,-153.7"/>
<polygon fill="midnightblue" stroke="midnightblue" points="1497.2,-252.3 1506.54,-257.31 1502.36,-247.57 1497.2,-252.3"/>
</g>
<!-- Node30 -->
<g id="node30" class="node">
<title>Node30</title>
<g id="a_node30"><a xlink:href="Sprite_8cpp.html" target="_top" xlink:title=" ">
<polygon fill="none" stroke="black" points="1484,-196 1484,-215 1578,-215 1578,-196 1484,-196"/>
<text text-anchor="middle" x="1531" y="-203" font-family="Helvetica,sans-Serif" font-size="10.00">src/Api/Sprite.cpp</text>
</a>
</g>
</g>
<!-- Node29&#45;&gt;Node30 -->
<g id="edge39" class="edge">
<title>Node29&#45;&gt;Node30</title>
<path fill="none" stroke="midnightblue" d="M1524.1,-247.25C1526,-236.02 1528.14,-223.38 1529.53,-215.19"/>
<polygon fill="midnightblue" stroke="midnightblue" points="1520.6,-246.95 1522.39,-257.4 1527.51,-248.12 1520.6,-246.95"/>
</g>
<!-- Node31 -->
<g id="node31" class="node">
<title>Node31</title>
<g id="a_node31"><a xlink:href="Animator_8hpp.html" target="_top" xlink:title=" ">
<polygon fill="none" stroke="black" points="1596.5,-190.5 1596.5,-220.5 1723.5,-220.5 1723.5,-190.5 1596.5,-190.5"/>
<text text-anchor="start" x="1604.5" y="-208.5" font-family="Helvetica,sans-Serif" font-size="10.00">includes/spic&#45;api&#45;headers</text>
<text text-anchor="middle" x="1660" y="-197.5" font-family="Helvetica,sans-Serif" font-size="10.00">/Animator.hpp</text>
</a>
</g>
</g>
<!-- Node29&#45;&gt;Node31 -->
<g id="edge41" class="edge">
<title>Node29&#45;&gt;Node31</title>
<path fill="none" stroke="midnightblue" d="M1559.57,-253.13C1581.81,-242.8 1609.15,-230.11 1629.68,-220.58"/>
<polygon fill="midnightblue" stroke="midnightblue" points="1557.97,-250.01 1550.38,-257.4 1560.92,-256.36 1557.97,-250.01"/>
</g>
<!-- Node31&#45;&gt;Node19 -->
<g id="edge44" class="edge">
<title>Node31&#45;&gt;Node19</title>
<path fill="none" stroke="midnightblue" d="M1598.01,-187.85C1558.55,-177.25 1508.01,-163.68 1470.54,-153.61"/>
<polygon fill="midnightblue" stroke="midnightblue" points="1597.22,-191.26 1607.79,-190.48 1599.04,-184.5 1597.22,-191.26"/>
</g>
<!-- Node32 -->
<g id="node32" class="node">
<title>Node32</title>
<g id="a_node32"><a xlink:href="Animator_8cpp.html" target="_top" xlink:title=" ">
<polygon fill="none" stroke="black" points="1713.5,-129 1713.5,-148 1820.5,-148 1820.5,-129 1713.5,-129"/>
<text text-anchor="middle" x="1767" y="-136" font-family="Helvetica,sans-Serif" font-size="10.00">src/Api/Animator.cpp</text>
</a>
</g>
</g>
<!-- Node31&#45;&gt;Node32 -->
<g id="edge42" class="edge">
<title>Node31&#45;&gt;Node32</title>
<path fill="none" stroke="midnightblue" d="M1691.87,-185.14C1712.2,-172.79 1737.55,-157.39 1753,-148.01"/>
<polygon fill="midnightblue" stroke="midnightblue" points="1689.95,-182.21 1683.22,-190.4 1693.58,-188.2 1689.95,-182.21"/>
</g>
<!-- Node33 -->
<g id="node33" class="node">
<title>Node33</title>
<g id="a_node33"><a xlink:href="AnimatorSubsystem_8cpp.html" target="_top" xlink:title=" ">
<polygon fill="none" stroke="black" points="1500,-129 1500,-148 1696,-148 1696,-129 1500,-129"/>
<text text-anchor="middle" x="1598" y="-136" font-family="Helvetica,sans-Serif" font-size="10.00">src/Subsystems/AnimatorSubsystem.cpp</text>
</a>
</g>
</g>
<!-- Node31&#45;&gt;Node33 -->
<g id="edge43" class="edge">
<title>Node31&#45;&gt;Node33</title>
<path fill="none" stroke="midnightblue" d="M1639.49,-183C1628.17,-171.13 1614.74,-157.05 1606.29,-148.19"/>
<polygon fill="midnightblue" stroke="midnightblue" points="1637.11,-185.58 1646.55,-190.4 1642.18,-180.74 1637.11,-185.58"/>
</g>
<!-- Node34&#45;&gt;Node5 -->
<g id="edge48" class="edge">
<title>Node34&#45;&gt;Node5</title>
<path fill="none" stroke="midnightblue" d="M1162.14,-263.15C1047.05,-250.14 827.15,-225.28 721.11,-213.3"/>
<polygon fill="midnightblue" stroke="midnightblue" points="1161.94,-266.65 1172.27,-264.3 1162.72,-259.69 1161.94,-266.65"/>
</g>
<!-- Node34&#45;&gt;Node15 -->
<g id="edge49" class="edge">
<title>Node34&#45;&gt;Node15</title>
<path fill="none" stroke="midnightblue" d="M1237.51,-246.95C1239.59,-229.74 1244.49,-206.89 1256,-190 1271.63,-167.08 1294.24,-178.63 1307,-154 1313.34,-141.77 1316.15,-133.3 1307,-123 1285.27,-98.55 1093.19,-83.91 974.17,-77.11"/>
<polygon fill="midnightblue" stroke="midnightblue" points="1233.98,-247.03 1236.51,-257.32 1240.95,-247.7 1233.98,-247.03"/>
</g>
<!-- Node34&#45;&gt;Node19 -->
<g id="edge50" class="edge">
<title>Node34&#45;&gt;Node19</title>
<path fill="none" stroke="midnightblue" d="M1299.01,-254.06C1320.13,-246.22 1342.9,-235.41 1361,-221 1384.37,-202.4 1402.19,-171.72 1411.28,-153.78"/>
<polygon fill="midnightblue" stroke="midnightblue" points="1297.69,-250.82 1289.44,-257.46 1300.04,-257.41 1297.69,-250.82"/>
</g>
<!-- Node35 -->
<g id="node35" class="node">
<title>Node35</title>
<g id="a_node35"><a xlink:href="Text_8cpp.html" target="_top" xlink:title=" ">
<polygon fill="none" stroke="black" points="1264.5,-196 1264.5,-215 1351.5,-215 1351.5,-196 1264.5,-196"/>
<text text-anchor="middle" x="1308" y="-203" font-family="Helvetica,sans-Serif" font-size="10.00">src/Api/Text.cpp</text>
</a>
</g>
</g>
<!-- Node34&#45;&gt;Node35 -->
<g id="edge47" class="edge">
<title>Node34&#45;&gt;Node35</title>
<path fill="none" stroke="midnightblue" d="M1259.07,-250.67C1272.36,-238.67 1288.37,-224.22 1298.37,-215.19"/>
<polygon fill="midnightblue" stroke="midnightblue" points="1256.7,-248.1 1251.62,-257.4 1261.39,-253.29 1256.7,-248.1"/>
</g>
</g>
</svg>
