<?xml version="1.0" encoding="UTF-8" standalone="no"?>
<!DOCTYPE svg PUBLIC "-//W3C//DTD SVG 1.1//EN"
 "http://www.w3.org/Graphics/SVG/1.1/DTD/svg11.dtd">
<!-- Generated by graphviz version 2.44.0 ()
 -->
<!-- Title: src/Listeners/ContactListener.hpp Pages: 1 -->
<svg width="362pt" height="252pt"
 viewBox="0.00 0.00 362.00 252.00" xmlns="http://www.w3.org/2000/svg" xmlns:xlink="http://www.w3.org/1999/xlink">
<g id="graph0" class="graph" transform="scale(1 1) rotate(0) translate(4 248)">
<title>src/Listeners/ContactListener.hpp</title>
<!-- Node1 -->
<g id="node1" class="node">
<title>Node1</title>
<g id="a_node1"><a xlink:title=" ">
<polygon fill="#bfbfbf" stroke="black" points="70,-224.5 70,-243.5 234,-243.5 234,-224.5 70,-224.5"/>
<text text-anchor="middle" x="152" y="-231.5" font-family="Helvetica,sans-Serif" font-size="10.00">src/Listeners/ContactListener.hpp</text>
</a>
</g>
</g>
<!-- Node2 -->
<g id="node2" class="node">
<title>Node2</title>
<g id="a_node2"><a xlink:title=" ">
<polygon fill="none" stroke="#bfbfbf" points="0,-168.5 0,-187.5 78,-187.5 78,-168.5 0,-168.5"/>
<text text-anchor="middle" x="39" y="-175.5" font-family="Helvetica,sans-Serif" font-size="10.00">box2d/box2d.h</text>
</a>
</g>
</g>
<!-- Node1&#45;&gt;Node2 -->
<g id="edge1" class="edge">
<title>Node1&#45;&gt;Node2</title>
<path fill="none" stroke="midnightblue" d="M134.09,-224.44C115.75,-215.68 86.99,-201.94 65.91,-191.86"/>
<polygon fill="midnightblue" stroke="midnightblue" points="67.35,-188.67 56.82,-187.52 64.33,-194.99 67.35,-188.67"/>
</g>
<!-- Node3 -->
<g id="node3" class="node">
<title>Node3</title>
<g id="a_node3"><a xlink:href="Component_8hpp.html" target="_top" xlink:title=" ">
<polygon fill="none" stroke="black" points="136,-56.5 136,-75.5 220,-75.5 220,-56.5 136,-56.5"/>
<text text-anchor="middle" x="178" y="-63.5" font-family="Helvetica,sans-Serif" font-size="10.00">Component.hpp</text>
</a>
</g>
</g>
<!-- Node1&#45;&gt;Node3 -->
<g id="edge2" class="edge">
<title>Node1&#45;&gt;Node3</title>
<path fill="none" stroke="midnightblue" d="M144.85,-224.36C138.23,-215.76 128.84,-201.87 125,-188 122.63,-179.43 122.87,-176.63 125,-168 132.86,-136.11 152.78,-103.15 165.84,-83.89"/>
<polygon fill="midnightblue" stroke="midnightblue" points="168.77,-85.8 171.61,-75.6 163.02,-81.8 168.77,-85.8"/>
</g>
<!-- Node5 -->
<g id="node5" class="node">
<title>Node5</title>
<g id="a_node5"><a xlink:title=" ">
<polygon fill="none" stroke="#bfbfbf" points="134.5,-168.5 134.5,-187.5 169.5,-187.5 169.5,-168.5 134.5,-168.5"/>
<text text-anchor="middle" x="152" y="-175.5" font-family="Helvetica,sans-Serif" font-size="10.00">map</text>
</a>
</g>
</g>
<!-- Node1&#45;&gt;Node5 -->
<g id="edge4" class="edge">
<title>Node1&#45;&gt;Node5</title>
<path fill="none" stroke="midnightblue" d="M152,-224.08C152,-217.01 152,-206.86 152,-197.99"/>
<polygon fill="midnightblue" stroke="midnightblue" points="155.5,-197.75 152,-187.75 148.5,-197.75 155.5,-197.75"/>
</g>
<!-- Node6 -->
<g id="node6" class="node">
<title>Node6</title>
<g id="a_node6"><a xlink:href="BehaviourScript_8hpp.html" target="_top" xlink:title=" ">
<polygon fill="none" stroke="black" points="188,-168.5 188,-187.5 292,-187.5 292,-168.5 188,-168.5"/>
<text text-anchor="middle" x="240" y="-175.5" font-family="Helvetica,sans-Serif" font-size="10.00">BehaviourScript.hpp</text>
</a>
</g>
</g>
<!-- Node1&#45;&gt;Node6 -->
<g id="edge5" class="edge">
<title>Node1&#45;&gt;Node6</title>
<path fill="none" stroke="midnightblue" d="M166.14,-224.32C179.87,-215.9 200.94,-202.97 217.06,-193.07"/>
<polygon fill="midnightblue" stroke="midnightblue" points="219.2,-195.87 225.9,-187.65 215.54,-189.9 219.2,-195.87"/>
</g>
<!-- Node8 -->
<g id="node8" class="node">
<title>Node8</title>
<g id="a_node8"><a xlink:title=" ">
<polygon fill="none" stroke="#bfbfbf" points="310,-168.5 310,-187.5 354,-187.5 354,-168.5 310,-168.5"/>
<text text-anchor="middle" x="332" y="-175.5" font-family="Helvetica,sans-Serif" font-size="10.00">vector</text>
</a>
</g>
</g>
<!-- Node1&#45;&gt;Node8 -->
<g id="edge9" class="edge">
<title>Node1&#45;&gt;Node8</title>
<path fill="none" stroke="midnightblue" d="M180.52,-224.44C213.04,-214.69 266.08,-198.78 299.99,-188.6"/>
<polygon fill="midnightblue" stroke="midnightblue" points="301.28,-191.87 309.85,-185.64 299.27,-185.17 301.28,-191.87"/>
</g>
<!-- Node4 -->
<g id="node4" class="node">
<title>Node4</title>
<g id="a_node4"><a xlink:title=" ">
<polygon fill="none" stroke="#bfbfbf" points="152.5,-0.5 152.5,-19.5 203.5,-19.5 203.5,-0.5 152.5,-0.5"/>
<text text-anchor="middle" x="178" y="-7.5" font-family="Helvetica,sans-Serif" font-size="10.00">memory</text>
</a>
</g>
</g>
<!-- Node3&#45;&gt;Node4 -->
<g id="edge3" class="edge">
<title>Node3&#45;&gt;Node4</title>
<path fill="none" stroke="midnightblue" d="M178,-56.08C178,-49.01 178,-38.86 178,-29.99"/>
<polygon fill="midnightblue" stroke="midnightblue" points="181.5,-29.75 178,-19.75 174.5,-29.75 181.5,-29.75"/>
</g>
<!-- Node6&#45;&gt;Node3 -->
<g id="edge6" class="edge">
<title>Node6&#45;&gt;Node3</title>
<path fill="none" stroke="midnightblue" d="M229.3,-168.45C219.55,-160.12 205.43,-146.6 197,-132 188.64,-117.52 183.71,-99.07 180.97,-85.53"/>
<polygon fill="midnightblue" stroke="midnightblue" points="184.38,-84.73 179.16,-75.51 177.49,-85.97 184.38,-84.73"/>
</g>
<!-- Node7 -->
<g id="node7" class="node">
<title>Node7</title>
<g id="a_node7"><a xlink:href="Collider_8hpp.html" target="_top" xlink:title=" ">
<polygon fill="none" stroke="black" points="206.5,-112.5 206.5,-131.5 273.5,-131.5 273.5,-112.5 206.5,-112.5"/>
<text text-anchor="middle" x="240" y="-119.5" font-family="Helvetica,sans-Serif" font-size="10.00">Collider.hpp</text>
</a>
</g>
</g>
<!-- Node6&#45;&gt;Node7 -->
<g id="edge7" class="edge">
<title>Node6&#45;&gt;Node7</title>
<path fill="none" stroke="midnightblue" d="M240,-168.08C240,-161.01 240,-150.86 240,-141.99"/>
<polygon fill="midnightblue" stroke="midnightblue" points="243.5,-141.75 240,-131.75 236.5,-141.75 243.5,-141.75"/>
</g>
<!-- Node7&#45;&gt;Node3 -->
<g id="edge8" class="edge">
<title>Node7&#45;&gt;Node3</title>
<path fill="none" stroke="midnightblue" d="M230.04,-112.32C220.87,-104.34 207.06,-92.31 195.97,-82.65"/>
<polygon fill="midnightblue" stroke="midnightblue" points="197.98,-79.76 188.14,-75.83 193.38,-85.04 197.98,-79.76"/>
</g>
</g>
</svg>
