<?xml version="1.0" encoding="UTF-8" standalone="no"?>
<!DOCTYPE svg PUBLIC "-//W3C//DTD SVG 1.1//EN"
 "http://www.w3.org/Graphics/SVG/1.1/DTD/svg11.dtd">
<!-- Generated by graphviz version 2.44.0 ()
 -->
<!-- Title: src/Api/Debug.cpp Pages: 1 -->
<svg width="296pt" height="140pt"
 viewBox="0.00 0.00 296.00 140.00" xmlns="http://www.w3.org/2000/svg" xmlns:xlink="http://www.w3.org/1999/xlink">
<g id="graph0" class="graph" transform="scale(1 1) rotate(0) translate(4 136)">
<title>src/Api/Debug.cpp</title>
<!-- Node1 -->
<g id="node1" class="node">
<title>Node1</title>
<g id="a_node1"><a xlink:title=" ">
<polygon fill="#bfbfbf" stroke="black" points="137,-112.5 137,-131.5 233,-131.5 233,-112.5 137,-112.5"/>
<text text-anchor="middle" x="185" y="-119.5" font-family="Helvetica,sans-Serif" font-size="10.00">src/Api/Debug.cpp</text>
</a>
</g>
</g>
<!-- Node2 -->
<g id="node2" class="node">
<title>Node2</title>
<g id="a_node2"><a xlink:href="Debug_8hpp.html" target="_top" xlink:title=" ">
<polygon fill="none" stroke="black" points="154,-56.5 154,-75.5 216,-75.5 216,-56.5 154,-56.5"/>
<text text-anchor="middle" x="185" y="-63.5" font-family="Helvetica,sans-Serif" font-size="10.00">Debug.hpp</text>
</a>
</g>
</g>
<!-- Node1&#45;&gt;Node2 -->
<g id="edge1" class="edge">
<title>Node1&#45;&gt;Node2</title>
<path fill="none" stroke="midnightblue" d="M185,-112.08C185,-105.01 185,-94.86 185,-85.99"/>
<polygon fill="midnightblue" stroke="midnightblue" points="188.5,-85.75 185,-75.75 181.5,-85.75 188.5,-85.75"/>
</g>
<!-- Node6 -->
<g id="node6" class="node">
<title>Node6</title>
<g id="a_node6"><a xlink:href="DebugLines_8hpp.html" target="_top" xlink:title=" ">
<polygon fill="none" stroke="black" points="8,-56.5 8,-75.5 136,-75.5 136,-56.5 8,-56.5"/>
<text text-anchor="middle" x="72" y="-63.5" font-family="Helvetica,sans-Serif" font-size="10.00">../Structs/DebugLines.hpp</text>
</a>
</g>
</g>
<!-- Node1&#45;&gt;Node6 -->
<g id="edge5" class="edge">
<title>Node1&#45;&gt;Node6</title>
<path fill="none" stroke="midnightblue" d="M167.09,-112.44C148.75,-103.68 119.99,-89.94 98.91,-79.86"/>
<polygon fill="midnightblue" stroke="midnightblue" points="100.35,-76.67 89.82,-75.52 97.33,-82.99 100.35,-76.67"/>
</g>
<!-- Node8 -->
<g id="node8" class="node">
<title>Node8</title>
<g id="a_node8"><a xlink:title=" ">
<polygon fill="none" stroke="#bfbfbf" points="234,-56.5 234,-75.5 288,-75.5 288,-56.5 234,-56.5"/>
<text text-anchor="middle" x="261" y="-63.5" font-family="Helvetica,sans-Serif" font-size="10.00">iostream</text>
</a>
</g>
</g>
<!-- Node1&#45;&gt;Node8 -->
<g id="edge9" class="edge">
<title>Node1&#45;&gt;Node8</title>
<path fill="none" stroke="midnightblue" d="M197.21,-112.32C208.78,-104.11 226.38,-91.6 240.16,-81.81"/>
<polygon fill="midnightblue" stroke="midnightblue" points="242.44,-84.48 248.57,-75.83 238.39,-78.77 242.44,-84.48"/>
</g>
<!-- Node3 -->
<g id="node3" class="node">
<title>Node3</title>
<g id="a_node3"><a xlink:href="Point_8hpp.html" target="_top" xlink:title=" ">
<polygon fill="none" stroke="black" points="62.5,-0.5 62.5,-19.5 119.5,-19.5 119.5,-0.5 62.5,-0.5"/>
<text text-anchor="middle" x="91" y="-7.5" font-family="Helvetica,sans-Serif" font-size="10.00">Point.hpp</text>
</a>
</g>
</g>
<!-- Node2&#45;&gt;Node3 -->
<g id="edge2" class="edge">
<title>Node2&#45;&gt;Node3</title>
<path fill="none" stroke="midnightblue" d="M169.9,-56.32C155.1,-47.82 132.31,-34.73 115.02,-24.8"/>
<polygon fill="midnightblue" stroke="midnightblue" points="116.48,-21.6 106.07,-19.65 112.99,-27.67 116.48,-21.6"/>
</g>
<!-- Node4 -->
<g id="node4" class="node">
<title>Node4</title>
<g id="a_node4"><a xlink:href="Color_8hpp.html" target="_top" xlink:title=" ">
<polygon fill="none" stroke="black" points="137.5,-0.5 137.5,-19.5 194.5,-19.5 194.5,-0.5 137.5,-0.5"/>
<text text-anchor="middle" x="166" y="-7.5" font-family="Helvetica,sans-Serif" font-size="10.00">Color.hpp</text>
</a>
</g>
</g>
<!-- Node2&#45;&gt;Node4 -->
<g id="edge3" class="edge">
<title>Node2&#45;&gt;Node4</title>
<path fill="none" stroke="midnightblue" d="M181.86,-56.08C179.32,-48.85 175.64,-38.41 172.47,-29.4"/>
<polygon fill="midnightblue" stroke="midnightblue" points="175.7,-28.02 169.08,-19.75 169.1,-30.35 175.7,-28.02"/>
</g>
<!-- Node5 -->
<g id="node5" class="node">
<title>Node5</title>
<g id="a_node5"><a xlink:title=" ">
<polygon fill="none" stroke="#bfbfbf" points="212.5,-0.5 212.5,-19.5 253.5,-19.5 253.5,-0.5 212.5,-0.5"/>
<text text-anchor="middle" x="233" y="-7.5" font-family="Helvetica,sans-Serif" font-size="10.00">string</text>
</a>
</g>
</g>
<!-- Node2&#45;&gt;Node5 -->
<g id="edge4" class="edge">
<title>Node2&#45;&gt;Node5</title>
<path fill="none" stroke="midnightblue" d="M192.93,-56.08C199.85,-48.3 210.07,-36.8 218.45,-27.37"/>
<polygon fill="midnightblue" stroke="midnightblue" points="221.19,-29.55 225.22,-19.75 215.96,-24.9 221.19,-29.55"/>
</g>
<!-- Node6&#45;&gt;Node3 -->
<g id="edge7" class="edge">
<title>Node6&#45;&gt;Node3</title>
<path fill="none" stroke="midnightblue" d="M75.14,-56.08C77.68,-48.85 81.36,-38.41 84.53,-29.4"/>
<polygon fill="midnightblue" stroke="midnightblue" points="87.9,-30.35 87.92,-19.75 81.3,-28.02 87.9,-30.35"/>
</g>
<!-- Node6&#45;&gt;Node4 -->
<g id="edge8" class="edge">
<title>Node6&#45;&gt;Node4</title>
<path fill="none" stroke="midnightblue" d="M87.1,-56.32C101.9,-47.82 124.69,-34.73 141.98,-24.8"/>
<polygon fill="midnightblue" stroke="midnightblue" points="144.01,-27.67 150.93,-19.65 140.52,-21.6 144.01,-27.67"/>
</g>
<!-- Node7 -->
<g id="node7" class="node">
<title>Node7</title>
<g id="a_node7"><a xlink:title=" ">
<polygon fill="none" stroke="#bfbfbf" points="0,-0.5 0,-19.5 44,-19.5 44,-0.5 0,-0.5"/>
<text text-anchor="middle" x="22" y="-7.5" font-family="Helvetica,sans-Serif" font-size="10.00">vector</text>
</a>
</g>
</g>
<!-- Node6&#45;&gt;Node7 -->
<g id="edge6" class="edge">
<title>Node6&#45;&gt;Node7</title>
<path fill="none" stroke="midnightblue" d="M63.74,-56.08C56.54,-48.3 45.89,-36.8 37.15,-27.37"/>
<polygon fill="midnightblue" stroke="midnightblue" points="39.47,-24.71 30.1,-19.75 34.33,-29.47 39.47,-24.71"/>
</g>
</g>
</svg>
