<?xml version="1.0" encoding="UTF-8" standalone="no"?>
<!DOCTYPE svg PUBLIC "-//W3C//DTD SVG 1.1//EN"
 "http://www.w3.org/Graphics/SVG/1.1/DTD/svg11.dtd">
<!-- Generated by graphviz version 2.44.0 ()
 -->
<!-- Title: src/Structs/DebugLines.hpp Pages: 1 -->
<svg width="466pt" height="84pt"
 viewBox="0.00 0.00 466.00 84.00" xmlns="http://www.w3.org/2000/svg" xmlns:xlink="http://www.w3.org/1999/xlink">
<g id="graph0" class="graph" transform="scale(1 1) rotate(0) translate(4 80)">
<title>src/Structs/DebugLines.hpp</title>
<!-- Node1 -->
<g id="node1" class="node">
<title>Node1</title>
<g id="a_node1"><a xlink:title=" ">
<polygon fill="#bfbfbf" stroke="black" points="114.5,-56.5 114.5,-75.5 251.5,-75.5 251.5,-56.5 114.5,-56.5"/>
<text text-anchor="middle" x="183" y="-63.5" font-family="Helvetica,sans-Serif" font-size="10.00">src/Structs/DebugLines.hpp</text>
</a>
</g>
</g>
<!-- Node2 -->
<g id="node2" class="node">
<title>Node2</title>
<g id="a_node2"><a xlink:href="Debug_8cpp.html" target="_top" xlink:title=" ">
<polygon fill="none" stroke="black" points="0,-0.5 0,-19.5 96,-19.5 96,-0.5 0,-0.5"/>
<text text-anchor="middle" x="48" y="-7.5" font-family="Helvetica,sans-Serif" font-size="10.00">src/Api/Debug.cpp</text>
</a>
</g>
</g>
<!-- Node1&#45;&gt;Node2 -->
<g id="edge1" class="edge">
<title>Node1&#45;&gt;Node2</title>
<path fill="none" stroke="midnightblue" d="M152.09,-52.64C126.76,-42.5 91.57,-28.43 69.29,-19.52"/>
<polygon fill="midnightblue" stroke="midnightblue" points="151.02,-55.98 161.61,-56.44 153.62,-49.48 151.02,-55.98"/>
</g>
<!-- Node3 -->
<g id="node3" class="node">
<title>Node3</title>
<g id="a_node3"><a xlink:href="DebugLines_8cpp.html" target="_top" xlink:title=" ">
<polygon fill="none" stroke="black" points="114.5,-0.5 114.5,-19.5 251.5,-19.5 251.5,-0.5 114.5,-0.5"/>
<text text-anchor="middle" x="183" y="-7.5" font-family="Helvetica,sans-Serif" font-size="10.00">src/Structs/DebugLines.cpp</text>
</a>
</g>
</g>
<!-- Node1&#45;&gt;Node3 -->
<g id="edge2" class="edge">
<title>Node1&#45;&gt;Node3</title>
<path fill="none" stroke="midnightblue" d="M183,-45.8C183,-36.91 183,-26.78 183,-19.75"/>
<polygon fill="midnightblue" stroke="midnightblue" points="179.5,-46.08 183,-56.08 186.5,-46.08 179.5,-46.08"/>
</g>
<!-- Node4 -->
<g id="node4" class="node">
<title>Node4</title>
<g id="a_node4"><a xlink:href="RenderSubsystem_8cpp.html" target="_top" xlink:title=" ">
<polygon fill="none" stroke="black" points="270,-0.5 270,-19.5 458,-19.5 458,-0.5 270,-0.5"/>
<text text-anchor="middle" x="364" y="-7.5" font-family="Helvetica,sans-Serif" font-size="10.00">src/Subsystems/RenderSubsystem.cpp</text>
</a>
</g>
</g>
<!-- Node1&#45;&gt;Node4 -->
<g id="edge3" class="edge">
<title>Node1&#45;&gt;Node4</title>
<path fill="none" stroke="midnightblue" d="M221.32,-53.57C255.46,-43.38 304.66,-28.7 335.45,-19.52"/>
<polygon fill="midnightblue" stroke="midnightblue" points="220.26,-50.23 211.68,-56.44 222.26,-56.94 220.26,-50.23"/>
</g>
</g>
</svg>
