<?xml version="1.0" encoding="UTF-8" standalone="no"?>
<!DOCTYPE svg PUBLIC "-//W3C//DTD SVG 1.1//EN"
 "http://www.w3.org/Graphics/SVG/1.1/DTD/svg11.dtd">
<!-- Generated by graphviz version 2.44.0 ()
 -->
<!-- Title: includes/spic&#45;api&#45;headers/Debug.hpp Pages: 1 -->
<svg width="1052pt" height="106pt"
 viewBox="0.00 0.00 1051.50 106.00" xmlns="http://www.w3.org/2000/svg" xmlns:xlink="http://www.w3.org/1999/xlink">
<g id="graph0" class="graph" transform="scale(1 1) rotate(0) translate(4 102)">
<title>includes/spic&#45;api&#45;headers/Debug.hpp</title>
<!-- Node1 -->
<g id="node1" class="node">
<title>Node1</title>
<g id="a_node1"><a xlink:title=" ">
<polygon fill="#bfbfbf" stroke="black" points="461.5,-67.5 461.5,-97.5 588.5,-97.5 588.5,-67.5 461.5,-67.5"/>
<text text-anchor="start" x="469.5" y="-85.5" font-family="Helvetica,sans-Serif" font-size="10.00">includes/spic&#45;api&#45;headers</text>
<text text-anchor="middle" x="525" y="-74.5" font-family="Helvetica,sans-Serif" font-size="10.00">/Debug.hpp</text>
</a>
</g>
</g>
<!-- Node2 -->
<g id="node2" class="node">
<title>Node2</title>
<g id="a_node2"><a xlink:href="Debug_8cpp.html" target="_top" xlink:title=" ">
<polygon fill="none" stroke="black" points="0,-6 0,-25 96,-25 96,-6 0,-6"/>
<text text-anchor="middle" x="48" y="-13" font-family="Helvetica,sans-Serif" font-size="10.00">src/Api/Debug.cpp</text>
</a>
</g>
</g>
<!-- Node1&#45;&gt;Node2 -->
<g id="edge1" class="edge">
<title>Node1&#45;&gt;Node2</title>
<path fill="none" stroke="midnightblue" d="M451.3,-75.55C367.09,-68.08 225.37,-53.45 105,-31 96.37,-29.39 87.1,-27.23 78.6,-25.06"/>
<polygon fill="midnightblue" stroke="midnightblue" points="451.02,-79.04 461.28,-76.42 451.63,-72.06 451.02,-79.04"/>
</g>
<!-- Node3 -->
<g id="node3" class="node">
<title>Node3</title>
<g id="a_node3"><a xlink:href="AudioManager_8cpp.html" target="_top" xlink:title=" ">
<polygon fill="none" stroke="black" points="114.5,-6 114.5,-25 273.5,-25 273.5,-6 114.5,-6"/>
<text text-anchor="middle" x="194" y="-13" font-family="Helvetica,sans-Serif" font-size="10.00">src/Managers/AudioManager.cpp</text>
</a>
</g>
</g>
<!-- Node1&#45;&gt;Node3 -->
<g id="edge2" class="edge">
<title>Node1&#45;&gt;Node3</title>
<path fill="none" stroke="midnightblue" d="M451.31,-67.03C385.7,-54.14 291.93,-35.73 237.57,-25.06"/>
<polygon fill="midnightblue" stroke="midnightblue" points="450.69,-70.47 461.18,-68.97 452.04,-63.61 450.69,-70.47"/>
</g>
<!-- Node4 -->
<g id="node4" class="node">
<title>Node4</title>
<g id="a_node4"><a xlink:href="TimeManager_8cpp.html" target="_top" xlink:title=" ">
<polygon fill="none" stroke="black" points="292,-6 292,-25 448,-25 448,-6 292,-6"/>
<text text-anchor="middle" x="370" y="-13" font-family="Helvetica,sans-Serif" font-size="10.00">src/Managers/TimeManager.cpp</text>
</a>
</g>
</g>
<!-- Node1&#45;&gt;Node4 -->
<g id="edge3" class="edge">
<title>Node1&#45;&gt;Node4</title>
<path fill="none" stroke="midnightblue" d="M481.98,-63.46C452.03,-50.9 413.46,-34.72 390.29,-25.01"/>
<polygon fill="midnightblue" stroke="midnightblue" points="480.79,-66.76 491.37,-67.4 483.5,-60.3 480.79,-66.76"/>
</g>
<!-- Node5 -->
<g id="node5" class="node">
<title>Node5</title>
<g id="a_node5"><a xlink:href="Texture_8cpp.html" target="_top" xlink:title=" ">
<polygon fill="none" stroke="black" points="466,-6 466,-25 584,-25 584,-6 466,-6"/>
<text text-anchor="middle" x="525" y="-13" font-family="Helvetica,sans-Serif" font-size="10.00">src/Models/Texture.cpp</text>
</a>
</g>
</g>
<!-- Node1&#45;&gt;Node5 -->
<g id="edge4" class="edge">
<title>Node1&#45;&gt;Node5</title>
<path fill="none" stroke="midnightblue" d="M525,-57.25C525,-46.02 525,-33.38 525,-25.19"/>
<polygon fill="midnightblue" stroke="midnightblue" points="521.5,-57.4 525,-67.4 528.5,-57.4 521.5,-57.4"/>
</g>
<!-- Node6 -->
<g id="node6" class="node">
<title>Node6</title>
<g id="a_node6"><a xlink:href="BehaviourScriptSubsystem_8cpp.html" target="_top" xlink:title=" ">
<polygon fill="none" stroke="black" points="602,-0.5 602,-30.5 736,-30.5 736,-0.5 602,-0.5"/>
<text text-anchor="start" x="610" y="-18.5" font-family="Helvetica,sans-Serif" font-size="10.00">src/Subsystems/Behaviour</text>
<text text-anchor="middle" x="669" y="-7.5" font-family="Helvetica,sans-Serif" font-size="10.00">ScriptSubsystem.cpp</text>
</a>
</g>
</g>
<!-- Node1&#45;&gt;Node6 -->
<g id="edge5" class="edge">
<title>Node1&#45;&gt;Node6</title>
<path fill="none" stroke="midnightblue" d="M565.39,-63.27C588.32,-52.92 616.6,-40.15 637.82,-30.58"/>
<polygon fill="midnightblue" stroke="midnightblue" points="563.92,-60.09 556.25,-67.4 566.8,-66.47 563.92,-60.09"/>
</g>
<!-- Node7 -->
<g id="node7" class="node">
<title>Node7</title>
<g id="a_node7"><a xlink:href="GameSpeedSubsystem_8cpp.html" target="_top" xlink:title=" ">
<polygon fill="none" stroke="black" points="754,-0.5 754,-30.5 898,-30.5 898,-0.5 754,-0.5"/>
<text text-anchor="start" x="762" y="-18.5" font-family="Helvetica,sans-Serif" font-size="10.00">src/Subsystems/GameSpeed</text>
<text text-anchor="middle" x="826" y="-7.5" font-family="Helvetica,sans-Serif" font-size="10.00">Subsystem.cpp</text>
</a>
</g>
</g>
<!-- Node1&#45;&gt;Node7 -->
<g id="edge6" class="edge">
<title>Node1&#45;&gt;Node7</title>
<path fill="none" stroke="midnightblue" d="M598.86,-65.55C648.49,-54.83 713.28,-40.84 760.96,-30.55"/>
<polygon fill="midnightblue" stroke="midnightblue" points="597.87,-62.18 588.83,-67.72 599.35,-69.03 597.87,-62.18"/>
</g>
<!-- Node8 -->
<g id="node8" class="node">
<title>Node8</title>
<g id="a_node8"><a xlink:href="Api_8hpp.html" target="_top" xlink:title=" ">
<polygon fill="none" stroke="black" points="916.5,-0.5 916.5,-30.5 1043.5,-30.5 1043.5,-0.5 916.5,-0.5"/>
<text text-anchor="start" x="924.5" y="-18.5" font-family="Helvetica,sans-Serif" font-size="10.00">includes/spic&#45;api&#45;headers</text>
<text text-anchor="middle" x="980" y="-7.5" font-family="Helvetica,sans-Serif" font-size="10.00">/Api.hpp</text>
</a>
</g>
</g>
<!-- Node1&#45;&gt;Node8 -->
<g id="edge7" class="edge">
<title>Node1&#45;&gt;Node8</title>
<path fill="none" stroke="midnightblue" d="M598.81,-73.18C675.91,-64.15 800.25,-48.64 907,-31 910.06,-30.49 913.19,-29.96 916.34,-29.4"/>
<polygon fill="midnightblue" stroke="midnightblue" points="598.25,-69.72 588.72,-74.35 599.06,-76.67 598.25,-69.72"/>
</g>
</g>
</svg>
