<?xml version="1.0" encoding="UTF-8" standalone="no"?>
<!DOCTYPE svg PUBLIC "-//W3C//DTD SVG 1.1//EN"
 "http://www.w3.org/Graphics/SVG/1.1/DTD/svg11.dtd">
<!-- Generated by graphviz version 2.44.0 ()
 -->
<!-- Title: src/Api Pages: 1 -->
<svg width="189pt" height="295pt"
 viewBox="0.00 0.00 188.59 295.00" xmlns="http://www.w3.org/2000/svg" xmlns:xlink="http://www.w3.org/1999/xlink">
<g id="graph0" class="graph" transform="scale(1 1) rotate(0) translate(4 291)">
<title>src/Api</title>
<g id="clust1" class="cluster">
<title>clusterdir_68267d1309a1af8e8297ef4c3efbcdba</title>
<g id="a_clust1"><a xlink:href="dir_68267d1309a1af8e8297ef4c3efbcdba.html" target="_top" xlink:title="src">
<polygon fill="#ddddee" stroke="black" points="8,-64 8,-279 159,-279 159,-64 8,-64"/>
<text text-anchor="middle" x="83.5" y="-267" font-family="Helvetica,sans-Serif" font-size="10.00">src</text>
</a>
</g>
</g>
<!-- dir_9abb3c88ff8fa0627e3c7214f1ab5523 -->
<g id="node1" class="node">
<title>dir_9abb3c88ff8fa0627e3c7214f1ab5523</title>
<g id="a_node1"><a xlink:href="dir_9abb3c88ff8fa0627e3c7214f1ab5523.html" target="_top" xlink:title="Listeners">
<polygon fill="none" stroke="black" points="73.5,-108 16.5,-108 16.5,-72 73.5,-72 73.5,-108"/>
<text text-anchor="middle" x="45" y="-87.5" font-family="Helvetica,sans-Serif" font-size="10.00">Listeners</text>
</a>
</g>
</g>
<!-- dir_09e761304027c904456130627fd4dcf5 -->
<g id="node5" class="node">
<title>dir_09e761304027c904456130627fd4dcf5</title>
<g id="a_node5"><a xlink:href="dir_09e761304027c904456130627fd4dcf5.html" target="_top" xlink:title="includes">
<polygon fill="none" stroke="red" points="177,-36 123,-36 123,0 177,0 177,-36"/>
<text text-anchor="middle" x="150" y="-15.5" font-family="Helvetica,sans-Serif" font-size="10.00">includes</text>
</a>
</g>
</g>
<!-- dir_9abb3c88ff8fa0627e3c7214f1ab5523&#45;&gt;dir_09e761304027c904456130627fd4dcf5 -->
<g id="edge1" class="edge">
<title>dir_9abb3c88ff8fa0627e3c7214f1ab5523&#45;&gt;dir_09e761304027c904456130627fd4dcf5</title>
<path fill="none" stroke="black" d="M70.69,-71.88C84.29,-62.81 101.17,-51.55 115.86,-41.76"/>
<polygon fill="black" stroke="black" points="117.84,-44.65 124.22,-36.19 113.95,-38.82 117.84,-44.65"/>
<g id="a_edge1&#45;headlabel"><a xlink:href="dir_000005_000000.html" target="_top" xlink:title="7">
<text text-anchor="middle" x="116.42" y="-46.51" font-family="Helvetica,sans-Serif" font-size="10.00">7</text>
</a>
</g>
</g>
<!-- dir_d71c2fe00ed3b147a8f961a1bf80b6a4 -->
<g id="node2" class="node">
<title>dir_d71c2fe00ed3b147a8f961a1bf80b6a4</title>
<g id="a_node2"><a xlink:href="dir_d71c2fe00ed3b147a8f961a1bf80b6a4.html" target="_top" xlink:title="Managers">
<polygon fill="none" stroke="black" points="150.5,-108 91.5,-108 91.5,-72 150.5,-72 150.5,-108"/>
<text text-anchor="middle" x="121" y="-87.5" font-family="Helvetica,sans-Serif" font-size="10.00">Managers</text>
</a>
</g>
</g>
<!-- dir_d71c2fe00ed3b147a8f961a1bf80b6a4&#45;&gt;dir_09e761304027c904456130627fd4dcf5 -->
<g id="edge6" class="edge">
<title>dir_d71c2fe00ed3b147a8f961a1bf80b6a4&#45;&gt;dir_09e761304027c904456130627fd4dcf5</title>
<path fill="none" stroke="black" d="M128.17,-71.7C131.43,-63.81 135.37,-54.3 139,-45.55"/>
<polygon fill="black" stroke="black" points="142.32,-46.68 142.91,-36.1 135.85,-44 142.32,-46.68"/>
<g id="a_edge6&#45;headlabel"><a xlink:href="dir_000006_000000.html" target="_top" xlink:title="7">
<text text-anchor="middle" x="143.57" y="-48.59" font-family="Helvetica,sans-Serif" font-size="10.00">7</text>
</a>
</g>
</g>
<!-- dir_ed68644c5c891dd73f5144e8c8bef534 -->
<g id="node3" class="node">
<title>dir_ed68644c5c891dd73f5144e8c8bef534</title>
<g id="a_node3"><a xlink:href="dir_ed68644c5c891dd73f5144e8c8bef534.html" target="_top" xlink:title="Subsystems">
<polygon fill="none" stroke="black" points="130.5,-180 59.5,-180 59.5,-144 130.5,-144 130.5,-180"/>
<text text-anchor="middle" x="95" y="-159.5" font-family="Helvetica,sans-Serif" font-size="10.00">Subsystems</text>
</a>
</g>
</g>
<!-- dir_ed68644c5c891dd73f5144e8c8bef534&#45;&gt;dir_9abb3c88ff8fa0627e3c7214f1ab5523 -->
<g id="edge8" class="edge">
<title>dir_ed68644c5c891dd73f5144e8c8bef534&#45;&gt;dir_9abb3c88ff8fa0627e3c7214f1ab5523</title>
<path fill="none" stroke="black" d="M82.64,-143.7C76.77,-135.47 69.63,-125.48 63.16,-116.42"/>
<polygon fill="black" stroke="black" points="65.88,-114.21 57.22,-108.1 60.18,-118.28 65.88,-114.21"/>
<g id="a_edge8&#45;headlabel"><a xlink:href="dir_000008_000005.html" target="_top" xlink:title="1">
<text text-anchor="middle" x="70.28" y="-112.98" font-family="Helvetica,sans-Serif" font-size="10.00">1</text>
</a>
</g>
</g>
<!-- dir_ed68644c5c891dd73f5144e8c8bef534&#45;&gt;dir_d71c2fe00ed3b147a8f961a1bf80b6a4 -->
<g id="edge9" class="edge">
<title>dir_ed68644c5c891dd73f5144e8c8bef534&#45;&gt;dir_d71c2fe00ed3b147a8f961a1bf80b6a4</title>
<path fill="none" stroke="black" d="M101.43,-143.7C104.36,-135.81 107.89,-126.3 111.14,-117.55"/>
<polygon fill="black" stroke="black" points="114.45,-118.7 114.65,-108.1 107.88,-116.26 114.45,-118.7"/>
<g id="a_edge9&#45;headlabel"><a xlink:href="dir_000008_000006.html" target="_top" xlink:title="3">
<text text-anchor="middle" x="115.86" y="-120.56" font-family="Helvetica,sans-Serif" font-size="10.00">3</text>
</a>
</g>
</g>
<!-- dir_ed68644c5c891dd73f5144e8c8bef534&#45;&gt;dir_09e761304027c904456130627fd4dcf5 -->
<g id="edge7" class="edge">
<title>dir_ed68644c5c891dd73f5144e8c8bef534&#45;&gt;dir_09e761304027c904456130627fd4dcf5</title>
<path fill="none" stroke="black" d="M126.58,-143.78C139.45,-134.93 152.94,-122.86 160,-108 169.19,-88.65 165.59,-64.36 160.31,-46.05"/>
<polygon fill="black" stroke="black" points="163.57,-44.75 157.18,-36.3 156.91,-46.89 163.57,-44.75"/>
<g id="a_edge7&#45;headlabel"><a xlink:href="dir_000008_000000.html" target="_top" xlink:title="24">
<text text-anchor="middle" x="167.37" y="-44.81" font-family="Helvetica,sans-Serif" font-size="10.00">24</text>
</a>
</g>
</g>
<!-- dir_2871d450ca6bd61b793a39e709e205b0 -->
<g id="node4" class="node">
<title>dir_2871d450ca6bd61b793a39e709e205b0</title>
<g id="a_node4"><a xlink:href="dir_2871d450ca6bd61b793a39e709e205b0.html" target="_top" xlink:title="Api">
<polygon fill="#eeeeff" stroke="black" points="136,-252 82,-252 82,-216 136,-216 136,-252"/>
<text text-anchor="middle" x="109" y="-231.5" font-family="Helvetica,sans-Serif" font-size="10.00">Api</text>
</a>
</g>
</g>
<!-- dir_2871d450ca6bd61b793a39e709e205b0&#45;&gt;dir_9abb3c88ff8fa0627e3c7214f1ab5523 -->
<g id="edge3" class="edge">
<title>dir_2871d450ca6bd61b793a39e709e205b0&#45;&gt;dir_9abb3c88ff8fa0627e3c7214f1ab5523</title>
<path fill="none" stroke="black" d="M82.4,-215.81C70.64,-206.68 57.93,-194.38 51,-180 41.73,-160.76 40.71,-136.41 41.74,-118.05"/>
<polygon fill="black" stroke="black" points="45.23,-118.26 42.53,-108.02 38.25,-117.71 45.23,-118.26"/>
<g id="a_edge3&#45;headlabel"><a xlink:href="dir_000004_000005.html" target="_top" xlink:title="1">
<text text-anchor="middle" x="47.78" y="-119.57" font-family="Helvetica,sans-Serif" font-size="10.00">1</text>
</a>
</g>
</g>
<!-- dir_2871d450ca6bd61b793a39e709e205b0&#45;&gt;dir_d71c2fe00ed3b147a8f961a1bf80b6a4 -->
<g id="edge4" class="edge">
<title>dir_2871d450ca6bd61b793a39e709e205b0&#45;&gt;dir_d71c2fe00ed3b147a8f961a1bf80b6a4</title>
<path fill="none" stroke="black" d="M122.15,-215.91C128.92,-206.01 136.49,-192.96 140,-180 145.6,-159.35 139.95,-135.64 133.4,-117.89"/>
<polygon fill="black" stroke="black" points="136.48,-116.17 129.51,-108.19 129.98,-118.78 136.48,-116.17"/>
<g id="a_edge4&#45;headlabel"><a xlink:href="dir_000004_000006.html" target="_top" xlink:title="4">
<text text-anchor="middle" x="140.45" y="-115.95" font-family="Helvetica,sans-Serif" font-size="10.00">4</text>
</a>
</g>
</g>
<!-- dir_2871d450ca6bd61b793a39e709e205b0&#45;&gt;dir_ed68644c5c891dd73f5144e8c8bef534 -->
<g id="edge5" class="edge">
<title>dir_2871d450ca6bd61b793a39e709e205b0&#45;&gt;dir_ed68644c5c891dd73f5144e8c8bef534</title>
<path fill="none" stroke="black" d="M105.54,-215.7C104,-207.98 102.14,-198.71 100.42,-190.11"/>
<polygon fill="black" stroke="black" points="103.81,-189.22 98.42,-180.1 96.95,-190.6 103.81,-189.22"/>
<g id="a_edge5&#45;headlabel"><a xlink:href="dir_000004_000008.html" target="_top" xlink:title="1">
<text text-anchor="middle" x="107.3" y="-189.69" font-family="Helvetica,sans-Serif" font-size="10.00">1</text>
</a>
</g>
</g>
<!-- dir_2871d450ca6bd61b793a39e709e205b0&#45;&gt;dir_09e761304027c904456130627fd4dcf5 -->
<g id="edge2" class="edge">
<title>dir_2871d450ca6bd61b793a39e709e205b0&#45;&gt;dir_09e761304027c904456130627fd4dcf5</title>
<path fill="none" stroke="black" d="M122.63,-215.67C139.67,-192.66 167.6,-150.01 176,-108 179.84,-88.82 181.06,-82.89 176,-64 174.25,-57.48 171.31,-50.93 168.01,-44.92"/>
<polygon fill="black" stroke="black" points="170.81,-42.78 162.67,-36.01 164.81,-46.38 170.81,-42.78"/>
<g id="a_edge2&#45;headlabel"><a xlink:href="dir_000004_000000.html" target="_top" xlink:title="25">
<text text-anchor="middle" x="175.09" y="-41.91" font-family="Helvetica,sans-Serif" font-size="10.00">25</text>
</a>
</g>
</g>
</g>
</svg>
