<?xml version="1.0" encoding="UTF-8" standalone="no"?>
<!DOCTYPE svg PUBLIC "-//W3C//DTD SVG 1.1//EN"
 "http://www.w3.org/Graphics/SVG/1.1/DTD/svg11.dtd">
<!-- Generated by graphviz version 2.44.0 ()
 -->
<!-- Title: src/Models Pages: 1 -->
<svg width="108pt" height="223pt"
 viewBox="0.00 0.00 108.00 223.00" xmlns="http://www.w3.org/2000/svg" xmlns:xlink="http://www.w3.org/1999/xlink">
<g id="graph0" class="graph" transform="scale(1 1) rotate(0) translate(4 219)">
<title>src/Models</title>
<g id="clust1" class="cluster">
<title>clusterdir_68267d1309a1af8e8297ef4c3efbcdba</title>
<g id="a_clust1"><a xlink:href="dir_68267d1309a1af8e8297ef4c3efbcdba.html" target="_top" xlink:title="src">
<polygon fill="#ddddee" stroke="black" points="8,-64 8,-207 84,-207 84,-64 8,-64"/>
<text text-anchor="middle" x="46" y="-195" font-family="Helvetica,sans-Serif" font-size="10.00">src</text>
</a>
</g>
</g>
<!-- dir_d71c2fe00ed3b147a8f961a1bf80b6a4 -->
<g id="node1" class="node">
<title>dir_d71c2fe00ed3b147a8f961a1bf80b6a4</title>
<g id="a_node1"><a xlink:href="dir_d71c2fe00ed3b147a8f961a1bf80b6a4.html" target="_top" xlink:title="Managers">
<polygon fill="none" stroke="black" points="75.5,-180 16.5,-180 16.5,-144 75.5,-144 75.5,-180"/>
<text text-anchor="middle" x="46" y="-159.5" font-family="Helvetica,sans-Serif" font-size="10.00">Managers</text>
</a>
</g>
</g>
<!-- dir_36df885461d6bd14211edf06510d126c -->
<g id="node2" class="node">
<title>dir_36df885461d6bd14211edf06510d126c</title>
<g id="a_node2"><a xlink:href="dir_36df885461d6bd14211edf06510d126c.html" target="_top" xlink:title="Models">
<polygon fill="#eeeeff" stroke="black" points="73,-108 19,-108 19,-72 73,-72 73,-108"/>
<text text-anchor="middle" x="46" y="-87.5" font-family="Helvetica,sans-Serif" font-size="10.00">Models</text>
</a>
</g>
</g>
<!-- dir_d71c2fe00ed3b147a8f961a1bf80b6a4&#45;&gt;dir_36df885461d6bd14211edf06510d126c -->
<g id="edge2" class="edge">
<title>dir_d71c2fe00ed3b147a8f961a1bf80b6a4&#45;&gt;dir_36df885461d6bd14211edf06510d126c</title>
<path fill="none" stroke="black" d="M40.08,-143.7C39.29,-135.98 39.06,-126.71 39.4,-118.11"/>
<polygon fill="black" stroke="black" points="42.9,-118.32 40.1,-108.1 35.92,-117.84 42.9,-118.32"/>
<g id="a_edge2&#45;headlabel"><a xlink:href="dir_000006_000007.html" target="_top" xlink:title="4">
<text text-anchor="middle" x="45.48" y="-119.61" font-family="Helvetica,sans-Serif" font-size="10.00">4</text>
</a>
</g>
</g>
<!-- dir_09e761304027c904456130627fd4dcf5 -->
<g id="node3" class="node">
<title>dir_09e761304027c904456130627fd4dcf5</title>
<g id="a_node3"><a xlink:href="dir_09e761304027c904456130627fd4dcf5.html" target="_top" xlink:title="includes">
<polygon fill="none" stroke="red" points="100,-36 46,-36 46,0 100,0 100,-36"/>
<text text-anchor="middle" x="73" y="-15.5" font-family="Helvetica,sans-Serif" font-size="10.00">includes</text>
</a>
</g>
</g>
<!-- dir_d71c2fe00ed3b147a8f961a1bf80b6a4&#45;&gt;dir_09e761304027c904456130627fd4dcf5 -->
<g id="edge1" class="edge">
<title>dir_d71c2fe00ed3b147a8f961a1bf80b6a4&#45;&gt;dir_09e761304027c904456130627fd4dcf5</title>
<path fill="none" stroke="black" d="M61.61,-143.77C69.37,-134.03 77.95,-121.18 82,-108 88.22,-87.77 85.27,-63.87 81.15,-45.92"/>
<polygon fill="black" stroke="black" points="84.51,-44.95 78.65,-36.12 77.73,-46.68 84.51,-44.95"/>
<g id="a_edge1&#45;headlabel"><a xlink:href="dir_000006_000000.html" target="_top" xlink:title="6">
<text text-anchor="middle" x="88.15" y="-45.23" font-family="Helvetica,sans-Serif" font-size="10.00">6</text>
</a>
</g>
</g>
<!-- dir_36df885461d6bd14211edf06510d126c&#45;&gt;dir_d71c2fe00ed3b147a8f961a1bf80b6a4 -->
<g id="edge4" class="edge">
<title>dir_36df885461d6bd14211edf06510d126c&#45;&gt;dir_d71c2fe00ed3b147a8f961a1bf80b6a4</title>
<path fill="none" stroke="black" d="M51.9,-108.1C52.7,-115.79 52.94,-125.05 52.6,-133.67"/>
<polygon fill="black" stroke="black" points="49.11,-133.48 51.92,-143.7 56.09,-133.96 49.11,-133.48"/>
<g id="a_edge4&#45;headlabel"><a xlink:href="dir_000007_000006.html" target="_top" xlink:title="2">
<text text-anchor="middle" x="46.52" y="-127.2" font-family="Helvetica,sans-Serif" font-size="10.00">2</text>
</a>
</g>
</g>
<!-- dir_36df885461d6bd14211edf06510d126c&#45;&gt;dir_09e761304027c904456130627fd4dcf5 -->
<g id="edge3" class="edge">
<title>dir_36df885461d6bd14211edf06510d126c&#45;&gt;dir_09e761304027c904456130627fd4dcf5</title>
<path fill="none" stroke="black" d="M52.67,-71.7C55.71,-63.81 59.38,-54.3 62.76,-45.55"/>
<polygon fill="black" stroke="black" points="66.07,-46.69 66.4,-36.1 59.54,-44.17 66.07,-46.69"/>
<g id="a_edge3&#45;headlabel"><a xlink:href="dir_000007_000000.html" target="_top" xlink:title="4">
<text text-anchor="middle" x="67.42" y="-48.57" font-family="Helvetica,sans-Serif" font-size="10.00">4</text>
</a>
</g>
</g>
</g>
</svg>
