<?xml version="1.0" encoding="UTF-8" standalone="no"?>
<!DOCTYPE svg PUBLIC "-//W3C//DTD SVG 1.1//EN"
 "http://www.w3.org/Graphics/SVG/1.1/DTD/svg11.dtd">
<!-- Generated by graphviz version 2.44.0 ()
 -->
<!-- Title: src/Api Pages: 1 -->
<svg width="370pt" height="303pt"
 viewBox="0.00 0.00 370.29 303.00" xmlns="http://www.w3.org/2000/svg" xmlns:xlink="http://www.w3.org/1999/xlink">
<g id="graph0" class="graph" transform="scale(1 1) rotate(0) translate(4 299)">
<title>src/Api</title>
<g id="clust1" class="cluster">
<title>clusterdir_68267d1309a1af8e8297ef4c3efbcdba</title>
<g id="a_clust1"><a xlink:href="dir_68267d1309a1af8e8297ef4c3efbcdba.html" target="_top" xlink:title="src">
<polygon fill="#ddddee" stroke="black" points="8,-64 8,-287 244,-287 244,-64 8,-64"/>
<text text-anchor="middle" x="126" y="-275" font-family="Helvetica,sans-Serif" font-size="10.00">src</text>
</a>
</g>
</g>
<g id="clust2" class="cluster">
<title>clusterdir_2871d450ca6bd61b793a39e709e205b0</title>
<g id="a_clust2"><a xlink:href="dir_2871d450ca6bd61b793a39e709e205b0.html" target="_top">
<polygon fill="#eeeeff" stroke="black" points="16,-208 16,-260 236,-260 236,-208 16,-208"/>
</a>
</g>
</g>
<!-- dir_146efcb14c269303f155f454755144b3 -->
<g id="node1" class="node">
<title>dir_146efcb14c269303f155f454755144b3</title>
<g id="a_node1"><a xlink:href="dir_146efcb14c269303f155f454755144b3.html" target="_top" xlink:title="Structs">
<polygon fill="none" stroke="black" points="70,-108 16,-108 16,-72 70,-72 70,-108"/>
<text text-anchor="middle" x="43" y="-87.5" font-family="Helvetica,sans-Serif" font-size="10.00">Structs</text>
</a>
</g>
</g>
<!-- dir_09e761304027c904456130627fd4dcf5 -->
<g id="node8" class="node">
<title>dir_09e761304027c904456130627fd4dcf5</title>
<g id="a_node8"><a xlink:href="dir_09e761304027c904456130627fd4dcf5.html" target="_top" xlink:title="includes">
<polygon fill="none" stroke="red" points="278,-36 224,-36 224,0 278,0 278,-36"/>
<text text-anchor="middle" x="251" y="-15.5" font-family="Helvetica,sans-Serif" font-size="10.00">includes</text>
</a>
</g>
</g>
<!-- dir_146efcb14c269303f155f454755144b3&#45;&gt;dir_09e761304027c904456130627fd4dcf5 -->
<g id="edge2" class="edge">
<title>dir_146efcb14c269303f155f454755144b3&#45;&gt;dir_09e761304027c904456130627fd4dcf5</title>
<path fill="none" stroke="black" d="M65.79,-71.88C70.34,-68.96 75.2,-66.18 80,-64 124.02,-44.04 178.58,-31.61 214.06,-25"/>
<polygon fill="black" stroke="black" points="214.76,-28.43 223.98,-23.21 213.52,-21.54 214.76,-28.43"/>
<g id="a_edge2&#45;headlabel"><a xlink:href="dir_000014_000000.html" target="_top" xlink:title="2">
<text text-anchor="middle" x="211.73" y="-29.36" font-family="Helvetica,sans-Serif" font-size="10.00">2</text>
</a>
</g>
</g>
<!-- dir_9abb3c88ff8fa0627e3c7214f1ab5523 -->
<g id="node2" class="node">
<title>dir_9abb3c88ff8fa0627e3c7214f1ab5523</title>
<g id="a_node2"><a xlink:href="dir_9abb3c88ff8fa0627e3c7214f1ab5523.html" target="_top" xlink:title="Listeners">
<polygon fill="none" stroke="black" points="145.5,-108 88.5,-108 88.5,-72 145.5,-72 145.5,-108"/>
<text text-anchor="middle" x="117" y="-87.5" font-family="Helvetica,sans-Serif" font-size="10.00">Listeners</text>
</a>
</g>
</g>
<!-- dir_9abb3c88ff8fa0627e3c7214f1ab5523&#45;&gt;dir_09e761304027c904456130627fd4dcf5 -->
<g id="edge1" class="edge">
<title>dir_9abb3c88ff8fa0627e3c7214f1ab5523&#45;&gt;dir_09e761304027c904456130627fd4dcf5</title>
<path fill="none" stroke="black" d="M142.03,-71.81C146.3,-69.09 150.73,-66.39 155,-64 174.2,-53.26 196.4,-42.74 214.61,-34.57"/>
<polygon fill="black" stroke="black" points="216.27,-37.66 224,-30.41 213.44,-31.26 216.27,-37.66"/>
<g id="a_edge1&#45;headlabel"><a xlink:href="dir_000011_000000.html" target="_top" xlink:title="7">
<text text-anchor="middle" x="214.14" y="-39.21" font-family="Helvetica,sans-Serif" font-size="10.00">7</text>
</a>
</g>
</g>
<!-- dir_d71c2fe00ed3b147a8f961a1bf80b6a4 -->
<g id="node3" class="node">
<title>dir_d71c2fe00ed3b147a8f961a1bf80b6a4</title>
<g id="a_node3"><a xlink:href="dir_d71c2fe00ed3b147a8f961a1bf80b6a4.html" target="_top" xlink:title="Managers">
<polygon fill="none" stroke="black" points="222.5,-108 163.5,-108 163.5,-72 222.5,-72 222.5,-108"/>
<text text-anchor="middle" x="193" y="-87.5" font-family="Helvetica,sans-Serif" font-size="10.00">Managers</text>
</a>
</g>
</g>
<!-- dir_d71c2fe00ed3b147a8f961a1bf80b6a4&#45;&gt;dir_09e761304027c904456130627fd4dcf5 -->
<g id="edge9" class="edge">
<title>dir_d71c2fe00ed3b147a8f961a1bf80b6a4&#45;&gt;dir_09e761304027c904456130627fd4dcf5</title>
<path fill="none" stroke="black" d="M207.34,-71.7C214.29,-63.3 222.77,-53.07 230.4,-43.86"/>
<polygon fill="black" stroke="black" points="233.14,-46.04 236.83,-36.1 227.75,-41.57 233.14,-46.04"/>
<g id="a_edge9&#45;headlabel"><a xlink:href="dir_000012_000000.html" target="_top" xlink:title="9">
<text text-anchor="middle" x="233.04" y="-48.12" font-family="Helvetica,sans-Serif" font-size="10.00">9</text>
</a>
</g>
</g>
<!-- dir_ed68644c5c891dd73f5144e8c8bef534 -->
<g id="node4" class="node">
<title>dir_ed68644c5c891dd73f5144e8c8bef534</title>
<g id="a_node4"><a xlink:href="dir_ed68644c5c891dd73f5144e8c8bef534.html" target="_top" xlink:title="Subsystems">
<polygon fill="none" stroke="black" points="153.5,-180 82.5,-180 82.5,-144 153.5,-144 153.5,-180"/>
<text text-anchor="middle" x="118" y="-159.5" font-family="Helvetica,sans-Serif" font-size="10.00">Subsystems</text>
</a>
</g>
</g>
<!-- dir_ed68644c5c891dd73f5144e8c8bef534&#45;&gt;dir_146efcb14c269303f155f454755144b3 -->
<g id="edge12" class="edge">
<title>dir_ed68644c5c891dd73f5144e8c8bef534&#45;&gt;dir_146efcb14c269303f155f454755144b3</title>
<path fill="none" stroke="black" d="M99.46,-143.7C90.2,-135.05 78.84,-124.45 68.74,-115.03"/>
<polygon fill="black" stroke="black" points="71.02,-112.37 61.33,-108.1 66.25,-117.49 71.02,-112.37"/>
<g id="a_edge12&#45;headlabel"><a xlink:href="dir_000015_000014.html" target="_top" xlink:title="1">
<text text-anchor="middle" x="75.59" y="-110.25" font-family="Helvetica,sans-Serif" font-size="10.00">1</text>
</a>
</g>
</g>
<!-- dir_ed68644c5c891dd73f5144e8c8bef534&#45;&gt;dir_9abb3c88ff8fa0627e3c7214f1ab5523 -->
<g id="edge13" class="edge">
<title>dir_ed68644c5c891dd73f5144e8c8bef534&#45;&gt;dir_9abb3c88ff8fa0627e3c7214f1ab5523</title>
<path fill="none" stroke="black" d="M117.75,-143.7C117.64,-135.98 117.51,-126.71 117.39,-118.11"/>
<polygon fill="black" stroke="black" points="120.89,-118.05 117.24,-108.1 113.89,-118.15 120.89,-118.05"/>
<g id="a_edge13&#45;headlabel"><a xlink:href="dir_000015_000011.html" target="_top" xlink:title="1">
<text text-anchor="middle" x="123.78" y="-119.11" font-family="Helvetica,sans-Serif" font-size="10.00">1</text>
</a>
</g>
</g>
<!-- dir_ed68644c5c891dd73f5144e8c8bef534&#45;&gt;dir_d71c2fe00ed3b147a8f961a1bf80b6a4 -->
<g id="edge14" class="edge">
<title>dir_ed68644c5c891dd73f5144e8c8bef534&#45;&gt;dir_d71c2fe00ed3b147a8f961a1bf80b6a4</title>
<path fill="none" stroke="black" d="M136.54,-143.7C145.8,-135.05 157.16,-124.45 167.26,-115.03"/>
<polygon fill="black" stroke="black" points="169.75,-117.49 174.67,-108.1 164.98,-112.37 169.75,-117.49"/>
<g id="a_edge14&#45;headlabel"><a xlink:href="dir_000015_000012.html" target="_top" xlink:title="3">
<text text-anchor="middle" x="169.06" y="-119.51" font-family="Helvetica,sans-Serif" font-size="10.00">3</text>
</a>
</g>
</g>
<!-- dir_ed68644c5c891dd73f5144e8c8bef534&#45;&gt;dir_09e761304027c904456130627fd4dcf5 -->
<g id="edge11" class="edge">
<title>dir_ed68644c5c891dd73f5144e8c8bef534&#45;&gt;dir_09e761304027c904456130627fd4dcf5</title>
<path fill="none" stroke="black" d="M153.65,-153.4C179.25,-146.08 212.55,-132.41 232,-108 245.81,-90.67 250.19,-65.62 251.33,-46.5"/>
<polygon fill="black" stroke="black" points="254.84,-46.42 251.67,-36.31 247.84,-46.19 254.84,-46.42"/>
<g id="a_edge11&#45;headlabel"><a xlink:href="dir_000015_000000.html" target="_top" xlink:title="28">
<text text-anchor="middle" x="257.55" y="-47.61" font-family="Helvetica,sans-Serif" font-size="10.00">28</text>
</a>
</g>
</g>
<!-- dir_2871d450ca6bd61b793a39e709e205b0 -->
<g id="node5" class="node">
<title>dir_2871d450ca6bd61b793a39e709e205b0</title>
<text text-anchor="middle" x="51" y="-231.5" font-family="Helvetica,sans-Serif" font-size="10.00">Api</text>
</g>
<!-- dir_2871d450ca6bd61b793a39e709e205b0&#45;&gt;dir_146efcb14c269303f155f454755144b3 -->
<g id="edge5" class="edge">
<title>dir_2871d450ca6bd61b793a39e709e205b0&#45;&gt;dir_146efcb14c269303f155f454755144b3</title>
<path fill="none" stroke="black" d="M50.04,-215.87C48.67,-191.67 46.17,-147.21 44.54,-118.39"/>
<polygon fill="black" stroke="black" points="48.03,-117.98 43.97,-108.19 41.04,-118.37 48.03,-117.98"/>
<g id="a_edge5&#45;headlabel"><a xlink:href="dir_000007_000014.html" target="_top" xlink:title="1">
<text text-anchor="middle" x="51.06" y="-118.91" font-family="Helvetica,sans-Serif" font-size="10.00">1</text>
</a>
</g>
</g>
<!-- dir_2871d450ca6bd61b793a39e709e205b0&#45;&gt;dir_9abb3c88ff8fa0627e3c7214f1ab5523 -->
<g id="edge6" class="edge">
<title>dir_2871d450ca6bd61b793a39e709e205b0&#45;&gt;dir_9abb3c88ff8fa0627e3c7214f1ab5523</title>
<path fill="none" stroke="black" d="M53.21,-215.83C56.09,-197.32 62.21,-167.37 74,-144 79.02,-134.06 86.14,-124.28 93.16,-115.87"/>
<polygon fill="black" stroke="black" points="95.84,-118.12 99.77,-108.28 90.56,-113.52 95.84,-118.12"/>
<g id="a_edge6&#45;headlabel"><a xlink:href="dir_000007_000011.html" target="_top" xlink:title="1">
<text text-anchor="middle" x="95.62" y="-120.19" font-family="Helvetica,sans-Serif" font-size="10.00">1</text>
</a>
</g>
</g>
<!-- dir_2871d450ca6bd61b793a39e709e205b0&#45;&gt;dir_d71c2fe00ed3b147a8f961a1bf80b6a4 -->
<g id="edge7" class="edge">
<title>dir_2871d450ca6bd61b793a39e709e205b0&#45;&gt;dir_d71c2fe00ed3b147a8f961a1bf80b6a4</title>
<path fill="none" stroke="black" d="M74.78,-215.74C79.07,-212.97 83.59,-210.27 88,-208 119.63,-191.7 138.25,-205.56 163,-180 179.08,-163.4 186.55,-137.89 190.01,-118.44"/>
<polygon fill="black" stroke="black" points="193.51,-118.76 191.56,-108.34 186.59,-117.7 193.51,-118.76"/>
<g id="a_edge7&#45;headlabel"><a xlink:href="dir_000007_000012.html" target="_top" xlink:title="4">
<text text-anchor="middle" x="195.77" y="-120.24" font-family="Helvetica,sans-Serif" font-size="10.00">4</text>
</a>
</g>
</g>
<!-- dir_2871d450ca6bd61b793a39e709e205b0&#45;&gt;dir_ed68644c5c891dd73f5144e8c8bef534 -->
<g id="edge8" class="edge">
<title>dir_2871d450ca6bd61b793a39e709e205b0&#45;&gt;dir_ed68644c5c891dd73f5144e8c8bef534</title>
<path fill="none" stroke="black" d="M67.56,-215.7C75.68,-207.22 85.59,-196.86 94.47,-187.58"/>
<polygon fill="black" stroke="black" points="97.24,-189.75 101.63,-180.1 92.19,-184.91 97.24,-189.75"/>
<g id="a_edge8&#45;headlabel"><a xlink:href="dir_000007_000015.html" target="_top" xlink:title="1">
<text text-anchor="middle" x="96.81" y="-191.81" font-family="Helvetica,sans-Serif" font-size="10.00">1</text>
</a>
</g>
</g>
<!-- dir_2871d450ca6bd61b793a39e709e205b0&#45;&gt;dir_09e761304027c904456130627fd4dcf5 -->
<g id="edge4" class="edge">
<title>dir_2871d450ca6bd61b793a39e709e205b0&#45;&gt;dir_09e761304027c904456130627fd4dcf5</title>
<path fill="none" stroke="black" d="M73.24,-215.8C77.92,-212.82 82.97,-210.03 88,-208 154.94,-180.97 201.05,-234.84 248,-180 279.8,-142.86 269.55,-81.31 259.86,-46.05"/>
<polygon fill="black" stroke="black" points="263.09,-44.62 256.92,-36.01 256.37,-46.59 263.09,-44.62"/>
<g id="a_edge4&#45;headlabel"><a xlink:href="dir_000007_000000.html" target="_top" xlink:title="33">
<text text-anchor="middle" x="266.82" y="-44.77" font-family="Helvetica,sans-Serif" font-size="10.00">33</text>
</a>
</g>
</g>
<!-- dir_e3d4cd35594a4fa9907a05234eb2e116 -->
<g id="node6" class="node">
<title>dir_e3d4cd35594a4fa9907a05234eb2e116</title>
<g id="a_node6"><a xlink:href="dir_e3d4cd35594a4fa9907a05234eb2e116.html" target="_top" xlink:title="Managers">
<polygon fill="white" stroke="black" points="155.5,-252 96.5,-252 96.5,-216 155.5,-216 155.5,-252"/>
<text text-anchor="middle" x="126" y="-231.5" font-family="Helvetica,sans-Serif" font-size="10.00">Managers</text>
</a>
</g>
</g>
<!-- dir_e3d4cd35594a4fa9907a05234eb2e116&#45;&gt;dir_09e761304027c904456130627fd4dcf5 -->
<g id="edge3" class="edge">
<title>dir_e3d4cd35594a4fa9907a05234eb2e116&#45;&gt;dir_09e761304027c904456130627fd4dcf5</title>
<path fill="none" stroke="black" d="M149.58,-215.93C154.5,-212.94 159.78,-210.11 165,-208 223,-184.49 263.39,-228.45 303,-180 335.63,-140.08 324.43,-110.89 303,-64 299.22,-55.73 293.08,-48.39 286.33,-42.17"/>
<polygon fill="black" stroke="black" points="288.13,-39.12 278.22,-35.39 283.64,-44.49 288.13,-39.12"/>
<g id="a_edge3&#45;headlabel"><a xlink:href="dir_000008_000000.html" target="_top" xlink:title="2">
<text text-anchor="middle" x="292.71" y="-36.75" font-family="Helvetica,sans-Serif" font-size="10.00">2</text>
</a>
</g>
</g>
<!-- dir_116e6396aa92132f386118736348029e -->
<g id="node7" class="node">
<title>dir_116e6396aa92132f386118736348029e</title>
<g id="a_node7"><a xlink:href="dir_116e6396aa92132f386118736348029e.html" target="_top" xlink:title="Utils">
<polygon fill="white" stroke="black" points="228,-252 174,-252 174,-216 228,-216 228,-252"/>
<text text-anchor="middle" x="201" y="-231.5" font-family="Helvetica,sans-Serif" font-size="10.00">Utils</text>
</a>
</g>
</g>
<!-- dir_116e6396aa92132f386118736348029e&#45;&gt;dir_09e761304027c904456130627fd4dcf5 -->
<g id="edge10" class="edge">
<title>dir_116e6396aa92132f386118736348029e&#45;&gt;dir_09e761304027c904456130627fd4dcf5</title>
<path fill="none" stroke="black" d="M228.12,-231.51C261.13,-228.06 315.6,-216.78 341,-180 370.3,-137.58 368.1,-107.86 341,-64 329.43,-45.27 307.43,-34.08 288.09,-27.54"/>
<polygon fill="black" stroke="black" points="288.87,-24.12 278.28,-24.53 286.81,-30.81 288.87,-24.12"/>
<g id="a_edge10&#45;headlabel"><a xlink:href="dir_000009_000000.html" target="_top" xlink:title="5">
<text text-anchor="middle" x="293.14" y="-19.96" font-family="Helvetica,sans-Serif" font-size="10.00">5</text>
</a>
</g>
</g>
</g>
</svg>
