<?xml version="1.0" encoding="UTF-8" standalone="no"?>
<!DOCTYPE svg PUBLIC "-//W3C//DTD SVG 1.1//EN"
 "http://www.w3.org/Graphics/SVG/1.1/DTD/svg11.dtd">
<!-- Generated by graphviz version 2.44.0 ()
 -->
<!-- Title: src Pages: 1 -->
<svg width="276pt" height="364pt"
 viewBox="0.00 0.00 276.00 364.00" xmlns="http://www.w3.org/2000/svg" xmlns:xlink="http://www.w3.org/1999/xlink">
<g id="graph0" class="graph" transform="scale(1 1) rotate(0) translate(4 360)">
<title>src</title>
<g id="clust1" class="cluster">
<title>clusterdir_68267d1309a1af8e8297ef4c3efbcdba</title>
<g id="a_clust1"><a xlink:href="dir_68267d1309a1af8e8297ef4c3efbcdba.html" target="_top">
<polygon fill="#eeeeff" stroke="black" points="8,-8 8,-348 200,-348 200,-8 8,-8"/>
</a>
</g>
</g>
<!-- dir_68267d1309a1af8e8297ef4c3efbcdba -->
<g id="node1" class="node">
<title>dir_68267d1309a1af8e8297ef4c3efbcdba</title>
<text text-anchor="middle" x="165" y="-319.5" font-family="Helvetica,sans-Serif" font-size="10.00">src</text>
</g>
<!-- dir_2871d450ca6bd61b793a39e709e205b0 -->
<g id="node2" class="node">
<title>dir_2871d450ca6bd61b793a39e709e205b0</title>
<g id="a_node2"><a xlink:href="dir_2871d450ca6bd61b793a39e709e205b0.html" target="_top" xlink:title="Api">
<polygon fill="white" stroke="black" points="120,-340 66,-340 66,-304 120,-304 120,-340"/>
<text text-anchor="middle" x="93" y="-319.5" font-family="Helvetica,sans-Serif" font-size="10.00">Api</text>
</a>
</g>
</g>
<!-- dir_9abb3c88ff8fa0627e3c7214f1ab5523 -->
<g id="node4" class="node">
<title>dir_9abb3c88ff8fa0627e3c7214f1ab5523</title>
<g id="a_node4"><a xlink:href="dir_9abb3c88ff8fa0627e3c7214f1ab5523.html" target="_top" xlink:title="Listeners">
<polygon fill="white" stroke="black" points="191.5,-196 134.5,-196 134.5,-160 191.5,-160 191.5,-196"/>
<text text-anchor="middle" x="163" y="-175.5" font-family="Helvetica,sans-Serif" font-size="10.00">Listeners</text>
</a>
</g>
</g>
<!-- dir_2871d450ca6bd61b793a39e709e205b0&#45;&gt;dir_9abb3c88ff8fa0627e3c7214f1ab5523 -->
<g id="edge5" class="edge">
<title>dir_2871d450ca6bd61b793a39e709e205b0&#45;&gt;dir_9abb3c88ff8fa0627e3c7214f1ab5523</title>
<path fill="none" stroke="black" d="M120.16,-305.38C133.34,-296.27 148.03,-283.51 156,-268 165.78,-248.99 167.05,-224.63 166.14,-206.2"/>
<polygon fill="black" stroke="black" points="169.63,-205.84 165.41,-196.12 162.65,-206.35 169.63,-205.84"/>
<g id="a_edge5&#45;headlabel"><a xlink:href="dir_000004_000006.html" target="_top" xlink:title="1">
<text text-anchor="middle" x="172.72" y="-206.72" font-family="Helvetica,sans-Serif" font-size="10.00">1</text>
</a>
</g>
</g>
<!-- dir_d71c2fe00ed3b147a8f961a1bf80b6a4 -->
<g id="node5" class="node">
<title>dir_d71c2fe00ed3b147a8f961a1bf80b6a4</title>
<g id="a_node5"><a xlink:href="dir_d71c2fe00ed3b147a8f961a1bf80b6a4.html" target="_top" xlink:title="Managers">
<polygon fill="white" stroke="black" points="95.5,-196 36.5,-196 36.5,-160 95.5,-160 95.5,-196"/>
<text text-anchor="middle" x="66" y="-175.5" font-family="Helvetica,sans-Serif" font-size="10.00">Managers</text>
</a>
</g>
</g>
<!-- dir_2871d450ca6bd61b793a39e709e205b0&#45;&gt;dir_d71c2fe00ed3b147a8f961a1bf80b6a4 -->
<g id="edge6" class="edge">
<title>dir_2871d450ca6bd61b793a39e709e205b0&#45;&gt;dir_d71c2fe00ed3b147a8f961a1bf80b6a4</title>
<path fill="none" stroke="black" d="M82.01,-303.6C76.34,-293.6 69.99,-280.56 67,-268 62.15,-247.61 62.16,-223.85 63.24,-206.01"/>
<polygon fill="black" stroke="black" points="66.73,-206.24 63.99,-196 59.75,-205.71 66.73,-206.24"/>
<g id="a_edge6&#45;headlabel"><a xlink:href="dir_000004_000007.html" target="_top" xlink:title="4">
<text text-anchor="middle" x="69.29" y="-207.53" font-family="Helvetica,sans-Serif" font-size="10.00">4</text>
</a>
</g>
</g>
<!-- dir_ed68644c5c891dd73f5144e8c8bef534 -->
<g id="node7" class="node">
<title>dir_ed68644c5c891dd73f5144e8c8bef534</title>
<g id="a_node7"><a xlink:href="dir_ed68644c5c891dd73f5144e8c8bef534.html" target="_top" xlink:title="Subsystems">
<polygon fill="white" stroke="black" points="147.5,-268 76.5,-268 76.5,-232 147.5,-232 147.5,-268"/>
<text text-anchor="middle" x="112" y="-247.5" font-family="Helvetica,sans-Serif" font-size="10.00">Subsystems</text>
</a>
</g>
</g>
<!-- dir_2871d450ca6bd61b793a39e709e205b0&#45;&gt;dir_ed68644c5c891dd73f5144e8c8bef534 -->
<g id="edge7" class="edge">
<title>dir_2871d450ca6bd61b793a39e709e205b0&#45;&gt;dir_ed68644c5c891dd73f5144e8c8bef534</title>
<path fill="none" stroke="black" d="M97.7,-303.7C99.81,-295.9 102.36,-286.51 104.72,-277.83"/>
<polygon fill="black" stroke="black" points="108.12,-278.67 107.36,-268.1 101.36,-276.84 108.12,-278.67"/>
<g id="a_edge7&#45;headlabel"><a xlink:href="dir_000004_000009.html" target="_top" xlink:title="1">
<text text-anchor="middle" x="109.91" y="-280.38" font-family="Helvetica,sans-Serif" font-size="10.00">1</text>
</a>
</g>
</g>
<!-- dir_09e761304027c904456130627fd4dcf5 -->
<g id="node9" class="node">
<title>dir_09e761304027c904456130627fd4dcf5</title>
<g id="a_node9"><a xlink:href="dir_09e761304027c904456130627fd4dcf5.html" target="_top" xlink:title="includes">
<polygon fill="none" stroke="red" points="268,-52 214,-52 214,-16 268,-16 268,-52"/>
<text text-anchor="middle" x="241" y="-31.5" font-family="Helvetica,sans-Serif" font-size="10.00">includes</text>
</a>
</g>
</g>
<!-- dir_2871d450ca6bd61b793a39e709e205b0&#45;&gt;dir_09e761304027c904456130627fd4dcf5 -->
<g id="edge4" class="edge">
<title>dir_2871d450ca6bd61b793a39e709e205b0&#45;&gt;dir_09e761304027c904456130627fd4dcf5</title>
<path fill="none" stroke="black" d="M119.39,-303.89C133.75,-294.09 151.49,-281.14 166,-268 197.73,-239.26 207.23,-232.26 230,-196 256.49,-153.81 268.53,-137.08 260,-88 258.48,-79.24 255.64,-70.01 252.61,-61.75"/>
<polygon fill="black" stroke="black" points="255.79,-60.29 248.89,-52.25 249.28,-62.84 255.79,-60.29"/>
<g id="a_edge4&#45;headlabel"><a xlink:href="dir_000004_000000.html" target="_top" xlink:title="25">
<text text-anchor="middle" x="259.75" y="-60.11" font-family="Helvetica,sans-Serif" font-size="10.00">25</text>
</a>
</g>
</g>
<!-- dir_6bd92bd93c0d5d9980919215b46f20a3 -->
<g id="node3" class="node">
<title>dir_6bd92bd93c0d5d9980919215b46f20a3</title>
<g id="a_node3"><a xlink:href="dir_6bd92bd93c0d5d9980919215b46f20a3.html" target="_top" xlink:title="Exceptions">
<polygon fill="white" stroke="black" points="80,-52 16,-52 16,-16 80,-16 80,-52"/>
<text text-anchor="middle" x="48" y="-31.5" font-family="Helvetica,sans-Serif" font-size="10.00">Exceptions</text>
</a>
</g>
</g>
<!-- dir_a7363e98f9e0bdd87618633653859815 -->
<g id="node8" class="node">
<title>dir_a7363e98f9e0bdd87618633653859815</title>
<g id="a_node8"><a xlink:href="dir_a7363e98f9e0bdd87618633653859815.html" target="_top" xlink:title="Utils">
<polygon fill="white" stroke="black" points="182,-124 128,-124 128,-88 182,-88 182,-124"/>
<text text-anchor="middle" x="155" y="-103.5" font-family="Helvetica,sans-Serif" font-size="10.00">Utils</text>
</a>
</g>
</g>
<!-- dir_9abb3c88ff8fa0627e3c7214f1ab5523&#45;&gt;dir_a7363e98f9e0bdd87618633653859815 -->
<g id="edge3" class="edge">
<title>dir_9abb3c88ff8fa0627e3c7214f1ab5523&#45;&gt;dir_a7363e98f9e0bdd87618633653859815</title>
<path fill="none" stroke="black" d="M161.02,-159.7C160.14,-151.98 159.08,-142.71 158.1,-134.11"/>
<polygon fill="black" stroke="black" points="161.57,-133.64 156.95,-124.1 154.61,-134.44 161.57,-133.64"/>
<g id="a_edge3&#45;headlabel"><a xlink:href="dir_000006_000010.html" target="_top" xlink:title="2">
<text text-anchor="middle" x="164.8" y="-134.39" font-family="Helvetica,sans-Serif" font-size="10.00">2</text>
</a>
</g>
</g>
<!-- dir_9abb3c88ff8fa0627e3c7214f1ab5523&#45;&gt;dir_09e761304027c904456130627fd4dcf5 -->
<g id="edge2" class="edge">
<title>dir_9abb3c88ff8fa0627e3c7214f1ab5523&#45;&gt;dir_09e761304027c904456130627fd4dcf5</title>
<path fill="none" stroke="black" d="M189.87,-159.91C202.14,-150.73 215.74,-138.35 224,-124 234.82,-105.19 238.92,-80.82 240.39,-62.33"/>
<polygon fill="black" stroke="black" points="243.89,-62.4 240.99,-52.21 236.91,-61.99 243.89,-62.4"/>
<g id="a_edge2&#45;headlabel"><a xlink:href="dir_000006_000000.html" target="_top" xlink:title="7">
<text text-anchor="middle" x="246.52" y="-63.66" font-family="Helvetica,sans-Serif" font-size="10.00">7</text>
</a>
</g>
</g>
<!-- dir_d71c2fe00ed3b147a8f961a1bf80b6a4&#45;&gt;dir_6bd92bd93c0d5d9980919215b46f20a3 -->
<g id="edge10" class="edge">
<title>dir_d71c2fe00ed3b147a8f961a1bf80b6a4&#45;&gt;dir_6bd92bd93c0d5d9980919215b46f20a3</title>
<path fill="none" stroke="black" d="M58.11,-159.75C53.89,-149.58 49.14,-136.33 47,-124 43.45,-103.58 43.9,-80.12 45.12,-62.41"/>
<polygon fill="black" stroke="black" points="48.63,-62.46 45.96,-52.21 41.65,-61.89 48.63,-62.46"/>
<g id="a_edge10&#45;headlabel"><a xlink:href="dir_000007_000005.html" target="_top" xlink:title="3">
<text text-anchor="middle" x="51.17" y="-63.78" font-family="Helvetica,sans-Serif" font-size="10.00">3</text>
</a>
</g>
</g>
<!-- dir_36df885461d6bd14211edf06510d126c -->
<g id="node6" class="node">
<title>dir_36df885461d6bd14211edf06510d126c</title>
<g id="a_node6"><a xlink:href="dir_36df885461d6bd14211edf06510d126c.html" target="_top" xlink:title="Models">
<polygon fill="white" stroke="black" points="110,-124 56,-124 56,-88 110,-88 110,-124"/>
<text text-anchor="middle" x="83" y="-103.5" font-family="Helvetica,sans-Serif" font-size="10.00">Models</text>
</a>
</g>
</g>
<!-- dir_d71c2fe00ed3b147a8f961a1bf80b6a4&#45;&gt;dir_36df885461d6bd14211edf06510d126c -->
<g id="edge9" class="edge">
<title>dir_d71c2fe00ed3b147a8f961a1bf80b6a4&#45;&gt;dir_36df885461d6bd14211edf06510d126c</title>
<path fill="none" stroke="black" d="M64.29,-159.7C65.38,-151.9 67.43,-142.51 69.9,-133.83"/>
<polygon fill="black" stroke="black" points="73.3,-134.69 72.95,-124.1 66.62,-132.6 73.3,-134.69"/>
<g id="a_edge9&#45;headlabel"><a xlink:href="dir_000007_000008.html" target="_top" xlink:title="4">
<text text-anchor="middle" x="74.93" y="-136.47" font-family="Helvetica,sans-Serif" font-size="10.00">4</text>
</a>
</g>
</g>
<!-- dir_d71c2fe00ed3b147a8f961a1bf80b6a4&#45;&gt;dir_09e761304027c904456130627fd4dcf5 -->
<g id="edge8" class="edge">
<title>dir_d71c2fe00ed3b147a8f961a1bf80b6a4&#45;&gt;dir_09e761304027c904456130627fd4dcf5</title>
<path fill="none" stroke="black" d="M95.5,-167C127.61,-155.68 176.33,-137.13 191,-124 209.89,-107.09 223.29,-81.29 231.42,-61.81"/>
<polygon fill="black" stroke="black" points="234.77,-62.87 235.2,-52.28 228.26,-60.29 234.77,-62.87"/>
<g id="a_edge8&#45;headlabel"><a xlink:href="dir_000007_000000.html" target="_top" xlink:title="7">
<text text-anchor="middle" x="236.08" y="-64.76" font-family="Helvetica,sans-Serif" font-size="10.00">7</text>
</a>
</g>
</g>
<!-- dir_36df885461d6bd14211edf06510d126c&#45;&gt;dir_6bd92bd93c0d5d9980919215b46f20a3 -->
<g id="edge17" class="edge">
<title>dir_36df885461d6bd14211edf06510d126c&#45;&gt;dir_6bd92bd93c0d5d9980919215b46f20a3</title>
<path fill="none" stroke="black" d="M74.35,-87.7C70.36,-79.73 65.55,-70.1 61.13,-61.26"/>
<polygon fill="black" stroke="black" points="64.15,-59.48 56.55,-52.1 57.89,-62.61 64.15,-59.48"/>
<g id="a_edge17&#45;headlabel"><a xlink:href="dir_000008_000005.html" target="_top" xlink:title="1">
<text text-anchor="middle" x="68.3" y="-58.93" font-family="Helvetica,sans-Serif" font-size="10.00">1</text>
</a>
</g>
</g>
<!-- dir_36df885461d6bd14211edf06510d126c&#45;&gt;dir_d71c2fe00ed3b147a8f961a1bf80b6a4 -->
<g id="edge18" class="edge">
<title>dir_36df885461d6bd14211edf06510d126c&#45;&gt;dir_d71c2fe00ed3b147a8f961a1bf80b6a4</title>
<path fill="none" stroke="black" d="M84.74,-124.1C83.67,-131.88 81.62,-141.26 79.16,-149.95"/>
<polygon fill="black" stroke="black" points="75.76,-149.11 76.12,-159.7 82.44,-151.19 75.76,-149.11"/>
<g id="a_edge18&#45;headlabel"><a xlink:href="dir_000008_000007.html" target="_top" xlink:title="2">
<text text-anchor="middle" x="74.12" y="-142.33" font-family="Helvetica,sans-Serif" font-size="10.00">2</text>
</a>
</g>
</g>
<!-- dir_36df885461d6bd14211edf06510d126c&#45;&gt;dir_09e761304027c904456130627fd4dcf5 -->
<g id="edge16" class="edge">
<title>dir_36df885461d6bd14211edf06510d126c&#45;&gt;dir_09e761304027c904456130627fd4dcf5</title>
<path fill="none" stroke="black" d="M110.07,-92.07C113.08,-90.68 116.1,-89.3 119,-88 156.45,-71.24 166.47,-68.57 204,-52 204.2,-51.91 204.4,-51.82 204.61,-51.73"/>
<polygon fill="black" stroke="black" points="206.27,-54.82 213.96,-47.54 203.41,-48.43 206.27,-54.82"/>
<g id="a_edge16&#45;headlabel"><a xlink:href="dir_000008_000000.html" target="_top" xlink:title="4">
<text text-anchor="middle" x="204.15" y="-56.38" font-family="Helvetica,sans-Serif" font-size="10.00">4</text>
</a>
</g>
</g>
<!-- dir_ed68644c5c891dd73f5144e8c8bef534&#45;&gt;dir_6bd92bd93c0d5d9980919215b46f20a3 -->
<g id="edge13" class="edge">
<title>dir_ed68644c5c891dd73f5144e8c8bef534&#45;&gt;dir_6bd92bd93c0d5d9980919215b46f20a3</title>
<path fill="none" stroke="black" d="M76.29,-236.5C58.06,-228.09 37.55,-215.01 27,-196 3.45,-153.56 21.08,-95.37 35.15,-61.82"/>
<polygon fill="black" stroke="black" points="38.54,-62.81 39.35,-52.25 32.13,-60 38.54,-62.81"/>
<g id="a_edge13&#45;headlabel"><a xlink:href="dir_000009_000005.html" target="_top" xlink:title="1">
<text text-anchor="middle" x="39.69" y="-64.74" font-family="Helvetica,sans-Serif" font-size="10.00">1</text>
</a>
</g>
</g>
<!-- dir_ed68644c5c891dd73f5144e8c8bef534&#45;&gt;dir_9abb3c88ff8fa0627e3c7214f1ab5523 -->
<g id="edge14" class="edge">
<title>dir_ed68644c5c891dd73f5144e8c8bef534&#45;&gt;dir_9abb3c88ff8fa0627e3c7214f1ab5523</title>
<path fill="none" stroke="black" d="M124.61,-231.7C130.6,-223.47 137.88,-213.48 144.48,-204.42"/>
<polygon fill="black" stroke="black" points="147.48,-206.25 150.54,-196.1 141.82,-202.13 147.48,-206.25"/>
<g id="a_edge14&#45;headlabel"><a xlink:href="dir_000009_000006.html" target="_top" xlink:title="1">
<text text-anchor="middle" x="147.66" y="-208.32" font-family="Helvetica,sans-Serif" font-size="10.00">1</text>
</a>
</g>
</g>
<!-- dir_ed68644c5c891dd73f5144e8c8bef534&#45;&gt;dir_d71c2fe00ed3b147a8f961a1bf80b6a4 -->
<g id="edge15" class="edge">
<title>dir_ed68644c5c891dd73f5144e8c8bef534&#45;&gt;dir_d71c2fe00ed3b147a8f961a1bf80b6a4</title>
<path fill="none" stroke="black" d="M100.63,-231.7C95.28,-223.56 88.8,-213.69 82.89,-204.7"/>
<polygon fill="black" stroke="black" points="85.66,-202.54 77.24,-196.1 79.81,-206.38 85.66,-202.54"/>
<g id="a_edge15&#45;headlabel"><a xlink:href="dir_000009_000007.html" target="_top" xlink:title="3">
<text text-anchor="middle" x="90" y="-201.48" font-family="Helvetica,sans-Serif" font-size="10.00">3</text>
</a>
</g>
</g>
<!-- dir_ed68644c5c891dd73f5144e8c8bef534&#45;&gt;dir_36df885461d6bd14211edf06510d126c -->
<g id="edge12" class="edge">
<title>dir_ed68644c5c891dd73f5144e8c8bef534&#45;&gt;dir_36df885461d6bd14211edf06510d126c</title>
<path fill="none" stroke="black" d="M111.91,-231.7C111.47,-213.6 109.81,-184.45 104,-160 101.89,-151.14 98.59,-141.8 95.22,-133.48"/>
<polygon fill="black" stroke="black" points="98.43,-132.09 91.3,-124.26 91.99,-134.83 98.43,-132.09"/>
<g id="a_edge12&#45;headlabel"><a xlink:href="dir_000009_000008.html" target="_top" xlink:title="2">
<text text-anchor="middle" x="102.45" y="-131.79" font-family="Helvetica,sans-Serif" font-size="10.00">2</text>
</a>
</g>
</g>
<!-- dir_ed68644c5c891dd73f5144e8c8bef534&#45;&gt;dir_09e761304027c904456130627fd4dcf5 -->
<g id="edge11" class="edge">
<title>dir_ed68644c5c891dd73f5144e8c8bef534&#45;&gt;dir_09e761304027c904456130627fd4dcf5</title>
<path fill="none" stroke="black" d="M147.7,-232.56C164.87,-223.46 184.94,-210.96 200,-196 226.6,-169.57 233.84,-160.1 244,-124 249.68,-103.82 248.5,-80.04 246.13,-62.14"/>
<polygon fill="black" stroke="black" points="249.57,-61.46 244.6,-52.1 242.65,-62.51 249.57,-61.46"/>
<g id="a_edge11&#45;headlabel"><a xlink:href="dir_000009_000000.html" target="_top" xlink:title="24">
<text text-anchor="middle" x="252.92" y="-62.08" font-family="Helvetica,sans-Serif" font-size="10.00">24</text>
</a>
</g>
</g>
<!-- dir_a7363e98f9e0bdd87618633653859815&#45;&gt;dir_09e761304027c904456130627fd4dcf5 -->
<g id="edge1" class="edge">
<title>dir_a7363e98f9e0bdd87618633653859815&#45;&gt;dir_09e761304027c904456130627fd4dcf5</title>
<path fill="none" stroke="black" d="M176.26,-87.7C187.09,-78.88 200.42,-68.03 212.16,-58.47"/>
<polygon fill="black" stroke="black" points="214.44,-61.13 219.99,-52.1 210.02,-55.7 214.44,-61.13"/>
<g id="a_edge1&#45;headlabel"><a xlink:href="dir_000010_000000.html" target="_top" xlink:title="2">
<text text-anchor="middle" x="213.44" y="-63.1" font-family="Helvetica,sans-Serif" font-size="10.00">2</text>
</a>
</g>
</g>
</g>
</svg>
