<?xml version="1.0" encoding="UTF-8" standalone="no"?>
<!DOCTYPE svg PUBLIC "-//W3C//DTD SVG 1.1//EN"
 "http://www.w3.org/Graphics/SVG/1.1/DTD/svg11.dtd">
<!-- Generated by graphviz version 2.44.0 ()
 -->
<!-- Title: src Pages: 1 -->
<svg width="342pt" height="364pt"
 viewBox="0.00 0.00 342.00 364.00" xmlns="http://www.w3.org/2000/svg" xmlns:xlink="http://www.w3.org/1999/xlink">
<g id="graph0" class="graph" transform="scale(1 1) rotate(0) translate(4 360)">
<title>src</title>
<g id="clust1" class="cluster">
<title>clusterdir_68267d1309a1af8e8297ef4c3efbcdba</title>
<g id="a_clust1"><a xlink:href="dir_68267d1309a1af8e8297ef4c3efbcdba.html" target="_top">
<polygon fill="#eeeeff" stroke="black" points="8,-8 8,-348 272,-348 272,-8 8,-8"/>
</a>
</g>
</g>
<!-- dir_68267d1309a1af8e8297ef4c3efbcdba -->
<g id="node1" class="node">
<title>dir_68267d1309a1af8e8297ef4c3efbcdba</title>
<text text-anchor="middle" x="237" y="-319.5" font-family="Helvetica,sans-Serif" font-size="10.00">src</text>
</g>
<!-- dir_2871d450ca6bd61b793a39e709e205b0 -->
<g id="node2" class="node">
<title>dir_2871d450ca6bd61b793a39e709e205b0</title>
<g id="a_node2"><a xlink:href="dir_2871d450ca6bd61b793a39e709e205b0.html" target="_top" xlink:title="Api">
<polygon fill="white" stroke="red" points="192,-340 138,-340 138,-304 192,-304 192,-340"/>
<text text-anchor="middle" x="165" y="-319.5" font-family="Helvetica,sans-Serif" font-size="10.00">Api</text>
</a>
</g>
</g>
<!-- dir_9abb3c88ff8fa0627e3c7214f1ab5523 -->
<g id="node4" class="node">
<title>dir_9abb3c88ff8fa0627e3c7214f1ab5523</title>
<g id="a_node4"><a xlink:href="dir_9abb3c88ff8fa0627e3c7214f1ab5523.html" target="_top" xlink:title="Listeners">
<polygon fill="white" stroke="black" points="191.5,-196 134.5,-196 134.5,-160 191.5,-160 191.5,-196"/>
<text text-anchor="middle" x="163" y="-175.5" font-family="Helvetica,sans-Serif" font-size="10.00">Listeners</text>
</a>
</g>
</g>
<!-- dir_2871d450ca6bd61b793a39e709e205b0&#45;&gt;dir_9abb3c88ff8fa0627e3c7214f1ab5523 -->
<g id="edge7" class="edge">
<title>dir_2871d450ca6bd61b793a39e709e205b0&#45;&gt;dir_9abb3c88ff8fa0627e3c7214f1ab5523</title>
<path fill="none" stroke="black" d="M165.19,-303.94C165.35,-286.02 165.47,-257.03 165,-232 164.84,-223.68 164.55,-214.63 164.23,-206.4"/>
<polygon fill="black" stroke="black" points="167.72,-206.03 163.81,-196.18 160.72,-206.32 167.72,-206.03"/>
<g id="a_edge7&#45;headlabel"><a xlink:href="dir_000007_000011.html" target="_top" xlink:title="1">
<text text-anchor="middle" x="170.7" y="-207" font-family="Helvetica,sans-Serif" font-size="10.00">1</text>
</a>
</g>
</g>
<!-- dir_d71c2fe00ed3b147a8f961a1bf80b6a4 -->
<g id="node5" class="node">
<title>dir_d71c2fe00ed3b147a8f961a1bf80b6a4</title>
<g id="a_node5"><a xlink:href="dir_d71c2fe00ed3b147a8f961a1bf80b6a4.html" target="_top" xlink:title="Managers">
<polygon fill="white" stroke="black" points="95.5,-196 36.5,-196 36.5,-160 95.5,-160 95.5,-196"/>
<text text-anchor="middle" x="66" y="-175.5" font-family="Helvetica,sans-Serif" font-size="10.00">Managers</text>
</a>
</g>
</g>
<!-- dir_2871d450ca6bd61b793a39e709e205b0&#45;&gt;dir_d71c2fe00ed3b147a8f961a1bf80b6a4 -->
<g id="edge8" class="edge">
<title>dir_2871d450ca6bd61b793a39e709e205b0&#45;&gt;dir_d71c2fe00ed3b147a8f961a1bf80b6a4</title>
<path fill="none" stroke="black" d="M137.71,-312.27C117.18,-304.2 90.23,-290.07 76,-268 64.25,-249.78 62.33,-225.01 63.02,-206.23"/>
<polygon fill="black" stroke="black" points="66.52,-206.42 63.65,-196.22 59.53,-205.98 66.52,-206.42"/>
<g id="a_edge8&#45;headlabel"><a xlink:href="dir_000007_000012.html" target="_top" xlink:title="4">
<text text-anchor="middle" x="69.13" y="-207.69" font-family="Helvetica,sans-Serif" font-size="10.00">4</text>
</a>
</g>
</g>
<!-- dir_146efcb14c269303f155f454755144b3 -->
<g id="node7" class="node">
<title>dir_146efcb14c269303f155f454755144b3</title>
<g id="a_node7"><a xlink:href="dir_146efcb14c269303f155f454755144b3.html" target="_top" xlink:title="Structs">
<polygon fill="white" stroke="black" points="264,-196 210,-196 210,-160 264,-160 264,-196"/>
<text text-anchor="middle" x="237" y="-175.5" font-family="Helvetica,sans-Serif" font-size="10.00">Structs</text>
</a>
</g>
</g>
<!-- dir_2871d450ca6bd61b793a39e709e205b0&#45;&gt;dir_146efcb14c269303f155f454755144b3 -->
<g id="edge6" class="edge">
<title>dir_2871d450ca6bd61b793a39e709e205b0&#45;&gt;dir_146efcb14c269303f155f454755144b3</title>
<path fill="none" stroke="black" d="M173.68,-303.87C186.12,-279.35 209.1,-234.03 223.69,-205.26"/>
<polygon fill="black" stroke="black" points="226.88,-206.69 228.28,-196.19 220.64,-203.53 226.88,-206.69"/>
<g id="a_edge6&#45;headlabel"><a xlink:href="dir_000007_000014.html" target="_top" xlink:title="1">
<text text-anchor="middle" x="227.79" y="-208.68" font-family="Helvetica,sans-Serif" font-size="10.00">1</text>
</a>
</g>
</g>
<!-- dir_ed68644c5c891dd73f5144e8c8bef534 -->
<g id="node8" class="node">
<title>dir_ed68644c5c891dd73f5144e8c8bef534</title>
<g id="a_node8"><a xlink:href="dir_ed68644c5c891dd73f5144e8c8bef534.html" target="_top" xlink:title="Subsystems">
<polygon fill="white" stroke="black" points="156.5,-268 85.5,-268 85.5,-232 156.5,-232 156.5,-268"/>
<text text-anchor="middle" x="121" y="-247.5" font-family="Helvetica,sans-Serif" font-size="10.00">Subsystems</text>
</a>
</g>
</g>
<!-- dir_2871d450ca6bd61b793a39e709e205b0&#45;&gt;dir_ed68644c5c891dd73f5144e8c8bef534 -->
<g id="edge9" class="edge">
<title>dir_2871d450ca6bd61b793a39e709e205b0&#45;&gt;dir_ed68644c5c891dd73f5144e8c8bef534</title>
<path fill="none" stroke="black" d="M154.12,-303.7C149.01,-295.56 142.8,-285.69 137.16,-276.7"/>
<polygon fill="black" stroke="black" points="140.04,-274.71 131.75,-268.1 134.11,-278.43 140.04,-274.71"/>
<g id="a_edge9&#45;headlabel"><a xlink:href="dir_000007_000015.html" target="_top" xlink:title="1">
<text text-anchor="middle" x="144.35" y="-273.74" font-family="Helvetica,sans-Serif" font-size="10.00">1</text>
</a>
</g>
</g>
<!-- dir_09e761304027c904456130627fd4dcf5 -->
<g id="node10" class="node">
<title>dir_09e761304027c904456130627fd4dcf5</title>
<g id="a_node10"><a xlink:href="dir_09e761304027c904456130627fd4dcf5.html" target="_top" xlink:title="includes">
<polygon fill="none" stroke="red" points="334,-52 280,-52 280,-16 334,-16 334,-52"/>
<text text-anchor="middle" x="307" y="-31.5" font-family="Helvetica,sans-Serif" font-size="10.00">includes</text>
</a>
</g>
</g>
<!-- dir_2871d450ca6bd61b793a39e709e205b0&#45;&gt;dir_09e761304027c904456130627fd4dcf5 -->
<g id="edge5" class="edge">
<title>dir_2871d450ca6bd61b793a39e709e205b0&#45;&gt;dir_09e761304027c904456130627fd4dcf5</title>
<path fill="none" stroke="black" d="M190.05,-303.84C219.94,-282.09 269.46,-241.88 298,-196 323.87,-154.4 325.88,-136.63 320,-88 318.98,-79.53 317.07,-70.47 315.02,-62.28"/>
<polygon fill="black" stroke="black" points="318.36,-61.23 312.41,-52.47 311.6,-63.03 318.36,-61.23"/>
<g id="a_edge5&#45;headlabel"><a xlink:href="dir_000007_000000.html" target="_top" xlink:title="33">
<text text-anchor="middle" x="322.03" y="-61.48" font-family="Helvetica,sans-Serif" font-size="10.00">33</text>
</a>
</g>
</g>
<!-- dir_6bd92bd93c0d5d9980919215b46f20a3 -->
<g id="node3" class="node">
<title>dir_6bd92bd93c0d5d9980919215b46f20a3</title>
<g id="a_node3"><a xlink:href="dir_6bd92bd93c0d5d9980919215b46f20a3.html" target="_top" xlink:title="Exceptions">
<polygon fill="white" stroke="black" points="80,-52 16,-52 16,-16 80,-16 80,-52"/>
<text text-anchor="middle" x="48" y="-31.5" font-family="Helvetica,sans-Serif" font-size="10.00">Exceptions</text>
</a>
</g>
</g>
<!-- dir_a7363e98f9e0bdd87618633653859815 -->
<g id="node9" class="node">
<title>dir_a7363e98f9e0bdd87618633653859815</title>
<g id="a_node9"><a xlink:href="dir_a7363e98f9e0bdd87618633653859815.html" target="_top" xlink:title="Utils">
<polygon fill="white" stroke="black" points="182,-124 128,-124 128,-88 182,-88 182,-124"/>
<text text-anchor="middle" x="155" y="-103.5" font-family="Helvetica,sans-Serif" font-size="10.00">Utils</text>
</a>
</g>
</g>
<!-- dir_9abb3c88ff8fa0627e3c7214f1ab5523&#45;&gt;dir_a7363e98f9e0bdd87618633653859815 -->
<g id="edge3" class="edge">
<title>dir_9abb3c88ff8fa0627e3c7214f1ab5523&#45;&gt;dir_a7363e98f9e0bdd87618633653859815</title>
<path fill="none" stroke="black" d="M161.02,-159.7C160.14,-151.98 159.08,-142.71 158.1,-134.11"/>
<polygon fill="black" stroke="black" points="161.57,-133.64 156.95,-124.1 154.61,-134.44 161.57,-133.64"/>
<g id="a_edge3&#45;headlabel"><a xlink:href="dir_000011_000016.html" target="_top" xlink:title="2">
<text text-anchor="middle" x="164.8" y="-134.39" font-family="Helvetica,sans-Serif" font-size="10.00">2</text>
</a>
</g>
</g>
<!-- dir_9abb3c88ff8fa0627e3c7214f1ab5523&#45;&gt;dir_09e761304027c904456130627fd4dcf5 -->
<g id="edge2" class="edge">
<title>dir_9abb3c88ff8fa0627e3c7214f1ab5523&#45;&gt;dir_09e761304027c904456130627fd4dcf5</title>
<path fill="none" stroke="black" d="M183.81,-159.85C195.83,-149.72 211.08,-136.47 224,-124 245.49,-103.26 268.55,-78.29 284.9,-60.08"/>
<polygon fill="black" stroke="black" points="287.86,-62.02 291.91,-52.23 282.64,-57.36 287.86,-62.02"/>
<g id="a_edge2&#45;headlabel"><a xlink:href="dir_000011_000000.html" target="_top" xlink:title="7">
<text text-anchor="middle" x="287.58" y="-64.1" font-family="Helvetica,sans-Serif" font-size="10.00">7</text>
</a>
</g>
</g>
<!-- dir_d71c2fe00ed3b147a8f961a1bf80b6a4&#45;&gt;dir_6bd92bd93c0d5d9980919215b46f20a3 -->
<g id="edge12" class="edge">
<title>dir_d71c2fe00ed3b147a8f961a1bf80b6a4&#45;&gt;dir_6bd92bd93c0d5d9980919215b46f20a3</title>
<path fill="none" stroke="black" d="M58.11,-159.75C53.89,-149.58 49.14,-136.33 47,-124 43.45,-103.58 43.9,-80.12 45.12,-62.41"/>
<polygon fill="black" stroke="black" points="48.63,-62.46 45.96,-52.21 41.65,-61.89 48.63,-62.46"/>
<g id="a_edge12&#45;headlabel"><a xlink:href="dir_000012_000010.html" target="_top" xlink:title="3">
<text text-anchor="middle" x="51.17" y="-63.78" font-family="Helvetica,sans-Serif" font-size="10.00">3</text>
</a>
</g>
</g>
<!-- dir_36df885461d6bd14211edf06510d126c -->
<g id="node6" class="node">
<title>dir_36df885461d6bd14211edf06510d126c</title>
<g id="a_node6"><a xlink:href="dir_36df885461d6bd14211edf06510d126c.html" target="_top" xlink:title="Models">
<polygon fill="white" stroke="black" points="110,-124 56,-124 56,-88 110,-88 110,-124"/>
<text text-anchor="middle" x="83" y="-103.5" font-family="Helvetica,sans-Serif" font-size="10.00">Models</text>
</a>
</g>
</g>
<!-- dir_d71c2fe00ed3b147a8f961a1bf80b6a4&#45;&gt;dir_36df885461d6bd14211edf06510d126c -->
<g id="edge11" class="edge">
<title>dir_d71c2fe00ed3b147a8f961a1bf80b6a4&#45;&gt;dir_36df885461d6bd14211edf06510d126c</title>
<path fill="none" stroke="black" d="M64.29,-159.7C65.38,-151.9 67.43,-142.51 69.9,-133.83"/>
<polygon fill="black" stroke="black" points="73.3,-134.69 72.95,-124.1 66.62,-132.6 73.3,-134.69"/>
<g id="a_edge11&#45;headlabel"><a xlink:href="dir_000012_000013.html" target="_top" xlink:title="4">
<text text-anchor="middle" x="74.93" y="-136.47" font-family="Helvetica,sans-Serif" font-size="10.00">4</text>
</a>
</g>
</g>
<!-- dir_d71c2fe00ed3b147a8f961a1bf80b6a4&#45;&gt;dir_09e761304027c904456130627fd4dcf5 -->
<g id="edge10" class="edge">
<title>dir_d71c2fe00ed3b147a8f961a1bf80b6a4&#45;&gt;dir_09e761304027c904456130627fd4dcf5</title>
<path fill="none" stroke="black" d="M95.6,-168.44C122.14,-159.87 161.35,-144.94 191,-124 208.73,-111.48 207.38,-101.96 224,-88 238.56,-75.78 256.12,-64.17 271.34,-54.96"/>
<polygon fill="black" stroke="black" points="273.18,-57.94 279.99,-49.82 269.6,-51.92 273.18,-57.94"/>
<g id="a_edge10&#45;headlabel"><a xlink:href="dir_000012_000000.html" target="_top" xlink:title="9">
<text text-anchor="middle" x="271.54" y="-59.71" font-family="Helvetica,sans-Serif" font-size="10.00">9</text>
</a>
</g>
</g>
<!-- dir_36df885461d6bd14211edf06510d126c&#45;&gt;dir_6bd92bd93c0d5d9980919215b46f20a3 -->
<g id="edge20" class="edge">
<title>dir_36df885461d6bd14211edf06510d126c&#45;&gt;dir_6bd92bd93c0d5d9980919215b46f20a3</title>
<path fill="none" stroke="black" d="M74.35,-87.7C70.36,-79.73 65.55,-70.1 61.13,-61.26"/>
<polygon fill="black" stroke="black" points="64.15,-59.48 56.55,-52.1 57.89,-62.61 64.15,-59.48"/>
<g id="a_edge20&#45;headlabel"><a xlink:href="dir_000013_000010.html" target="_top" xlink:title="1">
<text text-anchor="middle" x="68.3" y="-58.93" font-family="Helvetica,sans-Serif" font-size="10.00">1</text>
</a>
</g>
</g>
<!-- dir_36df885461d6bd14211edf06510d126c&#45;&gt;dir_d71c2fe00ed3b147a8f961a1bf80b6a4 -->
<g id="edge21" class="edge">
<title>dir_36df885461d6bd14211edf06510d126c&#45;&gt;dir_d71c2fe00ed3b147a8f961a1bf80b6a4</title>
<path fill="none" stroke="black" d="M84.74,-124.1C83.67,-131.88 81.62,-141.26 79.16,-149.95"/>
<polygon fill="black" stroke="black" points="75.76,-149.11 76.12,-159.7 82.44,-151.19 75.76,-149.11"/>
<g id="a_edge21&#45;headlabel"><a xlink:href="dir_000013_000012.html" target="_top" xlink:title="2">
<text text-anchor="middle" x="74.12" y="-142.33" font-family="Helvetica,sans-Serif" font-size="10.00">2</text>
</a>
</g>
</g>
<!-- dir_36df885461d6bd14211edf06510d126c&#45;&gt;dir_09e761304027c904456130627fd4dcf5 -->
<g id="edge19" class="edge">
<title>dir_36df885461d6bd14211edf06510d126c&#45;&gt;dir_09e761304027c904456130627fd4dcf5</title>
<path fill="none" stroke="black" d="M110.26,-91.38C113.18,-90.15 116.13,-88.99 119,-88 183.48,-65.68 206.89,-76.33 270.17,-53.98"/>
<polygon fill="black" stroke="black" points="271.63,-57.18 279.81,-50.44 269.22,-50.61 271.63,-57.18"/>
<g id="a_edge19&#45;headlabel"><a xlink:href="dir_000013_000000.html" target="_top" xlink:title="4">
<text text-anchor="middle" x="269.24" y="-58.58" font-family="Helvetica,sans-Serif" font-size="10.00">4</text>
</a>
</g>
</g>
<!-- dir_146efcb14c269303f155f454755144b3&#45;&gt;dir_09e761304027c904456130627fd4dcf5 -->
<g id="edge4" class="edge">
<title>dir_146efcb14c269303f155f454755144b3&#45;&gt;dir_09e761304027c904456130627fd4dcf5</title>
<path fill="none" stroke="black" d="M245.44,-159.87C257.53,-135.35 279.87,-90.03 294.06,-61.26"/>
<polygon fill="black" stroke="black" points="297.24,-62.71 298.53,-52.19 290.97,-59.61 297.24,-62.71"/>
<g id="a_edge4&#45;headlabel"><a xlink:href="dir_000014_000000.html" target="_top" xlink:title="2">
<text text-anchor="middle" x="298.2" y="-64.69" font-family="Helvetica,sans-Serif" font-size="10.00">2</text>
</a>
</g>
</g>
<!-- dir_ed68644c5c891dd73f5144e8c8bef534&#45;&gt;dir_6bd92bd93c0d5d9980919215b46f20a3 -->
<g id="edge16" class="edge">
<title>dir_ed68644c5c891dd73f5144e8c8bef534&#45;&gt;dir_6bd92bd93c0d5d9980919215b46f20a3</title>
<path fill="none" stroke="black" d="M85.46,-238.95C64.45,-230.98 39.57,-217.52 27,-196 2.41,-153.91 20.63,-95.22 35.03,-61.56"/>
<polygon fill="black" stroke="black" points="38.26,-62.92 39.15,-52.36 31.87,-60.07 38.26,-62.92"/>
<g id="a_edge16&#45;headlabel"><a xlink:href="dir_000015_000010.html" target="_top" xlink:title="1">
<text text-anchor="middle" x="39.38" y="-64.86" font-family="Helvetica,sans-Serif" font-size="10.00">1</text>
</a>
</g>
</g>
<!-- dir_ed68644c5c891dd73f5144e8c8bef534&#45;&gt;dir_9abb3c88ff8fa0627e3c7214f1ab5523 -->
<g id="edge17" class="edge">
<title>dir_ed68644c5c891dd73f5144e8c8bef534&#45;&gt;dir_9abb3c88ff8fa0627e3c7214f1ab5523</title>
<path fill="none" stroke="black" d="M131.38,-231.7C136.26,-223.56 142.19,-213.69 147.58,-204.7"/>
<polygon fill="black" stroke="black" points="150.59,-206.48 152.74,-196.1 144.59,-202.88 150.59,-206.48"/>
<g id="a_edge17&#45;headlabel"><a xlink:href="dir_000015_000011.html" target="_top" xlink:title="1">
<text text-anchor="middle" x="151.18" y="-208.52" font-family="Helvetica,sans-Serif" font-size="10.00">1</text>
</a>
</g>
</g>
<!-- dir_ed68644c5c891dd73f5144e8c8bef534&#45;&gt;dir_d71c2fe00ed3b147a8f961a1bf80b6a4 -->
<g id="edge18" class="edge">
<title>dir_ed68644c5c891dd73f5144e8c8bef534&#45;&gt;dir_d71c2fe00ed3b147a8f961a1bf80b6a4</title>
<path fill="none" stroke="black" d="M107.4,-231.7C100.88,-223.39 92.93,-213.28 85.75,-204.14"/>
<polygon fill="black" stroke="black" points="88.37,-201.81 79.44,-196.1 82.87,-206.13 88.37,-201.81"/>
<g id="a_edge18&#45;headlabel"><a xlink:href="dir_000015_000012.html" target="_top" xlink:title="3">
<text text-anchor="middle" x="92.82" y="-200.38" font-family="Helvetica,sans-Serif" font-size="10.00">3</text>
</a>
</g>
</g>
<!-- dir_ed68644c5c891dd73f5144e8c8bef534&#45;&gt;dir_36df885461d6bd14211edf06510d126c -->
<g id="edge15" class="edge">
<title>dir_ed68644c5c891dd73f5144e8c8bef534&#45;&gt;dir_36df885461d6bd14211edf06510d126c</title>
<path fill="none" stroke="black" d="M118.69,-231.71C116.03,-213.61 111.12,-184.47 104,-160 101.46,-151.26 98.03,-141.95 94.68,-133.62"/>
<polygon fill="black" stroke="black" points="97.91,-132.27 90.85,-124.38 91.45,-134.95 97.91,-132.27"/>
<g id="a_edge15&#45;headlabel"><a xlink:href="dir_000015_000013.html" target="_top" xlink:title="2">
<text text-anchor="middle" x="101.91" y="-132" font-family="Helvetica,sans-Serif" font-size="10.00">2</text>
</a>
</g>
</g>
<!-- dir_ed68644c5c891dd73f5144e8c8bef534&#45;&gt;dir_146efcb14c269303f155f454755144b3 -->
<g id="edge14" class="edge">
<title>dir_ed68644c5c891dd73f5144e8c8bef534&#45;&gt;dir_146efcb14c269303f155f454755144b3</title>
<path fill="none" stroke="black" d="M149.38,-231.88C164.88,-222.52 184.25,-210.83 200.83,-200.83"/>
<polygon fill="black" stroke="black" points="202.96,-203.63 209.71,-195.47 199.34,-197.64 202.96,-203.63"/>
<g id="a_edge14&#45;headlabel"><a xlink:href="dir_000015_000014.html" target="_top" xlink:title="1">
<text text-anchor="middle" x="201.35" y="-205.42" font-family="Helvetica,sans-Serif" font-size="10.00">1</text>
</a>
</g>
</g>
<!-- dir_ed68644c5c891dd73f5144e8c8bef534&#45;&gt;dir_09e761304027c904456130627fd4dcf5 -->
<g id="edge13" class="edge">
<title>dir_ed68644c5c891dd73f5144e8c8bef534&#45;&gt;dir_09e761304027c904456130627fd4dcf5</title>
<path fill="none" stroke="black" d="M156.63,-246.39C191.47,-241.88 243.46,-229.57 273,-196 305.84,-158.69 309.75,-97.72 308.88,-62.49"/>
<polygon fill="black" stroke="black" points="312.37,-62.29 308.48,-52.44 305.38,-62.57 312.37,-62.29"/>
<g id="a_edge13&#45;headlabel"><a xlink:href="dir_000015_000000.html" target="_top" xlink:title="28">
<text text-anchor="middle" x="315.35" y="-63.27" font-family="Helvetica,sans-Serif" font-size="10.00">28</text>
</a>
</g>
</g>
<!-- dir_a7363e98f9e0bdd87618633653859815&#45;&gt;dir_09e761304027c904456130627fd4dcf5 -->
<g id="edge1" class="edge">
<title>dir_a7363e98f9e0bdd87618633653859815&#45;&gt;dir_09e761304027c904456130627fd4dcf5</title>
<path fill="none" stroke="black" d="M182.21,-93.42C208.41,-82.21 247.05,-65.53 270.41,-54.59"/>
<polygon fill="black" stroke="black" points="272.18,-57.63 279.68,-50.15 269.15,-51.32 272.18,-57.63"/>
<g id="a_edge1&#45;headlabel"><a xlink:href="dir_000016_000000.html" target="_top" xlink:title="2">
<text text-anchor="middle" x="270.16" y="-59.24" font-family="Helvetica,sans-Serif" font-size="10.00">2</text>
</a>
</g>
</g>
</g>
</svg>
