<?xml version="1.0" encoding="UTF-8" standalone="no"?>
<!DOCTYPE svg PUBLIC "-//W3C//DTD SVG 1.1//EN"
 "http://www.w3.org/Graphics/SVG/1.1/DTD/svg11.dtd">
<!-- Generated by graphviz version 2.44.0 ()
 -->
<!-- Title: src/Subsystems Pages: 1 -->
<svg width="264pt" height="311pt"
 viewBox="0.00 0.00 264.00 311.00" xmlns="http://www.w3.org/2000/svg" xmlns:xlink="http://www.w3.org/1999/xlink">
<g id="graph0" class="graph" transform="scale(1 1) rotate(0) translate(4 307)">
<title>src/Subsystems</title>
<g id="clust1" class="cluster">
<title>clusterdir_68267d1309a1af8e8297ef4c3efbcdba</title>
<g id="a_clust1"><a xlink:href="dir_68267d1309a1af8e8297ef4c3efbcdba.html" target="_top" xlink:title="src">
<polygon fill="#ddddee" stroke="black" points="8,-8 8,-295 194,-295 194,-8 8,-8"/>
<text text-anchor="middle" x="101" y="-283" font-family="Helvetica,sans-Serif" font-size="10.00">src</text>
</a>
</g>
</g>
<!-- dir_36df885461d6bd14211edf06510d126c -->
<g id="node1" class="node">
<title>dir_36df885461d6bd14211edf06510d126c</title>
<g id="a_node1"><a xlink:href="dir_36df885461d6bd14211edf06510d126c.html" target="_top" xlink:title="Models">
<polygon fill="none" stroke="black" points="90,-196 36,-196 36,-160 90,-160 90,-196"/>
<text text-anchor="middle" x="63" y="-175.5" font-family="Helvetica,sans-Serif" font-size="10.00">Models</text>
</a>
</g>
</g>
<!-- dir_6bd92bd93c0d5d9980919215b46f20a3 -->
<g id="node2" class="node">
<title>dir_6bd92bd93c0d5d9980919215b46f20a3</title>
<g id="a_node2"><a xlink:href="dir_6bd92bd93c0d5d9980919215b46f20a3.html" target="_top" xlink:title="Exceptions">
<polygon fill="none" stroke="black" points="80,-52 16,-52 16,-16 80,-16 80,-52"/>
<text text-anchor="middle" x="48" y="-31.5" font-family="Helvetica,sans-Serif" font-size="10.00">Exceptions</text>
</a>
</g>
</g>
<!-- dir_36df885461d6bd14211edf06510d126c&#45;&gt;dir_6bd92bd93c0d5d9980919215b46f20a3 -->
<g id="edge11" class="edge">
<title>dir_36df885461d6bd14211edf06510d126c&#45;&gt;dir_6bd92bd93c0d5d9980919215b46f20a3</title>
<path fill="none" stroke="black" d="M60.55,-159.84C59.11,-149.47 57.33,-135.99 56,-124 53.71,-103.31 51.62,-79.87 50.15,-62.23"/>
<polygon fill="black" stroke="black" points="53.63,-61.76 49.32,-52.08 46.65,-62.33 53.63,-61.76"/>
<g id="a_edge11&#45;headlabel"><a xlink:href="dir_000008_000005.html" target="_top" xlink:title="1">
<text text-anchor="middle" x="56.75" y="-62.62" font-family="Helvetica,sans-Serif" font-size="10.00">1</text>
</a>
</g>
</g>
<!-- dir_d71c2fe00ed3b147a8f961a1bf80b6a4 -->
<g id="node4" class="node">
<title>dir_d71c2fe00ed3b147a8f961a1bf80b6a4</title>
<g id="a_node4"><a xlink:href="dir_d71c2fe00ed3b147a8f961a1bf80b6a4.html" target="_top" xlink:title="Managers">
<polygon fill="none" stroke="black" points="124.5,-124 65.5,-124 65.5,-88 124.5,-88 124.5,-124"/>
<text text-anchor="middle" x="95" y="-103.5" font-family="Helvetica,sans-Serif" font-size="10.00">Managers</text>
</a>
</g>
</g>
<!-- dir_36df885461d6bd14211edf06510d126c&#45;&gt;dir_d71c2fe00ed3b147a8f961a1bf80b6a4 -->
<g id="edge12" class="edge">
<title>dir_36df885461d6bd14211edf06510d126c&#45;&gt;dir_d71c2fe00ed3b147a8f961a1bf80b6a4</title>
<path fill="none" stroke="black" d="M64.99,-159.7C67.85,-151.64 72.09,-141.89 76.58,-132.98"/>
<polygon fill="black" stroke="black" points="79.69,-134.58 81.29,-124.1 73.51,-131.3 79.69,-134.58"/>
<g id="a_edge12&#45;headlabel"><a xlink:href="dir_000008_000007.html" target="_top" xlink:title="2">
<text text-anchor="middle" x="80.51" y="-136.58" font-family="Helvetica,sans-Serif" font-size="10.00">2</text>
</a>
</g>
</g>
<!-- dir_09e761304027c904456130627fd4dcf5 -->
<g id="node6" class="node">
<title>dir_09e761304027c904456130627fd4dcf5</title>
<g id="a_node6"><a xlink:href="dir_09e761304027c904456130627fd4dcf5.html" target="_top" xlink:title="includes">
<polygon fill="none" stroke="red" points="256,-52 202,-52 202,-16 256,-16 256,-52"/>
<text text-anchor="middle" x="229" y="-31.5" font-family="Helvetica,sans-Serif" font-size="10.00">includes</text>
</a>
</g>
</g>
<!-- dir_36df885461d6bd14211edf06510d126c&#45;&gt;dir_09e761304027c904456130627fd4dcf5 -->
<g id="edge10" class="edge">
<title>dir_36df885461d6bd14211edf06510d126c&#45;&gt;dir_09e761304027c904456130627fd4dcf5</title>
<path fill="none" stroke="black" d="M86.79,-159.9C100.55,-149.79 118.05,-136.54 133,-124 157.95,-103.08 185.04,-77.7 204.06,-59.41"/>
<polygon fill="black" stroke="black" points="206.68,-61.74 211.44,-52.28 201.81,-56.71 206.68,-61.74"/>
<g id="a_edge10&#45;headlabel"><a xlink:href="dir_000008_000000.html" target="_top" xlink:title="4">
<text text-anchor="middle" x="206.07" y="-63.78" font-family="Helvetica,sans-Serif" font-size="10.00">4</text>
</a>
</g>
</g>
<!-- dir_9abb3c88ff8fa0627e3c7214f1ab5523 -->
<g id="node3" class="node">
<title>dir_9abb3c88ff8fa0627e3c7214f1ab5523</title>
<g id="a_node3"><a xlink:href="dir_9abb3c88ff8fa0627e3c7214f1ab5523.html" target="_top" xlink:title="Listeners">
<polygon fill="none" stroke="black" points="185.5,-196 128.5,-196 128.5,-160 185.5,-160 185.5,-196"/>
<text text-anchor="middle" x="157" y="-175.5" font-family="Helvetica,sans-Serif" font-size="10.00">Listeners</text>
</a>
</g>
</g>
<!-- dir_9abb3c88ff8fa0627e3c7214f1ab5523&#45;&gt;dir_09e761304027c904456130627fd4dcf5 -->
<g id="edge1" class="edge">
<title>dir_9abb3c88ff8fa0627e3c7214f1ab5523&#45;&gt;dir_09e761304027c904456130627fd4dcf5</title>
<path fill="none" stroke="black" d="M165.68,-159.87C178.12,-135.35 201.1,-90.03 215.69,-61.26"/>
<polygon fill="black" stroke="black" points="218.88,-62.69 220.28,-52.19 212.64,-59.53 218.88,-62.69"/>
<g id="a_edge1&#45;headlabel"><a xlink:href="dir_000006_000000.html" target="_top" xlink:title="7">
<text text-anchor="middle" x="219.79" y="-64.68" font-family="Helvetica,sans-Serif" font-size="10.00">7</text>
</a>
</g>
</g>
<!-- dir_d71c2fe00ed3b147a8f961a1bf80b6a4&#45;&gt;dir_36df885461d6bd14211edf06510d126c -->
<g id="edge3" class="edge">
<title>dir_d71c2fe00ed3b147a8f961a1bf80b6a4&#45;&gt;dir_36df885461d6bd14211edf06510d126c</title>
<path fill="none" stroke="black" d="M93.08,-124.1C90.25,-132.13 86.02,-141.87 81.54,-150.8"/>
<polygon fill="black" stroke="black" points="78.41,-149.22 76.83,-159.7 84.6,-152.49 78.41,-149.22"/>
<g id="a_edge3&#45;headlabel"><a xlink:href="dir_000007_000008.html" target="_top" xlink:title="4">
<text text-anchor="middle" x="77.58" y="-142.22" font-family="Helvetica,sans-Serif" font-size="10.00">4</text>
</a>
</g>
</g>
<!-- dir_d71c2fe00ed3b147a8f961a1bf80b6a4&#45;&gt;dir_6bd92bd93c0d5d9980919215b46f20a3 -->
<g id="edge4" class="edge">
<title>dir_d71c2fe00ed3b147a8f961a1bf80b6a4&#45;&gt;dir_6bd92bd93c0d5d9980919215b46f20a3</title>
<path fill="none" stroke="black" d="M83.38,-87.7C77.86,-79.47 71.15,-69.48 65.07,-60.42"/>
<polygon fill="black" stroke="black" points="67.96,-58.46 59.48,-52.1 62.15,-62.36 67.96,-58.46"/>
<g id="a_edge4&#45;headlabel"><a xlink:href="dir_000007_000005.html" target="_top" xlink:title="3">
<text text-anchor="middle" x="72.33" y="-57.36" font-family="Helvetica,sans-Serif" font-size="10.00">3</text>
</a>
</g>
</g>
<!-- dir_d71c2fe00ed3b147a8f961a1bf80b6a4&#45;&gt;dir_09e761304027c904456130627fd4dcf5 -->
<g id="edge2" class="edge">
<title>dir_d71c2fe00ed3b147a8f961a1bf80b6a4&#45;&gt;dir_09e761304027c904456130627fd4dcf5</title>
<path fill="none" stroke="black" d="M124.86,-89.9C143.3,-80.51 167.67,-68.01 192.98,-54.64"/>
<polygon fill="black" stroke="black" points="194.77,-57.65 201.97,-49.88 191.5,-51.47 194.77,-57.65"/>
<g id="a_edge2&#45;headlabel"><a xlink:href="dir_000007_000000.html" target="_top" xlink:title="7">
<text text-anchor="middle" x="192.93" y="-59.34" font-family="Helvetica,sans-Serif" font-size="10.00">7</text>
</a>
</g>
</g>
<!-- dir_ed68644c5c891dd73f5144e8c8bef534 -->
<g id="node5" class="node">
<title>dir_ed68644c5c891dd73f5144e8c8bef534</title>
<g id="a_node5"><a xlink:href="dir_ed68644c5c891dd73f5144e8c8bef534.html" target="_top" xlink:title="Subsystems">
<polygon fill="#eeeeff" stroke="black" points="144.5,-268 73.5,-268 73.5,-232 144.5,-232 144.5,-268"/>
<text text-anchor="middle" x="109" y="-247.5" font-family="Helvetica,sans-Serif" font-size="10.00">Subsystems</text>
</a>
</g>
</g>
<!-- dir_ed68644c5c891dd73f5144e8c8bef534&#45;&gt;dir_36df885461d6bd14211edf06510d126c -->
<g id="edge6" class="edge">
<title>dir_ed68644c5c891dd73f5144e8c8bef534&#45;&gt;dir_36df885461d6bd14211edf06510d126c</title>
<path fill="none" stroke="black" d="M97.63,-231.7C92.28,-223.56 85.8,-213.69 79.89,-204.7"/>
<polygon fill="black" stroke="black" points="82.66,-202.54 74.24,-196.1 76.81,-206.38 82.66,-202.54"/>
<g id="a_edge6&#45;headlabel"><a xlink:href="dir_000009_000008.html" target="_top" xlink:title="2">
<text text-anchor="middle" x="87" y="-201.48" font-family="Helvetica,sans-Serif" font-size="10.00">2</text>
</a>
</g>
</g>
<!-- dir_ed68644c5c891dd73f5144e8c8bef534&#45;&gt;dir_6bd92bd93c0d5d9980919215b46f20a3 -->
<g id="edge7" class="edge">
<title>dir_ed68644c5c891dd73f5144e8c8bef534&#45;&gt;dir_6bd92bd93c0d5d9980919215b46f20a3</title>
<path fill="none" stroke="black" d="M73.25,-235.57C55.97,-227.05 36.89,-214.16 27,-196 3.79,-153.37 21.31,-95.25 35.26,-61.76"/>
<polygon fill="black" stroke="black" points="38.64,-62.77 39.43,-52.21 32.22,-59.97 38.64,-62.77"/>
<g id="a_edge7&#45;headlabel"><a xlink:href="dir_000009_000005.html" target="_top" xlink:title="1">
<text text-anchor="middle" x="39.8" y="-64.7" font-family="Helvetica,sans-Serif" font-size="10.00">1</text>
</a>
</g>
</g>
<!-- dir_ed68644c5c891dd73f5144e8c8bef534&#45;&gt;dir_9abb3c88ff8fa0627e3c7214f1ab5523 -->
<g id="edge8" class="edge">
<title>dir_ed68644c5c891dd73f5144e8c8bef534&#45;&gt;dir_9abb3c88ff8fa0627e3c7214f1ab5523</title>
<path fill="none" stroke="black" d="M120.87,-231.7C126.5,-223.47 133.35,-213.48 139.57,-204.42"/>
<polygon fill="black" stroke="black" points="142.5,-206.33 145.27,-196.1 136.73,-202.37 142.5,-206.33"/>
<g id="a_edge8&#45;headlabel"><a xlink:href="dir_000009_000006.html" target="_top" xlink:title="1">
<text text-anchor="middle" x="142.81" y="-208.4" font-family="Helvetica,sans-Serif" font-size="10.00">1</text>
</a>
</g>
</g>
<!-- dir_ed68644c5c891dd73f5144e8c8bef534&#45;&gt;dir_d71c2fe00ed3b147a8f961a1bf80b6a4 -->
<g id="edge9" class="edge">
<title>dir_ed68644c5c891dd73f5144e8c8bef534&#45;&gt;dir_d71c2fe00ed3b147a8f961a1bf80b6a4</title>
<path fill="none" stroke="black" d="M107.31,-231.87C104.93,-207.67 100.54,-163.21 97.7,-134.39"/>
<polygon fill="black" stroke="black" points="101.16,-133.8 96.69,-124.19 94.19,-134.48 101.16,-133.8"/>
<g id="a_edge9&#45;headlabel"><a xlink:href="dir_000009_000007.html" target="_top" xlink:title="3">
<text text-anchor="middle" x="104.34" y="-134.6" font-family="Helvetica,sans-Serif" font-size="10.00">3</text>
</a>
</g>
</g>
<!-- dir_ed68644c5c891dd73f5144e8c8bef534&#45;&gt;dir_09e761304027c904456130627fd4dcf5 -->
<g id="edge5" class="edge">
<title>dir_ed68644c5c891dd73f5144e8c8bef534&#45;&gt;dir_09e761304027c904456130627fd4dcf5</title>
<path fill="none" stroke="black" d="M144.87,-234.68C162.23,-225.98 181.88,-213.2 194,-196 222.39,-155.7 228.42,-96.69 229.32,-62.43"/>
<polygon fill="black" stroke="black" points="232.83,-62.27 229.46,-52.23 225.83,-62.18 232.83,-62.27"/>
<g id="a_edge5&#45;headlabel"><a xlink:href="dir_000009_000000.html" target="_top" xlink:title="24">
<text text-anchor="middle" x="235.62" y="-63.41" font-family="Helvetica,sans-Serif" font-size="10.00">24</text>
</a>
</g>
</g>
</g>
</svg>
