<?xml version="1.0" encoding="UTF-8" standalone="no"?>
<!DOCTYPE svg PUBLIC "-//W3C//DTD SVG 1.1//EN"
 "http://www.w3.org/Graphics/SVG/1.1/DTD/svg11.dtd">
<!-- Generated by graphviz version 2.44.0 ()
 -->
<!-- Title: src/Api Pages: 1 -->
<svg width="262pt" height="295pt"
 viewBox="0.00 0.00 262.38 295.00" xmlns="http://www.w3.org/2000/svg" xmlns:xlink="http://www.w3.org/1999/xlink">
<g id="graph0" class="graph" transform="scale(1 1) rotate(0) translate(4 291)">
<title>src/Api</title>
<g id="clust1" class="cluster">
<title>clusterdir_68267d1309a1af8e8297ef4c3efbcdba</title>
<g id="a_clust1"><a xlink:href="dir_68267d1309a1af8e8297ef4c3efbcdba.html" target="_top" xlink:title="src">
<polygon fill="#ddddee" stroke="black" points="8,-64 8,-279 231,-279 231,-64 8,-64"/>
<text text-anchor="middle" x="119.5" y="-267" font-family="Helvetica,sans-Serif" font-size="10.00">src</text>
</a>
</g>
</g>
<!-- dir_146efcb14c269303f155f454755144b3 -->
<g id="node1" class="node">
<title>dir_146efcb14c269303f155f454755144b3</title>
<g id="a_node1"><a xlink:href="dir_146efcb14c269303f155f454755144b3.html" target="_top" xlink:title="Structs">
<polygon fill="none" stroke="black" points="70,-108 16,-108 16,-72 70,-72 70,-108"/>
<text text-anchor="middle" x="43" y="-87.5" font-family="Helvetica,sans-Serif" font-size="10.00">Structs</text>
</a>
</g>
</g>
<!-- dir_09e761304027c904456130627fd4dcf5 -->
<g id="node6" class="node">
<title>dir_09e761304027c904456130627fd4dcf5</title>
<g id="a_node6"><a xlink:href="dir_09e761304027c904456130627fd4dcf5.html" target="_top" xlink:title="includes">
<polygon fill="none" stroke="red" points="220,-36 166,-36 166,0 220,0 220,-36"/>
<text text-anchor="middle" x="193" y="-15.5" font-family="Helvetica,sans-Serif" font-size="10.00">includes</text>
</a>
</g>
</g>
<!-- dir_146efcb14c269303f155f454755144b3&#45;&gt;dir_09e761304027c904456130627fd4dcf5 -->
<g id="edge2" class="edge">
<title>dir_146efcb14c269303f155f454755144b3&#45;&gt;dir_09e761304027c904456130627fd4dcf5</title>
<path fill="none" stroke="black" d="M66.82,-71.82C71.11,-69.04 75.61,-66.32 80,-64 104.55,-51.01 133.71,-39.49 156.25,-31.36"/>
<polygon fill="black" stroke="black" points="157.53,-34.62 165.79,-27.98 155.19,-28.02 157.53,-34.62"/>
<g id="a_edge2&#45;headlabel"><a xlink:href="dir_000009_000000.html" target="_top" xlink:title="2">
<text text-anchor="middle" x="155.09" y="-35.99" font-family="Helvetica,sans-Serif" font-size="10.00">2</text>
</a>
</g>
</g>
<!-- dir_9abb3c88ff8fa0627e3c7214f1ab5523 -->
<g id="node2" class="node">
<title>dir_9abb3c88ff8fa0627e3c7214f1ab5523</title>
<g id="a_node2"><a xlink:href="dir_9abb3c88ff8fa0627e3c7214f1ab5523.html" target="_top" xlink:title="Listeners">
<polygon fill="none" stroke="black" points="145.5,-108 88.5,-108 88.5,-72 145.5,-72 145.5,-108"/>
<text text-anchor="middle" x="117" y="-87.5" font-family="Helvetica,sans-Serif" font-size="10.00">Listeners</text>
</a>
</g>
</g>
<!-- dir_9abb3c88ff8fa0627e3c7214f1ab5523&#45;&gt;dir_09e761304027c904456130627fd4dcf5 -->
<g id="edge1" class="edge">
<title>dir_9abb3c88ff8fa0627e3c7214f1ab5523&#45;&gt;dir_09e761304027c904456130627fd4dcf5</title>
<path fill="none" stroke="black" d="M135.79,-71.7C145.17,-63.05 156.68,-52.45 166.91,-43.03"/>
<polygon fill="black" stroke="black" points="169.45,-45.45 174.43,-36.1 164.7,-40.3 169.45,-45.45"/>
<g id="a_edge1&#45;headlabel"><a xlink:href="dir_000006_000000.html" target="_top" xlink:title="7">
<text text-anchor="middle" x="168.72" y="-47.48" font-family="Helvetica,sans-Serif" font-size="10.00">7</text>
</a>
</g>
</g>
<!-- dir_d71c2fe00ed3b147a8f961a1bf80b6a4 -->
<g id="node3" class="node">
<title>dir_d71c2fe00ed3b147a8f961a1bf80b6a4</title>
<g id="a_node3"><a xlink:href="dir_d71c2fe00ed3b147a8f961a1bf80b6a4.html" target="_top" xlink:title="Managers">
<polygon fill="none" stroke="black" points="222.5,-108 163.5,-108 163.5,-72 222.5,-72 222.5,-108"/>
<text text-anchor="middle" x="193" y="-87.5" font-family="Helvetica,sans-Serif" font-size="10.00">Managers</text>
</a>
</g>
</g>
<!-- dir_d71c2fe00ed3b147a8f961a1bf80b6a4&#45;&gt;dir_09e761304027c904456130627fd4dcf5 -->
<g id="edge8" class="edge">
<title>dir_d71c2fe00ed3b147a8f961a1bf80b6a4&#45;&gt;dir_09e761304027c904456130627fd4dcf5</title>
<path fill="none" stroke="black" d="M193,-71.7C193,-63.98 193,-54.71 193,-46.11"/>
<polygon fill="black" stroke="black" points="196.5,-46.1 193,-36.1 189.5,-46.1 196.5,-46.1"/>
<g id="a_edge8&#45;headlabel"><a xlink:href="dir_000007_000000.html" target="_top" xlink:title="9">
<text text-anchor="middle" x="199.34" y="-47.2" font-family="Helvetica,sans-Serif" font-size="10.00">9</text>
</a>
</g>
</g>
<!-- dir_ed68644c5c891dd73f5144e8c8bef534 -->
<g id="node4" class="node">
<title>dir_ed68644c5c891dd73f5144e8c8bef534</title>
<g id="a_node4"><a xlink:href="dir_ed68644c5c891dd73f5144e8c8bef534.html" target="_top" xlink:title="Subsystems">
<polygon fill="none" stroke="black" points="187.5,-180 116.5,-180 116.5,-144 187.5,-144 187.5,-180"/>
<text text-anchor="middle" x="152" y="-159.5" font-family="Helvetica,sans-Serif" font-size="10.00">Subsystems</text>
</a>
</g>
</g>
<!-- dir_ed68644c5c891dd73f5144e8c8bef534&#45;&gt;dir_146efcb14c269303f155f454755144b3 -->
<g id="edge10" class="edge">
<title>dir_ed68644c5c891dd73f5144e8c8bef534&#45;&gt;dir_146efcb14c269303f155f454755144b3</title>
<path fill="none" stroke="black" d="M125.34,-143.88C111.22,-134.81 93.69,-123.55 78.44,-113.76"/>
<polygon fill="black" stroke="black" points="80.07,-110.65 69.77,-108.19 76.29,-116.54 80.07,-110.65"/>
<g id="a_edge10&#45;headlabel"><a xlink:href="dir_000010_000009.html" target="_top" xlink:title="1">
<text text-anchor="middle" x="84.63" y="-107.7" font-family="Helvetica,sans-Serif" font-size="10.00">1</text>
</a>
</g>
</g>
<!-- dir_ed68644c5c891dd73f5144e8c8bef534&#45;&gt;dir_9abb3c88ff8fa0627e3c7214f1ab5523 -->
<g id="edge11" class="edge">
<title>dir_ed68644c5c891dd73f5144e8c8bef534&#45;&gt;dir_9abb3c88ff8fa0627e3c7214f1ab5523</title>
<path fill="none" stroke="black" d="M143.35,-143.7C139.36,-135.73 134.55,-126.1 130.13,-117.26"/>
<polygon fill="black" stroke="black" points="133.15,-115.48 125.55,-108.1 126.89,-118.61 133.15,-115.48"/>
<g id="a_edge11&#45;headlabel"><a xlink:href="dir_000010_000006.html" target="_top" xlink:title="1">
<text text-anchor="middle" x="137.3" y="-114.93" font-family="Helvetica,sans-Serif" font-size="10.00">1</text>
</a>
</g>
</g>
<!-- dir_ed68644c5c891dd73f5144e8c8bef534&#45;&gt;dir_d71c2fe00ed3b147a8f961a1bf80b6a4 -->
<g id="edge12" class="edge">
<title>dir_ed68644c5c891dd73f5144e8c8bef534&#45;&gt;dir_d71c2fe00ed3b147a8f961a1bf80b6a4</title>
<path fill="none" stroke="black" d="M162.13,-143.7C166.85,-135.64 172.56,-125.89 177.78,-116.98"/>
<polygon fill="black" stroke="black" points="180.95,-118.5 182.98,-108.1 174.91,-114.96 180.95,-118.5"/>
<g id="a_edge12&#45;headlabel"><a xlink:href="dir_000010_000007.html" target="_top" xlink:title="3">
<text text-anchor="middle" x="181.58" y="-120.54" font-family="Helvetica,sans-Serif" font-size="10.00">3</text>
</a>
</g>
</g>
<!-- dir_ed68644c5c891dd73f5144e8c8bef534&#45;&gt;dir_09e761304027c904456130627fd4dcf5 -->
<g id="edge9" class="edge">
<title>dir_ed68644c5c891dd73f5144e8c8bef534&#45;&gt;dir_09e761304027c904456130627fd4dcf5</title>
<path fill="none" stroke="black" d="M187.74,-146.93C204.37,-138.36 222.54,-125.61 232,-108 241.25,-90.77 238.83,-82.32 232,-64 229.32,-56.81 224.91,-50 220,-43.96"/>
<polygon fill="black" stroke="black" points="222.39,-41.38 213.12,-36.24 217.16,-46.04 222.39,-41.38"/>
<g id="a_edge9&#45;headlabel"><a xlink:href="dir_000010_000000.html" target="_top" xlink:title="28">
<text text-anchor="middle" x="226.9" y="-39.67" font-family="Helvetica,sans-Serif" font-size="10.00">28</text>
</a>
</g>
</g>
<!-- dir_2871d450ca6bd61b793a39e709e205b0 -->
<g id="node5" class="node">
<title>dir_2871d450ca6bd61b793a39e709e205b0</title>
<g id="a_node5"><a xlink:href="dir_2871d450ca6bd61b793a39e709e205b0.html" target="_top" xlink:title="Api">
<polygon fill="#eeeeff" stroke="black" points="179,-252 125,-252 125,-216 179,-216 179,-252"/>
<text text-anchor="middle" x="152" y="-231.5" font-family="Helvetica,sans-Serif" font-size="10.00">Api</text>
</a>
</g>
</g>
<!-- dir_2871d450ca6bd61b793a39e709e205b0&#45;&gt;dir_146efcb14c269303f155f454755144b3 -->
<g id="edge4" class="edge">
<title>dir_2871d450ca6bd61b793a39e709e205b0&#45;&gt;dir_146efcb14c269303f155f454755144b3</title>
<path fill="none" stroke="black" d="M132.79,-215.79C122.23,-205.86 109.23,-192.82 99,-180 83.1,-160.07 67.88,-135.4 57.33,-117.09"/>
<polygon fill="black" stroke="black" points="60.24,-115.13 52.26,-108.15 54.15,-118.58 60.24,-115.13"/>
<g id="a_edge4&#45;headlabel"><a xlink:href="dir_000004_000009.html" target="_top" xlink:title="1">
<text text-anchor="middle" x="64.49" y="-114.35" font-family="Helvetica,sans-Serif" font-size="10.00">1</text>
</a>
</g>
</g>
<!-- dir_2871d450ca6bd61b793a39e709e205b0&#45;&gt;dir_9abb3c88ff8fa0627e3c7214f1ab5523 -->
<g id="edge5" class="edge">
<title>dir_2871d450ca6bd61b793a39e709e205b0&#45;&gt;dir_9abb3c88ff8fa0627e3c7214f1ab5523</title>
<path fill="none" stroke="black" d="M132.53,-215.92C123.18,-206.4 112.95,-193.72 108,-180 100.81,-160.1 103.83,-136.17 108.22,-118.14"/>
<polygon fill="black" stroke="black" points="111.65,-118.84 110.9,-108.28 104.9,-117.01 111.65,-118.84"/>
<g id="a_edge5&#45;headlabel"><a xlink:href="dir_000004_000006.html" target="_top" xlink:title="1">
<text text-anchor="middle" x="113.45" y="-120.56" font-family="Helvetica,sans-Serif" font-size="10.00">1</text>
</a>
</g>
</g>
<!-- dir_2871d450ca6bd61b793a39e709e205b0&#45;&gt;dir_d71c2fe00ed3b147a8f961a1bf80b6a4 -->
<g id="edge6" class="edge">
<title>dir_2871d450ca6bd61b793a39e709e205b0&#45;&gt;dir_d71c2fe00ed3b147a8f961a1bf80b6a4</title>
<path fill="none" stroke="black" d="M172.38,-215.53C181.81,-206.09 192.01,-193.6 197,-180 204.27,-160.22 202.66,-136.28 199.58,-118.22"/>
<polygon fill="black" stroke="black" points="203,-117.47 197.64,-108.33 196.13,-118.82 203,-117.47"/>
<g id="a_edge6&#45;headlabel"><a xlink:href="dir_000004_000007.html" target="_top" xlink:title="4">
<text text-anchor="middle" x="206.47" y="-117.96" font-family="Helvetica,sans-Serif" font-size="10.00">4</text>
</a>
</g>
</g>
<!-- dir_2871d450ca6bd61b793a39e709e205b0&#45;&gt;dir_ed68644c5c891dd73f5144e8c8bef534 -->
<g id="edge7" class="edge">
<title>dir_2871d450ca6bd61b793a39e709e205b0&#45;&gt;dir_ed68644c5c891dd73f5144e8c8bef534</title>
<path fill="none" stroke="black" d="M152,-215.7C152,-207.98 152,-198.71 152,-190.11"/>
<polygon fill="black" stroke="black" points="155.5,-190.1 152,-180.1 148.5,-190.1 155.5,-190.1"/>
<g id="a_edge7&#45;headlabel"><a xlink:href="dir_000004_000010.html" target="_top" xlink:title="1">
<text text-anchor="middle" x="158.34" y="-191.2" font-family="Helvetica,sans-Serif" font-size="10.00">1</text>
</a>
</g>
</g>
<!-- dir_2871d450ca6bd61b793a39e709e205b0&#45;&gt;dir_09e761304027c904456130627fd4dcf5 -->
<g id="edge3" class="edge">
<title>dir_2871d450ca6bd61b793a39e709e205b0&#45;&gt;dir_09e761304027c904456130627fd4dcf5</title>
<path fill="none" stroke="black" d="M172.7,-215.74C197.12,-193.76 236.05,-153.15 249,-108 254.39,-89.2 257.45,-81.63 249,-64 244.38,-54.37 236.59,-46.15 228.26,-39.47"/>
<polygon fill="black" stroke="black" points="230.33,-36.64 220.2,-33.54 226.18,-42.28 230.33,-36.64"/>
<g id="a_edge3&#45;headlabel"><a xlink:href="dir_000004_000000.html" target="_top" xlink:title="26">
<text text-anchor="middle" x="234.91" y="-33.98" font-family="Helvetica,sans-Serif" font-size="10.00">26</text>
</a>
</g>
</g>
</g>
</svg>
