<?xml version="1.0" encoding="UTF-8" standalone="no"?>
<!DOCTYPE svg PUBLIC "-//W3C//DTD SVG 1.1//EN"
 "http://www.w3.org/Graphics/SVG/1.1/DTD/svg11.dtd">
<!-- Generated by graphviz version 2.44.0 ()
 -->
<!-- Title: src/Subsystems Pages: 1 -->
<svg width="336pt" height="311pt"
 viewBox="0.00 0.00 336.00 311.00" xmlns="http://www.w3.org/2000/svg" xmlns:xlink="http://www.w3.org/1999/xlink">
<g id="graph0" class="graph" transform="scale(1 1) rotate(0) translate(4 307)">
<title>src/Subsystems</title>
<g id="clust1" class="cluster">
<title>clusterdir_68267d1309a1af8e8297ef4c3efbcdba</title>
<g id="a_clust1"><a xlink:href="dir_68267d1309a1af8e8297ef4c3efbcdba.html" target="_top" xlink:title="src">
<polygon fill="#ddddee" stroke="black" points="8,-8 8,-295 266,-295 266,-8 8,-8"/>
<text text-anchor="middle" x="137" y="-283" font-family="Helvetica,sans-Serif" font-size="10.00">src</text>
</a>
</g>
</g>
<!-- dir_146efcb14c269303f155f454755144b3 -->
<g id="node1" class="node">
<title>dir_146efcb14c269303f155f454755144b3</title>
<g id="a_node1"><a xlink:href="dir_146efcb14c269303f155f454755144b3.html" target="_top" xlink:title="Structs">
<polygon fill="none" stroke="black" points="182,-196 128,-196 128,-160 182,-160 182,-196"/>
<text text-anchor="middle" x="155" y="-175.5" font-family="Helvetica,sans-Serif" font-size="10.00">Structs</text>
</a>
</g>
</g>
<!-- dir_09e761304027c904456130627fd4dcf5 -->
<g id="node7" class="node">
<title>dir_09e761304027c904456130627fd4dcf5</title>
<g id="a_node7"><a xlink:href="dir_09e761304027c904456130627fd4dcf5.html" target="_top" xlink:title="includes">
<polygon fill="none" stroke="red" points="328,-52 274,-52 274,-16 328,-16 328,-52"/>
<text text-anchor="middle" x="301" y="-31.5" font-family="Helvetica,sans-Serif" font-size="10.00">includes</text>
</a>
</g>
</g>
<!-- dir_146efcb14c269303f155f454755144b3&#45;&gt;dir_09e761304027c904456130627fd4dcf5 -->
<g id="edge2" class="edge">
<title>dir_146efcb14c269303f155f454755144b3&#45;&gt;dir_09e761304027c904456130627fd4dcf5</title>
<path fill="none" stroke="black" d="M172.61,-159.87C198.37,-134.82 246.45,-88.05 275.91,-59.41"/>
<polygon fill="black" stroke="black" points="278.6,-61.67 283.33,-52.19 273.72,-56.65 278.6,-61.67"/>
<g id="a_edge2&#45;headlabel"><a xlink:href="dir_000009_000000.html" target="_top" xlink:title="2">
<text text-anchor="middle" x="278" y="-63.71" font-family="Helvetica,sans-Serif" font-size="10.00">2</text>
</a>
</g>
</g>
<!-- dir_36df885461d6bd14211edf06510d126c -->
<g id="node2" class="node">
<title>dir_36df885461d6bd14211edf06510d126c</title>
<g id="a_node2"><a xlink:href="dir_36df885461d6bd14211edf06510d126c.html" target="_top" xlink:title="Models">
<polygon fill="none" stroke="black" points="90,-196 36,-196 36,-160 90,-160 90,-196"/>
<text text-anchor="middle" x="63" y="-175.5" font-family="Helvetica,sans-Serif" font-size="10.00">Models</text>
</a>
</g>
</g>
<!-- dir_6bd92bd93c0d5d9980919215b46f20a3 -->
<g id="node3" class="node">
<title>dir_6bd92bd93c0d5d9980919215b46f20a3</title>
<g id="a_node3"><a xlink:href="dir_6bd92bd93c0d5d9980919215b46f20a3.html" target="_top" xlink:title="Exceptions">
<polygon fill="none" stroke="black" points="81,-52 17,-52 17,-16 81,-16 81,-52"/>
<text text-anchor="middle" x="49" y="-31.5" font-family="Helvetica,sans-Serif" font-size="10.00">Exceptions</text>
</a>
</g>
</g>
<!-- dir_36df885461d6bd14211edf06510d126c&#45;&gt;dir_6bd92bd93c0d5d9980919215b46f20a3 -->
<g id="edge13" class="edge">
<title>dir_36df885461d6bd14211edf06510d126c&#45;&gt;dir_6bd92bd93c0d5d9980919215b46f20a3</title>
<path fill="none" stroke="black" d="M61.31,-159.87C58.93,-135.67 54.54,-91.21 51.7,-62.39"/>
<polygon fill="black" stroke="black" points="55.16,-61.8 50.69,-52.19 48.19,-62.48 55.16,-61.8"/>
<g id="a_edge13&#45;headlabel"><a xlink:href="dir_000008_000005.html" target="_top" xlink:title="1">
<text text-anchor="middle" x="58.34" y="-62.6" font-family="Helvetica,sans-Serif" font-size="10.00">1</text>
</a>
</g>
</g>
<!-- dir_d71c2fe00ed3b147a8f961a1bf80b6a4 -->
<g id="node5" class="node">
<title>dir_d71c2fe00ed3b147a8f961a1bf80b6a4</title>
<g id="a_node5"><a xlink:href="dir_d71c2fe00ed3b147a8f961a1bf80b6a4.html" target="_top" xlink:title="Managers">
<polygon fill="none" stroke="black" points="127.5,-124 68.5,-124 68.5,-88 127.5,-88 127.5,-124"/>
<text text-anchor="middle" x="98" y="-103.5" font-family="Helvetica,sans-Serif" font-size="10.00">Managers</text>
</a>
</g>
</g>
<!-- dir_36df885461d6bd14211edf06510d126c&#45;&gt;dir_d71c2fe00ed3b147a8f961a1bf80b6a4 -->
<g id="edge14" class="edge">
<title>dir_36df885461d6bd14211edf06510d126c&#45;&gt;dir_d71c2fe00ed3b147a8f961a1bf80b6a4</title>
<path fill="none" stroke="black" d="M65.74,-159.7C68.93,-151.64 73.6,-141.89 78.46,-132.98"/>
<polygon fill="black" stroke="black" points="81.61,-134.52 83.55,-124.1 75.54,-131.04 81.61,-134.52"/>
<g id="a_edge14&#45;headlabel"><a xlink:href="dir_000008_000007.html" target="_top" xlink:title="2">
<text text-anchor="middle" x="82.29" y="-136.55" font-family="Helvetica,sans-Serif" font-size="10.00">2</text>
</a>
</g>
</g>
<!-- dir_36df885461d6bd14211edf06510d126c&#45;&gt;dir_09e761304027c904456130627fd4dcf5 -->
<g id="edge12" class="edge">
<title>dir_36df885461d6bd14211edf06510d126c&#45;&gt;dir_09e761304027c904456130627fd4dcf5</title>
<path fill="none" stroke="black" d="M89.87,-159.94C118.65,-141.78 165.75,-112.36 207,-88 225.96,-76.8 247.32,-64.72 264.88,-54.92"/>
<polygon fill="black" stroke="black" points="266.65,-57.94 273.69,-50.02 263.25,-51.82 266.65,-57.94"/>
<g id="a_edge12&#45;headlabel"><a xlink:href="dir_000008_000000.html" target="_top" xlink:title="4">
<text text-anchor="middle" x="264.89" y="-59.67" font-family="Helvetica,sans-Serif" font-size="10.00">4</text>
</a>
</g>
</g>
<!-- dir_9abb3c88ff8fa0627e3c7214f1ab5523 -->
<g id="node4" class="node">
<title>dir_9abb3c88ff8fa0627e3c7214f1ab5523</title>
<g id="a_node4"><a xlink:href="dir_9abb3c88ff8fa0627e3c7214f1ab5523.html" target="_top" xlink:title="Listeners">
<polygon fill="none" stroke="black" points="257.5,-196 200.5,-196 200.5,-160 257.5,-160 257.5,-196"/>
<text text-anchor="middle" x="229" y="-175.5" font-family="Helvetica,sans-Serif" font-size="10.00">Listeners</text>
</a>
</g>
</g>
<!-- dir_9abb3c88ff8fa0627e3c7214f1ab5523&#45;&gt;dir_09e761304027c904456130627fd4dcf5 -->
<g id="edge1" class="edge">
<title>dir_9abb3c88ff8fa0627e3c7214f1ab5523&#45;&gt;dir_09e761304027c904456130627fd4dcf5</title>
<path fill="none" stroke="black" d="M237.68,-159.87C250.12,-135.35 273.1,-90.03 287.69,-61.26"/>
<polygon fill="black" stroke="black" points="290.88,-62.69 292.28,-52.19 284.64,-59.53 290.88,-62.69"/>
<g id="a_edge1&#45;headlabel"><a xlink:href="dir_000006_000000.html" target="_top" xlink:title="7">
<text text-anchor="middle" x="291.79" y="-64.68" font-family="Helvetica,sans-Serif" font-size="10.00">7</text>
</a>
</g>
</g>
<!-- dir_d71c2fe00ed3b147a8f961a1bf80b6a4&#45;&gt;dir_36df885461d6bd14211edf06510d126c -->
<g id="edge4" class="edge">
<title>dir_d71c2fe00ed3b147a8f961a1bf80b6a4&#45;&gt;dir_36df885461d6bd14211edf06510d126c</title>
<path fill="none" stroke="black" d="M95.34,-124.1C92.17,-132.13 87.52,-141.87 82.66,-150.8"/>
<polygon fill="black" stroke="black" points="79.49,-149.28 77.57,-159.7 85.57,-152.75 79.49,-149.28"/>
<g id="a_edge4&#45;headlabel"><a xlink:href="dir_000007_000008.html" target="_top" xlink:title="4">
<text text-anchor="middle" x="78.82" y="-142.25" font-family="Helvetica,sans-Serif" font-size="10.00">4</text>
</a>
</g>
</g>
<!-- dir_d71c2fe00ed3b147a8f961a1bf80b6a4&#45;&gt;dir_6bd92bd93c0d5d9980919215b46f20a3 -->
<g id="edge5" class="edge">
<title>dir_d71c2fe00ed3b147a8f961a1bf80b6a4&#45;&gt;dir_6bd92bd93c0d5d9980919215b46f20a3</title>
<path fill="none" stroke="black" d="M85.89,-87.7C80.13,-79.47 73.14,-69.48 66.79,-60.42"/>
<polygon fill="black" stroke="black" points="69.58,-58.29 60.97,-52.1 63.84,-62.3 69.58,-58.29"/>
<g id="a_edge5&#45;headlabel"><a xlink:href="dir_000007_000005.html" target="_top" xlink:title="3">
<text text-anchor="middle" x="73.96" y="-57.11" font-family="Helvetica,sans-Serif" font-size="10.00">3</text>
</a>
</g>
</g>
<!-- dir_d71c2fe00ed3b147a8f961a1bf80b6a4&#45;&gt;dir_09e761304027c904456130627fd4dcf5 -->
<g id="edge3" class="edge">
<title>dir_d71c2fe00ed3b147a8f961a1bf80b6a4&#45;&gt;dir_09e761304027c904456130627fd4dcf5</title>
<path fill="none" stroke="black" d="M127.69,-95.38C135.28,-92.95 143.44,-90.36 151,-88 200.56,-72.56 217.07,-73.24 264.25,-54.26"/>
<polygon fill="black" stroke="black" points="265.86,-57.38 273.77,-50.33 263.19,-50.91 265.86,-57.38"/>
<g id="a_edge3&#45;headlabel"><a xlink:href="dir_000007_000000.html" target="_top" xlink:title="9">
<text text-anchor="middle" x="263.62" y="-58.88" font-family="Helvetica,sans-Serif" font-size="10.00">9</text>
</a>
</g>
</g>
<!-- dir_ed68644c5c891dd73f5144e8c8bef534 -->
<g id="node6" class="node">
<title>dir_ed68644c5c891dd73f5144e8c8bef534</title>
<g id="a_node6"><a xlink:href="dir_ed68644c5c891dd73f5144e8c8bef534.html" target="_top" xlink:title="Subsystems">
<polygon fill="#eeeeff" stroke="black" points="167.5,-268 96.5,-268 96.5,-232 167.5,-232 167.5,-268"/>
<text text-anchor="middle" x="132" y="-247.5" font-family="Helvetica,sans-Serif" font-size="10.00">Subsystems</text>
</a>
</g>
</g>
<!-- dir_ed68644c5c891dd73f5144e8c8bef534&#45;&gt;dir_146efcb14c269303f155f454755144b3 -->
<g id="edge7" class="edge">
<title>dir_ed68644c5c891dd73f5144e8c8bef534&#45;&gt;dir_146efcb14c269303f155f454755144b3</title>
<path fill="none" stroke="black" d="M137.69,-231.7C140.25,-223.9 143.33,-214.51 146.18,-205.83"/>
<polygon fill="black" stroke="black" points="149.58,-206.7 149.38,-196.1 142.93,-204.51 149.58,-206.7"/>
<g id="a_edge7&#45;headlabel"><a xlink:href="dir_000010_000009.html" target="_top" xlink:title="1">
<text text-anchor="middle" x="151.16" y="-208.5" font-family="Helvetica,sans-Serif" font-size="10.00">1</text>
</a>
</g>
</g>
<!-- dir_ed68644c5c891dd73f5144e8c8bef534&#45;&gt;dir_36df885461d6bd14211edf06510d126c -->
<g id="edge8" class="edge">
<title>dir_ed68644c5c891dd73f5144e8c8bef534&#45;&gt;dir_36df885461d6bd14211edf06510d126c</title>
<path fill="none" stroke="black" d="M114.94,-231.7C106.5,-223.14 96.18,-212.66 86.96,-203.3"/>
<polygon fill="black" stroke="black" points="89.37,-200.77 79.86,-196.1 84.39,-205.68 89.37,-200.77"/>
<g id="a_edge8&#45;headlabel"><a xlink:href="dir_000010_000008.html" target="_top" xlink:title="2">
<text text-anchor="middle" x="93.92" y="-198.84" font-family="Helvetica,sans-Serif" font-size="10.00">2</text>
</a>
</g>
</g>
<!-- dir_ed68644c5c891dd73f5144e8c8bef534&#45;&gt;dir_6bd92bd93c0d5d9980919215b46f20a3 -->
<g id="edge9" class="edge">
<title>dir_ed68644c5c891dd73f5144e8c8bef534&#45;&gt;dir_6bd92bd93c0d5d9980919215b46f20a3</title>
<path fill="none" stroke="black" d="M96.35,-241.29C72.2,-234.01 42.04,-220.43 27,-196 1.43,-154.45 20.44,-95.57 35.48,-61.73"/>
<polygon fill="black" stroke="black" points="38.73,-63.03 39.77,-52.48 32.38,-60.08 38.73,-63.03"/>
<g id="a_edge9&#45;headlabel"><a xlink:href="dir_000010_000005.html" target="_top" xlink:title="1">
<text text-anchor="middle" x="39.8" y="-64.98" font-family="Helvetica,sans-Serif" font-size="10.00">1</text>
</a>
</g>
</g>
<!-- dir_ed68644c5c891dd73f5144e8c8bef534&#45;&gt;dir_9abb3c88ff8fa0627e3c7214f1ab5523 -->
<g id="edge10" class="edge">
<title>dir_ed68644c5c891dd73f5144e8c8bef534&#45;&gt;dir_9abb3c88ff8fa0627e3c7214f1ab5523</title>
<path fill="none" stroke="black" d="M155.98,-231.7C168.31,-222.8 183.52,-211.82 196.85,-202.2"/>
<polygon fill="black" stroke="black" points="199.24,-204.79 205.3,-196.1 195.14,-199.12 199.24,-204.79"/>
<g id="a_edge10&#45;headlabel"><a xlink:href="dir_000010_000006.html" target="_top" xlink:title="1">
<text text-anchor="middle" x="197.98" y="-206.7" font-family="Helvetica,sans-Serif" font-size="10.00">1</text>
</a>
</g>
</g>
<!-- dir_ed68644c5c891dd73f5144e8c8bef534&#45;&gt;dir_d71c2fe00ed3b147a8f961a1bf80b6a4 -->
<g id="edge11" class="edge">
<title>dir_ed68644c5c891dd73f5144e8c8bef534&#45;&gt;dir_d71c2fe00ed3b147a8f961a1bf80b6a4</title>
<path fill="none" stroke="black" d="M127.75,-231.82C125.19,-221.45 121.88,-207.97 119,-196 114.02,-175.29 108.49,-151.85 104.36,-134.22"/>
<polygon fill="black" stroke="black" points="107.67,-133.01 101.98,-124.07 100.85,-134.61 107.67,-133.01"/>
<g id="a_edge11&#45;headlabel"><a xlink:href="dir_000010_000007.html" target="_top" xlink:title="3">
<text text-anchor="middle" x="111.25" y="-133.36" font-family="Helvetica,sans-Serif" font-size="10.00">3</text>
</a>
</g>
</g>
<!-- dir_ed68644c5c891dd73f5144e8c8bef534&#45;&gt;dir_09e761304027c904456130627fd4dcf5 -->
<g id="edge6" class="edge">
<title>dir_ed68644c5c891dd73f5144e8c8bef534&#45;&gt;dir_09e761304027c904456130627fd4dcf5</title>
<path fill="none" stroke="black" d="M167.59,-244.5C198.47,-238.68 242.03,-225.5 267,-196 298.98,-158.22 303.24,-97.84 302.66,-62.75"/>
<polygon fill="black" stroke="black" points="306.15,-62.19 302.33,-52.31 299.15,-62.41 306.15,-62.19"/>
<g id="a_edge6&#45;headlabel"><a xlink:href="dir_000010_000000.html" target="_top" xlink:title="28">
<text text-anchor="middle" x="309.1" y="-63.19" font-family="Helvetica,sans-Serif" font-size="10.00">28</text>
</a>
</g>
</g>
</g>
</svg>
