<?xml version="1.0" encoding="UTF-8" standalone="no"?>
<!DOCTYPE svg PUBLIC "-//W3C//DTD SVG 1.1//EN"
 "http://www.w3.org/Graphics/SVG/1.1/DTD/svg11.dtd">
<!-- Generated by graphviz version 2.44.0 ()
 -->
<!-- Title: src/Managers Pages: 1 -->
<svg width="110pt" height="223pt"
 viewBox="0.00 0.00 110.00 223.00" xmlns="http://www.w3.org/2000/svg" xmlns:xlink="http://www.w3.org/1999/xlink">
<g id="graph0" class="graph" transform="scale(1 1) rotate(0) translate(4 219)">
<title>src/Managers</title>
<g id="clust1" class="cluster">
<title>clusterdir_68267d1309a1af8e8297ef4c3efbcdba</title>
<g id="a_clust1"><a xlink:href="dir_68267d1309a1af8e8297ef4c3efbcdba.html" target="_top" xlink:title="src">
<polygon fill="#ddddee" stroke="black" points="8,-64 8,-207 84,-207 84,-64 8,-64"/>
<text text-anchor="middle" x="46" y="-195" font-family="Helvetica,sans-Serif" font-size="10.00">src</text>
</a>
</g>
</g>
<!-- dir_36df885461d6bd14211edf06510d126c -->
<g id="node1" class="node">
<title>dir_36df885461d6bd14211edf06510d126c</title>
<g id="a_node1"><a xlink:href="dir_36df885461d6bd14211edf06510d126c.html" target="_top" xlink:title="Models">
<polygon fill="none" stroke="black" points="73,-180 19,-180 19,-144 73,-144 73,-180"/>
<text text-anchor="middle" x="46" y="-159.5" font-family="Helvetica,sans-Serif" font-size="10.00">Models</text>
</a>
</g>
</g>
<!-- dir_d71c2fe00ed3b147a8f961a1bf80b6a4 -->
<g id="node2" class="node">
<title>dir_d71c2fe00ed3b147a8f961a1bf80b6a4</title>
<g id="a_node2"><a xlink:href="dir_d71c2fe00ed3b147a8f961a1bf80b6a4.html" target="_top" xlink:title="Managers">
<polygon fill="#eeeeff" stroke="black" points="75.5,-108 16.5,-108 16.5,-72 75.5,-72 75.5,-108"/>
<text text-anchor="middle" x="46" y="-87.5" font-family="Helvetica,sans-Serif" font-size="10.00">Managers</text>
</a>
</g>
</g>
<!-- dir_36df885461d6bd14211edf06510d126c&#45;&gt;dir_d71c2fe00ed3b147a8f961a1bf80b6a4 -->
<g id="edge4" class="edge">
<title>dir_36df885461d6bd14211edf06510d126c&#45;&gt;dir_d71c2fe00ed3b147a8f961a1bf80b6a4</title>
<path fill="none" stroke="black" d="M40.08,-143.7C39.29,-135.98 39.06,-126.71 39.4,-118.11"/>
<polygon fill="black" stroke="black" points="42.9,-118.32 40.1,-108.1 35.92,-117.84 42.9,-118.32"/>
<g id="a_edge4&#45;headlabel"><a xlink:href="dir_000007_000006.html" target="_top" xlink:title="2">
<text text-anchor="middle" x="45.48" y="-119.61" font-family="Helvetica,sans-Serif" font-size="10.00">2</text>
</a>
</g>
</g>
<!-- dir_09e761304027c904456130627fd4dcf5 -->
<g id="node3" class="node">
<title>dir_09e761304027c904456130627fd4dcf5</title>
<g id="a_node3"><a xlink:href="dir_09e761304027c904456130627fd4dcf5.html" target="_top" xlink:title="includes">
<polygon fill="none" stroke="red" points="102,-36 48,-36 48,0 102,0 102,-36"/>
<text text-anchor="middle" x="75" y="-15.5" font-family="Helvetica,sans-Serif" font-size="10.00">includes</text>
</a>
</g>
</g>
<!-- dir_36df885461d6bd14211edf06510d126c&#45;&gt;dir_09e761304027c904456130627fd4dcf5 -->
<g id="edge3" class="edge">
<title>dir_36df885461d6bd14211edf06510d126c&#45;&gt;dir_09e761304027c904456130627fd4dcf5</title>
<path fill="none" stroke="black" d="M62.89,-143.99C71.29,-134.31 80.58,-121.46 85,-108 91.61,-87.87 88.35,-63.96 83.85,-45.99"/>
<polygon fill="black" stroke="black" points="87.18,-44.87 81.13,-36.17 80.43,-46.74 87.18,-44.87"/>
<g id="a_edge3&#45;headlabel"><a xlink:href="dir_000007_000000.html" target="_top" xlink:title="4">
<text text-anchor="middle" x="90.87" y="-45.07" font-family="Helvetica,sans-Serif" font-size="10.00">4</text>
</a>
</g>
</g>
<!-- dir_d71c2fe00ed3b147a8f961a1bf80b6a4&#45;&gt;dir_36df885461d6bd14211edf06510d126c -->
<g id="edge2" class="edge">
<title>dir_d71c2fe00ed3b147a8f961a1bf80b6a4&#45;&gt;dir_36df885461d6bd14211edf06510d126c</title>
<path fill="none" stroke="black" d="M51.9,-108.1C52.7,-115.79 52.94,-125.05 52.6,-133.67"/>
<polygon fill="black" stroke="black" points="49.11,-133.48 51.92,-143.7 56.09,-133.96 49.11,-133.48"/>
<g id="a_edge2&#45;headlabel"><a xlink:href="dir_000006_000007.html" target="_top" xlink:title="4">
<text text-anchor="middle" x="46.52" y="-127.2" font-family="Helvetica,sans-Serif" font-size="10.00">4</text>
</a>
</g>
</g>
<!-- dir_d71c2fe00ed3b147a8f961a1bf80b6a4&#45;&gt;dir_09e761304027c904456130627fd4dcf5 -->
<g id="edge1" class="edge">
<title>dir_d71c2fe00ed3b147a8f961a1bf80b6a4&#45;&gt;dir_09e761304027c904456130627fd4dcf5</title>
<path fill="none" stroke="black" d="M53.17,-71.7C56.43,-63.81 60.37,-54.3 64,-45.55"/>
<polygon fill="black" stroke="black" points="67.32,-46.68 67.91,-36.1 60.85,-44 67.32,-46.68"/>
<g id="a_edge1&#45;headlabel"><a xlink:href="dir_000006_000000.html" target="_top" xlink:title="7">
<text text-anchor="middle" x="68.57" y="-48.59" font-family="Helvetica,sans-Serif" font-size="10.00">7</text>
</a>
</g>
</g>
</g>
</svg>
