<?xml version="1.0" encoding="UTF-8" standalone="no"?>
<!DOCTYPE svg PUBLIC "-//W3C//DTD SVG 1.1//EN"
 "http://www.w3.org/Graphics/SVG/1.1/DTD/svg11.dtd">
<!-- Generated by graphviz version 2.44.0 ()
 -->
<!-- Title: src Pages: 1 -->
<svg width="234pt" height="348pt"
 viewBox="0.00 0.00 234.33 348.00" xmlns="http://www.w3.org/2000/svg" xmlns:xlink="http://www.w3.org/1999/xlink">
<g id="graph0" class="graph" transform="scale(1 1) rotate(0) translate(4 344)">
<title>src</title>
<g id="clust1" class="cluster">
<title>clusterdir_68267d1309a1af8e8297ef4c3efbcdba</title>
<g id="a_clust1"><a xlink:href="dir_68267d1309a1af8e8297ef4c3efbcdba.html" target="_top">
<polygon fill="#eeeeff" stroke="black" points="8,-64 8,-332 179,-332 179,-64 8,-64"/>
</a>
</g>
</g>
<!-- dir_68267d1309a1af8e8297ef4c3efbcdba -->
<g id="node1" class="node">
<title>dir_68267d1309a1af8e8297ef4c3efbcdba</title>
<text text-anchor="middle" x="144" y="-303.5" font-family="Helvetica,sans-Serif" font-size="10.00">src</text>
</g>
<!-- dir_2871d450ca6bd61b793a39e709e205b0 -->
<g id="node2" class="node">
<title>dir_2871d450ca6bd61b793a39e709e205b0</title>
<g id="a_node2"><a xlink:href="dir_2871d450ca6bd61b793a39e709e205b0.html" target="_top" xlink:title="Api">
<polygon fill="white" stroke="black" points="99,-324 45,-324 45,-288 99,-288 99,-324"/>
<text text-anchor="middle" x="72" y="-303.5" font-family="Helvetica,sans-Serif" font-size="10.00">Api</text>
</a>
</g>
</g>
<!-- dir_9abb3c88ff8fa0627e3c7214f1ab5523 -->
<g id="node3" class="node">
<title>dir_9abb3c88ff8fa0627e3c7214f1ab5523</title>
<g id="a_node3"><a xlink:href="dir_9abb3c88ff8fa0627e3c7214f1ab5523.html" target="_top" xlink:title="Listeners">
<polygon fill="white" stroke="black" points="170.5,-180 113.5,-180 113.5,-144 170.5,-144 170.5,-180"/>
<text text-anchor="middle" x="142" y="-159.5" font-family="Helvetica,sans-Serif" font-size="10.00">Listeners</text>
</a>
</g>
</g>
<!-- dir_2871d450ca6bd61b793a39e709e205b0&#45;&gt;dir_9abb3c88ff8fa0627e3c7214f1ab5523 -->
<g id="edge5" class="edge">
<title>dir_2871d450ca6bd61b793a39e709e205b0&#45;&gt;dir_9abb3c88ff8fa0627e3c7214f1ab5523</title>
<path fill="none" stroke="black" d="M98.4,-287.96C110.36,-278.79 123.48,-266.4 131,-252 140.93,-232.96 143.36,-208.6 143.48,-190.18"/>
<polygon fill="black" stroke="black" points="146.98,-190.05 143.32,-180.11 139.98,-190.16 146.98,-190.05"/>
<g id="a_edge5&#45;headlabel"><a xlink:href="dir_000004_000005.html" target="_top" xlink:title="1">
<text text-anchor="middle" x="149.87" y="-191.1" font-family="Helvetica,sans-Serif" font-size="10.00">1</text>
</a>
</g>
</g>
<!-- dir_d71c2fe00ed3b147a8f961a1bf80b6a4 -->
<g id="node4" class="node">
<title>dir_d71c2fe00ed3b147a8f961a1bf80b6a4</title>
<g id="a_node4"><a xlink:href="dir_d71c2fe00ed3b147a8f961a1bf80b6a4.html" target="_top" xlink:title="Managers">
<polygon fill="white" stroke="black" points="95.5,-180 36.5,-180 36.5,-144 95.5,-144 95.5,-180"/>
<text text-anchor="middle" x="66" y="-159.5" font-family="Helvetica,sans-Serif" font-size="10.00">Managers</text>
</a>
</g>
</g>
<!-- dir_2871d450ca6bd61b793a39e709e205b0&#45;&gt;dir_d71c2fe00ed3b147a8f961a1bf80b6a4 -->
<g id="edge6" class="edge">
<title>dir_2871d450ca6bd61b793a39e709e205b0&#45;&gt;dir_d71c2fe00ed3b147a8f961a1bf80b6a4</title>
<path fill="none" stroke="black" d="M59.27,-287.85C52.71,-277.92 45.39,-264.88 42,-252 37.92,-236.53 38.62,-231.64 42,-216 43.96,-206.92 47.61,-197.52 51.49,-189.2"/>
<polygon fill="black" stroke="black" points="54.73,-190.53 56.05,-180.02 48.46,-187.42 54.73,-190.53"/>
<g id="a_edge6&#45;headlabel"><a xlink:href="dir_000004_000006.html" target="_top" xlink:title="4">
<text text-anchor="middle" x="55.67" y="-192.52" font-family="Helvetica,sans-Serif" font-size="10.00">4</text>
</a>
</g>
</g>
<!-- dir_ed68644c5c891dd73f5144e8c8bef534 -->
<g id="node6" class="node">
<title>dir_ed68644c5c891dd73f5144e8c8bef534</title>
<g id="a_node6"><a xlink:href="dir_ed68644c5c891dd73f5144e8c8bef534.html" target="_top" xlink:title="Subsystems">
<polygon fill="white" stroke="black" points="122.5,-252 51.5,-252 51.5,-216 122.5,-216 122.5,-252"/>
<text text-anchor="middle" x="87" y="-231.5" font-family="Helvetica,sans-Serif" font-size="10.00">Subsystems</text>
</a>
</g>
</g>
<!-- dir_2871d450ca6bd61b793a39e709e205b0&#45;&gt;dir_ed68644c5c891dd73f5144e8c8bef534 -->
<g id="edge7" class="edge">
<title>dir_2871d450ca6bd61b793a39e709e205b0&#45;&gt;dir_ed68644c5c891dd73f5144e8c8bef534</title>
<path fill="none" stroke="black" d="M75.71,-287.7C77.36,-279.98 79.35,-270.71 81.19,-262.11"/>
<polygon fill="black" stroke="black" points="84.66,-262.62 83.33,-252.1 77.82,-261.15 84.66,-262.62"/>
<g id="a_edge7&#45;headlabel"><a xlink:href="dir_000004_000008.html" target="_top" xlink:title="1">
<text text-anchor="middle" x="86.68" y="-264.23" font-family="Helvetica,sans-Serif" font-size="10.00">1</text>
</a>
</g>
</g>
<!-- dir_09e761304027c904456130627fd4dcf5 -->
<g id="node8" class="node">
<title>dir_09e761304027c904456130627fd4dcf5</title>
<g id="a_node8"><a xlink:href="dir_09e761304027c904456130627fd4dcf5.html" target="_top" xlink:title="includes">
<polygon fill="none" stroke="red" points="216,-36 162,-36 162,0 216,0 216,-36"/>
<text text-anchor="middle" x="189" y="-15.5" font-family="Helvetica,sans-Serif" font-size="10.00">includes</text>
</a>
</g>
</g>
<!-- dir_2871d450ca6bd61b793a39e709e205b0&#45;&gt;dir_09e761304027c904456130627fd4dcf5 -->
<g id="edge4" class="edge">
<title>dir_2871d450ca6bd61b793a39e709e205b0&#45;&gt;dir_09e761304027c904456130627fd4dcf5</title>
<path fill="none" stroke="black" d="M99.03,-288.32C130.36,-267.33 180.66,-228.14 204,-180 226.66,-133.27 232.66,-113.82 218,-64 216.03,-57.29 212.71,-50.64 209,-44.59"/>
<polygon fill="black" stroke="black" points="211.88,-42.59 203.41,-36.22 206.06,-46.48 211.88,-42.59"/>
<g id="a_edge4&#45;headlabel"><a xlink:href="dir_000004_000000.html" target="_top" xlink:title="25">
<text text-anchor="middle" x="216.24" y="-41.5" font-family="Helvetica,sans-Serif" font-size="10.00">25</text>
</a>
</g>
</g>
<!-- dir_a7363e98f9e0bdd87618633653859815 -->
<g id="node7" class="node">
<title>dir_a7363e98f9e0bdd87618633653859815</title>
<g id="a_node7"><a xlink:href="dir_a7363e98f9e0bdd87618633653859815.html" target="_top" xlink:title="Utils">
<polygon fill="white" stroke="black" points="142,-108 88,-108 88,-72 142,-72 142,-108"/>
<text text-anchor="middle" x="115" y="-87.5" font-family="Helvetica,sans-Serif" font-size="10.00">Utils</text>
</a>
</g>
</g>
<!-- dir_9abb3c88ff8fa0627e3c7214f1ab5523&#45;&gt;dir_a7363e98f9e0bdd87618633653859815 -->
<g id="edge3" class="edge">
<title>dir_9abb3c88ff8fa0627e3c7214f1ab5523&#45;&gt;dir_a7363e98f9e0bdd87618633653859815</title>
<path fill="none" stroke="black" d="M135.33,-143.7C132.29,-135.81 128.62,-126.3 125.24,-117.55"/>
<polygon fill="black" stroke="black" points="128.46,-116.17 121.6,-108.1 121.93,-118.69 128.46,-116.17"/>
<g id="a_edge3&#45;headlabel"><a xlink:href="dir_000005_000009.html" target="_top" xlink:title="2">
<text text-anchor="middle" x="132.4" y="-116.01" font-family="Helvetica,sans-Serif" font-size="10.00">2</text>
</a>
</g>
</g>
<!-- dir_9abb3c88ff8fa0627e3c7214f1ab5523&#45;&gt;dir_09e761304027c904456130627fd4dcf5 -->
<g id="edge2" class="edge">
<title>dir_9abb3c88ff8fa0627e3c7214f1ab5523&#45;&gt;dir_09e761304027c904456130627fd4dcf5</title>
<path fill="none" stroke="black" d="M160.29,-143.64C169.14,-134.05 178.91,-121.39 184,-108 191.5,-88.26 192.43,-64.28 191.65,-46.18"/>
<polygon fill="black" stroke="black" points="195.14,-45.79 191.02,-36.03 188.15,-46.23 195.14,-45.79"/>
<g id="a_edge2&#45;headlabel"><a xlink:href="dir_000005_000000.html" target="_top" xlink:title="7">
<text text-anchor="middle" x="198.19" y="-46.7" font-family="Helvetica,sans-Serif" font-size="10.00">7</text>
</a>
</g>
</g>
<!-- dir_36df885461d6bd14211edf06510d126c -->
<g id="node5" class="node">
<title>dir_36df885461d6bd14211edf06510d126c</title>
<g id="a_node5"><a xlink:href="dir_36df885461d6bd14211edf06510d126c.html" target="_top" xlink:title="Models">
<polygon fill="white" stroke="black" points="70,-108 16,-108 16,-72 70,-72 70,-108"/>
<text text-anchor="middle" x="43" y="-87.5" font-family="Helvetica,sans-Serif" font-size="10.00">Models</text>
</a>
</g>
</g>
<!-- dir_d71c2fe00ed3b147a8f961a1bf80b6a4&#45;&gt;dir_36df885461d6bd14211edf06510d126c -->
<g id="edge9" class="edge">
<title>dir_d71c2fe00ed3b147a8f961a1bf80b6a4&#45;&gt;dir_36df885461d6bd14211edf06510d126c</title>
<path fill="none" stroke="black" d="M54.4,-143.7C51.03,-135.9 47.72,-126.51 45.23,-117.83"/>
<polygon fill="black" stroke="black" points="48.61,-116.91 42.72,-108.1 41.83,-118.66 48.61,-116.91"/>
<g id="a_edge9&#45;headlabel"><a xlink:href="dir_000006_000007.html" target="_top" xlink:title="4">
<text text-anchor="middle" x="52.26" y="-117.19" font-family="Helvetica,sans-Serif" font-size="10.00">4</text>
</a>
</g>
</g>
<!-- dir_d71c2fe00ed3b147a8f961a1bf80b6a4&#45;&gt;dir_09e761304027c904456130627fd4dcf5 -->
<g id="edge8" class="edge">
<title>dir_d71c2fe00ed3b147a8f961a1bf80b6a4&#45;&gt;dir_09e761304027c904456130627fd4dcf5</title>
<path fill="none" stroke="black" d="M95.59,-148.22C113.6,-139.18 135.95,-125.56 151,-108 166.4,-90.02 176.36,-64.87 182.2,-45.89"/>
<polygon fill="black" stroke="black" points="185.63,-46.64 185.03,-36.07 178.9,-44.71 185.63,-46.64"/>
<g id="a_edge8&#45;headlabel"><a xlink:href="dir_000006_000000.html" target="_top" xlink:title="7">
<text text-anchor="middle" x="187.36" y="-48.38" font-family="Helvetica,sans-Serif" font-size="10.00">7</text>
</a>
</g>
</g>
<!-- dir_36df885461d6bd14211edf06510d126c&#45;&gt;dir_d71c2fe00ed3b147a8f961a1bf80b6a4 -->
<g id="edge15" class="edge">
<title>dir_36df885461d6bd14211edf06510d126c&#45;&gt;dir_d71c2fe00ed3b147a8f961a1bf80b6a4</title>
<path fill="none" stroke="black" d="M54.52,-108.1C57.88,-115.88 61.2,-125.26 63.7,-133.95"/>
<polygon fill="black" stroke="black" points="60.33,-134.89 66.23,-143.7 67.11,-133.14 60.33,-134.89"/>
<g id="a_edge15&#45;headlabel"><a xlink:href="dir_000007_000006.html" target="_top" xlink:title="2">
<text text-anchor="middle" x="56.68" y="-129.63" font-family="Helvetica,sans-Serif" font-size="10.00">2</text>
</a>
</g>
</g>
<!-- dir_36df885461d6bd14211edf06510d126c&#45;&gt;dir_09e761304027c904456130627fd4dcf5 -->
<g id="edge14" class="edge">
<title>dir_36df885461d6bd14211edf06510d126c&#45;&gt;dir_09e761304027c904456130627fd4dcf5</title>
<path fill="none" stroke="black" d="M66.15,-71.83C70.33,-69.05 74.72,-66.32 79,-64 102.43,-51.27 130.23,-39.93 152.02,-31.82"/>
<polygon fill="black" stroke="black" points="153.38,-35.04 161.57,-28.32 150.98,-28.47 153.38,-35.04"/>
<g id="a_edge14&#45;headlabel"><a xlink:href="dir_000007_000000.html" target="_top" xlink:title="4">
<text text-anchor="middle" x="150.98" y="-36.44" font-family="Helvetica,sans-Serif" font-size="10.00">4</text>
</a>
</g>
</g>
<!-- dir_ed68644c5c891dd73f5144e8c8bef534&#45;&gt;dir_9abb3c88ff8fa0627e3c7214f1ab5523 -->
<g id="edge12" class="edge">
<title>dir_ed68644c5c891dd73f5144e8c8bef534&#45;&gt;dir_9abb3c88ff8fa0627e3c7214f1ab5523</title>
<path fill="none" stroke="black" d="M100.6,-215.7C107.12,-207.39 115.07,-197.28 122.25,-188.14"/>
<polygon fill="black" stroke="black" points="125.13,-190.13 128.56,-180.1 119.63,-185.81 125.13,-190.13"/>
<g id="a_edge12&#45;headlabel"><a xlink:href="dir_000008_000005.html" target="_top" xlink:title="1">
<text text-anchor="middle" x="125.15" y="-192.21" font-family="Helvetica,sans-Serif" font-size="10.00">1</text>
</a>
</g>
</g>
<!-- dir_ed68644c5c891dd73f5144e8c8bef534&#45;&gt;dir_d71c2fe00ed3b147a8f961a1bf80b6a4 -->
<g id="edge13" class="edge">
<title>dir_ed68644c5c891dd73f5144e8c8bef534&#45;&gt;dir_d71c2fe00ed3b147a8f961a1bf80b6a4</title>
<path fill="none" stroke="black" d="M81.81,-215.7C79.47,-207.9 76.65,-198.51 74.05,-189.83"/>
<polygon fill="black" stroke="black" points="77.36,-188.68 71.13,-180.1 70.65,-190.69 77.36,-188.68"/>
<g id="a_edge13&#45;headlabel"><a xlink:href="dir_000008_000006.html" target="_top" xlink:title="3">
<text text-anchor="middle" x="81.11" y="-188.8" font-family="Helvetica,sans-Serif" font-size="10.00">3</text>
</a>
</g>
</g>
<!-- dir_ed68644c5c891dd73f5144e8c8bef534&#45;&gt;dir_36df885461d6bd14211edf06510d126c -->
<g id="edge11" class="edge">
<title>dir_ed68644c5c891dd73f5144e8c8bef534&#45;&gt;dir_36df885461d6bd14211edf06510d126c</title>
<path fill="none" stroke="black" d="M58.74,-215.97C46.57,-206.96 33.63,-194.7 27,-180 18.07,-160.2 23.47,-135.8 30.31,-117.56"/>
<polygon fill="black" stroke="black" points="33.63,-118.71 34.19,-108.13 27.15,-116.05 33.63,-118.71"/>
<g id="a_edge11&#45;headlabel"><a xlink:href="dir_000008_000007.html" target="_top" xlink:title="2">
<text text-anchor="middle" x="34.89" y="-120.61" font-family="Helvetica,sans-Serif" font-size="10.00">2</text>
</a>
</g>
</g>
<!-- dir_ed68644c5c891dd73f5144e8c8bef534&#45;&gt;dir_09e761304027c904456130627fd4dcf5 -->
<g id="edge10" class="edge">
<title>dir_ed68644c5c891dd73f5144e8c8bef534&#45;&gt;dir_09e761304027c904456130627fd4dcf5</title>
<path fill="none" stroke="black" d="M122.8,-219.87C141.91,-211.2 164.42,-198.08 179,-180 211.99,-139.09 209.37,-116.04 202,-64 201.17,-58.16 199.77,-52.02 198.19,-46.22"/>
<polygon fill="black" stroke="black" points="201.44,-44.86 195.23,-36.27 194.73,-46.86 201.44,-44.86"/>
<g id="a_edge10&#45;headlabel"><a xlink:href="dir_000008_000000.html" target="_top" xlink:title="24">
<text text-anchor="middle" x="205.18" y="-44.99" font-family="Helvetica,sans-Serif" font-size="10.00">24</text>
</a>
</g>
</g>
<!-- dir_a7363e98f9e0bdd87618633653859815&#45;&gt;dir_09e761304027c904456130627fd4dcf5 -->
<g id="edge1" class="edge">
<title>dir_a7363e98f9e0bdd87618633653859815&#45;&gt;dir_09e761304027c904456130627fd4dcf5</title>
<path fill="none" stroke="black" d="M133.29,-71.7C142.43,-63.05 153.64,-52.45 163.6,-43.03"/>
<polygon fill="black" stroke="black" points="166.06,-45.52 170.92,-36.1 161.25,-40.43 166.06,-45.52"/>
<g id="a_edge1&#45;headlabel"><a xlink:href="dir_000009_000000.html" target="_top" xlink:title="2">
<text text-anchor="middle" x="165.4" y="-47.55" font-family="Helvetica,sans-Serif" font-size="10.00">2</text>
</a>
</g>
</g>
</g>
</svg>
