<?xml version="1.0" encoding="UTF-8" standalone="no"?>
<!DOCTYPE svg PUBLIC "-//W3C//DTD SVG 1.1//EN"
 "http://www.w3.org/Graphics/SVG/1.1/DTD/svg11.dtd">
<!-- Generated by graphviz version 2.44.0 ()
 -->
<!-- Title: src/Exceptions/EngineException.hpp Pages: 1 -->
<svg width="1656pt" height="140pt"
 viewBox="0.00 0.00 1655.50 140.00" xmlns="http://www.w3.org/2000/svg" xmlns:xlink="http://www.w3.org/1999/xlink">
<g id="graph0" class="graph" transform="scale(1 1) rotate(0) translate(4 136)">
<title>src/Exceptions/EngineException.hpp</title>
<!-- Node1 -->
<g id="node1" class="node">
<title>Node1</title>
<g id="a_node1"><a xlink:title=" ">
<polygon fill="#bfbfbf" stroke="black" points="472,-112.5 472,-131.5 645,-131.5 645,-112.5 472,-112.5"/>
<text text-anchor="middle" x="558.5" y="-119.5" font-family="Helvetica,sans-Serif" font-size="10.00">src/Exceptions/EngineException.hpp</text>
</a>
</g>
</g>
<!-- Node2 -->
<g id="node2" class="node">
<title>Node2</title>
<g id="a_node2"><a xlink:href="EngineException_8cpp.html" target="_top" xlink:title=" ">
<polygon fill="none" stroke="black" points="10,-56.5 10,-75.5 183,-75.5 183,-56.5 10,-56.5"/>
<text text-anchor="middle" x="96.5" y="-63.5" font-family="Helvetica,sans-Serif" font-size="10.00">src/Exceptions/EngineException.cpp</text>
</a>
</g>
</g>
<!-- Node1&#45;&gt;Node2 -->
<g id="edge1" class="edge">
<title>Node1&#45;&gt;Node2</title>
<path fill="none" stroke="midnightblue" d="M475.43,-111.29C388.27,-101.1 252.61,-85.25 169.45,-75.53"/>
<polygon fill="midnightblue" stroke="midnightblue" points="475.21,-114.79 485.55,-112.47 476.02,-107.84 475.21,-114.79"/>
</g>
<!-- Node3 -->
<g id="node3" class="node">
<title>Node3</title>
<g id="a_node3"><a xlink:href="SDLException_8hpp.html" target="_top" xlink:title=" ">
<polygon fill="none" stroke="black" points="201,-56.5 201,-75.5 364,-75.5 364,-56.5 201,-56.5"/>
<text text-anchor="middle" x="282.5" y="-63.5" font-family="Helvetica,sans-Serif" font-size="10.00">src/Exceptions/SDLException.hpp</text>
</a>
</g>
</g>
<!-- Node1&#45;&gt;Node3 -->
<g id="edge2" class="edge">
<title>Node1&#45;&gt;Node3</title>
<path fill="none" stroke="midnightblue" d="M504.7,-110.47C452.54,-100.27 374.39,-84.98 326.03,-75.52"/>
<polygon fill="midnightblue" stroke="midnightblue" points="504.28,-113.96 514.77,-112.44 505.63,-107.09 504.28,-113.96"/>
</g>
<!-- Node6 -->
<g id="node6" class="node">
<title>Node6</title>
<g id="a_node6"><a xlink:href="SDLImageException_8hpp.html" target="_top" xlink:title=" ">
<polygon fill="none" stroke="black" points="463.5,-56.5 463.5,-75.5 653.5,-75.5 653.5,-56.5 463.5,-56.5"/>
<text text-anchor="middle" x="558.5" y="-63.5" font-family="Helvetica,sans-Serif" font-size="10.00">src/Exceptions/SDLImageException.hpp</text>
</a>
</g>
</g>
<!-- Node1&#45;&gt;Node6 -->
<g id="edge5" class="edge">
<title>Node1&#45;&gt;Node6</title>
<path fill="none" stroke="midnightblue" d="M558.5,-101.8C558.5,-92.91 558.5,-82.78 558.5,-75.75"/>
<polygon fill="midnightblue" stroke="midnightblue" points="555,-102.08 558.5,-112.08 562,-102.08 555,-102.08"/>
</g>
<!-- Node9 -->
<g id="node9" class="node">
<title>Node9</title>
<g id="a_node9"><a xlink:href="SDLMixerException_8hpp.html" target="_top" xlink:title=" ">
<polygon fill="none" stroke="black" points="807.5,-56.5 807.5,-75.5 993.5,-75.5 993.5,-56.5 807.5,-56.5"/>
<text text-anchor="middle" x="900.5" y="-63.5" font-family="Helvetica,sans-Serif" font-size="10.00">src/Exceptions/SDLMixerException.hpp</text>
</a>
</g>
</g>
<!-- Node1&#45;&gt;Node9 -->
<g id="edge8" class="edge">
<title>Node1&#45;&gt;Node9</title>
<path fill="none" stroke="midnightblue" d="M622.76,-110.85C687.38,-100.65 785.88,-85.1 846.56,-75.52"/>
<polygon fill="midnightblue" stroke="midnightblue" points="622.02,-107.43 612.69,-112.44 623.11,-114.34 622.02,-107.43"/>
</g>
<!-- Node13 -->
<g id="node13" class="node">
<title>Node13</title>
<g id="a_node13"><a xlink:href="SDLTTFException_8hpp.html" target="_top" xlink:title=" ">
<polygon fill="none" stroke="black" points="1294,-56.5 1294,-75.5 1475,-75.5 1475,-56.5 1294,-56.5"/>
<text text-anchor="middle" x="1384.5" y="-63.5" font-family="Helvetica,sans-Serif" font-size="10.00">src/Exceptions/SDLTTFException.hpp</text>
</a>
</g>
</g>
<!-- Node1&#45;&gt;Node13 -->
<g id="edge12" class="edge">
<title>Node1&#45;&gt;Node13</title>
<path fill="none" stroke="midnightblue" d="M655.72,-114.64C816.87,-104.11 1137.1,-83.17 1293.83,-72.93"/>
<polygon fill="midnightblue" stroke="midnightblue" points="655.09,-111.18 645.34,-115.32 655.54,-118.16 655.09,-111.18"/>
</g>
<!-- Node4 -->
<g id="node4" class="node">
<title>Node4</title>
<g id="a_node4"><a xlink:href="SDLException_8cpp.html" target="_top" xlink:title=" ">
<polygon fill="none" stroke="black" points="0,-0.5 0,-19.5 163,-19.5 163,-0.5 0,-0.5"/>
<text text-anchor="middle" x="81.5" y="-7.5" font-family="Helvetica,sans-Serif" font-size="10.00">src/Exceptions/SDLException.cpp</text>
</a>
</g>
</g>
<!-- Node3&#45;&gt;Node4 -->
<g id="edge3" class="edge">
<title>Node3&#45;&gt;Node4</title>
<path fill="none" stroke="midnightblue" d="M240.92,-53.83C202.97,-43.63 147.69,-28.78 113.2,-19.52"/>
<polygon fill="midnightblue" stroke="midnightblue" points="240.09,-57.23 250.65,-56.44 241.9,-50.47 240.09,-57.23"/>
</g>
<!-- Node5 -->
<g id="node5" class="node">
<title>Node5</title>
<g id="a_node5"><a xlink:href="Window_8cpp.html" target="_top" xlink:title=" ">
<polygon fill="none" stroke="black" points="181.5,-0.5 181.5,-19.5 301.5,-19.5 301.5,-0.5 181.5,-0.5"/>
<text text-anchor="middle" x="241.5" y="-7.5" font-family="Helvetica,sans-Serif" font-size="10.00">src/Models/Window.cpp</text>
</a>
</g>
</g>
<!-- Node3&#45;&gt;Node5 -->
<g id="edge4" class="edge">
<title>Node3&#45;&gt;Node5</title>
<path fill="none" stroke="midnightblue" d="M269.48,-47.86C262.38,-38.5 253.9,-27.33 248.14,-19.75"/>
<polygon fill="midnightblue" stroke="midnightblue" points="266.89,-50.24 275.73,-56.08 272.47,-46 266.89,-50.24"/>
</g>
<!-- Node7 -->
<g id="node7" class="node">
<title>Node7</title>
<g id="a_node7"><a xlink:href="SDLImageException_8cpp.html" target="_top" xlink:title=" ">
<polygon fill="none" stroke="black" points="319.5,-0.5 319.5,-19.5 509.5,-19.5 509.5,-0.5 319.5,-0.5"/>
<text text-anchor="middle" x="414.5" y="-7.5" font-family="Helvetica,sans-Serif" font-size="10.00">src/Exceptions/SDLImageException.cpp</text>
</a>
</g>
</g>
<!-- Node6&#45;&gt;Node7 -->
<g id="edge6" class="edge">
<title>Node6&#45;&gt;Node7</title>
<path fill="none" stroke="midnightblue" d="M526.25,-52.91C499.18,-42.75 461.18,-28.51 437.21,-19.52"/>
<polygon fill="midnightblue" stroke="midnightblue" points="525.09,-56.21 535.68,-56.44 527.55,-49.66 525.09,-56.21"/>
</g>
<!-- Node8 -->
<g id="node8" class="node">
<title>Node8</title>
<g id="a_node8"><a xlink:href="TextureManager_8cpp.html" target="_top" xlink:title=" ">
<polygon fill="none" stroke="black" points="528,-0.5 528,-19.5 695,-19.5 695,-0.5 528,-0.5"/>
<text text-anchor="middle" x="611.5" y="-7.5" font-family="Helvetica,sans-Serif" font-size="10.00">src/Managers/TextureManager.cpp</text>
</a>
</g>
</g>
<!-- Node6&#45;&gt;Node8 -->
<g id="edge7" class="edge">
<title>Node6&#45;&gt;Node8</title>
<path fill="none" stroke="midnightblue" d="M574.48,-48.72C583.82,-39.2 595.25,-27.56 602.91,-19.75"/>
<polygon fill="midnightblue" stroke="midnightblue" points="571.76,-46.49 567.25,-56.08 576.75,-51.4 571.76,-46.49"/>
</g>
<!-- Node10 -->
<g id="node10" class="node">
<title>Node10</title>
<g id="a_node10"><a xlink:href="SDLMixerException_8cpp.html" target="_top" xlink:title=" ">
<polygon fill="none" stroke="black" points="712.5,-0.5 712.5,-19.5 898.5,-19.5 898.5,-0.5 712.5,-0.5"/>
<text text-anchor="middle" x="805.5" y="-7.5" font-family="Helvetica,sans-Serif" font-size="10.00">src/Exceptions/SDLMixerException.cpp</text>
</a>
</g>
</g>
<!-- Node9&#45;&gt;Node10 -->
<g id="edge9" class="edge">
<title>Node9&#45;&gt;Node10</title>
<path fill="none" stroke="midnightblue" d="M876.18,-51.18C858.7,-41.24 835.67,-28.15 820.73,-19.65"/>
<polygon fill="midnightblue" stroke="midnightblue" points="874.81,-54.43 885.24,-56.32 878.27,-48.34 874.81,-54.43"/>
</g>
<!-- Node11 -->
<g id="node11" class="node">
<title>Node11</title>
<g id="a_node11"><a xlink:href="AudioManager_8cpp.html" target="_top" xlink:title=" ">
<polygon fill="none" stroke="black" points="916,-0.5 916,-19.5 1075,-19.5 1075,-0.5 916,-0.5"/>
<text text-anchor="middle" x="995.5" y="-7.5" font-family="Helvetica,sans-Serif" font-size="10.00">src/Managers/AudioManager.cpp</text>
</a>
</g>
</g>
<!-- Node9&#45;&gt;Node11 -->
<g id="edge10" class="edge">
<title>Node9&#45;&gt;Node11</title>
<path fill="none" stroke="midnightblue" d="M924.82,-51.18C942.3,-41.24 965.33,-28.15 980.27,-19.65"/>
<polygon fill="midnightblue" stroke="midnightblue" points="922.73,-48.34 915.76,-56.32 926.19,-54.43 922.73,-48.34"/>
</g>
<!-- Node12 -->
<g id="node12" class="node">
<title>Node12</title>
<g id="a_node12"><a xlink:href="AudioSubsystem_8cpp.html" target="_top" xlink:title=" ">
<polygon fill="none" stroke="black" points="1093.5,-0.5 1093.5,-19.5 1275.5,-19.5 1275.5,-0.5 1093.5,-0.5"/>
<text text-anchor="middle" x="1184.5" y="-7.5" font-family="Helvetica,sans-Serif" font-size="10.00">src/Subsystems/AudioSubsystem.cpp</text>
</a>
</g>
</g>
<!-- Node9&#45;&gt;Node12 -->
<g id="edge11" class="edge">
<title>Node9&#45;&gt;Node12</title>
<path fill="none" stroke="midnightblue" d="M955.53,-54.54C1009.2,-44.33 1089.84,-29 1139.71,-19.52"/>
<polygon fill="midnightblue" stroke="midnightblue" points="954.67,-51.14 945.5,-56.44 955.98,-58.01 954.67,-51.14"/>
</g>
<!-- Node14 -->
<g id="node14" class="node">
<title>Node14</title>
<g id="a_node14"><a xlink:href="SDLTTFException_8cpp.html" target="_top" xlink:title=" ">
<polygon fill="none" stroke="black" points="1294,-0.5 1294,-19.5 1475,-19.5 1475,-0.5 1294,-0.5"/>
<text text-anchor="middle" x="1384.5" y="-7.5" font-family="Helvetica,sans-Serif" font-size="10.00">src/Exceptions/SDLTTFException.cpp</text>
</a>
</g>
</g>
<!-- Node13&#45;&gt;Node14 -->
<g id="edge13" class="edge">
<title>Node13&#45;&gt;Node14</title>
<path fill="none" stroke="midnightblue" d="M1384.5,-45.8C1384.5,-36.91 1384.5,-26.78 1384.5,-19.75"/>
<polygon fill="midnightblue" stroke="midnightblue" points="1381,-46.08 1384.5,-56.08 1388,-46.08 1381,-46.08"/>
</g>
<!-- Node15 -->
<g id="node15" class="node">
<title>Node15</title>
<g id="a_node15"><a xlink:href="FontManager_8cpp.html" target="_top" xlink:title=" ">
<polygon fill="none" stroke="black" points="1493.5,-0.5 1493.5,-19.5 1647.5,-19.5 1647.5,-0.5 1493.5,-0.5"/>
<text text-anchor="middle" x="1570.5" y="-7.5" font-family="Helvetica,sans-Serif" font-size="10.00">src/Managers/FontManager.cpp</text>
</a>
</g>
</g>
<!-- Node13&#45;&gt;Node15 -->
<g id="edge14" class="edge">
<title>Node13&#45;&gt;Node15</title>
<path fill="none" stroke="midnightblue" d="M1423.88,-53.57C1458.97,-43.38 1509.52,-28.7 1541.17,-19.52"/>
<polygon fill="midnightblue" stroke="midnightblue" points="1422.6,-50.29 1413.97,-56.44 1424.55,-57.02 1422.6,-50.29"/>
</g>
</g>
</svg>
