<?xml version="1.0" encoding="UTF-8" standalone="no"?>
<!DOCTYPE svg PUBLIC "-//W3C//DTD SVG 1.1//EN"
 "http://www.w3.org/Graphics/SVG/1.1/DTD/svg11.dtd">
<!-- Generated by graphviz version 2.44.0 ()
 -->
<!-- Title: includes/spic&#45;api&#45;headers/Engine.hpp Pages: 1 -->
<svg width="1156pt" height="106pt"
 viewBox="0.00 0.00 1155.50 106.00" xmlns="http://www.w3.org/2000/svg" xmlns:xlink="http://www.w3.org/1999/xlink">
<g id="graph0" class="graph" transform="scale(1 1) rotate(0) translate(4 102)">
<title>includes/spic&#45;api&#45;headers/Engine.hpp</title>
<!-- Node1 -->
<g id="node1" class="node">
<title>Node1</title>
<g id="a_node1"><a xlink:title=" ">
<polygon fill="#bfbfbf" stroke="black" points="464.5,-67.5 464.5,-97.5 591.5,-97.5 591.5,-67.5 464.5,-67.5"/>
<text text-anchor="start" x="472.5" y="-85.5" font-family="Helvetica,sans-Serif" font-size="10.00">includes/spic&#45;api&#45;headers</text>
<text text-anchor="middle" x="528" y="-74.5" font-family="Helvetica,sans-Serif" font-size="10.00">/Engine.hpp</text>
</a>
</g>
</g>
<!-- Node2 -->
<g id="node2" class="node">
<title>Node2</title>
<g id="a_node2"><a xlink:href="Engine_8cpp.html" target="_top" xlink:title=" ">
<polygon fill="none" stroke="black" points="0,-6 0,-25 98,-25 98,-6 0,-6"/>
<text text-anchor="middle" x="49" y="-13" font-family="Helvetica,sans-Serif" font-size="10.00">src/Api/Engine.cpp</text>
</a>
</g>
</g>
<!-- Node1&#45;&gt;Node2 -->
<g id="edge1" class="edge">
<title>Node1&#45;&gt;Node2</title>
<path fill="none" stroke="midnightblue" d="M454.15,-75.47C369.75,-67.93 227.7,-53.24 107,-31 98.22,-29.38 88.8,-27.22 80.15,-25.05"/>
<polygon fill="midnightblue" stroke="midnightblue" points="453.88,-78.96 464.15,-76.36 454.49,-71.99 453.88,-78.96"/>
</g>
<!-- Node3 -->
<g id="node3" class="node">
<title>Node3</title>
<g id="a_node3"><a xlink:href="GameObject_8cpp.html" target="_top" xlink:title=" ">
<polygon fill="none" stroke="black" points="116.5,-6 116.5,-25 239.5,-25 239.5,-6 116.5,-6"/>
<text text-anchor="middle" x="178" y="-13" font-family="Helvetica,sans-Serif" font-size="10.00">src/Api/GameObject.cpp</text>
</a>
</g>
</g>
<!-- Node1&#45;&gt;Node3 -->
<g id="edge2" class="edge">
<title>Node1&#45;&gt;Node3</title>
<path fill="none" stroke="midnightblue" d="M454.6,-68.68C398.29,-58.73 318.65,-44.41 249,-31 239.24,-29.12 228.74,-27.02 218.89,-25.01"/>
<polygon fill="midnightblue" stroke="midnightblue" points="454.03,-72.13 464.49,-70.42 455.25,-65.24 454.03,-72.13"/>
</g>
<!-- Node4 -->
<g id="node4" class="node">
<title>Node4</title>
<g id="a_node4"><a xlink:href="AudioSubsystem_8cpp.html" target="_top" xlink:title=" ">
<polygon fill="none" stroke="black" points="258,-6 258,-25 440,-25 440,-6 258,-6"/>
<text text-anchor="middle" x="349" y="-13" font-family="Helvetica,sans-Serif" font-size="10.00">src/Subsystems/AudioSubsystem.cpp</text>
</a>
</g>
</g>
<!-- Node1&#45;&gt;Node4 -->
<g id="edge3" class="edge">
<title>Node1&#45;&gt;Node4</title>
<path fill="none" stroke="midnightblue" d="M479.66,-63.95C444.89,-51.32 399.53,-34.85 372.43,-25.01"/>
<polygon fill="midnightblue" stroke="midnightblue" points="478.57,-67.27 489.16,-67.4 480.95,-60.69 478.57,-67.27"/>
</g>
<!-- Node5 -->
<g id="node5" class="node">
<title>Node5</title>
<g id="a_node5"><a xlink:href="FpsCounterSubsystem_8cpp.html" target="_top" xlink:title=" ">
<polygon fill="none" stroke="black" points="458,-0.5 458,-30.5 598,-30.5 598,-0.5 458,-0.5"/>
<text text-anchor="start" x="466" y="-18.5" font-family="Helvetica,sans-Serif" font-size="10.00">src/Subsystems/FpsCounter</text>
<text text-anchor="middle" x="528" y="-7.5" font-family="Helvetica,sans-Serif" font-size="10.00">Subsystem.cpp</text>
</a>
</g>
</g>
<!-- Node1&#45;&gt;Node5 -->
<g id="edge4" class="edge">
<title>Node1&#45;&gt;Node5</title>
<path fill="none" stroke="midnightblue" d="M528,-57.11C528,-48.15 528,-38.32 528,-30.58"/>
<polygon fill="midnightblue" stroke="midnightblue" points="524.5,-57.4 528,-67.4 531.5,-57.4 524.5,-57.4"/>
</g>
<!-- Node6 -->
<g id="node6" class="node">
<title>Node6</title>
<g id="a_node6"><a xlink:href="InputSubsystem_8cpp.html" target="_top" xlink:title=" ">
<polygon fill="none" stroke="black" points="616.5,-6 616.5,-25 795.5,-25 795.5,-6 616.5,-6"/>
<text text-anchor="middle" x="706" y="-13" font-family="Helvetica,sans-Serif" font-size="10.00">src/Subsystems/InputSubsystem.cpp</text>
</a>
</g>
</g>
<!-- Node1&#45;&gt;Node6 -->
<g id="edge5" class="edge">
<title>Node1&#45;&gt;Node6</title>
<path fill="none" stroke="midnightblue" d="M576.07,-63.95C610.64,-51.32 655.75,-34.85 682.7,-25.01"/>
<polygon fill="midnightblue" stroke="midnightblue" points="574.82,-60.68 566.62,-67.4 577.22,-67.25 574.82,-60.68"/>
</g>
<!-- Node7 -->
<g id="node7" class="node">
<title>Node7</title>
<g id="a_node7"><a xlink:href="RenderSubsystem_8cpp.html" target="_top" xlink:title=" ">
<polygon fill="none" stroke="black" points="814,-6 814,-25 1002,-25 1002,-6 814,-6"/>
<text text-anchor="middle" x="908" y="-13" font-family="Helvetica,sans-Serif" font-size="10.00">src/Subsystems/RenderSubsystem.cpp</text>
</a>
</g>
</g>
<!-- Node1&#45;&gt;Node7 -->
<g id="edge6" class="edge">
<title>Node1&#45;&gt;Node7</title>
<path fill="none" stroke="midnightblue" d="M601.53,-68.92C677.09,-56 792.65,-36.23 858.15,-25.03"/>
<polygon fill="midnightblue" stroke="midnightblue" points="600.87,-65.48 591.6,-70.62 602.05,-72.38 600.87,-65.48"/>
</g>
<!-- Node8 -->
<g id="node8" class="node">
<title>Node8</title>
<g id="a_node8"><a xlink:href="Api_8hpp.html" target="_top" xlink:title=" ">
<polygon fill="none" stroke="black" points="1020.5,-0.5 1020.5,-30.5 1147.5,-30.5 1147.5,-0.5 1020.5,-0.5"/>
<text text-anchor="start" x="1028.5" y="-18.5" font-family="Helvetica,sans-Serif" font-size="10.00">includes/spic&#45;api&#45;headers</text>
<text text-anchor="middle" x="1084" y="-7.5" font-family="Helvetica,sans-Serif" font-size="10.00">/Api.hpp</text>
</a>
</g>
</g>
<!-- Node1&#45;&gt;Node8 -->
<g id="edge7" class="edge">
<title>Node1&#45;&gt;Node8</title>
<path fill="none" stroke="midnightblue" d="M601.6,-75.92C696.54,-68.24 866.62,-52.84 1011,-31 1014.07,-30.54 1017.2,-30.03 1020.36,-29.5"/>
<polygon fill="midnightblue" stroke="midnightblue" points="601.22,-72.44 591.53,-76.73 601.78,-79.42 601.22,-72.44"/>
</g>
</g>
</svg>
