<?xml version="1.0" encoding="UTF-8" standalone="no"?>
<!DOCTYPE svg PUBLIC "-//W3C//DTD SVG 1.1//EN"
 "http://www.w3.org/Graphics/SVG/1.1/DTD/svg11.dtd">
<!-- Generated by graphviz version 2.44.0 ()
 -->
<!-- Title: includes/spic&#45;api&#45;headers/Managers/FileManager.hpp Pages: 1 -->
<svg width="228pt" height="151pt"
 viewBox="0.00 0.00 227.50 151.00" xmlns="http://www.w3.org/2000/svg" xmlns:xlink="http://www.w3.org/1999/xlink">
<g id="graph0" class="graph" transform="scale(1 1) rotate(0) translate(4 147)">
<title>includes/spic&#45;api&#45;headers/Managers/FileManager.hpp</title>
<!-- Node1 -->
<g id="node1" class="node">
<title>Node1</title>
<g id="a_node1"><a xlink:title=" ">
<polygon fill="#bfbfbf" stroke="black" points="79,-112.5 79,-142.5 216,-142.5 216,-112.5 79,-112.5"/>
<text text-anchor="start" x="87" y="-130.5" font-family="Helvetica,sans-Serif" font-size="10.00">includes/spic&#45;api&#45;headers</text>
<text text-anchor="middle" x="147.5" y="-119.5" font-family="Helvetica,sans-Serif" font-size="10.00">/Managers/FileManager.hpp</text>
</a>
</g>
</g>
<!-- Node2 -->
<g id="node2" class="node">
<title>Node2</title>
<g id="a_node2"><a xlink:href="FolderFile_8hpp.html" target="_top" xlink:title=" ">
<polygon fill="none" stroke="black" points="0,-56.5 0,-75.5 119,-75.5 119,-56.5 0,-56.5"/>
<text text-anchor="middle" x="59.5" y="-63.5" font-family="Helvetica,sans-Serif" font-size="10.00">../Structs/FolderFile.hpp</text>
</a>
</g>
</g>
<!-- Node1&#45;&gt;Node2 -->
<g id="edge1" class="edge">
<title>Node1&#45;&gt;Node2</title>
<path fill="none" stroke="midnightblue" d="M126.65,-112.4C112.8,-103.04 94.69,-90.79 80.76,-81.38"/>
<polygon fill="midnightblue" stroke="midnightblue" points="82.55,-78.36 72.3,-75.66 78.63,-84.16 82.55,-78.36"/>
</g>
<!-- Node3 -->
<g id="node3" class="node">
<title>Node3</title>
<g id="a_node3"><a xlink:title=" ">
<polygon fill="none" stroke="#bfbfbf" points="83,-0.5 83,-19.5 124,-19.5 124,-0.5 83,-0.5"/>
<text text-anchor="middle" x="103.5" y="-7.5" font-family="Helvetica,sans-Serif" font-size="10.00">string</text>
</a>
</g>
</g>
<!-- Node1&#45;&gt;Node3 -->
<g id="edge3" class="edge">
<title>Node1&#45;&gt;Node3</title>
<path fill="none" stroke="midnightblue" d="M144.76,-112.39C141.71,-97.92 136.17,-74.91 128.5,-56 124.64,-46.48 119.2,-36.43 114.38,-28.25"/>
<polygon fill="midnightblue" stroke="midnightblue" points="117.34,-26.37 109.14,-19.65 111.36,-30.01 117.34,-26.37"/>
</g>
<!-- Node4 -->
<g id="node4" class="node">
<title>Node4</title>
<g id="a_node4"><a xlink:title=" ">
<polygon fill="none" stroke="#bfbfbf" points="175.5,-56.5 175.5,-75.5 219.5,-75.5 219.5,-56.5 175.5,-56.5"/>
<text text-anchor="middle" x="197.5" y="-63.5" font-family="Helvetica,sans-Serif" font-size="10.00">vector</text>
</a>
</g>
</g>
<!-- Node1&#45;&gt;Node4 -->
<g id="edge4" class="edge">
<title>Node1&#45;&gt;Node4</title>
<path fill="none" stroke="midnightblue" d="M159.35,-112.4C166.61,-103.75 175.95,-92.64 183.57,-83.58"/>
<polygon fill="midnightblue" stroke="midnightblue" points="186.47,-85.57 190.22,-75.66 181.11,-81.06 186.47,-85.57"/>
</g>
<!-- Node2&#45;&gt;Node3 -->
<g id="edge2" class="edge">
<title>Node2&#45;&gt;Node3</title>
<path fill="none" stroke="midnightblue" d="M66.77,-56.08C73.04,-48.38 82.29,-37.03 89.93,-27.65"/>
<polygon fill="midnightblue" stroke="midnightblue" points="92.77,-29.71 96.37,-19.75 87.34,-25.29 92.77,-29.71"/>
</g>
</g>
</svg>
