<?xml version="1.0" encoding="UTF-8" standalone="no"?>
<!DOCTYPE svg PUBLIC "-//W3C//DTD SVG 1.1//EN"
 "http://www.w3.org/Graphics/SVG/1.1/DTD/svg11.dtd">
<!-- Generated by graphviz version 2.44.0 ()
 -->
<!-- Title: src/Api/Managers/FileManager.cpp Pages: 1 -->
<svg width="523pt" height="196pt"
 viewBox="0.00 0.00 522.50 196.00" xmlns="http://www.w3.org/2000/svg" xmlns:xlink="http://www.w3.org/1999/xlink">
<g id="graph0" class="graph" transform="scale(1 1) rotate(0) translate(4 192)">
<title>src/Api/Managers/FileManager.cpp</title>
<!-- Node1 -->
<g id="node1" class="node">
<title>Node1</title>
<g id="a_node1"><a xlink:title=" ">
<polygon fill="#bfbfbf" stroke="black" points="258,-168.5 258,-187.5 425,-187.5 425,-168.5 258,-168.5"/>
<text text-anchor="middle" x="341.5" y="-175.5" font-family="Helvetica,sans-Serif" font-size="10.00">src/Api/Managers/FileManager.cpp</text>
</a>
</g>
</g>
<!-- Node2 -->
<g id="node2" class="node">
<title>Node2</title>
<g id="a_node2"><a xlink:href="FileManager_8hpp.html" target="_top" xlink:title=" ">
<polygon fill="none" stroke="black" points="46.5,-112.5 46.5,-131.5 180.5,-131.5 180.5,-112.5 46.5,-112.5"/>
<text text-anchor="middle" x="113.5" y="-119.5" font-family="Helvetica,sans-Serif" font-size="10.00">Managers/FileManager.hpp</text>
</a>
</g>
</g>
<!-- Node1&#45;&gt;Node2 -->
<g id="edge1" class="edge">
<title>Node1&#45;&gt;Node2</title>
<path fill="none" stroke="midnightblue" d="M305.37,-168.44C265.85,-159.08 202.4,-144.06 159.39,-133.87"/>
<polygon fill="midnightblue" stroke="midnightblue" points="160,-130.42 149.46,-131.52 158.38,-137.23 160,-130.42"/>
</g>
<!-- Node6 -->
<g id="node6" class="node">
<title>Node6</title>
<g id="a_node6"><a xlink:href="StringUtil_8hpp.html" target="_top" xlink:title=" ">
<polygon fill="none" stroke="black" points="198.5,-112.5 198.5,-131.5 296.5,-131.5 296.5,-112.5 198.5,-112.5"/>
<text text-anchor="middle" x="247.5" y="-119.5" font-family="Helvetica,sans-Serif" font-size="10.00">Utils/StringUtil.hpp</text>
</a>
</g>
</g>
<!-- Node1&#45;&gt;Node6 -->
<g id="edge6" class="edge">
<title>Node1&#45;&gt;Node6</title>
<path fill="none" stroke="midnightblue" d="M326.4,-168.32C311.6,-159.82 288.81,-146.73 271.52,-136.8"/>
<polygon fill="midnightblue" stroke="midnightblue" points="272.98,-133.6 262.57,-131.65 269.49,-139.67 272.98,-133.6"/>
</g>
<!-- Node7 -->
<g id="node7" class="node">
<title>Node7</title>
<g id="a_node7"><a xlink:title=" ">
<polygon fill="none" stroke="#bfbfbf" points="314.5,-112.5 314.5,-131.5 368.5,-131.5 368.5,-112.5 314.5,-112.5"/>
<text text-anchor="middle" x="341.5" y="-119.5" font-family="Helvetica,sans-Serif" font-size="10.00">iostream</text>
</a>
</g>
</g>
<!-- Node1&#45;&gt;Node7 -->
<g id="edge9" class="edge">
<title>Node1&#45;&gt;Node7</title>
<path fill="none" stroke="midnightblue" d="M341.5,-168.08C341.5,-161.01 341.5,-150.86 341.5,-141.99"/>
<polygon fill="midnightblue" stroke="midnightblue" points="345,-141.75 341.5,-131.75 338,-141.75 345,-141.75"/>
</g>
<!-- Node8 -->
<g id="node8" class="node">
<title>Node8</title>
<g id="a_node8"><a xlink:title=" ">
<polygon fill="none" stroke="#bfbfbf" points="386.5,-112.5 386.5,-131.5 436.5,-131.5 436.5,-112.5 386.5,-112.5"/>
<text text-anchor="middle" x="411.5" y="-119.5" font-family="Helvetica,sans-Serif" font-size="10.00">fstream</text>
</a>
</g>
</g>
<!-- Node1&#45;&gt;Node8 -->
<g id="edge10" class="edge">
<title>Node1&#45;&gt;Node8</title>
<path fill="none" stroke="midnightblue" d="M352.75,-168.32C363.3,-160.18 379.3,-147.84 391.94,-138.09"/>
<polygon fill="midnightblue" stroke="midnightblue" points="394.27,-140.71 400.05,-131.83 389.99,-135.17 394.27,-140.71"/>
</g>
<!-- Node9 -->
<g id="node9" class="node">
<title>Node9</title>
<g id="a_node9"><a xlink:title=" ">
<polygon fill="none" stroke="#bfbfbf" points="454.5,-112.5 454.5,-131.5 514.5,-131.5 514.5,-112.5 454.5,-112.5"/>
<text text-anchor="middle" x="484.5" y="-119.5" font-family="Helvetica,sans-Serif" font-size="10.00">filesystem</text>
</a>
</g>
</g>
<!-- Node1&#45;&gt;Node9 -->
<g id="edge11" class="edge">
<title>Node1&#45;&gt;Node9</title>
<path fill="none" stroke="midnightblue" d="M364.16,-168.44C387.9,-159.48 425.41,-145.31 452.24,-135.18"/>
<polygon fill="midnightblue" stroke="midnightblue" points="453.83,-138.32 461.95,-131.52 451.36,-131.77 453.83,-138.32"/>
</g>
<!-- Node3 -->
<g id="node3" class="node">
<title>Node3</title>
<g id="a_node3"><a xlink:href="FolderFile_8hpp.html" target="_top" xlink:title=" ">
<polygon fill="none" stroke="black" points="0,-56.5 0,-75.5 119,-75.5 119,-56.5 0,-56.5"/>
<text text-anchor="middle" x="59.5" y="-63.5" font-family="Helvetica,sans-Serif" font-size="10.00">../Structs/FolderFile.hpp</text>
</a>
</g>
</g>
<!-- Node2&#45;&gt;Node3 -->
<g id="edge2" class="edge">
<title>Node2&#45;&gt;Node3</title>
<path fill="none" stroke="midnightblue" d="M104.58,-112.08C96.72,-104.22 85.07,-92.57 75.58,-83.08"/>
<polygon fill="midnightblue" stroke="midnightblue" points="77.8,-80.35 68.25,-75.75 72.85,-85.3 77.8,-80.35"/>
</g>
<!-- Node4 -->
<g id="node4" class="node">
<title>Node4</title>
<g id="a_node4"><a xlink:title=" ">
<polygon fill="none" stroke="#bfbfbf" points="127,-0.5 127,-19.5 168,-19.5 168,-0.5 127,-0.5"/>
<text text-anchor="middle" x="147.5" y="-7.5" font-family="Helvetica,sans-Serif" font-size="10.00">string</text>
</a>
</g>
</g>
<!-- Node2&#45;&gt;Node4 -->
<g id="edge4" class="edge">
<title>Node2&#45;&gt;Node4</title>
<path fill="none" stroke="midnightblue" d="M116.19,-112.38C119.02,-103.32 123.58,-88.66 127.5,-76 132.35,-60.31 137.84,-42.49 141.83,-29.48"/>
<polygon fill="midnightblue" stroke="midnightblue" points="145.2,-30.42 144.79,-19.83 138.51,-28.37 145.2,-30.42"/>
</g>
<!-- Node5 -->
<g id="node5" class="node">
<title>Node5</title>
<g id="a_node5"><a xlink:title=" ">
<polygon fill="none" stroke="#bfbfbf" points="175.5,-56.5 175.5,-75.5 219.5,-75.5 219.5,-56.5 175.5,-56.5"/>
<text text-anchor="middle" x="197.5" y="-63.5" font-family="Helvetica,sans-Serif" font-size="10.00">vector</text>
</a>
</g>
</g>
<!-- Node2&#45;&gt;Node5 -->
<g id="edge5" class="edge">
<title>Node2&#45;&gt;Node5</title>
<path fill="none" stroke="midnightblue" d="M127,-112.32C140.1,-103.9 160.21,-90.97 175.61,-81.07"/>
<polygon fill="midnightblue" stroke="midnightblue" points="177.52,-84.01 184.04,-75.65 173.73,-78.12 177.52,-84.01"/>
</g>
<!-- Node3&#45;&gt;Node4 -->
<g id="edge3" class="edge">
<title>Node3&#45;&gt;Node4</title>
<path fill="none" stroke="midnightblue" d="M73.64,-56.32C87.37,-47.9 108.44,-34.97 124.56,-25.07"/>
<polygon fill="midnightblue" stroke="midnightblue" points="126.7,-27.87 133.4,-19.65 123.04,-21.9 126.7,-27.87"/>
</g>
<!-- Node6&#45;&gt;Node4 -->
<g id="edge7" class="edge">
<title>Node6&#45;&gt;Node4</title>
<path fill="none" stroke="midnightblue" d="M247.04,-112.48C245.91,-99.09 242,-72.9 228.5,-56 215.49,-39.71 194.9,-28.39 177.74,-21.17"/>
<polygon fill="midnightblue" stroke="midnightblue" points="178.7,-17.79 168.11,-17.39 176.14,-24.3 178.7,-17.79"/>
</g>
<!-- Node6&#45;&gt;Node5 -->
<g id="edge8" class="edge">
<title>Node6&#45;&gt;Node5</title>
<path fill="none" stroke="midnightblue" d="M239.24,-112.08C232.04,-104.3 221.39,-92.8 212.65,-83.37"/>
<polygon fill="midnightblue" stroke="midnightblue" points="214.97,-80.71 205.6,-75.75 209.83,-85.47 214.97,-80.71"/>
</g>
</g>
</svg>
