<?xml version="1.0" encoding="UTF-8" standalone="no"?>
<!DOCTYPE svg PUBLIC "-//W3C//DTD SVG 1.1//EN"
 "http://www.w3.org/Graphics/SVG/1.1/DTD/svg11.dtd">
<!-- Generated by graphviz version 2.44.0 ()
 -->
<!-- Title: src/Managers/FontManager.cpp Pages: 1 -->
<svg width="347pt" height="196pt"
 viewBox="0.00 0.00 347.00 196.00" xmlns="http://www.w3.org/2000/svg" xmlns:xlink="http://www.w3.org/1999/xlink">
<g id="graph0" class="graph" transform="scale(1 1) rotate(0) translate(4 192)">
<title>src/Managers/FontManager.cpp</title>
<!-- Node1 -->
<g id="node1" class="node">
<title>Node1</title>
<g id="a_node1"><a xlink:title=" ">
<polygon fill="#bfbfbf" stroke="black" points="174.5,-168.5 174.5,-187.5 328.5,-187.5 328.5,-168.5 174.5,-168.5"/>
<text text-anchor="middle" x="251.5" y="-175.5" font-family="Helvetica,sans-Serif" font-size="10.00">src/Managers/FontManager.cpp</text>
</a>
</g>
</g>
<!-- Node2 -->
<g id="node2" class="node">
<title>Node2</title>
<g id="a_node2"><a xlink:href="FontManager_8hpp.html" target="_top" xlink:title=" ">
<polygon fill="none" stroke="black" points="100.5,-112.5 100.5,-131.5 192.5,-131.5 192.5,-112.5 100.5,-112.5"/>
<text text-anchor="middle" x="146.5" y="-119.5" font-family="Helvetica,sans-Serif" font-size="10.00">FontManager.hpp</text>
</a>
</g>
</g>
<!-- Node1&#45;&gt;Node2 -->
<g id="edge1" class="edge">
<title>Node1&#45;&gt;Node2</title>
<path fill="none" stroke="midnightblue" d="M234.63,-168.32C217.79,-159.66 191.69,-146.24 172.26,-136.25"/>
<polygon fill="midnightblue" stroke="midnightblue" points="173.82,-133.12 163.33,-131.65 170.62,-139.34 173.82,-133.12"/>
</g>
<!-- Node4 -->
<g id="node4" class="node">
<title>Node4</title>
<g id="a_node4"><a xlink:title=" ">
<polygon fill="none" stroke="#bfbfbf" points="70.5,-0.5 70.5,-19.5 128.5,-19.5 128.5,-0.5 70.5,-0.5"/>
<text text-anchor="middle" x="99.5" y="-7.5" font-family="Helvetica,sans-Serif" font-size="10.00">SDL_ttf.h</text>
</a>
</g>
</g>
<!-- Node1&#45;&gt;Node4 -->
<g id="edge8" class="edge">
<title>Node1&#45;&gt;Node4</title>
<path fill="none" stroke="midnightblue" d="M252.88,-168.48C255.87,-146.87 260.59,-89.34 232.5,-56 209.46,-28.65 169.15,-17.87 138.93,-13.65"/>
<polygon fill="midnightblue" stroke="midnightblue" points="139.05,-10.14 128.7,-12.41 138.21,-17.09 139.05,-10.14"/>
</g>
<!-- Node8 -->
<g id="node8" class="node">
<title>Node8</title>
<g id="a_node8"><a xlink:title=" ">
<polygon fill="none" stroke="#bfbfbf" points="280,-112.5 280,-131.5 339,-131.5 339,-112.5 280,-112.5"/>
<text text-anchor="middle" x="309.5" y="-119.5" font-family="Helvetica,sans-Serif" font-size="10.00">stdexcept</text>
</a>
</g>
</g>
<!-- Node1&#45;&gt;Node8 -->
<g id="edge9" class="edge">
<title>Node1&#45;&gt;Node8</title>
<path fill="none" stroke="midnightblue" d="M260.82,-168.32C269.39,-160.34 282.31,-148.31 292.69,-138.65"/>
<polygon fill="midnightblue" stroke="midnightblue" points="295.08,-141.21 300.01,-131.83 290.31,-136.09 295.08,-141.21"/>
</g>
<!-- Node3 -->
<g id="node3" class="node">
<title>Node3</title>
<g id="a_node3"><a xlink:href="Font_8hpp.html" target="_top" xlink:title=" ">
<polygon fill="none" stroke="black" points="14.5,-56.5 14.5,-75.5 110.5,-75.5 110.5,-56.5 14.5,-56.5"/>
<text text-anchor="middle" x="62.5" y="-63.5" font-family="Helvetica,sans-Serif" font-size="10.00">../Models/Font.hpp</text>
</a>
</g>
</g>
<!-- Node2&#45;&gt;Node3 -->
<g id="edge2" class="edge">
<title>Node2&#45;&gt;Node3</title>
<path fill="none" stroke="midnightblue" d="M133,-112.32C119.9,-103.9 99.79,-90.97 84.39,-81.07"/>
<polygon fill="midnightblue" stroke="midnightblue" points="86.27,-78.12 75.96,-75.65 82.48,-84.01 86.27,-78.12"/>
</g>
<!-- Node5 -->
<g id="node5" class="node">
<title>Node5</title>
<g id="a_node5"><a xlink:title=" ">
<polygon fill="none" stroke="#bfbfbf" points="0,-0.5 0,-19.5 51,-19.5 51,-0.5 0,-0.5"/>
<text text-anchor="middle" x="25.5" y="-7.5" font-family="Helvetica,sans-Serif" font-size="10.00">memory</text>
</a>
</g>
</g>
<!-- Node2&#45;&gt;Node5 -->
<g id="edge6" class="edge">
<title>Node2&#45;&gt;Node5</title>
<path fill="none" stroke="midnightblue" d="M100.33,-119.7C68.05,-116.09 27.02,-105.46 5.5,-76 -4.9,-61.77 3.63,-42.03 12.55,-28.05"/>
<polygon fill="midnightblue" stroke="midnightblue" points="15.45,-30.01 18.28,-19.8 9.7,-26.02 15.45,-30.01"/>
</g>
<!-- Node6 -->
<g id="node6" class="node">
<title>Node6</title>
<g id="a_node6"><a xlink:title=" ">
<polygon fill="none" stroke="#bfbfbf" points="129,-56.5 129,-75.5 164,-75.5 164,-56.5 129,-56.5"/>
<text text-anchor="middle" x="146.5" y="-63.5" font-family="Helvetica,sans-Serif" font-size="10.00">map</text>
</a>
</g>
</g>
<!-- Node2&#45;&gt;Node6 -->
<g id="edge5" class="edge">
<title>Node2&#45;&gt;Node6</title>
<path fill="none" stroke="midnightblue" d="M146.5,-112.08C146.5,-105.01 146.5,-94.86 146.5,-85.99"/>
<polygon fill="midnightblue" stroke="midnightblue" points="150,-85.75 146.5,-75.75 143,-85.75 150,-85.75"/>
</g>
<!-- Node7 -->
<g id="node7" class="node">
<title>Node7</title>
<g id="a_node7"><a xlink:title=" ">
<polygon fill="none" stroke="#bfbfbf" points="182,-56.5 182,-75.5 223,-75.5 223,-56.5 182,-56.5"/>
<text text-anchor="middle" x="202.5" y="-63.5" font-family="Helvetica,sans-Serif" font-size="10.00">string</text>
</a>
</g>
</g>
<!-- Node2&#45;&gt;Node7 -->
<g id="edge7" class="edge">
<title>Node2&#45;&gt;Node7</title>
<path fill="none" stroke="midnightblue" d="M155.5,-112.32C163.69,-104.42 176.01,-92.55 185.97,-82.94"/>
<polygon fill="midnightblue" stroke="midnightblue" points="188.57,-85.29 193.34,-75.83 183.71,-80.26 188.57,-85.29"/>
</g>
<!-- Node3&#45;&gt;Node4 -->
<g id="edge3" class="edge">
<title>Node3&#45;&gt;Node4</title>
<path fill="none" stroke="midnightblue" d="M68.61,-56.08C73.78,-48.53 81.35,-37.49 87.69,-28.23"/>
<polygon fill="midnightblue" stroke="midnightblue" points="90.74,-29.98 93.5,-19.75 84.96,-26.02 90.74,-29.98"/>
</g>
<!-- Node3&#45;&gt;Node5 -->
<g id="edge4" class="edge">
<title>Node3&#45;&gt;Node5</title>
<path fill="none" stroke="midnightblue" d="M56.39,-56.08C51.22,-48.53 43.65,-37.49 37.31,-28.23"/>
<polygon fill="midnightblue" stroke="midnightblue" points="40.04,-26.02 31.5,-19.75 34.26,-29.98 40.04,-26.02"/>
</g>
</g>
</svg>
