<?xml version="1.0" encoding="UTF-8" standalone="no"?>
<!DOCTYPE svg PUBLIC "-//W3C//DTD SVG 1.1//EN"
 "http://www.w3.org/Graphics/SVG/1.1/DTD/svg11.dtd">
<!-- Generated by graphviz version 2.44.0 ()
 -->
<!-- Title: includes/spic&#45;api&#45;headers/GameObject.hpp Pages: 1 -->
<!--zoomable 430 -->
<svg id="main" version="1.1" xmlns="http://www.w3.org/2000/svg" xmlns:xlink="http://www.w3.org/1999/xlink" xml:space="preserve" onload="init(evt)">
<style type="text/css"><![CDATA[
.edge:hover path { stroke: red; }
.edge:hover polygon { stroke: red; fill: red; }
]]></style>
<script type="text/javascript"><![CDATA[
var edges = document.getElementsByTagName('g');
if (edges && edges.length) {
  for (var i=0;i<edges.length;i++) {
    if (edges[i].id.substr(0,4)=='edge') {
      edges[i].setAttribute('class','edge');
    }
  }
}
]]></script>
        <defs>
                <circle id="rim" cx="0" cy="0" r="7"/>
                <circle id="rim2" cx="0" cy="0" r="3.5"/>
                <g id="zoomPlus">
                        <use xlink:href="#rim" fill="#404040">
                                <set attributeName="fill" to="#808080" begin="zoomplus.mouseover" end="zoomplus.mouseout"/>
                        </use>
                        <path d="M-4,0h8M0,-4v8" fill="none" stroke="white" stroke-width="1.5" pointer-events="none"/>
                </g>
                <g id="zoomMin">
                        <use xlink:href="#rim" fill="#404040">
                                <set attributeName="fill" to="#808080" begin="zoomminus.mouseover" end="zoomminus.mouseout"/>
                        </use>
                        <path d="M-4,0h8" fill="none" stroke="white" stroke-width="1.5" pointer-events="none"/>
                </g>
                <g id="dirArrow">
                        <path fill="none" stroke="white" stroke-width="1.5" d="M0,-3.0v7 M-2.5,-0.5L0,-3.0L2.5,-0.5"/>
                </g>
               <g id="resetDef">
                       <use xlink:href="#rim2" fill="#404040">
                               <set attributeName="fill" to="#808080" begin="reset.mouseover" end="reset.mouseout"/>
                       </use>
               </g>
        </defs>

<script type="text/javascript">
var viewWidth = 2637;
var viewHeight = 430;
var sectionId = 'dynsection-1';
</script>
<script xlink:href="svgpan.js"/>
<svg id="graph" class="graph">
<g id="viewport">
<title>includes/spic&#45;api&#45;headers/GameObject.hpp</title>
<!-- Node1 -->
<g id="node1" class="node">
<title>Node1</title>
<g id="a_node1"><a xlink:title=" ">
<polygon fill="#bfbfbf" stroke="black" points="1094,-391.5 1094,-421.5 1221,-421.5 1221,-391.5 1094,-391.5"/>
<text text-anchor="start" x="1102" y="-409.5" font-family="Helvetica,sans-Serif" font-size="10.00">includes/spic&#45;api&#45;headers</text>
<text text-anchor="middle" x="1157.5" y="-398.5" font-family="Helvetica,sans-Serif" font-size="10.00">/GameObject.hpp</text>
</a>
</g>
</g>
<!-- Node2 -->
<g id="node2" class="node">
<title>Node2</title>
<g id="a_node2"><a xlink:href="Animator_8cpp.html" target="_top" xlink:title=" ">
<polygon fill="none" stroke="black" points="0,-330 0,-349 107,-349 107,-330 0,-330"/>
<text text-anchor="middle" x="53.5" y="-337" font-family="Helvetica,sans-Serif" font-size="10.00">src/Api/Animator.cpp</text>
</a>
</g>
</g>
<!-- Node1&#45;&gt;Node2 -->
<g id="edge1" class="edge">
<title>Node1&#45;&gt;Node2</title>
<path fill="none" stroke="midnightblue" d="M1083.61,-403.62C878.29,-398.14 303.67,-380.87 116.5,-355 106.38,-353.6 95.5,-351.37 85.67,-349.06"/>
<polygon fill="midnightblue" stroke="midnightblue" points="1083.6,-407.13 1093.69,-403.89 1083.79,-400.13 1083.6,-407.13"/>
</g>
<!-- Node3 -->
<g id="node3" class="node">
<title>Node3</title>
<g id="a_node3"><a xlink:href="AudioSource_8cpp.html" target="_top" xlink:title=" ">
<polygon fill="none" stroke="black" points="125.5,-330 125.5,-349 249.5,-349 249.5,-330 125.5,-330"/>
<text text-anchor="middle" x="187.5" y="-337" font-family="Helvetica,sans-Serif" font-size="10.00">src/Api/AudioSource.cpp</text>
</a>
</g>
</g>
<!-- Node1&#45;&gt;Node3 -->
<g id="edge2" class="edge">
<title>Node1&#45;&gt;Node3</title>
<path fill="none" stroke="midnightblue" d="M1083.72,-404.98C929.72,-403.09 563.11,-394.45 258.5,-355 247.27,-353.55 235.16,-351.32 224.18,-349.05"/>
<polygon fill="midnightblue" stroke="midnightblue" points="1083.95,-408.48 1093.99,-405.1 1084.03,-401.48 1083.95,-408.48"/>
</g>
<!-- Node4 -->
<g id="node4" class="node">
<title>Node4</title>
<g id="a_node4"><a xlink:href="GameObject_8cpp.html" target="_top" xlink:title=" ">
<polygon fill="none" stroke="black" points="268,-330 268,-349 391,-349 391,-330 268,-330"/>
<text text-anchor="middle" x="329.5" y="-337" font-family="Helvetica,sans-Serif" font-size="10.00">src/Api/GameObject.cpp</text>
</a>
</g>
</g>
<!-- Node1&#45;&gt;Node4 -->
<g id="edge3" class="edge">
<title>Node1&#45;&gt;Node4</title>
<path fill="none" stroke="midnightblue" d="M1083.63,-403.88C947.81,-400.16 649.53,-388.58 400.5,-355 389.4,-353.5 377.44,-351.3 366.56,-349.05"/>
<polygon fill="midnightblue" stroke="midnightblue" points="1083.82,-407.38 1093.91,-404.15 1084,-400.38 1083.82,-407.38"/>
</g>
<!-- Node5 -->
<g id="node5" class="node">
<title>Node5</title>
<g id="a_node5"><a xlink:href="ContactListener_8cpp.html" target="_top" xlink:title=" ">
<polygon fill="none" stroke="black" points="409.5,-330 409.5,-349 573.5,-349 573.5,-330 409.5,-330"/>
<text text-anchor="middle" x="491.5" y="-337" font-family="Helvetica,sans-Serif" font-size="10.00">src/Listeners/ContactListener.cpp</text>
</a>
</g>
</g>
<!-- Node1&#45;&gt;Node5 -->
<g id="edge4" class="edge">
<title>Node1&#45;&gt;Node5</title>
<path fill="none" stroke="midnightblue" d="M1083.46,-400.4C974.6,-392.58 765,-376.25 587.5,-355 573.44,-353.32 558.27,-351.18 544.24,-349.06"/>
<polygon fill="midnightblue" stroke="midnightblue" points="1083.46,-403.91 1093.68,-401.13 1083.96,-396.93 1083.46,-403.91"/>
</g>
<!-- Node6 -->
<g id="node6" class="node">
<title>Node6</title>
<g id="a_node6"><a xlink:href="InputManager_8cpp.html" target="_top" xlink:title=" ">
<polygon fill="none" stroke="black" points="747.5,-263 747.5,-282 903.5,-282 903.5,-263 747.5,-263"/>
<text text-anchor="middle" x="825.5" y="-270" font-family="Helvetica,sans-Serif" font-size="10.00">src/Managers/InputManager.cpp</text>
</a>
</g>
</g>
<!-- Node1&#45;&gt;Node6 -->
<g id="edge5" class="edge">
<title>Node1&#45;&gt;Node6</title>
<path fill="none" stroke="midnightblue" d="M1083.69,-403.96C943.76,-400.27 651.08,-388.59 620.5,-355 578.47,-308.84 673.07,-288.42 747.35,-279.68"/>
<polygon fill="midnightblue" stroke="midnightblue" points="1083.81,-407.46 1093.9,-404.22 1083.99,-400.47 1083.81,-407.46"/>
</g>
<!-- Node7 -->
<g id="node7" class="node">
<title>Node7</title>
<g id="a_node7"><a xlink:href="AnimatorSubsystem_8cpp.html" target="_top" xlink:title=" ">
<polygon fill="none" stroke="black" points="629.5,-330 629.5,-349 825.5,-349 825.5,-330 629.5,-330"/>
<text text-anchor="middle" x="727.5" y="-337" font-family="Helvetica,sans-Serif" font-size="10.00">src/Subsystems/AnimatorSubsystem.cpp</text>
</a>
</g>
</g>
<!-- Node1&#45;&gt;Node7 -->
<g id="edge6" class="edge">
<title>Node1&#45;&gt;Node7</title>
<path fill="none" stroke="midnightblue" d="M1083.48,-394.31C998.42,-381.45 860.69,-360.63 783.87,-349.02"/>
<polygon fill="midnightblue" stroke="midnightblue" points="1083.18,-397.8 1093.59,-395.84 1084.22,-390.88 1083.18,-397.8"/>
</g>
<!-- Node8 -->
<g id="node8" class="node">
<title>Node8</title>
<g id="a_node8"><a xlink:href="AudioSubsystem_8cpp.html" target="_top" xlink:title=" ">
<polygon fill="none" stroke="black" points="843.5,-330 843.5,-349 1025.5,-349 1025.5,-330 843.5,-330"/>
<text text-anchor="middle" x="934.5" y="-337" font-family="Helvetica,sans-Serif" font-size="10.00">src/Subsystems/AudioSubsystem.cpp</text>
</a>
</g>
</g>
<!-- Node1&#45;&gt;Node8 -->
<g id="edge7" class="edge">
<title>Node1&#45;&gt;Node8</title>
<path fill="none" stroke="midnightblue" d="M1099.76,-388.67C1056.18,-375.97 998.19,-359.06 963.76,-349.03"/>
<polygon fill="midnightblue" stroke="midnightblue" points="1098.81,-392.04 1109.39,-391.48 1100.77,-385.32 1098.81,-392.04"/>
</g>
<!-- Node9 -->
<g id="node9" class="node">
<title>Node9</title>
<g id="a_node9"><a xlink:href="BehaviourScriptSubsystem_8cpp.html" target="_top" xlink:title=" ">
<polygon fill="none" stroke="black" points="1043.5,-324.5 1043.5,-354.5 1177.5,-354.5 1177.5,-324.5 1043.5,-324.5"/>
<text text-anchor="start" x="1051.5" y="-342.5" font-family="Helvetica,sans-Serif" font-size="10.00">src/Subsystems/Behaviour</text>
<text text-anchor="middle" x="1110.5" y="-331.5" font-family="Helvetica,sans-Serif" font-size="10.00">ScriptSubsystem.cpp</text>
</a>
</g>
</g>
<!-- Node1&#45;&gt;Node9 -->
<g id="edge8" class="edge">
<title>Node1&#45;&gt;Node9</title>
<path fill="none" stroke="midnightblue" d="M1141.34,-383.16C1134.49,-373.68 1126.71,-362.92 1120.68,-354.58"/>
<polygon fill="midnightblue" stroke="midnightblue" points="1138.61,-385.34 1147.3,-391.4 1144.28,-381.24 1138.61,-385.34"/>
</g>
<!-- Node10 -->
<g id="node10" class="node">
<title>Node10</title>
<g id="a_node10"><a xlink:href="PhysicsSubsystem_8cpp.html" target="_top" xlink:title=" ">
<polygon fill="none" stroke="black" points="1380,-263 1380,-282 1571,-282 1571,-263 1380,-263"/>
<text text-anchor="middle" x="1475.5" y="-270" font-family="Helvetica,sans-Serif" font-size="10.00">src/Subsystems/PhysicsSubsystem.cpp</text>
</a>
</g>
</g>
<!-- Node1&#45;&gt;Node10 -->
<g id="edge9" class="edge">
<title>Node1&#45;&gt;Node10</title>
<path fill="none" stroke="midnightblue" d="M1230.96,-396.23C1273.31,-388.92 1326.67,-376.29 1370.5,-355 1390.42,-345.33 1392.04,-337.62 1409.5,-324 1428.61,-309.09 1451.06,-292 1464.24,-282.02"/>
<polygon fill="midnightblue" stroke="midnightblue" points="1230.29,-392.79 1221,-397.89 1231.44,-399.7 1230.29,-392.79"/>
</g>
<!-- Node11 -->
<g id="node11" class="node">
<title>Node11</title>
<g id="a_node11"><a xlink:href="PhysicsSubsystem_8hpp.html" target="_top" xlink:title=" ">
<polygon fill="none" stroke="black" points="1418,-330 1418,-349 1609,-349 1609,-330 1418,-330"/>
<text text-anchor="middle" x="1513.5" y="-337" font-family="Helvetica,sans-Serif" font-size="10.00">src/Subsystems/PhysicsSubsystem.hpp</text>
</a>
</g>
</g>
<!-- Node1&#45;&gt;Node11 -->
<g id="edge10" class="edge">
<title>Node1&#45;&gt;Node11</title>
<path fill="none" stroke="midnightblue" d="M1231.34,-392.02C1302.16,-379.09 1406.91,-359.96 1466.85,-349.02"/>
<polygon fill="midnightblue" stroke="midnightblue" points="1230.35,-388.64 1221.15,-393.88 1231.61,-395.53 1230.35,-388.64"/>
</g>
<!-- Node14 -->
<g id="node14" class="node">
<title>Node14</title>
<g id="a_node14"><a xlink:href="RenderSubsystem_8cpp.html" target="_top" xlink:title=" ">
<polygon fill="none" stroke="black" points="1509.5,-62 1509.5,-81 1697.5,-81 1697.5,-62 1509.5,-62"/>
<text text-anchor="middle" x="1603.5" y="-69" font-family="Helvetica,sans-Serif" font-size="10.00">src/Subsystems/RenderSubsystem.cpp</text>
</a>
</g>
</g>
<!-- Node1&#45;&gt;Node14 -->
<g id="edge14" class="edge">
<title>Node1&#45;&gt;Node14</title>
<path fill="none" stroke="midnightblue" d="M1173.8,-382.95C1178.91,-374.59 1183.9,-364.76 1186.5,-355 1190.05,-341.69 1188.71,-337.6 1186.5,-324 1183.8,-307.35 1177.2,-304.65 1174.5,-288 1172.29,-274.4 1167.23,-268.7 1174.5,-257 1247.65,-139.23 1414.49,-96.47 1517.21,-81.06"/>
<polygon fill="midnightblue" stroke="midnightblue" points="1170.84,-381.08 1168.31,-391.37 1176.7,-384.91 1170.84,-381.08"/>
</g>
<!-- Node15 -->
<g id="node15" class="node">
<title>Node15</title>
<g id="a_node15"><a xlink:href="Api_8hpp.html" target="_top" xlink:title=" ">
<polygon fill="none" stroke="black" points="1593,-190.5 1593,-220.5 1720,-220.5 1720,-190.5 1593,-190.5"/>
<text text-anchor="start" x="1601" y="-208.5" font-family="Helvetica,sans-Serif" font-size="10.00">includes/spic&#45;api&#45;headers</text>
<text text-anchor="middle" x="1656.5" y="-197.5" font-family="Helvetica,sans-Serif" font-size="10.00">/Api.hpp</text>
</a>
</g>
</g>
<!-- Node1&#45;&gt;Node15 -->
<g id="edge15" class="edge">
<title>Node1&#45;&gt;Node15</title>
<path fill="none" stroke="midnightblue" d="M1231.34,-401.97C1354.17,-395.45 1589.89,-379.83 1618.5,-355 1658.3,-320.47 1659.27,-250.52 1657.66,-220.6"/>
<polygon fill="midnightblue" stroke="midnightblue" points="1231.06,-398.48 1221.26,-402.5 1231.43,-405.48 1231.06,-398.48"/>
</g>
<!-- Node16 -->
<g id="node16" class="node">
<title>Node16</title>
<g id="a_node16"><a xlink:href="Camera_8hpp.html" target="_top" xlink:title=" ">
<polygon fill="none" stroke="black" points="1234,-324.5 1234,-354.5 1361,-354.5 1361,-324.5 1234,-324.5"/>
<text text-anchor="start" x="1242" y="-342.5" font-family="Helvetica,sans-Serif" font-size="10.00">includes/spic&#45;api&#45;headers</text>
<text text-anchor="middle" x="1297.5" y="-331.5" font-family="Helvetica,sans-Serif" font-size="10.00">/Camera.hpp</text>
</a>
</g>
</g>
<!-- Node1&#45;&gt;Node16 -->
<g id="edge16" class="edge">
<title>Node1&#45;&gt;Node16</title>
<path fill="none" stroke="midnightblue" d="M1197.07,-387.13C1219.31,-376.8 1246.65,-364.11 1267.18,-354.58"/>
<polygon fill="midnightblue" stroke="midnightblue" points="1195.47,-384.01 1187.88,-391.4 1198.42,-390.36 1195.47,-384.01"/>
</g>
<!-- Node18 -->
<g id="node18" class="node">
<title>Node18</title>
<g id="a_node18"><a xlink:href="GameObject__templates_8hpp.html" target="_top" xlink:title=" ">
<polygon fill="none" stroke="black" points="1665.5,-324.5 1665.5,-354.5 1805.5,-354.5 1805.5,-324.5 1665.5,-324.5"/>
<text text-anchor="start" x="1673.5" y="-342.5" font-family="Helvetica,sans-Serif" font-size="10.00">includes/spic&#45;api&#45;headers</text>
<text text-anchor="middle" x="1735.5" y="-331.5" font-family="Helvetica,sans-Serif" font-size="10.00">/GameObject_templates.hpp</text>
</a>
</g>
</g>
<!-- Node1&#45;&gt;Node18 -->
<g id="edge21" class="edge">
<title>Node1&#45;&gt;Node18</title>
<path fill="none" stroke="midnightblue" d="M1231.19,-399.57C1327.9,-391.41 1502.81,-375.41 1651.5,-355 1656.05,-354.38 1660.72,-353.69 1665.43,-352.97"/>
<polygon fill="midnightblue" stroke="midnightblue" points="1230.9,-396.08 1221.22,-400.4 1231.48,-403.05 1230.9,-396.08"/>
</g>
<!-- Node19 -->
<g id="node19" class="node">
<title>Node19</title>
<g id="a_node19"><a xlink:href="UIObject_8hpp.html" target="_top" xlink:title=" ">
<polygon fill="none" stroke="black" points="1824,-324.5 1824,-354.5 1951,-354.5 1951,-324.5 1824,-324.5"/>
<text text-anchor="start" x="1832" y="-342.5" font-family="Helvetica,sans-Serif" font-size="10.00">includes/spic&#45;api&#45;headers</text>
<text text-anchor="middle" x="1887.5" y="-331.5" font-family="Helvetica,sans-Serif" font-size="10.00">/UIObject.hpp</text>
</a>
</g>
</g>
<!-- Node1&#45;&gt;Node19 -->
<g id="edge22" class="edge">
<title>Node1&#45;&gt;Node19</title>
<path fill="none" stroke="midnightblue" d="M1231.52,-402.69C1353.5,-397.42 1604.16,-383.87 1814.5,-355 1817.57,-354.58 1820.71,-354.11 1823.87,-353.6"/>
<polygon fill="midnightblue" stroke="midnightblue" points="1231.03,-399.21 1221.19,-403.13 1231.33,-406.2 1231.03,-399.21"/>
</g>
<!-- Node35 -->
<g id="node35" class="node">
<title>Node35</title>
<g id="a_node35"><a xlink:href="GameObjectUtil_8hpp.html" target="_top" xlink:title=" ">
<polygon fill="none" stroke="black" points="2044,-324.5 2044,-354.5 2175,-354.5 2175,-324.5 2044,-324.5"/>
<text text-anchor="start" x="2052" y="-342.5" font-family="Helvetica,sans-Serif" font-size="10.00">includes/spic&#45;api&#45;headers</text>
<text text-anchor="middle" x="2109.5" y="-331.5" font-family="Helvetica,sans-Serif" font-size="10.00">/Utils/GameObjectUtil.hpp</text>
</a>
</g>
</g>
<!-- Node1&#45;&gt;Node35 -->
<g id="edge48" class="edge">
<title>Node1&#45;&gt;Node35</title>
<path fill="none" stroke="midnightblue" d="M1231.34,-401.7C1372.9,-394.24 1692.22,-376.48 1960.5,-355 1987.83,-352.81 2017.94,-349.96 2043.9,-347.37"/>
<polygon fill="midnightblue" stroke="midnightblue" points="1230.85,-398.22 1221.05,-402.24 1231.22,-405.21 1230.85,-398.22"/>
</g>
<!-- Node11&#45;&gt;Node10 -->
<g id="edge11" class="edge">
<title>Node11&#45;&gt;Node10</title>
<path fill="none" stroke="midnightblue" d="M1503.29,-321.03C1495.93,-308.45 1486.32,-292.01 1480.54,-282.13"/>
<polygon fill="midnightblue" stroke="midnightblue" points="1500.31,-322.87 1508.38,-329.73 1506.35,-319.33 1500.31,-322.87"/>
</g>
<!-- Node12 -->
<g id="node12" class="node">
<title>Node12</title>
<g id="a_node12"><a xlink:href="Subsystems_8hpp.html" target="_top" xlink:title=" ">
<polygon fill="none" stroke="black" points="1982.5,-62 1982.5,-81 2144.5,-81 2144.5,-62 1982.5,-62"/>
<text text-anchor="middle" x="2063.5" y="-69" font-family="Helvetica,sans-Serif" font-size="10.00">src/Subsystems/Subsystems.hpp</text>
</a>
</g>
</g>
<!-- Node11&#45;&gt;Node12 -->
<g id="edge12" class="edge">
<title>Node11&#45;&gt;Node12</title>
<path fill="none" stroke="midnightblue" d="M1541.64,-324.97C1555.95,-316.48 1572.07,-304.09 1580.5,-288 1600.74,-249.39 1566.85,-229.86 1584.5,-190 1601.68,-151.2 1614.3,-141.46 1652.5,-123 1708.98,-95.71 1879.42,-82.16 1982.23,-76.3"/>
<polygon fill="midnightblue" stroke="midnightblue" points="1539.65,-322.07 1532.6,-329.98 1543.04,-328.19 1539.65,-322.07"/>
</g>
<!-- Node13 -->
<g id="node13" class="node">
<title>Node13</title>
<g id="a_node13"><a xlink:href="Engine_8cpp.html" target="_top" xlink:title=" ">
<polygon fill="none" stroke="black" points="2237.5,-0.5 2237.5,-19.5 2335.5,-19.5 2335.5,-0.5 2237.5,-0.5"/>
<text text-anchor="middle" x="2286.5" y="-7.5" font-family="Helvetica,sans-Serif" font-size="10.00">src/Api/Engine.cpp</text>
</a>
</g>
</g>
<!-- Node12&#45;&gt;Node13 -->
<g id="edge13" class="edge">
<title>Node12&#45;&gt;Node13</title>
<path fill="none" stroke="midnightblue" d="M2105.12,-59.4C2148.43,-47.84 2215.31,-30 2254.61,-19.51"/>
<polygon fill="midnightblue" stroke="midnightblue" points="2104.21,-56.02 2095.45,-61.98 2106.01,-62.78 2104.21,-56.02"/>
</g>
<!-- Node16&#45;&gt;Node6 -->
<g id="edge18" class="edge">
<title>Node16&#45;&gt;Node6</title>
<path fill="none" stroke="midnightblue" d="M1223.71,-328.34C1131.13,-315.59 974.01,-293.95 887.4,-282.02"/>
<polygon fill="midnightblue" stroke="midnightblue" points="1223.46,-331.84 1233.84,-329.73 1224.41,-324.9 1223.46,-331.84"/>
</g>
<!-- Node16&#45;&gt;Node14 -->
<g id="edge19" class="edge">
<title>Node16&#45;&gt;Node14</title>
<path fill="none" stroke="midnightblue" d="M1303.23,-314.29C1308.25,-296.95 1316.9,-273.8 1330.5,-257 1403.93,-166.3 1533.69,-103 1583.37,-81.02"/>
<polygon fill="midnightblue" stroke="midnightblue" points="1299.78,-313.66 1300.57,-324.22 1306.54,-315.47 1299.78,-313.66"/>
</g>
<!-- Node16&#45;&gt;Node15 -->
<g id="edge20" class="edge">
<title>Node16&#45;&gt;Node15</title>
<path fill="none" stroke="midnightblue" d="M1311.64,-316.01C1324.77,-297.12 1346.08,-271.04 1371.5,-257 1440.67,-218.81 1532.4,-208.48 1592.87,-206.2"/>
<polygon fill="midnightblue" stroke="midnightblue" points="1308.7,-314.11 1306.04,-324.36 1314.51,-318.01 1308.7,-314.11"/>
</g>
<!-- Node17 -->
<g id="node17" class="node">
<title>Node17</title>
<g id="a_node17"><a xlink:href="Camera_8cpp.html" target="_top" xlink:title=" ">
<polygon fill="none" stroke="black" points="1183.5,-263 1183.5,-282 1285.5,-282 1285.5,-263 1183.5,-263"/>
<text text-anchor="middle" x="1234.5" y="-270" font-family="Helvetica,sans-Serif" font-size="10.00">src/Api/Camera.cpp</text>
</a>
</g>
</g>
<!-- Node16&#45;&gt;Node17 -->
<g id="edge17" class="edge">
<title>Node16&#45;&gt;Node17</title>
<path fill="none" stroke="midnightblue" d="M1276.66,-317C1265.16,-305.13 1251.51,-291.05 1242.93,-282.19"/>
<polygon fill="midnightblue" stroke="midnightblue" points="1274.36,-319.65 1283.83,-324.4 1279.38,-314.78 1274.36,-319.65"/>
</g>
<!-- Node19&#45;&gt;Node15 -->
<g id="edge24" class="edge">
<title>Node19&#45;&gt;Node15</title>
<path fill="none" stroke="midnightblue" d="M1814.06,-322.31C1763.96,-310.73 1705.01,-295.86 1695.5,-288 1674.34,-270.51 1663.89,-238.85 1659.39,-220.56"/>
<polygon fill="midnightblue" stroke="midnightblue" points="1813.42,-325.75 1823.95,-324.57 1814.98,-318.93 1813.42,-325.75"/>
</g>
<!-- Node20 -->
<g id="node20" class="node">
<title>Node20</title>
<g id="a_node20"><a xlink:href="UIObject_8cpp.html" target="_top" xlink:title=" ">
<polygon fill="none" stroke="black" points="1994,-263 1994,-282 2101,-282 2101,-263 1994,-263"/>
<text text-anchor="middle" x="2047.5" y="-270" font-family="Helvetica,sans-Serif" font-size="10.00">src/Api/UIObject.cpp</text>
</a>
</g>
</g>
<!-- Node19&#45;&gt;Node20 -->
<g id="edge23" class="edge">
<title>Node19&#45;&gt;Node20</title>
<path fill="none" stroke="midnightblue" d="M1931.51,-320.62C1962.48,-308.04 2002.54,-291.77 2026.56,-282.01"/>
<polygon fill="midnightblue" stroke="midnightblue" points="1930.16,-317.39 1922.22,-324.4 1932.8,-323.87 1930.16,-317.39"/>
</g>
<!-- Node21 -->
<g id="node21" class="node">
<title>Node21</title>
<g id="a_node21"><a xlink:href="Button_8hpp.html" target="_top" xlink:title=" ">
<polygon fill="none" stroke="black" points="1704,-257.5 1704,-287.5 1831,-287.5 1831,-257.5 1704,-257.5"/>
<text text-anchor="start" x="1712" y="-275.5" font-family="Helvetica,sans-Serif" font-size="10.00">includes/spic&#45;api&#45;headers</text>
<text text-anchor="middle" x="1767.5" y="-264.5" font-family="Helvetica,sans-Serif" font-size="10.00">/Button.hpp</text>
</a>
</g>
</g>
<!-- Node19&#45;&gt;Node21 -->
<g id="edge25" class="edge">
<title>Node19&#45;&gt;Node21</title>
<path fill="none" stroke="midnightblue" d="M1852.56,-319.57C1833.68,-309.35 1810.77,-296.94 1793.49,-287.58"/>
<polygon fill="midnightblue" stroke="midnightblue" points="1851,-322.71 1861.46,-324.4 1854.34,-316.56 1851,-322.71"/>
</g>
<!-- Node25 -->
<g id="node25" class="node">
<title>Node25</title>
<g id="a_node25"><a xlink:href="Text_8hpp.html" target="_top" xlink:title=" ">
<polygon fill="none" stroke="black" points="1849,-257.5 1849,-287.5 1976,-287.5 1976,-257.5 1849,-257.5"/>
<text text-anchor="start" x="1857" y="-275.5" font-family="Helvetica,sans-Serif" font-size="10.00">includes/spic&#45;api&#45;headers</text>
<text text-anchor="middle" x="1912.5" y="-264.5" font-family="Helvetica,sans-Serif" font-size="10.00">/Text.hpp</text>
</a>
</g>
</g>
<!-- Node19&#45;&gt;Node25 -->
<g id="edge31" class="edge">
<title>Node19&#45;&gt;Node25</title>
<path fill="none" stroke="midnightblue" d="M1896.54,-314.99C1900.08,-305.8 1904.01,-295.58 1907.09,-287.58"/>
<polygon fill="midnightblue" stroke="midnightblue" points="1893.25,-313.81 1892.92,-324.4 1899.78,-316.32 1893.25,-313.81"/>
</g>
<!-- Node21&#45;&gt;Node15 -->
<g id="edge30" class="edge">
<title>Node21&#45;&gt;Node15</title>
<path fill="none" stroke="midnightblue" d="M1734.7,-252.3C1717.34,-242.12 1696.38,-229.85 1680.54,-220.58"/>
<polygon fill="midnightblue" stroke="midnightblue" points="1733.02,-255.36 1743.41,-257.4 1736.55,-249.32 1733.02,-255.36"/>
</g>
<!-- Node22 -->
<g id="node22" class="node">
<title>Node22</title>
<g id="a_node22"><a xlink:href="Button_8cpp.html" target="_top" xlink:title=" ">
<polygon fill="none" stroke="black" points="1661,-129 1661,-148 1758,-148 1758,-129 1661,-129"/>
<text text-anchor="middle" x="1709.5" y="-136" font-family="Helvetica,sans-Serif" font-size="10.00">src/Api/Button.cpp</text>
</a>
</g>
</g>
<!-- Node21&#45;&gt;Node22 -->
<g id="edge26" class="edge">
<title>Node21&#45;&gt;Node22</title>
<path fill="none" stroke="midnightblue" d="M1757.22,-248.1C1744.1,-218.25 1722.06,-168.08 1713.28,-148.1"/>
<polygon fill="midnightblue" stroke="midnightblue" points="1754.07,-249.63 1761.29,-257.37 1760.47,-246.81 1754.07,-249.63"/>
</g>
<!-- Node23 -->
<g id="node23" class="node">
<title>Node23</title>
<g id="a_node23"><a xlink:href="ButtonMouseListener_8hpp.html" target="_top" xlink:title=" ">
<polygon fill="none" stroke="black" points="1776.5,-190.5 1776.5,-220.5 1910.5,-220.5 1910.5,-190.5 1776.5,-190.5"/>
<text text-anchor="start" x="1784.5" y="-208.5" font-family="Helvetica,sans-Serif" font-size="10.00">src/Listeners/ButtonMouse</text>
<text text-anchor="middle" x="1843.5" y="-197.5" font-family="Helvetica,sans-Serif" font-size="10.00">Listener.hpp</text>
</a>
</g>
</g>
<!-- Node21&#45;&gt;Node23 -->
<g id="edge27" class="edge">
<title>Node21&#45;&gt;Node23</title>
<path fill="none" stroke="midnightblue" d="M1791.61,-250.88C1803.16,-241.01 1816.69,-229.43 1827.04,-220.58"/>
<polygon fill="midnightblue" stroke="midnightblue" points="1789.32,-248.24 1783.99,-257.4 1793.87,-253.56 1789.32,-248.24"/>
</g>
<!-- Node23&#45;&gt;Node22 -->
<g id="edge28" class="edge">
<title>Node23&#45;&gt;Node22</title>
<path fill="none" stroke="midnightblue" d="M1805.29,-185.97C1779.55,-173.48 1746.81,-157.6 1727.04,-148.01"/>
<polygon fill="midnightblue" stroke="midnightblue" points="1803.9,-189.18 1814.42,-190.4 1806.95,-182.88 1803.9,-189.18"/>
</g>
<!-- Node24 -->
<g id="node24" class="node">
<title>Node24</title>
<g id="a_node24"><a xlink:href="ButtonMouseListener_8cpp.html" target="_top" xlink:title=" ">
<polygon fill="none" stroke="black" points="1776.5,-123.5 1776.5,-153.5 1910.5,-153.5 1910.5,-123.5 1776.5,-123.5"/>
<text text-anchor="start" x="1784.5" y="-141.5" font-family="Helvetica,sans-Serif" font-size="10.00">src/Listeners/ButtonMouse</text>
<text text-anchor="middle" x="1843.5" y="-130.5" font-family="Helvetica,sans-Serif" font-size="10.00">Listener.cpp</text>
</a>
</g>
</g>
<!-- Node23&#45;&gt;Node24 -->
<g id="edge29" class="edge">
<title>Node23&#45;&gt;Node24</title>
<path fill="none" stroke="midnightblue" d="M1843.5,-180.11C1843.5,-171.15 1843.5,-161.32 1843.5,-153.58"/>
<polygon fill="midnightblue" stroke="midnightblue" points="1840,-180.4 1843.5,-190.4 1847,-180.4 1840,-180.4"/>
</g>
<!-- Node25&#45;&gt;Node14 -->
<g id="edge46" class="edge">
<title>Node25&#45;&gt;Node14</title>
<path fill="none" stroke="midnightblue" d="M1922.59,-247.66C1934.47,-215.35 1949.12,-157.73 1919.5,-123 1891.38,-90.03 1780.19,-78.49 1697.61,-74.5"/>
<polygon fill="midnightblue" stroke="midnightblue" points="1919.24,-246.61 1918.88,-257.19 1925.76,-249.14 1919.24,-246.61"/>
</g>
<!-- Node25&#45;&gt;Node15 -->
<g id="edge47" class="edge">
<title>Node25&#45;&gt;Node15</title>
<path fill="none" stroke="midnightblue" d="M1847.45,-254.98C1805.64,-244.37 1751.89,-230.72 1712.08,-220.61"/>
<polygon fill="midnightblue" stroke="midnightblue" points="1846.71,-258.41 1857.27,-257.48 1848.44,-251.62 1846.71,-258.41"/>
</g>
<!-- Node26 -->
<g id="node26" class="node">
<title>Node26</title>
<g id="a_node26"><a xlink:href="Text_8cpp.html" target="_top" xlink:title=" ">
<polygon fill="none" stroke="black" points="2230,-196 2230,-215 2317,-215 2317,-196 2230,-196"/>
<text text-anchor="middle" x="2273.5" y="-203" font-family="Helvetica,sans-Serif" font-size="10.00">src/Api/Text.cpp</text>
</a>
</g>
</g>
<!-- Node25&#45;&gt;Node26 -->
<g id="edge32" class="edge">
<title>Node25&#45;&gt;Node26</title>
<path fill="none" stroke="midnightblue" d="M1986.24,-256.93C2091.31,-238.94 2120.28,-242.31 2220.5,-221 2228.43,-219.31 2236.94,-217.15 2244.77,-215.01"/>
<polygon fill="midnightblue" stroke="midnightblue" points="1985.42,-253.52 1976.17,-258.68 1986.62,-260.42 1985.42,-253.52"/>
</g>
<!-- Node27 -->
<g id="node27" class="node">
<title>Node27</title>
<g id="a_node27"><a xlink:href="Window_8hpp.html" target="_top" xlink:title=" ">
<polygon fill="none" stroke="black" points="2091.5,-196 2091.5,-215 2211.5,-215 2211.5,-196 2091.5,-196"/>
<text text-anchor="middle" x="2151.5" y="-203" font-family="Helvetica,sans-Serif" font-size="10.00">src/Models/Window.hpp</text>
</a>
</g>
</g>
<!-- Node25&#45;&gt;Node27 -->
<g id="edge33" class="edge">
<title>Node25&#45;&gt;Node27</title>
<path fill="none" stroke="midnightblue" d="M1973.79,-254.83C2020.57,-242.11 2083.09,-225.11 2120.14,-215.03"/>
<polygon fill="midnightblue" stroke="midnightblue" points="1972.8,-251.47 1964.07,-257.48 1974.63,-258.23 1972.8,-251.47"/>
</g>
<!-- Node28 -->
<g id="node28" class="node">
<title>Node28</title>
<g id="a_node28"><a xlink:href="TimeManager_8hpp.html" target="_top" xlink:title=" ">
<polygon fill="none" stroke="black" points="2330.5,-129 2330.5,-148 2486.5,-148 2486.5,-129 2330.5,-129"/>
<text text-anchor="middle" x="2408.5" y="-136" font-family="Helvetica,sans-Serif" font-size="10.00">src/Managers/TimeManager.hpp</text>
</a>
</g>
</g>
<!-- Node27&#45;&gt;Node28 -->
<g id="edge34" class="edge">
<title>Node27&#45;&gt;Node28</title>
<path fill="none" stroke="midnightblue" d="M2195.37,-193.4C2246.09,-180.58 2328.49,-159.74 2374.56,-148.08"/>
<polygon fill="midnightblue" stroke="midnightblue" points="2194.2,-190.09 2185.36,-195.94 2195.92,-196.88 2194.2,-190.09"/>
</g>
<!-- Node32 -->
<g id="node32" class="node">
<title>Node32</title>
<g id="a_node32"><a xlink:href="Window_8cpp.html" target="_top" xlink:title=" ">
<polygon fill="none" stroke="black" points="2504.5,-129 2504.5,-148 2624.5,-148 2624.5,-129 2504.5,-129"/>
<text text-anchor="middle" x="2564.5" y="-136" font-family="Helvetica,sans-Serif" font-size="10.00">src/Models/Window.cpp</text>
</a>
</g>
</g>
<!-- Node27&#45;&gt;Node32 -->
<g id="edge39" class="edge">
<title>Node27&#45;&gt;Node32</title>
<path fill="none" stroke="midnightblue" d="M2200.46,-193.88C2207.5,-192.49 2214.68,-191.15 2221.5,-190 2342.61,-169.53 2374.42,-174.64 2495.5,-154 2505.64,-152.27 2516.55,-150.12 2526.64,-148"/>
<polygon fill="midnightblue" stroke="midnightblue" points="2199.39,-190.53 2190.28,-195.94 2200.78,-197.39 2199.39,-190.53"/>
</g>
<!-- Node33 -->
<g id="node33" class="node">
<title>Node33</title>
<g id="a_node33"><a xlink:href="FpsCounterSubsystem_8hpp.html" target="_top" xlink:title=" ">
<polygon fill="none" stroke="black" points="2172.5,-123.5 2172.5,-153.5 2312.5,-153.5 2312.5,-123.5 2172.5,-123.5"/>
<text text-anchor="start" x="2180.5" y="-141.5" font-family="Helvetica,sans-Serif" font-size="10.00">src/Subsystems/FpsCounter</text>
<text text-anchor="middle" x="2242.5" y="-130.5" font-family="Helvetica,sans-Serif" font-size="10.00">Subsystem.hpp</text>
</a>
</g>
</g>
<!-- Node27&#45;&gt;Node33 -->
<g id="edge40" class="edge">
<title>Node27&#45;&gt;Node33</title>
<path fill="none" stroke="midnightblue" d="M2172.01,-189.85C2187.2,-179 2207.78,-164.3 2222.78,-153.59"/>
<polygon fill="midnightblue" stroke="midnightblue" points="2169.88,-187.07 2163.77,-195.73 2173.94,-192.77 2169.88,-187.07"/>
</g>
<!-- Node34 -->
<g id="node34" class="node">
<title>Node34</title>
<g id="a_node34"><a xlink:href="RenderSubsystem_8hpp.html" target="_top" xlink:title=" ">
<polygon fill="none" stroke="black" points="1966.5,-129 1966.5,-148 2154.5,-148 2154.5,-129 1966.5,-129"/>
<text text-anchor="middle" x="2060.5" y="-136" font-family="Helvetica,sans-Serif" font-size="10.00">src/Subsystems/RenderSubsystem.hpp</text>
</a>
</g>
</g>
<!-- Node27&#45;&gt;Node34 -->
<g id="edge43" class="edge">
<title>Node27&#45;&gt;Node34</title>
<path fill="none" stroke="midnightblue" d="M2131.09,-189.92C2113.1,-177.07 2087.49,-158.78 2072.58,-148.13"/>
<polygon fill="midnightblue" stroke="midnightblue" points="2129.06,-192.77 2139.23,-195.73 2133.12,-187.07 2129.06,-192.77"/>
</g>
<!-- Node28&#45;&gt;Node13 -->
<g id="edge35" class="edge">
<title>Node28&#45;&gt;Node13</title>
<path fill="none" stroke="midnightblue" d="M2445.21,-124.96C2462.52,-116.98 2481.53,-104.74 2491.5,-87 2498.25,-74.99 2500.14,-66.74 2491.5,-56 2472.32,-32.15 2390.03,-20.22 2335.72,-14.84"/>
<polygon fill="midnightblue" stroke="midnightblue" points="2443.65,-121.81 2435.83,-128.96 2446.4,-128.25 2443.65,-121.81"/>
</g>
<!-- Node29 -->
<g id="node29" class="node">
<title>Node29</title>
<g id="a_node29"><a xlink:href="src_2Api_2Time_8cpp.html" target="_top" xlink:title=" ">
<polygon fill="none" stroke="black" points="2538.5,-62 2538.5,-81 2628.5,-81 2628.5,-62 2538.5,-62"/>
<text text-anchor="middle" x="2583.5" y="-69" font-family="Helvetica,sans-Serif" font-size="10.00">src/Api/Time.cpp</text>
</a>
</g>
</g>
<!-- Node28&#45;&gt;Node29 -->
<g id="edge36" class="edge">
<title>Node28&#45;&gt;Node29</title>
<path fill="none" stroke="midnightblue" d="M2441.43,-125.27C2476.16,-112.37 2529.99,-92.38 2560.44,-81.06"/>
<polygon fill="midnightblue" stroke="midnightblue" points="2439.89,-122.11 2431.74,-128.87 2442.33,-128.67 2439.89,-122.11"/>
</g>
<!-- Node30 -->
<g id="node30" class="node">
<title>Node30</title>
<g id="a_node30"><a xlink:href="TimeManager_8cpp.html" target="_top" xlink:title=" ">
<polygon fill="none" stroke="black" points="2326.5,-62 2326.5,-81 2482.5,-81 2482.5,-62 2326.5,-62"/>
<text text-anchor="middle" x="2404.5" y="-69" font-family="Helvetica,sans-Serif" font-size="10.00">src/Managers/TimeManager.cpp</text>
</a>
</g>
</g>
<!-- Node28&#45;&gt;Node30 -->
<g id="edge37" class="edge">
<title>Node28&#45;&gt;Node30</title>
<path fill="none" stroke="midnightblue" d="M2407.33,-118.54C2406.57,-106.17 2405.62,-90.62 2405.03,-81.13"/>
<polygon fill="midnightblue" stroke="midnightblue" points="2403.85,-118.97 2407.96,-128.73 2410.84,-118.54 2403.85,-118.97"/>
</g>
<!-- Node31 -->
<g id="node31" class="node">
<title>Node31</title>
<g id="a_node31"><a xlink:href="FpsCounterSubsystem_8cpp.html" target="_top" xlink:title=" ">
<polygon fill="none" stroke="black" points="2168.5,-56.5 2168.5,-86.5 2308.5,-86.5 2308.5,-56.5 2168.5,-56.5"/>
<text text-anchor="start" x="2176.5" y="-74.5" font-family="Helvetica,sans-Serif" font-size="10.00">src/Subsystems/FpsCounter</text>
<text text-anchor="middle" x="2238.5" y="-63.5" font-family="Helvetica,sans-Serif" font-size="10.00">Subsystem.cpp</text>
</a>
</g>
</g>
<!-- Node28&#45;&gt;Node31 -->
<g id="edge38" class="edge">
<title>Node28&#45;&gt;Node31</title>
<path fill="none" stroke="midnightblue" d="M2376.34,-125.2C2347.53,-114.19 2305.3,-98.04 2275.19,-86.53"/>
<polygon fill="midnightblue" stroke="midnightblue" points="2375.33,-128.57 2385.93,-128.87 2377.83,-122.03 2375.33,-128.57"/>
</g>
<!-- Node33&#45;&gt;Node12 -->
<g id="edge42" class="edge">
<title>Node33&#45;&gt;Node12</title>
<path fill="none" stroke="midnightblue" d="M2194.16,-119.95C2159.39,-107.32 2114.03,-90.85 2086.93,-81.01"/>
<polygon fill="midnightblue" stroke="midnightblue" points="2193.07,-123.27 2203.66,-123.4 2195.45,-116.69 2193.07,-123.27"/>
</g>
<!-- Node33&#45;&gt;Node31 -->
<g id="edge41" class="edge">
<title>Node33&#45;&gt;Node31</title>
<path fill="none" stroke="midnightblue" d="M2241.02,-113.4C2240.46,-104.37 2239.85,-94.41 2239.37,-86.58"/>
<polygon fill="midnightblue" stroke="midnightblue" points="2237.52,-113.63 2241.63,-123.4 2244.51,-113.2 2237.52,-113.63"/>
</g>
<!-- Node34&#45;&gt;Node12 -->
<g id="edge45" class="edge">
<title>Node34&#45;&gt;Node12</title>
<path fill="none" stroke="midnightblue" d="M2061.38,-118.54C2061.95,-106.17 2062.66,-90.62 2063.1,-81.13"/>
<polygon fill="midnightblue" stroke="midnightblue" points="2057.87,-118.58 2060.9,-128.73 2064.86,-118.91 2057.87,-118.58"/>
</g>
<!-- Node34&#45;&gt;Node14 -->
<g id="edge44" class="edge">
<title>Node34&#45;&gt;Node14</title>
<path fill="none" stroke="midnightblue" d="M1990.23,-127.51C1900.77,-114.78 1747.73,-93.01 1663.48,-81.03"/>
<polygon fill="midnightblue" stroke="midnightblue" points="1989.89,-130.99 2000.29,-128.94 1990.88,-124.06 1989.89,-130.99"/>
</g>
<!-- Node36 -->
<g id="node36" class="node">
<title>Node36</title>
<g id="a_node36"><a xlink:href="GameObjectUtil_8cpp.html" target="_top" xlink:title=" ">
<polygon fill="none" stroke="black" points="2119.5,-257.5 2119.5,-287.5 2247.5,-287.5 2247.5,-257.5 2119.5,-257.5"/>
<text text-anchor="start" x="2127.5" y="-275.5" font-family="Helvetica,sans-Serif" font-size="10.00">src/Api/Utils/GameObject</text>
<text text-anchor="middle" x="2183.5" y="-264.5" font-family="Helvetica,sans-Serif" font-size="10.00">Util.cpp</text>
</a>
</g>
</g>
<!-- Node35&#45;&gt;Node36 -->
<g id="edge49" class="edge">
<title>Node35&#45;&gt;Node36</title>
<path fill="none" stroke="midnightblue" d="M2133.3,-317.6C2144.47,-307.78 2157.49,-296.34 2167.47,-287.58"/>
<polygon fill="midnightblue" stroke="midnightblue" points="2130.76,-315.17 2125.56,-324.4 2135.38,-320.43 2130.76,-315.17"/>
</g>
</g>
</svg>
        <g id="navigator" transform="translate(0 0)" fill="#404254">
                <rect fill="#f2f5e9" fill-opacity="0.5" stroke="#606060" stroke-width=".5" x="0" y="0" width="60" height="60"/>
                <use id="zoomplus" xlink:href="#zoomPlus" x="17" y="9" onmousedown="handleZoom(evt,'in')"/>
                <use id="zoomminus" xlink:href="#zoomMin" x="42" y="9" onmousedown="handleZoom(evt,'out')"/>
                <use id="reset" xlink:href="#resetDef" x="30" y="36" onmousedown="handleReset()"/>
                <g id="arrowUp" xlink:href="#dirArrow" transform="translate(30 24)" onmousedown="handlePan(0,-1)">
                  <use xlink:href="#rim" fill="#404040">
                        <set attributeName="fill" to="#808080" begin="arrowUp.mouseover" end="arrowUp.mouseout"/>
                  </use>
                  <path fill="none" stroke="white" stroke-width="1.5" d="M0,-3.0v7 M-2.5,-0.5L0,-3.0L2.5,-0.5"/>
                </g>
                <g id="arrowRight" xlink:href="#dirArrow" transform="rotate(90) translate(36 -43)" onmousedown="handlePan(1,0)">
                  <use xlink:href="#rim" fill="#404040">
                        <set attributeName="fill" to="#808080" begin="arrowRight.mouseover" end="arrowRight.mouseout"/>
                  </use>
                  <path fill="none" stroke="white" stroke-width="1.5" d="M0,-3.0v7 M-2.5,-0.5L0,-3.0L2.5,-0.5"/>
                </g>
                <g id="arrowDown" xlink:href="#dirArrow" transform="rotate(180) translate(-30 -48)" onmousedown="handlePan(0,1)">
                  <use xlink:href="#rim" fill="#404040">
                        <set attributeName="fill" to="#808080" begin="arrowDown.mouseover" end="arrowDown.mouseout"/>
                  </use>
                  <path fill="none" stroke="white" stroke-width="1.5" d="M0,-3.0v7 M-2.5,-0.5L0,-3.0L2.5,-0.5"/>
                </g>
                <g id="arrowLeft" xlink:href="#dirArrow" transform="rotate(270) translate(-36 17)" onmousedown="handlePan(-1,0)">
                  <use xlink:href="#rim" fill="#404040">
                        <set attributeName="fill" to="#808080" begin="arrowLeft.mouseover" end="arrowLeft.mouseout"/>
                  </use>
                  <path fill="none" stroke="white" stroke-width="1.5" d="M0,-3.0v7 M-2.5,-0.5L0,-3.0L2.5,-0.5"/>
                </g>
        </g>
        <svg viewBox="0 0 15 15" width="100%" height="30px" preserveAspectRatio="xMaxYMin meet">
         <g id="arrow_out" transform="scale(0.3 0.3)">
          <a xlink:href="GameObject_8hpp__dep__incl_org.svg" target="_base">
           <rect id="button" ry="5" rx="5" y="6" x="6" height="38" width="38"
                fill="#f2f5e9" fill-opacity="0.5" stroke="#606060" stroke-width="1.0"/>
           <path id="arrow"
             d="M 11.500037,31.436501 C 11.940474,20.09759 22.043105,11.32322 32.158766,21.979434 L 37.068811,17.246167 C 37.068811,17.246167 37.088388,32 37.088388,32 L 22.160133,31.978069 C 22.160133,31.978069 26.997745,27.140456 26.997745,27.140456 C 18.528582,18.264221 13.291696,25.230495 11.500037,31.436501 z"
             style="fill:#404040;"/>
          </a>
         </g>
        </svg>
</svg>
