<?xml version="1.0" encoding="UTF-8" standalone="no"?>
<!DOCTYPE svg PUBLIC "-//W3C//DTD SVG 1.1//EN"
 "http://www.w3.org/Graphics/SVG/1.1/DTD/svg11.dtd">
<!-- Generated by graphviz version 2.44.0 ()
 -->
<!-- Title: includes/spic&#45;api&#45;headers/GameObject.hpp Pages: 1 -->
<svg width="2017pt" height="430pt"
 viewBox="0.00 0.00 2016.50 430.00" xmlns="http://www.w3.org/2000/svg" xmlns:xlink="http://www.w3.org/1999/xlink">
<g id="graph0" class="graph" transform="scale(1 1) rotate(0) translate(4 426)">
<title>includes/spic&#45;api&#45;headers/GameObject.hpp</title>
<!-- Node1 -->
<g id="node1" class="node">
<title>Node1</title>
<g id="a_node1"><a xlink:title=" ">
<polygon fill="#bfbfbf" stroke="black" points="818,-391.5 818,-421.5 945,-421.5 945,-391.5 818,-391.5"/>
<text text-anchor="start" x="826" y="-409.5" font-family="Helvetica,sans-Serif" font-size="10.00">includes/spic&#45;api&#45;headers</text>
<text text-anchor="middle" x="881.5" y="-398.5" font-family="Helvetica,sans-Serif" font-size="10.00">/GameObject.hpp</text>
</a>
</g>
</g>
<!-- Node2 -->
<g id="node2" class="node">
<title>Node2</title>
<g id="a_node2"><a xlink:href="Animator_8cpp.html" target="_top" xlink:title=" ">
<polygon fill="none" stroke="black" points="0,-330 0,-349 107,-349 107,-330 0,-330"/>
<text text-anchor="middle" x="53.5" y="-337" font-family="Helvetica,sans-Serif" font-size="10.00">src/Api/Animator.cpp</text>
</a>
</g>
</g>
<!-- Node1&#45;&gt;Node2 -->
<g id="edge1" class="edge">
<title>Node1&#45;&gt;Node2</title>
<path fill="none" stroke="midnightblue" d="M807.55,-404.55C670.52,-401.92 368.21,-392.03 116.5,-355 106.51,-353.53 95.75,-351.3 86.01,-349.03"/>
<polygon fill="midnightblue" stroke="midnightblue" points="807.85,-408.05 817.92,-404.74 807.98,-401.06 807.85,-408.05"/>
</g>
<!-- Node3 -->
<g id="node3" class="node">
<title>Node3</title>
<g id="a_node3"><a xlink:href="AudioSource_8cpp.html" target="_top" xlink:title=" ">
<polygon fill="none" stroke="black" points="125.5,-330 125.5,-349 249.5,-349 249.5,-330 125.5,-330"/>
<text text-anchor="middle" x="187.5" y="-337" font-family="Helvetica,sans-Serif" font-size="10.00">src/Api/AudioSource.cpp</text>
</a>
</g>
</g>
<!-- Node1&#45;&gt;Node3 -->
<g id="edge2" class="edge">
<title>Node1&#45;&gt;Node3</title>
<path fill="none" stroke="midnightblue" d="M807.73,-402.4C690.78,-396.85 455.86,-383.05 258.5,-355 247.54,-353.44 235.72,-351.24 224.94,-349.03"/>
<polygon fill="midnightblue" stroke="midnightblue" points="807.84,-405.91 817.99,-402.88 808.16,-398.92 807.84,-405.91"/>
</g>
<!-- Node4 -->
<g id="node4" class="node">
<title>Node4</title>
<g id="a_node4"><a xlink:href="GameObject_8cpp.html" target="_top" xlink:title=" ">
<polygon fill="none" stroke="black" points="268,-330 268,-349 391,-349 391,-330 268,-330"/>
<text text-anchor="middle" x="329.5" y="-337" font-family="Helvetica,sans-Serif" font-size="10.00">src/Api/GameObject.cpp</text>
</a>
</g>
</g>
<!-- Node1&#45;&gt;Node4 -->
<g id="edge3" class="edge">
<title>Node1&#45;&gt;Node4</title>
<path fill="none" stroke="midnightblue" d="M807.79,-399.99C713.15,-392.41 544.02,-377.14 400.5,-355 389.81,-353.35 378.29,-351.17 367.7,-349.01"/>
<polygon fill="midnightblue" stroke="midnightblue" points="807.59,-403.49 817.83,-400.79 808.14,-396.51 807.59,-403.49"/>
</g>
<!-- Node5 -->
<g id="node5" class="node">
<title>Node5</title>
<g id="a_node5"><a xlink:href="ContactListener_8cpp.html" target="_top" xlink:title=" ">
<polygon fill="none" stroke="black" points="409.5,-330 409.5,-349 573.5,-349 573.5,-330 409.5,-330"/>
<text text-anchor="middle" x="491.5" y="-337" font-family="Helvetica,sans-Serif" font-size="10.00">src/Listeners/ContactListener.cpp</text>
</a>
</g>
</g>
<!-- Node1&#45;&gt;Node5 -->
<g id="edge4" class="edge">
<title>Node1&#45;&gt;Node5</title>
<path fill="none" stroke="midnightblue" d="M807.79,-393.22C730.25,-380.29 610.27,-360.3 542.55,-349.01"/>
<polygon fill="midnightblue" stroke="midnightblue" points="807.53,-396.72 817.97,-394.91 808.68,-389.82 807.53,-396.72"/>
</g>
<!-- Node6 -->
<g id="node6" class="node">
<title>Node6</title>
<g id="a_node6"><a xlink:href="InputManager_8cpp.html" target="_top" xlink:title=" ">
<polygon fill="none" stroke="black" points="344.5,-263 344.5,-282 500.5,-282 500.5,-263 344.5,-263"/>
<text text-anchor="middle" x="422.5" y="-270" font-family="Helvetica,sans-Serif" font-size="10.00">src/Managers/InputManager.cpp</text>
</a>
</g>
</g>
<!-- Node1&#45;&gt;Node6 -->
<g id="edge5" class="edge">
<title>Node1&#45;&gt;Node6</title>
<path fill="none" stroke="midnightblue" d="M807.74,-400.91C753.77,-395.29 679.9,-382.8 620.5,-355 600.76,-345.76 601.68,-334.35 582.5,-324 544.69,-303.59 497.34,-289.93 463.99,-282.03"/>
<polygon fill="midnightblue" stroke="midnightblue" points="807.63,-404.42 817.92,-401.92 808.31,-397.45 807.63,-404.42"/>
</g>
<!-- Node7 -->
<g id="node7" class="node">
<title>Node7</title>
<g id="a_node7"><a xlink:href="AnimatorSubsystem_8cpp.html" target="_top" xlink:title=" ">
<polygon fill="none" stroke="black" points="1302.5,-330 1302.5,-349 1498.5,-349 1498.5,-330 1302.5,-330"/>
<text text-anchor="middle" x="1400.5" y="-337" font-family="Helvetica,sans-Serif" font-size="10.00">src/Subsystems/AnimatorSubsystem.cpp</text>
</a>
</g>
</g>
<!-- Node1&#45;&gt;Node7 -->
<g id="edge6" class="edge">
<title>Node1&#45;&gt;Node7</title>
<path fill="none" stroke="midnightblue" d="M955.48,-396.44C1037.05,-386.42 1172.16,-369.75 1288.5,-355 1303.57,-353.09 1319.79,-351.01 1335.07,-349.03"/>
<polygon fill="midnightblue" stroke="midnightblue" points="954.81,-393 945.31,-397.69 955.66,-399.94 954.81,-393"/>
</g>
<!-- Node8 -->
<g id="node8" class="node">
<title>Node8</title>
<g id="a_node8"><a xlink:href="AudioSubsystem_8cpp.html" target="_top" xlink:title=" ">
<polygon fill="none" stroke="black" points="1516.5,-330 1516.5,-349 1698.5,-349 1698.5,-330 1516.5,-330"/>
<text text-anchor="middle" x="1607.5" y="-337" font-family="Helvetica,sans-Serif" font-size="10.00">src/Subsystems/AudioSubsystem.cpp</text>
</a>
</g>
</g>
<!-- Node1&#45;&gt;Node8 -->
<g id="edge7" class="edge">
<title>Node1&#45;&gt;Node8</title>
<path fill="none" stroke="midnightblue" d="M955.45,-401.06C1072.72,-393.68 1308.46,-377.44 1507.5,-355 1522.32,-353.33 1538.32,-351.17 1553.09,-349.03"/>
<polygon fill="midnightblue" stroke="midnightblue" points="954.92,-397.59 945.16,-401.7 955.36,-404.57 954.92,-397.59"/>
</g>
<!-- Node9 -->
<g id="node9" class="node">
<title>Node9</title>
<g id="a_node9"><a xlink:href="BehaviourScriptSubsystem_8cpp.html" target="_top" xlink:title=" ">
<polygon fill="none" stroke="black" points="1716.5,-324.5 1716.5,-354.5 1850.5,-354.5 1850.5,-324.5 1716.5,-324.5"/>
<text text-anchor="start" x="1724.5" y="-342.5" font-family="Helvetica,sans-Serif" font-size="10.00">src/Subsystems/Behaviour</text>
<text text-anchor="middle" x="1783.5" y="-331.5" font-family="Helvetica,sans-Serif" font-size="10.00">ScriptSubsystem.cpp</text>
</a>
</g>
</g>
<!-- Node1&#45;&gt;Node9 -->
<g id="edge8" class="edge">
<title>Node1&#45;&gt;Node9</title>
<path fill="none" stroke="midnightblue" d="M955.33,-404.14C1100.13,-400.77 1431.34,-389.64 1707.5,-355 1710.43,-354.63 1713.42,-354.22 1716.44,-353.78"/>
<polygon fill="midnightblue" stroke="midnightblue" points="955.15,-400.64 945.23,-404.37 955.31,-407.64 955.15,-400.64"/>
</g>
<!-- Node10 -->
<g id="node10" class="node">
<title>Node10</title>
<g id="a_node10"><a xlink:href="PhysicsSubsystem_8cpp.html" target="_top" xlink:title=" ">
<polygon fill="none" stroke="black" points="1284,-263 1284,-282 1475,-282 1475,-263 1284,-263"/>
<text text-anchor="middle" x="1379.5" y="-270" font-family="Helvetica,sans-Serif" font-size="10.00">src/Subsystems/PhysicsSubsystem.cpp</text>
</a>
</g>
</g>
<!-- Node1&#45;&gt;Node10 -->
<g id="edge9" class="edge">
<title>Node1&#45;&gt;Node10</title>
<path fill="none" stroke="midnightblue" d="M955.59,-400.28C1048.83,-392.9 1203.14,-377.71 1255.5,-355 1275.5,-346.33 1275.61,-336.44 1293.5,-324 1316.81,-307.79 1345.55,-291.62 1363.19,-282.1"/>
<polygon fill="midnightblue" stroke="midnightblue" points="955.06,-396.82 945.37,-401.08 955.61,-403.79 955.06,-396.82"/>
</g>
<!-- Node11 -->
<g id="node11" class="node">
<title>Node11</title>
<g id="a_node11"><a xlink:href="PhysicsSubsystem_8hpp.html" target="_top" xlink:title=" ">
<polygon fill="none" stroke="black" points="1055,-330 1055,-349 1246,-349 1246,-330 1055,-330"/>
<text text-anchor="middle" x="1150.5" y="-337" font-family="Helvetica,sans-Serif" font-size="10.00">src/Subsystems/PhysicsSubsystem.hpp</text>
</a>
</g>
</g>
<!-- Node1&#45;&gt;Node11 -->
<g id="edge10" class="edge">
<title>Node1&#45;&gt;Node11</title>
<path fill="none" stroke="midnightblue" d="M949.5,-389.07C1002.25,-376.32 1073.24,-359.17 1115.2,-349.03"/>
<polygon fill="midnightblue" stroke="midnightblue" points="948.44,-385.73 939.54,-391.48 950.08,-392.53 948.44,-385.73"/>
</g>
<!-- Node14 -->
<g id="node14" class="node">
<title>Node14</title>
<g id="a_node14"><a xlink:href="RenderSubsystem_8cpp.html" target="_top" xlink:title=" ">
<polygon fill="none" stroke="black" points="581.5,-62 581.5,-81 769.5,-81 769.5,-62 581.5,-62"/>
<text text-anchor="middle" x="675.5" y="-69" font-family="Helvetica,sans-Serif" font-size="10.00">src/Subsystems/RenderSubsystem.cpp</text>
</a>
</g>
</g>
<!-- Node1&#45;&gt;Node14 -->
<g id="edge14" class="edge">
<title>Node1&#45;&gt;Node14</title>
<path fill="none" stroke="midnightblue" d="M853.74,-385.15C830.48,-368.31 796.24,-343.98 765.5,-324 739.43,-307.05 728.76,-308.64 705.5,-288 677.3,-262.99 665.71,-256.66 653.5,-221 636.02,-169.96 661.19,-104.37 671.47,-81.13"/>
<polygon fill="midnightblue" stroke="midnightblue" points="851.94,-388.17 862.09,-391.22 856.06,-382.51 851.94,-388.17"/>
</g>
<!-- Node15 -->
<g id="node15" class="node">
<title>Node15</title>
<g id="a_node15"><a xlink:href="Api_8hpp.html" target="_top" xlink:title=" ">
<polygon fill="none" stroke="black" points="945,-190.5 945,-220.5 1072,-220.5 1072,-190.5 945,-190.5"/>
<text text-anchor="start" x="953" y="-208.5" font-family="Helvetica,sans-Serif" font-size="10.00">includes/spic&#45;api&#45;headers</text>
<text text-anchor="middle" x="1008.5" y="-197.5" font-family="Helvetica,sans-Serif" font-size="10.00">/Api.hpp</text>
</a>
</g>
</g>
<!-- Node1&#45;&gt;Node15 -->
<g id="edge15" class="edge">
<title>Node1&#45;&gt;Node15</title>
<path fill="none" stroke="midnightblue" d="M884.51,-381.18C887.27,-364.43 892.38,-342.02 901.5,-324 923.55,-280.43 966.26,-240.94 990.52,-220.71"/>
<polygon fill="midnightblue" stroke="midnightblue" points="881.02,-380.87 883.01,-391.27 887.94,-381.89 881.02,-380.87"/>
</g>
<!-- Node16 -->
<g id="node16" class="node">
<title>Node16</title>
<g id="a_node16"><a xlink:href="Camera_8hpp.html" target="_top" xlink:title=" ">
<polygon fill="none" stroke="black" points="630,-324.5 630,-354.5 757,-354.5 757,-324.5 630,-324.5"/>
<text text-anchor="start" x="638" y="-342.5" font-family="Helvetica,sans-Serif" font-size="10.00">includes/spic&#45;api&#45;headers</text>
<text text-anchor="middle" x="693.5" y="-331.5" font-family="Helvetica,sans-Serif" font-size="10.00">/Camera.hpp</text>
</a>
</g>
</g>
<!-- Node1&#45;&gt;Node16 -->
<g id="edge16" class="edge">
<title>Node1&#45;&gt;Node16</title>
<path fill="none" stroke="midnightblue" d="M831.15,-388.09C800.8,-377.6 762.65,-364.41 734.21,-354.58"/>
<polygon fill="midnightblue" stroke="midnightblue" points="830.11,-391.44 840.71,-391.4 832.4,-384.82 830.11,-391.44"/>
</g>
<!-- Node18 -->
<g id="node18" class="node">
<title>Node18</title>
<g id="a_node18"><a xlink:href="GameObject__templates_8hpp.html" target="_top" xlink:title=" ">
<polygon fill="none" stroke="black" points="1868.5,-324.5 1868.5,-354.5 2008.5,-354.5 2008.5,-324.5 1868.5,-324.5"/>
<text text-anchor="start" x="1876.5" y="-342.5" font-family="Helvetica,sans-Serif" font-size="10.00">includes/spic&#45;api&#45;headers</text>
<text text-anchor="middle" x="1938.5" y="-331.5" font-family="Helvetica,sans-Serif" font-size="10.00">/GameObject_templates.hpp</text>
</a>
</g>
</g>
<!-- Node1&#45;&gt;Node18 -->
<g id="edge21" class="edge">
<title>Node1&#45;&gt;Node18</title>
<path fill="none" stroke="midnightblue" d="M955.67,-404.95C1119.36,-403.03 1523.66,-394.32 1859.5,-355 1862.41,-354.66 1865.37,-354.28 1868.36,-353.86"/>
<polygon fill="midnightblue" stroke="midnightblue" points="955.2,-401.46 945.24,-405.07 955.28,-408.46 955.2,-401.46"/>
</g>
<!-- Node19 -->
<g id="node19" class="node">
<title>Node19</title>
<g id="a_node19"><a xlink:href="UIObject_8hpp.html" target="_top" xlink:title=" ">
<polygon fill="none" stroke="black" points="910,-324.5 910,-354.5 1037,-354.5 1037,-324.5 910,-324.5"/>
<text text-anchor="start" x="918" y="-342.5" font-family="Helvetica,sans-Serif" font-size="10.00">includes/spic&#45;api&#45;headers</text>
<text text-anchor="middle" x="973.5" y="-331.5" font-family="Helvetica,sans-Serif" font-size="10.00">/UIObject.hpp</text>
</a>
</g>
</g>
<!-- Node1&#45;&gt;Node19 -->
<g id="edge22" class="edge">
<title>Node1&#45;&gt;Node19</title>
<path fill="none" stroke="midnightblue" d="M909.88,-385.45C924.03,-375.45 940.81,-363.6 953.58,-354.58"/>
<polygon fill="midnightblue" stroke="midnightblue" points="907.61,-382.77 901.46,-391.4 911.65,-388.48 907.61,-382.77"/>
</g>
<!-- Node11&#45;&gt;Node10 -->
<g id="edge11" class="edge">
<title>Node11&#45;&gt;Node10</title>
<path fill="none" stroke="midnightblue" d="M1190.69,-327.09C1236,-314.23 1308.62,-293.62 1349.33,-282.06"/>
<polygon fill="midnightblue" stroke="midnightblue" points="1189.57,-323.77 1180.91,-329.87 1191.49,-330.5 1189.57,-323.77"/>
</g>
<!-- Node12 -->
<g id="node12" class="node">
<title>Node12</title>
<g id="a_node12"><a xlink:href="Subsystems_8hpp.html" target="_top" xlink:title=" ">
<polygon fill="none" stroke="black" points="976.5,-62 976.5,-81 1138.5,-81 1138.5,-62 976.5,-62"/>
<text text-anchor="middle" x="1057.5" y="-69" font-family="Helvetica,sans-Serif" font-size="10.00">src/Subsystems/Subsystems.hpp</text>
</a>
</g>
</g>
<!-- Node11&#45;&gt;Node12 -->
<g id="edge12" class="edge">
<title>Node11&#45;&gt;Node12</title>
<path fill="none" stroke="midnightblue" d="M1189.25,-325.95C1206.97,-318.04 1226.27,-305.88 1236.5,-288 1272.93,-224.36 1280.76,-181.47 1236.5,-123 1221.69,-103.43 1161.36,-89.3 1114.79,-81.04"/>
<polygon fill="midnightblue" stroke="midnightblue" points="1187.54,-322.87 1179.63,-329.91 1190.21,-329.34 1187.54,-322.87"/>
</g>
<!-- Node13 -->
<g id="node13" class="node">
<title>Node13</title>
<g id="a_node13"><a xlink:href="Engine_8cpp.html" target="_top" xlink:title=" ">
<polygon fill="none" stroke="black" points="1141.5,-0.5 1141.5,-19.5 1239.5,-19.5 1239.5,-0.5 1141.5,-0.5"/>
<text text-anchor="middle" x="1190.5" y="-7.5" font-family="Helvetica,sans-Serif" font-size="10.00">src/Api/Engine.cpp</text>
</a>
</g>
</g>
<!-- Node12&#45;&gt;Node13 -->
<g id="edge13" class="edge">
<title>Node12&#45;&gt;Node13</title>
<path fill="none" stroke="midnightblue" d="M1085.83,-57.83C1111.65,-46.28 1149.08,-29.53 1171.48,-19.51"/>
<polygon fill="midnightblue" stroke="midnightblue" points="1084.25,-54.7 1076.56,-61.98 1087.11,-61.09 1084.25,-54.7"/>
</g>
<!-- Node16&#45;&gt;Node6 -->
<g id="edge18" class="edge">
<title>Node16&#45;&gt;Node6</title>
<path fill="none" stroke="midnightblue" d="M625,-322.07C571.85,-309.32 500.34,-292.17 458.06,-282.03"/>
<polygon fill="midnightblue" stroke="midnightblue" points="624.49,-325.55 635.03,-324.48 626.12,-318.74 624.49,-325.55"/>
</g>
<!-- Node16&#45;&gt;Node14 -->
<g id="edge19" class="edge">
<title>Node16&#45;&gt;Node14</title>
<path fill="none" stroke="midnightblue" d="M620.91,-321.8C589.05,-312.86 556.77,-301.02 547.5,-288 492.97,-211.44 621.58,-110.66 663.11,-81.03"/>
<polygon fill="midnightblue" stroke="midnightblue" points="620.18,-325.23 630.75,-324.48 622.02,-318.47 620.18,-325.23"/>
</g>
<!-- Node16&#45;&gt;Node15 -->
<g id="edge20" class="edge">
<title>Node16&#45;&gt;Node15</title>
<path fill="none" stroke="midnightblue" d="M760.92,-321.68C789.35,-313.36 822.31,-302.06 850.5,-288 871.91,-277.33 873.69,-268.79 894.5,-257 919.46,-242.86 949.12,-229.83 971.93,-220.55"/>
<polygon fill="midnightblue" stroke="midnightblue" points="759.73,-318.38 751.08,-324.49 761.65,-325.11 759.73,-318.38"/>
</g>
<!-- Node17 -->
<g id="node17" class="node">
<title>Node17</title>
<g id="a_node17"><a xlink:href="Camera_8cpp.html" target="_top" xlink:title=" ">
<polygon fill="none" stroke="black" points="556.5,-263 556.5,-282 658.5,-282 658.5,-263 556.5,-263"/>
<text text-anchor="middle" x="607.5" y="-270" font-family="Helvetica,sans-Serif" font-size="10.00">src/Api/Camera.cpp</text>
</a>
</g>
</g>
<!-- Node16&#45;&gt;Node17 -->
<g id="edge17" class="edge">
<title>Node16&#45;&gt;Node17</title>
<path fill="none" stroke="midnightblue" d="M666.83,-318.34C650.78,-306.21 631.17,-291.39 619,-282.19"/>
<polygon fill="midnightblue" stroke="midnightblue" points="664.75,-321.16 674.84,-324.4 668.97,-315.57 664.75,-321.16"/>
</g>
<!-- Node19&#45;&gt;Node15 -->
<g id="edge24" class="edge">
<title>Node19&#45;&gt;Node15</title>
<path fill="none" stroke="midnightblue" d="M966.21,-314.49C962.42,-297.88 959.81,-275.52 966.5,-257 971.62,-242.84 982.62,-229.86 992.09,-220.6"/>
<polygon fill="midnightblue" stroke="midnightblue" points="962.91,-315.67 968.8,-324.48 969.68,-313.92 962.91,-315.67"/>
</g>
<!-- Node20 -->
<g id="node20" class="node">
<title>Node20</title>
<g id="a_node20"><a xlink:href="UIObject_8cpp.html" target="_top" xlink:title=" ">
<polygon fill="none" stroke="black" points="975,-263 975,-282 1082,-282 1082,-263 975,-263"/>
<text text-anchor="middle" x="1028.5" y="-270" font-family="Helvetica,sans-Serif" font-size="10.00">src/Api/UIObject.cpp</text>
</a>
</g>
</g>
<!-- Node19&#45;&gt;Node20 -->
<g id="edge23" class="edge">
<title>Node19&#45;&gt;Node20</title>
<path fill="none" stroke="midnightblue" d="M991.98,-316.66C1001.96,-304.86 1013.72,-290.97 1021.14,-282.19"/>
<polygon fill="midnightblue" stroke="midnightblue" points="989.22,-314.5 985.43,-324.4 994.57,-319.02 989.22,-314.5"/>
</g>
<!-- Node21 -->
<g id="node21" class="node">
<title>Node21</title>
<g id="a_node21"><a xlink:href="Button_8hpp.html" target="_top" xlink:title=" ">
<polygon fill="none" stroke="black" points="1100,-257.5 1100,-287.5 1227,-287.5 1227,-257.5 1100,-257.5"/>
<text text-anchor="start" x="1108" y="-275.5" font-family="Helvetica,sans-Serif" font-size="10.00">includes/spic&#45;api&#45;headers</text>
<text text-anchor="middle" x="1163.5" y="-264.5" font-family="Helvetica,sans-Serif" font-size="10.00">/Button.hpp</text>
</a>
</g>
</g>
<!-- Node19&#45;&gt;Node21 -->
<g id="edge25" class="edge">
<title>Node19&#45;&gt;Node21</title>
<path fill="none" stroke="midnightblue" d="M1024.39,-321.09C1055.06,-310.6 1093.61,-297.41 1122.35,-287.58"/>
<polygon fill="midnightblue" stroke="midnightblue" points="1023.06,-317.85 1014.73,-324.4 1025.32,-324.47 1023.06,-317.85"/>
</g>
<!-- Node25 -->
<g id="node25" class="node">
<title>Node25</title>
<g id="a_node25"><a xlink:href="Text_8hpp.html" target="_top" xlink:title=" ">
<polygon fill="none" stroke="black" points="715,-257.5 715,-287.5 842,-287.5 842,-257.5 715,-257.5"/>
<text text-anchor="start" x="723" y="-275.5" font-family="Helvetica,sans-Serif" font-size="10.00">includes/spic&#45;api&#45;headers</text>
<text text-anchor="middle" x="778.5" y="-264.5" font-family="Helvetica,sans-Serif" font-size="10.00">/Text.hpp</text>
</a>
</g>
</g>
<!-- Node19&#45;&gt;Node25 -->
<g id="edge31" class="edge">
<title>Node19&#45;&gt;Node25</title>
<path fill="none" stroke="midnightblue" d="M921.68,-321.23C890.14,-310.71 850.35,-297.45 820.73,-287.58"/>
<polygon fill="midnightblue" stroke="midnightblue" points="920.59,-324.55 931.19,-324.4 922.81,-317.91 920.59,-324.55"/>
</g>
<!-- Node21&#45;&gt;Node15 -->
<g id="edge30" class="edge">
<title>Node21&#45;&gt;Node15</title>
<path fill="none" stroke="midnightblue" d="M1120.35,-253.41C1095.61,-243.03 1065,-230.2 1042.07,-220.58"/>
<polygon fill="midnightblue" stroke="midnightblue" points="1119.29,-256.76 1129.87,-257.4 1122,-250.3 1119.29,-256.76"/>
</g>
<!-- Node22 -->
<g id="node22" class="node">
<title>Node22</title>
<g id="a_node22"><a xlink:href="Button_8cpp.html" target="_top" xlink:title=" ">
<polygon fill="none" stroke="black" points="1610,-129 1610,-148 1707,-148 1707,-129 1610,-129"/>
<text text-anchor="middle" x="1658.5" y="-136" font-family="Helvetica,sans-Serif" font-size="10.00">src/Api/Button.cpp</text>
</a>
</g>
</g>
<!-- Node21&#45;&gt;Node22 -->
<g id="edge26" class="edge">
<title>Node21&#45;&gt;Node22</title>
<path fill="none" stroke="midnightblue" d="M1237.26,-261.75C1250.01,-260.13 1263.13,-258.49 1275.5,-257 1347.65,-248.33 1537.85,-257.82 1600.5,-221 1629.7,-203.84 1648.07,-165.54 1655.16,-148.25"/>
<polygon fill="midnightblue" stroke="midnightblue" points="1236.62,-258.31 1227.15,-263.05 1237.51,-265.25 1236.62,-258.31"/>
</g>
<!-- Node23 -->
<g id="node23" class="node">
<title>Node23</title>
<g id="a_node23"><a xlink:href="ButtonMouseListener_8hpp.html" target="_top" xlink:title=" ">
<polygon fill="none" stroke="black" points="1457.5,-190.5 1457.5,-220.5 1591.5,-220.5 1591.5,-190.5 1457.5,-190.5"/>
<text text-anchor="start" x="1465.5" y="-208.5" font-family="Helvetica,sans-Serif" font-size="10.00">src/Listeners/ButtonMouse</text>
<text text-anchor="middle" x="1524.5" y="-197.5" font-family="Helvetica,sans-Serif" font-size="10.00">Listener.hpp</text>
</a>
</g>
</g>
<!-- Node21&#45;&gt;Node23 -->
<g id="edge27" class="edge">
<title>Node21&#45;&gt;Node23</title>
<path fill="none" stroke="midnightblue" d="M1237.32,-258.21C1301.92,-246.58 1394.95,-229.83 1457.45,-218.57"/>
<polygon fill="midnightblue" stroke="midnightblue" points="1236.43,-254.81 1227.21,-260.03 1237.67,-261.7 1236.43,-254.81"/>
</g>
<!-- Node23&#45;&gt;Node22 -->
<g id="edge28" class="edge">
<title>Node23&#45;&gt;Node22</title>
<path fill="none" stroke="midnightblue" d="M1562.71,-185.97C1588.45,-173.48 1621.19,-157.6 1640.96,-148.01"/>
<polygon fill="midnightblue" stroke="midnightblue" points="1561.05,-182.88 1553.58,-190.4 1564.1,-189.18 1561.05,-182.88"/>
</g>
<!-- Node24 -->
<g id="node24" class="node">
<title>Node24</title>
<g id="a_node24"><a xlink:href="ButtonMouseListener_8cpp.html" target="_top" xlink:title=" ">
<polygon fill="none" stroke="black" points="1457.5,-123.5 1457.5,-153.5 1591.5,-153.5 1591.5,-123.5 1457.5,-123.5"/>
<text text-anchor="start" x="1465.5" y="-141.5" font-family="Helvetica,sans-Serif" font-size="10.00">src/Listeners/ButtonMouse</text>
<text text-anchor="middle" x="1524.5" y="-130.5" font-family="Helvetica,sans-Serif" font-size="10.00">Listener.cpp</text>
</a>
</g>
</g>
<!-- Node23&#45;&gt;Node24 -->
<g id="edge29" class="edge">
<title>Node23&#45;&gt;Node24</title>
<path fill="none" stroke="midnightblue" d="M1524.5,-180.11C1524.5,-171.15 1524.5,-161.32 1524.5,-153.58"/>
<polygon fill="midnightblue" stroke="midnightblue" points="1521,-180.4 1524.5,-190.4 1528,-180.4 1521,-180.4"/>
</g>
<!-- Node25&#45;&gt;Node14 -->
<g id="edge46" class="edge">
<title>Node25&#45;&gt;Node14</title>
<path fill="none" stroke="midnightblue" d="M775.03,-247.4C772.05,-230.75 766.88,-208.38 758.5,-190 755.75,-183.98 700.64,-107.35 681.77,-81.19"/>
<polygon fill="midnightblue" stroke="midnightblue" points="771.6,-248.12 776.68,-257.42 778.51,-246.99 771.6,-248.12"/>
</g>
<!-- Node25&#45;&gt;Node15 -->
<g id="edge47" class="edge">
<title>Node25&#45;&gt;Node15</title>
<path fill="none" stroke="midnightblue" d="M837.89,-254.71C875.32,-244.14 923.1,-230.63 958.57,-220.61"/>
<polygon fill="midnightblue" stroke="midnightblue" points="836.79,-251.39 828.12,-257.48 838.7,-258.12 836.79,-251.39"/>
</g>
<!-- Node26 -->
<g id="node26" class="node">
<title>Node26</title>
<g id="a_node26"><a xlink:href="Text_8cpp.html" target="_top" xlink:title=" ">
<polygon fill="none" stroke="black" points="663,-196 663,-215 750,-215 750,-196 663,-196"/>
<text text-anchor="middle" x="706.5" y="-203" font-family="Helvetica,sans-Serif" font-size="10.00">src/Api/Text.cpp</text>
</a>
</g>
</g>
<!-- Node25&#45;&gt;Node26 -->
<g id="edge32" class="edge">
<title>Node25&#45;&gt;Node26</title>
<path fill="none" stroke="midnightblue" d="M755.43,-250.67C742.14,-238.67 726.13,-224.22 716.13,-215.19"/>
<polygon fill="midnightblue" stroke="midnightblue" points="753.11,-253.29 762.88,-257.4 757.8,-248.1 753.11,-253.29"/>
</g>
<!-- Node27 -->
<g id="node27" class="node">
<title>Node27</title>
<g id="a_node27"><a xlink:href="Window_8hpp.html" target="_top" xlink:title=" ">
<polygon fill="none" stroke="black" points="806.5,-196 806.5,-215 926.5,-215 926.5,-196 806.5,-196"/>
<text text-anchor="middle" x="866.5" y="-203" font-family="Helvetica,sans-Serif" font-size="10.00">src/Models/Window.hpp</text>
</a>
</g>
</g>
<!-- Node25&#45;&gt;Node27 -->
<g id="edge33" class="edge">
<title>Node25&#45;&gt;Node27</title>
<path fill="none" stroke="midnightblue" d="M805.84,-251.31C822.36,-239.1 842.57,-224.18 854.98,-215.01"/>
<polygon fill="midnightblue" stroke="midnightblue" points="803.56,-248.64 797.59,-257.4 807.72,-254.27 803.56,-248.64"/>
</g>
<!-- Node28 -->
<g id="node28" class="node">
<title>Node28</title>
<g id="a_node28"><a xlink:href="TimeManager_8hpp.html" target="_top" xlink:title=" ">
<polygon fill="none" stroke="black" points="1283.5,-129 1283.5,-148 1439.5,-148 1439.5,-129 1283.5,-129"/>
<text text-anchor="middle" x="1361.5" y="-136" font-family="Helvetica,sans-Serif" font-size="10.00">src/Managers/TimeManager.hpp</text>
</a>
</g>
</g>
<!-- Node27&#45;&gt;Node28 -->
<g id="edge34" class="edge">
<title>Node27&#45;&gt;Node28</title>
<path fill="none" stroke="midnightblue" d="M915.19,-193.85C922.32,-192.46 929.59,-191.12 936.5,-190 953.6,-187.22 1171.35,-161.69 1288.32,-148.03"/>
<polygon fill="midnightblue" stroke="midnightblue" points="914.01,-190.52 904.9,-195.93 915.4,-197.38 914.01,-190.52"/>
</g>
<!-- Node32 -->
<g id="node32" class="node">
<title>Node32</title>
<g id="a_node32"><a xlink:href="Window_8cpp.html" target="_top" xlink:title=" ">
<polygon fill="none" stroke="black" points="743.5,-129 743.5,-148 863.5,-148 863.5,-129 743.5,-129"/>
<text text-anchor="middle" x="803.5" y="-136" font-family="Helvetica,sans-Serif" font-size="10.00">src/Models/Window.cpp</text>
</a>
</g>
</g>
<!-- Node27&#45;&gt;Node32 -->
<g id="edge39" class="edge">
<title>Node27&#45;&gt;Node32</title>
<path fill="none" stroke="midnightblue" d="M850.99,-188.5C838.63,-175.75 821.81,-158.39 811.86,-148.13"/>
<polygon fill="midnightblue" stroke="midnightblue" points="848.53,-190.99 858,-195.73 853.56,-186.12 848.53,-190.99"/>
</g>
<!-- Node33 -->
<g id="node33" class="node">
<title>Node33</title>
<g id="a_node33"><a xlink:href="FpsCounterSubsystem_8hpp.html" target="_top" xlink:title=" ">
<polygon fill="none" stroke="black" points="1087.5,-123.5 1087.5,-153.5 1227.5,-153.5 1227.5,-123.5 1087.5,-123.5"/>
<text text-anchor="start" x="1095.5" y="-141.5" font-family="Helvetica,sans-Serif" font-size="10.00">src/Subsystems/FpsCounter</text>
<text text-anchor="middle" x="1157.5" y="-130.5" font-family="Helvetica,sans-Serif" font-size="10.00">Subsystem.hpp</text>
</a>
</g>
</g>
<!-- Node27&#45;&gt;Node33 -->
<g id="edge40" class="edge">
<title>Node27&#45;&gt;Node33</title>
<path fill="none" stroke="midnightblue" d="M914.61,-193.75C963.83,-182.76 1040.54,-165.63 1094.56,-153.56"/>
<polygon fill="midnightblue" stroke="midnightblue" points="913.84,-190.34 904.84,-195.94 915.36,-197.17 913.84,-190.34"/>
</g>
<!-- Node34 -->
<g id="node34" class="node">
<title>Node34</title>
<g id="a_node34"><a xlink:href="RenderSubsystem_8hpp.html" target="_top" xlink:title=" ">
<polygon fill="none" stroke="black" points="881.5,-129 881.5,-148 1069.5,-148 1069.5,-129 881.5,-129"/>
<text text-anchor="middle" x="975.5" y="-136" font-family="Helvetica,sans-Serif" font-size="10.00">src/Subsystems/RenderSubsystem.hpp</text>
</a>
</g>
</g>
<!-- Node27&#45;&gt;Node34 -->
<g id="edge43" class="edge">
<title>Node27&#45;&gt;Node34</title>
<path fill="none" stroke="midnightblue" d="M890.07,-190.44C911.66,-177.57 942.92,-158.93 961.03,-148.13"/>
<polygon fill="midnightblue" stroke="midnightblue" points="888,-187.61 881.2,-195.73 891.58,-193.62 888,-187.61"/>
</g>
<!-- Node28&#45;&gt;Node13 -->
<g id="edge35" class="edge">
<title>Node28&#45;&gt;Node13</title>
<path fill="none" stroke="midnightblue" d="M1353.21,-119.6C1343.92,-101.33 1327.28,-73.29 1305.5,-56 1282.75,-37.94 1251.86,-26.39 1227.83,-19.52"/>
<polygon fill="midnightblue" stroke="midnightblue" points="1350.07,-121.15 1357.59,-128.61 1356.36,-118.08 1350.07,-121.15"/>
</g>
<!-- Node29 -->
<g id="node29" class="node">
<title>Node29</title>
<g id="a_node29"><a xlink:href="src_2Api_2Time_8cpp.html" target="_top" xlink:title=" ">
<polygon fill="none" stroke="black" points="1352.5,-62 1352.5,-81 1442.5,-81 1442.5,-62 1352.5,-62"/>
<text text-anchor="middle" x="1397.5" y="-69" font-family="Helvetica,sans-Serif" font-size="10.00">src/Api/Time.cpp</text>
</a>
</g>
</g>
<!-- Node28&#45;&gt;Node29 -->
<g id="edge36" class="edge">
<title>Node28&#45;&gt;Node29</title>
<path fill="none" stroke="midnightblue" d="M1371.38,-119.66C1378.32,-107.13 1387.3,-90.91 1392.72,-81.13"/>
<polygon fill="midnightblue" stroke="midnightblue" points="1368.14,-118.29 1366.36,-128.73 1374.26,-121.68 1368.14,-118.29"/>
</g>
<!-- Node30 -->
<g id="node30" class="node">
<title>Node30</title>
<g id="a_node30"><a xlink:href="TimeManager_8cpp.html" target="_top" xlink:title=" ">
<polygon fill="none" stroke="black" points="1460.5,-62 1460.5,-81 1616.5,-81 1616.5,-62 1460.5,-62"/>
<text text-anchor="middle" x="1538.5" y="-69" font-family="Helvetica,sans-Serif" font-size="10.00">src/Managers/TimeManager.cpp</text>
</a>
</g>
</g>
<!-- Node28&#45;&gt;Node30 -->
<g id="edge37" class="edge">
<title>Node28&#45;&gt;Node30</title>
<path fill="none" stroke="midnightblue" d="M1394.8,-125.27C1429.93,-112.37 1484.38,-92.38 1515.18,-81.06"/>
<polygon fill="midnightblue" stroke="midnightblue" points="1393.18,-122.14 1385,-128.87 1395.6,-128.71 1393.18,-122.14"/>
</g>
<!-- Node31 -->
<g id="node31" class="node">
<title>Node31</title>
<g id="a_node31"><a xlink:href="FpsCounterSubsystem_8cpp.html" target="_top" xlink:title=" ">
<polygon fill="none" stroke="black" points="1156.5,-56.5 1156.5,-86.5 1296.5,-86.5 1296.5,-56.5 1156.5,-56.5"/>
<text text-anchor="start" x="1164.5" y="-74.5" font-family="Helvetica,sans-Serif" font-size="10.00">src/Subsystems/FpsCounter</text>
<text text-anchor="middle" x="1226.5" y="-63.5" font-family="Helvetica,sans-Serif" font-size="10.00">Subsystem.cpp</text>
</a>
</g>
</g>
<!-- Node28&#45;&gt;Node31 -->
<g id="edge38" class="edge">
<title>Node28&#45;&gt;Node31</title>
<path fill="none" stroke="midnightblue" d="M1334.45,-124.47C1311.62,-113.49 1279.03,-97.79 1255.64,-86.53"/>
<polygon fill="midnightblue" stroke="midnightblue" points="1333.04,-127.68 1343.57,-128.87 1336.08,-121.38 1333.04,-127.68"/>
</g>
<!-- Node33&#45;&gt;Node12 -->
<g id="edge42" class="edge">
<title>Node33&#45;&gt;Node12</title>
<path fill="none" stroke="midnightblue" d="M1127.2,-117.81C1108.29,-105.51 1084.89,-90.3 1070.59,-81.01"/>
<polygon fill="midnightblue" stroke="midnightblue" points="1125.51,-120.88 1135.8,-123.4 1129.32,-115.01 1125.51,-120.88"/>
</g>
<!-- Node33&#45;&gt;Node31 -->
<g id="edge41" class="edge">
<title>Node33&#45;&gt;Node31</title>
<path fill="none" stroke="midnightblue" d="M1179.99,-116.31C1190.34,-106.56 1202.34,-95.26 1211.56,-86.58"/>
<polygon fill="midnightblue" stroke="midnightblue" points="1177.35,-113.99 1172.47,-123.4 1182.15,-119.09 1177.35,-113.99"/>
</g>
<!-- Node34&#45;&gt;Node12 -->
<g id="edge45" class="edge">
<title>Node34&#45;&gt;Node12</title>
<path fill="none" stroke="midnightblue" d="M994.78,-122.21C1010.94,-109.41 1033.42,-91.59 1046.62,-81.13"/>
<polygon fill="midnightblue" stroke="midnightblue" points="992.22,-119.78 986.56,-128.73 996.57,-125.26 992.22,-119.78"/>
</g>
<!-- Node34&#45;&gt;Node14 -->
<g id="edge44" class="edge">
<title>Node34&#45;&gt;Node14</title>
<path fill="none" stroke="midnightblue" d="M926.13,-126.8C867.09,-114.01 769.46,-92.86 715.12,-81.08"/>
<polygon fill="midnightblue" stroke="midnightblue" points="925.46,-130.24 935.97,-128.94 926.94,-123.4 925.46,-130.24"/>
</g>
</g>
</svg>
