<?xml version="1.0" encoding="UTF-8" standalone="no"?>
<!DOCTYPE svg PUBLIC "-//W3C//DTD SVG 1.1//EN"
 "http://www.w3.org/Graphics/SVG/1.1/DTD/svg11.dtd">
<!-- Generated by graphviz version 2.44.0 ()
 -->
<!-- Title: includes/spic&#45;api&#45;headers/Utils/GameObjectUtil.hpp Pages: 1 -->
<svg width="388pt" height="207pt"
 viewBox="0.00 0.00 387.50 207.00" xmlns="http://www.w3.org/2000/svg" xmlns:xlink="http://www.w3.org/1999/xlink">
<g id="graph0" class="graph" transform="scale(1 1) rotate(0) translate(4 203)">
<title>includes/spic&#45;api&#45;headers/Utils/GameObjectUtil.hpp</title>
<!-- Node1 -->
<g id="node1" class="node">
<title>Node1</title>
<g id="a_node1"><a xlink:title=" ">
<polygon fill="#bfbfbf" stroke="black" points="0,-168.5 0,-198.5 131,-198.5 131,-168.5 0,-168.5"/>
<text text-anchor="start" x="8" y="-186.5" font-family="Helvetica,sans-Serif" font-size="10.00">includes/spic&#45;api&#45;headers</text>
<text text-anchor="middle" x="65.5" y="-175.5" font-family="Helvetica,sans-Serif" font-size="10.00">/Utils/GameObjectUtil.hpp</text>
</a>
</g>
</g>
<!-- Node2 -->
<g id="node2" class="node">
<title>Node2</title>
<g id="a_node2"><a xlink:title=" ">
<polygon fill="none" stroke="#bfbfbf" points="24,-0.5 24,-19.5 75,-19.5 75,-0.5 24,-0.5"/>
<text text-anchor="middle" x="49.5" y="-7.5" font-family="Helvetica,sans-Serif" font-size="10.00">memory</text>
</a>
</g>
</g>
<!-- Node1&#45;&gt;Node2 -->
<g id="edge1" class="edge">
<title>Node1&#45;&gt;Node2</title>
<path fill="none" stroke="midnightblue" d="M63.92,-168.39C61.67,-148 57.49,-109.14 54.5,-76 53.1,-60.48 51.76,-42.86 50.82,-29.88"/>
<polygon fill="midnightblue" stroke="midnightblue" points="54.31,-29.56 50.11,-19.84 47.33,-30.06 54.31,-29.56"/>
</g>
<!-- Node3 -->
<g id="node3" class="node">
<title>Node3</title>
<g id="a_node3"><a xlink:href="GameObject_8hpp.html" target="_top" xlink:title=" ">
<polygon fill="none" stroke="black" points="124,-112.5 124,-131.5 213,-131.5 213,-112.5 124,-112.5"/>
<text text-anchor="middle" x="168.5" y="-119.5" font-family="Helvetica,sans-Serif" font-size="10.00">GameObject.hpp</text>
</a>
</g>
</g>
<!-- Node1&#45;&gt;Node3 -->
<g id="edge2" class="edge">
<title>Node1&#45;&gt;Node3</title>
<path fill="none" stroke="midnightblue" d="M89.91,-168.4C106.42,-158.86 128.12,-146.32 144.54,-136.84"/>
<polygon fill="midnightblue" stroke="midnightblue" points="146.6,-139.69 153.51,-131.66 143.1,-133.63 146.6,-139.69"/>
</g>
<!-- Node3&#45;&gt;Node2 -->
<g id="edge9" class="edge">
<title>Node3&#45;&gt;Node2</title>
<path fill="none" stroke="midnightblue" d="M130.99,-112.44C109.89,-105.81 84.62,-94.53 68.5,-76 57.29,-63.12 52.69,-43.95 50.8,-29.76"/>
<polygon fill="midnightblue" stroke="midnightblue" points="54.27,-29.26 49.79,-19.66 47.3,-29.96 54.27,-29.26"/>
</g>
<!-- Node4 -->
<g id="node4" class="node">
<title>Node4</title>
<g id="a_node4"><a xlink:href="Component_8hpp.html" target="_top" xlink:title=" ">
<polygon fill="none" stroke="black" points="77.5,-56.5 77.5,-75.5 161.5,-75.5 161.5,-56.5 77.5,-56.5"/>
<text text-anchor="middle" x="119.5" y="-63.5" font-family="Helvetica,sans-Serif" font-size="10.00">Component.hpp</text>
</a>
</g>
</g>
<!-- Node3&#45;&gt;Node4 -->
<g id="edge3" class="edge">
<title>Node3&#45;&gt;Node4</title>
<path fill="none" stroke="midnightblue" d="M160.41,-112.08C153.34,-104.3 142.91,-92.8 134.35,-83.37"/>
<polygon fill="midnightblue" stroke="midnightblue" points="136.75,-80.8 127.44,-75.75 131.57,-85.51 136.75,-80.8"/>
</g>
<!-- Node5 -->
<g id="node5" class="node">
<title>Node5</title>
<g id="a_node5"><a xlink:href="Transform_8hpp.html" target="_top" xlink:title=" ">
<polygon fill="none" stroke="black" points="179,-56.5 179,-75.5 258,-75.5 258,-56.5 179,-56.5"/>
<text text-anchor="middle" x="218.5" y="-63.5" font-family="Helvetica,sans-Serif" font-size="10.00">Transform.hpp</text>
</a>
</g>
</g>
<!-- Node3&#45;&gt;Node5 -->
<g id="edge5" class="edge">
<title>Node3&#45;&gt;Node5</title>
<path fill="none" stroke="midnightblue" d="M176.76,-112.08C183.96,-104.3 194.61,-92.8 203.35,-83.37"/>
<polygon fill="midnightblue" stroke="midnightblue" points="206.17,-85.47 210.4,-75.75 201.03,-80.71 206.17,-85.47"/>
</g>
<!-- Node7 -->
<g id="node7" class="node">
<title>Node7</title>
<g id="a_node7"><a xlink:title=" ">
<polygon fill="none" stroke="#bfbfbf" points="276,-56.5 276,-75.5 317,-75.5 317,-56.5 276,-56.5"/>
<text text-anchor="middle" x="296.5" y="-63.5" font-family="Helvetica,sans-Serif" font-size="10.00">string</text>
</a>
</g>
</g>
<!-- Node3&#45;&gt;Node7 -->
<g id="edge7" class="edge">
<title>Node3&#45;&gt;Node7</title>
<path fill="none" stroke="midnightblue" d="M188.78,-112.44C209.85,-103.56 243.02,-89.56 266.99,-79.45"/>
<polygon fill="midnightblue" stroke="midnightblue" points="268.46,-82.63 276.31,-75.52 265.74,-76.18 268.46,-82.63"/>
</g>
<!-- Node8 -->
<g id="node8" class="node">
<title>Node8</title>
<g id="a_node8"><a xlink:title=" ">
<polygon fill="none" stroke="#bfbfbf" points="335.5,-56.5 335.5,-75.5 379.5,-75.5 379.5,-56.5 335.5,-56.5"/>
<text text-anchor="middle" x="357.5" y="-63.5" font-family="Helvetica,sans-Serif" font-size="10.00">vector</text>
</a>
</g>
</g>
<!-- Node3&#45;&gt;Node8 -->
<g id="edge8" class="edge">
<title>Node3&#45;&gt;Node8</title>
<path fill="none" stroke="midnightblue" d="M198.8,-112.42C228.69,-103.94 275.93,-90.52 325.82,-76.19"/>
<polygon fill="midnightblue" stroke="midnightblue" points="326.85,-79.53 335.49,-73.41 324.91,-72.81 326.85,-79.53"/>
</g>
<!-- Node4&#45;&gt;Node2 -->
<g id="edge4" class="edge">
<title>Node4&#45;&gt;Node2</title>
<path fill="none" stroke="midnightblue" d="M108.25,-56.32C97.7,-48.18 81.7,-35.84 69.06,-26.09"/>
<polygon fill="midnightblue" stroke="midnightblue" points="71.01,-23.17 60.95,-19.83 66.73,-28.71 71.01,-23.17"/>
</g>
<!-- Node6 -->
<g id="node6" class="node">
<title>Node6</title>
<g id="a_node6"><a xlink:href="Point_8hpp.html" target="_top" xlink:title=" ">
<polygon fill="none" stroke="black" points="190,-0.5 190,-19.5 247,-19.5 247,-0.5 190,-0.5"/>
<text text-anchor="middle" x="218.5" y="-7.5" font-family="Helvetica,sans-Serif" font-size="10.00">Point.hpp</text>
</a>
</g>
</g>
<!-- Node5&#45;&gt;Node6 -->
<g id="edge6" class="edge">
<title>Node5&#45;&gt;Node6</title>
<path fill="none" stroke="midnightblue" d="M218.5,-56.08C218.5,-49.01 218.5,-38.86 218.5,-29.99"/>
<polygon fill="midnightblue" stroke="midnightblue" points="222,-29.75 218.5,-19.75 215,-29.75 222,-29.75"/>
</g>
</g>
</svg>
