<?xml version="1.0" encoding="UTF-8" standalone="no"?>
<!DOCTYPE svg PUBLIC "-//W3C//DTD SVG 1.1//EN"
 "http://www.w3.org/Graphics/SVG/1.1/DTD/svg11.dtd">
<!-- Generated by graphviz version 2.44.0 ()
 -->
<!-- Title: includes/spic&#45;api&#45;headers/GameObject.hpp Pages: 1 -->
<!--zoomable 430 -->
<svg id="main" version="1.1" xmlns="http://www.w3.org/2000/svg" xmlns:xlink="http://www.w3.org/1999/xlink" xml:space="preserve" onload="init(evt)">
<style type="text/css"><![CDATA[
.edge:hover path { stroke: red; }
.edge:hover polygon { stroke: red; fill: red; }
]]></style>
<script type="text/javascript"><![CDATA[
var edges = document.getElementsByTagName('g');
if (edges && edges.length) {
  for (var i=0;i<edges.length;i++) {
    if (edges[i].id.substr(0,4)=='edge') {
      edges[i].setAttribute('class','edge');
    }
  }
}
]]></script>
        <defs>
                <circle id="rim" cx="0" cy="0" r="7"/>
                <circle id="rim2" cx="0" cy="0" r="3.5"/>
                <g id="zoomPlus">
                        <use xlink:href="#rim" fill="#404040">
                                <set attributeName="fill" to="#808080" begin="zoomplus.mouseover" end="zoomplus.mouseout"/>
                        </use>
                        <path d="M-4,0h8M0,-4v8" fill="none" stroke="white" stroke-width="1.5" pointer-events="none"/>
                </g>
                <g id="zoomMin">
                        <use xlink:href="#rim" fill="#404040">
                                <set attributeName="fill" to="#808080" begin="zoomminus.mouseover" end="zoomminus.mouseout"/>
                        </use>
                        <path d="M-4,0h8" fill="none" stroke="white" stroke-width="1.5" pointer-events="none"/>
                </g>
                <g id="dirArrow">
                        <path fill="none" stroke="white" stroke-width="1.5" d="M0,-3.0v7 M-2.5,-0.5L0,-3.0L2.5,-0.5"/>
                </g>
               <g id="resetDef">
                       <use xlink:href="#rim2" fill="#404040">
                               <set attributeName="fill" to="#808080" begin="reset.mouseover" end="reset.mouseout"/>
                       </use>
               </g>
        </defs>

<script type="text/javascript">
var viewWidth = 2249;
var viewHeight = 430;
var sectionId = 'dynsection-1';
</script>
<script xlink:href="svgpan.js"/>
<svg id="graph" class="graph">
<g id="viewport">
<title>includes/spic&#45;api&#45;headers/GameObject.hpp</title>
<!-- Node1 -->
<g id="node1" class="node">
<title>Node1</title>
<g id="a_node1"><a xlink:title=" ">
<polygon fill="#bfbfbf" stroke="black" points="1056,-391.5 1056,-421.5 1183,-421.5 1183,-391.5 1056,-391.5"/>
<text text-anchor="start" x="1064" y="-409.5" font-family="Helvetica,sans-Serif" font-size="10.00">includes/spic&#45;api&#45;headers</text>
<text text-anchor="middle" x="1119.5" y="-398.5" font-family="Helvetica,sans-Serif" font-size="10.00">/GameObject.hpp</text>
</a>
</g>
</g>
<!-- Node2 -->
<g id="node2" class="node">
<title>Node2</title>
<g id="a_node2"><a xlink:href="Animator_8cpp.html" target="_top" xlink:title=" ">
<polygon fill="none" stroke="black" points="0,-330 0,-349 107,-349 107,-330 0,-330"/>
<text text-anchor="middle" x="53.5" y="-337" font-family="Helvetica,sans-Serif" font-size="10.00">src/Api/Animator.cpp</text>
</a>
</g>
</g>
<!-- Node1&#45;&gt;Node2 -->
<g id="edge1" class="edge">
<title>Node1&#45;&gt;Node2</title>
<path fill="none" stroke="midnightblue" d="M1045.63,-406.21C879.02,-406.84 461.56,-403.02 116.5,-355 106.38,-353.59 95.5,-351.35 85.67,-349.05"/>
<polygon fill="midnightblue" stroke="midnightblue" points="1045.78,-409.71 1055.77,-406.16 1045.75,-402.71 1045.78,-409.71"/>
</g>
<!-- Node3 -->
<g id="node3" class="node">
<title>Node3</title>
<g id="a_node3"><a xlink:href="AudioSource_8cpp.html" target="_top" xlink:title=" ">
<polygon fill="none" stroke="black" points="125.5,-330 125.5,-349 249.5,-349 249.5,-330 125.5,-330"/>
<text text-anchor="middle" x="187.5" y="-337" font-family="Helvetica,sans-Serif" font-size="10.00">src/Api/AudioSource.cpp</text>
</a>
</g>
</g>
<!-- Node1&#45;&gt;Node3 -->
<g id="edge2" class="edge">
<title>Node1&#45;&gt;Node3</title>
<path fill="none" stroke="midnightblue" d="M1045.33,-404.71C895.85,-402.34 547.94,-392.85 258.5,-355 247.27,-353.53 235.16,-351.3 224.18,-349.03"/>
<polygon fill="midnightblue" stroke="midnightblue" points="1045.7,-408.22 1055.75,-404.87 1045.8,-401.22 1045.7,-408.22"/>
</g>
<!-- Node4 -->
<g id="node4" class="node">
<title>Node4</title>
<g id="a_node4"><a xlink:href="GameObject_8cpp.html" target="_top" xlink:title=" ">
<polygon fill="none" stroke="black" points="268,-330 268,-349 391,-349 391,-330 268,-330"/>
<text text-anchor="middle" x="329.5" y="-337" font-family="Helvetica,sans-Serif" font-size="10.00">src/Api/GameObject.cpp</text>
</a>
</g>
</g>
<!-- Node1&#45;&gt;Node4 -->
<g id="edge3" class="edge">
<title>Node1&#45;&gt;Node4</title>
<path fill="none" stroke="midnightblue" d="M1045.44,-403.5C914.71,-399.27 634.68,-387 400.5,-355 389.41,-353.48 377.44,-351.27 366.56,-349.03"/>
<polygon fill="midnightblue" stroke="midnightblue" points="1045.63,-407.01 1055.73,-403.83 1045.85,-400.02 1045.63,-407.01"/>
</g>
<!-- Node5 -->
<g id="node5" class="node">
<title>Node5</title>
<g id="a_node5"><a xlink:href="ContactListener_8cpp.html" target="_top" xlink:title=" ">
<polygon fill="none" stroke="black" points="409.5,-330 409.5,-349 573.5,-349 573.5,-330 409.5,-330"/>
<text text-anchor="middle" x="491.5" y="-337" font-family="Helvetica,sans-Serif" font-size="10.00">src/Listeners/ContactListener.cpp</text>
</a>
</g>
</g>
<!-- Node1&#45;&gt;Node5 -->
<g id="edge4" class="edge">
<title>Node1&#45;&gt;Node5</title>
<path fill="none" stroke="midnightblue" d="M1045.65,-400.07C941.98,-392.09 747.48,-375.88 582.5,-355 569.17,-353.31 554.79,-351.17 541.48,-349.06"/>
<polygon fill="midnightblue" stroke="midnightblue" points="1045.47,-403.56 1055.7,-400.83 1046,-396.58 1045.47,-403.56"/>
</g>
<!-- Node6 -->
<g id="node6" class="node">
<title>Node6</title>
<g id="a_node6"><a xlink:href="AnimatorSubsystem_8cpp.html" target="_top" xlink:title=" ">
<polygon fill="none" stroke="black" points="591.5,-330 591.5,-349 787.5,-349 787.5,-330 591.5,-330"/>
<text text-anchor="middle" x="689.5" y="-337" font-family="Helvetica,sans-Serif" font-size="10.00">src/Subsystems/AnimatorSubsystem.cpp</text>
</a>
</g>
</g>
<!-- Node1&#45;&gt;Node6 -->
<g id="edge5" class="edge">
<title>Node1&#45;&gt;Node6</title>
<path fill="none" stroke="midnightblue" d="M1045.48,-394.31C960.42,-381.45 822.69,-360.63 745.87,-349.02"/>
<polygon fill="midnightblue" stroke="midnightblue" points="1045.18,-397.8 1055.59,-395.84 1046.22,-390.88 1045.18,-397.8"/>
</g>
<!-- Node7 -->
<g id="node7" class="node">
<title>Node7</title>
<g id="a_node7"><a xlink:href="AudioSubsystem_8cpp.html" target="_top" xlink:title=" ">
<polygon fill="none" stroke="black" points="805.5,-330 805.5,-349 987.5,-349 987.5,-330 805.5,-330"/>
<text text-anchor="middle" x="896.5" y="-337" font-family="Helvetica,sans-Serif" font-size="10.00">src/Subsystems/AudioSubsystem.cpp</text>
</a>
</g>
</g>
<!-- Node1&#45;&gt;Node7 -->
<g id="edge6" class="edge">
<title>Node1&#45;&gt;Node7</title>
<path fill="none" stroke="midnightblue" d="M1061.76,-388.67C1018.18,-375.97 960.19,-359.06 925.76,-349.03"/>
<polygon fill="midnightblue" stroke="midnightblue" points="1060.81,-392.04 1071.39,-391.48 1062.77,-385.32 1060.81,-392.04"/>
</g>
<!-- Node8 -->
<g id="node8" class="node">
<title>Node8</title>
<g id="a_node8"><a xlink:href="BehaviourScriptSubsystem_8cpp.html" target="_top" xlink:title=" ">
<polygon fill="none" stroke="black" points="1005.5,-324.5 1005.5,-354.5 1139.5,-354.5 1139.5,-324.5 1005.5,-324.5"/>
<text text-anchor="start" x="1013.5" y="-342.5" font-family="Helvetica,sans-Serif" font-size="10.00">src/Subsystems/Behaviour</text>
<text text-anchor="middle" x="1072.5" y="-331.5" font-family="Helvetica,sans-Serif" font-size="10.00">ScriptSubsystem.cpp</text>
</a>
</g>
</g>
<!-- Node1&#45;&gt;Node8 -->
<g id="edge7" class="edge">
<title>Node1&#45;&gt;Node8</title>
<path fill="none" stroke="midnightblue" d="M1103.34,-383.16C1096.49,-373.68 1088.71,-362.92 1082.68,-354.58"/>
<polygon fill="midnightblue" stroke="midnightblue" points="1100.61,-385.34 1109.3,-391.4 1106.28,-381.24 1100.61,-385.34"/>
</g>
<!-- Node9 -->
<g id="node9" class="node">
<title>Node9</title>
<g id="a_node9"><a xlink:href="PhysicsSubsystem_8cpp.html" target="_top" xlink:title=" ">
<polygon fill="none" stroke="black" points="1110,-263 1110,-282 1301,-282 1301,-263 1110,-263"/>
<text text-anchor="middle" x="1205.5" y="-270" font-family="Helvetica,sans-Serif" font-size="10.00">src/Subsystems/PhysicsSubsystem.cpp</text>
</a>
</g>
</g>
<!-- Node1&#45;&gt;Node9 -->
<g id="edge8" class="edge">
<title>Node1&#45;&gt;Node9</title>
<path fill="none" stroke="midnightblue" d="M1151.3,-385.46C1162.22,-377.2 1173.66,-366.79 1181.5,-355 1197.1,-331.54 1202.78,-297.72 1204.66,-282.06"/>
<polygon fill="midnightblue" stroke="midnightblue" points="1149.2,-382.67 1143.12,-391.35 1153.28,-388.35 1149.2,-382.67"/>
</g>
<!-- Node10 -->
<g id="node10" class="node">
<title>Node10</title>
<g id="a_node10"><a xlink:href="PhysicsSubsystem_8hpp.html" target="_top" xlink:title=" ">
<polygon fill="none" stroke="black" points="1234,-330 1234,-349 1425,-349 1425,-330 1234,-330"/>
<text text-anchor="middle" x="1329.5" y="-337" font-family="Helvetica,sans-Serif" font-size="10.00">src/Subsystems/PhysicsSubsystem.hpp</text>
</a>
</g>
</g>
<!-- Node1&#45;&gt;Node10 -->
<g id="edge9" class="edge">
<title>Node1&#45;&gt;Node10</title>
<path fill="none" stroke="midnightblue" d="M1174.39,-388.51C1215.37,-375.83 1269.66,-359.02 1301.95,-349.03"/>
<polygon fill="midnightblue" stroke="midnightblue" points="1173.33,-385.18 1164.81,-391.48 1175.4,-391.86 1173.33,-385.18"/>
</g>
<!-- Node13 -->
<g id="node13" class="node">
<title>Node13</title>
<g id="a_node13"><a xlink:href="RenderSubsystem_8cpp.html" target="_top" xlink:title=" ">
<polygon fill="none" stroke="black" points="1155.5,-62 1155.5,-81 1343.5,-81 1343.5,-62 1155.5,-62"/>
<text text-anchor="middle" x="1249.5" y="-69" font-family="Helvetica,sans-Serif" font-size="10.00">src/Subsystems/RenderSubsystem.cpp</text>
</a>
</g>
</g>
<!-- Node1&#45;&gt;Node13 -->
<g id="edge13" class="edge">
<title>Node1&#45;&gt;Node13</title>
<path fill="none" stroke="midnightblue" d="M1137.36,-382.67C1148.11,-365.98 1158.02,-343.04 1148.5,-324 1136.57,-300.15 1112.43,-311.85 1100.5,-288 1094.34,-275.68 1095.91,-269.99 1100.5,-257 1129.03,-176.25 1209.56,-104.92 1238.76,-81.01"/>
<polygon fill="midnightblue" stroke="midnightblue" points="1134.25,-381.02 1131.42,-391.23 1140,-385.01 1134.25,-381.02"/>
</g>
<!-- Node14 -->
<g id="node14" class="node">
<title>Node14</title>
<g id="a_node14"><a xlink:href="Api_8hpp.html" target="_top" xlink:title=" ">
<polygon fill="none" stroke="black" points="1636,-190.5 1636,-220.5 1763,-220.5 1763,-190.5 1636,-190.5"/>
<text text-anchor="start" x="1644" y="-208.5" font-family="Helvetica,sans-Serif" font-size="10.00">includes/spic&#45;api&#45;headers</text>
<text text-anchor="middle" x="1699.5" y="-197.5" font-family="Helvetica,sans-Serif" font-size="10.00">/Api.hpp</text>
</a>
</g>
</g>
<!-- Node1&#45;&gt;Node14 -->
<g id="edge14" class="edge">
<title>Node1&#45;&gt;Node14</title>
<path fill="none" stroke="midnightblue" d="M1193.5,-402.15C1326.11,-395.57 1593.7,-379.42 1628.5,-355 1674.82,-322.5 1691.96,-251.44 1697.35,-220.91"/>
<polygon fill="midnightblue" stroke="midnightblue" points="1193.24,-398.66 1183.42,-402.64 1193.58,-405.65 1193.24,-398.66"/>
</g>
<!-- Node15 -->
<g id="node15" class="node">
<title>Node15</title>
<g id="a_node15"><a xlink:href="Camera_8hpp.html" target="_top" xlink:title=" ">
<polygon fill="none" stroke="black" points="1705,-324.5 1705,-354.5 1832,-354.5 1832,-324.5 1705,-324.5"/>
<text text-anchor="start" x="1713" y="-342.5" font-family="Helvetica,sans-Serif" font-size="10.00">includes/spic&#45;api&#45;headers</text>
<text text-anchor="middle" x="1768.5" y="-331.5" font-family="Helvetica,sans-Serif" font-size="10.00">/Camera.hpp</text>
</a>
</g>
</g>
<!-- Node1&#45;&gt;Node15 -->
<g id="edge15" class="edge">
<title>Node1&#45;&gt;Node15</title>
<path fill="none" stroke="midnightblue" d="M1193.33,-401.23C1302.39,-394.42 1512.84,-379.31 1690.5,-355 1695.14,-354.37 1699.92,-353.64 1704.73,-352.87"/>
<polygon fill="midnightblue" stroke="midnightblue" points="1192.86,-397.76 1183.09,-401.87 1193.29,-404.74 1192.86,-397.76"/>
</g>
<!-- Node17 -->
<g id="node17" class="node">
<title>Node17</title>
<g id="a_node17"><a xlink:href="GameObject__templates_8hpp.html" target="_top" xlink:title=" ">
<polygon fill="none" stroke="black" points="1850.5,-324.5 1850.5,-354.5 1990.5,-354.5 1990.5,-324.5 1850.5,-324.5"/>
<text text-anchor="start" x="1858.5" y="-342.5" font-family="Helvetica,sans-Serif" font-size="10.00">includes/spic&#45;api&#45;headers</text>
<text text-anchor="middle" x="1920.5" y="-331.5" font-family="Helvetica,sans-Serif" font-size="10.00">/GameObject_templates.hpp</text>
</a>
</g>
</g>
<!-- Node1&#45;&gt;Node17 -->
<g id="edge18" class="edge">
<title>Node1&#45;&gt;Node17</title>
<path fill="none" stroke="midnightblue" d="M1193.69,-402.98C1324.68,-397.94 1605.32,-384.46 1840.5,-355 1843.72,-354.6 1847.01,-354.15 1850.33,-353.67"/>
<polygon fill="midnightblue" stroke="midnightblue" points="1193.24,-399.5 1183.38,-403.37 1193.51,-406.49 1193.24,-399.5"/>
</g>
<!-- Node18 -->
<g id="node18" class="node">
<title>Node18</title>
<g id="a_node18"><a xlink:href="UIObject_8hpp.html" target="_top" xlink:title=" ">
<polygon fill="none" stroke="black" points="1493,-324.5 1493,-354.5 1620,-354.5 1620,-324.5 1493,-324.5"/>
<text text-anchor="start" x="1501" y="-342.5" font-family="Helvetica,sans-Serif" font-size="10.00">includes/spic&#45;api&#45;headers</text>
<text text-anchor="middle" x="1556.5" y="-331.5" font-family="Helvetica,sans-Serif" font-size="10.00">/UIObject.hpp</text>
</a>
</g>
</g>
<!-- Node1&#45;&gt;Node18 -->
<g id="edge19" class="edge">
<title>Node1&#45;&gt;Node18</title>
<path fill="none" stroke="midnightblue" d="M1193.03,-394.56C1277.06,-382.06 1413.23,-361.81 1492.88,-349.96"/>
<polygon fill="midnightblue" stroke="midnightblue" points="1192.42,-391.12 1183.04,-396.05 1193.45,-398.04 1192.42,-391.12"/>
</g>
<!-- Node10&#45;&gt;Node9 -->
<g id="edge10" class="edge">
<title>Node10&#45;&gt;Node9</title>
<path fill="none" stroke="midnightblue" d="M1303.94,-325.1C1279.39,-312.23 1243.01,-293.16 1222.03,-282.17"/>
<polygon fill="midnightblue" stroke="midnightblue" points="1302.55,-328.33 1313.03,-329.87 1305.8,-322.13 1302.55,-328.33"/>
</g>
<!-- Node11 -->
<g id="node11" class="node">
<title>Node11</title>
<g id="a_node11"><a xlink:href="Subsystems_8hpp.html" target="_top" xlink:title=" ">
<polygon fill="none" stroke="black" points="1420.5,-62 1420.5,-81 1582.5,-81 1582.5,-62 1420.5,-62"/>
<text text-anchor="middle" x="1501.5" y="-69" font-family="Helvetica,sans-Serif" font-size="10.00">src/Subsystems/Subsystems.hpp</text>
</a>
</g>
</g>
<!-- Node10&#45;&gt;Node11 -->
<g id="edge11" class="edge">
<title>Node10&#45;&gt;Node11</title>
<path fill="none" stroke="midnightblue" d="M1326.03,-319.78C1317.05,-270.24 1294.56,-138.42 1306.5,-123 1322.29,-102.6 1384.62,-88.95 1434.62,-81.03"/>
<polygon fill="midnightblue" stroke="midnightblue" points="1322.61,-320.56 1327.86,-329.77 1329.5,-319.3 1322.61,-320.56"/>
</g>
<!-- Node12 -->
<g id="node12" class="node">
<title>Node12</title>
<g id="a_node12"><a xlink:href="Engine_8cpp.html" target="_top" xlink:title=" ">
<polygon fill="none" stroke="black" points="1675.5,-0.5 1675.5,-19.5 1773.5,-19.5 1773.5,-0.5 1675.5,-0.5"/>
<text text-anchor="middle" x="1724.5" y="-7.5" font-family="Helvetica,sans-Serif" font-size="10.00">src/Api/Engine.cpp</text>
</a>
</g>
</g>
<!-- Node11&#45;&gt;Node12 -->
<g id="edge12" class="edge">
<title>Node11&#45;&gt;Node12</title>
<path fill="none" stroke="midnightblue" d="M1543.12,-59.4C1586.43,-47.84 1653.31,-30 1692.61,-19.51"/>
<polygon fill="midnightblue" stroke="midnightblue" points="1542.21,-56.02 1533.45,-61.98 1544.01,-62.78 1542.21,-56.02"/>
</g>
<!-- Node15&#45;&gt;Node14 -->
<g id="edge17" class="edge">
<title>Node15&#45;&gt;Node14</title>
<path fill="none" stroke="midnightblue" d="M1751.49,-316.13C1745.39,-307.58 1738.74,-297.58 1733.5,-288 1721.14,-265.4 1710.36,-237.37 1704.41,-220.76"/>
<polygon fill="midnightblue" stroke="midnightblue" points="1748.83,-318.42 1757.55,-324.43 1754.48,-314.29 1748.83,-318.42"/>
</g>
<!-- Node16 -->
<g id="node16" class="node">
<title>Node16</title>
<g id="a_node16"><a xlink:href="Camera_8cpp.html" target="_top" xlink:title=" ">
<polygon fill="none" stroke="black" points="1888.5,-263 1888.5,-282 1990.5,-282 1990.5,-263 1888.5,-263"/>
<text text-anchor="middle" x="1939.5" y="-270" font-family="Helvetica,sans-Serif" font-size="10.00">src/Api/Camera.cpp</text>
</a>
</g>
</g>
<!-- Node15&#45;&gt;Node16 -->
<g id="edge16" class="edge">
<title>Node15&#45;&gt;Node16</title>
<path fill="none" stroke="midnightblue" d="M1815.11,-320.78C1848.26,-308.18 1891.34,-291.81 1917.12,-282.01"/>
<polygon fill="midnightblue" stroke="midnightblue" points="1813.71,-317.57 1805.6,-324.4 1816.2,-324.11 1813.71,-317.57"/>
</g>
<!-- Node18&#45;&gt;Node14 -->
<g id="edge21" class="edge">
<title>Node18&#45;&gt;Node14</title>
<path fill="none" stroke="midnightblue" d="M1582.96,-317.95C1594.15,-309.01 1607.19,-298.25 1618.5,-288 1643.34,-265.5 1670.46,-237.43 1686.17,-220.79"/>
<polygon fill="midnightblue" stroke="midnightblue" points="1580.49,-315.45 1574.82,-324.4 1584.84,-320.93 1580.49,-315.45"/>
</g>
<!-- Node19 -->
<g id="node19" class="node">
<title>Node19</title>
<g id="a_node19"><a xlink:href="UIObject_8cpp.html" target="_top" xlink:title=" ">
<polygon fill="none" stroke="black" points="1503,-263 1503,-282 1610,-282 1610,-263 1503,-263"/>
<text text-anchor="middle" x="1556.5" y="-270" font-family="Helvetica,sans-Serif" font-size="10.00">src/Api/UIObject.cpp</text>
</a>
</g>
</g>
<!-- Node18&#45;&gt;Node19 -->
<g id="edge20" class="edge">
<title>Node18&#45;&gt;Node19</title>
<path fill="none" stroke="midnightblue" d="M1556.5,-314.25C1556.5,-303.02 1556.5,-290.38 1556.5,-282.19"/>
<polygon fill="midnightblue" stroke="midnightblue" points="1553,-314.4 1556.5,-324.4 1560,-314.4 1553,-314.4"/>
</g>
<!-- Node20 -->
<g id="node20" class="node">
<title>Node20</title>
<g id="a_node20"><a xlink:href="Button_8hpp.html" target="_top" xlink:title=" ">
<polygon fill="none" stroke="black" points="1743,-257.5 1743,-287.5 1870,-287.5 1870,-257.5 1743,-257.5"/>
<text text-anchor="start" x="1751" y="-275.5" font-family="Helvetica,sans-Serif" font-size="10.00">includes/spic&#45;api&#45;headers</text>
<text text-anchor="middle" x="1806.5" y="-264.5" font-family="Helvetica,sans-Serif" font-size="10.00">/Button.hpp</text>
</a>
</g>
</g>
<!-- Node18&#45;&gt;Node20 -->
<g id="edge22" class="edge">
<title>Node18&#45;&gt;Node20</title>
<path fill="none" stroke="midnightblue" d="M1620.28,-321.92C1661.08,-311.31 1713.43,-297.7 1752.23,-287.61"/>
<polygon fill="midnightblue" stroke="midnightblue" points="1619.24,-318.57 1610.44,-324.48 1621,-325.35 1619.24,-318.57"/>
</g>
<!-- Node24 -->
<g id="node24" class="node">
<title>Node24</title>
<g id="a_node24"><a xlink:href="Text_8hpp.html" target="_top" xlink:title=" ">
<polygon fill="none" stroke="black" points="1358,-257.5 1358,-287.5 1485,-287.5 1485,-257.5 1358,-257.5"/>
<text text-anchor="start" x="1366" y="-275.5" font-family="Helvetica,sans-Serif" font-size="10.00">includes/spic&#45;api&#45;headers</text>
<text text-anchor="middle" x="1421.5" y="-264.5" font-family="Helvetica,sans-Serif" font-size="10.00">/Text.hpp</text>
</a>
</g>
</g>
<!-- Node18&#45;&gt;Node24 -->
<g id="edge28" class="edge">
<title>Node18&#45;&gt;Node24</title>
<path fill="none" stroke="midnightblue" d="M1518.06,-319.99C1496.66,-309.69 1470.45,-297.07 1450.74,-287.58"/>
<polygon fill="midnightblue" stroke="midnightblue" points="1516.68,-323.21 1527.21,-324.4 1519.72,-316.9 1516.68,-323.21"/>
</g>
<!-- Node20&#45;&gt;Node14 -->
<g id="edge27" class="edge">
<title>Node20&#45;&gt;Node14</title>
<path fill="none" stroke="midnightblue" d="M1774.42,-252.02C1757.77,-241.9 1737.81,-229.77 1722.67,-220.58"/>
<polygon fill="midnightblue" stroke="midnightblue" points="1772.92,-255.2 1783.28,-257.4 1776.55,-249.21 1772.92,-255.2"/>
</g>
<!-- Node21 -->
<g id="node21" class="node">
<title>Node21</title>
<g id="a_node21"><a xlink:href="Button_8cpp.html" target="_top" xlink:title=" ">
<polygon fill="none" stroke="black" points="2144,-129 2144,-148 2241,-148 2241,-129 2144,-129"/>
<text text-anchor="middle" x="2192.5" y="-136" font-family="Helvetica,sans-Serif" font-size="10.00">src/Api/Button.cpp</text>
</a>
</g>
</g>
<!-- Node20&#45;&gt;Node21 -->
<g id="edge23" class="edge">
<title>Node20&#45;&gt;Node21</title>
<path fill="none" stroke="midnightblue" d="M1880.36,-257.02C1994.9,-240.18 2039.47,-278.78 2134.5,-221 2163.44,-203.41 2181.94,-165.33 2189.12,-148.18"/>
<polygon fill="midnightblue" stroke="midnightblue" points="1879.49,-253.61 1870.16,-258.64 1880.59,-260.53 1879.49,-253.61"/>
</g>
<!-- Node22 -->
<g id="node22" class="node">
<title>Node22</title>
<g id="a_node22"><a xlink:href="ButtonMouseListener_8hpp.html" target="_top" xlink:title=" ">
<polygon fill="none" stroke="black" points="1991.5,-190.5 1991.5,-220.5 2125.5,-220.5 2125.5,-190.5 1991.5,-190.5"/>
<text text-anchor="start" x="1999.5" y="-208.5" font-family="Helvetica,sans-Serif" font-size="10.00">src/Listeners/ButtonMouse</text>
<text text-anchor="middle" x="2058.5" y="-197.5" font-family="Helvetica,sans-Serif" font-size="10.00">Listener.hpp</text>
</a>
</g>
</g>
<!-- Node20&#45;&gt;Node22 -->
<g id="edge24" class="edge">
<title>Node20&#45;&gt;Node22</title>
<path fill="none" stroke="midnightblue" d="M1870.79,-254.92C1911.91,-244.31 1964.68,-230.7 2003.79,-220.61"/>
<polygon fill="midnightblue" stroke="midnightblue" points="1869.68,-251.59 1860.87,-257.48 1871.43,-258.37 1869.68,-251.59"/>
</g>
<!-- Node22&#45;&gt;Node21 -->
<g id="edge25" class="edge">
<title>Node22&#45;&gt;Node21</title>
<path fill="none" stroke="midnightblue" d="M2096.71,-185.97C2122.45,-173.48 2155.19,-157.6 2174.96,-148.01"/>
<polygon fill="midnightblue" stroke="midnightblue" points="2095.05,-182.88 2087.58,-190.4 2098.1,-189.18 2095.05,-182.88"/>
</g>
<!-- Node23 -->
<g id="node23" class="node">
<title>Node23</title>
<g id="a_node23"><a xlink:href="ButtonMouseListener_8cpp.html" target="_top" xlink:title=" ">
<polygon fill="none" stroke="black" points="1991.5,-123.5 1991.5,-153.5 2125.5,-153.5 2125.5,-123.5 1991.5,-123.5"/>
<text text-anchor="start" x="1999.5" y="-141.5" font-family="Helvetica,sans-Serif" font-size="10.00">src/Listeners/ButtonMouse</text>
<text text-anchor="middle" x="2058.5" y="-130.5" font-family="Helvetica,sans-Serif" font-size="10.00">Listener.cpp</text>
</a>
</g>
</g>
<!-- Node22&#45;&gt;Node23 -->
<g id="edge26" class="edge">
<title>Node22&#45;&gt;Node23</title>
<path fill="none" stroke="midnightblue" d="M2058.5,-180.11C2058.5,-171.15 2058.5,-161.32 2058.5,-153.58"/>
<polygon fill="midnightblue" stroke="midnightblue" points="2055,-180.4 2058.5,-190.4 2062,-180.4 2055,-180.4"/>
</g>
<!-- Node24&#45;&gt;Node13 -->
<g id="edge43" class="edge">
<title>Node24&#45;&gt;Node13</title>
<path fill="none" stroke="midnightblue" d="M1398.45,-250.14C1389.04,-241.26 1378.12,-230.76 1368.5,-221 1340.02,-192.1 1331.96,-185.59 1306.5,-154 1286.13,-128.73 1264.94,-96.62 1255.12,-81.35"/>
<polygon fill="midnightblue" stroke="midnightblue" points="1396.26,-252.88 1405.95,-257.17 1401.05,-247.77 1396.26,-252.88"/>
</g>
<!-- Node24&#45;&gt;Node14 -->
<g id="edge44" class="edge">
<title>Node24&#45;&gt;Node14</title>
<path fill="none" stroke="midnightblue" d="M1491.28,-255.19C1536.8,-244.54 1595.64,-230.78 1639.15,-220.61"/>
<polygon fill="midnightblue" stroke="midnightblue" points="1490.42,-251.79 1481.48,-257.48 1492.01,-258.61 1490.42,-251.79"/>
</g>
<!-- Node25 -->
<g id="node25" class="node">
<title>Node25</title>
<g id="a_node25"><a xlink:href="Text_8cpp.html" target="_top" xlink:title=" ">
<polygon fill="none" stroke="black" points="1378,-196 1378,-215 1465,-215 1465,-196 1378,-196"/>
<text text-anchor="middle" x="1421.5" y="-203" font-family="Helvetica,sans-Serif" font-size="10.00">src/Api/Text.cpp</text>
</a>
</g>
</g>
<!-- Node24&#45;&gt;Node25 -->
<g id="edge29" class="edge">
<title>Node24&#45;&gt;Node25</title>
<path fill="none" stroke="midnightblue" d="M1421.5,-247.25C1421.5,-236.02 1421.5,-223.38 1421.5,-215.19"/>
<polygon fill="midnightblue" stroke="midnightblue" points="1418,-247.4 1421.5,-257.4 1425,-247.4 1418,-247.4"/>
</g>
<!-- Node26 -->
<g id="node26" class="node">
<title>Node26</title>
<g id="a_node26"><a xlink:href="Window_8hpp.html" target="_top" xlink:title=" ">
<polygon fill="none" stroke="black" points="1497.5,-196 1497.5,-215 1617.5,-215 1617.5,-196 1497.5,-196"/>
<text text-anchor="middle" x="1557.5" y="-203" font-family="Helvetica,sans-Serif" font-size="10.00">src/Models/Window.hpp</text>
</a>
</g>
</g>
<!-- Node24&#45;&gt;Node26 -->
<g id="edge30" class="edge">
<title>Node24&#45;&gt;Node26</title>
<path fill="none" stroke="midnightblue" d="M1460.28,-252.97C1486.4,-240.48 1519.63,-224.6 1539.7,-215.01"/>
<polygon fill="midnightblue" stroke="midnightblue" points="1458.52,-249.93 1451.01,-257.4 1461.54,-256.24 1458.52,-249.93"/>
</g>
<!-- Node27 -->
<g id="node27" class="node">
<title>Node27</title>
<g id="a_node27"><a xlink:href="TimeManager_8hpp.html" target="_top" xlink:title=" ">
<polygon fill="none" stroke="black" points="1817.5,-129 1817.5,-148 1973.5,-148 1973.5,-129 1817.5,-129"/>
<text text-anchor="middle" x="1895.5" y="-136" font-family="Helvetica,sans-Serif" font-size="10.00">src/Managers/TimeManager.hpp</text>
</a>
</g>
</g>
<!-- Node26&#45;&gt;Node27 -->
<g id="edge31" class="edge">
<title>Node26&#45;&gt;Node27</title>
<path fill="none" stroke="midnightblue" d="M1607.28,-193.91C1613.74,-192.57 1620.28,-191.24 1626.5,-190 1704.1,-174.57 1794.55,-157.85 1848.31,-148.04"/>
<polygon fill="midnightblue" stroke="midnightblue" points="1606.32,-190.53 1597.24,-196 1607.74,-197.38 1606.32,-190.53"/>
</g>
<!-- Node31 -->
<g id="node31" class="node">
<title>Node31</title>
<g id="a_node31"><a xlink:href="Window_8cpp.html" target="_top" xlink:title=" ">
<polygon fill="none" stroke="black" points="1521.5,-129 1521.5,-148 1641.5,-148 1641.5,-129 1521.5,-129"/>
<text text-anchor="middle" x="1581.5" y="-136" font-family="Helvetica,sans-Serif" font-size="10.00">src/Models/Window.cpp</text>
</a>
</g>
</g>
<!-- Node26&#45;&gt;Node31 -->
<g id="edge36" class="edge">
<title>Node26&#45;&gt;Node31</title>
<path fill="none" stroke="midnightblue" d="M1564.22,-186.29C1568.83,-173.81 1574.74,-157.81 1578.31,-148.13"/>
<polygon fill="midnightblue" stroke="midnightblue" points="1560.92,-185.14 1560.74,-195.73 1567.48,-187.57 1560.92,-185.14"/>
</g>
<!-- Node32 -->
<g id="node32" class="node">
<title>Node32</title>
<g id="a_node32"><a xlink:href="FpsCounterSubsystem_8hpp.html" target="_top" xlink:title=" ">
<polygon fill="none" stroke="black" points="1659.5,-123.5 1659.5,-153.5 1799.5,-153.5 1799.5,-123.5 1659.5,-123.5"/>
<text text-anchor="start" x="1667.5" y="-141.5" font-family="Helvetica,sans-Serif" font-size="10.00">src/Subsystems/FpsCounter</text>
<text text-anchor="middle" x="1729.5" y="-130.5" font-family="Helvetica,sans-Serif" font-size="10.00">Subsystem.hpp</text>
</a>
</g>
</g>
<!-- Node26&#45;&gt;Node32 -->
<g id="edge37" class="edge">
<title>Node26&#45;&gt;Node32</title>
<path fill="none" stroke="midnightblue" d="M1590.04,-192.2C1619.19,-181.19 1661.91,-165.04 1692.38,-153.53"/>
<polygon fill="midnightblue" stroke="midnightblue" points="1588.46,-189.06 1580.34,-195.87 1590.93,-195.61 1588.46,-189.06"/>
</g>
<!-- Node33 -->
<g id="node33" class="node">
<title>Node33</title>
<g id="a_node33"><a xlink:href="RenderSubsystem_8hpp.html" target="_top" xlink:title=" ">
<polygon fill="none" stroke="black" points="1315.5,-129 1315.5,-148 1503.5,-148 1503.5,-129 1315.5,-129"/>
<text text-anchor="middle" x="1409.5" y="-136" font-family="Helvetica,sans-Serif" font-size="10.00">src/Subsystems/RenderSubsystem.hpp</text>
</a>
</g>
</g>
<!-- Node26&#45;&gt;Node33 -->
<g id="edge40" class="edge">
<title>Node26&#45;&gt;Node33</title>
<path fill="none" stroke="midnightblue" d="M1528.54,-191.78C1499.23,-178.91 1454.71,-159.35 1429.23,-148.17"/>
<polygon fill="midnightblue" stroke="midnightblue" points="1527.28,-195.05 1537.85,-195.87 1530.1,-188.64 1527.28,-195.05"/>
</g>
<!-- Node27&#45;&gt;Node12 -->
<g id="edge32" class="edge">
<title>Node27&#45;&gt;Node12</title>
<path fill="none" stroke="midnightblue" d="M1911.58,-121.12C1926.84,-103.58 1945.27,-75.61 1929.5,-56 1910.32,-32.15 1828.03,-20.22 1773.72,-14.84"/>
<polygon fill="midnightblue" stroke="midnightblue" points="1908.7,-119.09 1904.51,-128.82 1913.86,-123.82 1908.7,-119.09"/>
</g>
<!-- Node28 -->
<g id="node28" class="node">
<title>Node28</title>
<g id="a_node28"><a xlink:href="src_2Api_2Time_8cpp.html" target="_top" xlink:title=" ">
<polygon fill="none" stroke="black" points="1976.5,-62 1976.5,-81 2066.5,-81 2066.5,-62 1976.5,-62"/>
<text text-anchor="middle" x="2021.5" y="-69" font-family="Helvetica,sans-Serif" font-size="10.00">src/Api/Time.cpp</text>
</a>
</g>
</g>
<!-- Node27&#45;&gt;Node28 -->
<g id="edge33" class="edge">
<title>Node27&#45;&gt;Node28</title>
<path fill="none" stroke="midnightblue" d="M1921.14,-124.27C1946.09,-111.4 1983.3,-92.21 2004.7,-81.17"/>
<polygon fill="midnightblue" stroke="midnightblue" points="1919.51,-121.17 1912.23,-128.87 1922.72,-127.39 1919.51,-121.17"/>
</g>
<!-- Node29 -->
<g id="node29" class="node">
<title>Node29</title>
<g id="a_node29"><a xlink:href="TimeManager_8cpp.html" target="_top" xlink:title=" ">
<polygon fill="none" stroke="black" points="1764.5,-62 1764.5,-81 1920.5,-81 1920.5,-62 1764.5,-62"/>
<text text-anchor="middle" x="1842.5" y="-69" font-family="Helvetica,sans-Serif" font-size="10.00">src/Managers/TimeManager.cpp</text>
</a>
</g>
</g>
<!-- Node27&#45;&gt;Node29 -->
<g id="edge34" class="edge">
<title>Node27&#45;&gt;Node29</title>
<path fill="none" stroke="midnightblue" d="M1881.86,-120.77C1871.53,-108.1 1857.75,-91.2 1849.53,-81.13"/>
<polygon fill="midnightblue" stroke="midnightblue" points="1879.32,-123.2 1888.35,-128.73 1884.75,-118.77 1879.32,-123.2"/>
</g>
<!-- Node30 -->
<g id="node30" class="node">
<title>Node30</title>
<g id="a_node30"><a xlink:href="FpsCounterSubsystem_8cpp.html" target="_top" xlink:title=" ">
<polygon fill="none" stroke="black" points="1606.5,-56.5 1606.5,-86.5 1746.5,-86.5 1746.5,-56.5 1606.5,-56.5"/>
<text text-anchor="start" x="1614.5" y="-74.5" font-family="Helvetica,sans-Serif" font-size="10.00">src/Subsystems/FpsCounter</text>
<text text-anchor="middle" x="1676.5" y="-63.5" font-family="Helvetica,sans-Serif" font-size="10.00">Subsystem.cpp</text>
</a>
</g>
</g>
<!-- Node27&#45;&gt;Node30 -->
<g id="edge35" class="edge">
<title>Node27&#45;&gt;Node30</title>
<path fill="none" stroke="midnightblue" d="M1856.47,-125.92C1819.34,-114.9 1763.41,-98.29 1723.76,-86.53"/>
<polygon fill="midnightblue" stroke="midnightblue" points="1855.84,-129.38 1866.42,-128.87 1857.83,-122.67 1855.84,-129.38"/>
</g>
<!-- Node32&#45;&gt;Node11 -->
<g id="edge39" class="edge">
<title>Node32&#45;&gt;Node11</title>
<path fill="none" stroke="midnightblue" d="M1670.47,-120.67C1625.91,-107.97 1566.62,-91.06 1531.42,-81.03"/>
<polygon fill="midnightblue" stroke="midnightblue" points="1669.73,-124.1 1680.31,-123.48 1671.65,-117.37 1669.73,-124.1"/>
</g>
<!-- Node32&#45;&gt;Node30 -->
<g id="edge38" class="edge">
<title>Node32&#45;&gt;Node30</title>
<path fill="none" stroke="midnightblue" d="M1711.52,-115.45C1703.73,-105.9 1694.85,-95 1687.98,-86.58"/>
<polygon fill="midnightblue" stroke="midnightblue" points="1708.97,-117.86 1718,-123.4 1714.39,-113.43 1708.97,-117.86"/>
</g>
<!-- Node33&#45;&gt;Node11 -->
<g id="edge42" class="edge">
<title>Node33&#45;&gt;Node11</title>
<path fill="none" stroke="midnightblue" d="M1430.14,-122.92C1448.32,-110.07 1474.21,-91.78 1489.29,-81.13"/>
<polygon fill="midnightblue" stroke="midnightblue" points="1428.06,-120.1 1421.91,-128.73 1432.09,-125.82 1428.06,-120.1"/>
</g>
<!-- Node33&#45;&gt;Node13 -->
<g id="edge41" class="edge">
<title>Node33&#45;&gt;Node13</title>
<path fill="none" stroke="midnightblue" d="M1378.99,-125.1C1347.22,-112.2 1298.31,-92.33 1270.58,-81.06"/>
<polygon fill="midnightblue" stroke="midnightblue" points="1377.67,-128.35 1388.25,-128.87 1380.31,-121.86 1377.67,-128.35"/>
</g>
</g>
</svg>
        <g id="navigator" transform="translate(0 0)" fill="#404254">
                <rect fill="#f2f5e9" fill-opacity="0.5" stroke="#606060" stroke-width=".5" x="0" y="0" width="60" height="60"/>
                <use id="zoomplus" xlink:href="#zoomPlus" x="17" y="9" onmousedown="handleZoom(evt,'in')"/>
                <use id="zoomminus" xlink:href="#zoomMin" x="42" y="9" onmousedown="handleZoom(evt,'out')"/>
                <use id="reset" xlink:href="#resetDef" x="30" y="36" onmousedown="handleReset()"/>
                <g id="arrowUp" xlink:href="#dirArrow" transform="translate(30 24)" onmousedown="handlePan(0,-1)">
                  <use xlink:href="#rim" fill="#404040">
                        <set attributeName="fill" to="#808080" begin="arrowUp.mouseover" end="arrowUp.mouseout"/>
                  </use>
                  <path fill="none" stroke="white" stroke-width="1.5" d="M0,-3.0v7 M-2.5,-0.5L0,-3.0L2.5,-0.5"/>
                </g>
                <g id="arrowRight" xlink:href="#dirArrow" transform="rotate(90) translate(36 -43)" onmousedown="handlePan(1,0)">
                  <use xlink:href="#rim" fill="#404040">
                        <set attributeName="fill" to="#808080" begin="arrowRight.mouseover" end="arrowRight.mouseout"/>
                  </use>
                  <path fill="none" stroke="white" stroke-width="1.5" d="M0,-3.0v7 M-2.5,-0.5L0,-3.0L2.5,-0.5"/>
                </g>
                <g id="arrowDown" xlink:href="#dirArrow" transform="rotate(180) translate(-30 -48)" onmousedown="handlePan(0,1)">
                  <use xlink:href="#rim" fill="#404040">
                        <set attributeName="fill" to="#808080" begin="arrowDown.mouseover" end="arrowDown.mouseout"/>
                  </use>
                  <path fill="none" stroke="white" stroke-width="1.5" d="M0,-3.0v7 M-2.5,-0.5L0,-3.0L2.5,-0.5"/>
                </g>
                <g id="arrowLeft" xlink:href="#dirArrow" transform="rotate(270) translate(-36 17)" onmousedown="handlePan(-1,0)">
                  <use xlink:href="#rim" fill="#404040">
                        <set attributeName="fill" to="#808080" begin="arrowLeft.mouseover" end="arrowLeft.mouseout"/>
                  </use>
                  <path fill="none" stroke="white" stroke-width="1.5" d="M0,-3.0v7 M-2.5,-0.5L0,-3.0L2.5,-0.5"/>
                </g>
        </g>
        <svg viewBox="0 0 15 15" width="100%" height="30px" preserveAspectRatio="xMaxYMin meet">
         <g id="arrow_out" transform="scale(0.3 0.3)">
          <a xlink:href="GameObject_8hpp__dep__incl_org.svg" target="_base">
           <rect id="button" ry="5" rx="5" y="6" x="6" height="38" width="38"
                fill="#f2f5e9" fill-opacity="0.5" stroke="#606060" stroke-width="1.0"/>
           <path id="arrow"
             d="M 11.500037,31.436501 C 11.940474,20.09759 22.043105,11.32322 32.158766,21.979434 L 37.068811,17.246167 C 37.068811,17.246167 37.088388,32 37.088388,32 L 22.160133,31.978069 C 22.160133,31.978069 26.997745,27.140456 26.997745,27.140456 C 18.528582,18.264221 13.291696,25.230495 11.500037,31.436501 z"
             style="fill:#404040;"/>
          </a>
         </g>
        </svg>
</svg>
