<?xml version="1.0" encoding="UTF-8" standalone="no"?>
<!DOCTYPE svg PUBLIC "-//W3C//DTD SVG 1.1//EN"
 "http://www.w3.org/Graphics/SVG/1.1/DTD/svg11.dtd">
<!-- Generated by graphviz version 2.44.0 ()
 -->
<!-- Title: src/Api/GameObject.cpp Pages: 1 -->
<svg width="478pt" height="252pt"
 viewBox="0.00 0.00 478.00 252.00" xmlns="http://www.w3.org/2000/svg" xmlns:xlink="http://www.w3.org/1999/xlink">
<g id="graph0" class="graph" transform="scale(1 1) rotate(0) translate(4 248)">
<title>src/Api/GameObject.cpp</title>
<!-- Node1 -->
<g id="node1" class="node">
<title>Node1</title>
<g id="a_node1"><a xlink:title=" ">
<polygon fill="#bfbfbf" stroke="black" points="287,-224.5 287,-243.5 410,-243.5 410,-224.5 287,-224.5"/>
<text text-anchor="middle" x="348.5" y="-231.5" font-family="Helvetica,sans-Serif" font-size="10.00">src/Api/GameObject.cpp</text>
</a>
</g>
</g>
<!-- Node2 -->
<g id="node2" class="node">
<title>Node2</title>
<g id="a_node2"><a xlink:href="GameObject_8hpp.html" target="_top" xlink:title=" ">
<polygon fill="none" stroke="black" points="262,-168.5 262,-187.5 351,-187.5 351,-168.5 262,-168.5"/>
<text text-anchor="middle" x="306.5" y="-175.5" font-family="Helvetica,sans-Serif" font-size="10.00">GameObject.hpp</text>
</a>
</g>
</g>
<!-- Node1&#45;&gt;Node2 -->
<g id="edge1" class="edge">
<title>Node1&#45;&gt;Node2</title>
<path fill="none" stroke="midnightblue" d="M341.56,-224.08C335.57,-216.38 326.75,-205.03 319.45,-195.65"/>
<polygon fill="midnightblue" stroke="midnightblue" points="322.21,-193.5 313.31,-187.75 316.68,-197.79 322.21,-193.5"/>
</g>
<!-- Node9 -->
<g id="node9" class="node">
<title>Node9</title>
<g id="a_node9"><a xlink:href="Engine_8hpp.html" target="_top" xlink:title=" ">
<polygon fill="none" stroke="black" points="146.5,-168.5 146.5,-187.5 210.5,-187.5 210.5,-168.5 146.5,-168.5"/>
<text text-anchor="middle" x="178.5" y="-175.5" font-family="Helvetica,sans-Serif" font-size="10.00">Engine.hpp</text>
</a>
</g>
</g>
<!-- Node1&#45;&gt;Node9 -->
<g id="edge9" class="edge">
<title>Node1&#45;&gt;Node9</title>
<path fill="none" stroke="midnightblue" d="M321.56,-224.44C292.84,-215.32 247.17,-200.81 215.18,-190.65"/>
<polygon fill="midnightblue" stroke="midnightblue" points="215.9,-187.21 205.31,-187.52 213.78,-193.88 215.9,-187.21"/>
</g>
<!-- Node13 -->
<g id="node13" class="node">
<title>Node13</title>
<g id="a_node13"><a xlink:title=" ">
<polygon fill="none" stroke="#bfbfbf" points="368.5,-168.5 368.5,-187.5 412.5,-187.5 412.5,-168.5 368.5,-168.5"/>
<text text-anchor="middle" x="390.5" y="-175.5" font-family="Helvetica,sans-Serif" font-size="10.00">cmath</text>
</a>
</g>
</g>
<!-- Node1&#45;&gt;Node13 -->
<g id="edge16" class="edge">
<title>Node1&#45;&gt;Node13</title>
<path fill="none" stroke="midnightblue" d="M355.44,-224.08C361.43,-216.38 370.25,-205.03 377.55,-195.65"/>
<polygon fill="midnightblue" stroke="midnightblue" points="380.32,-197.79 383.69,-187.75 374.79,-193.5 380.32,-197.79"/>
</g>
<!-- Node14 -->
<g id="node14" class="node">
<title>Node14</title>
<g id="a_node14"><a xlink:title=" ">
<polygon fill="none" stroke="#bfbfbf" points="431,-168.5 431,-187.5 470,-187.5 470,-168.5 431,-168.5"/>
<text text-anchor="middle" x="450.5" y="-175.5" font-family="Helvetica,sans-Serif" font-size="10.00">utility</text>
</a>
</g>
</g>
<!-- Node1&#45;&gt;Node14 -->
<g id="edge17" class="edge">
<title>Node1&#45;&gt;Node14</title>
<path fill="none" stroke="midnightblue" d="M364.89,-224.32C381.17,-215.7 406.37,-202.36 425.22,-192.39"/>
<polygon fill="midnightblue" stroke="midnightblue" points="426.95,-195.43 434.15,-187.65 423.68,-189.24 426.95,-195.43"/>
</g>
<!-- Node3 -->
<g id="node3" class="node">
<title>Node3</title>
<g id="a_node3"><a xlink:href="Component_8hpp.html" target="_top" xlink:title=" ">
<polygon fill="none" stroke="black" points="227.5,-112.5 227.5,-131.5 311.5,-131.5 311.5,-112.5 227.5,-112.5"/>
<text text-anchor="middle" x="269.5" y="-119.5" font-family="Helvetica,sans-Serif" font-size="10.00">Component.hpp</text>
</a>
</g>
</g>
<!-- Node2&#45;&gt;Node3 -->
<g id="edge2" class="edge">
<title>Node2&#45;&gt;Node3</title>
<path fill="none" stroke="midnightblue" d="M300.39,-168.08C295.22,-160.53 287.65,-149.49 281.31,-140.23"/>
<polygon fill="midnightblue" stroke="midnightblue" points="284.04,-138.02 275.5,-131.75 278.26,-141.98 284.04,-138.02"/>
</g>
<!-- Node4 -->
<g id="node4" class="node">
<title>Node4</title>
<g id="a_node4"><a xlink:title=" ">
<polygon fill="none" stroke="#bfbfbf" points="153,-56.5 153,-75.5 204,-75.5 204,-56.5 153,-56.5"/>
<text text-anchor="middle" x="178.5" y="-63.5" font-family="Helvetica,sans-Serif" font-size="10.00">memory</text>
</a>
</g>
</g>
<!-- Node2&#45;&gt;Node4 -->
<g id="edge8" class="edge">
<title>Node2&#45;&gt;Node4</title>
<path fill="none" stroke="midnightblue" d="M261.62,-171.17C217.1,-164.35 153.44,-151.46 138.5,-132 126.07,-115.8 143.11,-95.54 158.63,-81.99"/>
<polygon fill="midnightblue" stroke="midnightblue" points="160.95,-84.62 166.45,-75.57 156.5,-79.21 160.95,-84.62"/>
</g>
<!-- Node5 -->
<g id="node5" class="node">
<title>Node5</title>
<g id="a_node5"><a xlink:href="Transform_8hpp.html" target="_top" xlink:title=" ">
<polygon fill="none" stroke="black" points="368,-112.5 368,-131.5 447,-131.5 447,-112.5 368,-112.5"/>
<text text-anchor="middle" x="407.5" y="-119.5" font-family="Helvetica,sans-Serif" font-size="10.00">Transform.hpp</text>
</a>
</g>
</g>
<!-- Node2&#45;&gt;Node5 -->
<g id="edge4" class="edge">
<title>Node2&#45;&gt;Node5</title>
<path fill="none" stroke="midnightblue" d="M322.73,-168.32C338.85,-159.7 363.8,-146.36 382.46,-136.39"/>
<polygon fill="midnightblue" stroke="midnightblue" points="384.14,-139.46 391.31,-131.65 380.84,-133.28 384.14,-139.46"/>
</g>
<!-- Node7 -->
<g id="node7" class="node">
<title>Node7</title>
<g id="a_node7"><a xlink:title=" ">
<polygon fill="none" stroke="#bfbfbf" points="240,-0.5 240,-19.5 281,-19.5 281,-0.5 240,-0.5"/>
<text text-anchor="middle" x="260.5" y="-7.5" font-family="Helvetica,sans-Serif" font-size="10.00">string</text>
</a>
</g>
</g>
<!-- Node2&#45;&gt;Node7 -->
<g id="edge6" class="edge">
<title>Node2&#45;&gt;Node7</title>
<path fill="none" stroke="midnightblue" d="M351.19,-169.51C390.35,-161.93 442.93,-148.92 455.5,-132 467.54,-115.79 462.47,-74.82 444.5,-56 423.64,-34.16 337.98,-20.49 291.25,-14.51"/>
<polygon fill="midnightblue" stroke="midnightblue" points="291.45,-11.01 281.09,-13.26 290.59,-17.96 291.45,-11.01"/>
</g>
<!-- Node8 -->
<g id="node8" class="node">
<title>Node8</title>
<g id="a_node8"><a xlink:title=" ">
<polygon fill="none" stroke="#bfbfbf" points="269.5,-56.5 269.5,-75.5 313.5,-75.5 313.5,-56.5 269.5,-56.5"/>
<text text-anchor="middle" x="291.5" y="-63.5" font-family="Helvetica,sans-Serif" font-size="10.00">vector</text>
</a>
</g>
</g>
<!-- Node2&#45;&gt;Node8 -->
<g id="edge7" class="edge">
<title>Node2&#45;&gt;Node8</title>
<path fill="none" stroke="midnightblue" d="M311.02,-168.49C317.06,-155.97 326.37,-131.93 320.5,-112 317.49,-101.76 311.35,-91.66 305.49,-83.63"/>
<polygon fill="midnightblue" stroke="midnightblue" points="308.09,-81.27 299.17,-75.54 302.57,-85.58 308.09,-81.27"/>
</g>
<!-- Node3&#45;&gt;Node4 -->
<g id="edge3" class="edge">
<title>Node3&#45;&gt;Node4</title>
<path fill="none" stroke="midnightblue" d="M254.88,-112.32C240.55,-103.82 218.49,-90.73 201.75,-80.8"/>
<polygon fill="midnightblue" stroke="midnightblue" points="203.47,-77.75 193.08,-75.65 199.9,-83.77 203.47,-77.75"/>
</g>
<!-- Node6 -->
<g id="node6" class="node">
<title>Node6</title>
<g id="a_node6"><a xlink:href="Point_8hpp.html" target="_top" xlink:title=" ">
<polygon fill="none" stroke="black" points="379,-56.5 379,-75.5 436,-75.5 436,-56.5 379,-56.5"/>
<text text-anchor="middle" x="407.5" y="-63.5" font-family="Helvetica,sans-Serif" font-size="10.00">Point.hpp</text>
</a>
</g>
</g>
<!-- Node5&#45;&gt;Node6 -->
<g id="edge5" class="edge">
<title>Node5&#45;&gt;Node6</title>
<path fill="none" stroke="midnightblue" d="M407.5,-112.08C407.5,-105.01 407.5,-94.86 407.5,-85.99"/>
<polygon fill="midnightblue" stroke="midnightblue" points="411,-85.75 407.5,-75.75 404,-85.75 411,-85.75"/>
</g>
<!-- Node10 -->
<g id="node10" class="node">
<title>Node10</title>
<g id="a_node10"><a xlink:href="EngineConfig_8hpp.html" target="_top" xlink:title=" ">
<polygon fill="none" stroke="black" points="0,-112.5 0,-131.5 91,-131.5 91,-112.5 0,-112.5"/>
<text text-anchor="middle" x="45.5" y="-119.5" font-family="Helvetica,sans-Serif" font-size="10.00">EngineConfig.hpp</text>
</a>
</g>
</g>
<!-- Node9&#45;&gt;Node10 -->
<g id="edge10" class="edge">
<title>Node9&#45;&gt;Node10</title>
<path fill="none" stroke="midnightblue" d="M157.43,-168.44C135.44,-159.52 100.77,-145.44 75.84,-135.32"/>
<polygon fill="midnightblue" stroke="midnightblue" points="77.06,-132.04 66.48,-131.52 74.42,-138.52 77.06,-132.04"/>
</g>
<!-- Node12 -->
<g id="node12" class="node">
<title>Node12</title>
<g id="a_node12"><a xlink:href="Scene_8hpp.html" target="_top" xlink:title=" ">
<polygon fill="none" stroke="black" points="147.5,-112.5 147.5,-131.5 209.5,-131.5 209.5,-112.5 147.5,-112.5"/>
<text text-anchor="middle" x="178.5" y="-119.5" font-family="Helvetica,sans-Serif" font-size="10.00">Scene.hpp</text>
</a>
</g>
</g>
<!-- Node9&#45;&gt;Node12 -->
<g id="edge13" class="edge">
<title>Node9&#45;&gt;Node12</title>
<path fill="none" stroke="midnightblue" d="M178.5,-168.08C178.5,-161.01 178.5,-150.86 178.5,-141.99"/>
<polygon fill="midnightblue" stroke="midnightblue" points="182,-141.75 178.5,-131.75 175,-141.75 182,-141.75"/>
</g>
<!-- Node11 -->
<g id="node11" class="node">
<title>Node11</title>
<g id="a_node11"><a xlink:href="WindowConfig_8hpp.html" target="_top" xlink:title=" ">
<polygon fill="none" stroke="black" points="18.5,-56.5 18.5,-75.5 114.5,-75.5 114.5,-56.5 18.5,-56.5"/>
<text text-anchor="middle" x="66.5" y="-63.5" font-family="Helvetica,sans-Serif" font-size="10.00">WindowConfig.hpp</text>
</a>
</g>
</g>
<!-- Node10&#45;&gt;Node11 -->
<g id="edge11" class="edge">
<title>Node10&#45;&gt;Node11</title>
<path fill="none" stroke="midnightblue" d="M48.97,-112.08C51.81,-104.77 55.93,-94.18 59.46,-85.1"/>
<polygon fill="midnightblue" stroke="midnightblue" points="62.73,-86.34 63.1,-75.75 56.21,-83.8 62.73,-86.34"/>
</g>
<!-- Node11&#45;&gt;Node7 -->
<g id="edge12" class="edge">
<title>Node11&#45;&gt;Node7</title>
<path fill="none" stroke="midnightblue" d="M97.24,-56.44C133.51,-46.35 193.46,-29.66 229.74,-19.56"/>
<polygon fill="midnightblue" stroke="midnightblue" points="231.05,-22.83 239.75,-16.78 229.17,-16.09 231.05,-22.83"/>
</g>
<!-- Node12&#45;&gt;Node4 -->
<g id="edge15" class="edge">
<title>Node12&#45;&gt;Node4</title>
<path fill="none" stroke="midnightblue" d="M178.5,-112.08C178.5,-105.01 178.5,-94.86 178.5,-85.99"/>
<polygon fill="midnightblue" stroke="midnightblue" points="182,-85.75 178.5,-75.75 175,-85.75 182,-85.75"/>
</g>
<!-- Node12&#45;&gt;Node8 -->
<g id="edge14" class="edge">
<title>Node12&#45;&gt;Node8</title>
<path fill="none" stroke="midnightblue" d="M196.41,-112.44C214.75,-103.68 243.51,-89.94 264.59,-79.86"/>
<polygon fill="midnightblue" stroke="midnightblue" points="266.17,-82.99 273.68,-75.52 263.15,-76.67 266.17,-82.99"/>
</g>
</g>
</svg>
