<?xml version="1.0" encoding="UTF-8" standalone="no"?>
<!DOCTYPE svg PUBLIC "-//W3C//DTD SVG 1.1//EN"
 "http://www.w3.org/Graphics/SVG/1.1/DTD/svg11.dtd">
<!-- Generated by graphviz version 2.44.0 ()
 -->
<!-- Title: src/Api/Utils/GameObjectUtil.cpp Pages: 1 -->
<svg width="386pt" height="263pt"
 viewBox="0.00 0.00 386.00 263.00" xmlns="http://www.w3.org/2000/svg" xmlns:xlink="http://www.w3.org/1999/xlink">
<g id="graph0" class="graph" transform="scale(1 1) rotate(0) translate(4 259)">
<title>src/Api/Utils/GameObjectUtil.cpp</title>
<!-- Node1 -->
<g id="node1" class="node">
<title>Node1</title>
<g id="a_node1"><a xlink:title=" ">
<polygon fill="#bfbfbf" stroke="black" points="0,-224.5 0,-254.5 128,-254.5 128,-224.5 0,-224.5"/>
<text text-anchor="start" x="8" y="-242.5" font-family="Helvetica,sans-Serif" font-size="10.00">src/Api/Utils/GameObject</text>
<text text-anchor="middle" x="64" y="-231.5" font-family="Helvetica,sans-Serif" font-size="10.00">Util.cpp</text>
</a>
</g>
</g>
<!-- Node2 -->
<g id="node2" class="node">
<title>Node2</title>
<g id="a_node2"><a xlink:href="GameObjectUtil_8hpp.html" target="_top" xlink:title=" ">
<polygon fill="none" stroke="black" points="0,-168.5 0,-187.5 128,-187.5 128,-168.5 0,-168.5"/>
<text text-anchor="middle" x="64" y="-175.5" font-family="Helvetica,sans-Serif" font-size="10.00">Utils/GameObjectUtil.hpp</text>
</a>
</g>
</g>
<!-- Node1&#45;&gt;Node2 -->
<g id="edge1" class="edge">
<title>Node1&#45;&gt;Node2</title>
<path fill="none" stroke="midnightblue" d="M64,-224.4C64,-216.47 64,-206.46 64,-197.86"/>
<polygon fill="midnightblue" stroke="midnightblue" points="67.5,-197.66 64,-187.66 60.5,-197.66 67.5,-197.66"/>
</g>
<!-- Node3 -->
<g id="node3" class="node">
<title>Node3</title>
<g id="a_node3"><a xlink:title=" ">
<polygon fill="none" stroke="#bfbfbf" points="22.5,-0.5 22.5,-19.5 73.5,-19.5 73.5,-0.5 22.5,-0.5"/>
<text text-anchor="middle" x="48" y="-7.5" font-family="Helvetica,sans-Serif" font-size="10.00">memory</text>
</a>
</g>
</g>
<!-- Node2&#45;&gt;Node3 -->
<g id="edge2" class="edge">
<title>Node2&#45;&gt;Node3</title>
<path fill="none" stroke="midnightblue" d="M62.97,-168.36C60.9,-150.92 56.18,-110.25 53,-76 51.56,-60.49 50.22,-42.86 49.29,-29.88"/>
<polygon fill="midnightblue" stroke="midnightblue" points="52.78,-29.57 48.59,-19.84 45.8,-30.06 52.78,-29.57"/>
</g>
<!-- Node4 -->
<g id="node4" class="node">
<title>Node4</title>
<g id="a_node4"><a xlink:href="GameObject_8hpp.html" target="_top" xlink:title=" ">
<polygon fill="none" stroke="black" points="122.5,-112.5 122.5,-131.5 211.5,-131.5 211.5,-112.5 122.5,-112.5"/>
<text text-anchor="middle" x="167" y="-119.5" font-family="Helvetica,sans-Serif" font-size="10.00">GameObject.hpp</text>
</a>
</g>
</g>
<!-- Node2&#45;&gt;Node4 -->
<g id="edge3" class="edge">
<title>Node2&#45;&gt;Node4</title>
<path fill="none" stroke="midnightblue" d="M80.55,-168.32C96.99,-159.7 122.43,-146.36 141.47,-136.39"/>
<polygon fill="midnightblue" stroke="midnightblue" points="143.26,-139.4 150.49,-131.65 140.01,-133.2 143.26,-139.4"/>
</g>
<!-- Node4&#45;&gt;Node3 -->
<g id="edge10" class="edge">
<title>Node4&#45;&gt;Node3</title>
<path fill="none" stroke="midnightblue" d="M129.49,-112.44C108.39,-105.81 83.12,-94.53 67,-76 55.79,-63.12 51.19,-43.95 49.3,-29.76"/>
<polygon fill="midnightblue" stroke="midnightblue" points="52.77,-29.26 48.29,-19.66 45.8,-29.96 52.77,-29.26"/>
</g>
<!-- Node5 -->
<g id="node5" class="node">
<title>Node5</title>
<g id="a_node5"><a xlink:href="Component_8hpp.html" target="_top" xlink:title=" ">
<polygon fill="none" stroke="black" points="76,-56.5 76,-75.5 160,-75.5 160,-56.5 76,-56.5"/>
<text text-anchor="middle" x="118" y="-63.5" font-family="Helvetica,sans-Serif" font-size="10.00">Component.hpp</text>
</a>
</g>
</g>
<!-- Node4&#45;&gt;Node5 -->
<g id="edge4" class="edge">
<title>Node4&#45;&gt;Node5</title>
<path fill="none" stroke="midnightblue" d="M158.91,-112.08C151.84,-104.3 141.41,-92.8 132.85,-83.37"/>
<polygon fill="midnightblue" stroke="midnightblue" points="135.25,-80.8 125.94,-75.75 130.07,-85.51 135.25,-80.8"/>
</g>
<!-- Node6 -->
<g id="node6" class="node">
<title>Node6</title>
<g id="a_node6"><a xlink:href="Transform_8hpp.html" target="_top" xlink:title=" ">
<polygon fill="none" stroke="black" points="177.5,-56.5 177.5,-75.5 256.5,-75.5 256.5,-56.5 177.5,-56.5"/>
<text text-anchor="middle" x="217" y="-63.5" font-family="Helvetica,sans-Serif" font-size="10.00">Transform.hpp</text>
</a>
</g>
</g>
<!-- Node4&#45;&gt;Node6 -->
<g id="edge6" class="edge">
<title>Node4&#45;&gt;Node6</title>
<path fill="none" stroke="midnightblue" d="M175.26,-112.08C182.46,-104.3 193.11,-92.8 201.85,-83.37"/>
<polygon fill="midnightblue" stroke="midnightblue" points="204.67,-85.47 208.9,-75.75 199.53,-80.71 204.67,-85.47"/>
</g>
<!-- Node8 -->
<g id="node8" class="node">
<title>Node8</title>
<g id="a_node8"><a xlink:title=" ">
<polygon fill="none" stroke="#bfbfbf" points="274.5,-56.5 274.5,-75.5 315.5,-75.5 315.5,-56.5 274.5,-56.5"/>
<text text-anchor="middle" x="295" y="-63.5" font-family="Helvetica,sans-Serif" font-size="10.00">string</text>
</a>
</g>
</g>
<!-- Node4&#45;&gt;Node8 -->
<g id="edge8" class="edge">
<title>Node4&#45;&gt;Node8</title>
<path fill="none" stroke="midnightblue" d="M187.28,-112.44C208.35,-103.56 241.52,-89.56 265.49,-79.45"/>
<polygon fill="midnightblue" stroke="midnightblue" points="266.96,-82.63 274.81,-75.52 264.24,-76.18 266.96,-82.63"/>
</g>
<!-- Node9 -->
<g id="node9" class="node">
<title>Node9</title>
<g id="a_node9"><a xlink:title=" ">
<polygon fill="none" stroke="#bfbfbf" points="334,-56.5 334,-75.5 378,-75.5 378,-56.5 334,-56.5"/>
<text text-anchor="middle" x="356" y="-63.5" font-family="Helvetica,sans-Serif" font-size="10.00">vector</text>
</a>
</g>
</g>
<!-- Node4&#45;&gt;Node9 -->
<g id="edge9" class="edge">
<title>Node4&#45;&gt;Node9</title>
<path fill="none" stroke="midnightblue" d="M197.3,-112.42C227.19,-103.94 274.43,-90.52 324.32,-76.19"/>
<polygon fill="midnightblue" stroke="midnightblue" points="325.35,-79.53 333.99,-73.41 323.41,-72.81 325.35,-79.53"/>
</g>
<!-- Node5&#45;&gt;Node3 -->
<g id="edge5" class="edge">
<title>Node5&#45;&gt;Node3</title>
<path fill="none" stroke="midnightblue" d="M106.75,-56.32C96.2,-48.18 80.2,-35.84 67.56,-26.09"/>
<polygon fill="midnightblue" stroke="midnightblue" points="69.51,-23.17 59.45,-19.83 65.23,-28.71 69.51,-23.17"/>
</g>
<!-- Node7 -->
<g id="node7" class="node">
<title>Node7</title>
<g id="a_node7"><a xlink:href="Point_8hpp.html" target="_top" xlink:title=" ">
<polygon fill="none" stroke="black" points="188.5,-0.5 188.5,-19.5 245.5,-19.5 245.5,-0.5 188.5,-0.5"/>
<text text-anchor="middle" x="217" y="-7.5" font-family="Helvetica,sans-Serif" font-size="10.00">Point.hpp</text>
</a>
</g>
</g>
<!-- Node6&#45;&gt;Node7 -->
<g id="edge7" class="edge">
<title>Node6&#45;&gt;Node7</title>
<path fill="none" stroke="midnightblue" d="M217,-56.08C217,-49.01 217,-38.86 217,-29.99"/>
<polygon fill="midnightblue" stroke="midnightblue" points="220.5,-29.75 217,-19.75 213.5,-29.75 220.5,-29.75"/>
</g>
</g>
</svg>
