<?xml version="1.0" encoding="UTF-8" standalone="no"?>
<!DOCTYPE svg PUBLIC "-//W3C//DTD SVG 1.1//EN"
 "http://www.w3.org/Graphics/SVG/1.1/DTD/svg11.dtd">
<!-- Generated by graphviz version 2.44.0 ()
 -->
<!-- Title: includes/spic&#45;api&#45;headers/IKeyListener.hpp Pages: 1 -->
<svg width="1006pt" height="229pt"
 viewBox="0.00 0.00 1005.82 229.00" xmlns="http://www.w3.org/2000/svg" xmlns:xlink="http://www.w3.org/1999/xlink">
<g id="graph0" class="graph" transform="scale(1 1) rotate(0) translate(4 225)">
<title>includes/spic&#45;api&#45;headers/IKeyListener.hpp</title>
<!-- Node1 -->
<g id="node1" class="node">
<title>Node1</title>
<g id="a_node1"><a xlink:title=" ">
<polygon fill="#bfbfbf" stroke="black" points="267.5,-190.5 267.5,-220.5 394.5,-220.5 394.5,-190.5 267.5,-190.5"/>
<text text-anchor="start" x="275.5" y="-208.5" font-family="Helvetica,sans-Serif" font-size="10.00">includes/spic&#45;api&#45;headers</text>
<text text-anchor="middle" x="331" y="-197.5" font-family="Helvetica,sans-Serif" font-size="10.00">/IKeyListener.hpp</text>
</a>
</g>
</g>
<!-- Node2 -->
<g id="node2" class="node">
<title>Node2</title>
<g id="a_node2"><a xlink:href="InputManager_8hpp.html" target="_top" xlink:title=" ">
<polygon fill="none" stroke="black" points="93,-62 93,-81 249,-81 249,-62 93,-62"/>
<text text-anchor="middle" x="171" y="-69" font-family="Helvetica,sans-Serif" font-size="10.00">src/Managers/InputManager.hpp</text>
</a>
</g>
</g>
<!-- Node1&#45;&gt;Node2 -->
<g id="edge1" class="edge">
<title>Node1&#45;&gt;Node2</title>
<path fill="none" stroke="midnightblue" d="M305.87,-183.77C270.18,-154.33 206.39,-101.69 181.42,-81.1"/>
<polygon fill="midnightblue" stroke="midnightblue" points="303.94,-186.71 313.88,-190.37 308.39,-181.31 303.94,-186.71"/>
</g>
<!-- Node6 -->
<g id="node6" class="node">
<title>Node6</title>
<g id="a_node6"><a xlink:href="Api_8hpp.html" target="_top" xlink:title=" ">
<polygon fill="none" stroke="black" points="267.5,-56.5 267.5,-86.5 394.5,-86.5 394.5,-56.5 267.5,-56.5"/>
<text text-anchor="start" x="275.5" y="-74.5" font-family="Helvetica,sans-Serif" font-size="10.00">includes/spic&#45;api&#45;headers</text>
<text text-anchor="middle" x="331" y="-63.5" font-family="Helvetica,sans-Serif" font-size="10.00">/Api.hpp</text>
</a>
</g>
</g>
<!-- Node1&#45;&gt;Node6 -->
<g id="edge5" class="edge">
<title>Node1&#45;&gt;Node6</title>
<path fill="none" stroke="midnightblue" d="M331,-180.02C331,-152.51 331,-108.79 331,-86.52"/>
<polygon fill="midnightblue" stroke="midnightblue" points="327.5,-180.37 331,-190.37 334.5,-180.37 327.5,-180.37"/>
</g>
<!-- Node7 -->
<g id="node7" class="node">
<title>Node7</title>
<g id="a_node7"><a xlink:href="Input_8hpp.html" target="_top" xlink:title=" ">
<polygon fill="none" stroke="black" points="464.5,-123.5 464.5,-153.5 591.5,-153.5 591.5,-123.5 464.5,-123.5"/>
<text text-anchor="start" x="472.5" y="-141.5" font-family="Helvetica,sans-Serif" font-size="10.00">includes/spic&#45;api&#45;headers</text>
<text text-anchor="middle" x="528" y="-130.5" font-family="Helvetica,sans-Serif" font-size="10.00">/Input.hpp</text>
</a>
</g>
</g>
<!-- Node1&#45;&gt;Node7 -->
<g id="edge6" class="edge">
<title>Node1&#45;&gt;Node7</title>
<path fill="none" stroke="midnightblue" d="M383.35,-187.23C415.22,-176.71 455.41,-163.45 485.34,-153.58"/>
<polygon fill="midnightblue" stroke="midnightblue" points="382.15,-183.94 373.75,-190.4 384.34,-190.59 382.15,-183.94"/>
</g>
<!-- Node3 -->
<g id="node3" class="node">
<title>Node3</title>
<g id="a_node3"><a xlink:href="Input_8cpp.html" target="_top" xlink:title=" ">
<polygon fill="none" stroke="black" points="668,-0.5 668,-19.5 758,-19.5 758,-0.5 668,-0.5"/>
<text text-anchor="middle" x="713" y="-7.5" font-family="Helvetica,sans-Serif" font-size="10.00">src/Api/Input.cpp</text>
</a>
</g>
</g>
<!-- Node2&#45;&gt;Node3 -->
<g id="edge2" class="edge">
<title>Node2&#45;&gt;Node3</title>
<path fill="none" stroke="midnightblue" d="M228.79,-60.32C238.52,-58.76 248.54,-57.26 258,-56 407.51,-36.17 585.72,-20.99 667.68,-14.48"/>
<polygon fill="midnightblue" stroke="midnightblue" points="228.08,-56.88 218.78,-61.95 229.21,-63.79 228.08,-56.88"/>
</g>
<!-- Node4 -->
<g id="node4" class="node">
<title>Node4</title>
<g id="a_node4"><a xlink:href="InputManager_8cpp.html" target="_top" xlink:title=" ">
<polygon fill="none" stroke="black" points="0,-0.5 0,-19.5 156,-19.5 156,-0.5 0,-0.5"/>
<text text-anchor="middle" x="78" y="-7.5" font-family="Helvetica,sans-Serif" font-size="10.00">src/Managers/InputManager.cpp</text>
</a>
</g>
</g>
<!-- Node2&#45;&gt;Node4 -->
<g id="edge3" class="edge">
<title>Node2&#45;&gt;Node4</title>
<path fill="none" stroke="midnightblue" d="M149.01,-56.43C131.08,-44.96 106.34,-29.13 91.3,-19.51"/>
<polygon fill="midnightblue" stroke="midnightblue" points="147.37,-59.53 157.68,-61.98 151.14,-53.64 147.37,-59.53"/>
</g>
<!-- Node5 -->
<g id="node5" class="node">
<title>Node5</title>
<g id="a_node5"><a xlink:href="InputSubsystem_8cpp.html" target="_top" xlink:title=" ">
<polygon fill="none" stroke="black" points="174.5,-0.5 174.5,-19.5 353.5,-19.5 353.5,-0.5 174.5,-0.5"/>
<text text-anchor="middle" x="264" y="-7.5" font-family="Helvetica,sans-Serif" font-size="10.00">src/Subsystems/InputSubsystem.cpp</text>
</a>
</g>
</g>
<!-- Node2&#45;&gt;Node5 -->
<g id="edge4" class="edge">
<title>Node2&#45;&gt;Node5</title>
<path fill="none" stroke="midnightblue" d="M192.99,-56.43C210.92,-44.96 235.66,-29.13 250.7,-19.51"/>
<polygon fill="midnightblue" stroke="midnightblue" points="190.86,-53.64 184.32,-61.98 194.63,-59.53 190.86,-53.64"/>
</g>
<!-- Node7&#45;&gt;Node2 -->
<g id="edge10" class="edge">
<title>Node7&#45;&gt;Node2</title>
<path fill="none" stroke="midnightblue" d="M453.95,-124.02C382.94,-111.09 277.89,-91.96 217.78,-81.02"/>
<polygon fill="midnightblue" stroke="midnightblue" points="453.71,-127.53 464.18,-125.88 454.96,-120.64 453.71,-127.53"/>
</g>
<!-- Node7&#45;&gt;Node3 -->
<g id="edge8" class="edge">
<title>Node7&#45;&gt;Node3</title>
<path fill="none" stroke="midnightblue" d="M601.9,-134.75C726.06,-129.37 965.53,-115.4 991,-87 1000.2,-76.74 999.93,-66.49 991,-56 961.65,-21.51 829.2,-13.37 758.24,-11.51"/>
<polygon fill="midnightblue" stroke="midnightblue" points="601.55,-131.26 591.71,-135.19 601.85,-138.26 601.55,-131.26"/>
</g>
<!-- Node7&#45;&gt;Node6 -->
<g id="edge13" class="edge">
<title>Node7&#45;&gt;Node6</title>
<path fill="none" stroke="midnightblue" d="M475.65,-120.23C443.78,-109.71 403.59,-96.45 373.66,-86.58"/>
<polygon fill="midnightblue" stroke="midnightblue" points="474.66,-123.59 485.25,-123.4 476.85,-116.94 474.66,-123.59"/>
</g>
<!-- Node8 -->
<g id="node8" class="node">
<title>Node8</title>
<g id="a_node8"><a xlink:href="Button_8cpp.html" target="_top" xlink:title=" ">
<polygon fill="none" stroke="black" points="412.5,-62 412.5,-81 509.5,-81 509.5,-62 412.5,-62"/>
<text text-anchor="middle" x="461" y="-69" font-family="Helvetica,sans-Serif" font-size="10.00">src/Api/Button.cpp</text>
</a>
</g>
</g>
<!-- Node7&#45;&gt;Node8 -->
<g id="edge7" class="edge">
<title>Node7&#45;&gt;Node8</title>
<path fill="none" stroke="midnightblue" d="M506.18,-116.34C493.88,-104.4 479.18,-90.14 469.96,-81.19"/>
<polygon fill="midnightblue" stroke="midnightblue" points="503.85,-118.94 513.46,-123.4 508.72,-113.92 503.85,-118.94"/>
</g>
<!-- Node9 -->
<g id="node9" class="node">
<title>Node9</title>
<g id="a_node9"><a xlink:href="ButtonMouseListener_8cpp.html" target="_top" xlink:title=" ">
<polygon fill="none" stroke="black" points="528,-56.5 528,-86.5 662,-86.5 662,-56.5 528,-56.5"/>
<text text-anchor="start" x="536" y="-74.5" font-family="Helvetica,sans-Serif" font-size="10.00">src/Listeners/ButtonMouse</text>
<text text-anchor="middle" x="595" y="-63.5" font-family="Helvetica,sans-Serif" font-size="10.00">Listener.cpp</text>
</a>
</g>
</g>
<!-- Node7&#45;&gt;Node9 -->
<g id="edge9" class="edge">
<title>Node7&#45;&gt;Node9</title>
<path fill="none" stroke="midnightblue" d="M549.84,-116.31C559.89,-106.56 571.54,-95.26 580.49,-86.58"/>
<polygon fill="midnightblue" stroke="midnightblue" points="547.28,-113.92 542.54,-123.4 552.15,-118.94 547.28,-113.92"/>
</g>
<!-- Node10 -->
<g id="node10" class="node">
<title>Node10</title>
<g id="a_node10"><a xlink:href="FpsCounterSubsystem_8cpp.html" target="_top" xlink:title=" ">
<polygon fill="none" stroke="black" points="680,-56.5 680,-86.5 820,-86.5 820,-56.5 680,-56.5"/>
<text text-anchor="start" x="688" y="-74.5" font-family="Helvetica,sans-Serif" font-size="10.00">src/Subsystems/FpsCounter</text>
<text text-anchor="middle" x="750" y="-63.5" font-family="Helvetica,sans-Serif" font-size="10.00">Subsystem.cpp</text>
</a>
</g>
</g>
<!-- Node7&#45;&gt;Node10 -->
<g id="edge11" class="edge">
<title>Node7&#45;&gt;Node10</title>
<path fill="none" stroke="midnightblue" d="M585.79,-120.58C621.85,-110.02 667.72,-96.59 701.81,-86.61"/>
<polygon fill="midnightblue" stroke="midnightblue" points="584.51,-117.31 575.9,-123.48 586.48,-124.02 584.51,-117.31"/>
</g>
<!-- Node11 -->
<g id="node11" class="node">
<title>Node11</title>
<g id="a_node11"><a xlink:href="GameSpeedSubsystem_8cpp.html" target="_top" xlink:title=" ">
<polygon fill="none" stroke="black" points="838,-56.5 838,-86.5 982,-86.5 982,-56.5 838,-56.5"/>
<text text-anchor="start" x="846" y="-74.5" font-family="Helvetica,sans-Serif" font-size="10.00">src/Subsystems/GameSpeed</text>
<text text-anchor="middle" x="910" y="-63.5" font-family="Helvetica,sans-Serif" font-size="10.00">Subsystem.cpp</text>
</a>
</g>
</g>
<!-- Node7&#45;&gt;Node11 -->
<g id="edge12" class="edge">
<title>Node7&#45;&gt;Node11</title>
<path fill="none" stroke="midnightblue" d="M601.66,-125.37C662.62,-115.28 751.48,-100.44 829,-87 831.82,-86.51 834.68,-86.01 837.58,-85.5"/>
<polygon fill="midnightblue" stroke="midnightblue" points="601.04,-121.93 591.75,-127.01 602.18,-128.83 601.04,-121.93"/>
</g>
</g>
</svg>
