<?xml version="1.0" encoding="UTF-8" standalone="no"?>
<!DOCTYPE svg PUBLIC "-//W3C//DTD SVG 1.1//EN"
 "http://www.w3.org/Graphics/SVG/1.1/DTD/svg11.dtd">
<!-- Generated by graphviz version 2.44.0 ()
 -->
<!-- Title: includes/spic&#45;api&#45;headers/IMouseListener.hpp Pages: 1 -->
<svg width="936pt" height="229pt"
 viewBox="0.00 0.00 935.50 229.00" xmlns="http://www.w3.org/2000/svg" xmlns:xlink="http://www.w3.org/1999/xlink">
<g id="graph0" class="graph" transform="scale(1 1) rotate(0) translate(4 225)">
<title>includes/spic&#45;api&#45;headers/IMouseListener.hpp</title>
<!-- Node1 -->
<g id="node1" class="node">
<title>Node1</title>
<g id="a_node1"><a xlink:title=" ">
<polygon fill="#bfbfbf" stroke="black" points="384.5,-190.5 384.5,-220.5 511.5,-220.5 511.5,-190.5 384.5,-190.5"/>
<text text-anchor="start" x="392.5" y="-208.5" font-family="Helvetica,sans-Serif" font-size="10.00">includes/spic&#45;api&#45;headers</text>
<text text-anchor="middle" x="448" y="-197.5" font-family="Helvetica,sans-Serif" font-size="10.00">/IMouseListener.hpp</text>
</a>
</g>
</g>
<!-- Node2 -->
<g id="node2" class="node">
<title>Node2</title>
<g id="a_node2"><a xlink:href="ButtonMouseListener_8hpp.html" target="_top" xlink:title=" ">
<polygon fill="none" stroke="black" points="134,-123.5 134,-153.5 268,-153.5 268,-123.5 134,-123.5"/>
<text text-anchor="start" x="142" y="-141.5" font-family="Helvetica,sans-Serif" font-size="10.00">src/Listeners/ButtonMouse</text>
<text text-anchor="middle" x="201" y="-130.5" font-family="Helvetica,sans-Serif" font-size="10.00">Listener.hpp</text>
</a>
</g>
</g>
<!-- Node1&#45;&gt;Node2 -->
<g id="edge1" class="edge">
<title>Node1&#45;&gt;Node2</title>
<path fill="none" stroke="midnightblue" d="M384.99,-187.92C344.68,-177.31 292.96,-163.7 254.62,-153.61"/>
<polygon fill="midnightblue" stroke="midnightblue" points="384.15,-191.32 394.71,-190.48 385.93,-184.55 384.15,-191.32"/>
</g>
<!-- Node5 -->
<g id="node5" class="node">
<title>Node5</title>
<g id="a_node5"><a xlink:href="InputManager_8hpp.html" target="_top" xlink:title=" ">
<polygon fill="none" stroke="black" points="268,-62 268,-81 424,-81 424,-62 268,-62"/>
<text text-anchor="middle" x="346" y="-69" font-family="Helvetica,sans-Serif" font-size="10.00">src/Managers/InputManager.hpp</text>
</a>
</g>
</g>
<!-- Node1&#45;&gt;Node5 -->
<g id="edge4" class="edge">
<title>Node1&#45;&gt;Node5</title>
<path fill="none" stroke="midnightblue" d="M411.63,-185.15C398.96,-176.94 385.53,-166.39 376,-154 358.44,-131.18 350.38,-97.04 347.42,-81.18"/>
<polygon fill="midnightblue" stroke="midnightblue" points="409.88,-188.18 420.23,-190.45 413.56,-182.23 409.88,-188.18"/>
</g>
<!-- Node9 -->
<g id="node9" class="node">
<title>Node9</title>
<g id="a_node9"><a xlink:href="Api_8hpp.html" target="_top" xlink:title=" ">
<polygon fill="none" stroke="black" points="800.5,-56.5 800.5,-86.5 927.5,-86.5 927.5,-56.5 800.5,-56.5"/>
<text text-anchor="start" x="808.5" y="-74.5" font-family="Helvetica,sans-Serif" font-size="10.00">includes/spic&#45;api&#45;headers</text>
<text text-anchor="middle" x="864" y="-63.5" font-family="Helvetica,sans-Serif" font-size="10.00">/Api.hpp</text>
</a>
</g>
</g>
<!-- Node1&#45;&gt;Node9 -->
<g id="edge8" class="edge">
<title>Node1&#45;&gt;Node9</title>
<path fill="none" stroke="midnightblue" d="M477.43,-184.79C490.87,-175.63 506.89,-164.47 521,-154 538.78,-140.81 539.72,-131.89 560,-123 655.17,-81.29 688.69,-105.13 791,-87 794.05,-86.46 797.18,-85.89 800.33,-85.31"/>
<polygon fill="midnightblue" stroke="midnightblue" points="475.34,-181.99 469.03,-190.5 479.27,-187.78 475.34,-181.99"/>
</g>
<!-- Node10 -->
<g id="node10" class="node">
<title>Node10</title>
<g id="a_node10"><a xlink:href="Button__includes_8hpp.html" target="_top" xlink:title=" ">
<polygon fill="none" stroke="black" points="568.5,-123.5 568.5,-153.5 695.5,-153.5 695.5,-123.5 568.5,-123.5"/>
<text text-anchor="start" x="576.5" y="-141.5" font-family="Helvetica,sans-Serif" font-size="10.00">includes/spic&#45;api&#45;headers</text>
<text text-anchor="middle" x="632" y="-130.5" font-family="Helvetica,sans-Serif" font-size="10.00">/Button_includes.hpp</text>
</a>
</g>
</g>
<!-- Node1&#45;&gt;Node10 -->
<g id="edge9" class="edge">
<title>Node1&#45;&gt;Node10</title>
<path fill="none" stroke="midnightblue" d="M497.67,-186.96C527.3,-176.48 564.44,-163.37 592.15,-153.58"/>
<polygon fill="midnightblue" stroke="midnightblue" points="496.19,-183.76 487.93,-190.4 498.52,-190.37 496.19,-183.76"/>
</g>
<!-- Node11 -->
<g id="node11" class="node">
<title>Node11</title>
<g id="a_node11"><a xlink:href="Input_8hpp.html" target="_top" xlink:title=" ">
<polygon fill="none" stroke="black" points="384.5,-123.5 384.5,-153.5 511.5,-153.5 511.5,-123.5 384.5,-123.5"/>
<text text-anchor="start" x="392.5" y="-141.5" font-family="Helvetica,sans-Serif" font-size="10.00">includes/spic&#45;api&#45;headers</text>
<text text-anchor="middle" x="448" y="-130.5" font-family="Helvetica,sans-Serif" font-size="10.00">/Input.hpp</text>
</a>
</g>
</g>
<!-- Node1&#45;&gt;Node11 -->
<g id="edge10" class="edge">
<title>Node1&#45;&gt;Node11</title>
<path fill="none" stroke="midnightblue" d="M448,-180.11C448,-171.15 448,-161.32 448,-153.58"/>
<polygon fill="midnightblue" stroke="midnightblue" points="444.5,-180.4 448,-190.4 451.5,-180.4 444.5,-180.4"/>
</g>
<!-- Node3 -->
<g id="node3" class="node">
<title>Node3</title>
<g id="a_node3"><a xlink:href="Button_8cpp.html" target="_top" xlink:title=" ">
<polygon fill="none" stroke="black" points="152.5,-62 152.5,-81 249.5,-81 249.5,-62 152.5,-62"/>
<text text-anchor="middle" x="201" y="-69" font-family="Helvetica,sans-Serif" font-size="10.00">src/Api/Button.cpp</text>
</a>
</g>
</g>
<!-- Node2&#45;&gt;Node3 -->
<g id="edge2" class="edge">
<title>Node2&#45;&gt;Node3</title>
<path fill="none" stroke="midnightblue" d="M201,-113.25C201,-102.02 201,-89.38 201,-81.19"/>
<polygon fill="midnightblue" stroke="midnightblue" points="197.5,-113.4 201,-123.4 204.5,-113.4 197.5,-113.4"/>
</g>
<!-- Node4 -->
<g id="node4" class="node">
<title>Node4</title>
<g id="a_node4"><a xlink:href="ButtonMouseListener_8cpp.html" target="_top" xlink:title=" ">
<polygon fill="none" stroke="black" points="0,-56.5 0,-86.5 134,-86.5 134,-56.5 0,-56.5"/>
<text text-anchor="start" x="8" y="-74.5" font-family="Helvetica,sans-Serif" font-size="10.00">src/Listeners/ButtonMouse</text>
<text text-anchor="middle" x="67" y="-63.5" font-family="Helvetica,sans-Serif" font-size="10.00">Listener.cpp</text>
</a>
</g>
</g>
<!-- Node2&#45;&gt;Node4 -->
<g id="edge3" class="edge">
<title>Node2&#45;&gt;Node4</title>
<path fill="none" stroke="midnightblue" d="M162.85,-118.99C141.61,-108.69 115.59,-96.07 96.02,-86.58"/>
<polygon fill="midnightblue" stroke="midnightblue" points="161.4,-122.18 171.92,-123.4 164.45,-115.88 161.4,-122.18"/>
</g>
<!-- Node6 -->
<g id="node6" class="node">
<title>Node6</title>
<g id="a_node6"><a xlink:href="Input_8cpp.html" target="_top" xlink:title=" ">
<polygon fill="none" stroke="black" points="431,-0.5 431,-19.5 521,-19.5 521,-0.5 431,-0.5"/>
<text text-anchor="middle" x="476" y="-7.5" font-family="Helvetica,sans-Serif" font-size="10.00">src/Api/Input.cpp</text>
</a>
</g>
</g>
<!-- Node5&#45;&gt;Node6 -->
<g id="edge5" class="edge">
<title>Node5&#45;&gt;Node6</title>
<path fill="none" stroke="midnightblue" d="M374.02,-57.67C399.25,-46.13 435.61,-29.49 457.41,-19.51"/>
<polygon fill="midnightblue" stroke="midnightblue" points="372.26,-54.63 364.63,-61.98 375.18,-61 372.26,-54.63"/>
</g>
<!-- Node7 -->
<g id="node7" class="node">
<title>Node7</title>
<g id="a_node7"><a xlink:href="InputManager_8cpp.html" target="_top" xlink:title=" ">
<polygon fill="none" stroke="black" points="59,-0.5 59,-19.5 215,-19.5 215,-0.5 59,-0.5"/>
<text text-anchor="middle" x="137" y="-7.5" font-family="Helvetica,sans-Serif" font-size="10.00">src/Managers/InputManager.cpp</text>
</a>
</g>
</g>
<!-- Node5&#45;&gt;Node7 -->
<g id="edge6" class="edge">
<title>Node5&#45;&gt;Node7</title>
<path fill="none" stroke="midnightblue" d="M306.22,-59.18C265.61,-47.61 203.49,-29.93 166.89,-19.51"/>
<polygon fill="midnightblue" stroke="midnightblue" points="305.48,-62.6 316.06,-61.98 307.4,-55.87 305.48,-62.6"/>
</g>
<!-- Node8 -->
<g id="node8" class="node">
<title>Node8</title>
<g id="a_node8"><a xlink:href="InputSubsystem_8cpp.html" target="_top" xlink:title=" ">
<polygon fill="none" stroke="black" points="233.5,-0.5 233.5,-19.5 412.5,-19.5 412.5,-0.5 233.5,-0.5"/>
<text text-anchor="middle" x="323" y="-7.5" font-family="Helvetica,sans-Serif" font-size="10.00">src/Subsystems/InputSubsystem.cpp</text>
</a>
</g>
</g>
<!-- Node5&#45;&gt;Node8 -->
<g id="edge7" class="edge">
<title>Node5&#45;&gt;Node8</title>
<path fill="none" stroke="midnightblue" d="M339.04,-52.5C334.81,-41.55 329.6,-28.07 326.29,-19.51"/>
<polygon fill="midnightblue" stroke="midnightblue" points="335.83,-53.91 342.7,-61.98 342.36,-51.39 335.83,-53.91"/>
</g>
<!-- Node11&#45;&gt;Node3 -->
<g id="edge11" class="edge">
<title>Node11&#45;&gt;Node3</title>
<path fill="none" stroke="midnightblue" d="M384.96,-120.91C336.59,-108.18 271.78,-91.13 233.41,-81.03"/>
<polygon fill="midnightblue" stroke="midnightblue" points="384.15,-124.32 394.71,-123.48 385.93,-117.55 384.15,-124.32"/>
</g>
<!-- Node11&#45;&gt;Node4 -->
<g id="edge13" class="edge">
<title>Node11&#45;&gt;Node4</title>
<path fill="none" stroke="midnightblue" d="M374.2,-125.8C312.37,-115.87 221.83,-101.04 143,-87 140.09,-86.48 137.12,-85.95 134.12,-85.4"/>
<polygon fill="midnightblue" stroke="midnightblue" points="373.82,-129.28 384.25,-127.41 374.93,-122.37 373.82,-129.28"/>
</g>
<!-- Node11&#45;&gt;Node5 -->
<g id="edge14" class="edge">
<title>Node11&#45;&gt;Node5</title>
<path fill="none" stroke="midnightblue" d="M417.36,-117.97C398.02,-105.65 374,-90.35 359.35,-81.01"/>
<polygon fill="midnightblue" stroke="midnightblue" points="415.55,-120.97 425.87,-123.4 419.32,-115.07 415.55,-120.97"/>
</g>
<!-- Node11&#45;&gt;Node6 -->
<g id="edge12" class="edge">
<title>Node11&#45;&gt;Node6</title>
<path fill="none" stroke="midnightblue" d="M453.31,-113.51C459.62,-85.02 469.81,-38.94 474.05,-19.79"/>
<polygon fill="midnightblue" stroke="midnightblue" points="449.85,-112.96 451.1,-123.48 456.68,-114.47 449.85,-112.96"/>
</g>
<!-- Node11&#45;&gt;Node9 -->
<g id="edge17" class="edge">
<title>Node11&#45;&gt;Node9</title>
<path fill="none" stroke="midnightblue" d="M522.07,-123.64C523.39,-123.42 524.7,-123.21 526,-123 643.35,-104.13 673.77,-106.59 791,-87 794.06,-86.49 797.19,-85.95 800.34,-85.38"/>
<polygon fill="midnightblue" stroke="midnightblue" points="521.08,-120.26 511.81,-125.38 522.25,-127.16 521.08,-120.26"/>
</g>
<!-- Node12 -->
<g id="node12" class="node">
<title>Node12</title>
<g id="a_node12"><a xlink:href="FpsCounterSubsystem_8cpp.html" target="_top" xlink:title=" ">
<polygon fill="none" stroke="black" points="480,-56.5 480,-86.5 620,-86.5 620,-56.5 480,-56.5"/>
<text text-anchor="start" x="488" y="-74.5" font-family="Helvetica,sans-Serif" font-size="10.00">src/Subsystems/FpsCounter</text>
<text text-anchor="middle" x="550" y="-63.5" font-family="Helvetica,sans-Serif" font-size="10.00">Subsystem.cpp</text>
</a>
</g>
</g>
<!-- Node11&#45;&gt;Node12 -->
<g id="edge15" class="edge">
<title>Node11&#45;&gt;Node12</title>
<path fill="none" stroke="midnightblue" d="M478.58,-118.02C494.45,-107.9 513.48,-95.77 527.91,-86.58"/>
<polygon fill="midnightblue" stroke="midnightblue" points="476.68,-115.07 470.13,-123.4 480.45,-120.97 476.68,-115.07"/>
</g>
<!-- Node13 -->
<g id="node13" class="node">
<title>Node13</title>
<g id="a_node13"><a xlink:href="GameSpeedSubsystem_8cpp.html" target="_top" xlink:title=" ">
<polygon fill="none" stroke="black" points="638,-56.5 638,-86.5 782,-86.5 782,-56.5 638,-56.5"/>
<text text-anchor="start" x="646" y="-74.5" font-family="Helvetica,sans-Serif" font-size="10.00">src/Subsystems/GameSpeed</text>
<text text-anchor="middle" x="710" y="-63.5" font-family="Helvetica,sans-Serif" font-size="10.00">Subsystem.cpp</text>
</a>
</g>
</g>
<!-- Node11&#45;&gt;Node13 -->
<g id="edge16" class="edge">
<title>Node11&#45;&gt;Node13</title>
<path fill="none" stroke="midnightblue" d="M514.3,-121.05C557.13,-110.43 612.29,-96.74 653.12,-86.61"/>
<polygon fill="midnightblue" stroke="midnightblue" points="513.39,-117.67 504.53,-123.48 515.08,-124.47 513.39,-117.67"/>
</g>
</g>
</svg>
