<?xml version="1.0" encoding="UTF-8" standalone="no"?>
<!DOCTYPE svg PUBLIC "-//W3C//DTD SVG 1.1//EN"
 "http://www.w3.org/Graphics/SVG/1.1/DTD/svg11.dtd">
<!-- Generated by graphviz version 2.44.0 ()
 -->
<!-- Title: includes/spic&#45;api&#45;headers/Input.hpp Pages: 1 -->
<svg width="935pt" height="162pt"
 viewBox="0.00 0.00 935.00 162.00" xmlns="http://www.w3.org/2000/svg" xmlns:xlink="http://www.w3.org/1999/xlink">
<g id="graph0" class="graph" transform="scale(1 1) rotate(0) translate(4 158)">
<title>includes/spic&#45;api&#45;headers/Input.hpp</title>
<!-- Node1 -->
<g id="node1" class="node">
<title>Node1</title>
<g id="a_node1"><a xlink:title=" ">
<polygon fill="#bfbfbf" stroke="black" points="320,-123.5 320,-153.5 447,-153.5 447,-123.5 320,-123.5"/>
<text text-anchor="start" x="328" y="-141.5" font-family="Helvetica,sans-Serif" font-size="10.00">includes/spic&#45;api&#45;headers</text>
<text text-anchor="middle" x="383.5" y="-130.5" font-family="Helvetica,sans-Serif" font-size="10.00">/Input.hpp</text>
</a>
</g>
</g>
<!-- Node2 -->
<g id="node2" class="node">
<title>Node2</title>
<g id="a_node2"><a xlink:href="Button_8cpp.html" target="_top" xlink:title=" ">
<polygon fill="none" stroke="black" points="0,-62 0,-81 97,-81 97,-62 0,-62"/>
<text text-anchor="middle" x="48.5" y="-69" font-family="Helvetica,sans-Serif" font-size="10.00">src/Api/Button.cpp</text>
</a>
</g>
</g>
<!-- Node1&#45;&gt;Node2 -->
<g id="edge1" class="edge">
<title>Node1&#45;&gt;Node2</title>
<path fill="none" stroke="midnightblue" d="M309.9,-124.71C255.08,-114.97 178.46,-100.91 111.5,-87 102.71,-85.17 93.26,-83.07 84.42,-81.05"/>
<polygon fill="midnightblue" stroke="midnightblue" points="309.41,-128.18 319.87,-126.48 310.64,-121.29 309.41,-128.18"/>
</g>
<!-- Node3 -->
<g id="node3" class="node">
<title>Node3</title>
<g id="a_node3"><a xlink:href="Input_8cpp.html" target="_top" xlink:title=" ">
<polygon fill="none" stroke="black" points="138.5,-0.5 138.5,-19.5 228.5,-19.5 228.5,-0.5 138.5,-0.5"/>
<text text-anchor="middle" x="183.5" y="-7.5" font-family="Helvetica,sans-Serif" font-size="10.00">src/Api/Input.cpp</text>
</a>
</g>
</g>
<!-- Node1&#45;&gt;Node3 -->
<g id="edge2" class="edge">
<title>Node1&#45;&gt;Node3</title>
<path fill="none" stroke="midnightblue" d="M309.62,-131.91C247.3,-125.48 165.06,-112.35 144.5,-87 126.94,-65.34 156.2,-34.51 172.99,-19.65"/>
<polygon fill="midnightblue" stroke="midnightblue" points="309.53,-135.42 319.83,-132.92 310.22,-128.45 309.53,-135.42"/>
</g>
<!-- Node4 -->
<g id="node4" class="node">
<title>Node4</title>
<g id="a_node4"><a xlink:href="ButtonMouseListener_8cpp.html" target="_top" xlink:title=" ">
<polygon fill="none" stroke="black" points="153.5,-56.5 153.5,-86.5 287.5,-86.5 287.5,-56.5 153.5,-56.5"/>
<text text-anchor="start" x="161.5" y="-74.5" font-family="Helvetica,sans-Serif" font-size="10.00">src/Listeners/ButtonMouse</text>
<text text-anchor="middle" x="220.5" y="-63.5" font-family="Helvetica,sans-Serif" font-size="10.00">Listener.cpp</text>
</a>
</g>
</g>
<!-- Node1&#45;&gt;Node4 -->
<g id="edge3" class="edge">
<title>Node1&#45;&gt;Node4</title>
<path fill="none" stroke="midnightblue" d="M338.82,-119.68C312.67,-109.26 280.13,-96.28 255.8,-86.58"/>
<polygon fill="midnightblue" stroke="midnightblue" points="337.55,-122.94 348.13,-123.4 340.14,-116.44 337.55,-122.94"/>
</g>
<!-- Node5 -->
<g id="node5" class="node">
<title>Node5</title>
<g id="a_node5"><a xlink:href="InputManager_8hpp.html" target="_top" xlink:title=" ">
<polygon fill="none" stroke="black" points="305.5,-62 305.5,-81 461.5,-81 461.5,-62 305.5,-62"/>
<text text-anchor="middle" x="383.5" y="-69" font-family="Helvetica,sans-Serif" font-size="10.00">src/Managers/InputManager.hpp</text>
</a>
</g>
</g>
<!-- Node1&#45;&gt;Node5 -->
<g id="edge4" class="edge">
<title>Node1&#45;&gt;Node5</title>
<path fill="none" stroke="midnightblue" d="M383.5,-113.25C383.5,-102.02 383.5,-89.38 383.5,-81.19"/>
<polygon fill="midnightblue" stroke="midnightblue" points="380,-113.4 383.5,-123.4 387,-113.4 380,-113.4"/>
</g>
<!-- Node8 -->
<g id="node8" class="node">
<title>Node8</title>
<g id="a_node8"><a xlink:href="FpsCounterSubsystem_8cpp.html" target="_top" xlink:title=" ">
<polygon fill="none" stroke="black" points="479.5,-56.5 479.5,-86.5 619.5,-86.5 619.5,-56.5 479.5,-56.5"/>
<text text-anchor="start" x="487.5" y="-74.5" font-family="Helvetica,sans-Serif" font-size="10.00">src/Subsystems/FpsCounter</text>
<text text-anchor="middle" x="549.5" y="-63.5" font-family="Helvetica,sans-Serif" font-size="10.00">Subsystem.cpp</text>
</a>
</g>
</g>
<!-- Node1&#45;&gt;Node8 -->
<g id="edge8" class="edge">
<title>Node1&#45;&gt;Node8</title>
<path fill="none" stroke="midnightblue" d="M429.01,-119.68C455.63,-109.26 488.77,-96.28 513.55,-86.58"/>
<polygon fill="midnightblue" stroke="midnightblue" points="427.55,-116.49 419.52,-123.4 430.11,-123.01 427.55,-116.49"/>
</g>
<!-- Node9 -->
<g id="node9" class="node">
<title>Node9</title>
<g id="a_node9"><a xlink:href="GameSpeedSubsystem_8cpp.html" target="_top" xlink:title=" ">
<polygon fill="none" stroke="black" points="637.5,-56.5 637.5,-86.5 781.5,-86.5 781.5,-56.5 637.5,-56.5"/>
<text text-anchor="start" x="645.5" y="-74.5" font-family="Helvetica,sans-Serif" font-size="10.00">src/Subsystems/GameSpeed</text>
<text text-anchor="middle" x="709.5" y="-63.5" font-family="Helvetica,sans-Serif" font-size="10.00">Subsystem.cpp</text>
</a>
</g>
</g>
<!-- Node1&#45;&gt;Node9 -->
<g id="edge9" class="edge">
<title>Node1&#45;&gt;Node9</title>
<path fill="none" stroke="midnightblue" d="M457.08,-122.83C511.62,-111.95 585.51,-97.22 639.25,-86.51"/>
<polygon fill="midnightblue" stroke="midnightblue" points="456.25,-119.43 447.13,-124.81 457.62,-126.29 456.25,-119.43"/>
</g>
<!-- Node10 -->
<g id="node10" class="node">
<title>Node10</title>
<g id="a_node10"><a xlink:href="Api_8hpp.html" target="_top" xlink:title=" ">
<polygon fill="none" stroke="black" points="800,-56.5 800,-86.5 927,-86.5 927,-56.5 800,-56.5"/>
<text text-anchor="start" x="808" y="-74.5" font-family="Helvetica,sans-Serif" font-size="10.00">includes/spic&#45;api&#45;headers</text>
<text text-anchor="middle" x="863.5" y="-63.5" font-family="Helvetica,sans-Serif" font-size="10.00">/Api.hpp</text>
</a>
</g>
</g>
<!-- Node1&#45;&gt;Node10 -->
<g id="edge10" class="edge">
<title>Node1&#45;&gt;Node10</title>
<path fill="none" stroke="midnightblue" d="M457.34,-129.97C539.05,-121.26 674.55,-105.68 790.5,-87 793.56,-86.51 796.69,-85.98 799.85,-85.43"/>
<polygon fill="midnightblue" stroke="midnightblue" points="456.73,-126.51 447.15,-131.05 457.46,-133.48 456.73,-126.51"/>
</g>
<!-- Node5&#45;&gt;Node3 -->
<g id="edge5" class="edge">
<title>Node5&#45;&gt;Node3</title>
<path fill="none" stroke="midnightblue" d="M344.94,-59.03C306.07,-47.46 246.98,-29.88 212.1,-19.51"/>
<polygon fill="midnightblue" stroke="midnightblue" points="344.26,-62.48 354.84,-61.98 346.26,-55.77 344.26,-62.48"/>
</g>
<!-- Node6 -->
<g id="node6" class="node">
<title>Node6</title>
<g id="a_node6"><a xlink:href="InputManager_8cpp.html" target="_top" xlink:title=" ">
<polygon fill="none" stroke="black" points="275.5,-0.5 275.5,-19.5 431.5,-19.5 431.5,-0.5 275.5,-0.5"/>
<text text-anchor="middle" x="353.5" y="-7.5" font-family="Helvetica,sans-Serif" font-size="10.00">src/Managers/InputManager.cpp</text>
</a>
</g>
</g>
<!-- Node5&#45;&gt;Node6 -->
<g id="edge6" class="edge">
<title>Node5&#45;&gt;Node6</title>
<path fill="none" stroke="midnightblue" d="M374.59,-52.83C369.04,-41.83 362.15,-28.16 357.79,-19.51"/>
<polygon fill="midnightblue" stroke="midnightblue" points="371.57,-54.62 379.2,-61.98 377.82,-51.47 371.57,-54.62"/>
</g>
<!-- Node7 -->
<g id="node7" class="node">
<title>Node7</title>
<g id="a_node7"><a xlink:href="InputSubsystem_8cpp.html" target="_top" xlink:title=" ">
<polygon fill="none" stroke="black" points="450,-0.5 450,-19.5 629,-19.5 629,-0.5 450,-0.5"/>
<text text-anchor="middle" x="539.5" y="-7.5" font-family="Helvetica,sans-Serif" font-size="10.00">src/Subsystems/InputSubsystem.cpp</text>
</a>
</g>
</g>
<!-- Node5&#45;&gt;Node7 -->
<g id="edge7" class="edge">
<title>Node5&#45;&gt;Node7</title>
<path fill="none" stroke="midnightblue" d="M415.53,-58.28C445.85,-46.72 490.57,-29.66 517.19,-19.51"/>
<polygon fill="midnightblue" stroke="midnightblue" points="413.95,-55.14 405.85,-61.98 416.44,-61.68 413.95,-55.14"/>
</g>
</g>
</svg>
