<?xml version="1.0" encoding="UTF-8" standalone="no"?>
<!DOCTYPE svg PUBLIC "-//W3C//DTD SVG 1.1//EN"
 "http://www.w3.org/Graphics/SVG/1.1/DTD/svg11.dtd">
<!-- Generated by graphviz version 2.44.0 ()
 -->
<!-- Title: src/Subsystems/ISubsystem.hpp Pages: 1 -->
<!--zoomable 218 -->
<svg id="main" version="1.1" xmlns="http://www.w3.org/2000/svg" xmlns:xlink="http://www.w3.org/1999/xlink" xml:space="preserve" onload="init(evt)">
<style type="text/css"><![CDATA[
.edge:hover path { stroke: red; }
.edge:hover polygon { stroke: red; fill: red; }
]]></style>
<script type="text/javascript"><![CDATA[
var edges = document.getElementsByTagName('g');
if (edges && edges.length) {
  for (var i=0;i<edges.length;i++) {
    if (edges[i].id.substr(0,4)=='edge') {
      edges[i].setAttribute('class','edge');
    }
  }
}
]]></script>
        <defs>
                <circle id="rim" cx="0" cy="0" r="7"/>
                <circle id="rim2" cx="0" cy="0" r="3.5"/>
                <g id="zoomPlus">
                        <use xlink:href="#rim" fill="#404040">
                                <set attributeName="fill" to="#808080" begin="zoomplus.mouseover" end="zoomplus.mouseout"/>
                        </use>
                        <path d="M-4,0h8M0,-4v8" fill="none" stroke="white" stroke-width="1.5" pointer-events="none"/>
                </g>
                <g id="zoomMin">
                        <use xlink:href="#rim" fill="#404040">
                                <set attributeName="fill" to="#808080" begin="zoomminus.mouseover" end="zoomminus.mouseout"/>
                        </use>
                        <path d="M-4,0h8" fill="none" stroke="white" stroke-width="1.5" pointer-events="none"/>
                </g>
                <g id="dirArrow">
                        <path fill="none" stroke="white" stroke-width="1.5" d="M0,-3.0v7 M-2.5,-0.5L0,-3.0L2.5,-0.5"/>
                </g>
               <g id="resetDef">
                       <use xlink:href="#rim2" fill="#404040">
                               <set attributeName="fill" to="#808080" begin="reset.mouseover" end="reset.mouseout"/>
                       </use>
               </g>
        </defs>

<script type="text/javascript">
var viewWidth = 1669;
var viewHeight = 218;
var sectionId = 'dynsection-0';
</script>
<script xlink:href="svgpan.js"/>
<svg id="graph" class="graph">
<g id="viewport">
<title>src/Subsystems/ISubsystem.hpp</title>
<!-- Node1 -->
<g id="node1" class="node">
<title>Node1</title>
<g id="a_node1"><a xlink:title=" ">
<polygon fill="#bfbfbf" stroke="black" points="725,-190.5 725,-209.5 885,-209.5 885,-190.5 725,-190.5"/>
<text text-anchor="middle" x="805" y="-197.5" font-family="Helvetica,sans-Serif" font-size="10.00">src/Subsystems/ISubsystem.hpp</text>
</a>
</g>
</g>
<!-- Node2 -->
<g id="node2" class="node">
<title>Node2</title>
<g id="a_node2"><a xlink:href="AnimatorSubsystem_8hpp.html" target="_top" xlink:title=" ">
<polygon fill="none" stroke="black" points="71,-129 71,-148 267,-148 267,-129 71,-129"/>
<text text-anchor="middle" x="169" y="-136" font-family="Helvetica,sans-Serif" font-size="10.00">src/Subsystems/AnimatorSubsystem.hpp</text>
</a>
</g>
</g>
<!-- Node1&#45;&gt;Node2 -->
<g id="edge1" class="edge">
<title>Node1&#45;&gt;Node2</title>
<path fill="none" stroke="midnightblue" d="M714.38,-192.67C608.93,-184.99 429.61,-170.93 276,-154 260.35,-152.27 243.45,-150.12 227.8,-148"/>
<polygon fill="midnightblue" stroke="midnightblue" points="714.44,-196.19 724.67,-193.42 714.95,-189.2 714.44,-196.19"/>
</g>
<!-- Node4 -->
<g id="node4" class="node">
<title>Node4</title>
<g id="a_node4"><a xlink:href="Subsystems_8hpp.html" target="_top" xlink:title=" ">
<polygon fill="none" stroke="black" points="724,-62 724,-81 886,-81 886,-62 724,-62"/>
<text text-anchor="middle" x="805" y="-69" font-family="Helvetica,sans-Serif" font-size="10.00">src/Subsystems/Subsystems.hpp</text>
</a>
</g>
</g>
<!-- Node1&#45;&gt;Node4 -->
<g id="edge26" class="edge">
<title>Node1&#45;&gt;Node4</title>
<path fill="none" stroke="midnightblue" d="M805,-179.94C805,-152.12 805,-101.54 805,-81.26"/>
<polygon fill="midnightblue" stroke="midnightblue" points="801.5,-180.31 805,-190.31 808.5,-180.31 801.5,-180.31"/>
</g>
<!-- Node6 -->
<g id="node6" class="node">
<title>Node6</title>
<g id="a_node6"><a xlink:href="AudioSubsystem_8hpp.html" target="_top" xlink:title=" ">
<polygon fill="none" stroke="black" points="285,-129 285,-148 467,-148 467,-129 285,-129"/>
<text text-anchor="middle" x="376" y="-136" font-family="Helvetica,sans-Serif" font-size="10.00">src/Subsystems/AudioSubsystem.hpp</text>
</a>
</g>
</g>
<!-- Node1&#45;&gt;Node6 -->
<g id="edge5" class="edge">
<title>Node1&#45;&gt;Node6</title>
<path fill="none" stroke="midnightblue" d="M731.61,-189.13C664.92,-180.13 563.83,-166.37 476,-154 462.45,-152.09 447.87,-150 434.15,-148.01"/>
<polygon fill="midnightblue" stroke="midnightblue" points="731.22,-192.61 741.6,-190.48 732.16,-185.68 731.22,-192.61"/>
</g>
<!-- Node8 -->
<g id="node8" class="node">
<title>Node8</title>
<g id="a_node8"><a xlink:href="BehaviourScriptSubsystem_8hpp.html" target="_top" xlink:title=" ">
<polygon fill="none" stroke="black" points="485,-123.5 485,-153.5 619,-153.5 619,-123.5 485,-123.5"/>
<text text-anchor="start" x="493" y="-141.5" font-family="Helvetica,sans-Serif" font-size="10.00">src/Subsystems/Behaviour</text>
<text text-anchor="middle" x="552" y="-130.5" font-family="Helvetica,sans-Serif" font-size="10.00">ScriptSubsystem.hpp</text>
</a>
</g>
</g>
<!-- Node1&#45;&gt;Node8 -->
<g id="edge8" class="edge">
<title>Node1&#45;&gt;Node8</title>
<path fill="none" stroke="midnightblue" d="M758.95,-188.17C717.61,-178.45 656.68,-164.12 611.63,-153.52"/>
<polygon fill="midnightblue" stroke="midnightblue" points="758.22,-191.59 768.75,-190.48 759.82,-184.78 758.22,-191.59"/>
</g>
<!-- Node10 -->
<g id="node10" class="node">
<title>Node10</title>
<g id="a_node10"><a xlink:href="FpsCounterSubsystem_8hpp.html" target="_top" xlink:title=" ">
<polygon fill="none" stroke="black" points="637,-123.5 637,-153.5 777,-153.5 777,-123.5 637,-123.5"/>
<text text-anchor="start" x="645" y="-141.5" font-family="Helvetica,sans-Serif" font-size="10.00">src/Subsystems/FpsCounter</text>
<text text-anchor="middle" x="707" y="-130.5" font-family="Helvetica,sans-Serif" font-size="10.00">Subsystem.hpp</text>
</a>
</g>
</g>
<!-- Node1&#45;&gt;Node10 -->
<g id="edge11" class="edge">
<title>Node1&#45;&gt;Node10</title>
<path fill="none" stroke="midnightblue" d="M782.4,-185.28C766.71,-175.75 745.89,-163.11 730.1,-153.52"/>
<polygon fill="midnightblue" stroke="midnightblue" points="780.59,-188.28 790.96,-190.48 784.23,-182.29 780.59,-188.28"/>
</g>
<!-- Node12 -->
<g id="node12" class="node">
<title>Node12</title>
<g id="a_node12"><a xlink:href="GameSpeedSubsystem_8hpp.html" target="_top" xlink:title=" ">
<polygon fill="none" stroke="black" points="833,-123.5 833,-153.5 977,-153.5 977,-123.5 833,-123.5"/>
<text text-anchor="start" x="841" y="-141.5" font-family="Helvetica,sans-Serif" font-size="10.00">src/Subsystems/GameSpeed</text>
<text text-anchor="middle" x="905" y="-130.5" font-family="Helvetica,sans-Serif" font-size="10.00">Subsystem.hpp</text>
</a>
</g>
</g>
<!-- Node1&#45;&gt;Node12 -->
<g id="edge14" class="edge">
<title>Node1&#45;&gt;Node12</title>
<path fill="none" stroke="midnightblue" d="M828.07,-185.28C844.07,-175.75 865.32,-163.11 881.43,-153.52"/>
<polygon fill="midnightblue" stroke="midnightblue" points="826.13,-182.35 819.33,-190.48 829.71,-188.37 826.13,-182.35"/>
</g>
<!-- Node14 -->
<g id="node14" class="node">
<title>Node14</title>
<g id="a_node14"><a xlink:href="InputSubsystem_8hpp.html" target="_top" xlink:title=" ">
<polygon fill="none" stroke="black" points="995.5,-129 995.5,-148 1174.5,-148 1174.5,-129 995.5,-129"/>
<text text-anchor="middle" x="1085" y="-136" font-family="Helvetica,sans-Serif" font-size="10.00">src/Subsystems/InputSubsystem.hpp</text>
</a>
</g>
</g>
<!-- Node1&#45;&gt;Node14 -->
<g id="edge17" class="edge">
<title>Node1&#45;&gt;Node14</title>
<path fill="none" stroke="midnightblue" d="M855.21,-188.33C909.51,-176.79 994.99,-158.63 1044.96,-148.01"/>
<polygon fill="midnightblue" stroke="midnightblue" points="854.17,-184.97 845.12,-190.48 855.63,-191.82 854.17,-184.97"/>
</g>
<!-- Node16 -->
<g id="node16" class="node">
<title>Node16</title>
<g id="a_node16"><a xlink:href="PhysicsSubsystem_8hpp.html" target="_top" xlink:title=" ">
<polygon fill="none" stroke="black" points="1192.5,-129 1192.5,-148 1383.5,-148 1383.5,-129 1192.5,-129"/>
<text text-anchor="middle" x="1288" y="-136" font-family="Helvetica,sans-Serif" font-size="10.00">src/Subsystems/PhysicsSubsystem.hpp</text>
</a>
</g>
</g>
<!-- Node1&#45;&gt;Node16 -->
<g id="edge20" class="edge">
<title>Node1&#45;&gt;Node16</title>
<path fill="none" stroke="midnightblue" d="M890.67,-189.33C967.53,-180.54 1083.37,-166.99 1184,-154 1198.37,-152.14 1213.85,-150.04 1228.36,-148.03"/>
<polygon fill="midnightblue" stroke="midnightblue" points="890.1,-185.87 880.56,-190.49 890.89,-192.83 890.1,-185.87"/>
</g>
<!-- Node18 -->
<g id="node18" class="node">
<title>Node18</title>
<g id="a_node18"><a xlink:href="RenderSubsystem_8hpp.html" target="_top" xlink:title=" ">
<polygon fill="none" stroke="black" points="1402,-129 1402,-148 1590,-148 1590,-129 1402,-129"/>
<text text-anchor="middle" x="1496" y="-136" font-family="Helvetica,sans-Serif" font-size="10.00">src/Subsystems/RenderSubsystem.hpp</text>
</a>
</g>
</g>
<!-- Node1&#45;&gt;Node18 -->
<g id="edge23" class="edge">
<title>Node1&#45;&gt;Node18</title>
<path fill="none" stroke="midnightblue" d="M895.25,-193.88C1010.8,-186.91 1217.13,-173.09 1393,-154 1408.35,-152.33 1424.94,-150.16 1440.22,-148.01"/>
<polygon fill="midnightblue" stroke="midnightblue" points="894.81,-190.4 885.04,-194.49 895.23,-197.39 894.81,-190.4"/>
</g>
<!-- Node3 -->
<g id="node3" class="node">
<title>Node3</title>
<g id="a_node3"><a xlink:href="AnimatorSubsystem_8cpp.html" target="_top" xlink:title=" ">
<polygon fill="none" stroke="black" points="0,-62 0,-81 196,-81 196,-62 0,-62"/>
<text text-anchor="middle" x="98" y="-69" font-family="Helvetica,sans-Serif" font-size="10.00">src/Subsystems/AnimatorSubsystem.cpp</text>
</a>
</g>
</g>
<!-- Node2&#45;&gt;Node3 -->
<g id="edge2" class="edge">
<title>Node2&#45;&gt;Node3</title>
<path fill="none" stroke="midnightblue" d="M151.91,-121.86C137.95,-109.08 118.74,-91.49 107.42,-81.13"/>
<polygon fill="midnightblue" stroke="midnightblue" points="149.69,-124.56 159.42,-128.73 154.41,-119.4 149.69,-124.56"/>
</g>
<!-- Node2&#45;&gt;Node4 -->
<g id="edge3" class="edge">
<title>Node2&#45;&gt;Node4</title>
<path fill="none" stroke="midnightblue" d="M237.84,-127.62C250.52,-125.96 263.65,-124.34 276,-123 470.62,-101.85 520.66,-110.59 715,-87 728.51,-85.36 743.1,-83.19 756.52,-81.02"/>
<polygon fill="midnightblue" stroke="midnightblue" points="237.25,-124.17 227.8,-128.96 238.17,-131.11 237.25,-124.17"/>
</g>
<!-- Node5 -->
<g id="node5" class="node">
<title>Node5</title>
<g id="a_node5"><a xlink:href="Engine_8cpp.html" target="_top" xlink:title=" ">
<polygon fill="none" stroke="black" points="756,-0.5 756,-19.5 854,-19.5 854,-0.5 756,-0.5"/>
<text text-anchor="middle" x="805" y="-7.5" font-family="Helvetica,sans-Serif" font-size="10.00">src/Api/Engine.cpp</text>
</a>
</g>
</g>
<!-- Node4&#45;&gt;Node5 -->
<g id="edge4" class="edge">
<title>Node4&#45;&gt;Node5</title>
<path fill="none" stroke="midnightblue" d="M805,-51.82C805,-41 805,-27.9 805,-19.51"/>
<polygon fill="midnightblue" stroke="midnightblue" points="801.5,-51.98 805,-61.98 808.5,-51.98 801.5,-51.98"/>
</g>
<!-- Node6&#45;&gt;Node4 -->
<g id="edge7" class="edge">
<title>Node6&#45;&gt;Node4</title>
<path fill="none" stroke="midnightblue" d="M444.75,-127.5C513.26,-117.48 621.46,-101.5 715,-87 727.2,-85.11 740.32,-83.02 752.67,-81.04"/>
<polygon fill="midnightblue" stroke="midnightblue" points="443.91,-124.09 434.52,-129 444.92,-131.01 443.91,-124.09"/>
</g>
<!-- Node7 -->
<g id="node7" class="node">
<title>Node7</title>
<g id="a_node7"><a xlink:href="AudioSubsystem_8cpp.html" target="_top" xlink:title=" ">
<polygon fill="none" stroke="black" points="214,-62 214,-81 396,-81 396,-62 214,-62"/>
<text text-anchor="middle" x="305" y="-69" font-family="Helvetica,sans-Serif" font-size="10.00">src/Subsystems/AudioSubsystem.cpp</text>
</a>
</g>
</g>
<!-- Node6&#45;&gt;Node7 -->
<g id="edge6" class="edge">
<title>Node6&#45;&gt;Node7</title>
<path fill="none" stroke="midnightblue" d="M358.91,-121.86C344.95,-109.08 325.74,-91.49 314.42,-81.13"/>
<polygon fill="midnightblue" stroke="midnightblue" points="356.69,-124.56 366.42,-128.73 361.41,-119.4 356.69,-124.56"/>
</g>
<!-- Node8&#45;&gt;Node4 -->
<g id="edge10" class="edge">
<title>Node8&#45;&gt;Node4</title>
<path fill="none" stroke="midnightblue" d="M616.57,-120.91C666.12,-108.18 732.5,-91.13 771.8,-81.03"/>
<polygon fill="midnightblue" stroke="midnightblue" points="615.4,-117.6 606.59,-123.48 617.14,-124.38 615.4,-117.6"/>
</g>
<!-- Node9 -->
<g id="node9" class="node">
<title>Node9</title>
<g id="a_node9"><a xlink:href="BehaviourScriptSubsystem_8cpp.html" target="_top" xlink:title=" ">
<polygon fill="none" stroke="black" points="414,-56.5 414,-86.5 548,-86.5 548,-56.5 414,-56.5"/>
<text text-anchor="start" x="422" y="-74.5" font-family="Helvetica,sans-Serif" font-size="10.00">src/Subsystems/Behaviour</text>
<text text-anchor="middle" x="481" y="-63.5" font-family="Helvetica,sans-Serif" font-size="10.00">ScriptSubsystem.cpp</text>
</a>
</g>
</g>
<!-- Node8&#45;&gt;Node9 -->
<g id="edge9" class="edge">
<title>Node8&#45;&gt;Node9</title>
<path fill="none" stroke="midnightblue" d="M529.17,-116.6C518.45,-106.78 505.95,-95.34 496.38,-86.58"/>
<polygon fill="midnightblue" stroke="midnightblue" points="526.85,-119.22 536.59,-123.4 531.58,-114.06 526.85,-119.22"/>
</g>
<!-- Node10&#45;&gt;Node4 -->
<g id="edge13" class="edge">
<title>Node10&#45;&gt;Node4</title>
<path fill="none" stroke="midnightblue" d="M736.69,-117.81C755.23,-105.51 778.16,-90.3 792.17,-81.01"/>
<polygon fill="midnightblue" stroke="midnightblue" points="734.66,-114.95 728.26,-123.4 738.53,-120.79 734.66,-114.95"/>
</g>
<!-- Node11 -->
<g id="node11" class="node">
<title>Node11</title>
<g id="a_node11"><a xlink:href="FpsCounterSubsystem_8cpp.html" target="_top" xlink:title=" ">
<polygon fill="none" stroke="black" points="566,-56.5 566,-86.5 706,-86.5 706,-56.5 566,-56.5"/>
<text text-anchor="start" x="574" y="-74.5" font-family="Helvetica,sans-Serif" font-size="10.00">src/Subsystems/FpsCounter</text>
<text text-anchor="middle" x="636" y="-63.5" font-family="Helvetica,sans-Serif" font-size="10.00">Subsystem.cpp</text>
</a>
</g>
</g>
<!-- Node10&#45;&gt;Node11 -->
<g id="edge12" class="edge">
<title>Node10&#45;&gt;Node11</title>
<path fill="none" stroke="midnightblue" d="M684.17,-116.6C673.45,-106.78 660.95,-95.34 651.38,-86.58"/>
<polygon fill="midnightblue" stroke="midnightblue" points="681.85,-119.22 691.59,-123.4 686.58,-114.06 681.85,-119.22"/>
</g>
<!-- Node12&#45;&gt;Node4 -->
<g id="edge16" class="edge">
<title>Node12&#45;&gt;Node4</title>
<path fill="none" stroke="midnightblue" d="M874.7,-117.81C855.79,-105.51 832.39,-90.3 818.09,-81.01"/>
<polygon fill="midnightblue" stroke="midnightblue" points="873.01,-120.88 883.3,-123.4 876.82,-115.01 873.01,-120.88"/>
</g>
<!-- Node13 -->
<g id="node13" class="node">
<title>Node13</title>
<g id="a_node13"><a xlink:href="GameSpeedSubsystem_8cpp.html" target="_top" xlink:title=" ">
<polygon fill="none" stroke="black" points="904,-56.5 904,-86.5 1048,-86.5 1048,-56.5 904,-56.5"/>
<text text-anchor="start" x="912" y="-74.5" font-family="Helvetica,sans-Serif" font-size="10.00">src/Subsystems/GameSpeed</text>
<text text-anchor="middle" x="976" y="-63.5" font-family="Helvetica,sans-Serif" font-size="10.00">Subsystem.cpp</text>
</a>
</g>
</g>
<!-- Node12&#45;&gt;Node13 -->
<g id="edge15" class="edge">
<title>Node12&#45;&gt;Node13</title>
<path fill="none" stroke="midnightblue" d="M927.83,-116.6C938.55,-106.78 951.05,-95.34 960.62,-86.58"/>
<polygon fill="midnightblue" stroke="midnightblue" points="925.42,-114.06 920.41,-123.4 930.15,-119.22 925.42,-114.06"/>
</g>
<!-- Node14&#45;&gt;Node4 -->
<g id="edge19" class="edge">
<title>Node14&#45;&gt;Node4</title>
<path fill="none" stroke="midnightblue" d="M1038.24,-126.64C983.07,-113.84 892.49,-92.81 841.97,-81.08"/>
<polygon fill="midnightblue" stroke="midnightblue" points="1037.57,-130.08 1048.11,-128.94 1039.16,-123.26 1037.57,-130.08"/>
</g>
<!-- Node15 -->
<g id="node15" class="node">
<title>Node15</title>
<g id="a_node15"><a xlink:href="InputSubsystem_8cpp.html" target="_top" xlink:title=" ">
<polygon fill="none" stroke="black" points="1066.5,-62 1066.5,-81 1245.5,-81 1245.5,-62 1066.5,-62"/>
<text text-anchor="middle" x="1156" y="-69" font-family="Helvetica,sans-Serif" font-size="10.00">src/Subsystems/InputSubsystem.cpp</text>
</a>
</g>
</g>
<!-- Node14&#45;&gt;Node15 -->
<g id="edge18" class="edge">
<title>Node14&#45;&gt;Node15</title>
<path fill="none" stroke="midnightblue" d="M1102.09,-121.86C1116.05,-109.08 1135.26,-91.49 1146.58,-81.13"/>
<polygon fill="midnightblue" stroke="midnightblue" points="1099.59,-119.4 1094.58,-128.73 1104.31,-124.56 1099.59,-119.4"/>
</g>
<!-- Node16&#45;&gt;Node4 -->
<g id="edge22" class="edge">
<title>Node16&#45;&gt;Node4</title>
<path fill="none" stroke="midnightblue" d="M1218.15,-127.62C1206.74,-126.05 1195.04,-124.46 1184,-123 1055.68,-106.06 1023.14,-105.3 895,-87 882.31,-85.19 868.64,-83.07 855.88,-81.02"/>
<polygon fill="midnightblue" stroke="midnightblue" points="1217.69,-131.09 1228.08,-128.99 1218.65,-124.15 1217.69,-131.09"/>
</g>
<!-- Node17 -->
<g id="node17" class="node">
<title>Node17</title>
<g id="a_node17"><a xlink:href="PhysicsSubsystem_8cpp.html" target="_top" xlink:title=" ">
<polygon fill="none" stroke="black" points="1263.5,-62 1263.5,-81 1454.5,-81 1454.5,-62 1263.5,-62"/>
<text text-anchor="middle" x="1359" y="-69" font-family="Helvetica,sans-Serif" font-size="10.00">src/Subsystems/PhysicsSubsystem.cpp</text>
</a>
</g>
</g>
<!-- Node16&#45;&gt;Node17 -->
<g id="edge21" class="edge">
<title>Node16&#45;&gt;Node17</title>
<path fill="none" stroke="midnightblue" d="M1305.09,-121.86C1319.05,-109.08 1338.26,-91.49 1349.58,-81.13"/>
<polygon fill="midnightblue" stroke="midnightblue" points="1302.59,-119.4 1297.58,-128.73 1307.31,-124.56 1302.59,-119.4"/>
</g>
<!-- Node18&#45;&gt;Node4 -->
<g id="edge25" class="edge">
<title>Node18&#45;&gt;Node4</title>
<path fill="none" stroke="midnightblue" d="M1430.25,-127.57C1417.89,-125.89 1405.06,-124.28 1393,-123 1172.33,-99.52 1115.42,-112.67 895,-87 881.32,-85.41 866.55,-83.22 853,-81.03"/>
<polygon fill="midnightblue" stroke="midnightblue" points="1430.11,-131.08 1440.49,-128.98 1431.07,-124.15 1430.11,-131.08"/>
</g>
<!-- Node19 -->
<g id="node19" class="node">
<title>Node19</title>
<g id="a_node19"><a xlink:href="RenderSubsystem_8cpp.html" target="_top" xlink:title=" ">
<polygon fill="none" stroke="black" points="1473,-62 1473,-81 1661,-81 1661,-62 1473,-62"/>
<text text-anchor="middle" x="1567" y="-69" font-family="Helvetica,sans-Serif" font-size="10.00">src/Subsystems/RenderSubsystem.cpp</text>
</a>
</g>
</g>
<!-- Node18&#45;&gt;Node19 -->
<g id="edge24" class="edge">
<title>Node18&#45;&gt;Node19</title>
<path fill="none" stroke="midnightblue" d="M1513.09,-121.86C1527.05,-109.08 1546.26,-91.49 1557.58,-81.13"/>
<polygon fill="midnightblue" stroke="midnightblue" points="1510.59,-119.4 1505.58,-128.73 1515.31,-124.56 1510.59,-119.4"/>
</g>
</g>
</svg>
        <g id="navigator" transform="translate(0 0)" fill="#404254">
                <rect fill="#f2f5e9" fill-opacity="0.5" stroke="#606060" stroke-width=".5" x="0" y="0" width="60" height="60"/>
                <use id="zoomplus" xlink:href="#zoomPlus" x="17" y="9" onmousedown="handleZoom(evt,'in')"/>
                <use id="zoomminus" xlink:href="#zoomMin" x="42" y="9" onmousedown="handleZoom(evt,'out')"/>
                <use id="reset" xlink:href="#resetDef" x="30" y="36" onmousedown="handleReset()"/>
                <g id="arrowUp" xlink:href="#dirArrow" transform="translate(30 24)" onmousedown="handlePan(0,-1)">
                  <use xlink:href="#rim" fill="#404040">
                        <set attributeName="fill" to="#808080" begin="arrowUp.mouseover" end="arrowUp.mouseout"/>
                  </use>
                  <path fill="none" stroke="white" stroke-width="1.5" d="M0,-3.0v7 M-2.5,-0.5L0,-3.0L2.5,-0.5"/>
                </g>
                <g id="arrowRight" xlink:href="#dirArrow" transform="rotate(90) translate(36 -43)" onmousedown="handlePan(1,0)">
                  <use xlink:href="#rim" fill="#404040">
                        <set attributeName="fill" to="#808080" begin="arrowRight.mouseover" end="arrowRight.mouseout"/>
                  </use>
                  <path fill="none" stroke="white" stroke-width="1.5" d="M0,-3.0v7 M-2.5,-0.5L0,-3.0L2.5,-0.5"/>
                </g>
                <g id="arrowDown" xlink:href="#dirArrow" transform="rotate(180) translate(-30 -48)" onmousedown="handlePan(0,1)">
                  <use xlink:href="#rim" fill="#404040">
                        <set attributeName="fill" to="#808080" begin="arrowDown.mouseover" end="arrowDown.mouseout"/>
                  </use>
                  <path fill="none" stroke="white" stroke-width="1.5" d="M0,-3.0v7 M-2.5,-0.5L0,-3.0L2.5,-0.5"/>
                </g>
                <g id="arrowLeft" xlink:href="#dirArrow" transform="rotate(270) translate(-36 17)" onmousedown="handlePan(-1,0)">
                  <use xlink:href="#rim" fill="#404040">
                        <set attributeName="fill" to="#808080" begin="arrowLeft.mouseover" end="arrowLeft.mouseout"/>
                  </use>
                  <path fill="none" stroke="white" stroke-width="1.5" d="M0,-3.0v7 M-2.5,-0.5L0,-3.0L2.5,-0.5"/>
                </g>
        </g>
        <svg viewBox="0 0 15 15" width="100%" height="30px" preserveAspectRatio="xMaxYMin meet">
         <g id="arrow_out" transform="scale(0.3 0.3)">
          <a xlink:href="ISubsystem_8hpp__dep__incl_org.svg" target="_base">
           <rect id="button" ry="5" rx="5" y="6" x="6" height="38" width="38"
                fill="#f2f5e9" fill-opacity="0.5" stroke="#606060" stroke-width="1.0"/>
           <path id="arrow"
             d="M 11.500037,31.436501 C 11.940474,20.09759 22.043105,11.32322 32.158766,21.979434 L 37.068811,17.246167 C 37.068811,17.246167 37.088388,32 37.088388,32 L 22.160133,31.978069 C 22.160133,31.978069 26.997745,27.140456 26.997745,27.140456 C 18.528582,18.264221 13.291696,25.230495 11.500037,31.436501 z"
             style="fill:#404040;"/>
          </a>
         </g>
        </svg>
</svg>
