<?xml version="1.0" encoding="UTF-8" standalone="no"?>
<!DOCTYPE svg PUBLIC "-//W3C//DTD SVG 1.1//EN"
 "http://www.w3.org/Graphics/SVG/1.1/DTD/svg11.dtd">
<!-- Generated by graphviz version 2.44.0 ()
 -->
<!-- Title: src/Subsystems/ISubsystem.hpp Pages: 1 -->
<!--zoomable 285 -->
<svg id="main" version="1.1" xmlns="http://www.w3.org/2000/svg" xmlns:xlink="http://www.w3.org/1999/xlink" xml:space="preserve" onload="init(evt)">
<style type="text/css"><![CDATA[
.edge:hover path { stroke: red; }
.edge:hover polygon { stroke: red; fill: red; }
]]></style>
<script type="text/javascript"><![CDATA[
var edges = document.getElementsByTagName('g');
if (edges && edges.length) {
  for (var i=0;i<edges.length;i++) {
    if (edges[i].id.substr(0,4)=='edge') {
      edges[i].setAttribute('class','edge');
    }
  }
}
]]></script>
        <defs>
                <circle id="rim" cx="0" cy="0" r="7"/>
                <circle id="rim2" cx="0" cy="0" r="3.5"/>
                <g id="zoomPlus">
                        <use xlink:href="#rim" fill="#404040">
                                <set attributeName="fill" to="#808080" begin="zoomplus.mouseover" end="zoomplus.mouseout"/>
                        </use>
                        <path d="M-4,0h8M0,-4v8" fill="none" stroke="white" stroke-width="1.5" pointer-events="none"/>
                </g>
                <g id="zoomMin">
                        <use xlink:href="#rim" fill="#404040">
                                <set attributeName="fill" to="#808080" begin="zoomminus.mouseover" end="zoomminus.mouseout"/>
                        </use>
                        <path d="M-4,0h8" fill="none" stroke="white" stroke-width="1.5" pointer-events="none"/>
                </g>
                <g id="dirArrow">
                        <path fill="none" stroke="white" stroke-width="1.5" d="M0,-3.0v7 M-2.5,-0.5L0,-3.0L2.5,-0.5"/>
                </g>
               <g id="resetDef">
                       <use xlink:href="#rim2" fill="#404040">
                               <set attributeName="fill" to="#808080" begin="reset.mouseover" end="reset.mouseout"/>
                       </use>
               </g>
        </defs>

<script type="text/javascript">
var viewWidth = 2148;
var viewHeight = 285;
var sectionId = 'dynsection-0';
</script>
<script xlink:href="svgpan.js"/>
<svg id="graph" class="graph">
<g id="viewport">
<title>src/Subsystems/ISubsystem.hpp</title>
<!-- Node1 -->
<g id="node1" class="node">
<title>Node1</title>
<g id="a_node1"><a xlink:title=" ">
<polygon fill="#bfbfbf" stroke="black" points="1232,-257.5 1232,-276.5 1392,-276.5 1392,-257.5 1232,-257.5"/>
<text text-anchor="middle" x="1312" y="-264.5" font-family="Helvetica,sans-Serif" font-size="10.00">src/Subsystems/ISubsystem.hpp</text>
</a>
</g>
</g>
<!-- Node2 -->
<g id="node2" class="node">
<title>Node2</title>
<g id="a_node2"><a xlink:href="AnimatorSubsystem_8hpp.html" target="_top" xlink:title=" ">
<polygon fill="none" stroke="black" points="1214,-196 1214,-215 1410,-215 1410,-196 1214,-196"/>
<text text-anchor="middle" x="1312" y="-203" font-family="Helvetica,sans-Serif" font-size="10.00">src/Subsystems/AnimatorSubsystem.hpp</text>
</a>
</g>
</g>
<!-- Node1&#45;&gt;Node2 -->
<g id="edge1" class="edge">
<title>Node1&#45;&gt;Node2</title>
<path fill="none" stroke="midnightblue" d="M1312,-247.32C1312,-236.5 1312,-223.4 1312,-215.01"/>
<polygon fill="midnightblue" stroke="midnightblue" points="1308.5,-247.48 1312,-257.48 1315.5,-247.48 1308.5,-247.48"/>
</g>
<!-- Node4 -->
<g id="node4" class="node">
<title>Node4</title>
<g id="a_node4"><a xlink:href="Subsystems_8hpp.html" target="_top" xlink:title=" ">
<polygon fill="none" stroke="black" points="1086,-62 1086,-81 1248,-81 1248,-62 1086,-62"/>
<text text-anchor="middle" x="1167" y="-69" font-family="Helvetica,sans-Serif" font-size="10.00">src/Subsystems/Subsystems.hpp</text>
</a>
</g>
</g>
<!-- Node1&#45;&gt;Node4 -->
<g id="edge31" class="edge">
<title>Node1&#45;&gt;Node4</title>
<path fill="none" stroke="midnightblue" d="M1402.41,-264.12C1521.17,-260.51 1722.54,-250.18 1790,-221 1840.59,-199.12 1903.54,-163.35 1866,-123 1824.67,-78.57 1423.25,-72.72 1248.08,-72.3"/>
<polygon fill="midnightblue" stroke="midnightblue" points="1402.14,-260.62 1392.24,-264.41 1402.34,-267.62 1402.14,-260.62"/>
</g>
<!-- Node6 -->
<g id="node6" class="node">
<title>Node6</title>
<g id="a_node6"><a xlink:href="AudioSubsystem_8hpp.html" target="_top" xlink:title=" ">
<polygon fill="none" stroke="black" points="544,-196 544,-215 726,-215 726,-196 544,-196"/>
<text text-anchor="middle" x="635" y="-203" font-family="Helvetica,sans-Serif" font-size="10.00">src/Subsystems/AudioSubsystem.hpp</text>
</a>
</g>
</g>
<!-- Node1&#45;&gt;Node6 -->
<g id="edge5" class="edge">
<title>Node1&#45;&gt;Node6</title>
<path fill="none" stroke="midnightblue" d="M1221.47,-259.04C1114.33,-250.66 930.58,-235.86 773,-221 753.69,-219.18 732.88,-217.07 713.42,-215.03"/>
<polygon fill="midnightblue" stroke="midnightblue" points="1221.35,-262.54 1231.59,-259.83 1221.9,-255.56 1221.35,-262.54"/>
</g>
<!-- Node8 -->
<g id="node8" class="node">
<title>Node8</title>
<g id="a_node8"><a xlink:href="BehaviourScriptSubsystem_8hpp.html" target="_top" xlink:title=" ">
<polygon fill="none" stroke="black" points="270,-190.5 270,-220.5 404,-220.5 404,-190.5 270,-190.5"/>
<text text-anchor="start" x="278" y="-208.5" font-family="Helvetica,sans-Serif" font-size="10.00">src/Subsystems/Behaviour</text>
<text text-anchor="middle" x="337" y="-197.5" font-family="Helvetica,sans-Serif" font-size="10.00">ScriptSubsystem.hpp</text>
</a>
</g>
</g>
<!-- Node1&#45;&gt;Node8 -->
<g id="edge8" class="edge">
<title>Node1&#45;&gt;Node8</title>
<path fill="none" stroke="midnightblue" d="M1221.83,-261.23C1076.99,-253.45 783.53,-237.3 535,-221 491.49,-218.15 442.64,-214.57 404.34,-211.69"/>
<polygon fill="midnightblue" stroke="midnightblue" points="1221.83,-264.73 1232,-261.77 1222.2,-257.74 1221.83,-264.73"/>
</g>
<!-- Node14 -->
<g id="node14" class="node">
<title>Node14</title>
<g id="a_node14"><a xlink:href="FpsCounterSubsystem_8hpp.html" target="_top" xlink:title=" ">
<polygon fill="none" stroke="black" points="1056,-190.5 1056,-220.5 1196,-220.5 1196,-190.5 1056,-190.5"/>
<text text-anchor="start" x="1064" y="-208.5" font-family="Helvetica,sans-Serif" font-size="10.00">src/Subsystems/FpsCounter</text>
<text text-anchor="middle" x="1126" y="-197.5" font-family="Helvetica,sans-Serif" font-size="10.00">Subsystem.hpp</text>
</a>
</g>
</g>
<!-- Node1&#45;&gt;Node14 -->
<g id="edge16" class="edge">
<title>Node1&#45;&gt;Node14</title>
<path fill="none" stroke="midnightblue" d="M1275.6,-254.36C1245.3,-244.66 1202.05,-230.83 1169.84,-220.52"/>
<polygon fill="midnightblue" stroke="midnightblue" points="1274.76,-257.76 1285.35,-257.48 1276.89,-251.09 1274.76,-257.76"/>
</g>
<!-- Node16 -->
<g id="node16" class="node">
<title>Node16</title>
<g id="a_node16"><a xlink:href="GameSpeedSubsystem_8hpp.html" target="_top" xlink:title=" ">
<polygon fill="none" stroke="black" points="1428,-190.5 1428,-220.5 1572,-220.5 1572,-190.5 1428,-190.5"/>
<text text-anchor="start" x="1436" y="-208.5" font-family="Helvetica,sans-Serif" font-size="10.00">src/Subsystems/GameSpeed</text>
<text text-anchor="middle" x="1500" y="-197.5" font-family="Helvetica,sans-Serif" font-size="10.00">Subsystem.hpp</text>
</a>
</g>
</g>
<!-- Node1&#45;&gt;Node16 -->
<g id="edge19" class="edge">
<title>Node1&#45;&gt;Node16</title>
<path fill="none" stroke="midnightblue" d="M1348.79,-254.36C1379.42,-244.66 1423.14,-230.83 1455.69,-220.52"/>
<polygon fill="midnightblue" stroke="midnightblue" points="1347.41,-251.12 1338.94,-257.48 1349.53,-257.79 1347.41,-251.12"/>
</g>
<!-- Node18 -->
<g id="node18" class="node">
<title>Node18</title>
<g id="a_node18"><a xlink:href="InputSubsystem_8hpp.html" target="_top" xlink:title=" ">
<polygon fill="none" stroke="black" points="782.5,-196 782.5,-215 961.5,-215 961.5,-196 782.5,-196"/>
<text text-anchor="middle" x="872" y="-203" font-family="Helvetica,sans-Serif" font-size="10.00">src/Subsystems/InputSubsystem.hpp</text>
</a>
</g>
</g>
<!-- Node1&#45;&gt;Node18 -->
<g id="edge22" class="edge">
<title>Node1&#45;&gt;Node18</title>
<path fill="none" stroke="midnightblue" d="M1238.88,-256.11C1153.94,-244.63 1015.24,-225.87 934.92,-215.01"/>
<polygon fill="midnightblue" stroke="midnightblue" points="1238.58,-259.6 1248.96,-257.48 1239.52,-252.67 1238.58,-259.6"/>
</g>
<!-- Node20 -->
<g id="node20" class="node">
<title>Node20</title>
<g id="a_node20"><a xlink:href="PhysicsSubsystem_8hpp.html" target="_top" xlink:title=" ">
<polygon fill="none" stroke="black" points="1590.5,-196 1590.5,-215 1781.5,-215 1781.5,-196 1590.5,-196"/>
<text text-anchor="middle" x="1686" y="-203" font-family="Helvetica,sans-Serif" font-size="10.00">src/Subsystems/PhysicsSubsystem.hpp</text>
</a>
</g>
</g>
<!-- Node1&#45;&gt;Node20 -->
<g id="edge25" class="edge">
<title>Node1&#45;&gt;Node20</title>
<path fill="none" stroke="midnightblue" d="M1375.48,-255.9C1447.79,-244.4 1564.66,-225.8 1632.51,-215.01"/>
<polygon fill="midnightblue" stroke="midnightblue" points="1374.91,-252.45 1365.59,-257.48 1376.01,-259.36 1374.91,-252.45"/>
</g>
<!-- Node22 -->
<g id="node22" class="node">
<title>Node22</title>
<g id="a_node22"><a xlink:href="RenderSubsystem_8hpp.html" target="_top" xlink:title=" ">
<polygon fill="none" stroke="black" points="1914,-196 1914,-215 2102,-215 2102,-196 1914,-196"/>
<text text-anchor="middle" x="2008" y="-203" font-family="Helvetica,sans-Serif" font-size="10.00">src/Subsystems/RenderSubsystem.hpp</text>
</a>
</g>
</g>
<!-- Node1&#45;&gt;Node22 -->
<g id="edge28" class="edge">
<title>Node1&#45;&gt;Node22</title>
<path fill="none" stroke="midnightblue" d="M1402.23,-260.7C1517.77,-253.54 1724.07,-239.53 1900,-221 1915.99,-219.32 1933.27,-217.15 1949.22,-215.01"/>
<polygon fill="midnightblue" stroke="midnightblue" points="1401.79,-257.22 1392.02,-261.33 1402.22,-264.21 1401.79,-257.22"/>
</g>
<!-- Node3 -->
<g id="node3" class="node">
<title>Node3</title>
<g id="a_node3"><a xlink:href="AnimatorSubsystem_8cpp.html" target="_top" xlink:title=" ">
<polygon fill="none" stroke="black" points="1214,-129 1214,-148 1410,-148 1410,-129 1214,-129"/>
<text text-anchor="middle" x="1312" y="-136" font-family="Helvetica,sans-Serif" font-size="10.00">src/Subsystems/AnimatorSubsystem.cpp</text>
</a>
</g>
</g>
<!-- Node2&#45;&gt;Node3 -->
<g id="edge2" class="edge">
<title>Node2&#45;&gt;Node3</title>
<path fill="none" stroke="midnightblue" d="M1312,-185.54C1312,-173.17 1312,-157.62 1312,-148.13"/>
<polygon fill="midnightblue" stroke="midnightblue" points="1308.5,-185.73 1312,-195.73 1315.5,-185.73 1308.5,-185.73"/>
</g>
<!-- Node2&#45;&gt;Node4 -->
<g id="edge3" class="edge">
<title>Node2&#45;&gt;Node4</title>
<path fill="none" stroke="midnightblue" d="M1270.78,-192.63C1249,-184.64 1223.1,-172.18 1205,-154 1183.85,-132.76 1173.05,-97.53 1168.97,-81.25"/>
<polygon fill="midnightblue" stroke="midnightblue" points="1269.87,-196.02 1280.46,-196 1272.16,-189.41 1269.87,-196.02"/>
</g>
<!-- Node5 -->
<g id="node5" class="node">
<title>Node5</title>
<g id="a_node5"><a xlink:href="Engine_8cpp.html" target="_top" xlink:title=" ">
<polygon fill="none" stroke="black" points="1118,-0.5 1118,-19.5 1216,-19.5 1216,-0.5 1118,-0.5"/>
<text text-anchor="middle" x="1167" y="-7.5" font-family="Helvetica,sans-Serif" font-size="10.00">src/Api/Engine.cpp</text>
</a>
</g>
</g>
<!-- Node4&#45;&gt;Node5 -->
<g id="edge4" class="edge">
<title>Node4&#45;&gt;Node5</title>
<path fill="none" stroke="midnightblue" d="M1167,-51.82C1167,-41 1167,-27.9 1167,-19.51"/>
<polygon fill="midnightblue" stroke="midnightblue" points="1163.5,-51.98 1167,-61.98 1170.5,-51.98 1163.5,-51.98"/>
</g>
<!-- Node6&#45;&gt;Node4 -->
<g id="edge7" class="edge">
<title>Node6&#45;&gt;Node4</title>
<path fill="none" stroke="midnightblue" d="M599.24,-192.27C561.07,-177.39 509.34,-150.79 535,-123 571.63,-83.32 923.51,-74.8 1085.77,-72.98"/>
<polygon fill="midnightblue" stroke="midnightblue" points="598.49,-195.73 609.09,-195.97 600.96,-189.18 598.49,-195.73"/>
</g>
<!-- Node7 -->
<g id="node7" class="node">
<title>Node7</title>
<g id="a_node7"><a xlink:href="AudioSubsystem_8cpp.html" target="_top" xlink:title=" ">
<polygon fill="none" stroke="black" points="544,-129 544,-148 726,-148 726,-129 544,-129"/>
<text text-anchor="middle" x="635" y="-136" font-family="Helvetica,sans-Serif" font-size="10.00">src/Subsystems/AudioSubsystem.cpp</text>
</a>
</g>
</g>
<!-- Node6&#45;&gt;Node7 -->
<g id="edge6" class="edge">
<title>Node6&#45;&gt;Node7</title>
<path fill="none" stroke="midnightblue" d="M635,-185.54C635,-173.17 635,-157.62 635,-148.13"/>
<polygon fill="midnightblue" stroke="midnightblue" points="631.5,-185.73 635,-195.73 638.5,-185.73 631.5,-185.73"/>
</g>
<!-- Node9 -->
<g id="node9" class="node">
<title>Node9</title>
<g id="a_node9"><a xlink:href="BehaviourScriptSubsystem_8cpp.html" target="_top" xlink:title=" ">
<polygon fill="none" stroke="black" points="354,-123.5 354,-153.5 488,-153.5 488,-123.5 354,-123.5"/>
<text text-anchor="start" x="362" y="-141.5" font-family="Helvetica,sans-Serif" font-size="10.00">src/Subsystems/Behaviour</text>
<text text-anchor="middle" x="421" y="-130.5" font-family="Helvetica,sans-Serif" font-size="10.00">ScriptSubsystem.cpp</text>
</a>
</g>
</g>
<!-- Node8&#45;&gt;Node9 -->
<g id="edge9" class="edge">
<title>Node8&#45;&gt;Node9</title>
<path fill="none" stroke="midnightblue" d="M363.28,-184.17C376.12,-174.23 391.26,-162.51 402.81,-153.58"/>
<polygon fill="midnightblue" stroke="midnightblue" points="360.99,-181.51 355.23,-190.4 365.28,-187.04 360.99,-181.51"/>
</g>
<!-- Node10 -->
<g id="node10" class="node">
<title>Node10</title>
<g id="a_node10"><a xlink:href="LateUpdateBehaviourScriptSubsystem_8hpp.html" target="_top" xlink:title=" ">
<polygon fill="none" stroke="black" points="0,-123.5 0,-153.5 152,-153.5 152,-123.5 0,-123.5"/>
<text text-anchor="start" x="8" y="-141.5" font-family="Helvetica,sans-Serif" font-size="10.00">src/Subsystems/LateUpdate</text>
<text text-anchor="middle" x="76" y="-130.5" font-family="Helvetica,sans-Serif" font-size="10.00">BehaviourScriptSubsystem.hpp</text>
</a>
</g>
</g>
<!-- Node8&#45;&gt;Node10 -->
<g id="edge10" class="edge">
<title>Node8&#45;&gt;Node10</title>
<path fill="none" stroke="midnightblue" d="M270.95,-188.05C228.28,-177.43 173.34,-163.74 132.66,-153.61"/>
<polygon fill="midnightblue" stroke="midnightblue" points="270.14,-191.46 280.69,-190.48 271.83,-184.66 270.14,-191.46"/>
</g>
<!-- Node12 -->
<g id="node12" class="node">
<title>Node12</title>
<g id="a_node12"><a xlink:href="UpdateBehaviourScriptSubsystem_8hpp.html" target="_top" xlink:title=" ">
<polygon fill="none" stroke="black" points="170.5,-123.5 170.5,-153.5 335.5,-153.5 335.5,-123.5 170.5,-123.5"/>
<text text-anchor="start" x="178.5" y="-141.5" font-family="Helvetica,sans-Serif" font-size="10.00">src/Subsystems/UpdateBehaviour</text>
<text text-anchor="middle" x="253" y="-130.5" font-family="Helvetica,sans-Serif" font-size="10.00">ScriptSubsystem.hpp</text>
</a>
</g>
</g>
<!-- Node8&#45;&gt;Node12 -->
<g id="edge13" class="edge">
<title>Node8&#45;&gt;Node12</title>
<path fill="none" stroke="midnightblue" d="M310.72,-184.17C297.88,-174.23 282.74,-162.51 271.19,-153.58"/>
<polygon fill="midnightblue" stroke="midnightblue" points="308.72,-187.04 318.77,-190.4 313.01,-181.51 308.72,-187.04"/>
</g>
<!-- Node10&#45;&gt;Node4 -->
<g id="edge12" class="edge">
<title>Node10&#45;&gt;Node4</title>
<path fill="none" stroke="midnightblue" d="M162.44,-122.93C511.24,-85.15 916.2,-75.71 1085.89,-73.31"/>
<polygon fill="midnightblue" stroke="midnightblue" points="161.96,-119.46 152.4,-124.03 162.72,-126.42 161.96,-119.46"/>
</g>
<!-- Node11 -->
<g id="node11" class="node">
<title>Node11</title>
<g id="a_node11"><a xlink:href="LateUpdateBehaviourScriptSubsystem_8cpp.html" target="_top" xlink:title=" ">
<polygon fill="none" stroke="black" points="0,-56.5 0,-86.5 152,-86.5 152,-56.5 0,-56.5"/>
<text text-anchor="start" x="8" y="-74.5" font-family="Helvetica,sans-Serif" font-size="10.00">src/Subsystems/LateUpdate</text>
<text text-anchor="middle" x="76" y="-63.5" font-family="Helvetica,sans-Serif" font-size="10.00">BehaviourScriptSubsystem.cpp</text>
</a>
</g>
</g>
<!-- Node10&#45;&gt;Node11 -->
<g id="edge11" class="edge">
<title>Node10&#45;&gt;Node11</title>
<path fill="none" stroke="midnightblue" d="M76,-113.11C76,-104.15 76,-94.32 76,-86.58"/>
<polygon fill="midnightblue" stroke="midnightblue" points="72.5,-113.4 76,-123.4 79.5,-113.4 72.5,-113.4"/>
</g>
<!-- Node12&#45;&gt;Node4 -->
<g id="edge14" class="edge">
<title>Node12&#45;&gt;Node4</title>
<path fill="none" stroke="midnightblue" d="M345.97,-122.97C623.44,-93.1 940.11,-79.85 1085.99,-74.93"/>
<polygon fill="midnightblue" stroke="midnightblue" points="345.27,-119.53 335.7,-124.09 346.02,-126.49 345.27,-119.53"/>
</g>
<!-- Node13 -->
<g id="node13" class="node">
<title>Node13</title>
<g id="a_node13"><a xlink:href="UpdateBehaviourScriptSubsystem_8cpp.html" target="_top" xlink:title=" ">
<polygon fill="none" stroke="black" points="170.5,-56.5 170.5,-86.5 335.5,-86.5 335.5,-56.5 170.5,-56.5"/>
<text text-anchor="start" x="178.5" y="-74.5" font-family="Helvetica,sans-Serif" font-size="10.00">src/Subsystems/UpdateBehaviour</text>
<text text-anchor="middle" x="253" y="-63.5" font-family="Helvetica,sans-Serif" font-size="10.00">ScriptSubsystem.cpp</text>
</a>
</g>
</g>
<!-- Node12&#45;&gt;Node13 -->
<g id="edge15" class="edge">
<title>Node12&#45;&gt;Node13</title>
<path fill="none" stroke="midnightblue" d="M253,-113.11C253,-104.15 253,-94.32 253,-86.58"/>
<polygon fill="midnightblue" stroke="midnightblue" points="249.5,-113.4 253,-123.4 256.5,-113.4 249.5,-113.4"/>
</g>
<!-- Node14&#45;&gt;Node4 -->
<g id="edge18" class="edge">
<title>Node14&#45;&gt;Node4</title>
<path fill="none" stroke="midnightblue" d="M1133.39,-180.71C1142.68,-150.81 1158.15,-101 1164.33,-81.1"/>
<polygon fill="midnightblue" stroke="midnightblue" points="1130.01,-179.79 1130.39,-190.37 1136.7,-181.86 1130.01,-179.79"/>
</g>
<!-- Node15 -->
<g id="node15" class="node">
<title>Node15</title>
<g id="a_node15"><a xlink:href="FpsCounterSubsystem_8cpp.html" target="_top" xlink:title=" ">
<polygon fill="none" stroke="black" points="980,-123.5 980,-153.5 1120,-153.5 1120,-123.5 980,-123.5"/>
<text text-anchor="start" x="988" y="-141.5" font-family="Helvetica,sans-Serif" font-size="10.00">src/Subsystems/FpsCounter</text>
<text text-anchor="middle" x="1050" y="-130.5" font-family="Helvetica,sans-Serif" font-size="10.00">Subsystem.cpp</text>
</a>
</g>
</g>
<!-- Node14&#45;&gt;Node15 -->
<g id="edge17" class="edge">
<title>Node14&#45;&gt;Node15</title>
<path fill="none" stroke="midnightblue" d="M1101.89,-183.88C1090.34,-174.01 1076.81,-162.43 1066.46,-153.58"/>
<polygon fill="midnightblue" stroke="midnightblue" points="1099.63,-186.56 1109.51,-190.4 1104.18,-181.24 1099.63,-186.56"/>
</g>
<!-- Node16&#45;&gt;Node4 -->
<g id="edge21" class="edge">
<title>Node16&#45;&gt;Node4</title>
<path fill="none" stroke="midnightblue" d="M1540.37,-185.67C1569.62,-169.53 1600.83,-145.4 1581,-123 1559.34,-98.54 1362.41,-83.47 1248.14,-76.7"/>
<polygon fill="midnightblue" stroke="midnightblue" points="1538.62,-182.64 1531.42,-190.41 1541.89,-188.83 1538.62,-182.64"/>
</g>
<!-- Node17 -->
<g id="node17" class="node">
<title>Node17</title>
<g id="a_node17"><a xlink:href="GameSpeedSubsystem_8cpp.html" target="_top" xlink:title=" ">
<polygon fill="none" stroke="black" points="1428,-123.5 1428,-153.5 1572,-153.5 1572,-123.5 1428,-123.5"/>
<text text-anchor="start" x="1436" y="-141.5" font-family="Helvetica,sans-Serif" font-size="10.00">src/Subsystems/GameSpeed</text>
<text text-anchor="middle" x="1500" y="-130.5" font-family="Helvetica,sans-Serif" font-size="10.00">Subsystem.cpp</text>
</a>
</g>
</g>
<!-- Node16&#45;&gt;Node17 -->
<g id="edge20" class="edge">
<title>Node16&#45;&gt;Node17</title>
<path fill="none" stroke="midnightblue" d="M1500,-180.11C1500,-171.15 1500,-161.32 1500,-153.58"/>
<polygon fill="midnightblue" stroke="midnightblue" points="1496.5,-180.4 1500,-190.4 1503.5,-180.4 1496.5,-180.4"/>
</g>
<!-- Node18&#45;&gt;Node4 -->
<g id="edge24" class="edge">
<title>Node18&#45;&gt;Node4</title>
<path fill="none" stroke="midnightblue" d="M836.49,-192.3C798.92,-177.54 748.23,-151.15 773,-123 793.3,-99.93 976.35,-84.5 1085.67,-77.26"/>
<polygon fill="midnightblue" stroke="midnightblue" points="835.59,-195.7 846.18,-195.97 838.07,-189.16 835.59,-195.7"/>
</g>
<!-- Node19 -->
<g id="node19" class="node">
<title>Node19</title>
<g id="a_node19"><a xlink:href="InputSubsystem_8cpp.html" target="_top" xlink:title=" ">
<polygon fill="none" stroke="black" points="782.5,-129 782.5,-148 961.5,-148 961.5,-129 782.5,-129"/>
<text text-anchor="middle" x="872" y="-136" font-family="Helvetica,sans-Serif" font-size="10.00">src/Subsystems/InputSubsystem.cpp</text>
</a>
</g>
</g>
<!-- Node18&#45;&gt;Node19 -->
<g id="edge23" class="edge">
<title>Node18&#45;&gt;Node19</title>
<path fill="none" stroke="midnightblue" d="M872,-185.54C872,-173.17 872,-157.62 872,-148.13"/>
<polygon fill="midnightblue" stroke="midnightblue" points="868.5,-185.73 872,-195.73 875.5,-185.73 868.5,-185.73"/>
</g>
<!-- Node20&#45;&gt;Node4 -->
<g id="edge27" class="edge">
<title>Node20&#45;&gt;Node4</title>
<path fill="none" stroke="midnightblue" d="M1673.73,-187.83C1658.55,-168.6 1630.76,-137.74 1599,-123 1538.47,-94.9 1355.59,-81.53 1248.17,-75.94"/>
<polygon fill="midnightblue" stroke="midnightblue" points="1671.11,-190.17 1679.97,-195.98 1676.67,-185.91 1671.11,-190.17"/>
</g>
<!-- Node21 -->
<g id="node21" class="node">
<title>Node21</title>
<g id="a_node21"><a xlink:href="PhysicsSubsystem_8cpp.html" target="_top" xlink:title=" ">
<polygon fill="none" stroke="black" points="1666.5,-129 1666.5,-148 1857.5,-148 1857.5,-129 1666.5,-129"/>
<text text-anchor="middle" x="1762" y="-136" font-family="Helvetica,sans-Serif" font-size="10.00">src/Subsystems/PhysicsSubsystem.cpp</text>
</a>
</g>
</g>
<!-- Node20&#45;&gt;Node21 -->
<g id="edge26" class="edge">
<title>Node20&#45;&gt;Node21</title>
<path fill="none" stroke="midnightblue" d="M1703.87,-189.21C1718.85,-176.41 1739.68,-158.59 1751.91,-148.13"/>
<polygon fill="midnightblue" stroke="midnightblue" points="1701.57,-186.57 1696.25,-195.73 1706.12,-191.89 1701.57,-186.57"/>
</g>
<!-- Node22&#45;&gt;Node4 -->
<g id="edge30" class="edge">
<title>Node22&#45;&gt;Node4</title>
<path fill="none" stroke="midnightblue" d="M1988.75,-189.52C1959.08,-166.51 1905.08,-124.9 1900,-123 1782.53,-79.1 1413.09,-72.85 1248.04,-72.31"/>
<polygon fill="midnightblue" stroke="midnightblue" points="1986.7,-192.37 1996.75,-195.73 1991,-186.84 1986.7,-192.37"/>
</g>
<!-- Node23 -->
<g id="node23" class="node">
<title>Node23</title>
<g id="a_node23"><a xlink:href="RenderSubsystem_8cpp.html" target="_top" xlink:title=" ">
<polygon fill="none" stroke="black" points="1952,-129 1952,-148 2140,-148 2140,-129 1952,-129"/>
<text text-anchor="middle" x="2046" y="-136" font-family="Helvetica,sans-Serif" font-size="10.00">src/Subsystems/RenderSubsystem.cpp</text>
</a>
</g>
</g>
<!-- Node22&#45;&gt;Node23 -->
<g id="edge29" class="edge">
<title>Node22&#45;&gt;Node23</title>
<path fill="none" stroke="midnightblue" d="M2018.21,-187.03C2025.57,-174.45 2035.18,-158.01 2040.96,-148.13"/>
<polygon fill="midnightblue" stroke="midnightblue" points="2015.15,-185.33 2013.12,-195.73 2021.19,-188.87 2015.15,-185.33"/>
</g>
</g>
</svg>
        <g id="navigator" transform="translate(0 0)" fill="#404254">
                <rect fill="#f2f5e9" fill-opacity="0.5" stroke="#606060" stroke-width=".5" x="0" y="0" width="60" height="60"/>
                <use id="zoomplus" xlink:href="#zoomPlus" x="17" y="9" onmousedown="handleZoom(evt,'in')"/>
                <use id="zoomminus" xlink:href="#zoomMin" x="42" y="9" onmousedown="handleZoom(evt,'out')"/>
                <use id="reset" xlink:href="#resetDef" x="30" y="36" onmousedown="handleReset()"/>
                <g id="arrowUp" xlink:href="#dirArrow" transform="translate(30 24)" onmousedown="handlePan(0,-1)">
                  <use xlink:href="#rim" fill="#404040">
                        <set attributeName="fill" to="#808080" begin="arrowUp.mouseover" end="arrowUp.mouseout"/>
                  </use>
                  <path fill="none" stroke="white" stroke-width="1.5" d="M0,-3.0v7 M-2.5,-0.5L0,-3.0L2.5,-0.5"/>
                </g>
                <g id="arrowRight" xlink:href="#dirArrow" transform="rotate(90) translate(36 -43)" onmousedown="handlePan(1,0)">
                  <use xlink:href="#rim" fill="#404040">
                        <set attributeName="fill" to="#808080" begin="arrowRight.mouseover" end="arrowRight.mouseout"/>
                  </use>
                  <path fill="none" stroke="white" stroke-width="1.5" d="M0,-3.0v7 M-2.5,-0.5L0,-3.0L2.5,-0.5"/>
                </g>
                <g id="arrowDown" xlink:href="#dirArrow" transform="rotate(180) translate(-30 -48)" onmousedown="handlePan(0,1)">
                  <use xlink:href="#rim" fill="#404040">
                        <set attributeName="fill" to="#808080" begin="arrowDown.mouseover" end="arrowDown.mouseout"/>
                  </use>
                  <path fill="none" stroke="white" stroke-width="1.5" d="M0,-3.0v7 M-2.5,-0.5L0,-3.0L2.5,-0.5"/>
                </g>
                <g id="arrowLeft" xlink:href="#dirArrow" transform="rotate(270) translate(-36 17)" onmousedown="handlePan(-1,0)">
                  <use xlink:href="#rim" fill="#404040">
                        <set attributeName="fill" to="#808080" begin="arrowLeft.mouseover" end="arrowLeft.mouseout"/>
                  </use>
                  <path fill="none" stroke="white" stroke-width="1.5" d="M0,-3.0v7 M-2.5,-0.5L0,-3.0L2.5,-0.5"/>
                </g>
        </g>
        <svg viewBox="0 0 15 15" width="100%" height="30px" preserveAspectRatio="xMaxYMin meet">
         <g id="arrow_out" transform="scale(0.3 0.3)">
          <a xlink:href="ISubsystem_8hpp__dep__incl_org.svg" target="_base">
           <rect id="button" ry="5" rx="5" y="6" x="6" height="38" width="38"
                fill="#f2f5e9" fill-opacity="0.5" stroke="#606060" stroke-width="1.0"/>
           <path id="arrow"
             d="M 11.500037,31.436501 C 11.940474,20.09759 22.043105,11.32322 32.158766,21.979434 L 37.068811,17.246167 C 37.068811,17.246167 37.088388,32 37.088388,32 L 22.160133,31.978069 C 22.160133,31.978069 26.997745,27.140456 26.997745,27.140456 C 18.528582,18.264221 13.291696,25.230495 11.500037,31.436501 z"
             style="fill:#404040;"/>
          </a>
         </g>
        </svg>
</svg>
