<?xml version="1.0" encoding="UTF-8" standalone="no"?>
<!DOCTYPE svg PUBLIC "-//W3C//DTD SVG 1.1//EN"
 "http://www.w3.org/Graphics/SVG/1.1/DTD/svg11.dtd">
<!-- Generated by graphviz version 2.44.0 ()
 -->
<!-- Title: src/Subsystems/PhysicsSubsystem.cpp Pages: 1 -->
<!--zoomable 364 -->
<svg id="main" version="1.1" xmlns="http://www.w3.org/2000/svg" xmlns:xlink="http://www.w3.org/1999/xlink" xml:space="preserve" onload="init(evt)">
<style type="text/css"><![CDATA[
.edge:hover path { stroke: red; }
.edge:hover polygon { stroke: red; fill: red; }
]]></style>
<script type="text/javascript"><![CDATA[
var edges = document.getElementsByTagName('g');
if (edges && edges.length) {
  for (var i=0;i<edges.length;i++) {
    if (edges[i].id.substr(0,4)=='edge') {
      edges[i].setAttribute('class','edge');
    }
  }
}
]]></script>
        <defs>
                <circle id="rim" cx="0" cy="0" r="7"/>
                <circle id="rim2" cx="0" cy="0" r="3.5"/>
                <g id="zoomPlus">
                        <use xlink:href="#rim" fill="#404040">
                                <set attributeName="fill" to="#808080" begin="zoomplus.mouseover" end="zoomplus.mouseout"/>
                        </use>
                        <path d="M-4,0h8M0,-4v8" fill="none" stroke="white" stroke-width="1.5" pointer-events="none"/>
                </g>
                <g id="zoomMin">
                        <use xlink:href="#rim" fill="#404040">
                                <set attributeName="fill" to="#808080" begin="zoomminus.mouseover" end="zoomminus.mouseout"/>
                        </use>
                        <path d="M-4,0h8" fill="none" stroke="white" stroke-width="1.5" pointer-events="none"/>
                </g>
                <g id="dirArrow">
                        <path fill="none" stroke="white" stroke-width="1.5" d="M0,-3.0v7 M-2.5,-0.5L0,-3.0L2.5,-0.5"/>
                </g>
               <g id="resetDef">
                       <use xlink:href="#rim2" fill="#404040">
                               <set attributeName="fill" to="#808080" begin="reset.mouseover" end="reset.mouseout"/>
                       </use>
               </g>
        </defs>

<script type="text/javascript">
var viewWidth = 900;
var viewHeight = 364;
var sectionId = 'dynsection-0';
</script>
<script xlink:href="svgpan.js"/>
<svg id="graph" class="graph">
<g id="viewport">
<title>src/Subsystems/PhysicsSubsystem.cpp</title>
<!-- Node1 -->
<g id="node1" class="node">
<title>Node1</title>
<g id="a_node1"><a xlink:title=" ">
<polygon fill="#bfbfbf" stroke="black" points="477.2,-336.5 477.2,-355.5 668.2,-355.5 668.2,-336.5 477.2,-336.5"/>
<text text-anchor="middle" x="572.7" y="-343.5" font-family="Helvetica,sans-Serif" font-size="10.00">src/Subsystems/PhysicsSubsystem.cpp</text>
</a>
</g>
</g>
<!-- Node2 -->
<g id="node2" class="node">
<title>Node2</title>
<g id="a_node2"><a xlink:href="PhysicsSubsystem_8hpp.html" target="_top" xlink:title=" ">
<polygon fill="none" stroke="black" points="470.7,-280.5 470.7,-299.5 588.7,-299.5 588.7,-280.5 470.7,-280.5"/>
<text text-anchor="middle" x="529.7" y="-287.5" font-family="Helvetica,sans-Serif" font-size="10.00">PhysicsSubsystem.hpp</text>
</a>
</g>
</g>
<!-- Node1&#45;&gt;Node2 -->
<g id="edge1" class="edge">
<title>Node1&#45;&gt;Node2</title>
<path fill="none" stroke="midnightblue" d="M565.6,-336.08C559.46,-328.38 550.43,-317.03 542.96,-307.65"/>
<polygon fill="midnightblue" stroke="midnightblue" points="545.64,-305.39 536.67,-299.75 540.16,-309.75 545.64,-305.39"/>
</g>
<!-- Node4 -->
<g id="node4" class="node">
<title>Node4</title>
<g id="a_node4"><a xlink:title=" ">
<polygon fill="none" stroke="#bfbfbf" points="470.2,-0.5 470.2,-19.5 521.2,-19.5 521.2,-0.5 470.2,-0.5"/>
<text text-anchor="middle" x="495.7" y="-7.5" font-family="Helvetica,sans-Serif" font-size="10.00">memory</text>
</a>
</g>
</g>
<!-- Node1&#45;&gt;Node4 -->
<g id="edge26" class="edge">
<title>Node1&#45;&gt;Node4</title>
<path fill="none" stroke="midnightblue" d="M477.09,-342.9C328.75,-338.79 56.5,-327.56 21.7,-300 -2.1,-281.15 0.7,-265.36 0.7,-235 0.7,-235 0.7,-235 0.7,-121 0.7,-26.87 346.12,-13.24 459.86,-11.31"/>
<polygon fill="midnightblue" stroke="midnightblue" points="460.18,-14.8 470.13,-11.16 460.08,-7.81 460.18,-14.8"/>
</g>
<!-- Node5 -->
<g id="node5" class="node">
<title>Node5</title>
<g id="a_node5"><a xlink:href="RigidBody_8hpp.html" target="_top" xlink:title=" ">
<polygon fill="none" stroke="black" points="644.7,-224.5 644.7,-243.5 722.7,-243.5 722.7,-224.5 644.7,-224.5"/>
<text text-anchor="middle" x="683.7" y="-231.5" font-family="Helvetica,sans-Serif" font-size="10.00">RigidBody.hpp</text>
</a>
</g>
</g>
<!-- Node1&#45;&gt;Node5 -->
<g id="edge31" class="edge">
<title>Node1&#45;&gt;Node5</title>
<path fill="none" stroke="midnightblue" d="M585.36,-336.45C597.57,-327.91 616.29,-314.07 630.7,-300 646.11,-284.96 661.4,-265.61 671.57,-251.94"/>
<polygon fill="midnightblue" stroke="midnightblue" points="674.65,-253.65 677.73,-243.51 669,-249.52 674.65,-253.65"/>
</g>
<!-- Node8 -->
<g id="node8" class="node">
<title>Node8</title>
<g id="a_node8"><a xlink:title=" ">
<polygon fill="none" stroke="#bfbfbf" points="562.7,-168.5 562.7,-187.5 606.7,-187.5 606.7,-168.5 562.7,-168.5"/>
<text text-anchor="middle" x="584.7" y="-175.5" font-family="Helvetica,sans-Serif" font-size="10.00">vector</text>
</a>
</g>
</g>
<!-- Node1&#45;&gt;Node8 -->
<g id="edge28" class="edge">
<title>Node1&#45;&gt;Node8</title>
<path fill="none" stroke="midnightblue" d="M579.33,-336.27C585.46,-327.61 594.16,-313.67 597.7,-300 606.9,-264.51 597.65,-221.54 590.74,-197.54"/>
<polygon fill="midnightblue" stroke="midnightblue" points="593.99,-196.2 587.72,-187.66 587.3,-198.25 593.99,-196.2"/>
</g>
<!-- Node9 -->
<g id="node9" class="node">
<title>Node9</title>
<g id="a_node9"><a xlink:href="GameObject_8hpp.html" target="_top" xlink:title=" ">
<polygon fill="none" stroke="black" points="741.2,-224.5 741.2,-243.5 830.2,-243.5 830.2,-224.5 741.2,-224.5"/>
<text text-anchor="middle" x="785.7" y="-231.5" font-family="Helvetica,sans-Serif" font-size="10.00">GameObject.hpp</text>
</a>
</g>
</g>
<!-- Node1&#45;&gt;Node9 -->
<g id="edge30" class="edge">
<title>Node1&#45;&gt;Node9</title>
<path fill="none" stroke="midnightblue" d="M589.41,-336.37C626.51,-317.21 715.92,-271.04 760.11,-248.22"/>
<polygon fill="midnightblue" stroke="midnightblue" points="761.78,-251.29 769.06,-243.59 758.57,-245.07 761.78,-251.29"/>
</g>
<!-- Node14 -->
<g id="node14" class="node">
<title>Node14</title>
<g id="a_node14"><a xlink:title=" ">
<polygon fill="none" stroke="#bfbfbf" points="169.2,-168.5 169.2,-187.5 204.2,-187.5 204.2,-168.5 169.2,-168.5"/>
<text text-anchor="middle" x="186.7" y="-175.5" font-family="Helvetica,sans-Serif" font-size="10.00">map</text>
</a>
</g>
</g>
<!-- Node1&#45;&gt;Node14 -->
<g id="edge29" class="edge">
<title>Node1&#45;&gt;Node14</title>
<path fill="none" stroke="midnightblue" d="M497.52,-336.5C424.77,-325.23 314.12,-299.81 234.7,-244 217.35,-231.81 203.76,-211.36 195.53,-196.65"/>
<polygon fill="midnightblue" stroke="midnightblue" points="198.49,-194.75 190.71,-187.56 192.3,-198.03 198.49,-194.75"/>
</g>
<!-- Node17 -->
<g id="node17" class="node">
<title>Node17</title>
<g id="a_node17"><a xlink:title=" ">
<polygon fill="none" stroke="#bfbfbf" points="720.7,-280.5 720.7,-299.5 764.7,-299.5 764.7,-280.5 720.7,-280.5"/>
<text text-anchor="middle" x="742.7" y="-287.5" font-family="Helvetica,sans-Serif" font-size="10.00">cmath</text>
</a>
</g>
</g>
<!-- Node1&#45;&gt;Node17 -->
<g id="edge27" class="edge">
<title>Node1&#45;&gt;Node17</title>
<path fill="none" stroke="midnightblue" d="M599.64,-336.44C629.8,-326.86 678.64,-311.35 710.71,-301.16"/>
<polygon fill="midnightblue" stroke="midnightblue" points="712.02,-304.42 720.49,-298.05 709.9,-297.75 712.02,-304.42"/>
</g>
<!-- Node18 -->
<g id="node18" class="node">
<title>Node18</title>
<g id="a_node18"><a xlink:href="CircleCollider_8hpp.html" target="_top" xlink:title=" ">
<polygon fill="none" stroke="black" points="66.7,-224.5 66.7,-243.5 158.7,-243.5 158.7,-224.5 66.7,-224.5"/>
<text text-anchor="middle" x="112.7" y="-231.5" font-family="Helvetica,sans-Serif" font-size="10.00">CircleCollider.hpp</text>
</a>
</g>
</g>
<!-- Node1&#45;&gt;Node18 -->
<g id="edge32" class="edge">
<title>Node1&#45;&gt;Node18</title>
<path fill="none" stroke="midnightblue" d="M476.96,-341.88C375.89,-337.24 224.21,-326.08 172.7,-300 151.37,-289.2 133.79,-267.5 123.29,-252.14"/>
<polygon fill="midnightblue" stroke="midnightblue" points="126.09,-250.03 117.7,-243.56 120.23,-253.85 126.09,-250.03"/>
</g>
<!-- Node19 -->
<g id="node19" class="node">
<title>Node19</title>
<g id="a_node19"><a xlink:href="BoxCollider_8hpp.html" target="_top" xlink:title=" ">
<polygon fill="none" stroke="black" points="31.2,-280.5 31.2,-299.5 114.2,-299.5 114.2,-280.5 31.2,-280.5"/>
<text text-anchor="middle" x="72.7" y="-287.5" font-family="Helvetica,sans-Serif" font-size="10.00">BoxCollider.hpp</text>
</a>
</g>
</g>
<!-- Node1&#45;&gt;Node19 -->
<g id="edge34" class="edge">
<title>Node1&#45;&gt;Node19</title>
<path fill="none" stroke="midnightblue" d="M476.85,-336.5C387.62,-328.29 250.98,-314.91 132.7,-300 130,-299.66 127.24,-299.3 124.44,-298.92"/>
<polygon fill="midnightblue" stroke="midnightblue" points="124.69,-295.42 114.3,-297.5 123.72,-302.35 124.69,-295.42"/>
</g>
<!-- Node20 -->
<g id="node20" class="node">
<title>Node20</title>
<g id="a_node20"><a xlink:href="Time_8hpp.html" target="_top" xlink:title=" ">
<polygon fill="none" stroke="black" points="782.7,-280.5 782.7,-299.5 838.7,-299.5 838.7,-280.5 782.7,-280.5"/>
<text text-anchor="middle" x="810.7" y="-287.5" font-family="Helvetica,sans-Serif" font-size="10.00">Time.hpp</text>
</a>
</g>
</g>
<!-- Node1&#45;&gt;Node20 -->
<g id="edge36" class="edge">
<title>Node1&#45;&gt;Node20</title>
<path fill="none" stroke="midnightblue" d="M612.03,-336.42C650.53,-327.97 711.09,-314.54 772.56,-300.24"/>
<polygon fill="midnightblue" stroke="midnightblue" points="773.49,-303.61 782.43,-297.93 771.9,-296.8 773.49,-303.61"/>
</g>
<!-- Node3 -->
<g id="node3" class="node">
<title>Node3</title>
<g id="a_node3"><a xlink:title=" ">
<polygon fill="none" stroke="#bfbfbf" points="222.7,-168.5 222.7,-187.5 300.7,-187.5 300.7,-168.5 222.7,-168.5"/>
<text text-anchor="middle" x="261.7" y="-175.5" font-family="Helvetica,sans-Serif" font-size="10.00">box2d/box2d.h</text>
</a>
</g>
</g>
<!-- Node2&#45;&gt;Node3 -->
<g id="edge2" class="edge">
<title>Node2&#45;&gt;Node3</title>
<path fill="none" stroke="midnightblue" d="M470.39,-288.33C395.55,-286.09 273.13,-277.27 244.7,-244 233.26,-230.62 241.22,-210.42 249.68,-196.09"/>
<polygon fill="midnightblue" stroke="midnightblue" points="252.64,-197.96 255.11,-187.66 246.76,-194.17 252.64,-197.96"/>
</g>
<!-- Node2&#45;&gt;Node4 -->
<g id="edge3" class="edge">
<title>Node2&#45;&gt;Node4</title>
<path fill="none" stroke="midnightblue" d="M529.41,-280.47C528.25,-249.86 523.26,-142.79 507.7,-56 506.11,-47.14 503.63,-37.47 501.34,-29.37"/>
<polygon fill="midnightblue" stroke="midnightblue" points="504.62,-28.13 498.43,-19.53 497.91,-30.11 504.62,-28.13"/>
</g>
<!-- Node2&#45;&gt;Node5 -->
<g id="edge4" class="edge">
<title>Node2&#45;&gt;Node5</title>
<path fill="none" stroke="midnightblue" d="M554.1,-280.44C579.9,-271.4 620.78,-257.06 649.72,-246.92"/>
<polygon fill="midnightblue" stroke="midnightblue" points="651.13,-250.13 659.41,-243.52 648.82,-243.52 651.13,-250.13"/>
</g>
<!-- Node2&#45;&gt;Node8 -->
<g id="edge8" class="edge">
<title>Node2&#45;&gt;Node8</title>
<path fill="none" stroke="midnightblue" d="M534.69,-280.48C539.88,-271.5 548.15,-256.91 554.7,-244 562.69,-228.26 571.05,-209.98 576.91,-196.82"/>
<polygon fill="midnightblue" stroke="midnightblue" points="580.18,-198.07 581.01,-187.51 573.78,-195.25 580.18,-198.07"/>
</g>
<!-- Node2&#45;&gt;Node9 -->
<g id="edge9" class="edge">
<title>Node2&#45;&gt;Node9</title>
<path fill="none" stroke="midnightblue" d="M570.26,-280.44C615.02,-271 687.08,-255.8 735.39,-245.61"/>
<polygon fill="midnightblue" stroke="midnightblue" points="736.26,-249.01 745.33,-243.52 734.82,-242.16 736.26,-249.01"/>
</g>
<!-- Node12 -->
<g id="node12" class="node">
<title>Node12</title>
<g id="a_node12"><a xlink:href="ISubsystem_8hpp.html" target="_top" xlink:title=" ">
<polygon fill="none" stroke="black" points="426.7,-224.5 426.7,-243.5 512.7,-243.5 512.7,-224.5 426.7,-224.5"/>
<text text-anchor="middle" x="469.7" y="-231.5" font-family="Helvetica,sans-Serif" font-size="10.00">ISubsystem.hpp</text>
</a>
</g>
</g>
<!-- Node2&#45;&gt;Node12 -->
<g id="edge16" class="edge">
<title>Node2&#45;&gt;Node12</title>
<path fill="none" stroke="midnightblue" d="M520.06,-280.32C511.19,-272.34 497.82,-260.31 487.09,-250.65"/>
<polygon fill="midnightblue" stroke="midnightblue" points="489.29,-247.92 479.51,-243.83 484.61,-253.13 489.29,-247.92"/>
</g>
<!-- Node13 -->
<g id="node13" class="node">
<title>Node13</title>
<g id="a_node13"><a xlink:href="ContactListener_8hpp.html" target="_top" xlink:title=" ">
<polygon fill="none" stroke="black" points="253.2,-224.5 253.2,-243.5 408.2,-243.5 408.2,-224.5 253.2,-224.5"/>
<text text-anchor="middle" x="330.7" y="-231.5" font-family="Helvetica,sans-Serif" font-size="10.00">../Listeners/ContactListener.hpp</text>
</a>
</g>
</g>
<!-- Node2&#45;&gt;Node13 -->
<g id="edge17" class="edge">
<title>Node2&#45;&gt;Node13</title>
<path fill="none" stroke="midnightblue" d="M498.17,-280.44C464.11,-271.2 409.69,-256.44 372.18,-246.26"/>
<polygon fill="midnightblue" stroke="midnightblue" points="372.65,-242.76 362.08,-243.52 370.82,-249.51 372.65,-242.76"/>
</g>
<!-- Node6 -->
<g id="node6" class="node">
<title>Node6</title>
<g id="a_node6"><a xlink:href="Component_8hpp.html" target="_top" xlink:title=" ">
<polygon fill="none" stroke="black" points="414.7,-56.5 414.7,-75.5 498.7,-75.5 498.7,-56.5 414.7,-56.5"/>
<text text-anchor="middle" x="456.7" y="-63.5" font-family="Helvetica,sans-Serif" font-size="10.00">Component.hpp</text>
</a>
</g>
</g>
<!-- Node5&#45;&gt;Node6 -->
<g id="edge5" class="edge">
<title>Node5&#45;&gt;Node6</title>
<path fill="none" stroke="midnightblue" d="M675.8,-224.44C663.6,-211.45 639.1,-186.33 615.7,-168 570.9,-132.92 513.55,-98.86 481.4,-80.65"/>
<polygon fill="midnightblue" stroke="midnightblue" points="482.71,-77.37 472.27,-75.52 479.28,-83.47 482.71,-77.37"/>
</g>
<!-- Node7 -->
<g id="node7" class="node">
<title>Node7</title>
<g id="a_node7"><a xlink:href="Point_8hpp.html" target="_top" xlink:title=" ">
<polygon fill="none" stroke="black" points="688.2,-112.5 688.2,-131.5 745.2,-131.5 745.2,-112.5 688.2,-112.5"/>
<text text-anchor="middle" x="716.7" y="-119.5" font-family="Helvetica,sans-Serif" font-size="10.00">Point.hpp</text>
</a>
</g>
</g>
<!-- Node5&#45;&gt;Node7 -->
<g id="edge7" class="edge">
<title>Node5&#45;&gt;Node7</title>
<path fill="none" stroke="midnightblue" d="M683.93,-224.37C684.49,-211.72 686.37,-187.51 692.7,-168 695.84,-158.31 701,-148.25 705.74,-140.1"/>
<polygon fill="midnightblue" stroke="midnightblue" points="708.73,-141.91 710.95,-131.55 702.76,-138.27 708.73,-141.91"/>
</g>
<!-- Node6&#45;&gt;Node4 -->
<g id="edge6" class="edge">
<title>Node6&#45;&gt;Node4</title>
<path fill="none" stroke="midnightblue" d="M463.14,-56.08C468.65,-48.46 476.73,-37.26 483.46,-27.94"/>
<polygon fill="midnightblue" stroke="midnightblue" points="486.36,-29.91 489.38,-19.75 480.69,-25.81 486.36,-29.91"/>
</g>
<!-- Node9&#45;&gt;Node4 -->
<g id="edge15" class="edge">
<title>Node9&#45;&gt;Node4</title>
<path fill="none" stroke="midnightblue" d="M825.69,-224.44C861.26,-214.78 905.15,-196.59 887.7,-168 810.93,-42.24 613.1,-17.18 531.6,-12.21"/>
<polygon fill="midnightblue" stroke="midnightblue" points="531.53,-8.7 521.35,-11.66 531.15,-15.69 531.53,-8.7"/>
</g>
<!-- Node9&#45;&gt;Node6 -->
<g id="edge10" class="edge">
<title>Node9&#45;&gt;Node6</title>
<path fill="none" stroke="midnightblue" d="M788.03,-224.39C791.05,-211.75 795.31,-187.56 789.7,-168 781.61,-139.79 779.23,-128.11 754.7,-112 715.23,-86.08 583.26,-74.34 508.86,-69.67"/>
<polygon fill="midnightblue" stroke="midnightblue" points="508.95,-66.17 498.76,-69.06 508.53,-73.16 508.95,-66.17"/>
</g>
<!-- Node9&#45;&gt;Node8 -->
<g id="edge14" class="edge">
<title>Node9&#45;&gt;Node8</title>
<path fill="none" stroke="midnightblue" d="M753.85,-224.44C716.31,-214.36 654.29,-197.7 616.69,-187.6"/>
<polygon fill="midnightblue" stroke="midnightblue" points="617.34,-184.15 606.78,-184.93 615.52,-190.91 617.34,-184.15"/>
</g>
<!-- Node10 -->
<g id="node10" class="node">
<title>Node10</title>
<g id="a_node10"><a xlink:href="Transform_8hpp.html" target="_top" xlink:title=" ">
<polygon fill="none" stroke="black" points="701.2,-168.5 701.2,-187.5 780.2,-187.5 780.2,-168.5 701.2,-168.5"/>
<text text-anchor="middle" x="740.7" y="-175.5" font-family="Helvetica,sans-Serif" font-size="10.00">Transform.hpp</text>
</a>
</g>
</g>
<!-- Node9&#45;&gt;Node10 -->
<g id="edge11" class="edge">
<title>Node9&#45;&gt;Node10</title>
<path fill="none" stroke="midnightblue" d="M778.27,-224.08C771.85,-216.38 762.39,-205.03 754.58,-195.65"/>
<polygon fill="midnightblue" stroke="midnightblue" points="757.08,-193.19 747.99,-187.75 751.71,-197.67 757.08,-193.19"/>
</g>
<!-- Node11 -->
<g id="node11" class="node">
<title>Node11</title>
<g id="a_node11"><a xlink:title=" ">
<polygon fill="none" stroke="#bfbfbf" points="837.2,-168.5 837.2,-187.5 878.2,-187.5 878.2,-168.5 837.2,-168.5"/>
<text text-anchor="middle" x="857.7" y="-175.5" font-family="Helvetica,sans-Serif" font-size="10.00">string</text>
</a>
</g>
</g>
<!-- Node9&#45;&gt;Node11 -->
<g id="edge13" class="edge">
<title>Node9&#45;&gt;Node11</title>
<path fill="none" stroke="midnightblue" d="M797.27,-224.32C808.12,-216.18 824.58,-203.84 837.58,-194.09"/>
<polygon fill="midnightblue" stroke="midnightblue" points="840.02,-196.63 845.92,-187.83 835.82,-191.03 840.02,-196.63"/>
</g>
<!-- Node10&#45;&gt;Node7 -->
<g id="edge12" class="edge">
<title>Node10&#45;&gt;Node7</title>
<path fill="none" stroke="midnightblue" d="M736.74,-168.08C733.49,-160.77 728.78,-150.18 724.75,-141.1"/>
<polygon fill="midnightblue" stroke="midnightblue" points="727.85,-139.47 720.59,-131.75 721.45,-142.31 727.85,-139.47"/>
</g>
<!-- Node13&#45;&gt;Node3 -->
<g id="edge18" class="edge">
<title>Node13&#45;&gt;Node3</title>
<path fill="none" stroke="midnightblue" d="M319.61,-224.32C309.21,-216.18 293.44,-203.84 280.98,-194.09"/>
<polygon fill="midnightblue" stroke="midnightblue" points="283.02,-191.24 272.99,-187.83 278.71,-196.75 283.02,-191.24"/>
</g>
<!-- Node13&#45;&gt;Node6 -->
<g id="edge19" class="edge">
<title>Node13&#45;&gt;Node6</title>
<path fill="none" stroke="midnightblue" d="M370.9,-224.47C392.03,-217.95 416.59,-206.77 431.7,-188 455.49,-158.44 458.34,-111.95 457.83,-86.05"/>
<polygon fill="midnightblue" stroke="midnightblue" points="461.31,-85.58 457.42,-75.73 454.32,-85.86 461.31,-85.58"/>
</g>
<!-- Node13&#45;&gt;Node8 -->
<g id="edge25" class="edge">
<title>Node13&#45;&gt;Node8</title>
<path fill="none" stroke="midnightblue" d="M370.95,-224.44C421.17,-213.77 506.07,-195.72 552.31,-185.89"/>
<polygon fill="midnightblue" stroke="midnightblue" points="553.33,-189.25 562.38,-183.75 551.87,-182.4 553.33,-189.25"/>
</g>
<!-- Node13&#45;&gt;Node14 -->
<g id="edge20" class="edge">
<title>Node13&#45;&gt;Node14</title>
<path fill="none" stroke="midnightblue" d="M307.88,-224.44C282.43,-214.9 241.26,-199.46 214.08,-189.27"/>
<polygon fill="midnightblue" stroke="midnightblue" points="215.01,-185.88 204.42,-185.64 212.55,-192.43 215.01,-185.88"/>
</g>
<!-- Node15 -->
<g id="node15" class="node">
<title>Node15</title>
<g id="a_node15"><a xlink:href="BehaviourScript_8hpp.html" target="_top" xlink:title=" ">
<polygon fill="none" stroke="black" points="318.7,-168.5 318.7,-187.5 422.7,-187.5 422.7,-168.5 318.7,-168.5"/>
<text text-anchor="middle" x="370.7" y="-175.5" font-family="Helvetica,sans-Serif" font-size="10.00">BehaviourScript.hpp</text>
</a>
</g>
</g>
<!-- Node13&#45;&gt;Node15 -->
<g id="edge21" class="edge">
<title>Node13&#45;&gt;Node15</title>
<path fill="none" stroke="midnightblue" d="M337.3,-224.08C342.95,-216.46 351.24,-205.26 358.15,-195.94"/>
<polygon fill="midnightblue" stroke="midnightblue" points="361.08,-197.87 364.22,-187.75 355.45,-193.7 361.08,-197.87"/>
</g>
<!-- Node15&#45;&gt;Node6 -->
<g id="edge22" class="edge">
<title>Node15&#45;&gt;Node6</title>
<path fill="none" stroke="midnightblue" d="M377.45,-168.37C391.7,-150.14 425.09,-107.43 443.66,-83.68"/>
<polygon fill="midnightblue" stroke="midnightblue" points="446.58,-85.63 449.98,-75.59 441.07,-81.31 446.58,-85.63"/>
</g>
<!-- Node16 -->
<g id="node16" class="node">
<title>Node16</title>
<g id="a_node16"><a xlink:href="Collider_8hpp.html" target="_top" xlink:title=" ">
<polygon fill="none" stroke="black" points="177.2,-112.5 177.2,-131.5 244.2,-131.5 244.2,-112.5 177.2,-112.5"/>
<text text-anchor="middle" x="210.7" y="-119.5" font-family="Helvetica,sans-Serif" font-size="10.00">Collider.hpp</text>
</a>
</g>
</g>
<!-- Node15&#45;&gt;Node16 -->
<g id="edge23" class="edge">
<title>Node15&#45;&gt;Node16</title>
<path fill="none" stroke="midnightblue" d="M345.35,-168.44C318.43,-159.36 275.7,-144.94 245.61,-134.78"/>
<polygon fill="midnightblue" stroke="midnightblue" points="246.53,-131.4 235.93,-131.52 244.29,-138.03 246.53,-131.4"/>
</g>
<!-- Node16&#45;&gt;Node6 -->
<g id="edge24" class="edge">
<title>Node16&#45;&gt;Node6</title>
<path fill="none" stroke="midnightblue" d="M244.39,-113.6C286.65,-104.33 359.43,-88.35 407.81,-77.73"/>
<polygon fill="midnightblue" stroke="midnightblue" points="408.73,-81.11 417.75,-75.55 407.23,-74.28 408.73,-81.11"/>
</g>
<!-- Node18&#45;&gt;Node16 -->
<g id="edge33" class="edge">
<title>Node18&#45;&gt;Node16</title>
<path fill="none" stroke="midnightblue" d="M118.39,-224.16C126.89,-211.24 143.73,-186.7 160.7,-168 170.29,-157.43 182.12,-146.7 191.86,-138.37"/>
<polygon fill="midnightblue" stroke="midnightblue" points="194.37,-140.84 199.78,-131.73 189.87,-135.47 194.37,-140.84"/>
</g>
<!-- Node19&#45;&gt;Node16 -->
<g id="edge35" class="edge">
<title>Node19&#45;&gt;Node16</title>
<path fill="none" stroke="midnightblue" d="M66.93,-280.08C59.31,-267.06 47.91,-242.41 57.7,-224 82.04,-178.21 137.38,-149.79 174.4,-135.18"/>
<polygon fill="midnightblue" stroke="midnightblue" points="175.74,-138.42 183.84,-131.59 173.25,-131.87 175.74,-138.42"/>
</g>
</g>
</svg>
        <g id="navigator" transform="translate(0 0)" fill="#404254">
                <rect fill="#f2f5e9" fill-opacity="0.5" stroke="#606060" stroke-width=".5" x="0" y="0" width="60" height="60"/>
                <use id="zoomplus" xlink:href="#zoomPlus" x="17" y="9" onmousedown="handleZoom(evt,'in')"/>
                <use id="zoomminus" xlink:href="#zoomMin" x="42" y="9" onmousedown="handleZoom(evt,'out')"/>
                <use id="reset" xlink:href="#resetDef" x="30" y="36" onmousedown="handleReset()"/>
                <g id="arrowUp" xlink:href="#dirArrow" transform="translate(30 24)" onmousedown="handlePan(0,-1)">
                  <use xlink:href="#rim" fill="#404040">
                        <set attributeName="fill" to="#808080" begin="arrowUp.mouseover" end="arrowUp.mouseout"/>
                  </use>
                  <path fill="none" stroke="white" stroke-width="1.5" d="M0,-3.0v7 M-2.5,-0.5L0,-3.0L2.5,-0.5"/>
                </g>
                <g id="arrowRight" xlink:href="#dirArrow" transform="rotate(90) translate(36 -43)" onmousedown="handlePan(1,0)">
                  <use xlink:href="#rim" fill="#404040">
                        <set attributeName="fill" to="#808080" begin="arrowRight.mouseover" end="arrowRight.mouseout"/>
                  </use>
                  <path fill="none" stroke="white" stroke-width="1.5" d="M0,-3.0v7 M-2.5,-0.5L0,-3.0L2.5,-0.5"/>
                </g>
                <g id="arrowDown" xlink:href="#dirArrow" transform="rotate(180) translate(-30 -48)" onmousedown="handlePan(0,1)">
                  <use xlink:href="#rim" fill="#404040">
                        <set attributeName="fill" to="#808080" begin="arrowDown.mouseover" end="arrowDown.mouseout"/>
                  </use>
                  <path fill="none" stroke="white" stroke-width="1.5" d="M0,-3.0v7 M-2.5,-0.5L0,-3.0L2.5,-0.5"/>
                </g>
                <g id="arrowLeft" xlink:href="#dirArrow" transform="rotate(270) translate(-36 17)" onmousedown="handlePan(-1,0)">
                  <use xlink:href="#rim" fill="#404040">
                        <set attributeName="fill" to="#808080" begin="arrowLeft.mouseover" end="arrowLeft.mouseout"/>
                  </use>
                  <path fill="none" stroke="white" stroke-width="1.5" d="M0,-3.0v7 M-2.5,-0.5L0,-3.0L2.5,-0.5"/>
                </g>
        </g>
        <svg viewBox="0 0 15 15" width="100%" height="30px" preserveAspectRatio="xMaxYMin meet">
         <g id="arrow_out" transform="scale(0.3 0.3)">
          <a xlink:href="PhysicsSubsystem_8cpp__incl_org.svg" target="_base">
           <rect id="button" ry="5" rx="5" y="6" x="6" height="38" width="38"
                fill="#f2f5e9" fill-opacity="0.5" stroke="#606060" stroke-width="1.0"/>
           <path id="arrow"
             d="M 11.500037,31.436501 C 11.940474,20.09759 22.043105,11.32322 32.158766,21.979434 L 37.068811,17.246167 C 37.068811,17.246167 37.088388,32 37.088388,32 L 22.160133,31.978069 C 22.160133,31.978069 26.997745,27.140456 26.997745,27.140456 C 18.528582,18.264221 13.291696,25.230495 11.500037,31.436501 z"
             style="fill:#404040;"/>
          </a>
         </g>
        </svg>
</svg>
