<?xml version="1.0" encoding="UTF-8" standalone="no"?>
<!DOCTYPE svg PUBLIC "-//W3C//DTD SVG 1.1//EN"
 "http://www.w3.org/Graphics/SVG/1.1/DTD/svg11.dtd">
<!-- Generated by graphviz version 2.44.0 ()
 -->
<!-- Title: includes/spic&#45;api&#45;headers/Utils/QueueUtil_templates.hpp Pages: 1 -->
<svg width="160pt" height="151pt"
 viewBox="0.00 0.00 160.00 151.00" xmlns="http://www.w3.org/2000/svg" xmlns:xlink="http://www.w3.org/1999/xlink">
<g id="graph0" class="graph" transform="scale(1 1) rotate(0) translate(4 147)">
<title>includes/spic&#45;api&#45;headers/Utils/QueueUtil_templates.hpp</title>
<!-- Node1 -->
<g id="node1" class="node">
<title>Node1</title>
<g id="a_node1"><a xlink:title=" ">
<polygon fill="#bfbfbf" stroke="black" points="0,-112.5 0,-142.5 152,-142.5 152,-112.5 0,-112.5"/>
<text text-anchor="start" x="8" y="-130.5" font-family="Helvetica,sans-Serif" font-size="10.00">includes/spic&#45;api&#45;headers</text>
<text text-anchor="middle" x="76" y="-119.5" font-family="Helvetica,sans-Serif" font-size="10.00">/Utils/QueueUtil_templates.hpp</text>
</a>
</g>
</g>
<!-- Node2 -->
<g id="node2" class="node">
<title>Node2</title>
<g id="a_node2"><a xlink:href="QueueUtil_8hpp.html" target="_top" xlink:title=" ">
<polygon fill="none" stroke="black" points="37,-56.5 37,-75.5 115,-75.5 115,-56.5 37,-56.5"/>
<text text-anchor="middle" x="76" y="-63.5" font-family="Helvetica,sans-Serif" font-size="10.00">QueueUtil.hpp</text>
</a>
</g>
</g>
<!-- Node1&#45;&gt;Node2 -->
<g id="edge1" class="edge">
<title>Node1&#45;&gt;Node2</title>
<path fill="none" stroke="midnightblue" d="M76,-112.4C76,-104.47 76,-94.46 76,-85.86"/>
<polygon fill="midnightblue" stroke="midnightblue" points="79.5,-85.66 76,-75.66 72.5,-85.66 79.5,-85.66"/>
</g>
<!-- Node3 -->
<g id="node3" class="node">
<title>Node3</title>
<g id="a_node3"><a xlink:title=" ">
<polygon fill="none" stroke="#bfbfbf" points="24.5,-0.5 24.5,-19.5 67.5,-19.5 67.5,-0.5 24.5,-0.5"/>
<text text-anchor="middle" x="46" y="-7.5" font-family="Helvetica,sans-Serif" font-size="10.00">queue</text>
</a>
</g>
</g>
<!-- Node2&#45;&gt;Node3 -->
<g id="edge2" class="edge">
<title>Node2&#45;&gt;Node3</title>
<path fill="none" stroke="midnightblue" d="M71.05,-56.08C66.9,-48.61 60.85,-37.72 55.73,-28.52"/>
<polygon fill="midnightblue" stroke="midnightblue" points="58.78,-26.79 50.86,-19.75 52.66,-30.19 58.78,-26.79"/>
</g>
<!-- Node4 -->
<g id="node4" class="node">
<title>Node4</title>
<g id="a_node4"><a xlink:title=" ">
<polygon fill="none" stroke="#bfbfbf" points="85.5,-0.5 85.5,-19.5 126.5,-19.5 126.5,-0.5 85.5,-0.5"/>
<text text-anchor="middle" x="106" y="-7.5" font-family="Helvetica,sans-Serif" font-size="10.00">stack</text>
</a>
</g>
</g>
<!-- Node2&#45;&gt;Node4 -->
<g id="edge3" class="edge">
<title>Node2&#45;&gt;Node4</title>
<path fill="none" stroke="midnightblue" d="M80.95,-56.08C85.1,-48.61 91.15,-37.72 96.27,-28.52"/>
<polygon fill="midnightblue" stroke="midnightblue" points="99.34,-30.19 101.14,-19.75 93.22,-26.79 99.34,-30.19"/>
</g>
</g>
</svg>
