<?xml version="1.0" encoding="UTF-8" standalone="no"?>
<!DOCTYPE svg PUBLIC "-//W3C//DTD SVG 1.1//EN"
 "http://www.w3.org/Graphics/SVG/1.1/DTD/svg11.dtd">
<!-- Generated by graphviz version 2.44.0 ()
 -->
<!-- Title: src/Subsystems/RenderSubsystem.cpp Pages: 1 -->
<!--zoomable 420 -->
<svg id="main" version="1.1" xmlns="http://www.w3.org/2000/svg" xmlns:xlink="http://www.w3.org/1999/xlink" xml:space="preserve" onload="init(evt)">
<style type="text/css"><![CDATA[
.edge:hover path { stroke: red; }
.edge:hover polygon { stroke: red; fill: red; }
]]></style>
<script type="text/javascript"><![CDATA[
var edges = document.getElementsByTagName('g');
if (edges && edges.length) {
  for (var i=0;i<edges.length;i++) {
    if (edges[i].id.substr(0,4)=='edge') {
      edges[i].setAttribute('class','edge');
    }
  }
}
]]></script>
        <defs>
                <circle id="rim" cx="0" cy="0" r="7"/>
                <circle id="rim2" cx="0" cy="0" r="3.5"/>
                <g id="zoomPlus">
                        <use xlink:href="#rim" fill="#404040">
                                <set attributeName="fill" to="#808080" begin="zoomplus.mouseover" end="zoomplus.mouseout"/>
                        </use>
                        <path d="M-4,0h8M0,-4v8" fill="none" stroke="white" stroke-width="1.5" pointer-events="none"/>
                </g>
                <g id="zoomMin">
                        <use xlink:href="#rim" fill="#404040">
                                <set attributeName="fill" to="#808080" begin="zoomminus.mouseover" end="zoomminus.mouseout"/>
                        </use>
                        <path d="M-4,0h8" fill="none" stroke="white" stroke-width="1.5" pointer-events="none"/>
                </g>
                <g id="dirArrow">
                        <path fill="none" stroke="white" stroke-width="1.5" d="M0,-3.0v7 M-2.5,-0.5L0,-3.0L2.5,-0.5"/>
                </g>
               <g id="resetDef">
                       <use xlink:href="#rim2" fill="#404040">
                               <set attributeName="fill" to="#808080" begin="reset.mouseover" end="reset.mouseout"/>
                       </use>
               </g>
        </defs>

<script type="text/javascript">
var viewWidth = 1150;
var viewHeight = 420;
var sectionId = 'dynsection-0';
</script>
<script xlink:href="svgpan.js"/>
<svg id="graph" class="graph">
<g id="viewport">
<title>src/Subsystems/RenderSubsystem.cpp</title>
<!-- Node1 -->
<g id="node1" class="node">
<title>Node1</title>
<g id="a_node1"><a xlink:title=" ">
<polygon fill="#bfbfbf" stroke="black" points="702.5,-392.5 702.5,-411.5 890.5,-411.5 890.5,-392.5 702.5,-392.5"/>
<text text-anchor="middle" x="796.5" y="-399.5" font-family="Helvetica,sans-Serif" font-size="10.00">src/Subsystems/RenderSubsystem.cpp</text>
</a>
</g>
</g>
<!-- Node2 -->
<g id="node2" class="node">
<title>Node2</title>
<g id="a_node2"><a xlink:href="RenderSubsystem_8hpp.html" target="_top" xlink:title=" ">
<polygon fill="none" stroke="black" points="434.5,-336.5 434.5,-355.5 548.5,-355.5 548.5,-336.5 434.5,-336.5"/>
<text text-anchor="middle" x="491.5" y="-343.5" font-family="Helvetica,sans-Serif" font-size="10.00">RenderSubsystem.hpp</text>
</a>
</g>
</g>
<!-- Node1&#45;&gt;Node2 -->
<g id="edge1" class="edge">
<title>Node1&#45;&gt;Node2</title>
<path fill="none" stroke="midnightblue" d="M748.17,-392.44C694.3,-382.9 607.19,-367.48 549.64,-357.29"/>
<polygon fill="midnightblue" stroke="midnightblue" points="550.06,-353.81 539.6,-355.52 548.84,-360.71 550.06,-353.81"/>
</g>
<!-- Node6 -->
<g id="node6" class="node">
<title>Node6</title>
<g id="a_node6"><a xlink:href="Text_8hpp.html" target="_top" xlink:title=" ">
<polygon fill="none" stroke="black" points="544,-224.5 544,-243.5 597,-243.5 597,-224.5 544,-224.5"/>
<text text-anchor="middle" x="570.5" y="-231.5" font-family="Helvetica,sans-Serif" font-size="10.00">Text.hpp</text>
</a>
</g>
</g>
<!-- Node1&#45;&gt;Node6 -->
<g id="edge48" class="edge">
<title>Node1&#45;&gt;Node6</title>
<path fill="none" stroke="midnightblue" d="M784.67,-392.31C748.05,-365.42 636.33,-283.35 590.47,-249.67"/>
<polygon fill="midnightblue" stroke="midnightblue" points="592.35,-246.7 582.22,-243.61 588.2,-252.35 592.35,-246.7"/>
</g>
<!-- Node8 -->
<g id="node8" class="node">
<title>Node8</title>
<g id="a_node8"><a xlink:href="GameObject_8hpp.html" target="_top" xlink:title=" ">
<polygon fill="none" stroke="black" points="790,-112.5 790,-131.5 879,-131.5 879,-112.5 790,-112.5"/>
<text text-anchor="middle" x="834.5" y="-119.5" font-family="Helvetica,sans-Serif" font-size="10.00">GameObject.hpp</text>
</a>
</g>
</g>
<!-- Node1&#45;&gt;Node8 -->
<g id="edge43" class="edge">
<title>Node1&#45;&gt;Node8</title>
<path fill="none" stroke="midnightblue" d="M816.7,-392.49C849.2,-377.29 909.5,-342.2 909.5,-291 909.5,-291 909.5,-291 909.5,-233 909.5,-193.44 875.98,-157.62 853.76,-138.21"/>
<polygon fill="midnightblue" stroke="midnightblue" points="855.8,-135.35 845.89,-131.6 851.3,-140.71 855.8,-135.35"/>
</g>
<!-- Node18 -->
<g id="node18" class="node">
<title>Node18</title>
<g id="a_node18"><a xlink:title=" ">
<polygon fill="none" stroke="#bfbfbf" points="0,-112.5 0,-131.5 35,-131.5 35,-112.5 0,-112.5"/>
<text text-anchor="middle" x="17.5" y="-119.5" font-family="Helvetica,sans-Serif" font-size="10.00">map</text>
</a>
</g>
</g>
<!-- Node1&#45;&gt;Node18 -->
<g id="edge54" class="edge">
<title>Node1&#45;&gt;Node18</title>
<path fill="none" stroke="midnightblue" d="M702.29,-397.41C494.57,-388.23 15.5,-359.64 15.5,-291 15.5,-291 15.5,-291 15.5,-233 15.5,-200.94 16.36,-163.64 16.95,-141.75"/>
<polygon fill="midnightblue" stroke="midnightblue" points="20.46,-141.65 17.24,-131.56 13.46,-141.45 20.46,-141.65"/>
</g>
<!-- Node23 -->
<g id="node23" class="node">
<title>Node23</title>
<g id="a_node23"><a xlink:href="Engine_8hpp.html" target="_top" xlink:title=" ">
<polygon fill="none" stroke="black" points="704.5,-224.5 704.5,-243.5 768.5,-243.5 768.5,-224.5 704.5,-224.5"/>
<text text-anchor="middle" x="736.5" y="-231.5" font-family="Helvetica,sans-Serif" font-size="10.00">Engine.hpp</text>
</a>
</g>
</g>
<!-- Node1&#45;&gt;Node23 -->
<g id="edge36" class="edge">
<title>Node1&#45;&gt;Node23</title>
<path fill="none" stroke="midnightblue" d="M793.27,-392.08C783.79,-365.83 755.85,-288.55 743.05,-253.12"/>
<polygon fill="midnightblue" stroke="midnightblue" points="746.29,-251.78 739.6,-243.57 739.7,-254.16 746.29,-251.78"/>
</g>
<!-- Node27 -->
<g id="node27" class="node">
<title>Node27</title>
<g id="a_node27"><a xlink:href="Sprite_8hpp.html" target="_top" xlink:title=" ">
<polygon fill="none" stroke="black" points="691.5,-168.5 691.5,-187.5 751.5,-187.5 751.5,-168.5 691.5,-168.5"/>
<text text-anchor="middle" x="721.5" y="-175.5" font-family="Helvetica,sans-Serif" font-size="10.00">Sprite.hpp</text>
</a>
</g>
</g>
<!-- Node1&#45;&gt;Node27 -->
<g id="edge44" class="edge">
<title>Node1&#45;&gt;Node27</title>
<path fill="none" stroke="midnightblue" d="M797.8,-392.21C801.34,-365.15 808.94,-281.49 777.5,-224 770.51,-211.22 758.25,-200.74 746.97,-193.11"/>
<polygon fill="midnightblue" stroke="midnightblue" points="748.59,-189.99 738.26,-187.62 744.86,-195.92 748.59,-189.99"/>
</g>
<!-- Node28 -->
<g id="node28" class="node">
<title>Node28</title>
<g id="a_node28"><a xlink:href="DebugLines_8hpp.html" target="_top" xlink:title=" ">
<polygon fill="none" stroke="black" points="937.5,-168.5 937.5,-187.5 1065.5,-187.5 1065.5,-168.5 937.5,-168.5"/>
<text text-anchor="middle" x="1001.5" y="-175.5" font-family="Helvetica,sans-Serif" font-size="10.00">../Structs/DebugLines.hpp</text>
</a>
</g>
</g>
<!-- Node1&#45;&gt;Node28 -->
<g id="edge49" class="edge">
<title>Node1&#45;&gt;Node28</title>
<path fill="none" stroke="midnightblue" d="M848.84,-392.48C873.98,-386.08 903.01,-375.02 923.5,-356 971.03,-311.89 991.24,-233.62 998.3,-197.82"/>
<polygon fill="midnightblue" stroke="midnightblue" points="1001.77,-198.25 1000.14,-187.78 994.89,-196.98 1001.77,-198.25"/>
</g>
<!-- Node29 -->
<g id="node29" class="node">
<title>Node29</title>
<g id="a_node29"><a xlink:title=" ">
<polygon fill="none" stroke="#bfbfbf" points="1029.5,-336.5 1029.5,-355.5 1085.5,-355.5 1085.5,-336.5 1029.5,-336.5"/>
<text text-anchor="middle" x="1057.5" y="-343.5" font-family="Helvetica,sans-Serif" font-size="10.00">algorithm</text>
</a>
</g>
</g>
<!-- Node1&#45;&gt;Node29 -->
<g id="edge53" class="edge">
<title>Node1&#45;&gt;Node29</title>
<path fill="none" stroke="midnightblue" d="M838.51,-392.48C882.61,-383.51 953.96,-368.92 1015.5,-356 1016.77,-355.73 1018.07,-355.46 1019.37,-355.18"/>
<polygon fill="midnightblue" stroke="midnightblue" points="1020.44,-358.54 1029.49,-353.04 1018.98,-351.69 1020.44,-358.54"/>
</g>
<!-- Node30 -->
<g id="node30" class="node">
<title>Node30</title>
<g id="a_node30"><a xlink:title=" ">
<polygon fill="none" stroke="#bfbfbf" points="1103.5,-336.5 1103.5,-355.5 1141.5,-355.5 1141.5,-336.5 1103.5,-336.5"/>
<text text-anchor="middle" x="1122.5" y="-343.5" font-family="Helvetica,sans-Serif" font-size="10.00">tuple</text>
</a>
</g>
</g>
<!-- Node1&#45;&gt;Node30 -->
<g id="edge55" class="edge">
<title>Node1&#45;&gt;Node30</title>
<path fill="none" stroke="midnightblue" d="M876.53,-392.46C934.44,-385.47 1014.63,-374.1 1093.26,-355.97"/>
<polygon fill="midnightblue" stroke="midnightblue" points="1094.4,-359.3 1103.33,-353.61 1092.8,-352.48 1094.4,-359.3"/>
</g>
<!-- Node3 -->
<g id="node3" class="node">
<title>Node3</title>
<g id="a_node3"><a xlink:href="ISubsystem_8hpp.html" target="_top" xlink:title=" ">
<polygon fill="none" stroke="black" points="331.5,-280.5 331.5,-299.5 417.5,-299.5 417.5,-280.5 331.5,-280.5"/>
<text text-anchor="middle" x="374.5" y="-287.5" font-family="Helvetica,sans-Serif" font-size="10.00">ISubsystem.hpp</text>
</a>
</g>
</g>
<!-- Node2&#45;&gt;Node3 -->
<g id="edge2" class="edge">
<title>Node2&#45;&gt;Node3</title>
<path fill="none" stroke="midnightblue" d="M472.96,-336.44C453.88,-327.64 423.93,-313.81 402.06,-303.72"/>
<polygon fill="midnightblue" stroke="midnightblue" points="403.5,-300.53 392.95,-299.52 400.57,-306.88 403.5,-300.53"/>
</g>
<!-- Node4 -->
<g id="node4" class="node">
<title>Node4</title>
<g id="a_node4"><a xlink:href="Window_8hpp.html" target="_top" xlink:title=" ">
<polygon fill="none" stroke="black" points="436,-280.5 436,-299.5 547,-299.5 547,-280.5 436,-280.5"/>
<text text-anchor="middle" x="491.5" y="-287.5" font-family="Helvetica,sans-Serif" font-size="10.00">../Models/Window.hpp</text>
</a>
</g>
</g>
<!-- Node2&#45;&gt;Node4 -->
<g id="edge3" class="edge">
<title>Node2&#45;&gt;Node4</title>
<path fill="none" stroke="midnightblue" d="M491.5,-336.08C491.5,-329.01 491.5,-318.86 491.5,-309.99"/>
<polygon fill="midnightblue" stroke="midnightblue" points="495,-309.75 491.5,-299.75 488,-309.75 495,-309.75"/>
</g>
<!-- Node5 -->
<g id="node5" class="node">
<title>Node5</title>
<g id="a_node5"><a xlink:href="Color_8hpp.html" target="_top" xlink:title=" ">
<polygon fill="none" stroke="black" points="524,-112.5 524,-131.5 581,-131.5 581,-112.5 524,-112.5"/>
<text text-anchor="middle" x="552.5" y="-119.5" font-family="Helvetica,sans-Serif" font-size="10.00">Color.hpp</text>
</a>
</g>
</g>
<!-- Node4&#45;&gt;Node5 -->
<g id="edge4" class="edge">
<title>Node4&#45;&gt;Node5</title>
<path fill="none" stroke="midnightblue" d="M494.78,-280.08C504.42,-253.83 532.82,-176.55 545.84,-141.12"/>
<polygon fill="midnightblue" stroke="midnightblue" points="549.19,-142.16 549.35,-131.57 542.62,-139.75 549.19,-142.16"/>
</g>
<!-- Node4&#45;&gt;Node6 -->
<g id="edge5" class="edge">
<title>Node4&#45;&gt;Node6</title>
<path fill="none" stroke="midnightblue" d="M504.19,-280.32C516.4,-271.98 535.08,-259.21 549.5,-249.35"/>
<polygon fill="midnightblue" stroke="midnightblue" points="551.56,-252.19 557.84,-243.65 547.61,-246.41 551.56,-252.19"/>
</g>
<!-- Node11 -->
<g id="node11" class="node">
<title>Node11</title>
<g id="a_node11"><a xlink:href="Transform_8hpp.html" target="_top" xlink:title=" ">
<polygon fill="none" stroke="black" points="1024,-56.5 1024,-75.5 1103,-75.5 1103,-56.5 1024,-56.5"/>
<text text-anchor="middle" x="1063.5" y="-63.5" font-family="Helvetica,sans-Serif" font-size="10.00">Transform.hpp</text>
</a>
</g>
</g>
<!-- Node4&#45;&gt;Node11 -->
<g id="edge17" class="edge">
<title>Node4&#45;&gt;Node11</title>
<path fill="none" stroke="midnightblue" d="M547.07,-288.14C679.55,-284.78 1007.87,-268.36 1074.5,-188 1098.76,-158.74 1083.42,-110.73 1072.21,-84.86"/>
<polygon fill="midnightblue" stroke="midnightblue" points="1075.28,-83.16 1067.92,-75.53 1068.92,-86.08 1075.28,-83.16"/>
</g>
<!-- Node15 -->
<g id="node15" class="node">
<title>Node15</title>
<g id="a_node15"><a xlink:href="FontManager_8hpp.html" target="_top" xlink:title=" ">
<polygon fill="none" stroke="black" points="44,-168.5 44,-187.5 189,-187.5 189,-168.5 44,-168.5"/>
<text text-anchor="middle" x="116.5" y="-175.5" font-family="Helvetica,sans-Serif" font-size="10.00">../Managers/FontManager.hpp</text>
</a>
</g>
</g>
<!-- Node4&#45;&gt;Node15 -->
<g id="edge18" class="edge">
<title>Node4&#45;&gt;Node15</title>
<path fill="none" stroke="midnightblue" d="M435.88,-281.01C355.2,-269.33 214.11,-248.47 203.5,-244 175.97,-232.42 149.21,-210.28 132.79,-195.09"/>
<polygon fill="midnightblue" stroke="midnightblue" points="134.86,-192.23 125.21,-187.87 130.04,-197.3 134.86,-192.23"/>
</g>
<!-- Node19 -->
<g id="node19" class="node">
<title>Node19</title>
<g id="a_node19"><a xlink:href="TextureManager_8hpp.html" target="_top" xlink:title=" ">
<polygon fill="none" stroke="black" points="275.5,-168.5 275.5,-187.5 433.5,-187.5 433.5,-168.5 275.5,-168.5"/>
<text text-anchor="middle" x="354.5" y="-175.5" font-family="Helvetica,sans-Serif" font-size="10.00">../Managers/TextureManager.hpp</text>
</a>
</g>
</g>
<!-- Node4&#45;&gt;Node19 -->
<g id="edge25" class="edge">
<title>Node4&#45;&gt;Node19</title>
<path fill="none" stroke="midnightblue" d="M469.77,-280.46C451.66,-272.68 425.79,-259.97 406.5,-244 389.86,-230.22 374.92,-210.37 365.37,-196.24"/>
<polygon fill="midnightblue" stroke="midnightblue" points="368.07,-193.96 359.67,-187.51 362.21,-197.79 368.07,-193.96"/>
</g>
<!-- Node21 -->
<g id="node21" class="node">
<title>Node21</title>
<g id="a_node21"><a xlink:title=" ">
<polygon fill="none" stroke="#bfbfbf" points="281.5,-56.5 281.5,-75.5 357.5,-75.5 357.5,-56.5 281.5,-56.5"/>
<text text-anchor="middle" x="319.5" y="-63.5" font-family="Helvetica,sans-Serif" font-size="10.00">SDL_render.h</text>
</a>
</g>
</g>
<!-- Node4&#45;&gt;Node21 -->
<g id="edge34" class="edge">
<title>Node4&#45;&gt;Node21</title>
<path fill="none" stroke="midnightblue" d="M435.97,-281.55C382.03,-271 303.07,-246.05 266.5,-188 258.63,-175.5 259.28,-138.89 272.5,-112 278.36,-100.08 288.75,-89.62 298.27,-81.79"/>
<polygon fill="midnightblue" stroke="midnightblue" points="300.5,-84.49 306.28,-75.62 296.23,-78.95 300.5,-84.49"/>
</g>
<!-- Node22 -->
<g id="node22" class="node">
<title>Node22</title>
<g id="a_node22"><a xlink:title=" ">
<polygon fill="none" stroke="#bfbfbf" points="415.5,-224.5 415.5,-243.5 487.5,-243.5 487.5,-224.5 415.5,-224.5"/>
<text text-anchor="middle" x="451.5" y="-231.5" font-family="Helvetica,sans-Serif" font-size="10.00">SDL_video.h</text>
</a>
</g>
</g>
<!-- Node4&#45;&gt;Node22 -->
<g id="edge35" class="edge">
<title>Node4&#45;&gt;Node22</title>
<path fill="none" stroke="midnightblue" d="M484.89,-280.08C479.24,-272.46 470.96,-261.26 464.05,-251.94"/>
<polygon fill="midnightblue" stroke="midnightblue" points="466.75,-249.7 457.98,-243.75 461.12,-253.87 466.75,-249.7"/>
</g>
<!-- Node6&#45;&gt;Node5 -->
<g id="edge15" class="edge">
<title>Node6&#45;&gt;Node5</title>
<path fill="none" stroke="midnightblue" d="M569.09,-224.37C566.18,-206.62 559.48,-165.67 555.54,-141.6"/>
<polygon fill="midnightblue" stroke="midnightblue" points="558.97,-140.89 553.91,-131.59 552.07,-142.03 558.97,-140.89"/>
</g>
<!-- Node7 -->
<g id="node7" class="node">
<title>Node7</title>
<g id="a_node7"><a xlink:href="UIObject_8hpp.html" target="_top" xlink:title=" ">
<polygon fill="none" stroke="black" points="769.5,-168.5 769.5,-187.5 843.5,-187.5 843.5,-168.5 769.5,-168.5"/>
<text text-anchor="middle" x="806.5" y="-175.5" font-family="Helvetica,sans-Serif" font-size="10.00">UIObject.hpp</text>
</a>
</g>
</g>
<!-- Node6&#45;&gt;Node7 -->
<g id="edge6" class="edge">
<title>Node6&#45;&gt;Node7</title>
<path fill="none" stroke="midnightblue" d="M597.11,-226.91C636.39,-217.92 710.47,-200.97 759.16,-189.83"/>
<polygon fill="midnightblue" stroke="midnightblue" points="760.17,-193.19 769.14,-187.55 758.61,-186.37 760.17,-193.19"/>
</g>
<!-- Node13 -->
<g id="node13" class="node">
<title>Node13</title>
<g id="a_node13"><a xlink:title=" ">
<polygon fill="none" stroke="#bfbfbf" points="475,-56.5 475,-75.5 516,-75.5 516,-56.5 475,-56.5"/>
<text text-anchor="middle" x="495.5" y="-63.5" font-family="Helvetica,sans-Serif" font-size="10.00">string</text>
</a>
</g>
</g>
<!-- Node6&#45;&gt;Node13 -->
<g id="edge16" class="edge">
<title>Node6&#45;&gt;Node13</title>
<path fill="none" stroke="midnightblue" d="M564.87,-224.41C553.92,-207.39 529.48,-167.9 514.5,-132 508.13,-116.74 503.03,-98.63 499.72,-85.41"/>
<polygon fill="midnightblue" stroke="midnightblue" points="503.11,-84.53 497.37,-75.62 496.3,-86.16 503.11,-84.53"/>
</g>
<!-- Node7&#45;&gt;Node8 -->
<g id="edge7" class="edge">
<title>Node7&#45;&gt;Node8</title>
<path fill="none" stroke="midnightblue" d="M811.12,-168.08C814.96,-160.69 820.52,-149.95 825.26,-140.81"/>
<polygon fill="midnightblue" stroke="midnightblue" points="828.47,-142.24 829.96,-131.75 822.25,-139.02 828.47,-142.24"/>
</g>
<!-- Node9 -->
<g id="node9" class="node">
<title>Node9</title>
<g id="a_node9"><a xlink:href="Component_8hpp.html" target="_top" xlink:title=" ">
<polygon fill="none" stroke="black" points="719.5,-56.5 719.5,-75.5 803.5,-75.5 803.5,-56.5 719.5,-56.5"/>
<text text-anchor="middle" x="761.5" y="-63.5" font-family="Helvetica,sans-Serif" font-size="10.00">Component.hpp</text>
</a>
</g>
</g>
<!-- Node8&#45;&gt;Node9 -->
<g id="edge8" class="edge">
<title>Node8&#45;&gt;Node9</title>
<path fill="none" stroke="midnightblue" d="M822.77,-112.32C811.66,-104.11 794.76,-91.6 781.52,-81.81"/>
<polygon fill="midnightblue" stroke="midnightblue" points="783.56,-78.97 773.44,-75.83 779.4,-84.59 783.56,-78.97"/>
</g>
<!-- Node10 -->
<g id="node10" class="node">
<title>Node10</title>
<g id="a_node10"><a xlink:title=" ">
<polygon fill="none" stroke="#bfbfbf" points="360,-0.5 360,-19.5 411,-19.5 411,-0.5 360,-0.5"/>
<text text-anchor="middle" x="385.5" y="-7.5" font-family="Helvetica,sans-Serif" font-size="10.00">memory</text>
</a>
</g>
</g>
<!-- Node8&#45;&gt;Node10 -->
<g id="edge14" class="edge">
<title>Node8&#45;&gt;Node10</title>
<path fill="none" stroke="midnightblue" d="M834.35,-112.18C833.58,-97.88 829.8,-69.84 812.5,-56 782.2,-31.76 518.77,-17.19 421.44,-12.59"/>
<polygon fill="midnightblue" stroke="midnightblue" points="421.37,-9.08 411.21,-12.11 421.04,-16.07 421.37,-9.08"/>
</g>
<!-- Node8&#45;&gt;Node11 -->
<g id="edge10" class="edge">
<title>Node8&#45;&gt;Node11</title>
<path fill="none" stroke="midnightblue" d="M870.79,-112.44C910.48,-103.08 974.21,-88.06 1017.41,-77.87"/>
<polygon fill="midnightblue" stroke="midnightblue" points="1018.45,-81.22 1027.38,-75.52 1016.85,-74.41 1018.45,-81.22"/>
</g>
<!-- Node8&#45;&gt;Node13 -->
<g id="edge12" class="edge">
<title>Node8&#45;&gt;Node13</title>
<path fill="none" stroke="midnightblue" d="M789.83,-113.88C719.95,-102.75 586.56,-81.5 526.35,-71.91"/>
<polygon fill="midnightblue" stroke="midnightblue" points="526.75,-68.43 516.32,-70.32 525.65,-75.35 526.75,-68.43"/>
</g>
<!-- Node14 -->
<g id="node14" class="node">
<title>Node14</title>
<g id="a_node14"><a xlink:title=" ">
<polygon fill="none" stroke="#bfbfbf" points="905.5,-56.5 905.5,-75.5 949.5,-75.5 949.5,-56.5 905.5,-56.5"/>
<text text-anchor="middle" x="927.5" y="-63.5" font-family="Helvetica,sans-Serif" font-size="10.00">vector</text>
</a>
</g>
</g>
<!-- Node8&#45;&gt;Node14 -->
<g id="edge13" class="edge">
<title>Node8&#45;&gt;Node14</title>
<path fill="none" stroke="midnightblue" d="M849.44,-112.32C864.09,-103.82 886.63,-90.73 903.74,-80.8"/>
<polygon fill="midnightblue" stroke="midnightblue" points="905.7,-83.7 912.6,-75.65 902.19,-77.65 905.7,-83.7"/>
</g>
<!-- Node9&#45;&gt;Node10 -->
<g id="edge9" class="edge">
<title>Node9&#45;&gt;Node10</title>
<path fill="none" stroke="midnightblue" d="M719.46,-58.96C644.91,-48.26 490.84,-26.13 421.14,-16.12"/>
<polygon fill="midnightblue" stroke="midnightblue" points="421.49,-12.63 411.09,-14.68 420.49,-19.56 421.49,-12.63"/>
</g>
<!-- Node12 -->
<g id="node12" class="node">
<title>Node12</title>
<g id="a_node12"><a xlink:href="Point_8hpp.html" target="_top" xlink:title=" ">
<polygon fill="none" stroke="black" points="1069,-0.5 1069,-19.5 1126,-19.5 1126,-0.5 1069,-0.5"/>
<text text-anchor="middle" x="1097.5" y="-7.5" font-family="Helvetica,sans-Serif" font-size="10.00">Point.hpp</text>
</a>
</g>
</g>
<!-- Node11&#45;&gt;Node12 -->
<g id="edge11" class="edge">
<title>Node11&#45;&gt;Node12</title>
<path fill="none" stroke="midnightblue" d="M1069.11,-56.08C1073.87,-48.53 1080.82,-37.49 1086.65,-28.23"/>
<polygon fill="midnightblue" stroke="midnightblue" points="1089.62,-30.08 1091.99,-19.75 1083.7,-26.35 1089.62,-30.08"/>
</g>
<!-- Node15&#45;&gt;Node10 -->
<g id="edge23" class="edge">
<title>Node15&#45;&gt;Node10</title>
<path fill="none" stroke="midnightblue" d="M107.21,-168.39C98.92,-160.02 87.36,-146.48 82.5,-132 71.43,-98.99 74.88,-78.44 101.5,-56 138.45,-24.85 282,-15.08 349.73,-12.16"/>
<polygon fill="midnightblue" stroke="midnightblue" points="350.07,-15.65 359.93,-11.75 349.79,-8.66 350.07,-15.65"/>
</g>
<!-- Node15&#45;&gt;Node13 -->
<g id="edge24" class="edge">
<title>Node15&#45;&gt;Node13</title>
<path fill="none" stroke="midnightblue" d="M189.14,-174.14C247.71,-169.8 331.26,-158.98 399.5,-132 415.52,-125.67 453.02,-98.75 476.13,-81.61"/>
<polygon fill="midnightblue" stroke="midnightblue" points="478.28,-84.36 484.2,-75.57 474.09,-78.75 478.28,-84.36"/>
</g>
<!-- Node16 -->
<g id="node16" class="node">
<title>Node16</title>
<g id="a_node16"><a xlink:href="Font_8hpp.html" target="_top" xlink:title=" ">
<polygon fill="none" stroke="black" points="91.5,-112.5 91.5,-131.5 187.5,-131.5 187.5,-112.5 91.5,-112.5"/>
<text text-anchor="middle" x="139.5" y="-119.5" font-family="Helvetica,sans-Serif" font-size="10.00">../Models/Font.hpp</text>
</a>
</g>
</g>
<!-- Node15&#45;&gt;Node16 -->
<g id="edge19" class="edge">
<title>Node15&#45;&gt;Node16</title>
<path fill="none" stroke="midnightblue" d="M120.3,-168.08C123.41,-160.77 127.92,-150.18 131.79,-141.1"/>
<polygon fill="midnightblue" stroke="midnightblue" points="135.07,-142.32 135.77,-131.75 128.63,-139.58 135.07,-142.32"/>
</g>
<!-- Node15&#45;&gt;Node18 -->
<g id="edge22" class="edge">
<title>Node15&#45;&gt;Node18</title>
<path fill="none" stroke="midnightblue" d="M100.59,-168.32C84.86,-159.74 60.56,-146.49 42.29,-136.52"/>
<polygon fill="midnightblue" stroke="midnightblue" points="43.82,-133.37 33.37,-131.65 40.47,-139.52 43.82,-133.37"/>
</g>
<!-- Node16&#45;&gt;Node10 -->
<g id="edge21" class="edge">
<title>Node16&#45;&gt;Node10</title>
<path fill="none" stroke="midnightblue" d="M150.59,-112.3C168.43,-98.66 204.99,-72.15 239.5,-56 275.6,-39.11 319.63,-26.54 349.84,-19.04"/>
<polygon fill="midnightblue" stroke="midnightblue" points="351.02,-22.36 359.91,-16.6 349.37,-15.55 351.02,-22.36"/>
</g>
<!-- Node17 -->
<g id="node17" class="node">
<title>Node17</title>
<g id="a_node17"><a xlink:title=" ">
<polygon fill="none" stroke="#bfbfbf" points="110.5,-56.5 110.5,-75.5 168.5,-75.5 168.5,-56.5 110.5,-56.5"/>
<text text-anchor="middle" x="139.5" y="-63.5" font-family="Helvetica,sans-Serif" font-size="10.00">SDL_ttf.h</text>
</a>
</g>
</g>
<!-- Node16&#45;&gt;Node17 -->
<g id="edge20" class="edge">
<title>Node16&#45;&gt;Node17</title>
<path fill="none" stroke="midnightblue" d="M139.5,-112.08C139.5,-105.01 139.5,-94.86 139.5,-85.99"/>
<polygon fill="midnightblue" stroke="midnightblue" points="143,-85.75 139.5,-75.75 136,-85.75 143,-85.75"/>
</g>
<!-- Node19&#45;&gt;Node5 -->
<g id="edge30" class="edge">
<title>Node19&#45;&gt;Node5</title>
<path fill="none" stroke="midnightblue" d="M385.87,-168.44C420.56,-158.98 476.46,-143.74 513.83,-133.55"/>
<polygon fill="midnightblue" stroke="midnightblue" points="515.12,-136.82 523.84,-130.82 513.28,-130.07 515.12,-136.82"/>
</g>
<!-- Node19&#45;&gt;Node10 -->
<g id="edge32" class="edge">
<title>Node19&#45;&gt;Node10</title>
<path fill="none" stroke="midnightblue" d="M322.69,-168.38C304.55,-161.66 283.34,-150.31 272.5,-132 255.29,-102.93 253.54,-83.96 272.5,-56 289.66,-30.7 323.55,-19.62 349.76,-14.77"/>
<polygon fill="midnightblue" stroke="midnightblue" points="350.43,-18.21 359.74,-13.15 349.31,-11.3 350.43,-18.21"/>
</g>
<!-- Node19&#45;&gt;Node13 -->
<g id="edge33" class="edge">
<title>Node19&#45;&gt;Node13</title>
<path fill="none" stroke="midnightblue" d="M373.01,-168.39C389.65,-160.21 414.35,-146.97 433.5,-132 452.02,-117.53 470.22,-97.56 482.06,-83.59"/>
<polygon fill="midnightblue" stroke="midnightblue" points="484.86,-85.7 488.56,-75.77 479.48,-81.23 484.86,-85.7"/>
</g>
<!-- Node19&#45;&gt;Node18 -->
<g id="edge31" class="edge">
<title>Node19&#45;&gt;Node18</title>
<path fill="none" stroke="midnightblue" d="M301.1,-168.44C228.39,-156.79 100.92,-136.37 45.05,-127.41"/>
<polygon fill="midnightblue" stroke="midnightblue" points="45.6,-123.96 35.17,-125.83 44.49,-130.87 45.6,-123.96"/>
</g>
<!-- Node20 -->
<g id="node20" class="node">
<title>Node20</title>
<g id="a_node20"><a xlink:href="Texture_8hpp.html" target="_top" xlink:title=" ">
<polygon fill="none" stroke="black" points="282,-112.5 282,-131.5 391,-131.5 391,-112.5 282,-112.5"/>
<text text-anchor="middle" x="336.5" y="-119.5" font-family="Helvetica,sans-Serif" font-size="10.00">../Models/Texture.hpp</text>
</a>
</g>
</g>
<!-- Node19&#45;&gt;Node20 -->
<g id="edge26" class="edge">
<title>Node19&#45;&gt;Node20</title>
<path fill="none" stroke="midnightblue" d="M351.53,-168.08C349.12,-160.85 345.64,-150.41 342.63,-141.4"/>
<polygon fill="midnightblue" stroke="midnightblue" points="345.9,-140.13 339.42,-131.75 339.26,-142.34 345.9,-140.13"/>
</g>
<!-- Node20&#45;&gt;Node10 -->
<g id="edge28" class="edge">
<title>Node20&#45;&gt;Node10</title>
<path fill="none" stroke="midnightblue" d="M343.57,-112.18C350.27,-103.44 360.23,-89.45 366.5,-76 373.49,-61.01 378.53,-42.88 381.66,-29.58"/>
<polygon fill="midnightblue" stroke="midnightblue" points="385.1,-30.23 383.83,-19.71 378.26,-28.72 385.1,-30.23"/>
</g>
<!-- Node20&#45;&gt;Node13 -->
<g id="edge27" class="edge">
<title>Node20&#45;&gt;Node13</title>
<path fill="none" stroke="midnightblue" d="M361.69,-112.44C389.86,-102.88 435.44,-87.4 465.44,-77.21"/>
<polygon fill="midnightblue" stroke="midnightblue" points="466.63,-80.5 474.97,-73.97 464.38,-73.87 466.63,-80.5"/>
</g>
<!-- Node20&#45;&gt;Node21 -->
<g id="edge29" class="edge">
<title>Node20&#45;&gt;Node21</title>
<path fill="none" stroke="midnightblue" d="M333.69,-112.08C331.42,-104.85 328.13,-94.41 325.29,-85.4"/>
<polygon fill="midnightblue" stroke="midnightblue" points="328.6,-84.24 322.25,-75.75 321.92,-86.34 328.6,-84.24"/>
</g>
<!-- Node24 -->
<g id="node24" class="node">
<title>Node24</title>
<g id="a_node24"><a xlink:href="EngineConfig_8hpp.html" target="_top" xlink:title=" ">
<polygon fill="none" stroke="black" points="582,-168.5 582,-187.5 673,-187.5 673,-168.5 582,-168.5"/>
<text text-anchor="middle" x="627.5" y="-175.5" font-family="Helvetica,sans-Serif" font-size="10.00">EngineConfig.hpp</text>
</a>
</g>
</g>
<!-- Node23&#45;&gt;Node24 -->
<g id="edge37" class="edge">
<title>Node23&#45;&gt;Node24</title>
<path fill="none" stroke="midnightblue" d="M718.99,-224.32C701.43,-215.62 674.17,-202.12 653.97,-192.11"/>
<polygon fill="midnightblue" stroke="midnightblue" points="655.48,-188.96 644.97,-187.65 652.38,-195.23 655.48,-188.96"/>
</g>
<!-- Node26 -->
<g id="node26" class="node">
<title>Node26</title>
<g id="a_node26"><a xlink:href="Scene_8hpp.html" target="_top" xlink:title=" ">
<polygon fill="none" stroke="black" points="896.5,-112.5 896.5,-131.5 958.5,-131.5 958.5,-112.5 896.5,-112.5"/>
<text text-anchor="middle" x="927.5" y="-119.5" font-family="Helvetica,sans-Serif" font-size="10.00">Scene.hpp</text>
</a>
</g>
</g>
<!-- Node23&#45;&gt;Node26 -->
<g id="edge40" class="edge">
<title>Node23&#45;&gt;Node26</title>
<path fill="none" stroke="midnightblue" d="M766.89,-224.38C791.09,-216.79 825.3,-204.38 852.5,-188 875.42,-174.2 898.12,-153.23 912.44,-138.87"/>
<polygon fill="midnightblue" stroke="midnightblue" points="915,-141.25 919.48,-131.65 909.99,-136.36 915,-141.25"/>
</g>
<!-- Node25 -->
<g id="node25" class="node">
<title>Node25</title>
<g id="a_node25"><a xlink:href="WindowConfig_8hpp.html" target="_top" xlink:title=" ">
<polygon fill="none" stroke="black" points="599.5,-112.5 599.5,-131.5 695.5,-131.5 695.5,-112.5 599.5,-112.5"/>
<text text-anchor="middle" x="647.5" y="-119.5" font-family="Helvetica,sans-Serif" font-size="10.00">WindowConfig.hpp</text>
</a>
</g>
</g>
<!-- Node24&#45;&gt;Node25 -->
<g id="edge38" class="edge">
<title>Node24&#45;&gt;Node25</title>
<path fill="none" stroke="midnightblue" d="M630.8,-168.08C633.48,-160.85 637.35,-150.41 640.69,-141.4"/>
<polygon fill="midnightblue" stroke="midnightblue" points="644.07,-142.34 644.26,-131.75 637.5,-139.91 644.07,-142.34"/>
</g>
<!-- Node25&#45;&gt;Node13 -->
<g id="edge39" class="edge">
<title>Node25&#45;&gt;Node13</title>
<path fill="none" stroke="midnightblue" d="M623.42,-112.44C596.91,-103.03 554.26,-87.87 525.57,-77.68"/>
<polygon fill="midnightblue" stroke="midnightblue" points="526.65,-74.35 516.06,-74.3 524.31,-80.95 526.65,-74.35"/>
</g>
<!-- Node26&#45;&gt;Node10 -->
<g id="edge42" class="edge">
<title>Node26&#45;&gt;Node10</title>
<path fill="none" stroke="midnightblue" d="M918.42,-112.41C902.48,-97.9 867.79,-68.89 832.5,-56 757.01,-28.43 513.37,-16.08 421.24,-12.32"/>
<polygon fill="midnightblue" stroke="midnightblue" points="421.16,-8.81 411.03,-11.91 420.88,-15.81 421.16,-8.81"/>
</g>
<!-- Node26&#45;&gt;Node14 -->
<g id="edge41" class="edge">
<title>Node26&#45;&gt;Node14</title>
<path fill="none" stroke="midnightblue" d="M927.5,-112.08C927.5,-105.01 927.5,-94.86 927.5,-85.99"/>
<polygon fill="midnightblue" stroke="midnightblue" points="931,-85.75 927.5,-75.75 924,-85.75 931,-85.75"/>
</g>
<!-- Node27&#45;&gt;Node5 -->
<g id="edge46" class="edge">
<title>Node27&#45;&gt;Node5</title>
<path fill="none" stroke="midnightblue" d="M694.72,-168.44C666.17,-159.32 620.77,-144.81 588.96,-134.65"/>
<polygon fill="midnightblue" stroke="midnightblue" points="589.74,-131.23 579.15,-131.52 587.61,-137.89 589.74,-131.23"/>
</g>
<!-- Node27&#45;&gt;Node9 -->
<g id="edge45" class="edge">
<title>Node27&#45;&gt;Node9</title>
<path fill="none" stroke="midnightblue" d="M724.64,-168.37C731.12,-150.54 746.12,-109.3 754.86,-85.27"/>
<polygon fill="midnightblue" stroke="midnightblue" points="758.25,-86.19 758.38,-75.59 751.67,-83.79 758.25,-86.19"/>
</g>
<!-- Node27&#45;&gt;Node13 -->
<g id="edge47" class="edge">
<title>Node27&#45;&gt;Node13</title>
<path fill="none" stroke="midnightblue" d="M721.9,-168.44C722.05,-154.52 720.17,-127 704.5,-112 679.28,-87.86 578.27,-74.9 526.47,-69.72"/>
<polygon fill="midnightblue" stroke="midnightblue" points="526.5,-66.21 516.21,-68.73 525.83,-73.18 526.5,-66.21"/>
</g>
<!-- Node28&#45;&gt;Node5 -->
<g id="edge52" class="edge">
<title>Node28&#45;&gt;Node5</title>
<path fill="none" stroke="midnightblue" d="M937.44,-172.45C858.35,-166.28 719.61,-153.68 591.08,-131.88"/>
<polygon fill="midnightblue" stroke="midnightblue" points="591.5,-128.41 581.06,-130.16 590.32,-135.31 591.5,-128.41"/>
</g>
<!-- Node28&#45;&gt;Node12 -->
<g id="edge51" class="edge">
<title>Node28&#45;&gt;Node12</title>
<path fill="none" stroke="midnightblue" d="M1017.46,-168.42C1043.19,-153.56 1092.9,-120.32 1112.5,-76 1119.22,-60.81 1113.7,-42.23 1107.55,-28.84"/>
<polygon fill="midnightblue" stroke="midnightblue" points="1110.57,-27.06 1102.91,-19.74 1104.33,-30.24 1110.57,-27.06"/>
</g>
<!-- Node28&#45;&gt;Node14 -->
<g id="edge50" class="edge">
<title>Node28&#45;&gt;Node14</title>
<path fill="none" stroke="midnightblue" d="M997.73,-168.2C992.04,-155.34 980.52,-130.86 967.5,-112 960.46,-101.81 951.37,-91.41 943.63,-83.18"/>
<polygon fill="midnightblue" stroke="midnightblue" points="945.93,-80.53 936.47,-75.76 940.9,-85.39 945.93,-80.53"/>
</g>
</g>
</svg>
        <g id="navigator" transform="translate(0 0)" fill="#404254">
                <rect fill="#f2f5e9" fill-opacity="0.5" stroke="#606060" stroke-width=".5" x="0" y="0" width="60" height="60"/>
                <use id="zoomplus" xlink:href="#zoomPlus" x="17" y="9" onmousedown="handleZoom(evt,'in')"/>
                <use id="zoomminus" xlink:href="#zoomMin" x="42" y="9" onmousedown="handleZoom(evt,'out')"/>
                <use id="reset" xlink:href="#resetDef" x="30" y="36" onmousedown="handleReset()"/>
                <g id="arrowUp" xlink:href="#dirArrow" transform="translate(30 24)" onmousedown="handlePan(0,-1)">
                  <use xlink:href="#rim" fill="#404040">
                        <set attributeName="fill" to="#808080" begin="arrowUp.mouseover" end="arrowUp.mouseout"/>
                  </use>
                  <path fill="none" stroke="white" stroke-width="1.5" d="M0,-3.0v7 M-2.5,-0.5L0,-3.0L2.5,-0.5"/>
                </g>
                <g id="arrowRight" xlink:href="#dirArrow" transform="rotate(90) translate(36 -43)" onmousedown="handlePan(1,0)">
                  <use xlink:href="#rim" fill="#404040">
                        <set attributeName="fill" to="#808080" begin="arrowRight.mouseover" end="arrowRight.mouseout"/>
                  </use>
                  <path fill="none" stroke="white" stroke-width="1.5" d="M0,-3.0v7 M-2.5,-0.5L0,-3.0L2.5,-0.5"/>
                </g>
                <g id="arrowDown" xlink:href="#dirArrow" transform="rotate(180) translate(-30 -48)" onmousedown="handlePan(0,1)">
                  <use xlink:href="#rim" fill="#404040">
                        <set attributeName="fill" to="#808080" begin="arrowDown.mouseover" end="arrowDown.mouseout"/>
                  </use>
                  <path fill="none" stroke="white" stroke-width="1.5" d="M0,-3.0v7 M-2.5,-0.5L0,-3.0L2.5,-0.5"/>
                </g>
                <g id="arrowLeft" xlink:href="#dirArrow" transform="rotate(270) translate(-36 17)" onmousedown="handlePan(-1,0)">
                  <use xlink:href="#rim" fill="#404040">
                        <set attributeName="fill" to="#808080" begin="arrowLeft.mouseover" end="arrowLeft.mouseout"/>
                  </use>
                  <path fill="none" stroke="white" stroke-width="1.5" d="M0,-3.0v7 M-2.5,-0.5L0,-3.0L2.5,-0.5"/>
                </g>
        </g>
        <svg viewBox="0 0 15 15" width="100%" height="30px" preserveAspectRatio="xMaxYMin meet">
         <g id="arrow_out" transform="scale(0.3 0.3)">
          <a xlink:href="RenderSubsystem_8cpp__incl_org.svg" target="_base">
           <rect id="button" ry="5" rx="5" y="6" x="6" height="38" width="38"
                fill="#f2f5e9" fill-opacity="0.5" stroke="#606060" stroke-width="1.0"/>
           <path id="arrow"
             d="M 11.500037,31.436501 C 11.940474,20.09759 22.043105,11.32322 32.158766,21.979434 L 37.068811,17.246167 C 37.068811,17.246167 37.088388,32 37.088388,32 L 22.160133,31.978069 C 22.160133,31.978069 26.997745,27.140456 26.997745,27.140456 C 18.528582,18.264221 13.291696,25.230495 11.500037,31.436501 z"
             style="fill:#404040;"/>
          </a>
         </g>
        </svg>
</svg>
