<?xml version="1.0" encoding="UTF-8" standalone="no"?>
<!DOCTYPE svg PUBLIC "-//W3C//DTD SVG 1.1//EN"
 "http://www.w3.org/Graphics/SVG/1.1/DTD/svg11.dtd">
<!-- Generated by graphviz version 2.44.0 ()
 -->
<!-- Title: includes/spic&#45;api&#45;headers/RigidBody.hpp Pages: 1 -->
<svg width="513pt" height="218pt"
 viewBox="0.00 0.00 512.50 218.00" xmlns="http://www.w3.org/2000/svg" xmlns:xlink="http://www.w3.org/1999/xlink">
<g id="graph0" class="graph" transform="scale(1 1) rotate(0) translate(4 214)">
<title>includes/spic&#45;api&#45;headers/RigidBody.hpp</title>
<!-- Node1 -->
<g id="node1" class="node">
<title>Node1</title>
<g id="a_node1"><a xlink:title=" ">
<polygon fill="#bfbfbf" stroke="black" points="138.5,-179.5 138.5,-209.5 265.5,-209.5 265.5,-179.5 138.5,-179.5"/>
<text text-anchor="start" x="146.5" y="-197.5" font-family="Helvetica,sans-Serif" font-size="10.00">includes/spic&#45;api&#45;headers</text>
<text text-anchor="middle" x="202" y="-186.5" font-family="Helvetica,sans-Serif" font-size="10.00">/RigidBody.hpp</text>
</a>
</g>
</g>
<!-- Node2 -->
<g id="node2" class="node">
<title>Node2</title>
<g id="a_node2"><a xlink:href="RigidBody_8cpp.html" target="_top" xlink:title=" ">
<polygon fill="none" stroke="black" points="0,-118 0,-137 112,-137 112,-118 0,-118"/>
<text text-anchor="middle" x="56" y="-125" font-family="Helvetica,sans-Serif" font-size="10.00">src/Api/RigidBody.cpp</text>
</a>
</g>
</g>
<!-- Node1&#45;&gt;Node2 -->
<g id="edge1" class="edge">
<title>Node1&#45;&gt;Node2</title>
<path fill="none" stroke="midnightblue" d="M161.11,-175.3C132.95,-162.76 96.84,-146.68 75.11,-137.01"/>
<polygon fill="midnightblue" stroke="midnightblue" points="159.76,-178.53 170.32,-179.4 162.61,-172.13 159.76,-178.53"/>
</g>
<!-- Node3 -->
<g id="node3" class="node">
<title>Node3</title>
<g id="a_node3"><a xlink:href="PhysicsSubsystem_8cpp.html" target="_top" xlink:title=" ">
<polygon fill="none" stroke="black" points="44.5,-56.5 44.5,-75.5 235.5,-75.5 235.5,-56.5 44.5,-56.5"/>
<text text-anchor="middle" x="140" y="-63.5" font-family="Helvetica,sans-Serif" font-size="10.00">src/Subsystems/PhysicsSubsystem.cpp</text>
</a>
</g>
</g>
<!-- Node1&#45;&gt;Node3 -->
<g id="edge2" class="edge">
<title>Node1&#45;&gt;Node3</title>
<path fill="none" stroke="midnightblue" d="M179.77,-171.89C172.22,-163.49 164.35,-153.4 159,-143 147.43,-120.51 142.64,-90.58 140.89,-75.89"/>
<polygon fill="midnightblue" stroke="midnightblue" points="177.42,-174.49 186.82,-179.37 182.51,-169.69 177.42,-174.49"/>
</g>
<!-- Node4 -->
<g id="node4" class="node">
<title>Node4</title>
<g id="a_node4"><a xlink:href="PhysicsSubsystem_8hpp.html" target="_top" xlink:title=" ">
<polygon fill="none" stroke="black" points="168.5,-118 168.5,-137 359.5,-137 359.5,-118 168.5,-118"/>
<text text-anchor="middle" x="264" y="-125" font-family="Helvetica,sans-Serif" font-size="10.00">src/Subsystems/PhysicsSubsystem.hpp</text>
</a>
</g>
</g>
<!-- Node1&#45;&gt;Node4 -->
<g id="edge3" class="edge">
<title>Node1&#45;&gt;Node4</title>
<path fill="none" stroke="midnightblue" d="M222.51,-172C233.83,-160.13 247.26,-146.05 255.71,-137.19"/>
<polygon fill="midnightblue" stroke="midnightblue" points="219.82,-169.74 215.45,-179.4 224.89,-174.58 219.82,-169.74"/>
</g>
<!-- Node7 -->
<g id="node7" class="node">
<title>Node7</title>
<g id="a_node7"><a xlink:href="Api_8hpp.html" target="_top" xlink:title=" ">
<polygon fill="none" stroke="black" points="377.5,-112.5 377.5,-142.5 504.5,-142.5 504.5,-112.5 377.5,-112.5"/>
<text text-anchor="start" x="385.5" y="-130.5" font-family="Helvetica,sans-Serif" font-size="10.00">includes/spic&#45;api&#45;headers</text>
<text text-anchor="middle" x="441" y="-119.5" font-family="Helvetica,sans-Serif" font-size="10.00">/Api.hpp</text>
</a>
</g>
</g>
<!-- Node1&#45;&gt;Node7 -->
<g id="edge7" class="edge">
<title>Node1&#45;&gt;Node7</title>
<path fill="none" stroke="midnightblue" d="M263.22,-176.85C302.19,-166.25 352.1,-152.68 389.12,-142.61"/>
<polygon fill="midnightblue" stroke="midnightblue" points="262.3,-173.47 253.57,-179.48 264.13,-180.23 262.3,-173.47"/>
</g>
<!-- Node4&#45;&gt;Node3 -->
<g id="edge4" class="edge">
<title>Node4&#45;&gt;Node3</title>
<path fill="none" stroke="midnightblue" d="M236.95,-113.52C212.9,-101.98 178.44,-85.44 157.73,-75.51"/>
<polygon fill="midnightblue" stroke="midnightblue" points="235.7,-116.8 246.23,-117.98 238.73,-110.49 235.7,-116.8"/>
</g>
<!-- Node5 -->
<g id="node5" class="node">
<title>Node5</title>
<g id="a_node5"><a xlink:href="Subsystems_8hpp.html" target="_top" xlink:title=" ">
<polygon fill="none" stroke="black" points="254,-56.5 254,-75.5 416,-75.5 416,-56.5 254,-56.5"/>
<text text-anchor="middle" x="335" y="-63.5" font-family="Helvetica,sans-Serif" font-size="10.00">src/Subsystems/Subsystems.hpp</text>
</a>
</g>
</g>
<!-- Node4&#45;&gt;Node5 -->
<g id="edge5" class="edge">
<title>Node4&#45;&gt;Node5</title>
<path fill="none" stroke="midnightblue" d="M281.93,-111.47C295.51,-100.09 313.68,-84.87 324.85,-75.51"/>
<polygon fill="midnightblue" stroke="midnightblue" points="279.59,-108.87 274.17,-117.98 284.09,-114.23 279.59,-108.87"/>
</g>
<!-- Node6 -->
<g id="node6" class="node">
<title>Node6</title>
<g id="a_node6"><a xlink:href="Engine_8cpp.html" target="_top" xlink:title=" ">
<polygon fill="none" stroke="black" points="286,-0.5 286,-19.5 384,-19.5 384,-0.5 286,-0.5"/>
<text text-anchor="middle" x="335" y="-7.5" font-family="Helvetica,sans-Serif" font-size="10.00">src/Api/Engine.cpp</text>
</a>
</g>
</g>
<!-- Node5&#45;&gt;Node6 -->
<g id="edge6" class="edge">
<title>Node5&#45;&gt;Node6</title>
<path fill="none" stroke="midnightblue" d="M335,-45.8C335,-36.91 335,-26.78 335,-19.75"/>
<polygon fill="midnightblue" stroke="midnightblue" points="331.5,-46.08 335,-56.08 338.5,-46.08 331.5,-46.08"/>
</g>
</g>
</svg>
