<?xml version="1.0" encoding="UTF-8" standalone="no"?>
<!DOCTYPE svg PUBLIC "-//W3C//DTD SVG 1.1//EN"
 "http://www.w3.org/Graphics/SVG/1.1/DTD/svg11.dtd">
<!-- Generated by graphviz version 2.44.0 ()
 -->
<!-- Title: includes/spic&#45;api&#45;headers/Scene.hpp Pages: 1 -->
<svg width="1258pt" height="229pt"
 viewBox="0.00 0.00 1257.50 229.00" xmlns="http://www.w3.org/2000/svg" xmlns:xlink="http://www.w3.org/1999/xlink">
<g id="graph0" class="graph" transform="scale(1 1) rotate(0) translate(4 225)">
<title>includes/spic&#45;api&#45;headers/Scene.hpp</title>
<!-- Node1 -->
<g id="node1" class="node">
<title>Node1</title>
<g id="a_node1"><a xlink:title=" ">
<polygon fill="#bfbfbf" stroke="black" points="293.5,-190.5 293.5,-220.5 420.5,-220.5 420.5,-190.5 293.5,-190.5"/>
<text text-anchor="start" x="301.5" y="-208.5" font-family="Helvetica,sans-Serif" font-size="10.00">includes/spic&#45;api&#45;headers</text>
<text text-anchor="middle" x="357" y="-197.5" font-family="Helvetica,sans-Serif" font-size="10.00">/Scene.hpp</text>
</a>
</g>
</g>
<!-- Node2 -->
<g id="node2" class="node">
<title>Node2</title>
<g id="a_node2"><a xlink:href="Scene_8cpp.html" target="_top" xlink:title=" ">
<polygon fill="none" stroke="black" points="79,-129 79,-148 175,-148 175,-129 79,-129"/>
<text text-anchor="middle" x="127" y="-136" font-family="Helvetica,sans-Serif" font-size="10.00">src/Api/Scene.cpp</text>
</a>
</g>
</g>
<!-- Node1&#45;&gt;Node2 -->
<g id="edge1" class="edge">
<title>Node1&#45;&gt;Node2</title>
<path fill="none" stroke="midnightblue" d="M297.73,-187.75C252.75,-175.04 192.76,-158.09 157.18,-148.03"/>
<polygon fill="midnightblue" stroke="midnightblue" points="296.8,-191.12 307.38,-190.48 298.71,-184.39 296.8,-191.12"/>
</g>
<!-- Node3 -->
<g id="node3" class="node">
<title>Node3</title>
<g id="a_node3"><a xlink:href="AudioSubsystem_8hpp.html" target="_top" xlink:title=" ">
<polygon fill="none" stroke="black" points="193,-129 193,-148 375,-148 375,-129 193,-129"/>
<text text-anchor="middle" x="284" y="-136" font-family="Helvetica,sans-Serif" font-size="10.00">src/Subsystems/AudioSubsystem.hpp</text>
</a>
</g>
</g>
<!-- Node1&#45;&gt;Node3 -->
<g id="edge2" class="edge">
<title>Node1&#45;&gt;Node3</title>
<path fill="none" stroke="midnightblue" d="M333.61,-183.67C320.13,-171.67 303.9,-157.22 293.76,-148.19"/>
<polygon fill="midnightblue" stroke="midnightblue" points="331.36,-186.36 341.16,-190.4 336.02,-181.13 331.36,-186.36"/>
</g>
<!-- Node7 -->
<g id="node7" class="node">
<title>Node7</title>
<g id="a_node7"><a xlink:href="Api_8hpp.html" target="_top" xlink:title=" ">
<polygon fill="none" stroke="black" points="380.5,-56.5 380.5,-86.5 507.5,-86.5 507.5,-56.5 380.5,-56.5"/>
<text text-anchor="start" x="388.5" y="-74.5" font-family="Helvetica,sans-Serif" font-size="10.00">includes/spic&#45;api&#45;headers</text>
<text text-anchor="middle" x="444" y="-63.5" font-family="Helvetica,sans-Serif" font-size="10.00">/Api.hpp</text>
</a>
</g>
</g>
<!-- Node1&#45;&gt;Node7 -->
<g id="edge6" class="edge">
<title>Node1&#45;&gt;Node7</title>
<path fill="none" stroke="midnightblue" d="M371.94,-181.83C389.98,-154.47 419.76,-109.28 434.76,-86.52"/>
<polygon fill="midnightblue" stroke="midnightblue" points="368.89,-180.1 366.31,-190.37 374.74,-183.95 368.89,-180.1"/>
</g>
<!-- Node8 -->
<g id="node8" class="node">
<title>Node8</title>
<g id="a_node8"><a xlink:href="Engine_8hpp.html" target="_top" xlink:title=" ">
<polygon fill="none" stroke="black" points="617.5,-123.5 617.5,-153.5 744.5,-153.5 744.5,-123.5 617.5,-123.5"/>
<text text-anchor="start" x="625.5" y="-141.5" font-family="Helvetica,sans-Serif" font-size="10.00">includes/spic&#45;api&#45;headers</text>
<text text-anchor="middle" x="681" y="-130.5" font-family="Helvetica,sans-Serif" font-size="10.00">/Engine.hpp</text>
</a>
</g>
</g>
<!-- Node1&#45;&gt;Node8 -->
<g id="edge7" class="edge">
<title>Node1&#45;&gt;Node8</title>
<path fill="none" stroke="midnightblue" d="M430.53,-189.75C486.78,-178.46 563.57,-163.06 617.24,-152.29"/>
<polygon fill="midnightblue" stroke="midnightblue" points="429.74,-186.34 420.63,-191.74 431.12,-193.2 429.74,-186.34"/>
</g>
<!-- Node4 -->
<g id="node4" class="node">
<title>Node4</title>
<g id="a_node4"><a xlink:href="AudioSubsystem_8cpp.html" target="_top" xlink:title=" ">
<polygon fill="none" stroke="black" points="180,-62 180,-81 362,-81 362,-62 180,-62"/>
<text text-anchor="middle" x="271" y="-69" font-family="Helvetica,sans-Serif" font-size="10.00">src/Subsystems/AudioSubsystem.cpp</text>
</a>
</g>
</g>
<!-- Node3&#45;&gt;Node4 -->
<g id="edge3" class="edge">
<title>Node3&#45;&gt;Node4</title>
<path fill="none" stroke="midnightblue" d="M280.28,-118.91C277.8,-106.49 274.64,-90.72 272.73,-81.13"/>
<polygon fill="midnightblue" stroke="midnightblue" points="276.85,-119.61 282.25,-128.73 283.72,-118.24 276.85,-119.61"/>
</g>
<!-- Node5 -->
<g id="node5" class="node">
<title>Node5</title>
<g id="a_node5"><a xlink:href="Subsystems_8hpp.html" target="_top" xlink:title=" ">
<polygon fill="none" stroke="black" points="0,-62 0,-81 162,-81 162,-62 0,-62"/>
<text text-anchor="middle" x="81" y="-69" font-family="Helvetica,sans-Serif" font-size="10.00">src/Subsystems/Subsystems.hpp</text>
</a>
</g>
</g>
<!-- Node3&#45;&gt;Node5 -->
<g id="edge4" class="edge">
<title>Node3&#45;&gt;Node5</title>
<path fill="none" stroke="midnightblue" d="M247.35,-125.77C207.13,-112.89 143.53,-92.52 107.75,-81.06"/>
<polygon fill="midnightblue" stroke="midnightblue" points="246.45,-129.15 257.04,-128.87 248.59,-122.49 246.45,-129.15"/>
</g>
<!-- Node6 -->
<g id="node6" class="node">
<title>Node6</title>
<g id="a_node6"><a xlink:href="Engine_8cpp.html" target="_top" xlink:title=" ">
<polygon fill="none" stroke="black" points="362,-0.5 362,-19.5 460,-19.5 460,-0.5 362,-0.5"/>
<text text-anchor="middle" x="411" y="-7.5" font-family="Helvetica,sans-Serif" font-size="10.00">src/Api/Engine.cpp</text>
</a>
</g>
</g>
<!-- Node5&#45;&gt;Node6 -->
<g id="edge5" class="edge">
<title>Node5&#45;&gt;Node6</title>
<path fill="none" stroke="midnightblue" d="M138.19,-60.19C202.07,-48.67 304.3,-30.24 363.81,-19.51"/>
<polygon fill="midnightblue" stroke="midnightblue" points="137.5,-56.76 128.28,-61.98 138.74,-63.65 137.5,-56.76"/>
</g>
<!-- Node8&#45;&gt;Node4 -->
<g id="edge10" class="edge">
<title>Node8&#45;&gt;Node4</title>
<path fill="none" stroke="midnightblue" d="M607.22,-125.8C525.84,-112.9 396.89,-92.46 324.62,-81"/>
<polygon fill="midnightblue" stroke="midnightblue" points="606.96,-129.31 617.39,-127.42 608.06,-122.39 606.96,-129.31"/>
</g>
<!-- Node8&#45;&gt;Node6 -->
<g id="edge8" class="edge">
<title>Node8&#45;&gt;Node6</title>
<path fill="none" stroke="midnightblue" d="M705.26,-115.83C721.91,-98.36 738.45,-73.84 723,-56 689.59,-17.42 539.27,-11.17 460.11,-10.62"/>
<polygon fill="midnightblue" stroke="midnightblue" points="702.35,-113.79 697.71,-123.32 707.27,-118.76 702.35,-113.79"/>
</g>
<!-- Node8&#45;&gt;Node7 -->
<g id="edge14" class="edge">
<title>Node8&#45;&gt;Node7</title>
<path fill="none" stroke="midnightblue" d="M619.8,-120.71C581.23,-110.14 532,-96.63 495.45,-86.61"/>
<polygon fill="midnightblue" stroke="midnightblue" points="619.3,-124.21 629.87,-123.48 621.15,-117.46 619.3,-124.21"/>
</g>
<!-- Node9 -->
<g id="node9" class="node">
<title>Node9</title>
<g id="a_node9"><a xlink:href="GameObject_8cpp.html" target="_top" xlink:title=" ">
<polygon fill="none" stroke="black" points="770.5,-62 770.5,-81 893.5,-81 893.5,-62 770.5,-62"/>
<text text-anchor="middle" x="832" y="-69" font-family="Helvetica,sans-Serif" font-size="10.00">src/Api/GameObject.cpp</text>
</a>
</g>
</g>
<!-- Node8&#45;&gt;Node9 -->
<g id="edge9" class="edge">
<title>Node8&#45;&gt;Node9</title>
<path fill="none" stroke="midnightblue" d="M723.29,-119.3C752.41,-106.76 789.76,-90.68 812.24,-81.01"/>
<polygon fill="midnightblue" stroke="midnightblue" points="721.57,-116.23 713.76,-123.4 724.33,-122.66 721.57,-116.23"/>
</g>
<!-- Node10 -->
<g id="node10" class="node">
<title>Node10</title>
<g id="a_node10"><a xlink:href="FpsCounterSubsystem_8cpp.html" target="_top" xlink:title=" ">
<polygon fill="none" stroke="black" points="912,-56.5 912,-86.5 1052,-86.5 1052,-56.5 912,-56.5"/>
<text text-anchor="start" x="920" y="-74.5" font-family="Helvetica,sans-Serif" font-size="10.00">src/Subsystems/FpsCounter</text>
<text text-anchor="middle" x="982" y="-63.5" font-family="Helvetica,sans-Serif" font-size="10.00">Subsystem.cpp</text>
</a>
</g>
</g>
<!-- Node8&#45;&gt;Node10 -->
<g id="edge11" class="edge">
<title>Node8&#45;&gt;Node10</title>
<path fill="none" stroke="midnightblue" d="M754.86,-121.55C804.49,-110.83 869.28,-96.84 916.96,-86.55"/>
<polygon fill="midnightblue" stroke="midnightblue" points="753.87,-118.18 744.83,-123.72 755.35,-125.03 753.87,-118.18"/>
</g>
<!-- Node11 -->
<g id="node11" class="node">
<title>Node11</title>
<g id="a_node11"><a xlink:href="InputSubsystem_8cpp.html" target="_top" xlink:title=" ">
<polygon fill="none" stroke="black" points="1070.5,-62 1070.5,-81 1249.5,-81 1249.5,-62 1070.5,-62"/>
<text text-anchor="middle" x="1160" y="-69" font-family="Helvetica,sans-Serif" font-size="10.00">src/Subsystems/InputSubsystem.cpp</text>
</a>
</g>
</g>
<!-- Node8&#45;&gt;Node11 -->
<g id="edge12" class="edge">
<title>Node8&#45;&gt;Node11</title>
<path fill="none" stroke="midnightblue" d="M754.6,-128.01C831.18,-118.07 954.55,-101.87 1061,-87 1074.51,-85.11 1089.04,-83.02 1102.7,-81.03"/>
<polygon fill="midnightblue" stroke="midnightblue" points="754.04,-124.56 744.57,-129.31 754.94,-131.5 754.04,-124.56"/>
</g>
<!-- Node12 -->
<g id="node12" class="node">
<title>Node12</title>
<g id="a_node12"><a xlink:href="RenderSubsystem_8cpp.html" target="_top" xlink:title=" ">
<polygon fill="none" stroke="black" points="526,-62 526,-81 714,-81 714,-62 526,-62"/>
<text text-anchor="middle" x="620" y="-69" font-family="Helvetica,sans-Serif" font-size="10.00">src/Subsystems/RenderSubsystem.cpp</text>
</a>
</g>
</g>
<!-- Node8&#45;&gt;Node12 -->
<g id="edge13" class="edge">
<title>Node8&#45;&gt;Node12</title>
<path fill="none" stroke="midnightblue" d="M660.82,-116C649.69,-104.13 636.47,-90.05 628.16,-81.19"/>
<polygon fill="midnightblue" stroke="midnightblue" points="658.37,-118.5 667.76,-123.4 663.47,-113.71 658.37,-118.5"/>
</g>
</g>
</svg>
