<?xml version="1.0" encoding="UTF-8" standalone="no"?>
<!DOCTYPE svg PUBLIC "-//W3C//DTD SVG 1.1//EN"
 "http://www.w3.org/Graphics/SVG/1.1/DTD/svg11.dtd">
<!-- Generated by graphviz version 2.44.0 ()
 -->
<!-- Title: src/Exceptions/SDLMixerException.cpp Pages: 1 -->
<svg width="221pt" height="196pt"
 viewBox="0.00 0.00 221.00 196.00" xmlns="http://www.w3.org/2000/svg" xmlns:xlink="http://www.w3.org/1999/xlink">
<g id="graph0" class="graph" transform="scale(1 1) rotate(0) translate(4 192)">
<title>src/Exceptions/SDLMixerException.cpp</title>
<!-- Node1 -->
<g id="node1" class="node">
<title>Node1</title>
<g id="a_node1"><a xlink:title=" ">
<polygon fill="#bfbfbf" stroke="black" points="27,-168.5 27,-187.5 213,-187.5 213,-168.5 27,-168.5"/>
<text text-anchor="middle" x="120" y="-175.5" font-family="Helvetica,sans-Serif" font-size="10.00">src/Exceptions/SDLMixerException.cpp</text>
</a>
</g>
</g>
<!-- Node2 -->
<g id="node2" class="node">
<title>Node2</title>
<g id="a_node2"><a xlink:href="SDLMixerException_8hpp.html" target="_top" xlink:title=" ">
<polygon fill="none" stroke="black" points="3.5,-112.5 3.5,-131.5 122.5,-131.5 122.5,-112.5 3.5,-112.5"/>
<text text-anchor="middle" x="63" y="-119.5" font-family="Helvetica,sans-Serif" font-size="10.00">SDLMixerException.hpp</text>
</a>
</g>
</g>
<!-- Node1&#45;&gt;Node2 -->
<g id="edge1" class="edge">
<title>Node1&#45;&gt;Node2</title>
<path fill="none" stroke="midnightblue" d="M110.84,-168.32C102.5,-160.42 89.97,-148.55 79.82,-138.94"/>
<polygon fill="midnightblue" stroke="midnightblue" points="81.99,-136.17 72.32,-131.83 77.18,-141.25 81.99,-136.17"/>
</g>
<!-- Node6 -->
<g id="node6" class="node">
<title>Node6</title>
<g id="a_node6"><a xlink:title=" ">
<polygon fill="none" stroke="#bfbfbf" points="141,-112.5 141,-131.5 213,-131.5 213,-112.5 141,-112.5"/>
<text text-anchor="middle" x="177" y="-119.5" font-family="Helvetica,sans-Serif" font-size="10.00">SDL_mixer.h</text>
</a>
</g>
</g>
<!-- Node1&#45;&gt;Node6 -->
<g id="edge5" class="edge">
<title>Node1&#45;&gt;Node6</title>
<path fill="none" stroke="midnightblue" d="M129.16,-168.32C137.5,-160.42 150.03,-148.55 160.18,-138.94"/>
<polygon fill="midnightblue" stroke="midnightblue" points="162.82,-141.25 167.68,-131.83 158.01,-136.17 162.82,-141.25"/>
</g>
<!-- Node3 -->
<g id="node3" class="node">
<title>Node3</title>
<g id="a_node3"><a xlink:href="EngineException_8hpp.html" target="_top" xlink:title=" ">
<polygon fill="none" stroke="black" points="10,-56.5 10,-75.5 116,-75.5 116,-56.5 10,-56.5"/>
<text text-anchor="middle" x="63" y="-63.5" font-family="Helvetica,sans-Serif" font-size="10.00">EngineException.hpp</text>
</a>
</g>
</g>
<!-- Node2&#45;&gt;Node3 -->
<g id="edge2" class="edge">
<title>Node2&#45;&gt;Node3</title>
<path fill="none" stroke="midnightblue" d="M63,-112.08C63,-105.01 63,-94.86 63,-85.99"/>
<polygon fill="midnightblue" stroke="midnightblue" points="66.5,-85.75 63,-75.75 59.5,-85.75 66.5,-85.75"/>
</g>
<!-- Node4 -->
<g id="node4" class="node">
<title>Node4</title>
<g id="a_node4"><a xlink:title=" ">
<polygon fill="none" stroke="#bfbfbf" points="0,-0.5 0,-19.5 58,-19.5 58,-0.5 0,-0.5"/>
<text text-anchor="middle" x="29" y="-7.5" font-family="Helvetica,sans-Serif" font-size="10.00">exception</text>
</a>
</g>
</g>
<!-- Node3&#45;&gt;Node4 -->
<g id="edge3" class="edge">
<title>Node3&#45;&gt;Node4</title>
<path fill="none" stroke="midnightblue" d="M57.39,-56.08C52.63,-48.53 45.68,-37.49 39.85,-28.23"/>
<polygon fill="midnightblue" stroke="midnightblue" points="42.8,-26.35 34.51,-19.75 36.88,-30.08 42.8,-26.35"/>
</g>
<!-- Node5 -->
<g id="node5" class="node">
<title>Node5</title>
<g id="a_node5"><a xlink:title=" ">
<polygon fill="none" stroke="#bfbfbf" points="76.5,-0.5 76.5,-19.5 117.5,-19.5 117.5,-0.5 76.5,-0.5"/>
<text text-anchor="middle" x="97" y="-7.5" font-family="Helvetica,sans-Serif" font-size="10.00">string</text>
</a>
</g>
</g>
<!-- Node3&#45;&gt;Node5 -->
<g id="edge4" class="edge">
<title>Node3&#45;&gt;Node5</title>
<path fill="none" stroke="midnightblue" d="M68.61,-56.08C73.37,-48.53 80.32,-37.49 86.15,-28.23"/>
<polygon fill="midnightblue" stroke="midnightblue" points="89.12,-30.08 91.49,-19.75 83.2,-26.35 89.12,-30.08"/>
</g>
</g>
</svg>
