<?xml version="1.0" encoding="UTF-8" standalone="no"?>
<!DOCTYPE svg PUBLIC "-//W3C//DTD SVG 1.1//EN"
 "http://www.w3.org/Graphics/SVG/1.1/DTD/svg11.dtd">
<!-- Generated by graphviz version 2.44.0 ()
 -->
<!-- Title: src/Exceptions/SDLTTFException.hpp Pages: 1 -->
<svg width="189pt" height="140pt"
 viewBox="0.00 0.00 189.00 140.00" xmlns="http://www.w3.org/2000/svg" xmlns:xlink="http://www.w3.org/1999/xlink">
<g id="graph0" class="graph" transform="scale(1 1) rotate(0) translate(4 136)">
<title>src/Exceptions/SDLTTFException.hpp</title>
<!-- Node1 -->
<g id="node1" class="node">
<title>Node1</title>
<g id="a_node1"><a xlink:title=" ">
<polygon fill="#bfbfbf" stroke="black" points="0,-112.5 0,-131.5 181,-131.5 181,-112.5 0,-112.5"/>
<text text-anchor="middle" x="90.5" y="-119.5" font-family="Helvetica,sans-Serif" font-size="10.00">src/Exceptions/SDLTTFException.hpp</text>
</a>
</g>
</g>
<!-- Node2 -->
<g id="node2" class="node">
<title>Node2</title>
<g id="a_node2"><a xlink:href="EngineException_8hpp.html" target="_top" xlink:title=" ">
<polygon fill="none" stroke="black" points="37.5,-56.5 37.5,-75.5 143.5,-75.5 143.5,-56.5 37.5,-56.5"/>
<text text-anchor="middle" x="90.5" y="-63.5" font-family="Helvetica,sans-Serif" font-size="10.00">EngineException.hpp</text>
</a>
</g>
</g>
<!-- Node1&#45;&gt;Node2 -->
<g id="edge1" class="edge">
<title>Node1&#45;&gt;Node2</title>
<path fill="none" stroke="midnightblue" d="M90.5,-112.08C90.5,-105.01 90.5,-94.86 90.5,-85.99"/>
<polygon fill="midnightblue" stroke="midnightblue" points="94,-85.75 90.5,-75.75 87,-85.75 94,-85.75"/>
</g>
<!-- Node3 -->
<g id="node3" class="node">
<title>Node3</title>
<g id="a_node3"><a xlink:title=" ">
<polygon fill="none" stroke="#bfbfbf" points="27.5,-0.5 27.5,-19.5 85.5,-19.5 85.5,-0.5 27.5,-0.5"/>
<text text-anchor="middle" x="56.5" y="-7.5" font-family="Helvetica,sans-Serif" font-size="10.00">exception</text>
</a>
</g>
</g>
<!-- Node2&#45;&gt;Node3 -->
<g id="edge2" class="edge">
<title>Node2&#45;&gt;Node3</title>
<path fill="none" stroke="midnightblue" d="M84.89,-56.08C80.13,-48.53 73.18,-37.49 67.35,-28.23"/>
<polygon fill="midnightblue" stroke="midnightblue" points="70.3,-26.35 62.01,-19.75 64.38,-30.08 70.3,-26.35"/>
</g>
<!-- Node4 -->
<g id="node4" class="node">
<title>Node4</title>
<g id="a_node4"><a xlink:title=" ">
<polygon fill="none" stroke="#bfbfbf" points="104,-0.5 104,-19.5 145,-19.5 145,-0.5 104,-0.5"/>
<text text-anchor="middle" x="124.5" y="-7.5" font-family="Helvetica,sans-Serif" font-size="10.00">string</text>
</a>
</g>
</g>
<!-- Node2&#45;&gt;Node4 -->
<g id="edge3" class="edge">
<title>Node2&#45;&gt;Node4</title>
<path fill="none" stroke="midnightblue" d="M96.11,-56.08C100.87,-48.53 107.82,-37.49 113.65,-28.23"/>
<polygon fill="midnightblue" stroke="midnightblue" points="116.62,-30.08 118.99,-19.75 110.7,-26.35 116.62,-30.08"/>
</g>
</g>
</svg>
