<?xml version="1.0" encoding="UTF-8" standalone="no"?>
<!DOCTYPE svg PUBLIC "-//W3C//DTD SVG 1.1//EN"
 "http://www.w3.org/Graphics/SVG/1.1/DTD/svg11.dtd">
<!-- Generated by graphviz version 2.44.0 ()
 -->
<!-- Title: includes/spic&#45;api&#45;headers/Sprite.hpp Pages: 1 -->
<svg width="612pt" height="173pt"
 viewBox="0.00 0.00 611.50 173.00" xmlns="http://www.w3.org/2000/svg" xmlns:xlink="http://www.w3.org/1999/xlink">
<g id="graph0" class="graph" transform="scale(1 1) rotate(0) translate(4 169)">
<title>includes/spic&#45;api&#45;headers/Sprite.hpp</title>
<!-- Node1 -->
<g id="node1" class="node">
<title>Node1</title>
<g id="a_node1"><a xlink:title=" ">
<polygon fill="#bfbfbf" stroke="black" points="230.5,-134.5 230.5,-164.5 357.5,-164.5 357.5,-134.5 230.5,-134.5"/>
<text text-anchor="start" x="238.5" y="-152.5" font-family="Helvetica,sans-Serif" font-size="10.00">includes/spic&#45;api&#45;headers</text>
<text text-anchor="middle" x="294" y="-141.5" font-family="Helvetica,sans-Serif" font-size="10.00">/Sprite.hpp</text>
</a>
</g>
</g>
<!-- Node2 -->
<g id="node2" class="node">
<title>Node2</title>
<g id="a_node2"><a xlink:href="Sprite_8cpp.html" target="_top" xlink:title=" ">
<polygon fill="none" stroke="black" points="0,-73 0,-92 94,-92 94,-73 0,-73"/>
<text text-anchor="middle" x="47" y="-80" font-family="Helvetica,sans-Serif" font-size="10.00">src/Api/Sprite.cpp</text>
</a>
</g>
</g>
<!-- Node1&#45;&gt;Node2 -->
<g id="edge1" class="edge">
<title>Node1&#45;&gt;Node2</title>
<path fill="none" stroke="midnightblue" d="M230.96,-131.91C182.59,-119.18 117.78,-102.13 79.41,-92.03"/>
<polygon fill="midnightblue" stroke="midnightblue" points="230.15,-135.32 240.71,-134.48 231.93,-128.55 230.15,-135.32"/>
</g>
<!-- Node3 -->
<g id="node3" class="node">
<title>Node3</title>
<g id="a_node3"><a xlink:href="RenderSubsystem_8cpp.html" target="_top" xlink:title=" ">
<polygon fill="none" stroke="black" points="112,-73 112,-92 300,-92 300,-73 112,-73"/>
<text text-anchor="middle" x="206" y="-80" font-family="Helvetica,sans-Serif" font-size="10.00">src/Subsystems/RenderSubsystem.cpp</text>
</a>
</g>
</g>
<!-- Node1&#45;&gt;Node3 -->
<g id="edge2" class="edge">
<title>Node1&#45;&gt;Node3</title>
<path fill="none" stroke="midnightblue" d="M266.66,-128.31C250.14,-116.1 229.93,-101.18 217.52,-92.01"/>
<polygon fill="midnightblue" stroke="midnightblue" points="264.78,-131.27 274.91,-134.4 268.94,-125.64 264.78,-131.27"/>
</g>
<!-- Node4 -->
<g id="node4" class="node">
<title>Node4</title>
<g id="a_node4"><a xlink:href="Animator_8hpp.html" target="_top" xlink:title=" ">
<polygon fill="none" stroke="black" points="318.5,-67.5 318.5,-97.5 445.5,-97.5 445.5,-67.5 318.5,-67.5"/>
<text text-anchor="start" x="326.5" y="-85.5" font-family="Helvetica,sans-Serif" font-size="10.00">includes/spic&#45;api&#45;headers</text>
<text text-anchor="middle" x="382" y="-74.5" font-family="Helvetica,sans-Serif" font-size="10.00">/Animator.hpp</text>
</a>
</g>
</g>
<!-- Node1&#45;&gt;Node4 -->
<g id="edge3" class="edge">
<title>Node1&#45;&gt;Node4</title>
<path fill="none" stroke="midnightblue" d="M321.14,-128.45C334.68,-118.45 350.73,-106.6 362.94,-97.58"/>
<polygon fill="midnightblue" stroke="midnightblue" points="319.06,-125.64 313.09,-134.4 323.22,-131.27 319.06,-125.64"/>
</g>
<!-- Node7 -->
<g id="node7" class="node">
<title>Node7</title>
<g id="a_node7"><a xlink:href="Api_8hpp.html" target="_top" xlink:title=" ">
<polygon fill="none" stroke="black" points="476.5,-0.5 476.5,-30.5 603.5,-30.5 603.5,-0.5 476.5,-0.5"/>
<text text-anchor="start" x="484.5" y="-18.5" font-family="Helvetica,sans-Serif" font-size="10.00">includes/spic&#45;api&#45;headers</text>
<text text-anchor="middle" x="540" y="-7.5" font-family="Helvetica,sans-Serif" font-size="10.00">/Api.hpp</text>
</a>
</g>
</g>
<!-- Node1&#45;&gt;Node7 -->
<g id="edge7" class="edge">
<title>Node1&#45;&gt;Node7</title>
<path fill="none" stroke="midnightblue" d="M367.52,-133.09C396.08,-125.18 428.27,-113.81 455,-98 485.62,-79.89 513.88,-48.75 528.85,-30.65"/>
<polygon fill="midnightblue" stroke="midnightblue" points="366.35,-129.78 357.59,-135.74 368.15,-136.54 366.35,-129.78"/>
</g>
<!-- Node5 -->
<g id="node5" class="node">
<title>Node5</title>
<g id="a_node5"><a xlink:href="Animator_8cpp.html" target="_top" xlink:title=" ">
<polygon fill="none" stroke="black" points="137.5,-6 137.5,-25 244.5,-25 244.5,-6 137.5,-6"/>
<text text-anchor="middle" x="191" y="-13" font-family="Helvetica,sans-Serif" font-size="10.00">src/Api/Animator.cpp</text>
</a>
</g>
</g>
<!-- Node4&#45;&gt;Node5 -->
<g id="edge4" class="edge">
<title>Node4&#45;&gt;Node5</title>
<path fill="none" stroke="midnightblue" d="M330.89,-64.11C293.74,-51.46 245.05,-34.89 216,-25.01"/>
<polygon fill="midnightblue" stroke="midnightblue" points="329.96,-67.49 340.56,-67.4 332.22,-60.86 329.96,-67.49"/>
</g>
<!-- Node6 -->
<g id="node6" class="node">
<title>Node6</title>
<g id="a_node6"><a xlink:href="AnimatorSubsystem_8cpp.html" target="_top" xlink:title=" ">
<polygon fill="none" stroke="black" points="262,-6 262,-25 458,-25 458,-6 262,-6"/>
<text text-anchor="middle" x="360" y="-13" font-family="Helvetica,sans-Serif" font-size="10.00">src/Subsystems/AnimatorSubsystem.cpp</text>
</a>
</g>
</g>
<!-- Node4&#45;&gt;Node6 -->
<g id="edge5" class="edge">
<title>Node4&#45;&gt;Node6</title>
<path fill="none" stroke="midnightblue" d="M373.91,-57.6C370.08,-46.28 365.74,-33.46 362.94,-25.19"/>
<polygon fill="midnightblue" stroke="midnightblue" points="370.71,-59.05 377.23,-67.4 377.34,-56.8 370.71,-59.05"/>
</g>
<!-- Node4&#45;&gt;Node7 -->
<g id="edge6" class="edge">
<title>Node4&#45;&gt;Node7</title>
<path fill="none" stroke="midnightblue" d="M425.65,-63.54C450.93,-53.14 482.3,-40.24 505.78,-30.58"/>
<polygon fill="midnightblue" stroke="midnightblue" points="424.2,-60.35 416.28,-67.4 426.86,-66.83 424.2,-60.35"/>
</g>
</g>
</svg>
