<?xml version="1.0" encoding="UTF-8" standalone="no"?>
<!DOCTYPE svg PUBLIC "-//W3C//DTD SVG 1.1//EN"
 "http://www.w3.org/Graphics/SVG/1.1/DTD/svg11.dtd">
<!-- Generated by graphviz version 2.44.0 ()
 -->
<!-- Title: src/Subsystems/Subsystems.hpp Pages: 1 -->
<svg width="1326pt" height="420pt"
 viewBox="0.00 0.00 1325.50 420.00" xmlns="http://www.w3.org/2000/svg" xmlns:xlink="http://www.w3.org/1999/xlink">
<g id="graph0" class="graph" transform="scale(1 1) rotate(0) translate(4 416)">
<title>src/Subsystems/Subsystems.hpp</title>
<!-- Node1 -->
<g id="node1" class="node">
<title>Node1</title>
<g id="a_node1"><a xlink:title=" ">
<polygon fill="#bfbfbf" stroke="black" points="434.5,-392.5 434.5,-411.5 596.5,-411.5 596.5,-392.5 434.5,-392.5"/>
<text text-anchor="middle" x="515.5" y="-399.5" font-family="Helvetica,sans-Serif" font-size="10.00">src/Subsystems/Subsystems.hpp</text>
</a>
</g>
</g>
<!-- Node2 -->
<g id="node2" class="node">
<title>Node2</title>
<g id="a_node2"><a xlink:href="ISubsystem_8hpp.html" target="_top" xlink:title=" ">
<polygon fill="none" stroke="black" points="472.5,-280.5 472.5,-299.5 558.5,-299.5 558.5,-280.5 472.5,-280.5"/>
<text text-anchor="middle" x="515.5" y="-287.5" font-family="Helvetica,sans-Serif" font-size="10.00">ISubsystem.hpp</text>
</a>
</g>
</g>
<!-- Node1&#45;&gt;Node2 -->
<g id="edge1" class="edge">
<title>Node1&#45;&gt;Node2</title>
<path fill="none" stroke="midnightblue" d="M434.39,-399.74C297.55,-396.76 32.9,-387.01 4.5,-356 -1.5,-349.44 -1.5,-342.56 4.5,-336 35,-302.7 337.86,-293.92 462.42,-291.71"/>
<polygon fill="midnightblue" stroke="midnightblue" points="462.55,-295.21 472.49,-291.54 462.43,-288.21 462.55,-295.21"/>
</g>
<!-- Node3 -->
<g id="node3" class="node">
<title>Node3</title>
<g id="a_node3"><a xlink:href="AnimatorSubsystem_8hpp.html" target="_top" xlink:title=" ">
<polygon fill="none" stroke="black" points="13.5,-336.5 13.5,-355.5 135.5,-355.5 135.5,-336.5 13.5,-336.5"/>
<text text-anchor="middle" x="74.5" y="-343.5" font-family="Helvetica,sans-Serif" font-size="10.00">AnimatorSubsystem.hpp</text>
</a>
</g>
</g>
<!-- Node1&#45;&gt;Node3 -->
<g id="edge2" class="edge">
<title>Node1&#45;&gt;Node3</title>
<path fill="none" stroke="midnightblue" d="M444.01,-392.48C371.48,-383.81 255.67,-369.86 145.54,-356.12"/>
<polygon fill="midnightblue" stroke="midnightblue" points="145.94,-352.65 135.58,-354.88 145.07,-359.59 145.94,-352.65"/>
</g>
<!-- Node4 -->
<g id="node4" class="node">
<title>Node4</title>
<g id="a_node4"><a xlink:href="BehaviourScriptSubsystem_8hpp.html" target="_top" xlink:title=" ">
<polygon fill="none" stroke="black" points="153.5,-336.5 153.5,-355.5 305.5,-355.5 305.5,-336.5 153.5,-336.5"/>
<text text-anchor="middle" x="229.5" y="-343.5" font-family="Helvetica,sans-Serif" font-size="10.00">BehaviourScriptSubsystem.hpp</text>
</a>
</g>
</g>
<!-- Node1&#45;&gt;Node4 -->
<g id="edge4" class="edge">
<title>Node1&#45;&gt;Node4</title>
<path fill="none" stroke="midnightblue" d="M470.18,-392.44C419.87,-382.94 338.66,-367.61 284.69,-357.42"/>
<polygon fill="midnightblue" stroke="midnightblue" points="285.08,-353.93 274.61,-355.52 283.79,-360.81 285.08,-353.93"/>
</g>
<!-- Node5 -->
<g id="node5" class="node">
<title>Node5</title>
<g id="a_node5"><a xlink:href="InputSubsystem_8hpp.html" target="_top" xlink:title=" ">
<polygon fill="none" stroke="black" points="324,-336.5 324,-355.5 429,-355.5 429,-336.5 324,-336.5"/>
<text text-anchor="middle" x="376.5" y="-343.5" font-family="Helvetica,sans-Serif" font-size="10.00">InputSubsystem.hpp</text>
</a>
</g>
</g>
<!-- Node1&#45;&gt;Node5 -->
<g id="edge6" class="edge">
<title>Node1&#45;&gt;Node5</title>
<path fill="none" stroke="midnightblue" d="M493.48,-392.44C470.4,-383.48 433.94,-369.31 407.86,-359.18"/>
<polygon fill="midnightblue" stroke="midnightblue" points="409.01,-355.88 398.42,-355.52 406.48,-362.4 409.01,-355.88"/>
</g>
<!-- Node6 -->
<g id="node6" class="node">
<title>Node6</title>
<g id="a_node6"><a xlink:href="RenderSubsystem_8hpp.html" target="_top" xlink:title=" ">
<polygon fill="none" stroke="black" points="880.5,-336.5 880.5,-355.5 994.5,-355.5 994.5,-336.5 880.5,-336.5"/>
<text text-anchor="middle" x="937.5" y="-343.5" font-family="Helvetica,sans-Serif" font-size="10.00">RenderSubsystem.hpp</text>
</a>
</g>
</g>
<!-- Node1&#45;&gt;Node6 -->
<g id="edge8" class="edge">
<title>Node1&#45;&gt;Node6</title>
<path fill="none" stroke="midnightblue" d="M584.44,-392.49C653.93,-383.86 764.57,-370.01 870.08,-356.18"/>
<polygon fill="midnightblue" stroke="midnightblue" points="870.81,-359.61 880.27,-354.84 869.9,-352.67 870.81,-359.61"/>
</g>
<!-- Node26 -->
<g id="node26" class="node">
<title>Node26</title>
<g id="a_node26"><a xlink:href="PhysicsSubsystem_8hpp.html" target="_top" xlink:title=" ">
<polygon fill="none" stroke="black" points="1062.5,-336.5 1062.5,-355.5 1180.5,-355.5 1180.5,-336.5 1062.5,-336.5"/>
<text text-anchor="middle" x="1121.5" y="-343.5" font-family="Helvetica,sans-Serif" font-size="10.00">PhysicsSubsystem.hpp</text>
</a>
</g>
</g>
<!-- Node1&#45;&gt;Node26 -->
<g id="edge42" class="edge">
<title>Node1&#45;&gt;Node26</title>
<path fill="none" stroke="midnightblue" d="M596.6,-393.77C716.54,-383.09 939.17,-363.25 1052.04,-353.19"/>
<polygon fill="midnightblue" stroke="midnightblue" points="1052.63,-356.65 1062.28,-352.28 1052.01,-349.68 1052.63,-356.65"/>
</g>
<!-- Node32 -->
<g id="node32" class="node">
<title>Node32</title>
<g id="a_node32"><a xlink:href="FpsCounterSubsystem_8hpp.html" target="_top" xlink:title=" ">
<polygon fill="none" stroke="black" points="728.5,-336.5 728.5,-355.5 862.5,-355.5 862.5,-336.5 728.5,-336.5"/>
<text text-anchor="middle" x="795.5" y="-343.5" font-family="Helvetica,sans-Serif" font-size="10.00">FpsCounterSubsystem.hpp</text>
</a>
</g>
</g>
<!-- Node1&#45;&gt;Node32 -->
<g id="edge60" class="edge">
<title>Node1&#45;&gt;Node32</title>
<path fill="none" stroke="midnightblue" d="M559.87,-392.44C609.12,-382.94 688.63,-367.61 741.47,-357.42"/>
<polygon fill="midnightblue" stroke="midnightblue" points="742.19,-360.85 751.34,-355.52 740.86,-353.97 742.19,-360.85"/>
</g>
<!-- Node33 -->
<g id="node33" class="node">
<title>Node33</title>
<g id="a_node33"><a xlink:href="GameSpeedSubsystem_8hpp.html" target="_top" xlink:title=" ">
<polygon fill="none" stroke="black" points="447,-336.5 447,-355.5 584,-355.5 584,-336.5 447,-336.5"/>
<text text-anchor="middle" x="515.5" y="-343.5" font-family="Helvetica,sans-Serif" font-size="10.00">GameSpeedSubsystem.hpp</text>
</a>
</g>
</g>
<!-- Node1&#45;&gt;Node33 -->
<g id="edge63" class="edge">
<title>Node1&#45;&gt;Node33</title>
<path fill="none" stroke="midnightblue" d="M515.5,-392.08C515.5,-385.01 515.5,-374.86 515.5,-365.99"/>
<polygon fill="midnightblue" stroke="midnightblue" points="519,-365.75 515.5,-355.75 512,-365.75 519,-365.75"/>
</g>
<!-- Node34 -->
<g id="node34" class="node">
<title>Node34</title>
<g id="a_node34"><a xlink:href="AudioSubsystem_8hpp.html" target="_top" xlink:title=" ">
<polygon fill="none" stroke="black" points="602.5,-336.5 602.5,-355.5 710.5,-355.5 710.5,-336.5 602.5,-336.5"/>
<text text-anchor="middle" x="656.5" y="-343.5" font-family="Helvetica,sans-Serif" font-size="10.00">AudioSubsystem.hpp</text>
</a>
</g>
</g>
<!-- Node1&#45;&gt;Node34 -->
<g id="edge65" class="edge">
<title>Node1&#45;&gt;Node34</title>
<path fill="none" stroke="midnightblue" d="M537.84,-392.44C561.26,-383.48 598.24,-369.31 624.69,-359.18"/>
<polygon fill="midnightblue" stroke="midnightblue" points="626.18,-362.36 634.27,-355.52 623.67,-355.82 626.18,-362.36"/>
</g>
<!-- Node3&#45;&gt;Node2 -->
<g id="edge3" class="edge">
<title>Node3&#45;&gt;Node2</title>
<path fill="none" stroke="midnightblue" d="M135.58,-337.12C138.6,-336.74 141.58,-336.36 144.5,-336 257.56,-321.88 390.09,-305.95 462.18,-297.35"/>
<polygon fill="midnightblue" stroke="midnightblue" points="462.85,-300.79 472.36,-296.13 462.02,-293.84 462.85,-300.79"/>
</g>
<!-- Node4&#45;&gt;Node2 -->
<g id="edge5" class="edge">
<title>Node4&#45;&gt;Node2</title>
<path fill="none" stroke="midnightblue" d="M274.82,-336.44C325.72,-326.83 408.26,-311.25 462.21,-301.06"/>
<polygon fill="midnightblue" stroke="midnightblue" points="463.09,-304.46 472.27,-299.16 461.79,-297.58 463.09,-304.46"/>
</g>
<!-- Node5&#45;&gt;Node2 -->
<g id="edge7" class="edge">
<title>Node5&#45;&gt;Node2</title>
<path fill="none" stroke="midnightblue" d="M398.53,-336.44C421.61,-327.48 458.06,-313.31 484.14,-303.18"/>
<polygon fill="midnightblue" stroke="midnightblue" points="485.53,-306.4 493.58,-299.52 482.99,-299.88 485.53,-306.4"/>
</g>
<!-- Node6&#45;&gt;Node2 -->
<g id="edge9" class="edge">
<title>Node6&#45;&gt;Node2</title>
<path fill="none" stroke="midnightblue" d="M880.27,-337.16C877.31,-336.76 874.37,-336.38 871.5,-336 744.48,-319.34 712.59,-316.17 585.5,-300 580.11,-299.31 574.48,-298.6 568.86,-297.88"/>
<polygon fill="midnightblue" stroke="midnightblue" points="569.18,-294.39 558.82,-296.59 568.29,-301.33 569.18,-294.39"/>
</g>
<!-- Node7 -->
<g id="node7" class="node">
<title>Node7</title>
<g id="a_node7"><a xlink:href="Window_8hpp.html" target="_top" xlink:title=" ">
<polygon fill="none" stroke="black" points="595,-280.5 595,-299.5 706,-299.5 706,-280.5 595,-280.5"/>
<text text-anchor="middle" x="650.5" y="-287.5" font-family="Helvetica,sans-Serif" font-size="10.00">../Models/Window.hpp</text>
</a>
</g>
</g>
<!-- Node6&#45;&gt;Node7 -->
<g id="edge10" class="edge">
<title>Node6&#45;&gt;Node7</title>
<path fill="none" stroke="midnightblue" d="M892.03,-336.44C841.54,-326.94 760.05,-311.61 705.88,-301.42"/>
<polygon fill="midnightblue" stroke="midnightblue" points="706.24,-297.93 695.77,-299.52 704.95,-304.81 706.24,-297.93"/>
</g>
<!-- Node8 -->
<g id="node8" class="node">
<title>Node8</title>
<g id="a_node8"><a xlink:href="Color_8hpp.html" target="_top" xlink:title=" ">
<polygon fill="none" stroke="black" points="240,-168.5 240,-187.5 297,-187.5 297,-168.5 240,-168.5"/>
<text text-anchor="middle" x="268.5" y="-175.5" font-family="Helvetica,sans-Serif" font-size="10.00">Color.hpp</text>
</a>
</g>
</g>
<!-- Node7&#45;&gt;Node8 -->
<g id="edge11" class="edge">
<title>Node7&#45;&gt;Node8</title>
<path fill="none" stroke="midnightblue" d="M622.11,-280.44C595.66,-272.15 555.33,-258.7 521.5,-244 504,-236.39 501.46,-230.46 483.5,-224 483.37,-223.95 368.61,-199.94 306.83,-187.02"/>
<polygon fill="midnightblue" stroke="midnightblue" points="307.54,-183.59 297.03,-184.97 306.1,-190.44 307.54,-183.59"/>
</g>
<!-- Node9 -->
<g id="node9" class="node">
<title>Node9</title>
<g id="a_node9"><a xlink:href="Text_8hpp.html" target="_top" xlink:title=" ">
<polygon fill="none" stroke="black" points="531,-224.5 531,-243.5 584,-243.5 584,-224.5 531,-224.5"/>
<text text-anchor="middle" x="557.5" y="-231.5" font-family="Helvetica,sans-Serif" font-size="10.00">Text.hpp</text>
</a>
</g>
</g>
<!-- Node7&#45;&gt;Node9 -->
<g id="edge12" class="edge">
<title>Node7&#45;&gt;Node9</title>
<path fill="none" stroke="midnightblue" d="M635.56,-280.32C620.92,-271.82 598.37,-258.73 581.26,-248.8"/>
<polygon fill="midnightblue" stroke="midnightblue" points="582.81,-245.65 572.41,-243.65 579.3,-251.7 582.81,-245.65"/>
</g>
<!-- Node14 -->
<g id="node14" class="node">
<title>Node14</title>
<g id="a_node14"><a xlink:href="Transform_8hpp.html" target="_top" xlink:title=" ">
<polygon fill="none" stroke="black" points="848,-56.5 848,-75.5 927,-75.5 927,-56.5 848,-56.5"/>
<text text-anchor="middle" x="887.5" y="-63.5" font-family="Helvetica,sans-Serif" font-size="10.00">Transform.hpp</text>
</a>
</g>
</g>
<!-- Node7&#45;&gt;Node14 -->
<g id="edge24" class="edge">
<title>Node7&#45;&gt;Node14</title>
<path fill="none" stroke="midnightblue" d="M686.75,-280.47C732.11,-267.93 809.1,-240.13 852.5,-188 877.26,-158.27 884.51,-111.85 886.63,-86"/>
<polygon fill="midnightblue" stroke="midnightblue" points="890.15,-85.91 887.29,-75.71 883.16,-85.46 890.15,-85.91"/>
</g>
<!-- Node18 -->
<g id="node18" class="node">
<title>Node18</title>
<g id="a_node18"><a xlink:href="FontManager_8hpp.html" target="_top" xlink:title=" ">
<polygon fill="none" stroke="black" points="354,-168.5 354,-187.5 499,-187.5 499,-168.5 354,-168.5"/>
<text text-anchor="middle" x="426.5" y="-175.5" font-family="Helvetica,sans-Serif" font-size="10.00">../Managers/FontManager.hpp</text>
</a>
</g>
</g>
<!-- Node7&#45;&gt;Node18 -->
<g id="edge25" class="edge">
<title>Node7&#45;&gt;Node18</title>
<path fill="none" stroke="midnightblue" d="M645.23,-280.39C636.21,-266.4 616.43,-238.79 592.5,-224 565,-207.01 531.07,-196.34 501.07,-189.69"/>
<polygon fill="midnightblue" stroke="midnightblue" points="501.57,-186.21 491.06,-187.58 500.13,-193.06 501.57,-186.21"/>
</g>
<!-- Node22 -->
<g id="node22" class="node">
<title>Node22</title>
<g id="a_node22"><a xlink:href="TextureManager_8hpp.html" target="_top" xlink:title=" ">
<polygon fill="none" stroke="black" points="517.5,-168.5 517.5,-187.5 675.5,-187.5 675.5,-168.5 517.5,-168.5"/>
<text text-anchor="middle" x="596.5" y="-175.5" font-family="Helvetica,sans-Serif" font-size="10.00">../Managers/TextureManager.hpp</text>
</a>
</g>
</g>
<!-- Node7&#45;&gt;Node22 -->
<g id="edge32" class="edge">
<title>Node7&#45;&gt;Node22</title>
<path fill="none" stroke="midnightblue" d="M648.01,-280.32C644.2,-267.59 636.33,-243.3 626.5,-224 621.55,-214.27 614.91,-204.1 609.14,-195.89"/>
<polygon fill="midnightblue" stroke="midnightblue" points="611.82,-193.63 603.12,-187.59 606.15,-197.74 611.82,-193.63"/>
</g>
<!-- Node24 -->
<g id="node24" class="node">
<title>Node24</title>
<g id="a_node24"><a xlink:title=" ">
<polygon fill="none" stroke="#bfbfbf" points="668.5,-56.5 668.5,-75.5 744.5,-75.5 744.5,-56.5 668.5,-56.5"/>
<text text-anchor="middle" x="706.5" y="-63.5" font-family="Helvetica,sans-Serif" font-size="10.00">SDL_render.h</text>
</a>
</g>
</g>
<!-- Node7&#45;&gt;Node24 -->
<g id="edge40" class="edge">
<title>Node7&#45;&gt;Node24</title>
<path fill="none" stroke="midnightblue" d="M656.08,-280.27C670.46,-257.19 708.51,-192.24 721.5,-132 724.93,-116.1 720.08,-98.08 715.01,-85.05"/>
<polygon fill="midnightblue" stroke="midnightblue" points="718.2,-83.62 711.04,-75.81 711.77,-86.38 718.2,-83.62"/>
</g>
<!-- Node25 -->
<g id="node25" class="node">
<title>Node25</title>
<g id="a_node25"><a xlink:title=" ">
<polygon fill="none" stroke="#bfbfbf" points="402.5,-224.5 402.5,-243.5 474.5,-243.5 474.5,-224.5 402.5,-224.5"/>
<text text-anchor="middle" x="438.5" y="-231.5" font-family="Helvetica,sans-Serif" font-size="10.00">SDL_video.h</text>
</a>
</g>
</g>
<!-- Node7&#45;&gt;Node25 -->
<g id="edge41" class="edge">
<title>Node7&#45;&gt;Node25</title>
<path fill="none" stroke="midnightblue" d="M616.91,-280.44C580.32,-271.12 521.66,-256.18 481.68,-246"/>
<polygon fill="midnightblue" stroke="midnightblue" points="482.49,-242.59 471.94,-243.52 480.76,-249.38 482.49,-242.59"/>
</g>
<!-- Node9&#45;&gt;Node8 -->
<g id="edge22" class="edge">
<title>Node9&#45;&gt;Node8</title>
<path fill="none" stroke="midnightblue" d="M530.63,-226.93C525.93,-225.92 521.08,-224.9 516.5,-224 425.75,-206.08 402.34,-205.48 311.5,-188 310.05,-187.72 308.57,-187.43 307.08,-187.14"/>
<polygon fill="midnightblue" stroke="midnightblue" points="307.65,-183.68 297.16,-185.13 306.27,-190.54 307.65,-183.68"/>
</g>
<!-- Node10 -->
<g id="node10" class="node">
<title>Node10</title>
<g id="a_node10"><a xlink:href="UIObject_8hpp.html" target="_top" xlink:title=" ">
<polygon fill="none" stroke="black" points="769.5,-168.5 769.5,-187.5 843.5,-187.5 843.5,-168.5 769.5,-168.5"/>
<text text-anchor="middle" x="806.5" y="-175.5" font-family="Helvetica,sans-Serif" font-size="10.00">UIObject.hpp</text>
</a>
</g>
</g>
<!-- Node9&#45;&gt;Node10 -->
<g id="edge13" class="edge">
<title>Node9&#45;&gt;Node10</title>
<path fill="none" stroke="midnightblue" d="M584.15,-227.22C625.9,-218.17 707.33,-200.51 759.2,-189.26"/>
<polygon fill="midnightblue" stroke="midnightblue" points="760.13,-192.64 769.17,-187.1 758.65,-185.8 760.13,-192.64"/>
</g>
<!-- Node16 -->
<g id="node16" class="node">
<title>Node16</title>
<g id="a_node16"><a xlink:title=" ">
<polygon fill="none" stroke="#bfbfbf" points="453,-56.5 453,-75.5 494,-75.5 494,-56.5 453,-56.5"/>
<text text-anchor="middle" x="473.5" y="-63.5" font-family="Helvetica,sans-Serif" font-size="10.00">string</text>
</a>
</g>
</g>
<!-- Node9&#45;&gt;Node16 -->
<g id="edge23" class="edge">
<title>Node9&#45;&gt;Node16</title>
<path fill="none" stroke="midnightblue" d="M530.6,-227.06C525.91,-226.03 521.06,-224.98 516.5,-224 440.14,-207.63 393.75,-248.62 344.5,-188 308.09,-143.18 394.78,-98.92 443.36,-78.58"/>
<polygon fill="midnightblue" stroke="midnightblue" points="444.87,-81.74 452.81,-74.72 442.23,-75.26 444.87,-81.74"/>
</g>
<!-- Node11 -->
<g id="node11" class="node">
<title>Node11</title>
<g id="a_node11"><a xlink:href="GameObject_8hpp.html" target="_top" xlink:title=" ">
<polygon fill="none" stroke="black" points="770,-112.5 770,-131.5 859,-131.5 859,-112.5 770,-112.5"/>
<text text-anchor="middle" x="814.5" y="-119.5" font-family="Helvetica,sans-Serif" font-size="10.00">GameObject.hpp</text>
</a>
</g>
</g>
<!-- Node10&#45;&gt;Node11 -->
<g id="edge14" class="edge">
<title>Node10&#45;&gt;Node11</title>
<path fill="none" stroke="midnightblue" d="M807.82,-168.08C808.88,-160.93 810.41,-150.64 811.73,-141.69"/>
<polygon fill="midnightblue" stroke="midnightblue" points="815.2,-142.16 813.21,-131.75 808.28,-141.13 815.2,-142.16"/>
</g>
<!-- Node12 -->
<g id="node12" class="node">
<title>Node12</title>
<g id="a_node12"><a xlink:href="Component_8hpp.html" target="_top" xlink:title=" ">
<polygon fill="none" stroke="black" points="950.5,-56.5 950.5,-75.5 1034.5,-75.5 1034.5,-56.5 950.5,-56.5"/>
<text text-anchor="middle" x="992.5" y="-63.5" font-family="Helvetica,sans-Serif" font-size="10.00">Component.hpp</text>
</a>
</g>
</g>
<!-- Node11&#45;&gt;Node12 -->
<g id="edge15" class="edge">
<title>Node11&#45;&gt;Node12</title>
<path fill="none" stroke="midnightblue" d="M842.71,-112.44C872.91,-103.28 921.01,-88.69 954.53,-78.52"/>
<polygon fill="midnightblue" stroke="midnightblue" points="955.88,-81.77 964.43,-75.52 953.84,-75.07 955.88,-81.77"/>
</g>
<!-- Node13 -->
<g id="node13" class="node">
<title>Node13</title>
<g id="a_node13"><a xlink:title=" ">
<polygon fill="none" stroke="#bfbfbf" points="580,-0.5 580,-19.5 631,-19.5 631,-0.5 580,-0.5"/>
<text text-anchor="middle" x="605.5" y="-7.5" font-family="Helvetica,sans-Serif" font-size="10.00">memory</text>
</a>
</g>
</g>
<!-- Node11&#45;&gt;Node13 -->
<g id="edge21" class="edge">
<title>Node11&#45;&gt;Node13</title>
<path fill="none" stroke="midnightblue" d="M808.8,-112.49C799.07,-98.62 777.95,-71.2 753.5,-56 718.67,-34.35 672.72,-22.51 641.31,-16.49"/>
<polygon fill="midnightblue" stroke="midnightblue" points="641.72,-13.01 631.26,-14.66 640.47,-19.89 641.72,-13.01"/>
</g>
<!-- Node11&#45;&gt;Node14 -->
<g id="edge17" class="edge">
<title>Node11&#45;&gt;Node14</title>
<path fill="none" stroke="midnightblue" d="M826.23,-112.32C837.34,-104.11 854.24,-91.6 867.49,-81.81"/>
<polygon fill="midnightblue" stroke="midnightblue" points="869.6,-84.59 875.56,-75.83 865.44,-78.97 869.6,-84.59"/>
</g>
<!-- Node11&#45;&gt;Node16 -->
<g id="edge19" class="edge">
<title>Node11&#45;&gt;Node16</title>
<path fill="none" stroke="midnightblue" d="M769.92,-113.94C699.59,-102.8 564.65,-81.43 504.16,-71.86"/>
<polygon fill="midnightblue" stroke="midnightblue" points="504.53,-68.37 494.1,-70.26 503.43,-75.28 504.53,-68.37"/>
</g>
<!-- Node17 -->
<g id="node17" class="node">
<title>Node17</title>
<g id="a_node17"><a xlink:title=" ">
<polygon fill="none" stroke="#bfbfbf" points="1085.5,-56.5 1085.5,-75.5 1129.5,-75.5 1129.5,-56.5 1085.5,-56.5"/>
<text text-anchor="middle" x="1107.5" y="-63.5" font-family="Helvetica,sans-Serif" font-size="10.00">vector</text>
</a>
</g>
</g>
<!-- Node11&#45;&gt;Node17 -->
<g id="edge20" class="edge">
<title>Node11&#45;&gt;Node17</title>
<path fill="none" stroke="midnightblue" d="M859,-112.8C918.46,-101.84 1022.42,-82.68 1075.03,-72.98"/>
<polygon fill="midnightblue" stroke="midnightblue" points="1075.94,-76.38 1085.14,-71.12 1074.67,-69.49 1075.94,-76.38"/>
</g>
<!-- Node12&#45;&gt;Node13 -->
<g id="edge16" class="edge">
<title>Node12&#45;&gt;Node13</title>
<path fill="none" stroke="midnightblue" d="M950.32,-58.11C945.66,-57.38 940.98,-56.66 936.5,-56 829.35,-40.11 702.35,-23.45 641.51,-15.6"/>
<polygon fill="midnightblue" stroke="midnightblue" points="641.65,-12.09 631.28,-14.29 640.76,-19.04 641.65,-12.09"/>
</g>
<!-- Node15 -->
<g id="node15" class="node">
<title>Node15</title>
<g id="a_node15"><a xlink:href="Point_8hpp.html" target="_top" xlink:title=" ">
<polygon fill="none" stroke="black" points="1093,-0.5 1093,-19.5 1150,-19.5 1150,-0.5 1093,-0.5"/>
<text text-anchor="middle" x="1121.5" y="-7.5" font-family="Helvetica,sans-Serif" font-size="10.00">Point.hpp</text>
</a>
</g>
</g>
<!-- Node14&#45;&gt;Node15 -->
<g id="edge18" class="edge">
<title>Node14&#45;&gt;Node15</title>
<path fill="none" stroke="midnightblue" d="M924.58,-56.44C967.77,-46.48 1038.79,-30.09 1082.7,-19.95"/>
<polygon fill="midnightblue" stroke="midnightblue" points="1083.76,-23.3 1092.71,-17.64 1082.18,-16.48 1083.76,-23.3"/>
</g>
<!-- Node18&#45;&gt;Node13 -->
<g id="edge30" class="edge">
<title>Node18&#45;&gt;Node13</title>
<path fill="none" stroke="midnightblue" d="M424.84,-168.4C421.18,-146.62 414.84,-88.7 443.5,-56 474.94,-20.14 532.23,-11.72 569.57,-10.33"/>
<polygon fill="midnightblue" stroke="midnightblue" points="570.08,-13.82 580,-10.1 569.93,-6.82 570.08,-13.82"/>
</g>
<!-- Node18&#45;&gt;Node16 -->
<g id="edge31" class="edge">
<title>Node18&#45;&gt;Node16</title>
<path fill="none" stroke="midnightblue" d="M430.19,-168.37C437.84,-150.46 455.59,-108.92 465.83,-84.95"/>
<polygon fill="midnightblue" stroke="midnightblue" points="469.12,-86.16 469.83,-75.59 462.68,-83.41 469.12,-86.16"/>
</g>
<!-- Node19 -->
<g id="node19" class="node">
<title>Node19</title>
<g id="a_node19"><a xlink:href="Font_8hpp.html" target="_top" xlink:title=" ">
<polygon fill="none" stroke="black" points="201.5,-112.5 201.5,-131.5 297.5,-131.5 297.5,-112.5 201.5,-112.5"/>
<text text-anchor="middle" x="249.5" y="-119.5" font-family="Helvetica,sans-Serif" font-size="10.00">../Models/Font.hpp</text>
</a>
</g>
</g>
<!-- Node18&#45;&gt;Node19 -->
<g id="edge26" class="edge">
<title>Node18&#45;&gt;Node19</title>
<path fill="none" stroke="midnightblue" d="M398.46,-168.44C368.42,-159.28 320.59,-144.69 287.26,-134.52"/>
<polygon fill="midnightblue" stroke="midnightblue" points="288,-131.09 277.42,-131.52 285.96,-137.78 288,-131.09"/>
</g>
<!-- Node21 -->
<g id="node21" class="node">
<title>Node21</title>
<g id="a_node21"><a xlink:title=" ">
<polygon fill="none" stroke="#bfbfbf" points="678,-112.5 678,-131.5 713,-131.5 713,-112.5 678,-112.5"/>
<text text-anchor="middle" x="695.5" y="-119.5" font-family="Helvetica,sans-Serif" font-size="10.00">map</text>
</a>
</g>
</g>
<!-- Node18&#45;&gt;Node21 -->
<g id="edge29" class="edge">
<title>Node18&#45;&gt;Node21</title>
<path fill="none" stroke="midnightblue" d="M484.69,-168.49C531.71,-161.09 599.7,-149.21 667.84,-131.86"/>
<polygon fill="midnightblue" stroke="midnightblue" points="669.08,-135.15 677.89,-129.26 667.33,-128.38 669.08,-135.15"/>
</g>
<!-- Node19&#45;&gt;Node13 -->
<g id="edge28" class="edge">
<title>Node19&#45;&gt;Node13</title>
<path fill="none" stroke="midnightblue" d="M249.27,-112.27C249.4,-98.1 251.91,-70.25 268.5,-56 313.09,-17.71 492.22,-11.76 569.6,-11.01"/>
<polygon fill="midnightblue" stroke="midnightblue" points="569.85,-14.51 579.82,-10.93 569.8,-7.51 569.85,-14.51"/>
</g>
<!-- Node20 -->
<g id="node20" class="node">
<title>Node20</title>
<g id="a_node20"><a xlink:title=" ">
<polygon fill="none" stroke="#bfbfbf" points="277.5,-56.5 277.5,-75.5 335.5,-75.5 335.5,-56.5 277.5,-56.5"/>
<text text-anchor="middle" x="306.5" y="-63.5" font-family="Helvetica,sans-Serif" font-size="10.00">SDL_ttf.h</text>
</a>
</g>
</g>
<!-- Node19&#45;&gt;Node20 -->
<g id="edge27" class="edge">
<title>Node19&#45;&gt;Node20</title>
<path fill="none" stroke="midnightblue" d="M258.66,-112.32C267,-104.42 279.53,-92.55 289.68,-82.94"/>
<polygon fill="midnightblue" stroke="midnightblue" points="292.33,-85.25 297.18,-75.83 287.51,-80.17 292.33,-85.25"/>
</g>
<!-- Node22&#45;&gt;Node13 -->
<g id="edge38" class="edge">
<title>Node22&#45;&gt;Node13</title>
<path fill="none" stroke="midnightblue" d="M579.3,-168.39C566.25,-160.79 549.27,-148.39 541.5,-132 537.7,-123.97 539.03,-120.54 541.5,-112 551.13,-78.81 575.31,-46.07 591.04,-27.23"/>
<polygon fill="midnightblue" stroke="midnightblue" points="593.73,-29.47 597.59,-19.6 588.42,-24.91 593.73,-29.47"/>
</g>
<!-- Node22&#45;&gt;Node16 -->
<g id="edge39" class="edge">
<title>Node22&#45;&gt;Node16</title>
<path fill="none" stroke="midnightblue" d="M570.45,-168.47C551.44,-161.2 526.04,-149.17 508.5,-132 495.07,-118.85 485.55,-99.44 479.86,-85.26"/>
<polygon fill="midnightblue" stroke="midnightblue" points="483.03,-83.76 476.25,-75.62 476.48,-86.21 483.03,-83.76"/>
</g>
<!-- Node22&#45;&gt;Node21 -->
<g id="edge37" class="edge">
<title>Node22&#45;&gt;Node21</title>
<path fill="none" stroke="midnightblue" d="M612.41,-168.32C628.14,-159.74 652.44,-146.49 670.71,-136.52"/>
<polygon fill="midnightblue" stroke="midnightblue" points="672.53,-139.52 679.64,-131.65 669.18,-133.37 672.53,-139.52"/>
</g>
<!-- Node23 -->
<g id="node23" class="node">
<title>Node23</title>
<g id="a_node23"><a xlink:href="Texture_8hpp.html" target="_top" xlink:title=" ">
<polygon fill="none" stroke="black" points="551,-112.5 551,-131.5 660,-131.5 660,-112.5 551,-112.5"/>
<text text-anchor="middle" x="605.5" y="-119.5" font-family="Helvetica,sans-Serif" font-size="10.00">../Models/Texture.hpp</text>
</a>
</g>
</g>
<!-- Node22&#45;&gt;Node23 -->
<g id="edge33" class="edge">
<title>Node22&#45;&gt;Node23</title>
<path fill="none" stroke="midnightblue" d="M597.99,-168.08C599.18,-160.93 600.9,-150.64 602.39,-141.69"/>
<polygon fill="midnightblue" stroke="midnightblue" points="605.85,-142.19 604.04,-131.75 598.95,-141.04 605.85,-142.19"/>
</g>
<!-- Node23&#45;&gt;Node13 -->
<g id="edge35" class="edge">
<title>Node23&#45;&gt;Node13</title>
<path fill="none" stroke="midnightblue" d="M605.5,-112.37C605.5,-94.62 605.5,-53.67 605.5,-29.6"/>
<polygon fill="midnightblue" stroke="midnightblue" points="609,-29.59 605.5,-19.59 602,-29.59 609,-29.59"/>
</g>
<!-- Node23&#45;&gt;Node16 -->
<g id="edge34" class="edge">
<title>Node23&#45;&gt;Node16</title>
<path fill="none" stroke="midnightblue" d="M584.59,-112.44C562.77,-103.52 528.35,-89.44 503.61,-79.32"/>
<polygon fill="midnightblue" stroke="midnightblue" points="504.9,-76.06 494.32,-75.52 502.25,-82.54 504.9,-76.06"/>
</g>
<!-- Node23&#45;&gt;Node24 -->
<g id="edge36" class="edge">
<title>Node23&#45;&gt;Node24</title>
<path fill="none" stroke="midnightblue" d="M621.73,-112.32C637.85,-103.7 662.8,-90.36 681.47,-80.39"/>
<polygon fill="midnightblue" stroke="midnightblue" points="683.15,-83.46 690.32,-75.65 679.85,-77.28 683.15,-83.46"/>
</g>
<!-- Node26&#45;&gt;Node2 -->
<g id="edge50" class="edge">
<title>Node26&#45;&gt;Node2</title>
<path fill="none" stroke="midnightblue" d="M1062.43,-340.37C943.03,-330.96 676.62,-309.68 585.5,-300 580.1,-299.43 574.46,-298.78 568.84,-298.11"/>
<polygon fill="midnightblue" stroke="midnightblue" points="569.14,-294.62 558.78,-296.87 568.28,-301.56 569.14,-294.62"/>
</g>
<!-- Node26&#45;&gt;Node11 -->
<g id="edge49" class="edge">
<title>Node26&#45;&gt;Node11</title>
<path fill="none" stroke="midnightblue" d="M1109.47,-336.3C1062.76,-302.52 893.15,-179.87 834.57,-137.51"/>
<polygon fill="midnightblue" stroke="midnightblue" points="836.61,-134.67 826.45,-131.64 832.51,-140.34 836.61,-134.67"/>
</g>
<!-- Node26&#45;&gt;Node13 -->
<g id="edge44" class="edge">
<title>Node26&#45;&gt;Node13</title>
<path fill="none" stroke="midnightblue" d="M1180.57,-337.13C1238.29,-325.72 1317.5,-298.51 1317.5,-235 1317.5,-235 1317.5,-235 1317.5,-121 1317.5,-36.36 1221.17,-74.16 1138.5,-56 954.57,-15.59 727.58,-10.96 641.17,-10.79"/>
<polygon fill="midnightblue" stroke="midnightblue" points="641.1,-7.29 631.1,-10.79 641.1,-14.29 641.1,-7.29"/>
</g>
<!-- Node26&#45;&gt;Node17 -->
<g id="edge48" class="edge">
<title>Node26&#45;&gt;Node17</title>
<path fill="none" stroke="midnightblue" d="M1158.95,-336.5C1205.67,-323.42 1279.5,-293.49 1279.5,-235 1279.5,-235 1279.5,-235 1279.5,-177 1279.5,-146.9 1281.77,-133.3 1260.5,-112 1228.24,-79.68 1174.04,-70.33 1139.56,-67.76"/>
<polygon fill="midnightblue" stroke="midnightblue" points="1139.73,-64.27 1129.54,-67.17 1139.31,-71.25 1139.73,-64.27"/>
</g>
<!-- Node27 -->
<g id="node27" class="node">
<title>Node27</title>
<g id="a_node27"><a xlink:title=" ">
<polygon fill="none" stroke="#bfbfbf" points="1135.5,-168.5 1135.5,-187.5 1213.5,-187.5 1213.5,-168.5 1135.5,-168.5"/>
<text text-anchor="middle" x="1174.5" y="-175.5" font-family="Helvetica,sans-Serif" font-size="10.00">box2d/box2d.h</text>
</a>
</g>
</g>
<!-- Node26&#45;&gt;Node27 -->
<g id="edge43" class="edge">
<title>Node26&#45;&gt;Node27</title>
<path fill="none" stroke="midnightblue" d="M1124.53,-336.39C1130.62,-319 1144.68,-278.42 1155.5,-244 1160.41,-228.4 1165.59,-210.57 1169.3,-197.53"/>
<polygon fill="midnightblue" stroke="midnightblue" points="1172.68,-198.44 1172.03,-187.87 1165.94,-196.54 1172.68,-198.44"/>
</g>
<!-- Node28 -->
<g id="node28" class="node">
<title>Node28</title>
<g id="a_node28"><a xlink:href="RigidBody_8hpp.html" target="_top" xlink:title=" ">
<polygon fill="none" stroke="black" points="1173.5,-112.5 1173.5,-131.5 1251.5,-131.5 1251.5,-112.5 1173.5,-112.5"/>
<text text-anchor="middle" x="1212.5" y="-119.5" font-family="Helvetica,sans-Serif" font-size="10.00">RigidBody.hpp</text>
</a>
</g>
</g>
<!-- Node26&#45;&gt;Node28 -->
<g id="edge45" class="edge">
<title>Node26&#45;&gt;Node28</title>
<path fill="none" stroke="midnightblue" d="M1129.77,-336.4C1150.52,-314.15 1204.39,-251.92 1222.5,-188 1226.88,-172.55 1223.43,-154.46 1219.43,-141.29"/>
<polygon fill="midnightblue" stroke="midnightblue" points="1222.65,-139.89 1216.1,-131.56 1216.03,-142.15 1222.65,-139.89"/>
</g>
<!-- Node29 -->
<g id="node29" class="node">
<title>Node29</title>
<g id="a_node29"><a xlink:href="ContactListener_8hpp.html" target="_top" xlink:title=" ">
<polygon fill="none" stroke="black" points="991,-224.5 991,-243.5 1146,-243.5 1146,-224.5 991,-224.5"/>
<text text-anchor="middle" x="1068.5" y="-231.5" font-family="Helvetica,sans-Serif" font-size="10.00">../Listeners/ContactListener.hpp</text>
</a>
</g>
</g>
<!-- Node26&#45;&gt;Node29 -->
<g id="edge51" class="edge">
<title>Node26&#45;&gt;Node29</title>
<path fill="none" stroke="midnightblue" d="M1117.34,-336.37C1108.67,-318.38 1088.52,-276.55 1077,-252.63"/>
<polygon fill="midnightblue" stroke="midnightblue" points="1080.14,-251.08 1072.64,-243.59 1073.83,-254.12 1080.14,-251.08"/>
</g>
<!-- Node28&#45;&gt;Node12 -->
<g id="edge46" class="edge">
<title>Node28&#45;&gt;Node12</title>
<path fill="none" stroke="midnightblue" d="M1177.64,-112.44C1139.59,-103.1 1078.54,-88.12 1037.04,-77.93"/>
<polygon fill="midnightblue" stroke="midnightblue" points="1037.75,-74.5 1027.2,-75.52 1036.08,-81.3 1037.75,-74.5"/>
</g>
<!-- Node28&#45;&gt;Node15 -->
<g id="edge47" class="edge">
<title>Node28&#45;&gt;Node15</title>
<path fill="none" stroke="midnightblue" d="M1205.36,-112.37C1190.21,-94.05 1154.63,-51.05 1135.04,-27.36"/>
<polygon fill="midnightblue" stroke="midnightblue" points="1137.68,-25.07 1128.61,-19.59 1132.29,-29.53 1137.68,-25.07"/>
</g>
<!-- Node29&#45;&gt;Node12 -->
<g id="edge53" class="edge">
<title>Node29&#45;&gt;Node12</title>
<path fill="none" stroke="midnightblue" d="M1068.32,-224.45C1067.53,-203.75 1063.35,-149.84 1041.5,-112 1034.71,-100.24 1023.82,-89.79 1014.03,-81.93"/>
<polygon fill="midnightblue" stroke="midnightblue" points="1015.93,-78.97 1005.85,-75.72 1011.7,-84.55 1015.93,-78.97"/>
</g>
<!-- Node29&#45;&gt;Node17 -->
<g id="edge59" class="edge">
<title>Node29&#45;&gt;Node17</title>
<path fill="none" stroke="midnightblue" d="M1071.7,-224.47C1074.99,-215.49 1080.09,-200.9 1083.5,-188 1092.97,-152.24 1100.59,-109.65 1104.54,-85.73"/>
<polygon fill="midnightblue" stroke="midnightblue" points="1108.04,-86.02 1106.18,-75.59 1101.13,-84.91 1108.04,-86.02"/>
</g>
<!-- Node29&#45;&gt;Node21 -->
<g id="edge54" class="edge">
<title>Node29&#45;&gt;Node21</title>
<path fill="none" stroke="midnightblue" d="M990.96,-227.26C913.27,-220.52 799.74,-207.7 760.5,-188 738.33,-176.87 719.11,-155.28 707.44,-140.04"/>
<polygon fill="midnightblue" stroke="midnightblue" points="710.22,-137.92 701.47,-131.93 704.58,-142.06 710.22,-137.92"/>
</g>
<!-- Node29&#45;&gt;Node27 -->
<g id="edge52" class="edge">
<title>Node29&#45;&gt;Node27</title>
<path fill="none" stroke="midnightblue" d="M1085.53,-224.32C1102.53,-215.66 1128.88,-202.24 1148.5,-192.25"/>
<polygon fill="midnightblue" stroke="midnightblue" points="1150.19,-195.31 1157.51,-187.65 1147.01,-189.08 1150.19,-195.31"/>
</g>
<!-- Node30 -->
<g id="node30" class="node">
<title>Node30</title>
<g id="a_node30"><a xlink:href="BehaviourScript_8hpp.html" target="_top" xlink:title=" ">
<polygon fill="none" stroke="black" points="937.5,-168.5 937.5,-187.5 1041.5,-187.5 1041.5,-168.5 937.5,-168.5"/>
<text text-anchor="middle" x="989.5" y="-175.5" font-family="Helvetica,sans-Serif" font-size="10.00">BehaviourScript.hpp</text>
</a>
</g>
</g>
<!-- Node29&#45;&gt;Node30 -->
<g id="edge55" class="edge">
<title>Node29&#45;&gt;Node30</title>
<path fill="none" stroke="midnightblue" d="M1055.81,-224.32C1043.6,-215.98 1024.92,-203.21 1010.5,-193.35"/>
<polygon fill="midnightblue" stroke="midnightblue" points="1012.39,-190.41 1002.16,-187.65 1008.44,-196.19 1012.39,-190.41"/>
</g>
<!-- Node30&#45;&gt;Node12 -->
<g id="edge56" class="edge">
<title>Node30&#45;&gt;Node12</title>
<path fill="none" stroke="midnightblue" d="M980.1,-168.49C967.91,-156.38 949.05,-133.26 956.5,-112 960.29,-101.21 967.87,-91.08 975.1,-83.18"/>
<polygon fill="midnightblue" stroke="midnightblue" points="977.83,-85.4 982.34,-75.81 972.84,-80.49 977.83,-85.4"/>
</g>
<!-- Node31 -->
<g id="node31" class="node">
<title>Node31</title>
<g id="a_node31"><a xlink:href="Collider_8hpp.html" target="_top" xlink:title=" ">
<polygon fill="none" stroke="black" points="965,-112.5 965,-131.5 1032,-131.5 1032,-112.5 965,-112.5"/>
<text text-anchor="middle" x="998.5" y="-119.5" font-family="Helvetica,sans-Serif" font-size="10.00">Collider.hpp</text>
</a>
</g>
</g>
<!-- Node30&#45;&gt;Node31 -->
<g id="edge57" class="edge">
<title>Node30&#45;&gt;Node31</title>
<path fill="none" stroke="midnightblue" d="M990.99,-168.08C992.18,-160.93 993.9,-150.64 995.39,-141.69"/>
<polygon fill="midnightblue" stroke="midnightblue" points="998.85,-142.19 997.04,-131.75 991.95,-141.04 998.85,-142.19"/>
</g>
<!-- Node31&#45;&gt;Node12 -->
<g id="edge58" class="edge">
<title>Node31&#45;&gt;Node12</title>
<path fill="none" stroke="midnightblue" d="M997.51,-112.08C996.72,-104.93 995.57,-94.64 994.58,-85.69"/>
<polygon fill="midnightblue" stroke="midnightblue" points="998.06,-85.3 993.47,-75.75 991.1,-86.08 998.06,-85.3"/>
</g>
<!-- Node32&#45;&gt;Node2 -->
<g id="edge61" class="edge">
<title>Node32&#45;&gt;Node2</title>
<path fill="none" stroke="midnightblue" d="M751.14,-336.44C701.59,-326.89 621.44,-311.43 568.6,-301.24"/>
<polygon fill="midnightblue" stroke="midnightblue" points="569.22,-297.8 558.74,-299.34 567.9,-304.67 569.22,-297.8"/>
</g>
<!-- Node32&#45;&gt;Node7 -->
<g id="edge62" class="edge">
<title>Node32&#45;&gt;Node7</title>
<path fill="none" stroke="midnightblue" d="M772.53,-336.44C748.35,-327.44 710.08,-313.19 682.86,-303.05"/>
<polygon fill="midnightblue" stroke="midnightblue" points="683.96,-299.73 673.37,-299.52 681.52,-306.29 683.96,-299.73"/>
</g>
<!-- Node33&#45;&gt;Node2 -->
<g id="edge64" class="edge">
<title>Node33&#45;&gt;Node2</title>
<path fill="none" stroke="midnightblue" d="M515.5,-336.08C515.5,-329.01 515.5,-318.86 515.5,-309.99"/>
<polygon fill="midnightblue" stroke="midnightblue" points="519,-309.75 515.5,-299.75 512,-309.75 519,-309.75"/>
</g>
<!-- Node34&#45;&gt;Node2 -->
<g id="edge66" class="edge">
<title>Node34&#45;&gt;Node2</title>
<path fill="none" stroke="midnightblue" d="M634.16,-336.44C610.75,-327.48 573.77,-313.31 547.31,-303.18"/>
<polygon fill="midnightblue" stroke="midnightblue" points="548.33,-299.82 537.74,-299.52 545.83,-306.36 548.33,-299.82"/>
</g>
</g>
</svg>
