<?xml version="1.0" encoding="UTF-8" standalone="no"?>
<!DOCTYPE svg PUBLIC "-//W3C//DTD SVG 1.1//EN"
 "http://www.w3.org/Graphics/SVG/1.1/DTD/svg11.dtd">
<!-- Generated by graphviz version 2.44.0 ()
 -->
<!-- Title: src/Managers/TextureManager.hpp Pages: 1 -->
<svg width="832pt" height="274pt"
 viewBox="0.00 0.00 832.34 274.00" xmlns="http://www.w3.org/2000/svg" xmlns:xlink="http://www.w3.org/1999/xlink">
<g id="graph0" class="graph" transform="scale(1 1) rotate(0) translate(4 270)">
<title>src/Managers/TextureManager.hpp</title>
<!-- Node1 -->
<g id="node1" class="node">
<title>Node1</title>
<g id="a_node1"><a xlink:title=" ">
<polygon fill="#bfbfbf" stroke="black" points="198.84,-246.5 198.84,-265.5 365.84,-265.5 365.84,-246.5 198.84,-246.5"/>
<text text-anchor="middle" x="282.34" y="-253.5" font-family="Helvetica,sans-Serif" font-size="10.00">src/Managers/TextureManager.hpp</text>
</a>
</g>
</g>
<!-- Node2 -->
<g id="node2" class="node">
<title>Node2</title>
<g id="a_node2"><a xlink:href="TextureManager_8cpp.html" target="_top" xlink:title=" ">
<polygon fill="none" stroke="black" points="118.84,-190.5 118.84,-209.5 285.84,-209.5 285.84,-190.5 118.84,-190.5"/>
<text text-anchor="middle" x="202.34" y="-197.5" font-family="Helvetica,sans-Serif" font-size="10.00">src/Managers/TextureManager.cpp</text>
</a>
</g>
</g>
<!-- Node1&#45;&gt;Node2 -->
<g id="edge1" class="edge">
<title>Node1&#45;&gt;Node2</title>
<path fill="none" stroke="midnightblue" d="M261.04,-240.62C246.42,-230.76 227.51,-217.99 215.16,-209.65"/>
<polygon fill="midnightblue" stroke="midnightblue" points="259.24,-243.63 269.49,-246.32 263.16,-237.83 259.24,-243.63"/>
</g>
<!-- Node3 -->
<g id="node3" class="node">
<title>Node3</title>
<g id="a_node3"><a xlink:href="Window_8hpp.html" target="_top" xlink:title=" ">
<polygon fill="none" stroke="black" points="303.34,-190.5 303.34,-209.5 423.34,-209.5 423.34,-190.5 303.34,-190.5"/>
<text text-anchor="middle" x="363.34" y="-197.5" font-family="Helvetica,sans-Serif" font-size="10.00">src/Models/Window.hpp</text>
</a>
</g>
</g>
<!-- Node1&#45;&gt;Node3 -->
<g id="edge2" class="edge">
<title>Node1&#45;&gt;Node3</title>
<path fill="none" stroke="midnightblue" d="M303.91,-240.62C318.7,-230.76 337.85,-217.99 350.36,-209.65"/>
<polygon fill="midnightblue" stroke="midnightblue" points="301.73,-237.86 295.35,-246.32 305.62,-243.69 301.73,-237.86"/>
</g>
<!-- Node4 -->
<g id="node4" class="node">
<title>Node4</title>
<g id="a_node4"><a xlink:href="TimeManager_8hpp.html" target="_top" xlink:title=" ">
<polygon fill="none" stroke="black" points="55.34,-129 55.34,-148 211.34,-148 211.34,-129 55.34,-129"/>
<text text-anchor="middle" x="133.34" y="-136" font-family="Helvetica,sans-Serif" font-size="10.00">src/Managers/TimeManager.hpp</text>
</a>
</g>
</g>
<!-- Node3&#45;&gt;Node4 -->
<g id="edge3" class="edge">
<title>Node3&#45;&gt;Node4</title>
<path fill="none" stroke="midnightblue" d="M320.7,-187.97C276.03,-176.41 206.85,-158.52 166.23,-148.01"/>
<polygon fill="midnightblue" stroke="midnightblue" points="319.83,-191.36 330.39,-190.48 321.58,-184.58 319.83,-191.36"/>
</g>
<!-- Node9 -->
<g id="node9" class="node">
<title>Node9</title>
<g id="a_node9"><a xlink:href="Window_8cpp.html" target="_top" xlink:title=" ">
<polygon fill="none" stroke="black" points="229.34,-129 229.34,-148 349.34,-148 349.34,-129 229.34,-129"/>
<text text-anchor="middle" x="289.34" y="-136" font-family="Helvetica,sans-Serif" font-size="10.00">src/Models/Window.cpp</text>
</a>
</g>
</g>
<!-- Node3&#45;&gt;Node9 -->
<g id="edge8" class="edge">
<title>Node3&#45;&gt;Node9</title>
<path fill="none" stroke="midnightblue" d="M344.65,-183.97C330.5,-172.59 311.56,-157.37 299.92,-148.01"/>
<polygon fill="midnightblue" stroke="midnightblue" points="342.75,-186.94 352.74,-190.48 347.14,-181.48 342.75,-186.94"/>
</g>
<!-- Node10 -->
<g id="node10" class="node">
<title>Node10</title>
<g id="a_node10"><a xlink:href="FpsCounterSubsystem_8hpp.html" target="_top" xlink:title=" ">
<polygon fill="none" stroke="black" points="367.34,-123.5 367.34,-153.5 507.34,-153.5 507.34,-123.5 367.34,-123.5"/>
<text text-anchor="start" x="375.34" y="-141.5" font-family="Helvetica,sans-Serif" font-size="10.00">src/Subsystems/FpsCounter</text>
<text text-anchor="middle" x="437.34" y="-130.5" font-family="Helvetica,sans-Serif" font-size="10.00">Subsystem.hpp</text>
</a>
</g>
</g>
<!-- Node3&#45;&gt;Node10 -->
<g id="edge9" class="edge">
<title>Node3&#45;&gt;Node10</title>
<path fill="none" stroke="midnightblue" d="M381.75,-184.2C393.42,-174.81 408.42,-162.75 419.9,-153.52"/>
<polygon fill="midnightblue" stroke="midnightblue" points="379.54,-181.48 373.94,-190.48 383.93,-186.94 379.54,-181.48"/>
</g>
<!-- Node12 -->
<g id="node12" class="node">
<title>Node12</title>
<g id="a_node12"><a xlink:href="RenderSubsystem_8hpp.html" target="_top" xlink:title=" ">
<polygon fill="none" stroke="black" points="525.34,-129 525.34,-148 713.34,-148 713.34,-129 525.34,-129"/>
<text text-anchor="middle" x="619.34" y="-136" font-family="Helvetica,sans-Serif" font-size="10.00">src/Subsystems/RenderSubsystem.hpp</text>
</a>
</g>
</g>
<!-- Node3&#45;&gt;Node12 -->
<g id="edge13" class="edge">
<title>Node3&#45;&gt;Node12</title>
<path fill="none" stroke="midnightblue" d="M409.87,-188.19C459.54,-176.64 537.23,-158.58 582.73,-148.01"/>
<polygon fill="midnightblue" stroke="midnightblue" points="408.97,-184.8 400.02,-190.48 410.55,-191.62 408.97,-184.8"/>
</g>
<!-- Node5 -->
<g id="node5" class="node">
<title>Node5</title>
<g id="a_node5"><a xlink:href="Engine_8cpp.html" target="_top" xlink:title=" ">
<polygon fill="none" stroke="black" points="213.34,-0.5 213.34,-19.5 311.34,-19.5 311.34,-0.5 213.34,-0.5"/>
<text text-anchor="middle" x="262.34" y="-7.5" font-family="Helvetica,sans-Serif" font-size="10.00">src/Api/Engine.cpp</text>
</a>
</g>
</g>
<!-- Node4&#45;&gt;Node5 -->
<g id="edge4" class="edge">
<title>Node4&#45;&gt;Node5</title>
<path fill="none" stroke="midnightblue" d="M86.24,-126.36C39.88,-113.2 -20.25,-88.89 7.34,-56 33.09,-25.31 146.61,-15.54 213.19,-12.44"/>
<polygon fill="midnightblue" stroke="midnightblue" points="85.31,-129.73 95.88,-128.99 87.16,-122.98 85.31,-129.73"/>
</g>
<!-- Node6 -->
<g id="node6" class="node">
<title>Node6</title>
<g id="a_node6"><a xlink:href="src_2Api_2Time_8cpp.html" target="_top" xlink:title=" ">
<polygon fill="none" stroke="black" points="16.34,-62 16.34,-81 106.34,-81 106.34,-62 16.34,-62"/>
<text text-anchor="middle" x="61.34" y="-69" font-family="Helvetica,sans-Serif" font-size="10.00">src/Api/Time.cpp</text>
</a>
</g>
</g>
<!-- Node4&#45;&gt;Node6 -->
<g id="edge5" class="edge">
<title>Node4&#45;&gt;Node6</title>
<path fill="none" stroke="midnightblue" d="M116.01,-121.86C101.86,-109.08 82.38,-91.49 70.9,-81.13"/>
<polygon fill="midnightblue" stroke="midnightblue" points="113.86,-124.63 123.63,-128.73 118.55,-119.43 113.86,-124.63"/>
</g>
<!-- Node7 -->
<g id="node7" class="node">
<title>Node7</title>
<g id="a_node7"><a xlink:href="TimeManager_8cpp.html" target="_top" xlink:title=" ">
<polygon fill="none" stroke="black" points="124.34,-62 124.34,-81 280.34,-81 280.34,-62 124.34,-62"/>
<text text-anchor="middle" x="202.34" y="-69" font-family="Helvetica,sans-Serif" font-size="10.00">src/Managers/TimeManager.cpp</text>
</a>
</g>
</g>
<!-- Node4&#45;&gt;Node7 -->
<g id="edge6" class="edge">
<title>Node4&#45;&gt;Node7</title>
<path fill="none" stroke="midnightblue" d="M149.95,-121.86C163.51,-109.08 182.18,-91.49 193.18,-81.13"/>
<polygon fill="midnightblue" stroke="midnightblue" points="147.52,-119.33 142.64,-128.73 152.32,-124.42 147.52,-119.33"/>
</g>
<!-- Node8 -->
<g id="node8" class="node">
<title>Node8</title>
<g id="a_node8"><a xlink:href="FpsCounterSubsystem_8cpp.html" target="_top" xlink:title=" ">
<polygon fill="none" stroke="black" points="298.34,-56.5 298.34,-86.5 438.34,-86.5 438.34,-56.5 298.34,-56.5"/>
<text text-anchor="start" x="306.34" y="-74.5" font-family="Helvetica,sans-Serif" font-size="10.00">src/Subsystems/FpsCounter</text>
<text text-anchor="middle" x="368.34" y="-63.5" font-family="Helvetica,sans-Serif" font-size="10.00">Subsystem.cpp</text>
</a>
</g>
</g>
<!-- Node4&#45;&gt;Node8 -->
<g id="edge7" class="edge">
<title>Node4&#45;&gt;Node8</title>
<path fill="none" stroke="midnightblue" d="M174.2,-126.2C214.04,-115.18 274.72,-98.39 317.62,-86.53"/>
<polygon fill="midnightblue" stroke="midnightblue" points="173.25,-122.83 164.55,-128.87 175.12,-129.58 173.25,-122.83"/>
</g>
<!-- Node10&#45;&gt;Node8 -->
<g id="edge10" class="edge">
<title>Node10&#45;&gt;Node8</title>
<path fill="none" stroke="midnightblue" d="M414.85,-116.31C404.5,-106.56 392.5,-95.26 383.28,-86.58"/>
<polygon fill="midnightblue" stroke="midnightblue" points="412.69,-119.09 422.37,-123.4 417.49,-113.99 412.69,-119.09"/>
</g>
<!-- Node11 -->
<g id="node11" class="node">
<title>Node11</title>
<g id="a_node11"><a xlink:href="Subsystems_8hpp.html" target="_top" xlink:title=" ">
<polygon fill="none" stroke="black" points="456.34,-62 456.34,-81 618.34,-81 618.34,-62 456.34,-62"/>
<text text-anchor="middle" x="537.34" y="-69" font-family="Helvetica,sans-Serif" font-size="10.00">src/Subsystems/Subsystems.hpp</text>
</a>
</g>
</g>
<!-- Node10&#45;&gt;Node11 -->
<g id="edge11" class="edge">
<title>Node10&#45;&gt;Node11</title>
<path fill="none" stroke="midnightblue" d="M467.63,-117.81C486.55,-105.51 509.95,-90.3 524.25,-81.01"/>
<polygon fill="midnightblue" stroke="midnightblue" points="465.51,-115.01 459.04,-123.4 469.33,-120.88 465.51,-115.01"/>
</g>
<!-- Node11&#45;&gt;Node5 -->
<g id="edge12" class="edge">
<title>Node11&#45;&gt;Node5</title>
<path fill="none" stroke="midnightblue" d="M488.03,-59.83C434.69,-48.29 350.74,-30.13 301.67,-19.51"/>
<polygon fill="midnightblue" stroke="midnightblue" points="487.42,-63.28 497.94,-61.98 488.9,-56.44 487.42,-63.28"/>
</g>
<!-- Node12&#45;&gt;Node11 -->
<g id="edge15" class="edge">
<title>Node12&#45;&gt;Node11</title>
<path fill="none" stroke="midnightblue" d="M600.05,-122.21C583.9,-109.41 561.42,-91.59 548.22,-81.13"/>
<polygon fill="midnightblue" stroke="midnightblue" points="598.27,-125.26 608.28,-128.73 602.62,-119.78 598.27,-125.26"/>
</g>
<!-- Node13 -->
<g id="node13" class="node">
<title>Node13</title>
<g id="a_node13"><a xlink:href="RenderSubsystem_8cpp.html" target="_top" xlink:title=" ">
<polygon fill="none" stroke="black" points="636.34,-62 636.34,-81 824.34,-81 824.34,-62 636.34,-62"/>
<text text-anchor="middle" x="730.34" y="-69" font-family="Helvetica,sans-Serif" font-size="10.00">src/Subsystems/RenderSubsystem.cpp</text>
</a>
</g>
</g>
<!-- Node12&#45;&gt;Node13 -->
<g id="edge14" class="edge">
<title>Node12&#45;&gt;Node13</title>
<path fill="none" stroke="midnightblue" d="M643.05,-123.62C665.04,-110.74 697.08,-91.98 715.61,-81.13"/>
<polygon fill="midnightblue" stroke="midnightblue" points="641.17,-120.66 634.31,-128.73 644.71,-126.7 641.17,-120.66"/>
</g>
</g>
</svg>
