<?xml version="1.0" encoding="UTF-8" standalone="no"?>
<!DOCTYPE svg PUBLIC "-//W3C//DTD SVG 1.1//EN"
 "http://www.w3.org/Graphics/SVG/1.1/DTD/svg11.dtd">
<!-- Generated by graphviz version 2.44.0 ()
 -->
<!-- Title: src/Managers/TextureManager.cpp Pages: 1 -->
<svg width="295pt" height="196pt"
 viewBox="0.00 0.00 295.00 196.00" xmlns="http://www.w3.org/2000/svg" xmlns:xlink="http://www.w3.org/1999/xlink">
<g id="graph0" class="graph" transform="scale(1 1) rotate(0) translate(4 192)">
<title>src/Managers/TextureManager.cpp</title>
<!-- Node1 -->
<g id="node1" class="node">
<title>Node1</title>
<g id="a_node1"><a xlink:title=" ">
<polygon fill="#bfbfbf" stroke="black" points="58,-168.5 58,-187.5 225,-187.5 225,-168.5 58,-168.5"/>
<text text-anchor="middle" x="141.5" y="-175.5" font-family="Helvetica,sans-Serif" font-size="10.00">src/Managers/TextureManager.cpp</text>
</a>
</g>
</g>
<!-- Node2 -->
<g id="node2" class="node">
<title>Node2</title>
<g id="a_node2"><a xlink:title=" ">
<polygon fill="none" stroke="#bfbfbf" points="12,-112.5 12,-131.5 71,-131.5 71,-112.5 12,-112.5"/>
<text text-anchor="middle" x="41.5" y="-119.5" font-family="Helvetica,sans-Serif" font-size="10.00">stdexcept</text>
</a>
</g>
</g>
<!-- Node1&#45;&gt;Node2 -->
<g id="edge1" class="edge">
<title>Node1&#45;&gt;Node2</title>
<path fill="none" stroke="midnightblue" d="M125.43,-168.32C109.54,-159.74 84.99,-146.49 66.54,-136.52"/>
<polygon fill="midnightblue" stroke="midnightblue" points="67.99,-133.33 57.53,-131.65 64.66,-139.49 67.99,-133.33"/>
</g>
<!-- Node3 -->
<g id="node3" class="node">
<title>Node3</title>
<g id="a_node3"><a xlink:href="TextureManager_8hpp.html" target="_top" xlink:title=" ">
<polygon fill="none" stroke="black" points="89.5,-112.5 89.5,-131.5 193.5,-131.5 193.5,-112.5 89.5,-112.5"/>
<text text-anchor="middle" x="141.5" y="-119.5" font-family="Helvetica,sans-Serif" font-size="10.00">TextureManager.hpp</text>
</a>
</g>
</g>
<!-- Node1&#45;&gt;Node3 -->
<g id="edge2" class="edge">
<title>Node1&#45;&gt;Node3</title>
<path fill="none" stroke="midnightblue" d="M141.5,-168.08C141.5,-161.01 141.5,-150.86 141.5,-141.99"/>
<polygon fill="midnightblue" stroke="midnightblue" points="145,-141.75 141.5,-131.75 138,-141.75 145,-141.75"/>
</g>
<!-- Node9 -->
<g id="node9" class="node">
<title>Node9</title>
<g id="a_node9"><a xlink:title=" ">
<polygon fill="none" stroke="#bfbfbf" points="212,-112.5 212,-131.5 287,-131.5 287,-112.5 212,-112.5"/>
<text text-anchor="middle" x="249.5" y="-119.5" font-family="Helvetica,sans-Serif" font-size="10.00">SDL_image.h</text>
</a>
</g>
</g>
<!-- Node1&#45;&gt;Node9 -->
<g id="edge10" class="edge">
<title>Node1&#45;&gt;Node9</title>
<path fill="none" stroke="midnightblue" d="M158.85,-168.32C176.17,-159.66 203.02,-146.24 223,-136.25"/>
<polygon fill="midnightblue" stroke="midnightblue" points="224.81,-139.26 232.19,-131.65 221.68,-133 224.81,-139.26"/>
</g>
<!-- Node4 -->
<g id="node4" class="node">
<title>Node4</title>
<g id="a_node4"><a xlink:href="Texture_8hpp.html" target="_top" xlink:title=" ">
<polygon fill="none" stroke="black" points="46,-56.5 46,-75.5 155,-75.5 155,-56.5 46,-56.5"/>
<text text-anchor="middle" x="100.5" y="-63.5" font-family="Helvetica,sans-Serif" font-size="10.00">../Models/Texture.hpp</text>
</a>
</g>
</g>
<!-- Node3&#45;&gt;Node4 -->
<g id="edge3" class="edge">
<title>Node3&#45;&gt;Node4</title>
<path fill="none" stroke="midnightblue" d="M134.73,-112.08C128.94,-104.46 120.44,-93.26 113.36,-83.94"/>
<polygon fill="midnightblue" stroke="midnightblue" points="115.98,-81.6 107.14,-75.75 110.4,-85.83 115.98,-81.6"/>
</g>
<!-- Node5 -->
<g id="node5" class="node">
<title>Node5</title>
<g id="a_node5"><a xlink:title=" ">
<polygon fill="none" stroke="#bfbfbf" points="0,-0.5 0,-19.5 41,-19.5 41,-0.5 0,-0.5"/>
<text text-anchor="middle" x="20.5" y="-7.5" font-family="Helvetica,sans-Serif" font-size="10.00">string</text>
</a>
</g>
</g>
<!-- Node3&#45;&gt;Node5 -->
<g id="edge9" class="edge">
<title>Node3&#45;&gt;Node5</title>
<path fill="none" stroke="midnightblue" d="M100.51,-112.45C78.89,-105.92 53.58,-94.74 37.5,-76 26.47,-63.15 22.49,-43.97 21.1,-29.77"/>
<polygon fill="midnightblue" stroke="midnightblue" points="24.59,-29.43 20.46,-19.67 17.6,-29.87 24.59,-29.43"/>
</g>
<!-- Node6 -->
<g id="node6" class="node">
<title>Node6</title>
<g id="a_node6"><a xlink:title=" ">
<polygon fill="none" stroke="#bfbfbf" points="157,-0.5 157,-19.5 208,-19.5 208,-0.5 157,-0.5"/>
<text text-anchor="middle" x="182.5" y="-7.5" font-family="Helvetica,sans-Serif" font-size="10.00">memory</text>
</a>
</g>
</g>
<!-- Node3&#45;&gt;Node6 -->
<g id="edge8" class="edge">
<title>Node3&#45;&gt;Node6</title>
<path fill="none" stroke="midnightblue" d="M146.63,-112.28C151.7,-103.39 159.41,-89.08 164.5,-76 170.47,-60.66 175.32,-42.56 178.47,-29.36"/>
<polygon fill="midnightblue" stroke="midnightblue" points="181.88,-30.12 180.7,-19.59 175.06,-28.56 181.88,-30.12"/>
</g>
<!-- Node8 -->
<g id="node8" class="node">
<title>Node8</title>
<g id="a_node8"><a xlink:title=" ">
<polygon fill="none" stroke="#bfbfbf" points="212,-56.5 212,-75.5 247,-75.5 247,-56.5 212,-56.5"/>
<text text-anchor="middle" x="229.5" y="-63.5" font-family="Helvetica,sans-Serif" font-size="10.00">map</text>
</a>
</g>
</g>
<!-- Node3&#45;&gt;Node8 -->
<g id="edge7" class="edge">
<title>Node3&#45;&gt;Node8</title>
<path fill="none" stroke="midnightblue" d="M155.64,-112.32C169.37,-103.9 190.44,-90.97 206.56,-81.07"/>
<polygon fill="midnightblue" stroke="midnightblue" points="208.7,-83.87 215.4,-75.65 205.04,-77.9 208.7,-83.87"/>
</g>
<!-- Node4&#45;&gt;Node5 -->
<g id="edge4" class="edge">
<title>Node4&#45;&gt;Node5</title>
<path fill="none" stroke="midnightblue" d="M87.65,-56.32C75.28,-47.98 56.37,-35.21 41.76,-25.35"/>
<polygon fill="midnightblue" stroke="midnightblue" points="43.57,-22.35 33.32,-19.65 39.65,-28.15 43.57,-22.35"/>
</g>
<!-- Node4&#45;&gt;Node6 -->
<g id="edge5" class="edge">
<title>Node4&#45;&gt;Node6</title>
<path fill="none" stroke="midnightblue" d="M113.67,-56.32C126.35,-47.98 145.73,-35.21 160.71,-25.35"/>
<polygon fill="midnightblue" stroke="midnightblue" points="162.93,-28.08 169.36,-19.65 159.08,-22.23 162.93,-28.08"/>
</g>
<!-- Node7 -->
<g id="node7" class="node">
<title>Node7</title>
<g id="a_node7"><a xlink:title=" ">
<polygon fill="none" stroke="#bfbfbf" points="62.5,-0.5 62.5,-19.5 138.5,-19.5 138.5,-0.5 62.5,-0.5"/>
<text text-anchor="middle" x="100.5" y="-7.5" font-family="Helvetica,sans-Serif" font-size="10.00">SDL_render.h</text>
</a>
</g>
</g>
<!-- Node4&#45;&gt;Node7 -->
<g id="edge6" class="edge">
<title>Node4&#45;&gt;Node7</title>
<path fill="none" stroke="midnightblue" d="M100.5,-56.08C100.5,-49.01 100.5,-38.86 100.5,-29.99"/>
<polygon fill="midnightblue" stroke="midnightblue" points="104,-29.75 100.5,-19.75 97,-29.75 104,-29.75"/>
</g>
</g>
</svg>
