<?xml version="1.0" encoding="UTF-8" standalone="no"?>
<!DOCTYPE svg PUBLIC "-//W3C//DTD SVG 1.1//EN"
 "http://www.w3.org/Graphics/SVG/1.1/DTD/svg11.dtd">
<!-- Generated by graphviz version 2.44.0 ()
 -->
<!-- Title: includes/spic&#45;api&#45;headers/Time.hpp Pages: 1 -->
<svg width="974pt" height="106pt"
 viewBox="0.00 0.00 973.50 106.00" xmlns="http://www.w3.org/2000/svg" xmlns:xlink="http://www.w3.org/1999/xlink">
<g id="graph0" class="graph" transform="scale(1 1) rotate(0) translate(4 102)">
<title>includes/spic&#45;api&#45;headers/Time.hpp</title>
<!-- Node1 -->
<g id="node1" class="node">
<title>Node1</title>
<g id="a_node1"><a xlink:title=" ">
<polygon fill="#bfbfbf" stroke="black" points="423.5,-67.5 423.5,-97.5 550.5,-97.5 550.5,-67.5 423.5,-67.5"/>
<text text-anchor="start" x="431.5" y="-85.5" font-family="Helvetica,sans-Serif" font-size="10.00">includes/spic&#45;api&#45;headers</text>
<text text-anchor="middle" x="487" y="-74.5" font-family="Helvetica,sans-Serif" font-size="10.00">/Time.hpp</text>
</a>
</g>
</g>
<!-- Node2 -->
<g id="node2" class="node">
<title>Node2</title>
<g id="a_node2"><a xlink:href="src_2Api_2Time_8cpp.html" target="_top" xlink:title=" ">
<polygon fill="none" stroke="black" points="0,-6 0,-25 90,-25 90,-6 0,-6"/>
<text text-anchor="middle" x="45" y="-13" font-family="Helvetica,sans-Serif" font-size="10.00">src/Api/Time.cpp</text>
</a>
</g>
</g>
<!-- Node1&#45;&gt;Node2 -->
<g id="edge1" class="edge">
<title>Node1&#45;&gt;Node2</title>
<path fill="none" stroke="midnightblue" d="M413.15,-74.84C334.73,-67.08 207.4,-52.51 99,-31 90.81,-29.38 82.03,-27.21 73.98,-25.04"/>
<polygon fill="midnightblue" stroke="midnightblue" points="413.11,-78.35 423.41,-75.84 413.8,-71.38 413.11,-78.35"/>
</g>
<!-- Node3 -->
<g id="node3" class="node">
<title>Node3</title>
<g id="a_node3"><a xlink:href="AnimatorSubsystem_8cpp.html" target="_top" xlink:title=" ">
<polygon fill="none" stroke="black" points="108,-6 108,-25 304,-25 304,-6 108,-6"/>
<text text-anchor="middle" x="206" y="-13" font-family="Helvetica,sans-Serif" font-size="10.00">src/Subsystems/AnimatorSubsystem.cpp</text>
</a>
</g>
</g>
<!-- Node1&#45;&gt;Node3 -->
<g id="edge2" class="edge">
<title>Node1&#45;&gt;Node3</title>
<path fill="none" stroke="midnightblue" d="M416.31,-65.15C361.17,-52.39 286.8,-35.19 242.87,-25.03"/>
<polygon fill="midnightblue" stroke="midnightblue" points="415.84,-68.63 426.37,-67.48 417.42,-61.81 415.84,-68.63"/>
</g>
<!-- Node4 -->
<g id="node4" class="node">
<title>Node4</title>
<g id="a_node4"><a xlink:href="GameSpeedSubsystem_8cpp.html" target="_top" xlink:title=" ">
<polygon fill="none" stroke="black" points="322,-0.5 322,-30.5 466,-30.5 466,-0.5 322,-0.5"/>
<text text-anchor="start" x="330" y="-18.5" font-family="Helvetica,sans-Serif" font-size="10.00">src/Subsystems/GameSpeed</text>
<text text-anchor="middle" x="394" y="-7.5" font-family="Helvetica,sans-Serif" font-size="10.00">Subsystem.cpp</text>
</a>
</g>
</g>
<!-- Node1&#45;&gt;Node4 -->
<g id="edge3" class="edge">
<title>Node1&#45;&gt;Node4</title>
<path fill="none" stroke="midnightblue" d="M458.31,-61.45C444.01,-51.45 427.05,-39.6 414.14,-30.58"/>
<polygon fill="midnightblue" stroke="midnightblue" points="456.62,-64.54 466.82,-67.4 460.63,-58.8 456.62,-64.54"/>
</g>
<!-- Node5 -->
<g id="node5" class="node">
<title>Node5</title>
<g id="a_node5"><a xlink:href="PhysicsSubsystem_8cpp.html" target="_top" xlink:title=" ">
<polygon fill="none" stroke="black" points="484.5,-6 484.5,-25 675.5,-25 675.5,-6 484.5,-6"/>
<text text-anchor="middle" x="580" y="-13" font-family="Helvetica,sans-Serif" font-size="10.00">src/Subsystems/PhysicsSubsystem.cpp</text>
</a>
</g>
</g>
<!-- Node1&#45;&gt;Node5 -->
<g id="edge4" class="edge">
<title>Node1&#45;&gt;Node5</title>
<path fill="none" stroke="midnightblue" d="M515.41,-61.64C532.96,-49.37 554.59,-34.26 567.83,-25.01"/>
<polygon fill="midnightblue" stroke="midnightblue" points="513.37,-58.8 507.18,-67.4 517.38,-64.54 513.37,-58.8"/>
</g>
<!-- Node6 -->
<g id="node6" class="node">
<title>Node6</title>
<g id="a_node6"><a xlink:href="Api_8hpp.html" target="_top" xlink:title=" ">
<polygon fill="none" stroke="black" points="693.5,-0.5 693.5,-30.5 820.5,-30.5 820.5,-0.5 693.5,-0.5"/>
<text text-anchor="start" x="701.5" y="-18.5" font-family="Helvetica,sans-Serif" font-size="10.00">includes/spic&#45;api&#45;headers</text>
<text text-anchor="middle" x="757" y="-7.5" font-family="Helvetica,sans-Serif" font-size="10.00">/Api.hpp</text>
</a>
</g>
</g>
<!-- Node1&#45;&gt;Node6 -->
<g id="edge5" class="edge">
<title>Node1&#45;&gt;Node6</title>
<path fill="none" stroke="midnightblue" d="M555.05,-65.12C599.23,-54.48 656.22,-40.76 698.39,-30.61"/>
<polygon fill="midnightblue" stroke="midnightblue" points="554.16,-61.73 545.25,-67.48 555.8,-68.54 554.16,-61.73"/>
</g>
<!-- Node7 -->
<g id="node7" class="node">
<title>Node7</title>
<g id="a_node7"><a xlink:href="includes_2spic-api-headers_2Time_8cpp.html" target="_top" xlink:title=" ">
<polygon fill="none" stroke="black" points="838.5,-0.5 838.5,-30.5 965.5,-30.5 965.5,-0.5 838.5,-0.5"/>
<text text-anchor="start" x="846.5" y="-18.5" font-family="Helvetica,sans-Serif" font-size="10.00">includes/spic&#45;api&#45;headers</text>
<text text-anchor="middle" x="902" y="-7.5" font-family="Helvetica,sans-Serif" font-size="10.00">/Time.cpp</text>
</a>
</g>
</g>
<!-- Node1&#45;&gt;Node7 -->
<g id="edge6" class="edge">
<title>Node1&#45;&gt;Node7</title>
<path fill="none" stroke="midnightblue" d="M560.68,-71.79C630.26,-62.36 737.45,-47.12 830,-31 832.76,-30.52 835.58,-30.01 838.43,-29.49"/>
<polygon fill="midnightblue" stroke="midnightblue" points="560.13,-68.33 550.69,-73.14 561.07,-75.27 560.13,-68.33"/>
</g>
</g>
</svg>
