<?xml version="1.0" encoding="UTF-8" standalone="no"?>
<!DOCTYPE svg PUBLIC "-//W3C//DTD SVG 1.1//EN"
 "http://www.w3.org/Graphics/SVG/1.1/DTD/svg11.dtd">
<!-- Generated by graphviz version 2.44.0 ()
 -->
<!-- Title: includes/spic&#45;api&#45;headers/Transform.hpp Pages: 1 -->
<!--zoomable 497 -->
<svg id="main" version="1.1" xmlns="http://www.w3.org/2000/svg" xmlns:xlink="http://www.w3.org/1999/xlink" xml:space="preserve" onload="init(evt)">
<style type="text/css"><![CDATA[
.edge:hover path { stroke: red; }
.edge:hover polygon { stroke: red; fill: red; }
]]></style>
<script type="text/javascript"><![CDATA[
var edges = document.getElementsByTagName('g');
if (edges && edges.length) {
  for (var i=0;i<edges.length;i++) {
    if (edges[i].id.substr(0,4)=='edge') {
      edges[i].setAttribute('class','edge');
    }
  }
}
]]></script>
        <defs>
                <circle id="rim" cx="0" cy="0" r="7"/>
                <circle id="rim2" cx="0" cy="0" r="3.5"/>
                <g id="zoomPlus">
                        <use xlink:href="#rim" fill="#404040">
                                <set attributeName="fill" to="#808080" begin="zoomplus.mouseover" end="zoomplus.mouseout"/>
                        </use>
                        <path d="M-4,0h8M0,-4v8" fill="none" stroke="white" stroke-width="1.5" pointer-events="none"/>
                </g>
                <g id="zoomMin">
                        <use xlink:href="#rim" fill="#404040">
                                <set attributeName="fill" to="#808080" begin="zoomminus.mouseover" end="zoomminus.mouseout"/>
                        </use>
                        <path d="M-4,0h8" fill="none" stroke="white" stroke-width="1.5" pointer-events="none"/>
                </g>
                <g id="dirArrow">
                        <path fill="none" stroke="white" stroke-width="1.5" d="M0,-3.0v7 M-2.5,-0.5L0,-3.0L2.5,-0.5"/>
                </g>
               <g id="resetDef">
                       <use xlink:href="#rim2" fill="#404040">
                               <set attributeName="fill" to="#808080" begin="reset.mouseover" end="reset.mouseout"/>
                       </use>
               </g>
        </defs>

<script type="text/javascript">
var viewWidth = 2307;
var viewHeight = 497;
var sectionId = 'dynsection-1';
</script>
<script xlink:href="svgpan.js"/>
<svg id="graph" class="graph">
<g id="viewport">
<title>includes/spic&#45;api&#45;headers/Transform.hpp</title>
<!-- Node1 -->
<g id="node1" class="node">
<title>Node1</title>
<g id="a_node1"><a xlink:title=" ">
<polygon fill="#bfbfbf" stroke="black" points="664,-458.5 664,-488.5 791,-488.5 791,-458.5 664,-458.5"/>
<text text-anchor="start" x="672" y="-476.5" font-family="Helvetica,sans-Serif" font-size="10.00">includes/spic&#45;api&#45;headers</text>
<text text-anchor="middle" x="727.5" y="-465.5" font-family="Helvetica,sans-Serif" font-size="10.00">/Transform.hpp</text>
</a>
</g>
</g>
<!-- Node2 -->
<g id="node2" class="node">
<title>Node2</title>
<g id="a_node2"><a xlink:href="Transform_8cpp.html" target="_top" xlink:title=" ">
<polygon fill="none" stroke="black" points="0,-397 0,-416 113,-416 113,-397 0,-397"/>
<text text-anchor="middle" x="56.5" y="-404" font-family="Helvetica,sans-Serif" font-size="10.00">src/Api/Transform.cpp</text>
</a>
</g>
</g>
<!-- Node1&#45;&gt;Node2 -->
<g id="edge1" class="edge">
<title>Node1&#45;&gt;Node2</title>
<path fill="none" stroke="midnightblue" d="M653.41,-469.07C539.79,-463.18 315.89,-449.07 127.5,-422 116.54,-420.43 104.73,-418.22 93.94,-416"/>
<polygon fill="midnightblue" stroke="midnightblue" points="653.56,-472.58 663.73,-469.6 653.92,-465.59 653.56,-472.58"/>
</g>
<!-- Node3 -->
<g id="node3" class="node">
<title>Node3</title>
<g id="a_node3"><a xlink:href="Window_8hpp.html" target="_top" xlink:title=" ">
<polygon fill="none" stroke="black" points="699.5,-196 699.5,-215 819.5,-215 819.5,-196 699.5,-196"/>
<text text-anchor="middle" x="759.5" y="-203" font-family="Helvetica,sans-Serif" font-size="10.00">src/Models/Window.hpp</text>
</a>
</g>
</g>
<!-- Node1&#45;&gt;Node3 -->
<g id="edge2" class="edge">
<title>Node1&#45;&gt;Node3</title>
<path fill="none" stroke="midnightblue" d="M653.74,-466.06C485.97,-449.94 95.2,-403.36 160.5,-324 228.43,-241.45 561.32,-216.04 699.35,-208.97"/>
<polygon fill="midnightblue" stroke="midnightblue" points="653.45,-469.55 663.73,-467.01 654.11,-462.58 653.45,-469.55"/>
</g>
<!-- Node14 -->
<g id="node14" class="node">
<title>Node14</title>
<g id="a_node14"><a xlink:href="Api_8hpp.html" target="_top" xlink:title=" ">
<polygon fill="none" stroke="black" points="1725,-190.5 1725,-220.5 1852,-220.5 1852,-190.5 1725,-190.5"/>
<text text-anchor="start" x="1733" y="-208.5" font-family="Helvetica,sans-Serif" font-size="10.00">includes/spic&#45;api&#45;headers</text>
<text text-anchor="middle" x="1788.5" y="-197.5" font-family="Helvetica,sans-Serif" font-size="10.00">/Api.hpp</text>
</a>
</g>
</g>
<!-- Node1&#45;&gt;Node14 -->
<g id="edge16" class="edge">
<title>Node1&#45;&gt;Node14</title>
<path fill="none" stroke="midnightblue" d="M801.47,-472.5C1091.86,-471.76 2142.88,-461.65 2241.5,-355 2253.03,-342.53 2261.36,-280.72 2239.5,-257 2213.74,-229.04 1970.48,-214.54 1852.32,-209.09"/>
<polygon fill="midnightblue" stroke="midnightblue" points="801.04,-469 791.05,-472.53 801.06,-476 801.04,-469"/>
</g>
<!-- Node15 -->
<g id="node15" class="node">
<title>Node15</title>
<g id="a_node15"><a xlink:href="GameObject_8hpp.html" target="_top" xlink:title=" ">
<polygon fill="none" stroke="black" points="1250,-391.5 1250,-421.5 1377,-421.5 1377,-391.5 1250,-391.5"/>
<text text-anchor="start" x="1258" y="-409.5" font-family="Helvetica,sans-Serif" font-size="10.00">includes/spic&#45;api&#45;headers</text>
<text text-anchor="middle" x="1313.5" y="-398.5" font-family="Helvetica,sans-Serif" font-size="10.00">/GameObject.hpp</text>
</a>
</g>
</g>
<!-- Node1&#45;&gt;Node15 -->
<g id="edge17" class="edge">
<title>Node1&#45;&gt;Node15</title>
<path fill="none" stroke="midnightblue" d="M801.25,-464.32C917.2,-451.46 1140.2,-426.72 1249.68,-414.58"/>
<polygon fill="midnightblue" stroke="midnightblue" points="800.6,-460.87 791.05,-465.45 801.37,-467.83 800.6,-460.87"/>
</g>
<!-- Node4 -->
<g id="node4" class="node">
<title>Node4</title>
<g id="a_node4"><a xlink:href="TimeManager_8hpp.html" target="_top" xlink:title=" ">
<polygon fill="none" stroke="black" points="586.5,-129 586.5,-148 742.5,-148 742.5,-129 586.5,-129"/>
<text text-anchor="middle" x="664.5" y="-136" font-family="Helvetica,sans-Serif" font-size="10.00">src/Managers/TimeManager.hpp</text>
</a>
</g>
</g>
<!-- Node3&#45;&gt;Node4 -->
<g id="edge3" class="edge">
<title>Node3&#45;&gt;Node4</title>
<path fill="none" stroke="midnightblue" d="M738.19,-189.92C719.41,-177.07 692.68,-158.78 677.11,-148.13"/>
<polygon fill="midnightblue" stroke="midnightblue" points="736.46,-192.98 746.69,-195.73 740.41,-187.2 736.46,-192.98"/>
</g>
<!-- Node9 -->
<g id="node9" class="node">
<title>Node9</title>
<g id="a_node9"><a xlink:href="Window_8cpp.html" target="_top" xlink:title=" ">
<polygon fill="none" stroke="black" points="966.5,-129 966.5,-148 1086.5,-148 1086.5,-129 966.5,-129"/>
<text text-anchor="middle" x="1026.5" y="-136" font-family="Helvetica,sans-Serif" font-size="10.00">src/Models/Window.cpp</text>
</a>
</g>
</g>
<!-- Node3&#45;&gt;Node9 -->
<g id="edge8" class="edge">
<title>Node3&#45;&gt;Node9</title>
<path fill="none" stroke="midnightblue" d="M804.42,-193.56C857.06,-180.75 943.18,-159.78 991.24,-148.08"/>
<polygon fill="midnightblue" stroke="midnightblue" points="803.57,-190.17 794.68,-195.94 805.22,-196.97 803.57,-190.17"/>
</g>
<!-- Node10 -->
<g id="node10" class="node">
<title>Node10</title>
<g id="a_node10"><a xlink:href="FpsCounterSubsystem_8hpp.html" target="_top" xlink:title=" ">
<polygon fill="none" stroke="black" points="428.5,-123.5 428.5,-153.5 568.5,-153.5 568.5,-123.5 428.5,-123.5"/>
<text text-anchor="start" x="436.5" y="-141.5" font-family="Helvetica,sans-Serif" font-size="10.00">src/Subsystems/FpsCounter</text>
<text text-anchor="middle" x="498.5" y="-130.5" font-family="Helvetica,sans-Serif" font-size="10.00">Subsystem.hpp</text>
</a>
</g>
</g>
<!-- Node3&#45;&gt;Node10 -->
<g id="edge9" class="edge">
<title>Node3&#45;&gt;Node10</title>
<path fill="none" stroke="midnightblue" d="M715.24,-193.48C671.06,-182.47 603,-165.52 554.95,-153.56"/>
<polygon fill="midnightblue" stroke="midnightblue" points="714.56,-196.92 725.11,-195.94 716.25,-190.12 714.56,-196.92"/>
</g>
<!-- Node12 -->
<g id="node12" class="node">
<title>Node12</title>
<g id="a_node12"><a xlink:href="RenderSubsystem_8hpp.html" target="_top" xlink:title=" ">
<polygon fill="none" stroke="black" points="760.5,-129 760.5,-148 948.5,-148 948.5,-129 760.5,-129"/>
<text text-anchor="middle" x="854.5" y="-136" font-family="Helvetica,sans-Serif" font-size="10.00">src/Subsystems/RenderSubsystem.hpp</text>
</a>
</g>
</g>
<!-- Node3&#45;&gt;Node12 -->
<g id="edge13" class="edge">
<title>Node3&#45;&gt;Node12</title>
<path fill="none" stroke="midnightblue" d="M780.81,-189.92C799.59,-177.07 826.32,-158.78 841.89,-148.13"/>
<polygon fill="midnightblue" stroke="midnightblue" points="778.59,-187.2 772.31,-195.73 782.54,-192.98 778.59,-187.2"/>
</g>
<!-- Node5 -->
<g id="node5" class="node">
<title>Node5</title>
<g id="a_node5"><a xlink:href="Engine_8cpp.html" target="_top" xlink:title=" ">
<polygon fill="none" stroke="black" points="448.5,-0.5 448.5,-19.5 546.5,-19.5 546.5,-0.5 448.5,-0.5"/>
<text text-anchor="middle" x="497.5" y="-7.5" font-family="Helvetica,sans-Serif" font-size="10.00">src/Api/Engine.cpp</text>
</a>
</g>
</g>
<!-- Node4&#45;&gt;Node5 -->
<g id="edge4" class="edge">
<title>Node4&#45;&gt;Node5</title>
<path fill="none" stroke="midnightblue" d="M657,-119.33C648.61,-101.06 633.41,-73.18 612.5,-56 590.39,-37.83 560.06,-26.37 536.11,-19.57"/>
<polygon fill="midnightblue" stroke="midnightblue" points="653.83,-120.84 661.04,-128.6 660.25,-118.04 653.83,-120.84"/>
</g>
<!-- Node6 -->
<g id="node6" class="node">
<title>Node6</title>
<g id="a_node6"><a xlink:href="src_2Api_2Time_8cpp.html" target="_top" xlink:title=" ">
<polygon fill="none" stroke="black" points="659.5,-62 659.5,-81 749.5,-81 749.5,-62 659.5,-62"/>
<text text-anchor="middle" x="704.5" y="-69" font-family="Helvetica,sans-Serif" font-size="10.00">src/Api/Time.cpp</text>
</a>
</g>
</g>
<!-- Node4&#45;&gt;Node6 -->
<g id="edge5" class="edge">
<title>Node4&#45;&gt;Node6</title>
<path fill="none" stroke="midnightblue" d="M675.25,-120.03C682.99,-107.45 693.11,-91.01 699.19,-81.13"/>
<polygon fill="midnightblue" stroke="midnightblue" points="672.15,-118.38 669.89,-128.73 678.12,-122.05 672.15,-118.38"/>
</g>
<!-- Node7 -->
<g id="node7" class="node">
<title>Node7</title>
<g id="a_node7"><a xlink:href="TimeManager_8cpp.html" target="_top" xlink:title=" ">
<polygon fill="none" stroke="black" points="767.5,-62 767.5,-81 923.5,-81 923.5,-62 767.5,-62"/>
<text text-anchor="middle" x="845.5" y="-69" font-family="Helvetica,sans-Serif" font-size="10.00">src/Managers/TimeManager.cpp</text>
</a>
</g>
</g>
<!-- Node4&#45;&gt;Node7 -->
<g id="edge6" class="edge">
<title>Node4&#45;&gt;Node7</title>
<path fill="none" stroke="midnightblue" d="M698.09,-125.44C734,-112.54 790.02,-92.42 821.65,-81.06"/>
<polygon fill="midnightblue" stroke="midnightblue" points="696.76,-122.19 688.54,-128.87 699.13,-128.78 696.76,-122.19"/>
</g>
<!-- Node8 -->
<g id="node8" class="node">
<title>Node8</title>
<g id="a_node8"><a xlink:href="FpsCounterSubsystem_8cpp.html" target="_top" xlink:title=" ">
<polygon fill="none" stroke="black" points="463.5,-56.5 463.5,-86.5 603.5,-86.5 603.5,-56.5 463.5,-56.5"/>
<text text-anchor="start" x="471.5" y="-74.5" font-family="Helvetica,sans-Serif" font-size="10.00">src/Subsystems/FpsCounter</text>
<text text-anchor="middle" x="533.5" y="-63.5" font-family="Helvetica,sans-Serif" font-size="10.00">Subsystem.cpp</text>
</a>
</g>
</g>
<!-- Node4&#45;&gt;Node8 -->
<g id="edge7" class="edge">
<title>Node4&#45;&gt;Node8</title>
<path fill="none" stroke="midnightblue" d="M637.98,-124.34C615.93,-113.4 584.61,-97.86 562.02,-86.65"/>
<polygon fill="midnightblue" stroke="midnightblue" points="636.59,-127.56 647.1,-128.87 639.7,-121.29 636.59,-127.56"/>
</g>
<!-- Node10&#45;&gt;Node8 -->
<g id="edge10" class="edge">
<title>Node10&#45;&gt;Node8</title>
<path fill="none" stroke="midnightblue" d="M510.84,-114.58C515.87,-105.24 521.52,-94.75 525.92,-86.58"/>
<polygon fill="midnightblue" stroke="midnightblue" points="507.75,-112.93 506.09,-123.4 513.92,-116.25 507.75,-112.93"/>
</g>
<!-- Node11 -->
<g id="node11" class="node">
<title>Node11</title>
<g id="a_node11"><a xlink:href="Subsystems_8hpp.html" target="_top" xlink:title=" ">
<polygon fill="none" stroke="black" points="283.5,-62 283.5,-81 445.5,-81 445.5,-62 283.5,-62"/>
<text text-anchor="middle" x="364.5" y="-69" font-family="Helvetica,sans-Serif" font-size="10.00">src/Subsystems/Subsystems.hpp</text>
</a>
</g>
</g>
<!-- Node10&#45;&gt;Node11 -->
<g id="edge11" class="edge">
<title>Node10&#45;&gt;Node11</title>
<path fill="none" stroke="midnightblue" d="M460.29,-118.97C434.55,-106.48 401.81,-90.6 382.04,-81.01"/>
<polygon fill="midnightblue" stroke="midnightblue" points="458.9,-122.18 469.42,-123.4 461.95,-115.88 458.9,-122.18"/>
</g>
<!-- Node11&#45;&gt;Node5 -->
<g id="edge12" class="edge">
<title>Node11&#45;&gt;Node5</title>
<path fill="none" stroke="midnightblue" d="M392.83,-57.83C418.65,-46.28 456.08,-29.53 478.48,-19.51"/>
<polygon fill="midnightblue" stroke="midnightblue" points="391.25,-54.7 383.56,-61.98 394.11,-61.09 391.25,-54.7"/>
</g>
<!-- Node12&#45;&gt;Node11 -->
<g id="edge15" class="edge">
<title>Node12&#45;&gt;Node11</title>
<path fill="none" stroke="midnightblue" d="M785.2,-127.56C773.94,-126 762.4,-124.43 751.5,-123 619.66,-105.73 586.16,-105.58 454.5,-87 441.81,-85.21 428.14,-83.1 415.38,-81.05"/>
<polygon fill="midnightblue" stroke="midnightblue" points="785.04,-131.07 795.43,-128.99 786.01,-124.14 785.04,-131.07"/>
</g>
<!-- Node13 -->
<g id="node13" class="node">
<title>Node13</title>
<g id="a_node13"><a xlink:href="RenderSubsystem_8cpp.html" target="_top" xlink:title=" ">
<polygon fill="none" stroke="black" points="1545.5,-62 1545.5,-81 1733.5,-81 1733.5,-62 1545.5,-62"/>
<text text-anchor="middle" x="1639.5" y="-69" font-family="Helvetica,sans-Serif" font-size="10.00">src/Subsystems/RenderSubsystem.cpp</text>
</a>
</g>
</g>
<!-- Node12&#45;&gt;Node13 -->
<g id="edge14" class="edge">
<title>Node12&#45;&gt;Node13</title>
<path fill="none" stroke="midnightblue" d="M920.47,-127.56C932.76,-125.89 945.51,-124.29 957.5,-123 1166.89,-100.53 1413.53,-84.96 1545.28,-77.51"/>
<polygon fill="midnightblue" stroke="midnightblue" points="919.7,-124.13 910.28,-128.96 920.66,-131.06 919.7,-124.13"/>
</g>
<!-- Node15&#45;&gt;Node13 -->
<g id="edge30" class="edge">
<title>Node15&#45;&gt;Node13</title>
<path fill="none" stroke="midnightblue" d="M1387.39,-405.17C1594.05,-403.73 2167.7,-396.03 2241.5,-355 2280.13,-333.52 2298.5,-317.7 2298.5,-273.5 2298.5,-273.5 2298.5,-273.5 2298.5,-204.5 2298.5,-90.66 1915.65,-73.67 1733.57,-72.03"/>
<polygon fill="midnightblue" stroke="midnightblue" points="1387.22,-401.67 1377.24,-405.24 1387.27,-408.67 1387.22,-401.67"/>
</g>
<!-- Node15&#45;&gt;Node14 -->
<g id="edge31" class="edge">
<title>Node15&#45;&gt;Node14</title>
<path fill="none" stroke="midnightblue" d="M1387.36,-406.04C1565.74,-406.56 2008.69,-402.97 2053.5,-355 2092.19,-313.58 2018.16,-271.33 1994.5,-257 1951.19,-230.77 1894.98,-218.15 1852.22,-212.08"/>
<polygon fill="midnightblue" stroke="midnightblue" points="1387.29,-402.54 1377.28,-406 1387.27,-409.54 1387.29,-402.54"/>
</g>
<!-- Node16 -->
<g id="node16" class="node">
<title>Node16</title>
<g id="a_node16"><a xlink:href="Animator_8cpp.html" target="_top" xlink:title=" ">
<polygon fill="none" stroke="black" points="379,-330 379,-349 486,-349 486,-330 379,-330"/>
<text text-anchor="middle" x="432.5" y="-337" font-family="Helvetica,sans-Serif" font-size="10.00">src/Api/Animator.cpp</text>
</a>
</g>
</g>
<!-- Node15&#45;&gt;Node16 -->
<g id="edge18" class="edge">
<title>Node15&#45;&gt;Node16</title>
<path fill="none" stroke="midnightblue" d="M1239.72,-405C1095.82,-403.13 767.95,-394.49 495.5,-355 485.5,-353.55 474.75,-351.33 465.01,-349.06"/>
<polygon fill="midnightblue" stroke="midnightblue" points="1239.71,-408.5 1249.76,-405.12 1239.8,-401.5 1239.71,-408.5"/>
</g>
<!-- Node17 -->
<g id="node17" class="node">
<title>Node17</title>
<g id="a_node17"><a xlink:href="AudioSource_8cpp.html" target="_top" xlink:title=" ">
<polygon fill="none" stroke="black" points="504.5,-330 504.5,-349 628.5,-349 628.5,-330 504.5,-330"/>
<text text-anchor="middle" x="566.5" y="-337" font-family="Helvetica,sans-Serif" font-size="10.00">src/Api/AudioSource.cpp</text>
</a>
</g>
</g>
<!-- Node15&#45;&gt;Node17 -->
<g id="edge19" class="edge">
<title>Node15&#45;&gt;Node17</title>
<path fill="none" stroke="midnightblue" d="M1239.65,-403.05C1115.01,-398.23 855.19,-385.24 637.5,-355 626.53,-353.48 614.72,-351.29 603.93,-349.07"/>
<polygon fill="midnightblue" stroke="midnightblue" points="1239.71,-406.56 1249.84,-403.44 1239.98,-399.56 1239.71,-406.56"/>
</g>
<!-- Node18 -->
<g id="node18" class="node">
<title>Node18</title>
<g id="a_node18"><a xlink:href="GameObject_8cpp.html" target="_top" xlink:title=" ">
<polygon fill="none" stroke="black" points="647,-330 647,-349 770,-349 770,-330 647,-330"/>
<text text-anchor="middle" x="708.5" y="-337" font-family="Helvetica,sans-Serif" font-size="10.00">src/Api/GameObject.cpp</text>
</a>
</g>
</g>
<!-- Node15&#45;&gt;Node18 -->
<g id="edge20" class="edge">
<title>Node15&#45;&gt;Node18</title>
<path fill="none" stroke="midnightblue" d="M1239.93,-401.05C1136.67,-394.23 943.07,-379.36 779.5,-355 768.67,-353.39 757.01,-351.2 746.32,-349.01"/>
<polygon fill="midnightblue" stroke="midnightblue" points="1239.73,-404.54 1249.94,-401.7 1240.19,-397.56 1239.73,-404.54"/>
</g>
<!-- Node19 -->
<g id="node19" class="node">
<title>Node19</title>
<g id="a_node19"><a xlink:href="ContactListener_8cpp.html" target="_top" xlink:title=" ">
<polygon fill="none" stroke="black" points="788.5,-330 788.5,-349 952.5,-349 952.5,-330 788.5,-330"/>
<text text-anchor="middle" x="870.5" y="-337" font-family="Helvetica,sans-Serif" font-size="10.00">src/Listeners/ContactListener.cpp</text>
</a>
</g>
</g>
<!-- Node15&#45;&gt;Node19 -->
<g id="edge21" class="edge">
<title>Node15&#45;&gt;Node19</title>
<path fill="none" stroke="midnightblue" d="M1239.77,-394.89C1169.51,-384.75 1060.77,-368.98 966.5,-355 953.58,-353.08 939.68,-351 926.59,-349.02"/>
<polygon fill="midnightblue" stroke="midnightblue" points="1239.45,-398.38 1249.85,-396.34 1240.45,-391.45 1239.45,-398.38"/>
</g>
<!-- Node20 -->
<g id="node20" class="node">
<title>Node20</title>
<g id="a_node20"><a xlink:href="InputManager_8cpp.html" target="_top" xlink:title=" ">
<polygon fill="none" stroke="black" points="1692.5,-263 1692.5,-282 1848.5,-282 1848.5,-263 1692.5,-263"/>
<text text-anchor="middle" x="1770.5" y="-270" font-family="Helvetica,sans-Serif" font-size="10.00">src/Managers/InputManager.cpp</text>
</a>
</g>
</g>
<!-- Node15&#45;&gt;Node20 -->
<g id="edge22" class="edge">
<title>Node15&#45;&gt;Node20</title>
<path fill="none" stroke="midnightblue" d="M1387.16,-403.09C1486.8,-398.67 1658.21,-386.6 1711.5,-355 1740.8,-337.63 1759.7,-299.43 1767.04,-282.22"/>
<polygon fill="midnightblue" stroke="midnightblue" points="1387,-399.59 1377.16,-403.52 1387.3,-406.59 1387,-399.59"/>
</g>
<!-- Node21 -->
<g id="node21" class="node">
<title>Node21</title>
<g id="a_node21"><a xlink:href="AnimatorSubsystem_8cpp.html" target="_top" xlink:title=" ">
<polygon fill="none" stroke="black" points="1008.5,-330 1008.5,-349 1204.5,-349 1204.5,-330 1008.5,-330"/>
<text text-anchor="middle" x="1106.5" y="-337" font-family="Helvetica,sans-Serif" font-size="10.00">src/Subsystems/AnimatorSubsystem.cpp</text>
</a>
</g>
</g>
<!-- Node15&#45;&gt;Node21 -->
<g id="edge23" class="edge">
<title>Node15&#45;&gt;Node21</title>
<path fill="none" stroke="midnightblue" d="M1259.14,-388.43C1218.77,-375.75 1165.42,-359 1133.66,-349.03"/>
<polygon fill="midnightblue" stroke="midnightblue" points="1258.25,-391.82 1268.84,-391.48 1260.35,-385.14 1258.25,-391.82"/>
</g>
<!-- Node22 -->
<g id="node22" class="node">
<title>Node22</title>
<g id="a_node22"><a xlink:href="AudioSubsystem_8cpp.html" target="_top" xlink:title=" ">
<polygon fill="none" stroke="black" points="1222.5,-330 1222.5,-349 1404.5,-349 1404.5,-330 1222.5,-330"/>
<text text-anchor="middle" x="1313.5" y="-337" font-family="Helvetica,sans-Serif" font-size="10.00">src/Subsystems/AudioSubsystem.cpp</text>
</a>
</g>
</g>
<!-- Node15&#45;&gt;Node22 -->
<g id="edge24" class="edge">
<title>Node15&#45;&gt;Node22</title>
<path fill="none" stroke="midnightblue" d="M1313.5,-381.25C1313.5,-370.02 1313.5,-357.38 1313.5,-349.19"/>
<polygon fill="midnightblue" stroke="midnightblue" points="1310,-381.4 1313.5,-391.4 1317,-381.4 1310,-381.4"/>
</g>
<!-- Node23 -->
<g id="node23" class="node">
<title>Node23</title>
<g id="a_node23"><a xlink:href="BehaviourScriptSubsystem_8cpp.html" target="_top" xlink:title=" ">
<polygon fill="none" stroke="black" points="1422.5,-324.5 1422.5,-354.5 1556.5,-354.5 1556.5,-324.5 1422.5,-324.5"/>
<text text-anchor="start" x="1430.5" y="-342.5" font-family="Helvetica,sans-Serif" font-size="10.00">src/Subsystems/Behaviour</text>
<text text-anchor="middle" x="1489.5" y="-331.5" font-family="Helvetica,sans-Serif" font-size="10.00">ScriptSubsystem.cpp</text>
</a>
</g>
</g>
<!-- Node15&#45;&gt;Node23 -->
<g id="edge25" class="edge">
<title>Node15&#45;&gt;Node23</title>
<path fill="none" stroke="midnightblue" d="M1361.38,-387.82C1389.67,-377.37 1424.99,-364.32 1451.39,-354.58"/>
<polygon fill="midnightblue" stroke="midnightblue" points="1359.86,-384.65 1351.69,-391.4 1362.28,-391.21 1359.86,-384.65"/>
</g>
<!-- Node24 -->
<g id="node24" class="node">
<title>Node24</title>
<g id="a_node24"><a xlink:href="PhysicsSubsystem_8cpp.html" target="_top" xlink:title=" ">
<polygon fill="none" stroke="black" points="606,-263 606,-282 797,-282 797,-263 606,-263"/>
<text text-anchor="middle" x="701.5" y="-270" font-family="Helvetica,sans-Serif" font-size="10.00">src/Subsystems/PhysicsSubsystem.cpp</text>
</a>
</g>
</g>
<!-- Node15&#45;&gt;Node24 -->
<g id="edge26" class="edge">
<title>Node15&#45;&gt;Node24</title>
<path fill="none" stroke="midnightblue" d="M1239.72,-404.37C1174.06,-400.92 1076.72,-389.66 999.5,-355 979.62,-346.08 981.24,-333.25 961.5,-324 910.07,-299.91 847.76,-287.31 797.02,-280.72"/>
<polygon fill="midnightblue" stroke="midnightblue" points="1239.83,-407.88 1249.98,-404.86 1240.16,-400.89 1239.83,-407.88"/>
</g>
<!-- Node25 -->
<g id="node25" class="node">
<title>Node25</title>
<g id="a_node25"><a xlink:href="PhysicsSubsystem_8hpp.html" target="_top" xlink:title=" ">
<polygon fill="none" stroke="black" points="170,-330 170,-349 361,-349 361,-330 170,-330"/>
<text text-anchor="middle" x="265.5" y="-337" font-family="Helvetica,sans-Serif" font-size="10.00">src/Subsystems/PhysicsSubsystem.hpp</text>
</a>
</g>
</g>
<!-- Node15&#45;&gt;Node25 -->
<g id="edge27" class="edge">
<title>Node15&#45;&gt;Node25</title>
<path fill="none" stroke="midnightblue" d="M1239.67,-403.69C1080.4,-399.31 692.81,-386.13 369.5,-355 353.44,-353.45 336.06,-351.24 320.18,-349.01"/>
<polygon fill="midnightblue" stroke="midnightblue" points="1239.74,-407.19 1249.83,-403.96 1239.93,-400.19 1239.74,-407.19"/>
</g>
<!-- Node26 -->
<g id="node26" class="node">
<title>Node26</title>
<g id="a_node26"><a xlink:href="Camera_8hpp.html" target="_top" xlink:title=" ">
<polygon fill="none" stroke="black" points="1759,-324.5 1759,-354.5 1886,-354.5 1886,-324.5 1759,-324.5"/>
<text text-anchor="start" x="1767" y="-342.5" font-family="Helvetica,sans-Serif" font-size="10.00">includes/spic&#45;api&#45;headers</text>
<text text-anchor="middle" x="1822.5" y="-331.5" font-family="Helvetica,sans-Serif" font-size="10.00">/Camera.hpp</text>
</a>
</g>
</g>
<!-- Node15&#45;&gt;Node26 -->
<g id="edge32" class="edge">
<title>Node15&#45;&gt;Node26</title>
<path fill="none" stroke="midnightblue" d="M1387.4,-398.37C1473.4,-389.71 1619.59,-373.91 1744.5,-355 1749.13,-354.3 1753.91,-353.53 1758.71,-352.72"/>
<polygon fill="midnightblue" stroke="midnightblue" points="1386.81,-394.91 1377.21,-399.39 1387.51,-401.87 1386.81,-394.91"/>
</g>
<!-- Node28 -->
<g id="node28" class="node">
<title>Node28</title>
<g id="a_node28"><a xlink:href="GameObject__templates_8hpp.html" target="_top" xlink:title=" ">
<polygon fill="none" stroke="black" points="1904.5,-324.5 1904.5,-354.5 2044.5,-354.5 2044.5,-324.5 1904.5,-324.5"/>
<text text-anchor="start" x="1912.5" y="-342.5" font-family="Helvetica,sans-Serif" font-size="10.00">includes/spic&#45;api&#45;headers</text>
<text text-anchor="middle" x="1974.5" y="-331.5" font-family="Helvetica,sans-Serif" font-size="10.00">/GameObject_templates.hpp</text>
</a>
</g>
</g>
<!-- Node15&#45;&gt;Node28 -->
<g id="edge37" class="edge">
<title>Node15&#45;&gt;Node28</title>
<path fill="none" stroke="midnightblue" d="M1387.07,-401.36C1497.74,-394.63 1713.48,-379.55 1895.5,-355 1898.4,-354.61 1901.36,-354.18 1904.34,-353.73"/>
<polygon fill="midnightblue" stroke="midnightblue" points="1386.79,-397.87 1377.02,-401.97 1387.21,-404.86 1386.79,-397.87"/>
</g>
<!-- Node29 -->
<g id="node29" class="node">
<title>Node29</title>
<g id="a_node29"><a xlink:href="UIObject_8hpp.html" target="_top" xlink:title=" ">
<polygon fill="none" stroke="black" points="1575,-324.5 1575,-354.5 1702,-354.5 1702,-324.5 1575,-324.5"/>
<text text-anchor="start" x="1583" y="-342.5" font-family="Helvetica,sans-Serif" font-size="10.00">includes/spic&#45;api&#45;headers</text>
<text text-anchor="middle" x="1638.5" y="-331.5" font-family="Helvetica,sans-Serif" font-size="10.00">/UIObject.hpp</text>
</a>
</g>
</g>
<!-- Node15&#45;&gt;Node29 -->
<g id="edge38" class="edge">
<title>Node15&#45;&gt;Node29</title>
<path fill="none" stroke="midnightblue" d="M1387.27,-390.75C1443.8,-379.44 1520.98,-364 1574.82,-353.24"/>
<polygon fill="midnightblue" stroke="midnightblue" points="1386.44,-387.34 1377.32,-392.74 1387.81,-394.21 1386.44,-387.34"/>
</g>
<!-- Node37 -->
<g id="node37" class="node">
<title>Node37</title>
<g id="a_node37"><a xlink:href="GameObjectUtil_8hpp.html" target="_top" xlink:title=" ">
<polygon fill="none" stroke="black" points="2101,-324.5 2101,-354.5 2232,-354.5 2232,-324.5 2101,-324.5"/>
<text text-anchor="start" x="2109" y="-342.5" font-family="Helvetica,sans-Serif" font-size="10.00">includes/spic&#45;api&#45;headers</text>
<text text-anchor="middle" x="2166.5" y="-331.5" font-family="Helvetica,sans-Serif" font-size="10.00">/Utils/GameObjectUtil.hpp</text>
</a>
</g>
</g>
<!-- Node15&#45;&gt;Node37 -->
<g id="edge52" class="edge">
<title>Node15&#45;&gt;Node37</title>
<path fill="none" stroke="midnightblue" d="M1387.13,-403.49C1524.88,-399.1 1830.77,-386.42 2086.5,-355 2091.12,-354.43 2095.88,-353.77 2100.67,-353.05"/>
<polygon fill="midnightblue" stroke="midnightblue" points="1386.99,-399.99 1377.11,-403.8 1387.21,-406.98 1386.99,-399.99"/>
</g>
<!-- Node25&#45;&gt;Node11 -->
<g id="edge29" class="edge">
<title>Node25&#45;&gt;Node11</title>
<path fill="none" stroke="midnightblue" d="M272.25,-320.35C291.7,-268.11 347.3,-118.71 361.28,-81.15"/>
<polygon fill="midnightblue" stroke="midnightblue" points="268.89,-319.36 268.68,-329.95 275.45,-321.8 268.89,-319.36"/>
</g>
<!-- Node25&#45;&gt;Node24 -->
<g id="edge28" class="edge">
<title>Node25&#45;&gt;Node24</title>
<path fill="none" stroke="midnightblue" d="M333.06,-328.43C418.48,-315.69 564.06,-293.99 644.27,-282.03"/>
<polygon fill="midnightblue" stroke="midnightblue" points="332.32,-325 322.95,-329.94 333.35,-331.92 332.32,-325"/>
</g>
<!-- Node26&#45;&gt;Node13 -->
<g id="edge35" class="edge">
<title>Node26&#45;&gt;Node13</title>
<path fill="none" stroke="midnightblue" d="M1893.39,-321.92C1937.88,-310.8 1988.02,-296.66 1994.5,-288 2002.76,-276.97 2001.65,-268.78 1994.5,-257 1926.72,-145.39 1767.04,-98.2 1686.99,-81.01"/>
<polygon fill="midnightblue" stroke="midnightblue" points="1892.28,-318.59 1883.42,-324.39 1893.96,-325.38 1892.28,-318.59"/>
</g>
<!-- Node26&#45;&gt;Node14 -->
<g id="edge36" class="edge">
<title>Node26&#45;&gt;Node14</title>
<path fill="none" stroke="midnightblue" d="M1895.92,-323.26C1930.86,-314.37 1967.24,-302.13 1977.5,-288 1985.59,-276.85 1985.89,-267.93 1977.5,-257 1962.14,-237 1901,-223.21 1852.37,-215.16"/>
<polygon fill="midnightblue" stroke="midnightblue" points="1895,-319.89 1886.13,-325.68 1896.67,-326.68 1895,-319.89"/>
</g>
<!-- Node26&#45;&gt;Node20 -->
<g id="edge34" class="edge">
<title>Node26&#45;&gt;Node20</title>
<path fill="none" stroke="midnightblue" d="M1804.75,-316.32C1795.38,-304.6 1784.41,-290.88 1777.46,-282.19"/>
<polygon fill="midnightblue" stroke="midnightblue" points="1802.24,-318.77 1811.22,-324.4 1807.7,-314.4 1802.24,-318.77"/>
</g>
<!-- Node27 -->
<g id="node27" class="node">
<title>Node27</title>
<g id="a_node27"><a xlink:href="Camera_8cpp.html" target="_top" xlink:title=" ">
<polygon fill="none" stroke="black" points="1866.5,-263 1866.5,-282 1968.5,-282 1968.5,-263 1866.5,-263"/>
<text text-anchor="middle" x="1917.5" y="-270" font-family="Helvetica,sans-Serif" font-size="10.00">src/Api/Camera.cpp</text>
</a>
</g>
</g>
<!-- Node26&#45;&gt;Node27 -->
<g id="edge33" class="edge">
<title>Node26&#45;&gt;Node27</title>
<path fill="none" stroke="midnightblue" d="M1851.52,-318.64C1869.45,-306.37 1891.54,-291.26 1905.07,-282.01"/>
<polygon fill="midnightblue" stroke="midnightblue" points="1849.39,-315.86 1843.11,-324.4 1853.34,-321.64 1849.39,-315.86"/>
</g>
<!-- Node29&#45;&gt;Node14 -->
<g id="edge40" class="edge">
<title>Node29&#45;&gt;Node14</title>
<path fill="none" stroke="midnightblue" d="M1591.66,-319.53C1578.57,-311.8 1565.91,-301.44 1558.5,-288 1551.85,-275.93 1549.87,-267.74 1558.5,-257 1579.06,-231.43 1664.25,-218.08 1724.94,-211.67"/>
<polygon fill="midnightblue" stroke="midnightblue" points="1590.27,-322.76 1600.73,-324.47 1593.62,-316.61 1590.27,-322.76"/>
</g>
<!-- Node30 -->
<g id="node30" class="node">
<title>Node30</title>
<g id="a_node30"><a xlink:href="UIObject_8cpp.html" target="_top" xlink:title=" ">
<polygon fill="none" stroke="black" points="1567,-263 1567,-282 1674,-282 1674,-263 1567,-263"/>
<text text-anchor="middle" x="1620.5" y="-270" font-family="Helvetica,sans-Serif" font-size="10.00">src/Api/UIObject.cpp</text>
</a>
</g>
</g>
<!-- Node29&#45;&gt;Node30 -->
<g id="edge39" class="edge">
<title>Node29&#45;&gt;Node30</title>
<path fill="none" stroke="midnightblue" d="M1631.88,-314.6C1628.75,-303.28 1625.2,-290.46 1622.91,-282.19"/>
<polygon fill="midnightblue" stroke="midnightblue" points="1628.55,-315.69 1634.59,-324.4 1635.3,-313.82 1628.55,-315.69"/>
</g>
<!-- Node31 -->
<g id="node31" class="node">
<title>Node31</title>
<g id="a_node31"><a xlink:href="Button_8hpp.html" target="_top" xlink:title=" ">
<polygon fill="none" stroke="black" points="1383,-257.5 1383,-287.5 1510,-287.5 1510,-257.5 1383,-257.5"/>
<text text-anchor="start" x="1391" y="-275.5" font-family="Helvetica,sans-Serif" font-size="10.00">includes/spic&#45;api&#45;headers</text>
<text text-anchor="middle" x="1446.5" y="-264.5" font-family="Helvetica,sans-Serif" font-size="10.00">/Button.hpp</text>
</a>
</g>
</g>
<!-- Node29&#45;&gt;Node31 -->
<g id="edge41" class="edge">
<title>Node29&#45;&gt;Node31</title>
<path fill="none" stroke="midnightblue" d="M1587.08,-321.09C1556.08,-310.6 1517.12,-297.41 1488.08,-287.58"/>
<polygon fill="midnightblue" stroke="midnightblue" points="1586.24,-324.5 1596.84,-324.4 1588.49,-317.87 1586.24,-324.5"/>
</g>
<!-- Node35 -->
<g id="node35" class="node">
<title>Node35</title>
<g id="a_node35"><a xlink:href="Text_8hpp.html" target="_top" xlink:title=" ">
<polygon fill="none" stroke="black" points="1238,-257.5 1238,-287.5 1365,-287.5 1365,-257.5 1238,-257.5"/>
<text text-anchor="start" x="1246" y="-275.5" font-family="Helvetica,sans-Serif" font-size="10.00">includes/spic&#45;api&#45;headers</text>
<text text-anchor="middle" x="1301.5" y="-264.5" font-family="Helvetica,sans-Serif" font-size="10.00">/Text.hpp</text>
</a>
</g>
</g>
<!-- Node29&#45;&gt;Node35 -->
<g id="edge47" class="edge">
<title>Node29&#45;&gt;Node35</title>
<path fill="none" stroke="midnightblue" d="M1564.88,-323.89C1479.06,-307.34 1456.25,-303.82 1374.5,-288 1371.46,-287.41 1368.34,-286.8 1365.19,-286.19"/>
<polygon fill="midnightblue" stroke="midnightblue" points="1564.32,-327.35 1574.81,-325.81 1565.65,-320.48 1564.32,-327.35"/>
</g>
<!-- Node31&#45;&gt;Node14 -->
<g id="edge46" class="edge">
<title>Node31&#45;&gt;Node14</title>
<path fill="none" stroke="midnightblue" d="M1519.96,-257.54C1580.9,-245.96 1666.65,-229.66 1724.73,-218.62"/>
<polygon fill="midnightblue" stroke="midnightblue" points="1519.2,-254.12 1510.03,-259.43 1520.5,-261 1519.2,-254.12"/>
</g>
<!-- Node32 -->
<g id="node32" class="node">
<title>Node32</title>
<g id="a_node32"><a xlink:href="Button_8cpp.html" target="_top" xlink:title=" ">
<polygon fill="none" stroke="black" points="1493,-129 1493,-148 1590,-148 1590,-129 1493,-129"/>
<text text-anchor="middle" x="1541.5" y="-136" font-family="Helvetica,sans-Serif" font-size="10.00">src/Api/Button.cpp</text>
</a>
</g>
</g>
<!-- Node31&#45;&gt;Node32 -->
<g id="edge42" class="edge">
<title>Node31&#45;&gt;Node32</title>
<path fill="none" stroke="midnightblue" d="M1487.38,-252.19C1500.35,-244.21 1513.62,-233.8 1522.5,-221 1538.32,-198.2 1541.11,-164.06 1541.51,-148.19"/>
<polygon fill="midnightblue" stroke="midnightblue" points="1485.4,-249.28 1478.5,-257.32 1488.91,-255.35 1485.4,-249.28"/>
</g>
<!-- Node33 -->
<g id="node33" class="node">
<title>Node33</title>
<g id="a_node33"><a xlink:href="ButtonMouseListener_8hpp.html" target="_top" xlink:title=" ">
<polygon fill="none" stroke="black" points="1379.5,-190.5 1379.5,-220.5 1513.5,-220.5 1513.5,-190.5 1379.5,-190.5"/>
<text text-anchor="start" x="1387.5" y="-208.5" font-family="Helvetica,sans-Serif" font-size="10.00">src/Listeners/ButtonMouse</text>
<text text-anchor="middle" x="1446.5" y="-197.5" font-family="Helvetica,sans-Serif" font-size="10.00">Listener.hpp</text>
</a>
</g>
</g>
<!-- Node31&#45;&gt;Node33 -->
<g id="edge43" class="edge">
<title>Node31&#45;&gt;Node33</title>
<path fill="none" stroke="midnightblue" d="M1446.5,-247.11C1446.5,-238.15 1446.5,-228.32 1446.5,-220.58"/>
<polygon fill="midnightblue" stroke="midnightblue" points="1443,-247.4 1446.5,-257.4 1450,-247.4 1443,-247.4"/>
</g>
<!-- Node33&#45;&gt;Node32 -->
<g id="edge44" class="edge">
<title>Node33&#45;&gt;Node32</title>
<path fill="none" stroke="midnightblue" d="M1475.52,-184.64C1493.45,-172.37 1515.54,-157.26 1529.07,-148.01"/>
<polygon fill="midnightblue" stroke="midnightblue" points="1473.39,-181.86 1467.11,-190.4 1477.34,-187.64 1473.39,-181.86"/>
</g>
<!-- Node34 -->
<g id="node34" class="node">
<title>Node34</title>
<g id="a_node34"><a xlink:href="ButtonMouseListener_8cpp.html" target="_top" xlink:title=" ">
<polygon fill="none" stroke="black" points="1340.5,-123.5 1340.5,-153.5 1474.5,-153.5 1474.5,-123.5 1340.5,-123.5"/>
<text text-anchor="start" x="1348.5" y="-141.5" font-family="Helvetica,sans-Serif" font-size="10.00">src/Listeners/ButtonMouse</text>
<text text-anchor="middle" x="1407.5" y="-130.5" font-family="Helvetica,sans-Serif" font-size="10.00">Listener.cpp</text>
</a>
</g>
</g>
<!-- Node33&#45;&gt;Node34 -->
<g id="edge45" class="edge">
<title>Node33&#45;&gt;Node34</title>
<path fill="none" stroke="midnightblue" d="M1432.75,-181.58C1427.14,-172.24 1420.85,-161.75 1415.95,-153.58"/>
<polygon fill="midnightblue" stroke="midnightblue" points="1429.89,-183.62 1438.04,-190.4 1435.89,-180.02 1429.89,-183.62"/>
</g>
<!-- Node35&#45;&gt;Node3 -->
<g id="edge49" class="edge">
<title>Node35&#45;&gt;Node3</title>
<path fill="none" stroke="midnightblue" d="M1227.82,-262.66C1119.62,-249.69 919.77,-225.72 819.78,-213.73"/>
<polygon fill="midnightblue" stroke="midnightblue" points="1227.65,-266.17 1238,-263.88 1228.49,-259.22 1227.65,-266.17"/>
</g>
<!-- Node35&#45;&gt;Node13 -->
<g id="edge50" class="edge">
<title>Node35&#45;&gt;Node13</title>
<path fill="none" stroke="midnightblue" d="M1281.24,-249.38C1274.92,-241.1 1268.76,-231.2 1265.5,-221 1261.3,-207.88 1260.28,-202.75 1265.5,-190 1281.35,-151.32 1294.38,-142.22 1331.5,-123 1368.55,-103.82 1472.48,-89.44 1549.42,-81.03"/>
<polygon fill="midnightblue" stroke="midnightblue" points="1278.73,-251.85 1287.76,-257.39 1284.16,-247.42 1278.73,-251.85"/>
</g>
<!-- Node35&#45;&gt;Node14 -->
<g id="edge51" class="edge">
<title>Node35&#45;&gt;Node14</title>
<path fill="none" stroke="midnightblue" d="M1375.29,-256.95C1505.35,-236.42 1645.42,-220.93 1724.82,-212.78"/>
<polygon fill="midnightblue" stroke="midnightblue" points="1374.48,-253.54 1365.15,-258.57 1375.58,-260.45 1374.48,-253.54"/>
</g>
<!-- Node36 -->
<g id="node36" class="node">
<title>Node36</title>
<g id="a_node36"><a xlink:href="Text_8cpp.html" target="_top" xlink:title=" ">
<polygon fill="none" stroke="black" points="1274,-196 1274,-215 1361,-215 1361,-196 1274,-196"/>
<text text-anchor="middle" x="1317.5" y="-203" font-family="Helvetica,sans-Serif" font-size="10.00">src/Api/Text.cpp</text>
</a>
</g>
</g>
<!-- Node35&#45;&gt;Node36 -->
<g id="edge48" class="edge">
<title>Node35&#45;&gt;Node36</title>
<path fill="none" stroke="midnightblue" d="M1307.38,-247.6C1310.17,-236.28 1313.32,-223.46 1315.36,-215.19"/>
<polygon fill="midnightblue" stroke="midnightblue" points="1303.96,-246.85 1304.97,-257.4 1310.76,-248.52 1303.96,-246.85"/>
</g>
<!-- Node38 -->
<g id="node38" class="node">
<title>Node38</title>
<g id="a_node38"><a xlink:href="GameObjectUtil_8cpp.html" target="_top" xlink:title=" ">
<polygon fill="none" stroke="black" points="2102.5,-257.5 2102.5,-287.5 2230.5,-287.5 2230.5,-257.5 2102.5,-257.5"/>
<text text-anchor="start" x="2110.5" y="-275.5" font-family="Helvetica,sans-Serif" font-size="10.00">src/Api/Utils/GameObject</text>
<text text-anchor="middle" x="2166.5" y="-264.5" font-family="Helvetica,sans-Serif" font-size="10.00">Util.cpp</text>
</a>
</g>
</g>
<!-- Node37&#45;&gt;Node38 -->
<g id="edge53" class="edge">
<title>Node37&#45;&gt;Node38</title>
<path fill="none" stroke="midnightblue" d="M2166.5,-314.11C2166.5,-305.15 2166.5,-295.32 2166.5,-287.58"/>
<polygon fill="midnightblue" stroke="midnightblue" points="2163,-314.4 2166.5,-324.4 2170,-314.4 2163,-314.4"/>
</g>
</g>
</svg>
        <g id="navigator" transform="translate(0 0)" fill="#404254">
                <rect fill="#f2f5e9" fill-opacity="0.5" stroke="#606060" stroke-width=".5" x="0" y="0" width="60" height="60"/>
                <use id="zoomplus" xlink:href="#zoomPlus" x="17" y="9" onmousedown="handleZoom(evt,'in')"/>
                <use id="zoomminus" xlink:href="#zoomMin" x="42" y="9" onmousedown="handleZoom(evt,'out')"/>
                <use id="reset" xlink:href="#resetDef" x="30" y="36" onmousedown="handleReset()"/>
                <g id="arrowUp" xlink:href="#dirArrow" transform="translate(30 24)" onmousedown="handlePan(0,-1)">
                  <use xlink:href="#rim" fill="#404040">
                        <set attributeName="fill" to="#808080" begin="arrowUp.mouseover" end="arrowUp.mouseout"/>
                  </use>
                  <path fill="none" stroke="white" stroke-width="1.5" d="M0,-3.0v7 M-2.5,-0.5L0,-3.0L2.5,-0.5"/>
                </g>
                <g id="arrowRight" xlink:href="#dirArrow" transform="rotate(90) translate(36 -43)" onmousedown="handlePan(1,0)">
                  <use xlink:href="#rim" fill="#404040">
                        <set attributeName="fill" to="#808080" begin="arrowRight.mouseover" end="arrowRight.mouseout"/>
                  </use>
                  <path fill="none" stroke="white" stroke-width="1.5" d="M0,-3.0v7 M-2.5,-0.5L0,-3.0L2.5,-0.5"/>
                </g>
                <g id="arrowDown" xlink:href="#dirArrow" transform="rotate(180) translate(-30 -48)" onmousedown="handlePan(0,1)">
                  <use xlink:href="#rim" fill="#404040">
                        <set attributeName="fill" to="#808080" begin="arrowDown.mouseover" end="arrowDown.mouseout"/>
                  </use>
                  <path fill="none" stroke="white" stroke-width="1.5" d="M0,-3.0v7 M-2.5,-0.5L0,-3.0L2.5,-0.5"/>
                </g>
                <g id="arrowLeft" xlink:href="#dirArrow" transform="rotate(270) translate(-36 17)" onmousedown="handlePan(-1,0)">
                  <use xlink:href="#rim" fill="#404040">
                        <set attributeName="fill" to="#808080" begin="arrowLeft.mouseover" end="arrowLeft.mouseout"/>
                  </use>
                  <path fill="none" stroke="white" stroke-width="1.5" d="M0,-3.0v7 M-2.5,-0.5L0,-3.0L2.5,-0.5"/>
                </g>
        </g>
        <svg viewBox="0 0 15 15" width="100%" height="30px" preserveAspectRatio="xMaxYMin meet">
         <g id="arrow_out" transform="scale(0.3 0.3)">
          <a xlink:href="Transform_8hpp__dep__incl_org.svg" target="_base">
           <rect id="button" ry="5" rx="5" y="6" x="6" height="38" width="38"
                fill="#f2f5e9" fill-opacity="0.5" stroke="#606060" stroke-width="1.0"/>
           <path id="arrow"
             d="M 11.500037,31.436501 C 11.940474,20.09759 22.043105,11.32322 32.158766,21.979434 L 37.068811,17.246167 C 37.068811,17.246167 37.088388,32 37.088388,32 L 22.160133,31.978069 C 22.160133,31.978069 26.997745,27.140456 26.997745,27.140456 C 18.528582,18.264221 13.291696,25.230495 11.500037,31.436501 z"
             style="fill:#404040;"/>
          </a>
         </g>
        </svg>
</svg>
