<?xml version="1.0" encoding="UTF-8" standalone="no"?>
<!DOCTYPE svg PUBLIC "-//W3C//DTD SVG 1.1//EN"
 "http://www.w3.org/Graphics/SVG/1.1/DTD/svg11.dtd">
<!-- Generated by graphviz version 2.44.0 ()
 -->
<!-- Title: includes/spic&#45;api&#45;headers/Transform.hpp Pages: 1 -->
<svg width="2965pt" height="497pt"
 viewBox="0.00 0.00 2964.50 497.00" xmlns="http://www.w3.org/2000/svg" xmlns:xlink="http://www.w3.org/1999/xlink">
<g id="graph0" class="graph" transform="scale(1 1) rotate(0) translate(4 493)">
<title>includes/spic&#45;api&#45;headers/Transform.hpp</title>
<!-- Node1 -->
<g id="node1" class="node">
<title>Node1</title>
<g id="a_node1"><a xlink:title=" ">
<polygon fill="#bfbfbf" stroke="black" points="448,-458.5 448,-488.5 575,-488.5 575,-458.5 448,-458.5"/>
<text text-anchor="start" x="456" y="-476.5" font-family="Helvetica,sans-Serif" font-size="10.00">includes/spic&#45;api&#45;headers</text>
<text text-anchor="middle" x="511.5" y="-465.5" font-family="Helvetica,sans-Serif" font-size="10.00">/Transform.hpp</text>
</a>
</g>
</g>
<!-- Node2 -->
<g id="node2" class="node">
<title>Node2</title>
<g id="a_node2"><a xlink:href="Transform_8cpp.html" target="_top" xlink:title=" ">
<polygon fill="none" stroke="black" points="0,-397 0,-416 113,-416 113,-397 0,-397"/>
<text text-anchor="middle" x="56.5" y="-404" font-family="Helvetica,sans-Serif" font-size="10.00">src/Api/Transform.cpp</text>
</a>
</g>
</g>
<!-- Node1&#45;&gt;Node2 -->
<g id="edge1" class="edge">
<title>Node1&#45;&gt;Node2</title>
<path fill="none" stroke="midnightblue" d="M437.62,-464.36C360.13,-455.45 234.92,-440.01 127.5,-422 117.2,-420.27 106.12,-418.14 95.84,-416.05"/>
<polygon fill="midnightblue" stroke="midnightblue" points="437.43,-467.86 447.76,-465.52 438.23,-460.9 437.43,-467.86"/>
</g>
<!-- Node3 -->
<g id="node3" class="node">
<title>Node3</title>
<g id="a_node3"><a xlink:href="Window_8hpp.html" target="_top" xlink:title=" ">
<polygon fill="none" stroke="black" points="2273.5,-196 2273.5,-215 2393.5,-215 2393.5,-196 2273.5,-196"/>
<text text-anchor="middle" x="2333.5" y="-203" font-family="Helvetica,sans-Serif" font-size="10.00">src/Models/Window.hpp</text>
</a>
</g>
</g>
<!-- Node1&#45;&gt;Node3 -->
<g id="edge2" class="edge">
<title>Node1&#45;&gt;Node3</title>
<path fill="none" stroke="midnightblue" d="M585.64,-472.46C863.12,-471.5 1839.2,-460.51 2128.5,-355 2216.03,-323.08 2299.17,-242.19 2325.17,-215.32"/>
<polygon fill="midnightblue" stroke="midnightblue" points="585.27,-468.96 575.29,-472.49 585.3,-475.96 585.27,-468.96"/>
</g>
<!-- Node14 -->
<g id="node14" class="node">
<title>Node14</title>
<g id="a_node14"><a xlink:href="Api_8hpp.html" target="_top" xlink:title=" ">
<polygon fill="none" stroke="black" points="1364,-190.5 1364,-220.5 1491,-220.5 1491,-190.5 1364,-190.5"/>
<text text-anchor="start" x="1372" y="-208.5" font-family="Helvetica,sans-Serif" font-size="10.00">includes/spic&#45;api&#45;headers</text>
<text text-anchor="middle" x="1427.5" y="-197.5" font-family="Helvetica,sans-Serif" font-size="10.00">/Api.hpp</text>
</a>
</g>
</g>
<!-- Node1&#45;&gt;Node14 -->
<g id="edge16" class="edge">
<title>Node1&#45;&gt;Node14</title>
<path fill="none" stroke="midnightblue" d="M445.54,-455.79C329.94,-423.65 110.94,-348.23 198.5,-257 239.16,-214.63 1117.58,-207.79 1363.84,-206.7"/>
<polygon fill="midnightblue" stroke="midnightblue" points="444.8,-459.22 455.37,-458.49 446.66,-452.47 444.8,-459.22"/>
</g>
<!-- Node15 -->
<g id="node15" class="node">
<title>Node15</title>
<g id="a_node15"><a xlink:href="GameObject_8hpp.html" target="_top" xlink:title=" ">
<polygon fill="none" stroke="black" points="918,-391.5 918,-421.5 1045,-421.5 1045,-391.5 918,-391.5"/>
<text text-anchor="start" x="926" y="-409.5" font-family="Helvetica,sans-Serif" font-size="10.00">includes/spic&#45;api&#45;headers</text>
<text text-anchor="middle" x="981.5" y="-398.5" font-family="Helvetica,sans-Serif" font-size="10.00">/GameObject.hpp</text>
</a>
</g>
</g>
<!-- Node1&#45;&gt;Node15 -->
<g id="edge17" class="edge">
<title>Node1&#45;&gt;Node15</title>
<path fill="none" stroke="midnightblue" d="M585.39,-462.28C676.9,-449.63 831.23,-428.28 917.76,-416.31"/>
<polygon fill="midnightblue" stroke="midnightblue" points="584.8,-458.83 575.38,-463.67 585.76,-465.76 584.8,-458.83"/>
</g>
<!-- Node4 -->
<g id="node4" class="node">
<title>Node4</title>
<g id="a_node4"><a xlink:href="TimeManager_8hpp.html" target="_top" xlink:title=" ">
<polygon fill="none" stroke="black" points="2658.5,-129 2658.5,-148 2814.5,-148 2814.5,-129 2658.5,-129"/>
<text text-anchor="middle" x="2736.5" y="-136" font-family="Helvetica,sans-Serif" font-size="10.00">src/Managers/TimeManager.hpp</text>
</a>
</g>
</g>
<!-- Node3&#45;&gt;Node4 -->
<g id="edge3" class="edge">
<title>Node3&#45;&gt;Node4</title>
<path fill="none" stroke="midnightblue" d="M2397.39,-194.42C2461.24,-184.31 2562.19,-168.25 2649.5,-154 2661.14,-152.1 2673.64,-150.03 2685.45,-148.07"/>
<polygon fill="midnightblue" stroke="midnightblue" points="2396.8,-190.97 2387.47,-195.99 2397.9,-197.88 2396.8,-190.97"/>
</g>
<!-- Node9 -->
<g id="node9" class="node">
<title>Node9</title>
<g id="a_node9"><a xlink:href="Window_8cpp.html" target="_top" xlink:title=" ">
<polygon fill="none" stroke="black" points="2156.5,-129 2156.5,-148 2276.5,-148 2276.5,-129 2156.5,-129"/>
<text text-anchor="middle" x="2216.5" y="-136" font-family="Helvetica,sans-Serif" font-size="10.00">src/Models/Window.cpp</text>
</a>
</g>
</g>
<!-- Node3&#45;&gt;Node9 -->
<g id="edge8" class="edge">
<title>Node3&#45;&gt;Node9</title>
<path fill="none" stroke="midnightblue" d="M2308.82,-190.79C2285.63,-177.9 2251.64,-159.02 2232.03,-148.13"/>
<polygon fill="midnightblue" stroke="midnightblue" points="2307.28,-193.94 2317.72,-195.73 2310.68,-187.82 2307.28,-193.94"/>
</g>
<!-- Node10 -->
<g id="node10" class="node">
<title>Node10</title>
<g id="a_node10"><a xlink:href="FpsCounterSubsystem_8hpp.html" target="_top" xlink:title=" ">
<polygon fill="none" stroke="black" points="2500.5,-123.5 2500.5,-153.5 2640.5,-153.5 2640.5,-123.5 2500.5,-123.5"/>
<text text-anchor="start" x="2508.5" y="-141.5" font-family="Helvetica,sans-Serif" font-size="10.00">src/Subsystems/FpsCounter</text>
<text text-anchor="middle" x="2570.5" y="-130.5" font-family="Helvetica,sans-Serif" font-size="10.00">Subsystem.hpp</text>
</a>
</g>
</g>
<!-- Node3&#45;&gt;Node10 -->
<g id="edge9" class="edge">
<title>Node3&#45;&gt;Node10</title>
<path fill="none" stroke="midnightblue" d="M2374.71,-193.2C2414.88,-182.18 2476.09,-165.39 2519.35,-153.53"/>
<polygon fill="midnightblue" stroke="midnightblue" points="2373.69,-189.85 2364.97,-195.87 2375.54,-196.6 2373.69,-189.85"/>
</g>
<!-- Node12 -->
<g id="node12" class="node">
<title>Node12</title>
<g id="a_node12"><a xlink:href="RenderSubsystem_8hpp.html" target="_top" xlink:title=" ">
<polygon fill="none" stroke="black" points="2294.5,-129 2294.5,-148 2482.5,-148 2482.5,-129 2294.5,-129"/>
<text text-anchor="middle" x="2388.5" y="-136" font-family="Helvetica,sans-Serif" font-size="10.00">src/Subsystems/RenderSubsystem.hpp</text>
</a>
</g>
</g>
<!-- Node3&#45;&gt;Node12 -->
<g id="edge13" class="edge">
<title>Node3&#45;&gt;Node12</title>
<path fill="none" stroke="midnightblue" d="M2347.66,-187.77C2358.38,-175.1 2372.68,-158.2 2381.2,-148.13"/>
<polygon fill="midnightblue" stroke="midnightblue" points="2344.71,-185.84 2340.92,-195.73 2350.05,-190.36 2344.71,-185.84"/>
</g>
<!-- Node5 -->
<g id="node5" class="node">
<title>Node5</title>
<g id="a_node5"><a xlink:href="Engine_8cpp.html" target="_top" xlink:title=" ">
<polygon fill="none" stroke="black" points="2565.5,-0.5 2565.5,-19.5 2663.5,-19.5 2663.5,-0.5 2565.5,-0.5"/>
<text text-anchor="middle" x="2614.5" y="-7.5" font-family="Helvetica,sans-Serif" font-size="10.00">src/Api/Engine.cpp</text>
</a>
</g>
</g>
<!-- Node4&#45;&gt;Node5 -->
<g id="edge4" class="edge">
<title>Node4&#45;&gt;Node5</title>
<path fill="none" stroke="midnightblue" d="M2773.21,-124.96C2790.52,-116.98 2809.53,-104.74 2819.5,-87 2826.25,-74.99 2828.14,-66.74 2819.5,-56 2800.32,-32.15 2718.03,-20.22 2663.72,-14.84"/>
<polygon fill="midnightblue" stroke="midnightblue" points="2771.65,-121.81 2763.83,-128.96 2774.4,-128.25 2771.65,-121.81"/>
</g>
<!-- Node6 -->
<g id="node6" class="node">
<title>Node6</title>
<g id="a_node6"><a xlink:href="src_2Api_2Time_8cpp.html" target="_top" xlink:title=" ">
<polygon fill="none" stroke="black" points="2866.5,-62 2866.5,-81 2956.5,-81 2956.5,-62 2866.5,-62"/>
<text text-anchor="middle" x="2911.5" y="-69" font-family="Helvetica,sans-Serif" font-size="10.00">src/Api/Time.cpp</text>
</a>
</g>
</g>
<!-- Node4&#45;&gt;Node6 -->
<g id="edge5" class="edge">
<title>Node4&#45;&gt;Node6</title>
<path fill="none" stroke="midnightblue" d="M2769.43,-125.27C2804.16,-112.37 2857.99,-92.38 2888.44,-81.06"/>
<polygon fill="midnightblue" stroke="midnightblue" points="2767.89,-122.11 2759.74,-128.87 2770.33,-128.67 2767.89,-122.11"/>
</g>
<!-- Node7 -->
<g id="node7" class="node">
<title>Node7</title>
<g id="a_node7"><a xlink:href="TimeManager_8cpp.html" target="_top" xlink:title=" ">
<polygon fill="none" stroke="black" points="2654.5,-62 2654.5,-81 2810.5,-81 2810.5,-62 2654.5,-62"/>
<text text-anchor="middle" x="2732.5" y="-69" font-family="Helvetica,sans-Serif" font-size="10.00">src/Managers/TimeManager.cpp</text>
</a>
</g>
</g>
<!-- Node4&#45;&gt;Node7 -->
<g id="edge6" class="edge">
<title>Node4&#45;&gt;Node7</title>
<path fill="none" stroke="midnightblue" d="M2735.33,-118.54C2734.57,-106.17 2733.62,-90.62 2733.03,-81.13"/>
<polygon fill="midnightblue" stroke="midnightblue" points="2731.85,-118.97 2735.96,-128.73 2738.84,-118.54 2731.85,-118.97"/>
</g>
<!-- Node8 -->
<g id="node8" class="node">
<title>Node8</title>
<g id="a_node8"><a xlink:href="FpsCounterSubsystem_8cpp.html" target="_top" xlink:title=" ">
<polygon fill="none" stroke="black" points="2496.5,-56.5 2496.5,-86.5 2636.5,-86.5 2636.5,-56.5 2496.5,-56.5"/>
<text text-anchor="start" x="2504.5" y="-74.5" font-family="Helvetica,sans-Serif" font-size="10.00">src/Subsystems/FpsCounter</text>
<text text-anchor="middle" x="2566.5" y="-63.5" font-family="Helvetica,sans-Serif" font-size="10.00">Subsystem.cpp</text>
</a>
</g>
</g>
<!-- Node4&#45;&gt;Node8 -->
<g id="edge7" class="edge">
<title>Node4&#45;&gt;Node8</title>
<path fill="none" stroke="midnightblue" d="M2704.34,-125.2C2675.53,-114.19 2633.3,-98.04 2603.19,-86.53"/>
<polygon fill="midnightblue" stroke="midnightblue" points="2703.33,-128.57 2713.93,-128.87 2705.83,-122.03 2703.33,-128.57"/>
</g>
<!-- Node10&#45;&gt;Node8 -->
<g id="edge10" class="edge">
<title>Node10&#45;&gt;Node8</title>
<path fill="none" stroke="midnightblue" d="M2569.02,-113.4C2568.46,-104.37 2567.85,-94.41 2567.37,-86.58"/>
<polygon fill="midnightblue" stroke="midnightblue" points="2565.52,-113.63 2569.63,-123.4 2572.51,-113.2 2565.52,-113.63"/>
</g>
<!-- Node11 -->
<g id="node11" class="node">
<title>Node11</title>
<g id="a_node11"><a xlink:href="Subsystems_8hpp.html" target="_top" xlink:title=" ">
<polygon fill="none" stroke="black" points="2310.5,-62 2310.5,-81 2472.5,-81 2472.5,-62 2310.5,-62"/>
<text text-anchor="middle" x="2391.5" y="-69" font-family="Helvetica,sans-Serif" font-size="10.00">src/Subsystems/Subsystems.hpp</text>
</a>
</g>
</g>
<!-- Node10&#45;&gt;Node11 -->
<g id="edge11" class="edge">
<title>Node10&#45;&gt;Node11</title>
<path fill="none" stroke="midnightblue" d="M2522.16,-119.95C2487.39,-107.32 2442.03,-90.85 2414.93,-81.01"/>
<polygon fill="midnightblue" stroke="midnightblue" points="2521.07,-123.27 2531.66,-123.4 2523.45,-116.69 2521.07,-123.27"/>
</g>
<!-- Node11&#45;&gt;Node5 -->
<g id="edge12" class="edge">
<title>Node11&#45;&gt;Node5</title>
<path fill="none" stroke="midnightblue" d="M2433.12,-59.4C2476.43,-47.84 2543.31,-30 2582.61,-19.51"/>
<polygon fill="midnightblue" stroke="midnightblue" points="2432.21,-56.02 2423.45,-61.98 2434.01,-62.78 2432.21,-56.02"/>
</g>
<!-- Node12&#45;&gt;Node11 -->
<g id="edge15" class="edge">
<title>Node12&#45;&gt;Node11</title>
<path fill="none" stroke="midnightblue" d="M2389.38,-118.54C2389.95,-106.17 2390.66,-90.62 2391.1,-81.13"/>
<polygon fill="midnightblue" stroke="midnightblue" points="2385.87,-118.58 2388.9,-128.73 2392.86,-118.91 2385.87,-118.58"/>
</g>
<!-- Node13 -->
<g id="node13" class="node">
<title>Node13</title>
<g id="a_node13"><a xlink:href="RenderSubsystem_8cpp.html" target="_top" xlink:title=" ">
<polygon fill="none" stroke="black" points="871.5,-62 871.5,-81 1059.5,-81 1059.5,-62 871.5,-62"/>
<text text-anchor="middle" x="965.5" y="-69" font-family="Helvetica,sans-Serif" font-size="10.00">src/Subsystems/RenderSubsystem.cpp</text>
</a>
</g>
</g>
<!-- Node12&#45;&gt;Node13 -->
<g id="edge14" class="edge">
<title>Node12&#45;&gt;Node13</title>
<path fill="none" stroke="midnightblue" d="M2325.49,-127.6C2312.31,-125.81 2298.47,-124.16 2285.5,-123 1827.22,-82.08 1276.53,-74.28 1059.74,-72.82"/>
<polygon fill="midnightblue" stroke="midnightblue" points="2325.04,-131.07 2335.43,-128.98 2326,-124.13 2325.04,-131.07"/>
</g>
<!-- Node15&#45;&gt;Node13 -->
<g id="edge30" class="edge">
<title>Node15&#45;&gt;Node13</title>
<path fill="none" stroke="midnightblue" d="M907.84,-404.48C729.2,-401.47 283.37,-390.44 226.5,-355 191.01,-332.89 179.5,-315.31 179.5,-273.5 179.5,-273.5 179.5,-273.5 179.5,-204.5 179.5,-135.06 662.84,-93.35 871.47,-78.59"/>
<polygon fill="midnightblue" stroke="midnightblue" points="907.88,-407.98 917.94,-404.65 908,-400.99 907.88,-407.98"/>
</g>
<!-- Node15&#45;&gt;Node14 -->
<g id="edge31" class="edge">
<title>Node15&#45;&gt;Node14</title>
<path fill="none" stroke="midnightblue" d="M1055.11,-405.85C1229.09,-405.91 1654.37,-401.28 1697.5,-355 1706.89,-344.92 1706.51,-334.42 1697.5,-324 1624.93,-240.09 1533.89,-361.17 1450.5,-288 1431.16,-271.03 1427.51,-239.18 1427.14,-220.72"/>
<polygon fill="midnightblue" stroke="midnightblue" points="1055.02,-402.35 1045.02,-405.84 1055.01,-409.35 1055.02,-402.35"/>
</g>
<!-- Node16 -->
<g id="node16" class="node">
<title>Node16</title>
<g id="a_node16"><a xlink:href="Animator_8cpp.html" target="_top" xlink:title=" ">
<polygon fill="none" stroke="black" points="391,-330 391,-349 498,-349 498,-330 391,-330"/>
<text text-anchor="middle" x="444.5" y="-337" font-family="Helvetica,sans-Serif" font-size="10.00">src/Api/Animator.cpp</text>
</a>
</g>
</g>
<!-- Node15&#45;&gt;Node16 -->
<g id="edge18" class="edge">
<title>Node15&#45;&gt;Node16</title>
<path fill="none" stroke="midnightblue" d="M907.71,-400.4C814.16,-393.3 648.12,-378.59 507.5,-355 497.87,-353.38 487.51,-351.19 478.03,-349"/>
<polygon fill="midnightblue" stroke="midnightblue" points="907.68,-403.91 917.92,-401.16 908.21,-396.93 907.68,-403.91"/>
</g>
<!-- Node17 -->
<g id="node17" class="node">
<title>Node17</title>
<g id="a_node17"><a xlink:href="AudioSource_8cpp.html" target="_top" xlink:title=" ">
<polygon fill="none" stroke="black" points="516.5,-330 516.5,-349 640.5,-349 640.5,-330 516.5,-330"/>
<text text-anchor="middle" x="578.5" y="-337" font-family="Helvetica,sans-Serif" font-size="10.00">src/Api/AudioSource.cpp</text>
</a>
</g>
</g>
<!-- Node15&#45;&gt;Node17 -->
<g id="edge19" class="edge">
<title>Node15&#45;&gt;Node17</title>
<path fill="none" stroke="midnightblue" d="M907.6,-395.35C840.2,-385.83 737.95,-370.75 649.5,-355 639.47,-353.21 628.68,-351.11 618.61,-349.06"/>
<polygon fill="midnightblue" stroke="midnightblue" points="907.31,-398.84 917.7,-396.77 908.28,-391.91 907.31,-398.84"/>
</g>
<!-- Node18 -->
<g id="node18" class="node">
<title>Node18</title>
<g id="a_node18"><a xlink:href="GameObject_8cpp.html" target="_top" xlink:title=" ">
<polygon fill="none" stroke="black" points="659,-330 659,-349 782,-349 782,-330 659,-330"/>
<text text-anchor="middle" x="720.5" y="-337" font-family="Helvetica,sans-Serif" font-size="10.00">src/Api/GameObject.cpp</text>
</a>
</g>
</g>
<!-- Node15&#45;&gt;Node18 -->
<g id="edge20" class="edge">
<title>Node15&#45;&gt;Node18</title>
<path fill="none" stroke="midnightblue" d="M915.21,-388.99C864.06,-376.25 795.38,-359.15 754.75,-349.03"/>
<polygon fill="midnightblue" stroke="midnightblue" points="914.64,-392.46 925.19,-391.48 916.33,-385.66 914.64,-392.46"/>
</g>
<!-- Node19 -->
<g id="node19" class="node">
<title>Node19</title>
<g id="a_node19"><a xlink:href="ContactListener_8cpp.html" target="_top" xlink:title=" ">
<polygon fill="none" stroke="black" points="800.5,-330 800.5,-349 964.5,-349 964.5,-330 800.5,-330"/>
<text text-anchor="middle" x="882.5" y="-337" font-family="Helvetica,sans-Serif" font-size="10.00">src/Listeners/ContactListener.cpp</text>
</a>
</g>
</g>
<!-- Node15&#45;&gt;Node19 -->
<g id="edge21" class="edge">
<title>Node15&#45;&gt;Node19</title>
<path fill="none" stroke="midnightblue" d="M951.51,-385.81C932.78,-373.51 909.62,-358.3 895.46,-349.01"/>
<polygon fill="midnightblue" stroke="midnightblue" points="949.74,-388.83 960.02,-391.4 953.58,-382.98 949.74,-388.83"/>
</g>
<!-- Node20 -->
<g id="node20" class="node">
<title>Node20</title>
<g id="a_node20"><a xlink:href="InputManager_8cpp.html" target="_top" xlink:title=" ">
<polygon fill="none" stroke="black" points="207.5,-263 207.5,-282 363.5,-282 363.5,-263 207.5,-263"/>
<text text-anchor="middle" x="285.5" y="-270" font-family="Helvetica,sans-Serif" font-size="10.00">src/Managers/InputManager.cpp</text>
</a>
</g>
</g>
<!-- Node15&#45;&gt;Node20 -->
<g id="edge22" class="edge">
<title>Node15&#45;&gt;Node20</title>
<path fill="none" stroke="midnightblue" d="M907.79,-406.07C728.63,-406.7 281.68,-403.34 236.5,-355 214.97,-331.96 252.84,-297.93 273.46,-282.14"/>
<polygon fill="midnightblue" stroke="midnightblue" points="907.93,-409.57 917.91,-406.03 907.9,-402.57 907.93,-409.57"/>
</g>
<!-- Node21 -->
<g id="node21" class="node">
<title>Node21</title>
<g id="a_node21"><a xlink:href="AnimatorSubsystem_8cpp.html" target="_top" xlink:title=" ">
<polygon fill="none" stroke="black" points="982.5,-330 982.5,-349 1178.5,-349 1178.5,-330 982.5,-330"/>
<text text-anchor="middle" x="1080.5" y="-337" font-family="Helvetica,sans-Serif" font-size="10.00">src/Subsystems/AnimatorSubsystem.cpp</text>
</a>
</g>
</g>
<!-- Node15&#45;&gt;Node21 -->
<g id="edge23" class="edge">
<title>Node15&#45;&gt;Node21</title>
<path fill="none" stroke="midnightblue" d="M1011.49,-385.81C1030.22,-373.51 1053.38,-358.3 1067.54,-349.01"/>
<polygon fill="midnightblue" stroke="midnightblue" points="1009.42,-382.98 1002.98,-391.4 1013.26,-388.83 1009.42,-382.98"/>
</g>
<!-- Node22 -->
<g id="node22" class="node">
<title>Node22</title>
<g id="a_node22"><a xlink:href="AudioSubsystem_8cpp.html" target="_top" xlink:title=" ">
<polygon fill="none" stroke="black" points="1196.5,-330 1196.5,-349 1378.5,-349 1378.5,-330 1196.5,-330"/>
<text text-anchor="middle" x="1287.5" y="-337" font-family="Helvetica,sans-Serif" font-size="10.00">src/Subsystems/AudioSubsystem.cpp</text>
</a>
</g>
</g>
<!-- Node15&#45;&gt;Node22 -->
<g id="edge24" class="edge">
<title>Node15&#45;&gt;Node22</title>
<path fill="none" stroke="midnightblue" d="M1055.12,-389.86C1115.4,-377.06 1198.42,-359.42 1247.18,-349.06"/>
<polygon fill="midnightblue" stroke="midnightblue" points="1054.33,-386.45 1045.28,-391.95 1055.78,-393.3 1054.33,-386.45"/>
</g>
<!-- Node23 -->
<g id="node23" class="node">
<title>Node23</title>
<g id="a_node23"><a xlink:href="BehaviourScriptSubsystem_8cpp.html" target="_top" xlink:title=" ">
<polygon fill="none" stroke="black" points="1396.5,-324.5 1396.5,-354.5 1530.5,-354.5 1530.5,-324.5 1396.5,-324.5"/>
<text text-anchor="start" x="1404.5" y="-342.5" font-family="Helvetica,sans-Serif" font-size="10.00">src/Subsystems/Behaviour</text>
<text text-anchor="middle" x="1463.5" y="-331.5" font-family="Helvetica,sans-Serif" font-size="10.00">ScriptSubsystem.cpp</text>
</a>
</g>
</g>
<!-- Node15&#45;&gt;Node23 -->
<g id="edge25" class="edge">
<title>Node15&#45;&gt;Node23</title>
<path fill="none" stroke="midnightblue" d="M1055.48,-397.75C1137.01,-388.88 1271.93,-373.19 1387.5,-355 1390.42,-354.54 1393.4,-354.05 1396.4,-353.55"/>
<polygon fill="midnightblue" stroke="midnightblue" points="1054.88,-394.3 1045.32,-398.86 1055.64,-401.26 1054.88,-394.3"/>
</g>
<!-- Node24 -->
<g id="node24" class="node">
<title>Node24</title>
<g id="a_node24"><a xlink:href="PhysicsSubsystem_8cpp.html" target="_top" xlink:title=" ">
<polygon fill="none" stroke="black" points="1909,-263 1909,-282 2100,-282 2100,-263 1909,-263"/>
<text text-anchor="middle" x="2004.5" y="-270" font-family="Helvetica,sans-Serif" font-size="10.00">src/Subsystems/PhysicsSubsystem.cpp</text>
</a>
</g>
</g>
<!-- Node15&#45;&gt;Node24 -->
<g id="edge26" class="edge">
<title>Node15&#45;&gt;Node24</title>
<path fill="none" stroke="midnightblue" d="M1055.36,-403.92C1256.55,-399.24 1804.4,-383.98 1880.5,-355 1901.19,-347.12 1901.27,-336.57 1919.5,-324 1942.81,-307.92 1971.39,-291.59 1988.75,-282.01"/>
<polygon fill="midnightblue" stroke="midnightblue" points="1055.1,-400.42 1045.18,-404.15 1055.26,-407.42 1055.1,-400.42"/>
</g>
<!-- Node25 -->
<g id="node25" class="node">
<title>Node25</title>
<g id="a_node25"><a xlink:href="PhysicsSubsystem_8hpp.html" target="_top" xlink:title=" ">
<polygon fill="none" stroke="black" points="1929,-330 1929,-349 2120,-349 2120,-330 1929,-330"/>
<text text-anchor="middle" x="2024.5" y="-337" font-family="Helvetica,sans-Serif" font-size="10.00">src/Subsystems/PhysicsSubsystem.hpp</text>
</a>
</g>
</g>
<!-- Node15&#45;&gt;Node25 -->
<g id="edge27" class="edge">
<title>Node15&#45;&gt;Node25</title>
<path fill="none" stroke="midnightblue" d="M1055.33,-403.44C1213.25,-398.6 1595.43,-384.62 1914.5,-355 1931.38,-353.43 1949.65,-351.23 1966.36,-349.01"/>
<polygon fill="midnightblue" stroke="midnightblue" points="1055.14,-399.94 1045.26,-403.74 1055.36,-406.94 1055.14,-399.94"/>
</g>
<!-- Node26 -->
<g id="node26" class="node">
<title>Node26</title>
<g id="a_node26"><a xlink:href="Camera_8hpp.html" target="_top" xlink:title=" ">
<polygon fill="none" stroke="black" points="246,-324.5 246,-354.5 373,-354.5 373,-324.5 246,-324.5"/>
<text text-anchor="start" x="254" y="-342.5" font-family="Helvetica,sans-Serif" font-size="10.00">includes/spic&#45;api&#45;headers</text>
<text text-anchor="middle" x="309.5" y="-331.5" font-family="Helvetica,sans-Serif" font-size="10.00">/Camera.hpp</text>
</a>
</g>
</g>
<!-- Node15&#45;&gt;Node26 -->
<g id="edge32" class="edge">
<title>Node15&#45;&gt;Node26</title>
<path fill="none" stroke="midnightblue" d="M907.42,-402.01C793.82,-396.03 569.92,-381.81 381.5,-355 378.72,-354.6 375.89,-354.17 373.03,-353.71"/>
<polygon fill="midnightblue" stroke="midnightblue" points="907.57,-405.52 917.73,-402.54 907.93,-398.53 907.57,-405.52"/>
</g>
<!-- Node28 -->
<g id="node28" class="node">
<title>Node28</title>
<g id="a_node28"><a xlink:href="GameObject__templates_8hpp.html" target="_top" xlink:title=" ">
<polygon fill="none" stroke="black" points="1548.5,-324.5 1548.5,-354.5 1688.5,-354.5 1688.5,-324.5 1548.5,-324.5"/>
<text text-anchor="start" x="1556.5" y="-342.5" font-family="Helvetica,sans-Serif" font-size="10.00">includes/spic&#45;api&#45;headers</text>
<text text-anchor="middle" x="1618.5" y="-331.5" font-family="Helvetica,sans-Serif" font-size="10.00">/GameObject_templates.hpp</text>
</a>
</g>
</g>
<!-- Node15&#45;&gt;Node28 -->
<g id="edge37" class="edge">
<title>Node15&#45;&gt;Node28</title>
<path fill="none" stroke="midnightblue" d="M1055.36,-400.97C1162.42,-393.92 1366.78,-378.62 1539.5,-355 1542.4,-354.6 1545.36,-354.17 1548.34,-353.72"/>
<polygon fill="midnightblue" stroke="midnightblue" points="1055.06,-397.48 1045.31,-401.63 1055.52,-404.47 1055.06,-397.48"/>
</g>
<!-- Node29 -->
<g id="node29" class="node">
<title>Node29</title>
<g id="a_node29"><a xlink:href="UIObject_8hpp.html" target="_top" xlink:title=" ">
<polygon fill="none" stroke="black" points="1745,-324.5 1745,-354.5 1872,-354.5 1872,-324.5 1745,-324.5"/>
<text text-anchor="start" x="1753" y="-342.5" font-family="Helvetica,sans-Serif" font-size="10.00">includes/spic&#45;api&#45;headers</text>
<text text-anchor="middle" x="1808.5" y="-331.5" font-family="Helvetica,sans-Serif" font-size="10.00">/UIObject.hpp</text>
</a>
</g>
</g>
<!-- Node15&#45;&gt;Node29 -->
<g id="edge38" class="edge">
<title>Node15&#45;&gt;Node29</title>
<path fill="none" stroke="midnightblue" d="M1055.57,-403.37C1190.34,-398.85 1484.44,-386.06 1730.5,-355 1735.15,-354.41 1739.93,-353.73 1744.74,-352.98"/>
<polygon fill="midnightblue" stroke="midnightblue" points="1055.25,-399.87 1045.37,-403.7 1055.48,-406.87 1055.25,-399.87"/>
</g>
<!-- Node25&#45;&gt;Node11 -->
<g id="edge29" class="edge">
<title>Node25&#45;&gt;Node11</title>
<path fill="none" stroke="midnightblue" d="M2058.17,-325.83C2075.67,-317.59 2095.97,-305.16 2108.5,-288 2152.94,-227.15 2093.48,-175.53 2147.5,-123 2170.49,-100.65 2248.68,-87.25 2310.43,-79.93"/>
<polygon fill="midnightblue" stroke="midnightblue" points="2056.53,-322.73 2048.81,-329.98 2059.37,-329.13 2056.53,-322.73"/>
</g>
<!-- Node25&#45;&gt;Node24 -->
<g id="edge28" class="edge">
<title>Node25&#45;&gt;Node24</title>
<path fill="none" stroke="midnightblue" d="M2018.78,-319.91C2014.96,-307.49 2010.11,-291.72 2007.15,-282.13"/>
<polygon fill="midnightblue" stroke="midnightblue" points="2015.52,-321.21 2021.8,-329.73 2022.21,-319.15 2015.52,-321.21"/>
</g>
<!-- Node26&#45;&gt;Node13 -->
<g id="edge35" class="edge">
<title>Node26&#45;&gt;Node13</title>
<path fill="none" stroke="midnightblue" d="M335.09,-318.07C346.55,-308.9 360.22,-297.93 372.5,-288 389.45,-274.29 391.4,-267.5 410.5,-257 588.68,-159.05 827.7,-101.45 923.35,-81"/>
<polygon fill="midnightblue" stroke="midnightblue" points="332.81,-315.41 327.18,-324.39 337.18,-320.88 332.81,-315.41"/>
</g>
<!-- Node26&#45;&gt;Node14 -->
<g id="edge36" class="edge">
<title>Node26&#45;&gt;Node14</title>
<path fill="none" stroke="midnightblue" d="M383.05,-323.83C759.69,-265.31 1201.7,-225.4 1363.87,-211.71"/>
<polygon fill="midnightblue" stroke="midnightblue" points="382.39,-320.39 373.05,-325.39 383.47,-327.31 382.39,-320.39"/>
</g>
<!-- Node26&#45;&gt;Node20 -->
<g id="edge34" class="edge">
<title>Node26&#45;&gt;Node20</title>
<path fill="none" stroke="midnightblue" d="M300.8,-314.94C296.59,-303.54 291.79,-290.55 288.71,-282.19"/>
<polygon fill="midnightblue" stroke="midnightblue" points="297.55,-316.23 304.29,-324.4 304.11,-313.8 297.55,-316.23"/>
</g>
<!-- Node27 -->
<g id="node27" class="node">
<title>Node27</title>
<g id="a_node27"><a xlink:href="Camera_8cpp.html" target="_top" xlink:title=" ">
<polygon fill="none" stroke="black" points="419.5,-263 419.5,-282 521.5,-282 521.5,-263 419.5,-263"/>
<text text-anchor="middle" x="470.5" y="-270" font-family="Helvetica,sans-Serif" font-size="10.00">src/Api/Camera.cpp</text>
</a>
</g>
</g>
<!-- Node26&#45;&gt;Node27 -->
<g id="edge33" class="edge">
<title>Node26&#45;&gt;Node27</title>
<path fill="none" stroke="midnightblue" d="M353.78,-320.62C384.95,-308.04 425.26,-291.77 449.43,-282.01"/>
<polygon fill="midnightblue" stroke="midnightblue" points="352.4,-317.41 344.43,-324.4 355.02,-323.9 352.4,-317.41"/>
</g>
<!-- Node29&#45;&gt;Node14 -->
<g id="edge40" class="edge">
<title>Node29&#45;&gt;Node14</title>
<path fill="none" stroke="midnightblue" d="M1734.43,-324.66C1733.11,-324.44 1731.8,-324.22 1730.5,-324 1621.49,-305.9 1578.53,-346.03 1484.5,-288 1458.64,-272.04 1441.4,-239.5 1433.14,-220.73"/>
<polygon fill="midnightblue" stroke="midnightblue" points="1734.23,-328.18 1744.68,-326.43 1735.43,-321.28 1734.23,-328.18"/>
</g>
<!-- Node30 -->
<g id="node30" class="node">
<title>Node30</title>
<g id="a_node30"><a xlink:href="UIObject_8cpp.html" target="_top" xlink:title=" ">
<polygon fill="none" stroke="black" points="1639,-263 1639,-282 1746,-282 1746,-263 1639,-263"/>
<text text-anchor="middle" x="1692.5" y="-270" font-family="Helvetica,sans-Serif" font-size="10.00">src/Api/UIObject.cpp</text>
</a>
</g>
</g>
<!-- Node29&#45;&gt;Node30 -->
<g id="edge39" class="edge">
<title>Node29&#45;&gt;Node30</title>
<path fill="none" stroke="midnightblue" d="M1774.54,-319.47C1752.4,-307.06 1724.57,-291.47 1707.68,-282.01"/>
<polygon fill="midnightblue" stroke="midnightblue" points="1772.9,-322.56 1783.33,-324.4 1776.32,-316.45 1772.9,-322.56"/>
</g>
<!-- Node31 -->
<g id="node31" class="node">
<title>Node31</title>
<g id="a_node31"><a xlink:href="Button_8hpp.html" target="_top" xlink:title=" ">
<polygon fill="none" stroke="black" points="1764,-257.5 1764,-287.5 1891,-287.5 1891,-257.5 1764,-257.5"/>
<text text-anchor="start" x="1772" y="-275.5" font-family="Helvetica,sans-Serif" font-size="10.00">includes/spic&#45;api&#45;headers</text>
<text text-anchor="middle" x="1827.5" y="-264.5" font-family="Helvetica,sans-Serif" font-size="10.00">/Button.hpp</text>
</a>
</g>
</g>
<!-- Node29&#45;&gt;Node31 -->
<g id="edge41" class="edge">
<title>Node29&#45;&gt;Node31</title>
<path fill="none" stroke="midnightblue" d="M1815.46,-314.7C1818.12,-305.59 1821.07,-295.49 1823.39,-287.58"/>
<polygon fill="midnightblue" stroke="midnightblue" points="1812.07,-313.82 1812.62,-324.4 1818.79,-315.78 1812.07,-313.82"/>
</g>
<!-- Node35 -->
<g id="node35" class="node">
<title>Node35</title>
<g id="a_node35"><a xlink:href="Text_8hpp.html" target="_top" xlink:title=" ">
<polygon fill="none" stroke="black" points="1494,-257.5 1494,-287.5 1621,-287.5 1621,-257.5 1494,-257.5"/>
<text text-anchor="start" x="1502" y="-275.5" font-family="Helvetica,sans-Serif" font-size="10.00">includes/spic&#45;api&#45;headers</text>
<text text-anchor="middle" x="1557.5" y="-264.5" font-family="Helvetica,sans-Serif" font-size="10.00">/Text.hpp</text>
</a>
</g>
</g>
<!-- Node29&#45;&gt;Node35 -->
<g id="edge47" class="edge">
<title>Node29&#45;&gt;Node35</title>
<path fill="none" stroke="midnightblue" d="M1744.46,-321.92C1703.5,-311.31 1650.94,-297.7 1611.99,-287.61"/>
<polygon fill="midnightblue" stroke="midnightblue" points="1743.79,-325.36 1754.35,-324.48 1745.54,-318.58 1743.79,-325.36"/>
</g>
<!-- Node31&#45;&gt;Node14 -->
<g id="edge46" class="edge">
<title>Node31&#45;&gt;Node14</title>
<path fill="none" stroke="midnightblue" d="M1753.8,-256.92C1656.28,-239.86 1555.05,-224.73 1491.24,-215.52"/>
<polygon fill="midnightblue" stroke="midnightblue" points="1753.37,-260.4 1763.83,-258.69 1754.59,-253.51 1753.37,-260.4"/>
</g>
<!-- Node32 -->
<g id="node32" class="node">
<title>Node32</title>
<g id="a_node32"><a xlink:href="Button_8cpp.html" target="_top" xlink:title=" ">
<polygon fill="none" stroke="black" points="1826,-129 1826,-148 1923,-148 1923,-129 1826,-129"/>
<text text-anchor="middle" x="1874.5" y="-136" font-family="Helvetica,sans-Serif" font-size="10.00">src/Api/Button.cpp</text>
</a>
</g>
</g>
<!-- Node31&#45;&gt;Node32 -->
<g id="edge42" class="edge">
<title>Node31&#45;&gt;Node32</title>
<path fill="none" stroke="midnightblue" d="M1841.97,-248.59C1846.81,-240.16 1851.89,-230.38 1855.5,-221 1865.32,-195.51 1870.96,-163.51 1873.27,-148.3"/>
<polygon fill="midnightblue" stroke="midnightblue" points="1838.81,-247.05 1836.69,-257.43 1844.82,-250.64 1838.81,-247.05"/>
</g>
<!-- Node33 -->
<g id="node33" class="node">
<title>Node33</title>
<g id="a_node33"><a xlink:href="ButtonMouseListener_8hpp.html" target="_top" xlink:title=" ">
<polygon fill="none" stroke="black" points="1712.5,-190.5 1712.5,-220.5 1846.5,-220.5 1846.5,-190.5 1712.5,-190.5"/>
<text text-anchor="start" x="1720.5" y="-208.5" font-family="Helvetica,sans-Serif" font-size="10.00">src/Listeners/ButtonMouse</text>
<text text-anchor="middle" x="1779.5" y="-197.5" font-family="Helvetica,sans-Serif" font-size="10.00">Listener.hpp</text>
</a>
</g>
</g>
<!-- Node31&#45;&gt;Node33 -->
<g id="edge43" class="edge">
<title>Node31&#45;&gt;Node33</title>
<path fill="none" stroke="midnightblue" d="M1811,-249.16C1804,-239.68 1796.06,-228.92 1789.89,-220.58"/>
<polygon fill="midnightblue" stroke="midnightblue" points="1808.33,-251.43 1817.08,-257.4 1813.96,-247.27 1808.33,-251.43"/>
</g>
<!-- Node33&#45;&gt;Node32 -->
<g id="edge44" class="edge">
<title>Node33&#45;&gt;Node32</title>
<path fill="none" stroke="midnightblue" d="M1808.52,-184.64C1826.45,-172.37 1848.54,-157.26 1862.07,-148.01"/>
<polygon fill="midnightblue" stroke="midnightblue" points="1806.39,-181.86 1800.11,-190.4 1810.34,-187.64 1806.39,-181.86"/>
</g>
<!-- Node34 -->
<g id="node34" class="node">
<title>Node34</title>
<g id="a_node34"><a xlink:href="ButtonMouseListener_8cpp.html" target="_top" xlink:title=" ">
<polygon fill="none" stroke="black" points="1673.5,-123.5 1673.5,-153.5 1807.5,-153.5 1807.5,-123.5 1673.5,-123.5"/>
<text text-anchor="start" x="1681.5" y="-141.5" font-family="Helvetica,sans-Serif" font-size="10.00">src/Listeners/ButtonMouse</text>
<text text-anchor="middle" x="1740.5" y="-130.5" font-family="Helvetica,sans-Serif" font-size="10.00">Listener.cpp</text>
</a>
</g>
</g>
<!-- Node33&#45;&gt;Node34 -->
<g id="edge45" class="edge">
<title>Node33&#45;&gt;Node34</title>
<path fill="none" stroke="midnightblue" d="M1765.75,-181.58C1760.14,-172.24 1753.85,-161.75 1748.95,-153.58"/>
<polygon fill="midnightblue" stroke="midnightblue" points="1762.89,-183.62 1771.04,-190.4 1768.89,-180.02 1762.89,-183.62"/>
</g>
<!-- Node35&#45;&gt;Node3 -->
<g id="edge49" class="edge">
<title>Node35&#45;&gt;Node3</title>
<path fill="none" stroke="midnightblue" d="M1631.12,-256.89C1874.33,-224.42 2153.2,-212.27 2273.43,-208.23"/>
<polygon fill="midnightblue" stroke="midnightblue" points="1630.47,-253.44 1621.03,-258.25 1631.41,-260.38 1630.47,-253.44"/>
</g>
<!-- Node35&#45;&gt;Node13 -->
<g id="edge50" class="edge">
<title>Node35&#45;&gt;Node13</title>
<path fill="none" stroke="midnightblue" d="M1546.89,-248.18C1537.19,-229.55 1521.08,-204.28 1499.5,-190 1364.71,-100.83 1173.03,-78.3 1059.74,-73.21"/>
<polygon fill="midnightblue" stroke="midnightblue" points="1543.79,-249.81 1551.37,-257.22 1550.06,-246.71 1543.79,-249.81"/>
</g>
<!-- Node35&#45;&gt;Node14 -->
<g id="edge51" class="edge">
<title>Node35&#45;&gt;Node14</title>
<path fill="none" stroke="midnightblue" d="M1520.21,-252.85C1499.65,-242.58 1474.55,-230.03 1455.65,-220.58"/>
<polygon fill="midnightblue" stroke="midnightblue" points="1518.78,-256.05 1529.29,-257.4 1521.91,-249.79 1518.78,-256.05"/>
</g>
<!-- Node36 -->
<g id="node36" class="node">
<title>Node36</title>
<g id="a_node36"><a xlink:href="Text_8cpp.html" target="_top" xlink:title=" ">
<polygon fill="none" stroke="black" points="1548,-196 1548,-215 1635,-215 1635,-196 1548,-196"/>
<text text-anchor="middle" x="1591.5" y="-203" font-family="Helvetica,sans-Serif" font-size="10.00">src/Api/Text.cpp</text>
</a>
</g>
</g>
<!-- Node35&#45;&gt;Node36 -->
<g id="edge48" class="edge">
<title>Node35&#45;&gt;Node36</title>
<path fill="none" stroke="midnightblue" d="M1569.64,-248.29C1575.65,-236.8 1582.54,-223.63 1586.95,-215.19"/>
<polygon fill="midnightblue" stroke="midnightblue" points="1566.41,-246.91 1564.88,-257.4 1572.61,-250.16 1566.41,-246.91"/>
</g>
</g>
</svg>
