<?xml version="1.0" encoding="UTF-8" standalone="no"?>
<!DOCTYPE svg PUBLIC "-//W3C//DTD SVG 1.1//EN"
 "http://www.w3.org/Graphics/SVG/1.1/DTD/svg11.dtd">
<!-- Generated by graphviz version 2.44.0 ()
 -->
<!-- Title: includes/spic&#45;api&#45;headers/Transform.hpp Pages: 1 -->
<!--zoomable 497 -->
<svg id="main" version="1.1" xmlns="http://www.w3.org/2000/svg" xmlns:xlink="http://www.w3.org/1999/xlink" xml:space="preserve" onload="init(evt)">
<style type="text/css"><![CDATA[
.edge:hover path { stroke: red; }
.edge:hover polygon { stroke: red; fill: red; }
]]></style>
<script type="text/javascript"><![CDATA[
var edges = document.getElementsByTagName('g');
if (edges && edges.length) {
  for (var i=0;i<edges.length;i++) {
    if (edges[i].id.substr(0,4)=='edge') {
      edges[i].setAttribute('class','edge');
    }
  }
}
]]></script>
        <defs>
                <circle id="rim" cx="0" cy="0" r="7"/>
                <circle id="rim2" cx="0" cy="0" r="3.5"/>
                <g id="zoomPlus">
                        <use xlink:href="#rim" fill="#404040">
                                <set attributeName="fill" to="#808080" begin="zoomplus.mouseover" end="zoomplus.mouseout"/>
                        </use>
                        <path d="M-4,0h8M0,-4v8" fill="none" stroke="white" stroke-width="1.5" pointer-events="none"/>
                </g>
                <g id="zoomMin">
                        <use xlink:href="#rim" fill="#404040">
                                <set attributeName="fill" to="#808080" begin="zoomminus.mouseover" end="zoomminus.mouseout"/>
                        </use>
                        <path d="M-4,0h8" fill="none" stroke="white" stroke-width="1.5" pointer-events="none"/>
                </g>
                <g id="dirArrow">
                        <path fill="none" stroke="white" stroke-width="1.5" d="M0,-3.0v7 M-2.5,-0.5L0,-3.0L2.5,-0.5"/>
                </g>
               <g id="resetDef">
                       <use xlink:href="#rim2" fill="#404040">
                               <set attributeName="fill" to="#808080" begin="reset.mouseover" end="reset.mouseout"/>
                       </use>
               </g>
        </defs>

<script type="text/javascript">
var viewWidth = 2264;
var viewHeight = 497;
var sectionId = 'dynsection-1';
</script>
<script xlink:href="svgpan.js"/>
<svg id="graph" class="graph">
<g id="viewport">
<title>includes/spic&#45;api&#45;headers/Transform.hpp</title>
<!-- Node1 -->
<g id="node1" class="node">
<title>Node1</title>
<g id="a_node1"><a xlink:title=" ">
<polygon fill="#bfbfbf" stroke="black" points="973.21,-458.5 973.21,-488.5 1100.21,-488.5 1100.21,-458.5 973.21,-458.5"/>
<text text-anchor="start" x="981.21" y="-476.5" font-family="Helvetica,sans-Serif" font-size="10.00">includes/spic&#45;api&#45;headers</text>
<text text-anchor="middle" x="1036.71" y="-465.5" font-family="Helvetica,sans-Serif" font-size="10.00">/Transform.hpp</text>
</a>
</g>
</g>
<!-- Node2 -->
<g id="node2" class="node">
<title>Node2</title>
<g id="a_node2"><a xlink:href="Window_8hpp.html" target="_top" xlink:title=" ">
<polygon fill="none" stroke="black" points="1734.71,-196 1734.71,-215 1854.71,-215 1854.71,-196 1734.71,-196"/>
<text text-anchor="middle" x="1794.71" y="-203" font-family="Helvetica,sans-Serif" font-size="10.00">src/Models/Window.hpp</text>
</a>
</g>
</g>
<!-- Node1&#45;&gt;Node2 -->
<g id="edge1" class="edge">
<title>Node1&#45;&gt;Node2</title>
<path fill="none" stroke="midnightblue" d="M1110.41,-468.41C1316.28,-456.26 1886.05,-417.23 1940.71,-355 1989.74,-299.18 1865.98,-237.29 1815.24,-215.04"/>
<polygon fill="midnightblue" stroke="midnightblue" points="1110.07,-464.93 1100.3,-469.01 1110.48,-471.92 1110.07,-464.93"/>
</g>
<!-- Node13 -->
<g id="node13" class="node">
<title>Node13</title>
<g id="a_node13"><a xlink:href="Api_8hpp.html" target="_top" xlink:title=" ">
<polygon fill="none" stroke="black" points="642.21,-190.5 642.21,-220.5 769.21,-220.5 769.21,-190.5 642.21,-190.5"/>
<text text-anchor="start" x="650.21" y="-208.5" font-family="Helvetica,sans-Serif" font-size="10.00">includes/spic&#45;api&#45;headers</text>
<text text-anchor="middle" x="705.71" y="-197.5" font-family="Helvetica,sans-Serif" font-size="10.00">/Api.hpp</text>
</a>
</g>
</g>
<!-- Node1&#45;&gt;Node13 -->
<g id="edge15" class="edge">
<title>Node1&#45;&gt;Node13</title>
<path fill="none" stroke="midnightblue" d="M962.89,-469.62C738.04,-460.09 73.14,-426.1 9.71,-355 -77.27,-257.5 454.53,-219.74 642.05,-209.56"/>
<polygon fill="midnightblue" stroke="midnightblue" points="962.8,-473.12 972.94,-470.04 963.09,-466.12 962.8,-473.12"/>
</g>
<!-- Node14 -->
<g id="node14" class="node">
<title>Node14</title>
<g id="a_node14"><a xlink:href="GameObject_8hpp.html" target="_top" xlink:title=" ">
<polygon fill="none" stroke="black" points="973.21,-391.5 973.21,-421.5 1100.21,-421.5 1100.21,-391.5 973.21,-391.5"/>
<text text-anchor="start" x="981.21" y="-409.5" font-family="Helvetica,sans-Serif" font-size="10.00">includes/spic&#45;api&#45;headers</text>
<text text-anchor="middle" x="1036.71" y="-398.5" font-family="Helvetica,sans-Serif" font-size="10.00">/GameObject.hpp</text>
</a>
</g>
</g>
<!-- Node1&#45;&gt;Node14 -->
<g id="edge16" class="edge">
<title>Node1&#45;&gt;Node14</title>
<path fill="none" stroke="midnightblue" d="M1036.71,-448.11C1036.71,-439.15 1036.71,-429.32 1036.71,-421.58"/>
<polygon fill="midnightblue" stroke="midnightblue" points="1033.21,-448.4 1036.71,-458.4 1040.21,-448.4 1033.21,-448.4"/>
</g>
<!-- Node3 -->
<g id="node3" class="node">
<title>Node3</title>
<g id="a_node3"><a xlink:href="TimeManager_8hpp.html" target="_top" xlink:title=" ">
<polygon fill="none" stroke="black" points="1956.71,-129 1956.71,-148 2112.71,-148 2112.71,-129 1956.71,-129"/>
<text text-anchor="middle" x="2034.71" y="-136" font-family="Helvetica,sans-Serif" font-size="10.00">src/Managers/TimeManager.hpp</text>
</a>
</g>
</g>
<!-- Node2&#45;&gt;Node3 -->
<g id="edge2" class="edge">
<title>Node2&#45;&gt;Node3</title>
<path fill="none" stroke="midnightblue" d="M1836.24,-193.25C1883.68,-180.41 1960.25,-159.67 2003.09,-148.06"/>
<polygon fill="midnightblue" stroke="midnightblue" points="1835.32,-189.88 1826.58,-195.87 1837.15,-196.63 1835.32,-189.88"/>
</g>
<!-- Node8 -->
<g id="node8" class="node">
<title>Node8</title>
<g id="a_node8"><a xlink:href="Window_8cpp.html" target="_top" xlink:title=" ">
<polygon fill="none" stroke="black" points="1660.71,-129 1660.71,-148 1780.71,-148 1780.71,-129 1660.71,-129"/>
<text text-anchor="middle" x="1720.71" y="-136" font-family="Helvetica,sans-Serif" font-size="10.00">src/Models/Window.cpp</text>
</a>
</g>
</g>
<!-- Node2&#45;&gt;Node8 -->
<g id="edge7" class="edge">
<title>Node2&#45;&gt;Node8</title>
<path fill="none" stroke="midnightblue" d="M1776.9,-188.86C1762.35,-176.08 1742.33,-158.49 1730.53,-148.13"/>
<polygon fill="midnightblue" stroke="midnightblue" points="1774.91,-191.76 1784.73,-195.73 1779.53,-186.5 1774.91,-191.76"/>
</g>
<!-- Node9 -->
<g id="node9" class="node">
<title>Node9</title>
<g id="a_node9"><a xlink:href="FpsCounterSubsystem_8hpp.html" target="_top" xlink:title=" ">
<polygon fill="none" stroke="black" points="1798.71,-123.5 1798.71,-153.5 1938.71,-153.5 1938.71,-123.5 1798.71,-123.5"/>
<text text-anchor="start" x="1806.71" y="-141.5" font-family="Helvetica,sans-Serif" font-size="10.00">src/Subsystems/FpsCounter</text>
<text text-anchor="middle" x="1868.71" y="-130.5" font-family="Helvetica,sans-Serif" font-size="10.00">Subsystem.hpp</text>
</a>
</g>
</g>
<!-- Node2&#45;&gt;Node9 -->
<g id="edge8" class="edge">
<title>Node2&#45;&gt;Node9</title>
<path fill="none" stroke="midnightblue" d="M1812.44,-188.93C1824.68,-178.18 1840.82,-164 1852.67,-153.59"/>
<polygon fill="midnightblue" stroke="midnightblue" points="1809.89,-186.5 1804.69,-195.73 1814.51,-191.76 1809.89,-186.5"/>
</g>
<!-- Node11 -->
<g id="node11" class="node">
<title>Node11</title>
<g id="a_node11"><a xlink:href="RenderSubsystem_8hpp.html" target="_top" xlink:title=" ">
<polygon fill="none" stroke="black" points="1454.71,-129 1454.71,-148 1642.71,-148 1642.71,-129 1454.71,-129"/>
<text text-anchor="middle" x="1548.71" y="-136" font-family="Helvetica,sans-Serif" font-size="10.00">src/Subsystems/RenderSubsystem.hpp</text>
</a>
</g>
</g>
<!-- Node2&#45;&gt;Node11 -->
<g id="edge12" class="edge">
<title>Node2&#45;&gt;Node11</title>
<path fill="none" stroke="midnightblue" d="M1752.41,-193.32C1703.84,-180.49 1625.2,-159.71 1581.2,-148.08"/>
<polygon fill="midnightblue" stroke="midnightblue" points="1751.74,-196.76 1762.3,-195.94 1753.52,-190 1751.74,-196.76"/>
</g>
<!-- Node4 -->
<g id="node4" class="node">
<title>Node4</title>
<g id="a_node4"><a xlink:href="Engine_8cpp.html" target="_top" xlink:title=" ">
<polygon fill="none" stroke="black" points="1779.71,-0.5 1779.71,-19.5 1877.71,-19.5 1877.71,-0.5 1779.71,-0.5"/>
<text text-anchor="middle" x="1828.71" y="-7.5" font-family="Helvetica,sans-Serif" font-size="10.00">src/Api/Engine.cpp</text>
</a>
</g>
</g>
<!-- Node3&#45;&gt;Node4 -->
<g id="edge3" class="edge">
<title>Node3&#45;&gt;Node4</title>
<path fill="none" stroke="midnightblue" d="M2018.63,-121.61C1997.31,-100.79 1960.54,-65.77 1944.71,-56 1917.87,-39.44 1883.92,-27.13 1859.69,-19.61"/>
<polygon fill="midnightblue" stroke="midnightblue" points="2016.38,-124.31 2025.97,-128.82 2021.28,-119.31 2016.38,-124.31"/>
</g>
<!-- Node5 -->
<g id="node5" class="node">
<title>Node5</title>
<g id="a_node5"><a xlink:href="src_2Api_2Time_8cpp.html" target="_top" xlink:title=" ">
<polygon fill="none" stroke="black" points="1991.71,-62 1991.71,-81 2081.71,-81 2081.71,-62 1991.71,-62"/>
<text text-anchor="middle" x="2036.71" y="-69" font-family="Helvetica,sans-Serif" font-size="10.00">src/Api/Time.cpp</text>
</a>
</g>
</g>
<!-- Node3&#45;&gt;Node5 -->
<g id="edge4" class="edge">
<title>Node3&#45;&gt;Node5</title>
<path fill="none" stroke="midnightblue" d="M2035.29,-118.54C2035.67,-106.17 2036.15,-90.62 2036.45,-81.13"/>
<polygon fill="midnightblue" stroke="midnightblue" points="2031.79,-118.63 2034.98,-128.73 2038.79,-118.85 2031.79,-118.63"/>
</g>
<!-- Node6 -->
<g id="node6" class="node">
<title>Node6</title>
<g id="a_node6"><a xlink:href="TimeManager_8cpp.html" target="_top" xlink:title=" ">
<polygon fill="none" stroke="black" points="2099.71,-62 2099.71,-81 2255.71,-81 2255.71,-62 2099.71,-62"/>
<text text-anchor="middle" x="2177.71" y="-69" font-family="Helvetica,sans-Serif" font-size="10.00">src/Managers/TimeManager.cpp</text>
</a>
</g>
</g>
<!-- Node3&#45;&gt;Node6 -->
<g id="edge5" class="edge">
<title>Node3&#45;&gt;Node6</title>
<path fill="none" stroke="midnightblue" d="M2063.06,-124.61C2091.39,-111.74 2134.14,-92.31 2158.64,-81.17"/>
<polygon fill="midnightblue" stroke="midnightblue" points="2061.36,-121.54 2053.7,-128.87 2064.25,-127.92 2061.36,-121.54"/>
</g>
<!-- Node7 -->
<g id="node7" class="node">
<title>Node7</title>
<g id="a_node7"><a xlink:href="FpsCounterSubsystem_8cpp.html" target="_top" xlink:title=" ">
<polygon fill="none" stroke="black" points="1795.71,-56.5 1795.71,-86.5 1935.71,-86.5 1935.71,-56.5 1795.71,-56.5"/>
<text text-anchor="start" x="1803.71" y="-74.5" font-family="Helvetica,sans-Serif" font-size="10.00">src/Subsystems/FpsCounter</text>
<text text-anchor="middle" x="1865.71" y="-63.5" font-family="Helvetica,sans-Serif" font-size="10.00">Subsystem.cpp</text>
</a>
</g>
</g>
<!-- Node3&#45;&gt;Node7 -->
<g id="edge6" class="edge">
<title>Node3&#45;&gt;Node7</title>
<path fill="none" stroke="midnightblue" d="M2002.74,-125.2C1974.1,-114.19 1932.12,-98.04 1902.18,-86.53"/>
<polygon fill="midnightblue" stroke="midnightblue" points="2001.68,-128.55 2012.27,-128.87 2004.19,-122.01 2001.68,-128.55"/>
</g>
<!-- Node9&#45;&gt;Node7 -->
<g id="edge9" class="edge">
<title>Node9&#45;&gt;Node7</title>
<path fill="none" stroke="midnightblue" d="M1867.6,-113.4C1867.18,-104.37 1866.72,-94.41 1866.36,-86.58"/>
<polygon fill="midnightblue" stroke="midnightblue" points="1864.1,-113.57 1868.06,-123.4 1871.1,-113.25 1864.1,-113.57"/>
</g>
<!-- Node10 -->
<g id="node10" class="node">
<title>Node10</title>
<g id="a_node10"><a xlink:href="Subsystems_8hpp.html" target="_top" xlink:title=" ">
<polygon fill="none" stroke="black" points="1541.71,-62 1541.71,-81 1703.71,-81 1703.71,-62 1541.71,-62"/>
<text text-anchor="middle" x="1622.71" y="-69" font-family="Helvetica,sans-Serif" font-size="10.00">src/Subsystems/Subsystems.hpp</text>
</a>
</g>
</g>
<!-- Node9&#45;&gt;Node10 -->
<g id="edge10" class="edge">
<title>Node9&#45;&gt;Node10</title>
<path fill="none" stroke="midnightblue" d="M1805.93,-120.91C1757.75,-108.18 1693.21,-91.13 1654.99,-81.03"/>
<polygon fill="midnightblue" stroke="midnightblue" points="1805.07,-124.31 1815.64,-123.48 1806.86,-117.54 1805.07,-124.31"/>
</g>
<!-- Node10&#45;&gt;Node4 -->
<g id="edge11" class="edge">
<title>Node10&#45;&gt;Node4</title>
<path fill="none" stroke="midnightblue" d="M1661.92,-59.18C1701.95,-47.61 1763.18,-29.93 1799.25,-19.51"/>
<polygon fill="midnightblue" stroke="midnightblue" points="1660.86,-55.84 1652.23,-61.98 1662.8,-62.56 1660.86,-55.84"/>
</g>
<!-- Node11&#45;&gt;Node10 -->
<g id="edge14" class="edge">
<title>Node11&#45;&gt;Node10</title>
<path fill="none" stroke="midnightblue" d="M1566.52,-121.86C1581.07,-109.08 1601.09,-91.49 1612.89,-81.13"/>
<polygon fill="midnightblue" stroke="midnightblue" points="1563.89,-119.5 1558.69,-128.73 1568.51,-124.76 1563.89,-119.5"/>
</g>
<!-- Node12 -->
<g id="node12" class="node">
<title>Node12</title>
<g id="a_node12"><a xlink:href="RenderSubsystem_8cpp.html" target="_top" xlink:title=" ">
<polygon fill="none" stroke="black" points="1084.71,-62 1084.71,-81 1272.71,-81 1272.71,-62 1084.71,-62"/>
<text text-anchor="middle" x="1178.71" y="-69" font-family="Helvetica,sans-Serif" font-size="10.00">src/Subsystems/RenderSubsystem.cpp</text>
</a>
</g>
</g>
<!-- Node11&#45;&gt;Node12 -->
<g id="edge13" class="edge">
<title>Node11&#45;&gt;Node12</title>
<path fill="none" stroke="midnightblue" d="M1490.05,-127.19C1417.38,-114.43 1294.93,-92.92 1227.28,-81.03"/>
<polygon fill="midnightblue" stroke="midnightblue" points="1489.5,-130.65 1499.96,-128.94 1490.72,-123.76 1489.5,-130.65"/>
</g>
<!-- Node14&#45;&gt;Node12 -->
<g id="edge28" class="edge">
<title>Node14&#45;&gt;Node12</title>
<path fill="none" stroke="midnightblue" d="M1050.04,-382.46C1060.99,-364.94 1077.73,-341.03 1096.71,-324 1120.43,-302.72 1141.55,-314.85 1158.71,-288 1202.62,-219.3 1186.46,-112.23 1180.52,-81.2"/>
<polygon fill="midnightblue" stroke="midnightblue" points="1046.78,-381.09 1044.59,-391.45 1052.77,-384.72 1046.78,-381.09"/>
</g>
<!-- Node14&#45;&gt;Node13 -->
<g id="edge29" class="edge">
<title>Node14&#45;&gt;Node13</title>
<path fill="none" stroke="midnightblue" d="M986.51,-387.85C964.67,-379.26 939.22,-367.98 917.71,-355 899.05,-343.74 899.33,-333.5 879.71,-324 812.93,-291.67 766.94,-342.6 716.71,-288 699.89,-269.72 700.85,-238.64 703.2,-220.6"/>
<polygon fill="midnightblue" stroke="midnightblue" points="985.35,-391.15 995.94,-391.48 987.86,-384.62 985.35,-391.15"/>
</g>
<!-- Node15 -->
<g id="node15" class="node">
<title>Node15</title>
<g id="a_node15"><a xlink:href="Animator_8cpp.html" target="_top" xlink:title=" ">
<polygon fill="none" stroke="black" points="1358.21,-330 1358.21,-349 1465.21,-349 1465.21,-330 1358.21,-330"/>
<text text-anchor="middle" x="1411.71" y="-337" font-family="Helvetica,sans-Serif" font-size="10.00">src/Api/Animator.cpp</text>
</a>
</g>
</g>
<!-- Node14&#45;&gt;Node15 -->
<g id="edge17" class="edge">
<title>Node14&#45;&gt;Node15</title>
<path fill="none" stroke="midnightblue" d="M1110.17,-395C1173.55,-385.61 1267.44,-370.91 1348.71,-355 1357.74,-353.23 1367.45,-351.11 1376.48,-349.04"/>
<polygon fill="midnightblue" stroke="midnightblue" points="1109.65,-391.54 1100.27,-396.46 1110.67,-398.47 1109.65,-391.54"/>
</g>
<!-- Node16 -->
<g id="node16" class="node">
<title>Node16</title>
<g id="a_node16"><a xlink:href="AudioSource_8cpp.html" target="_top" xlink:title=" ">
<polygon fill="none" stroke="black" points="1483.71,-330 1483.71,-349 1607.71,-349 1607.71,-330 1483.71,-330"/>
<text text-anchor="middle" x="1545.71" y="-337" font-family="Helvetica,sans-Serif" font-size="10.00">src/Api/AudioSource.cpp</text>
</a>
</g>
</g>
<!-- Node14&#45;&gt;Node16 -->
<g id="edge18" class="edge">
<title>Node14&#45;&gt;Node16</title>
<path fill="none" stroke="midnightblue" d="M1110.3,-398.89C1197.37,-390.64 1346.55,-375.12 1473.71,-355 1484.29,-353.33 1495.68,-351.19 1506.21,-349.07"/>
<polygon fill="midnightblue" stroke="midnightblue" points="1109.89,-395.42 1100.26,-399.84 1110.54,-402.38 1109.89,-395.42"/>
</g>
<!-- Node17 -->
<g id="node17" class="node">
<title>Node17</title>
<g id="a_node17"><a xlink:href="GameObject_8cpp.html" target="_top" xlink:title=" ">
<polygon fill="none" stroke="black" points="1626.21,-330 1626.21,-349 1749.21,-349 1749.21,-330 1626.21,-330"/>
<text text-anchor="middle" x="1687.71" y="-337" font-family="Helvetica,sans-Serif" font-size="10.00">src/Api/GameObject.cpp</text>
</a>
</g>
</g>
<!-- Node14&#45;&gt;Node17 -->
<g id="edge19" class="edge">
<title>Node14&#45;&gt;Node17</title>
<path fill="none" stroke="midnightblue" d="M1110.54,-401.79C1221.04,-395.62 1435.81,-381.26 1616.71,-355 1627.54,-353.43 1639.21,-351.25 1649.9,-349.06"/>
<polygon fill="midnightblue" stroke="midnightblue" points="1110.29,-398.3 1100.5,-402.34 1110.67,-405.29 1110.29,-398.3"/>
</g>
<!-- Node18 -->
<g id="node18" class="node">
<title>Node18</title>
<g id="a_node18"><a xlink:href="ContactListener_8cpp.html" target="_top" xlink:title=" ">
<polygon fill="none" stroke="black" points="1767.71,-330 1767.71,-349 1931.71,-349 1931.71,-330 1767.71,-330"/>
<text text-anchor="middle" x="1849.71" y="-337" font-family="Helvetica,sans-Serif" font-size="10.00">src/Listeners/ContactListener.cpp</text>
</a>
</g>
</g>
<!-- Node14&#45;&gt;Node18 -->
<g id="edge20" class="edge">
<title>Node14&#45;&gt;Node18</title>
<path fill="none" stroke="midnightblue" d="M1110.94,-402.47C1242.02,-396.64 1522.91,-381.98 1758.71,-355 1772.54,-353.42 1787.48,-351.24 1801.18,-349.05"/>
<polygon fill="midnightblue" stroke="midnightblue" points="1110.46,-398.99 1100.63,-402.92 1110.77,-405.98 1110.46,-398.99"/>
</g>
<!-- Node19 -->
<g id="node19" class="node">
<title>Node19</title>
<g id="a_node19"><a xlink:href="AnimatorSubsystem_8cpp.html" target="_top" xlink:title=" ">
<polygon fill="none" stroke="black" points="18.71,-330 18.71,-349 214.71,-349 214.71,-330 18.71,-330"/>
<text text-anchor="middle" x="116.71" y="-337" font-family="Helvetica,sans-Serif" font-size="10.00">src/Subsystems/AnimatorSubsystem.cpp</text>
</a>
</g>
</g>
<!-- Node14&#45;&gt;Node19 -->
<g id="edge21" class="edge">
<title>Node14&#45;&gt;Node19</title>
<path fill="none" stroke="midnightblue" d="M962.68,-402.7C819.63,-396.9 495.39,-381.81 223.71,-355 207.48,-353.4 189.92,-351.21 173.82,-349.02"/>
<polygon fill="midnightblue" stroke="midnightblue" points="962.94,-406.22 973.08,-403.12 963.22,-399.22 962.94,-406.22"/>
</g>
<!-- Node20 -->
<g id="node20" class="node">
<title>Node20</title>
<g id="a_node20"><a xlink:href="AudioSubsystem_8cpp.html" target="_top" xlink:title=" ">
<polygon fill="none" stroke="black" points="232.71,-330 232.71,-349 414.71,-349 414.71,-330 232.71,-330"/>
<text text-anchor="middle" x="323.71" y="-337" font-family="Helvetica,sans-Serif" font-size="10.00">src/Subsystems/AudioSubsystem.cpp</text>
</a>
</g>
</g>
<!-- Node14&#45;&gt;Node20 -->
<g id="edge22" class="edge">
<title>Node14&#45;&gt;Node20</title>
<path fill="none" stroke="midnightblue" d="M962.92,-400.9C847.63,-393.38 617.85,-377.05 423.71,-355 408.89,-353.32 392.89,-351.15 378.13,-349.01"/>
<polygon fill="midnightblue" stroke="midnightblue" points="962.84,-404.4 973.05,-401.56 963.29,-397.42 962.84,-404.4"/>
</g>
<!-- Node21 -->
<g id="node21" class="node">
<title>Node21</title>
<g id="a_node21"><a xlink:href="BehaviourScriptSubsystem_8cpp.html" target="_top" xlink:title=" ">
<polygon fill="none" stroke="black" points="432.71,-324.5 432.71,-354.5 566.71,-354.5 566.71,-324.5 432.71,-324.5"/>
<text text-anchor="start" x="440.71" y="-342.5" font-family="Helvetica,sans-Serif" font-size="10.00">src/Subsystems/Behaviour</text>
<text text-anchor="middle" x="499.71" y="-331.5" font-family="Helvetica,sans-Serif" font-size="10.00">ScriptSubsystem.cpp</text>
</a>
</g>
</g>
<!-- Node14&#45;&gt;Node21 -->
<g id="edge23" class="edge">
<title>Node14&#45;&gt;Node21</title>
<path fill="none" stroke="midnightblue" d="M962.88,-399.23C871.65,-391.07 711.8,-375.4 575.71,-355 572.79,-354.56 569.81,-354.09 566.8,-353.6"/>
<polygon fill="midnightblue" stroke="midnightblue" points="962.85,-402.74 973.12,-400.14 963.47,-395.77 962.85,-402.74"/>
</g>
<!-- Node22 -->
<g id="node22" class="node">
<title>Node22</title>
<g id="a_node22"><a xlink:href="PhysicsSubsystem_8cpp.html" target="_top" xlink:title=" ">
<polygon fill="none" stroke="black" points="1207.21,-263 1207.21,-282 1398.21,-282 1398.21,-263 1207.21,-263"/>
<text text-anchor="middle" x="1302.71" y="-270" font-family="Helvetica,sans-Serif" font-size="10.00">src/Subsystems/PhysicsSubsystem.cpp</text>
</a>
</g>
</g>
<!-- Node14&#45;&gt;Node22 -->
<g id="edge24" class="edge">
<title>Node14&#45;&gt;Node22</title>
<path fill="none" stroke="midnightblue" d="M1060.87,-384.68C1085.77,-363.53 1123.22,-332.69 1139.71,-324 1178.37,-303.63 1226.59,-289.97 1260.52,-282.05"/>
<polygon fill="midnightblue" stroke="midnightblue" points="1058.29,-382.28 1052.95,-391.43 1062.83,-387.6 1058.29,-382.28"/>
</g>
<!-- Node23 -->
<g id="node23" class="node">
<title>Node23</title>
<g id="a_node23"><a xlink:href="PhysicsSubsystem_8hpp.html" target="_top" xlink:title=" ">
<polygon fill="none" stroke="black" points="1149.21,-330 1149.21,-349 1340.21,-349 1340.21,-330 1149.21,-330"/>
<text text-anchor="middle" x="1244.71" y="-337" font-family="Helvetica,sans-Serif" font-size="10.00">src/Subsystems/PhysicsSubsystem.hpp</text>
</a>
</g>
</g>
<!-- Node14&#45;&gt;Node23 -->
<g id="edge25" class="edge">
<title>Node14&#45;&gt;Node23</title>
<path fill="none" stroke="midnightblue" d="M1091.34,-388.43C1131.9,-375.75 1185.51,-359 1217.42,-349.03"/>
<polygon fill="midnightblue" stroke="midnightblue" points="1090.09,-385.15 1081.59,-391.48 1092.18,-391.83 1090.09,-385.15"/>
</g>
<!-- Node24 -->
<g id="node24" class="node">
<title>Node24</title>
<g id="a_node24"><a xlink:href="Camera_8hpp.html" target="_top" xlink:title=" ">
<polygon fill="none" stroke="black" points="585.21,-324.5 585.21,-354.5 712.21,-354.5 712.21,-324.5 585.21,-324.5"/>
<text text-anchor="start" x="593.21" y="-342.5" font-family="Helvetica,sans-Serif" font-size="10.00">includes/spic&#45;api&#45;headers</text>
<text text-anchor="middle" x="648.71" y="-331.5" font-family="Helvetica,sans-Serif" font-size="10.00">/Camera.hpp</text>
</a>
</g>
</g>
<!-- Node14&#45;&gt;Node24 -->
<g id="edge30" class="edge">
<title>Node14&#45;&gt;Node24</title>
<path fill="none" stroke="midnightblue" d="M962.96,-394.47C899.04,-384.72 804.12,-369.78 721.71,-355 718.66,-354.45 715.54,-353.88 712.39,-353.29"/>
<polygon fill="midnightblue" stroke="midnightblue" points="962.53,-397.94 972.94,-395.99 963.58,-391.02 962.53,-397.94"/>
</g>
<!-- Node26 -->
<g id="node26" class="node">
<title>Node26</title>
<g id="a_node26"><a xlink:href="GameObject__templates_8hpp.html" target="_top" xlink:title=" ">
<polygon fill="none" stroke="black" points="730.71,-324.5 730.71,-354.5 870.71,-354.5 870.71,-324.5 730.71,-324.5"/>
<text text-anchor="start" x="738.71" y="-342.5" font-family="Helvetica,sans-Serif" font-size="10.00">includes/spic&#45;api&#45;headers</text>
<text text-anchor="middle" x="800.71" y="-331.5" font-family="Helvetica,sans-Serif" font-size="10.00">/GameObject_templates.hpp</text>
</a>
</g>
</g>
<!-- Node14&#45;&gt;Node26 -->
<g id="edge33" class="edge">
<title>Node14&#45;&gt;Node26</title>
<path fill="none" stroke="midnightblue" d="M975.77,-388.71C937.36,-378.14 888.34,-364.63 851.94,-354.61"/>
<polygon fill="midnightblue" stroke="midnightblue" points="975.22,-392.19 985.79,-391.48 977.08,-385.45 975.22,-392.19"/>
</g>
<!-- Node27 -->
<g id="node27" class="node">
<title>Node27</title>
<g id="a_node27"><a xlink:href="UIObject_8hpp.html" target="_top" xlink:title=" ">
<polygon fill="none" stroke="black" points="927.21,-324.5 927.21,-354.5 1054.21,-354.5 1054.21,-324.5 927.21,-324.5"/>
<text text-anchor="start" x="935.21" y="-342.5" font-family="Helvetica,sans-Serif" font-size="10.00">includes/spic&#45;api&#45;headers</text>
<text text-anchor="middle" x="990.71" y="-331.5" font-family="Helvetica,sans-Serif" font-size="10.00">/UIObject.hpp</text>
</a>
</g>
</g>
<!-- Node14&#45;&gt;Node27 -->
<g id="edge34" class="edge">
<title>Node14&#45;&gt;Node27</title>
<path fill="none" stroke="midnightblue" d="M1020.9,-383.16C1014.19,-373.68 1006.58,-362.92 1000.67,-354.58"/>
<polygon fill="midnightblue" stroke="midnightblue" points="1018.1,-385.26 1026.73,-391.4 1023.81,-381.21 1018.1,-385.26"/>
</g>
<!-- Node23&#45;&gt;Node10 -->
<g id="edge27" class="edge">
<title>Node23&#45;&gt;Node10</title>
<path fill="none" stroke="midnightblue" d="M1336.04,-327.34C1361.98,-319.98 1388.19,-307.87 1406.71,-288 1458.09,-232.88 1393.66,-177.49 1445.71,-123 1470.54,-97 1507.73,-84.1 1541.62,-77.81"/>
<polygon fill="midnightblue" stroke="midnightblue" points="1334.92,-324.02 1326.13,-329.93 1336.69,-330.79 1334.92,-324.02"/>
</g>
<!-- Node23&#45;&gt;Node22 -->
<g id="edge26" class="edge">
<title>Node23&#45;&gt;Node22</title>
<path fill="none" stroke="midnightblue" d="M1259.31,-322.13C1270.66,-309.42 1285.94,-292.3 1295.01,-282.13"/>
<polygon fill="midnightblue" stroke="midnightblue" points="1256.58,-319.94 1252.53,-329.73 1261.8,-324.6 1256.58,-319.94"/>
</g>
<!-- Node24&#45;&gt;Node13 -->
<g id="edge32" class="edge">
<title>Node24&#45;&gt;Node13</title>
<path fill="none" stroke="midnightblue" d="M653.88,-314.23C657.89,-297.66 664.19,-275.45 672.71,-257 678.68,-244.07 687.62,-230.62 694.69,-220.86"/>
<polygon fill="midnightblue" stroke="midnightblue" points="650.42,-313.67 651.59,-324.2 657.24,-315.25 650.42,-313.67"/>
</g>
<!-- Node25 -->
<g id="node25" class="node">
<title>Node25</title>
<g id="a_node25"><a xlink:href="Camera_8cpp.html" target="_top" xlink:title=" ">
<polygon fill="none" stroke="black" points="518.71,-263 518.71,-282 620.71,-282 620.71,-263 518.71,-263"/>
<text text-anchor="middle" x="569.71" y="-270" font-family="Helvetica,sans-Serif" font-size="10.00">src/Api/Camera.cpp</text>
</a>
</g>
</g>
<!-- Node24&#45;&gt;Node25 -->
<g id="edge31" class="edge">
<title>Node24&#45;&gt;Node25</title>
<path fill="none" stroke="midnightblue" d="M623.81,-318.01C609.14,-305.94 591.35,-291.3 580.28,-282.19"/>
<polygon fill="midnightblue" stroke="midnightblue" points="621.62,-320.75 631.57,-324.4 626.07,-315.34 621.62,-320.75"/>
</g>
<!-- Node27&#45;&gt;Node13 -->
<g id="edge36" class="edge">
<title>Node27&#45;&gt;Node13</title>
<path fill="none" stroke="midnightblue" d="M917.15,-324.28C845.62,-310.33 747.2,-290.75 743.71,-288 722.26,-271.08 712.38,-239.2 708.28,-220.73"/>
<polygon fill="midnightblue" stroke="midnightblue" points="916.57,-327.73 927.05,-326.21 917.9,-320.86 916.57,-327.73"/>
</g>
<!-- Node28 -->
<g id="node28" class="node">
<title>Node28</title>
<g id="a_node28"><a xlink:href="UIObject_8cpp.html" target="_top" xlink:title=" ">
<polygon fill="none" stroke="black" points="898.21,-263 898.21,-282 1005.21,-282 1005.21,-263 898.21,-263"/>
<text text-anchor="middle" x="951.71" y="-270" font-family="Helvetica,sans-Serif" font-size="10.00">src/Api/UIObject.cpp</text>
</a>
</g>
</g>
<!-- Node27&#45;&gt;Node28 -->
<g id="edge35" class="edge">
<title>Node27&#45;&gt;Node28</title>
<path fill="none" stroke="midnightblue" d="M976.99,-315.63C970.05,-304.07 962.04,-290.71 956.93,-282.19"/>
<polygon fill="midnightblue" stroke="midnightblue" points="974.1,-317.62 982.25,-324.4 980.1,-314.02 974.1,-317.62"/>
</g>
<!-- Node29 -->
<g id="node29" class="node">
<title>Node29</title>
<g id="a_node29"><a xlink:href="Button_8hpp.html" target="_top" xlink:title=" ">
<polygon fill="none" stroke="black" points="753.21,-257.5 753.21,-287.5 880.21,-287.5 880.21,-257.5 753.21,-257.5"/>
<text text-anchor="start" x="761.21" y="-275.5" font-family="Helvetica,sans-Serif" font-size="10.00">includes/spic&#45;api&#45;headers</text>
<text text-anchor="middle" x="816.71" y="-264.5" font-family="Helvetica,sans-Serif" font-size="10.00">/Button.hpp</text>
</a>
</g>
</g>
<!-- Node27&#45;&gt;Node29 -->
<g id="edge37" class="edge">
<title>Node27&#45;&gt;Node29</title>
<path fill="none" stroke="midnightblue" d="M943.38,-320.82C915.41,-310.37 880.48,-297.32 854.39,-287.58"/>
<polygon fill="midnightblue" stroke="midnightblue" points="942.36,-324.18 952.96,-324.4 944.81,-317.62 942.36,-324.18"/>
</g>
<!-- Node33 -->
<g id="node33" class="node">
<title>Node33</title>
<g id="a_node33"><a xlink:href="Text_8hpp.html" target="_top" xlink:title=" ">
<polygon fill="none" stroke="black" points="1023.21,-257.5 1023.21,-287.5 1150.21,-287.5 1150.21,-257.5 1023.21,-257.5"/>
<text text-anchor="start" x="1031.21" y="-275.5" font-family="Helvetica,sans-Serif" font-size="10.00">includes/spic&#45;api&#45;headers</text>
<text text-anchor="middle" x="1086.71" y="-264.5" font-family="Helvetica,sans-Serif" font-size="10.00">/Text.hpp</text>
</a>
</g>
</g>
<!-- Node27&#45;&gt;Node33 -->
<g id="edge43" class="edge">
<title>Node27&#45;&gt;Node33</title>
<path fill="none" stroke="midnightblue" d="M1019.9,-318.73C1034.76,-308.68 1052.47,-296.68 1065.92,-287.58"/>
<polygon fill="midnightblue" stroke="midnightblue" points="1017.86,-315.89 1011.54,-324.4 1021.78,-321.69 1017.86,-315.89"/>
</g>
<!-- Node29&#45;&gt;Node13 -->
<g id="edge42" class="edge">
<title>Node29&#45;&gt;Node13</title>
<path fill="none" stroke="midnightblue" d="M783.92,-252.3C766.55,-242.12 745.59,-229.85 729.75,-220.58"/>
<polygon fill="midnightblue" stroke="midnightblue" points="782.23,-255.36 792.63,-257.4 785.76,-249.32 782.23,-255.36"/>
</g>
<!-- Node30 -->
<g id="node30" class="node">
<title>Node30</title>
<g id="a_node30"><a xlink:href="Button_8cpp.html" target="_top" xlink:title=" ">
<polygon fill="none" stroke="black" points="768.21,-129 768.21,-148 865.21,-148 865.21,-129 768.21,-129"/>
<text text-anchor="middle" x="816.71" y="-136" font-family="Helvetica,sans-Serif" font-size="10.00">src/Api/Button.cpp</text>
</a>
</g>
</g>
<!-- Node29&#45;&gt;Node30 -->
<g id="edge38" class="edge">
<title>Node29&#45;&gt;Node30</title>
<path fill="none" stroke="midnightblue" d="M816.71,-247.32C816.71,-217.38 816.71,-167.91 816.71,-148.1"/>
<polygon fill="midnightblue" stroke="midnightblue" points="813.21,-247.37 816.71,-257.37 820.21,-247.37 813.21,-247.37"/>
</g>
<!-- Node31 -->
<g id="node31" class="node">
<title>Node31</title>
<g id="a_node31"><a xlink:href="ButtonMouseListener_8hpp.html" target="_top" xlink:title=" ">
<polygon fill="none" stroke="black" points="844.71,-190.5 844.71,-220.5 978.71,-220.5 978.71,-190.5 844.71,-190.5"/>
<text text-anchor="start" x="852.71" y="-208.5" font-family="Helvetica,sans-Serif" font-size="10.00">src/Listeners/ButtonMouse</text>
<text text-anchor="middle" x="911.71" y="-197.5" font-family="Helvetica,sans-Serif" font-size="10.00">Listener.hpp</text>
</a>
</g>
</g>
<!-- Node29&#45;&gt;Node31 -->
<g id="edge39" class="edge">
<title>Node29&#45;&gt;Node31</title>
<path fill="none" stroke="midnightblue" d="M845.6,-251.73C860.3,-241.68 877.83,-229.68 891.14,-220.58"/>
<polygon fill="midnightblue" stroke="midnightblue" points="843.6,-248.86 837.32,-257.4 847.55,-254.64 843.6,-248.86"/>
</g>
<!-- Node31&#45;&gt;Node30 -->
<g id="edge40" class="edge">
<title>Node31&#45;&gt;Node30</title>
<path fill="none" stroke="midnightblue" d="M882.69,-184.64C864.76,-172.37 842.67,-157.26 829.14,-148.01"/>
<polygon fill="midnightblue" stroke="midnightblue" points="880.87,-187.64 891.1,-190.4 884.82,-181.86 880.87,-187.64"/>
</g>
<!-- Node32 -->
<g id="node32" class="node">
<title>Node32</title>
<g id="a_node32"><a xlink:href="ButtonMouseListener_8cpp.html" target="_top" xlink:title=" ">
<polygon fill="none" stroke="black" points="883.71,-123.5 883.71,-153.5 1017.71,-153.5 1017.71,-123.5 883.71,-123.5"/>
<text text-anchor="start" x="891.71" y="-141.5" font-family="Helvetica,sans-Serif" font-size="10.00">src/Listeners/ButtonMouse</text>
<text text-anchor="middle" x="950.71" y="-130.5" font-family="Helvetica,sans-Serif" font-size="10.00">Listener.cpp</text>
</a>
</g>
</g>
<!-- Node31&#45;&gt;Node32 -->
<g id="edge41" class="edge">
<title>Node31&#45;&gt;Node32</title>
<path fill="none" stroke="midnightblue" d="M925.47,-181.58C931.07,-172.24 937.36,-161.75 942.27,-153.58"/>
<polygon fill="midnightblue" stroke="midnightblue" points="922.32,-180.02 920.17,-190.4 928.32,-183.62 922.32,-180.02"/>
</g>
<!-- Node33&#45;&gt;Node2 -->
<g id="edge45" class="edge">
<title>Node33&#45;&gt;Node2</title>
<path fill="none" stroke="midnightblue" d="M1160.63,-261.37C1173,-259.81 1185.71,-258.29 1197.71,-257 1393.69,-235.92 1626.65,-218.38 1734.46,-210.69"/>
<polygon fill="midnightblue" stroke="midnightblue" points="1159.81,-257.94 1150.34,-262.68 1160.7,-264.89 1159.81,-257.94"/>
</g>
<!-- Node33&#45;&gt;Node12 -->
<g id="edge46" class="edge">
<title>Node33&#45;&gt;Node12</title>
<path fill="none" stroke="midnightblue" d="M1103.32,-249.14C1109.24,-240.59 1115.69,-230.59 1120.71,-221 1147.29,-170.25 1168.81,-104.48 1176.07,-81.16"/>
<polygon fill="midnightblue" stroke="midnightblue" points="1100.35,-247.26 1097.41,-257.44 1106.06,-251.32 1100.35,-247.26"/>
</g>
<!-- Node33&#45;&gt;Node13 -->
<g id="edge47" class="edge">
<title>Node33&#45;&gt;Node13</title>
<path fill="none" stroke="midnightblue" d="M1013.14,-256.93C922.51,-240.61 829.39,-225.68 769.23,-216.28"/>
<polygon fill="midnightblue" stroke="midnightblue" points="1012.57,-260.39 1023.03,-258.72 1013.82,-253.5 1012.57,-260.39"/>
</g>
<!-- Node34 -->
<g id="node34" class="node">
<title>Node34</title>
<g id="a_node34"><a xlink:href="Text_8cpp.html" target="_top" xlink:title=" ">
<polygon fill="none" stroke="black" points="1025.21,-196 1025.21,-215 1112.21,-215 1112.21,-196 1025.21,-196"/>
<text text-anchor="middle" x="1068.71" y="-203" font-family="Helvetica,sans-Serif" font-size="10.00">src/Api/Text.cpp</text>
</a>
</g>
</g>
<!-- Node33&#45;&gt;Node34 -->
<g id="edge44" class="edge">
<title>Node33&#45;&gt;Node34</title>
<path fill="none" stroke="midnightblue" d="M1080.09,-247.6C1076.96,-236.28 1073.41,-223.46 1071.12,-215.19"/>
<polygon fill="midnightblue" stroke="midnightblue" points="1076.76,-248.69 1082.81,-257.4 1083.51,-246.82 1076.76,-248.69"/>
</g>
</g>
</svg>
        <g id="navigator" transform="translate(0 0)" fill="#404254">
                <rect fill="#f2f5e9" fill-opacity="0.5" stroke="#606060" stroke-width=".5" x="0" y="0" width="60" height="60"/>
                <use id="zoomplus" xlink:href="#zoomPlus" x="17" y="9" onmousedown="handleZoom(evt,'in')"/>
                <use id="zoomminus" xlink:href="#zoomMin" x="42" y="9" onmousedown="handleZoom(evt,'out')"/>
                <use id="reset" xlink:href="#resetDef" x="30" y="36" onmousedown="handleReset()"/>
                <g id="arrowUp" xlink:href="#dirArrow" transform="translate(30 24)" onmousedown="handlePan(0,-1)">
                  <use xlink:href="#rim" fill="#404040">
                        <set attributeName="fill" to="#808080" begin="arrowUp.mouseover" end="arrowUp.mouseout"/>
                  </use>
                  <path fill="none" stroke="white" stroke-width="1.5" d="M0,-3.0v7 M-2.5,-0.5L0,-3.0L2.5,-0.5"/>
                </g>
                <g id="arrowRight" xlink:href="#dirArrow" transform="rotate(90) translate(36 -43)" onmousedown="handlePan(1,0)">
                  <use xlink:href="#rim" fill="#404040">
                        <set attributeName="fill" to="#808080" begin="arrowRight.mouseover" end="arrowRight.mouseout"/>
                  </use>
                  <path fill="none" stroke="white" stroke-width="1.5" d="M0,-3.0v7 M-2.5,-0.5L0,-3.0L2.5,-0.5"/>
                </g>
                <g id="arrowDown" xlink:href="#dirArrow" transform="rotate(180) translate(-30 -48)" onmousedown="handlePan(0,1)">
                  <use xlink:href="#rim" fill="#404040">
                        <set attributeName="fill" to="#808080" begin="arrowDown.mouseover" end="arrowDown.mouseout"/>
                  </use>
                  <path fill="none" stroke="white" stroke-width="1.5" d="M0,-3.0v7 M-2.5,-0.5L0,-3.0L2.5,-0.5"/>
                </g>
                <g id="arrowLeft" xlink:href="#dirArrow" transform="rotate(270) translate(-36 17)" onmousedown="handlePan(-1,0)">
                  <use xlink:href="#rim" fill="#404040">
                        <set attributeName="fill" to="#808080" begin="arrowLeft.mouseover" end="arrowLeft.mouseout"/>
                  </use>
                  <path fill="none" stroke="white" stroke-width="1.5" d="M0,-3.0v7 M-2.5,-0.5L0,-3.0L2.5,-0.5"/>
                </g>
        </g>
        <svg viewBox="0 0 15 15" width="100%" height="30px" preserveAspectRatio="xMaxYMin meet">
         <g id="arrow_out" transform="scale(0.3 0.3)">
          <a xlink:href="Transform_8hpp__dep__incl_org.svg" target="_base">
           <rect id="button" ry="5" rx="5" y="6" x="6" height="38" width="38"
                fill="#f2f5e9" fill-opacity="0.5" stroke="#606060" stroke-width="1.0"/>
           <path id="arrow"
             d="M 11.500037,31.436501 C 11.940474,20.09759 22.043105,11.32322 32.158766,21.979434 L 37.068811,17.246167 C 37.068811,17.246167 37.088388,32 37.088388,32 L 22.160133,31.978069 C 22.160133,31.978069 26.997745,27.140456 26.997745,27.140456 C 18.528582,18.264221 13.291696,25.230495 11.500037,31.436501 z"
             style="fill:#404040;"/>
          </a>
         </g>
        </svg>
</svg>
