<?xml version="1.0" encoding="UTF-8" standalone="no"?>
<!DOCTYPE svg PUBLIC "-//W3C//DTD SVG 1.1//EN"
 "http://www.w3.org/Graphics/SVG/1.1/DTD/svg11.dtd">
<!-- Generated by graphviz version 2.44.0 ()
 -->
<!-- Title: includes/spic&#45;api&#45;headers/UIObject.hpp Pages: 1 -->
<!--zoomable 363 -->
<svg id="main" version="1.1" xmlns="http://www.w3.org/2000/svg" xmlns:xlink="http://www.w3.org/1999/xlink" xml:space="preserve" onload="init(evt)">
<style type="text/css"><![CDATA[
.edge:hover path { stroke: red; }
.edge:hover polygon { stroke: red; fill: red; }
]]></style>
<script type="text/javascript"><![CDATA[
var edges = document.getElementsByTagName('g');
if (edges && edges.length) {
  for (var i=0;i<edges.length;i++) {
    if (edges[i].id.substr(0,4)=='edge') {
      edges[i].setAttribute('class','edge');
    }
  }
}
]]></script>
        <defs>
                <circle id="rim" cx="0" cy="0" r="7"/>
                <circle id="rim2" cx="0" cy="0" r="3.5"/>
                <g id="zoomPlus">
                        <use xlink:href="#rim" fill="#404040">
                                <set attributeName="fill" to="#808080" begin="zoomplus.mouseover" end="zoomplus.mouseout"/>
                        </use>
                        <path d="M-4,0h8M0,-4v8" fill="none" stroke="white" stroke-width="1.5" pointer-events="none"/>
                </g>
                <g id="zoomMin">
                        <use xlink:href="#rim" fill="#404040">
                                <set attributeName="fill" to="#808080" begin="zoomminus.mouseover" end="zoomminus.mouseout"/>
                        </use>
                        <path d="M-4,0h8" fill="none" stroke="white" stroke-width="1.5" pointer-events="none"/>
                </g>
                <g id="dirArrow">
                        <path fill="none" stroke="white" stroke-width="1.5" d="M0,-3.0v7 M-2.5,-0.5L0,-3.0L2.5,-0.5"/>
                </g>
               <g id="resetDef">
                       <use xlink:href="#rim2" fill="#404040">
                               <set attributeName="fill" to="#808080" begin="reset.mouseover" end="reset.mouseout"/>
                       </use>
               </g>
        </defs>

<script type="text/javascript">
var viewWidth = 1016;
var viewHeight = 363;
var sectionId = 'dynsection-1';
</script>
<script xlink:href="svgpan.js"/>
<svg id="graph" class="graph">
<g id="viewport">
<title>includes/spic&#45;api&#45;headers/UIObject.hpp</title>
<!-- Node1 -->
<g id="node1" class="node">
<title>Node1</title>
<g id="a_node1"><a xlink:title=" ">
<polygon fill="#bfbfbf" stroke="black" points="203,-324.5 203,-354.5 330,-354.5 330,-324.5 203,-324.5"/>
<text text-anchor="start" x="211" y="-342.5" font-family="Helvetica,sans-Serif" font-size="10.00">includes/spic&#45;api&#45;headers</text>
<text text-anchor="middle" x="266.5" y="-331.5" font-family="Helvetica,sans-Serif" font-size="10.00">/UIObject.hpp</text>
</a>
</g>
</g>
<!-- Node2 -->
<g id="node2" class="node">
<title>Node2</title>
<g id="a_node2"><a xlink:href="UIObject_8cpp.html" target="_top" xlink:title=" ">
<polygon fill="none" stroke="black" points="32,-263 32,-282 139,-282 139,-263 32,-263"/>
<text text-anchor="middle" x="85.5" y="-270" font-family="Helvetica,sans-Serif" font-size="10.00">src/Api/UIObject.cpp</text>
</a>
</g>
</g>
<!-- Node1&#45;&gt;Node2 -->
<g id="edge1" class="edge">
<title>Node1&#45;&gt;Node2</title>
<path fill="none" stroke="midnightblue" d="M217.62,-320.95C182.46,-308.32 136.6,-291.85 109.19,-282.01"/>
<polygon fill="midnightblue" stroke="midnightblue" points="216.63,-324.31 227.23,-324.4 219,-317.72 216.63,-324.31"/>
</g>
<!-- Node3 -->
<g id="node3" class="node">
<title>Node3</title>
<g id="a_node3"><a xlink:href="Api_8hpp.html" target="_top" xlink:title=" ">
<polygon fill="none" stroke="black" points="249,-190.5 249,-220.5 376,-220.5 376,-190.5 249,-190.5"/>
<text text-anchor="start" x="257" y="-208.5" font-family="Helvetica,sans-Serif" font-size="10.00">includes/spic&#45;api&#45;headers</text>
<text text-anchor="middle" x="312.5" y="-197.5" font-family="Helvetica,sans-Serif" font-size="10.00">/Api.hpp</text>
</a>
</g>
</g>
<!-- Node1&#45;&gt;Node3 -->
<g id="edge2" class="edge">
<title>Node1&#45;&gt;Node3</title>
<path fill="none" stroke="midnightblue" d="M279.81,-315.45C284.3,-307.01 289.03,-297.26 292.5,-288 301.08,-265.08 307.01,-237.14 310.08,-220.64"/>
<polygon fill="midnightblue" stroke="midnightblue" points="276.68,-313.88 274.94,-324.33 282.82,-317.25 276.68,-313.88"/>
</g>
<!-- Node4 -->
<g id="node4" class="node">
<title>Node4</title>
<g id="a_node4"><a xlink:href="Button_8hpp.html" target="_top" xlink:title=" ">
<polygon fill="none" stroke="black" points="157,-257.5 157,-287.5 284,-287.5 284,-257.5 157,-257.5"/>
<text text-anchor="start" x="165" y="-275.5" font-family="Helvetica,sans-Serif" font-size="10.00">includes/spic&#45;api&#45;headers</text>
<text text-anchor="middle" x="220.5" y="-264.5" font-family="Helvetica,sans-Serif" font-size="10.00">/Button.hpp</text>
</a>
</g>
</g>
<!-- Node1&#45;&gt;Node4 -->
<g id="edge3" class="edge">
<title>Node1&#45;&gt;Node4</title>
<path fill="none" stroke="midnightblue" d="M250.69,-316.16C243.98,-306.68 236.37,-295.92 230.46,-287.58"/>
<polygon fill="midnightblue" stroke="midnightblue" points="247.88,-318.26 256.52,-324.4 253.6,-314.21 247.88,-318.26"/>
</g>
<!-- Node8 -->
<g id="node8" class="node">
<title>Node8</title>
<g id="a_node8"><a xlink:href="Text_8hpp.html" target="_top" xlink:title=" ">
<polygon fill="none" stroke="black" points="374,-257.5 374,-287.5 501,-287.5 501,-257.5 374,-257.5"/>
<text text-anchor="start" x="382" y="-275.5" font-family="Helvetica,sans-Serif" font-size="10.00">includes/spic&#45;api&#45;headers</text>
<text text-anchor="middle" x="437.5" y="-264.5" font-family="Helvetica,sans-Serif" font-size="10.00">/Text.hpp</text>
</a>
</g>
</g>
<!-- Node1&#45;&gt;Node8 -->
<g id="edge9" class="edge">
<title>Node1&#45;&gt;Node8</title>
<path fill="none" stroke="midnightblue" d="M313.02,-320.82C340.5,-310.37 374.83,-297.32 400.47,-287.58"/>
<polygon fill="midnightblue" stroke="midnightblue" points="311.71,-317.57 303.6,-324.4 314.2,-324.11 311.71,-317.57"/>
</g>
<!-- Node4&#45;&gt;Node3 -->
<g id="edge8" class="edge">
<title>Node4&#45;&gt;Node3</title>
<path fill="none" stroke="midnightblue" d="M248.88,-251.45C263.03,-241.45 279.81,-229.6 292.58,-220.58"/>
<polygon fill="midnightblue" stroke="midnightblue" points="246.61,-248.77 240.46,-257.4 250.65,-254.48 246.61,-248.77"/>
</g>
<!-- Node5 -->
<g id="node5" class="node">
<title>Node5</title>
<g id="a_node5"><a xlink:href="Button_8cpp.html" target="_top" xlink:title=" ">
<polygon fill="none" stroke="black" points="0,-129 0,-148 97,-148 97,-129 0,-129"/>
<text text-anchor="middle" x="48.5" y="-136" font-family="Helvetica,sans-Serif" font-size="10.00">src/Api/Button.cpp</text>
</a>
</g>
</g>
<!-- Node4&#45;&gt;Node5 -->
<g id="edge4" class="edge">
<title>Node4&#45;&gt;Node5</title>
<path fill="none" stroke="midnightblue" d="M147.22,-254.8C126.07,-247.21 104.21,-236.37 87.5,-221 65.33,-200.61 54.48,-164.96 50.44,-148.41"/>
<polygon fill="midnightblue" stroke="midnightblue" points="146.28,-258.17 156.87,-258.06 148.52,-251.54 146.28,-258.17"/>
</g>
<!-- Node6 -->
<g id="node6" class="node">
<title>Node6</title>
<g id="a_node6"><a xlink:href="ButtonMouseListener_8hpp.html" target="_top" xlink:title=" ">
<polygon fill="none" stroke="black" points="96.5,-190.5 96.5,-220.5 230.5,-220.5 230.5,-190.5 96.5,-190.5"/>
<text text-anchor="start" x="104.5" y="-208.5" font-family="Helvetica,sans-Serif" font-size="10.00">src/Listeners/ButtonMouse</text>
<text text-anchor="middle" x="163.5" y="-197.5" font-family="Helvetica,sans-Serif" font-size="10.00">Listener.hpp</text>
</a>
</g>
</g>
<!-- Node4&#45;&gt;Node6 -->
<g id="edge5" class="edge">
<title>Node4&#45;&gt;Node6</title>
<path fill="none" stroke="midnightblue" d="M201.41,-249.74C192.98,-240.12 183.31,-229.09 175.84,-220.58"/>
<polygon fill="midnightblue" stroke="midnightblue" points="198.91,-252.18 208.13,-257.4 204.17,-247.57 198.91,-252.18"/>
</g>
<!-- Node6&#45;&gt;Node5 -->
<g id="edge6" class="edge">
<title>Node6&#45;&gt;Node5</title>
<path fill="none" stroke="midnightblue" d="M129.84,-185.47C107.88,-173.06 80.3,-157.47 63.55,-148.01"/>
<polygon fill="midnightblue" stroke="midnightblue" points="128.12,-188.52 138.55,-190.4 131.56,-182.43 128.12,-188.52"/>
</g>
<!-- Node7 -->
<g id="node7" class="node">
<title>Node7</title>
<g id="a_node7"><a xlink:href="ButtonMouseListener_8cpp.html" target="_top" xlink:title=" ">
<polygon fill="none" stroke="black" points="115.5,-123.5 115.5,-153.5 249.5,-153.5 249.5,-123.5 115.5,-123.5"/>
<text text-anchor="start" x="123.5" y="-141.5" font-family="Helvetica,sans-Serif" font-size="10.00">src/Listeners/ButtonMouse</text>
<text text-anchor="middle" x="182.5" y="-130.5" font-family="Helvetica,sans-Serif" font-size="10.00">Listener.cpp</text>
</a>
</g>
</g>
<!-- Node6&#45;&gt;Node7 -->
<g id="edge7" class="edge">
<title>Node6&#45;&gt;Node7</title>
<path fill="none" stroke="midnightblue" d="M170.46,-180.7C173.12,-171.59 176.07,-161.49 178.39,-153.58"/>
<polygon fill="midnightblue" stroke="midnightblue" points="167.07,-179.82 167.62,-190.4 173.79,-181.78 167.07,-179.82"/>
</g>
<!-- Node8&#45;&gt;Node3 -->
<g id="edge26" class="edge">
<title>Node8&#45;&gt;Node3</title>
<path fill="none" stroke="midnightblue" d="M401.37,-252.71C381.66,-242.46 357.66,-229.98 339.57,-220.58"/>
<polygon fill="midnightblue" stroke="midnightblue" points="399.89,-255.89 410.38,-257.4 403.12,-249.68 399.89,-255.89"/>
</g>
<!-- Node9 -->
<g id="node9" class="node">
<title>Node9</title>
<g id="a_node9"><a xlink:href="Text_8cpp.html" target="_top" xlink:title=" ">
<polygon fill="none" stroke="black" points="394,-196 394,-215 481,-215 481,-196 394,-196"/>
<text text-anchor="middle" x="437.5" y="-203" font-family="Helvetica,sans-Serif" font-size="10.00">src/Api/Text.cpp</text>
</a>
</g>
</g>
<!-- Node8&#45;&gt;Node9 -->
<g id="edge10" class="edge">
<title>Node8&#45;&gt;Node9</title>
<path fill="none" stroke="midnightblue" d="M437.5,-247.25C437.5,-236.02 437.5,-223.38 437.5,-215.19"/>
<polygon fill="midnightblue" stroke="midnightblue" points="434,-247.4 437.5,-257.4 441,-247.4 434,-247.4"/>
</g>
<!-- Node10 -->
<g id="node10" class="node">
<title>Node10</title>
<g id="a_node10"><a xlink:href="Window_8hpp.html" target="_top" xlink:title=" ">
<polygon fill="none" stroke="black" points="499.5,-196 499.5,-215 619.5,-215 619.5,-196 499.5,-196"/>
<text text-anchor="middle" x="559.5" y="-203" font-family="Helvetica,sans-Serif" font-size="10.00">src/Models/Window.hpp</text>
</a>
</g>
</g>
<!-- Node8&#45;&gt;Node10 -->
<g id="edge11" class="edge">
<title>Node8&#45;&gt;Node10</title>
<path fill="none" stroke="midnightblue" d="M472.9,-252.64C496.24,-240.2 525.69,-224.51 543.53,-215.01"/>
<polygon fill="midnightblue" stroke="midnightblue" points="471.15,-249.6 463.97,-257.4 474.44,-255.78 471.15,-249.6"/>
</g>
<!-- Node20 -->
<g id="node20" class="node">
<title>Node20</title>
<g id="a_node20"><a xlink:href="RenderSubsystem_8cpp.html" target="_top" xlink:title=" ">
<polygon fill="none" stroke="black" points="819.5,-62 819.5,-81 1007.5,-81 1007.5,-62 819.5,-62"/>
<text text-anchor="middle" x="913.5" y="-69" font-family="Helvetica,sans-Serif" font-size="10.00">src/Subsystems/RenderSubsystem.cpp</text>
</a>
</g>
</g>
<!-- Node8&#45;&gt;Node20 -->
<g id="edge25" class="edge">
<title>Node8&#45;&gt;Node20</title>
<path fill="none" stroke="midnightblue" d="M511.73,-265.01C637.19,-252.33 882.6,-219.6 934.5,-154 951.91,-132 931.39,-97.16 920.04,-81.11"/>
<polygon fill="midnightblue" stroke="midnightblue" points="511.05,-261.56 501.44,-266.03 511.74,-268.53 511.05,-261.56"/>
</g>
<!-- Node11 -->
<g id="node11" class="node">
<title>Node11</title>
<g id="a_node11"><a xlink:href="TimeManager_8hpp.html" target="_top" xlink:title=" ">
<polygon fill="none" stroke="black" points="267.5,-129 267.5,-148 423.5,-148 423.5,-129 267.5,-129"/>
<text text-anchor="middle" x="345.5" y="-136" font-family="Helvetica,sans-Serif" font-size="10.00">src/Managers/TimeManager.hpp</text>
</a>
</g>
</g>
<!-- Node10&#45;&gt;Node11 -->
<g id="edge12" class="edge">
<title>Node10&#45;&gt;Node11</title>
<path fill="none" stroke="midnightblue" d="M521.4,-192.93C479.03,-180.06 411.58,-159.57 373.69,-148.06"/>
<polygon fill="midnightblue" stroke="midnightblue" points="520.5,-196.31 531.08,-195.87 522.53,-189.61 520.5,-196.31"/>
</g>
<!-- Node16 -->
<g id="node16" class="node">
<title>Node16</title>
<g id="a_node16"><a xlink:href="Window_8cpp.html" target="_top" xlink:title=" ">
<polygon fill="none" stroke="black" points="599.5,-129 599.5,-148 719.5,-148 719.5,-129 599.5,-129"/>
<text text-anchor="middle" x="659.5" y="-136" font-family="Helvetica,sans-Serif" font-size="10.00">src/Models/Window.cpp</text>
</a>
</g>
</g>
<!-- Node10&#45;&gt;Node16 -->
<g id="edge17" class="edge">
<title>Node10&#45;&gt;Node16</title>
<path fill="none" stroke="midnightblue" d="M581.39,-190.27C601.19,-177.4 629.69,-158.88 646.23,-148.13"/>
<polygon fill="midnightblue" stroke="midnightblue" points="579.46,-187.35 572.99,-195.73 583.28,-193.22 579.46,-187.35"/>
</g>
<!-- Node17 -->
<g id="node17" class="node">
<title>Node17</title>
<g id="a_node17"><a xlink:href="FpsCounterSubsystem_8hpp.html" target="_top" xlink:title=" ">
<polygon fill="none" stroke="black" points="441.5,-123.5 441.5,-153.5 581.5,-153.5 581.5,-123.5 441.5,-123.5"/>
<text text-anchor="start" x="449.5" y="-141.5" font-family="Helvetica,sans-Serif" font-size="10.00">src/Subsystems/FpsCounter</text>
<text text-anchor="middle" x="511.5" y="-130.5" font-family="Helvetica,sans-Serif" font-size="10.00">Subsystem.hpp</text>
</a>
</g>
</g>
<!-- Node10&#45;&gt;Node17 -->
<g id="edge18" class="edge">
<title>Node10&#45;&gt;Node17</title>
<path fill="none" stroke="midnightblue" d="M547.07,-187.67C539.26,-177.09 529.3,-163.6 521.9,-153.59"/>
<polygon fill="midnightblue" stroke="midnightblue" points="544.27,-189.77 553.03,-195.73 549.9,-185.61 544.27,-189.77"/>
</g>
<!-- Node19 -->
<g id="node19" class="node">
<title>Node19</title>
<g id="a_node19"><a xlink:href="RenderSubsystem_8hpp.html" target="_top" xlink:title=" ">
<polygon fill="none" stroke="black" points="737.5,-129 737.5,-148 925.5,-148 925.5,-129 737.5,-129"/>
<text text-anchor="middle" x="831.5" y="-136" font-family="Helvetica,sans-Serif" font-size="10.00">src/Subsystems/RenderSubsystem.hpp</text>
</a>
</g>
</g>
<!-- Node10&#45;&gt;Node19 -->
<g id="edge22" class="edge">
<title>Node10&#45;&gt;Node19</title>
<path fill="none" stroke="midnightblue" d="M605.26,-193.56C658.89,-180.75 746.62,-159.78 795.58,-148.08"/>
<polygon fill="midnightblue" stroke="midnightblue" points="604.25,-190.21 595.34,-195.94 605.88,-197.02 604.25,-190.21"/>
</g>
<!-- Node12 -->
<g id="node12" class="node">
<title>Node12</title>
<g id="a_node12"><a xlink:href="Engine_8cpp.html" target="_top" xlink:title=" ">
<polygon fill="none" stroke="black" points="356.5,-0.5 356.5,-19.5 454.5,-19.5 454.5,-0.5 356.5,-0.5"/>
<text text-anchor="middle" x="405.5" y="-7.5" font-family="Helvetica,sans-Serif" font-size="10.00">src/Api/Engine.cpp</text>
</a>
</g>
</g>
<!-- Node11&#45;&gt;Node12 -->
<g id="edge13" class="edge">
<title>Node11&#45;&gt;Node12</title>
<path fill="none" stroke="midnightblue" d="M291.25,-126.97C236.65,-115.83 159.27,-98.32 150.5,-87 142.07,-76.1 141.64,-66.56 150.5,-56 176.25,-25.31 289.77,-15.54 356.35,-12.44"/>
<polygon fill="midnightblue" stroke="midnightblue" points="290.67,-130.43 301.16,-128.98 292.05,-123.57 290.67,-130.43"/>
</g>
<!-- Node13 -->
<g id="node13" class="node">
<title>Node13</title>
<g id="a_node13"><a xlink:href="src_2Api_2Time_8cpp.html" target="_top" xlink:title=" ">
<polygon fill="none" stroke="black" points="159.5,-62 159.5,-81 249.5,-81 249.5,-62 159.5,-62"/>
<text text-anchor="middle" x="204.5" y="-69" font-family="Helvetica,sans-Serif" font-size="10.00">src/Api/Time.cpp</text>
</a>
</g>
</g>
<!-- Node11&#45;&gt;Node13 -->
<g id="edge14" class="edge">
<title>Node11&#45;&gt;Node13</title>
<path fill="none" stroke="midnightblue" d="M317.54,-124.61C289.62,-111.74 247.46,-92.31 223.3,-81.17"/>
<polygon fill="midnightblue" stroke="midnightblue" points="316.23,-127.86 326.78,-128.87 319.16,-121.5 316.23,-127.86"/>
</g>
<!-- Node14 -->
<g id="node14" class="node">
<title>Node14</title>
<g id="a_node14"><a xlink:href="TimeManager_8cpp.html" target="_top" xlink:title=" ">
<polygon fill="none" stroke="black" points="267.5,-62 267.5,-81 423.5,-81 423.5,-62 267.5,-62"/>
<text text-anchor="middle" x="345.5" y="-69" font-family="Helvetica,sans-Serif" font-size="10.00">src/Managers/TimeManager.cpp</text>
</a>
</g>
</g>
<!-- Node11&#45;&gt;Node14 -->
<g id="edge15" class="edge">
<title>Node11&#45;&gt;Node14</title>
<path fill="none" stroke="midnightblue" d="M345.5,-118.54C345.5,-106.17 345.5,-90.62 345.5,-81.13"/>
<polygon fill="midnightblue" stroke="midnightblue" points="342,-118.73 345.5,-128.73 349,-118.73 342,-118.73"/>
</g>
<!-- Node15 -->
<g id="node15" class="node">
<title>Node15</title>
<g id="a_node15"><a xlink:href="FpsCounterSubsystem_8cpp.html" target="_top" xlink:title=" ">
<polygon fill="none" stroke="black" points="441.5,-56.5 441.5,-86.5 581.5,-86.5 581.5,-56.5 441.5,-56.5"/>
<text text-anchor="start" x="449.5" y="-74.5" font-family="Helvetica,sans-Serif" font-size="10.00">src/Subsystems/FpsCounter</text>
<text text-anchor="middle" x="511.5" y="-63.5" font-family="Helvetica,sans-Serif" font-size="10.00">Subsystem.cpp</text>
</a>
</g>
</g>
<!-- Node11&#45;&gt;Node15 -->
<g id="edge16" class="edge">
<title>Node11&#45;&gt;Node15</title>
<path fill="none" stroke="midnightblue" d="M376.91,-125.2C405.04,-114.19 446.27,-98.04 475.67,-86.53"/>
<polygon fill="midnightblue" stroke="midnightblue" points="375.58,-121.96 367.54,-128.87 378.13,-128.48 375.58,-121.96"/>
</g>
<!-- Node17&#45;&gt;Node15 -->
<g id="edge19" class="edge">
<title>Node17&#45;&gt;Node15</title>
<path fill="none" stroke="midnightblue" d="M511.5,-113.11C511.5,-104.15 511.5,-94.32 511.5,-86.58"/>
<polygon fill="midnightblue" stroke="midnightblue" points="508,-113.4 511.5,-123.4 515,-113.4 508,-113.4"/>
</g>
<!-- Node18 -->
<g id="node18" class="node">
<title>Node18</title>
<g id="a_node18"><a xlink:href="Subsystems_8hpp.html" target="_top" xlink:title=" ">
<polygon fill="none" stroke="black" points="599.5,-62 599.5,-81 761.5,-81 761.5,-62 599.5,-62"/>
<text text-anchor="middle" x="680.5" y="-69" font-family="Helvetica,sans-Serif" font-size="10.00">src/Subsystems/Subsystems.hpp</text>
</a>
</g>
</g>
<!-- Node17&#45;&gt;Node18 -->
<g id="edge20" class="edge">
<title>Node17&#45;&gt;Node18</title>
<path fill="none" stroke="midnightblue" d="M557.56,-119.78C590.33,-107.18 632.9,-90.81 658.38,-81.01"/>
<polygon fill="midnightblue" stroke="midnightblue" points="556.25,-116.54 548.17,-123.4 558.76,-123.07 556.25,-116.54"/>
</g>
<!-- Node18&#45;&gt;Node12 -->
<g id="edge21" class="edge">
<title>Node18&#45;&gt;Node12</title>
<path fill="none" stroke="midnightblue" d="M631.19,-59.83C577.86,-48.29 493.91,-30.13 444.83,-19.51"/>
<polygon fill="midnightblue" stroke="midnightblue" points="630.59,-63.28 641.1,-61.98 632.07,-56.44 630.59,-63.28"/>
</g>
<!-- Node19&#45;&gt;Node18 -->
<g id="edge24" class="edge">
<title>Node19&#45;&gt;Node18</title>
<path fill="none" stroke="midnightblue" d="M801.95,-124.78C772.05,-111.91 726.62,-92.35 700.63,-81.17"/>
<polygon fill="midnightblue" stroke="midnightblue" points="800.88,-128.13 811.45,-128.87 803.65,-121.7 800.88,-128.13"/>
</g>
<!-- Node19&#45;&gt;Node20 -->
<g id="edge23" class="edge">
<title>Node19&#45;&gt;Node20</title>
<path fill="none" stroke="midnightblue" d="M850.78,-122.21C866.94,-109.41 889.42,-91.59 902.62,-81.13"/>
<polygon fill="midnightblue" stroke="midnightblue" points="848.22,-119.78 842.56,-128.73 852.57,-125.26 848.22,-119.78"/>
</g>
</g>
</svg>
        <g id="navigator" transform="translate(0 0)" fill="#404254">
                <rect fill="#f2f5e9" fill-opacity="0.5" stroke="#606060" stroke-width=".5" x="0" y="0" width="60" height="60"/>
                <use id="zoomplus" xlink:href="#zoomPlus" x="17" y="9" onmousedown="handleZoom(evt,'in')"/>
                <use id="zoomminus" xlink:href="#zoomMin" x="42" y="9" onmousedown="handleZoom(evt,'out')"/>
                <use id="reset" xlink:href="#resetDef" x="30" y="36" onmousedown="handleReset()"/>
                <g id="arrowUp" xlink:href="#dirArrow" transform="translate(30 24)" onmousedown="handlePan(0,-1)">
                  <use xlink:href="#rim" fill="#404040">
                        <set attributeName="fill" to="#808080" begin="arrowUp.mouseover" end="arrowUp.mouseout"/>
                  </use>
                  <path fill="none" stroke="white" stroke-width="1.5" d="M0,-3.0v7 M-2.5,-0.5L0,-3.0L2.5,-0.5"/>
                </g>
                <g id="arrowRight" xlink:href="#dirArrow" transform="rotate(90) translate(36 -43)" onmousedown="handlePan(1,0)">
                  <use xlink:href="#rim" fill="#404040">
                        <set attributeName="fill" to="#808080" begin="arrowRight.mouseover" end="arrowRight.mouseout"/>
                  </use>
                  <path fill="none" stroke="white" stroke-width="1.5" d="M0,-3.0v7 M-2.5,-0.5L0,-3.0L2.5,-0.5"/>
                </g>
                <g id="arrowDown" xlink:href="#dirArrow" transform="rotate(180) translate(-30 -48)" onmousedown="handlePan(0,1)">
                  <use xlink:href="#rim" fill="#404040">
                        <set attributeName="fill" to="#808080" begin="arrowDown.mouseover" end="arrowDown.mouseout"/>
                  </use>
                  <path fill="none" stroke="white" stroke-width="1.5" d="M0,-3.0v7 M-2.5,-0.5L0,-3.0L2.5,-0.5"/>
                </g>
                <g id="arrowLeft" xlink:href="#dirArrow" transform="rotate(270) translate(-36 17)" onmousedown="handlePan(-1,0)">
                  <use xlink:href="#rim" fill="#404040">
                        <set attributeName="fill" to="#808080" begin="arrowLeft.mouseover" end="arrowLeft.mouseout"/>
                  </use>
                  <path fill="none" stroke="white" stroke-width="1.5" d="M0,-3.0v7 M-2.5,-0.5L0,-3.0L2.5,-0.5"/>
                </g>
        </g>
        <svg viewBox="0 0 15 15" width="100%" height="30px" preserveAspectRatio="xMaxYMin meet">
         <g id="arrow_out" transform="scale(0.3 0.3)">
          <a xlink:href="UIObject_8hpp__dep__incl_org.svg" target="_base">
           <rect id="button" ry="5" rx="5" y="6" x="6" height="38" width="38"
                fill="#f2f5e9" fill-opacity="0.5" stroke="#606060" stroke-width="1.0"/>
           <path id="arrow"
             d="M 11.500037,31.436501 C 11.940474,20.09759 22.043105,11.32322 32.158766,21.979434 L 37.068811,17.246167 C 37.068811,17.246167 37.088388,32 37.088388,32 L 22.160133,31.978069 C 22.160133,31.978069 26.997745,27.140456 26.997745,27.140456 C 18.528582,18.264221 13.291696,25.230495 11.500037,31.436501 z"
             style="fill:#404040;"/>
          </a>
         </g>
        </svg>
</svg>
