<?xml version="1.0" encoding="UTF-8" standalone="no"?>
<!DOCTYPE svg PUBLIC "-//W3C//DTD SVG 1.1//EN"
 "http://www.w3.org/Graphics/SVG/1.1/DTD/svg11.dtd">
<!-- Generated by graphviz version 2.44.0 ()
 -->
<!-- Title: src/Subsystems/UpdateBehaviourScriptSubsystem.hpp Pages: 1 -->
<svg width="354pt" height="162pt"
 viewBox="0.00 0.00 353.50 162.00" xmlns="http://www.w3.org/2000/svg" xmlns:xlink="http://www.w3.org/1999/xlink">
<g id="graph0" class="graph" transform="scale(1 1) rotate(0) translate(4 158)">
<title>src/Subsystems/UpdateBehaviourScriptSubsystem.hpp</title>
<!-- Node1 -->
<g id="node1" class="node">
<title>Node1</title>
<g id="a_node1"><a xlink:title=" ">
<polygon fill="#bfbfbf" stroke="black" points="89.5,-123.5 89.5,-153.5 254.5,-153.5 254.5,-123.5 89.5,-123.5"/>
<text text-anchor="start" x="97.5" y="-141.5" font-family="Helvetica,sans-Serif" font-size="10.00">src/Subsystems/UpdateBehaviour</text>
<text text-anchor="middle" x="172" y="-130.5" font-family="Helvetica,sans-Serif" font-size="10.00">ScriptSubsystem.hpp</text>
</a>
</g>
</g>
<!-- Node2 -->
<g id="node2" class="node">
<title>Node2</title>
<g id="a_node2"><a xlink:href="Subsystems_8hpp.html" target="_top" xlink:title=" ">
<polygon fill="none" stroke="black" points="0,-62 0,-81 162,-81 162,-62 0,-62"/>
<text text-anchor="middle" x="81" y="-69" font-family="Helvetica,sans-Serif" font-size="10.00">src/Subsystems/Subsystems.hpp</text>
</a>
</g>
</g>
<!-- Node1&#45;&gt;Node2 -->
<g id="edge1" class="edge">
<title>Node1&#45;&gt;Node2</title>
<path fill="none" stroke="midnightblue" d="M143.73,-117.31C126.64,-105.1 105.75,-90.18 92.91,-81.01"/>
<polygon fill="midnightblue" stroke="midnightblue" points="142.08,-120.43 152.25,-123.4 146.15,-114.74 142.08,-120.43"/>
</g>
<!-- Node4 -->
<g id="node4" class="node">
<title>Node4</title>
<g id="a_node4"><a xlink:href="UpdateBehaviourScriptSubsystem_8cpp.html" target="_top" xlink:title=" ">
<polygon fill="none" stroke="black" points="180.5,-56.5 180.5,-86.5 345.5,-86.5 345.5,-56.5 180.5,-56.5"/>
<text text-anchor="start" x="188.5" y="-74.5" font-family="Helvetica,sans-Serif" font-size="10.00">src/Subsystems/UpdateBehaviour</text>
<text text-anchor="middle" x="263" y="-63.5" font-family="Helvetica,sans-Serif" font-size="10.00">ScriptSubsystem.cpp</text>
</a>
</g>
</g>
<!-- Node1&#45;&gt;Node4 -->
<g id="edge3" class="edge">
<title>Node1&#45;&gt;Node4</title>
<path fill="none" stroke="midnightblue" d="M200.07,-117.45C214.07,-107.45 230.66,-95.6 243.29,-86.58"/>
<polygon fill="midnightblue" stroke="midnightblue" points="197.85,-114.74 191.75,-123.4 201.92,-120.43 197.85,-114.74"/>
</g>
<!-- Node3 -->
<g id="node3" class="node">
<title>Node3</title>
<g id="a_node3"><a xlink:href="Engine_8cpp.html" target="_top" xlink:title=" ">
<polygon fill="none" stroke="black" points="32,-0.5 32,-19.5 130,-19.5 130,-0.5 32,-0.5"/>
<text text-anchor="middle" x="81" y="-7.5" font-family="Helvetica,sans-Serif" font-size="10.00">src/Api/Engine.cpp</text>
</a>
</g>
</g>
<!-- Node2&#45;&gt;Node3 -->
<g id="edge2" class="edge">
<title>Node2&#45;&gt;Node3</title>
<path fill="none" stroke="midnightblue" d="M81,-51.82C81,-41 81,-27.9 81,-19.51"/>
<polygon fill="midnightblue" stroke="midnightblue" points="77.5,-51.98 81,-61.98 84.5,-51.98 77.5,-51.98"/>
</g>
</g>
</svg>
