<?xml version="1.0" encoding="UTF-8" standalone="no"?>
<!DOCTYPE svg PUBLIC "-//W3C//DTD SVG 1.1//EN"
 "http://www.w3.org/Graphics/SVG/1.1/DTD/svg11.dtd">
<!-- Generated by graphviz version 2.44.0 ()
 -->
<!-- Title: includes/spic&#45;api&#45;headers/WindowConfig.hpp Pages: 1 -->
<svg width="797pt" height="240pt"
 viewBox="0.00 0.00 796.50 240.00" xmlns="http://www.w3.org/2000/svg" xmlns:xlink="http://www.w3.org/1999/xlink">
<g id="graph0" class="graph" transform="scale(1 1) rotate(0) translate(4 236)">
<title>includes/spic&#45;api&#45;headers/WindowConfig.hpp</title>
<!-- Node1 -->
<g id="node1" class="node">
<title>Node1</title>
<g id="a_node1"><a xlink:title=" ">
<polygon fill="#bfbfbf" stroke="black" points="46,-201.5 46,-231.5 173,-231.5 173,-201.5 46,-201.5"/>
<text text-anchor="start" x="54" y="-219.5" font-family="Helvetica,sans-Serif" font-size="10.00">includes/spic&#45;api&#45;headers</text>
<text text-anchor="middle" x="109.5" y="-208.5" font-family="Helvetica,sans-Serif" font-size="10.00">/WindowConfig.hpp</text>
</a>
</g>
</g>
<!-- Node2 -->
<g id="node2" class="node">
<title>Node2</title>
<g id="a_node2"><a xlink:href="Api_8hpp.html" target="_top" xlink:title=" ">
<polygon fill="none" stroke="black" points="0,-0.5 0,-30.5 127,-30.5 127,-0.5 0,-0.5"/>
<text text-anchor="start" x="8" y="-18.5" font-family="Helvetica,sans-Serif" font-size="10.00">includes/spic&#45;api&#45;headers</text>
<text text-anchor="middle" x="63.5" y="-7.5" font-family="Helvetica,sans-Serif" font-size="10.00">/Api.hpp</text>
</a>
</g>
</g>
<!-- Node1&#45;&gt;Node2 -->
<g id="edge1" class="edge">
<title>Node1&#45;&gt;Node2</title>
<path fill="none" stroke="midnightblue" d="M94.84,-192.35C90.19,-184.02 85.49,-174.36 82.5,-165 67.32,-117.46 64.22,-57.7 63.62,-30.79"/>
<polygon fill="midnightblue" stroke="midnightblue" points="91.9,-194.25 99.98,-201.1 97.94,-190.71 91.9,-194.25"/>
</g>
<!-- Node3 -->
<g id="node3" class="node">
<title>Node3</title>
<g id="a_node3"><a xlink:href="EngineConfig_8hpp.html" target="_top" xlink:title=" ">
<polygon fill="none" stroke="black" points="92,-134.5 92,-164.5 219,-164.5 219,-134.5 92,-134.5"/>
<text text-anchor="start" x="100" y="-152.5" font-family="Helvetica,sans-Serif" font-size="10.00">includes/spic&#45;api&#45;headers</text>
<text text-anchor="middle" x="155.5" y="-141.5" font-family="Helvetica,sans-Serif" font-size="10.00">/EngineConfig.hpp</text>
</a>
</g>
</g>
<!-- Node1&#45;&gt;Node3 -->
<g id="edge2" class="edge">
<title>Node1&#45;&gt;Node3</title>
<path fill="none" stroke="midnightblue" d="M125.31,-193.16C132.02,-183.68 139.63,-172.92 145.54,-164.58"/>
<polygon fill="midnightblue" stroke="midnightblue" points="122.4,-191.21 119.48,-201.4 128.12,-195.26 122.4,-191.21"/>
</g>
<!-- Node3&#45;&gt;Node2 -->
<g id="edge3" class="edge">
<title>Node3&#45;&gt;Node2</title>
<path fill="none" stroke="midnightblue" d="M139.7,-125.83C120.63,-98.47 89.14,-53.28 73.27,-30.52"/>
<polygon fill="midnightblue" stroke="midnightblue" points="137.07,-128.17 145.65,-134.37 142.81,-124.17 137.07,-128.17"/>
</g>
<!-- Node4 -->
<g id="node4" class="node">
<title>Node4</title>
<g id="a_node4"><a xlink:href="Engine_8hpp.html" target="_top" xlink:title=" ">
<polygon fill="none" stroke="black" points="157,-67.5 157,-97.5 284,-97.5 284,-67.5 157,-67.5"/>
<text text-anchor="start" x="165" y="-85.5" font-family="Helvetica,sans-Serif" font-size="10.00">includes/spic&#45;api&#45;headers</text>
<text text-anchor="middle" x="220.5" y="-74.5" font-family="Helvetica,sans-Serif" font-size="10.00">/Engine.hpp</text>
</a>
</g>
</g>
<!-- Node3&#45;&gt;Node4 -->
<g id="edge4" class="edge">
<title>Node3&#45;&gt;Node4</title>
<path fill="none" stroke="midnightblue" d="M176.69,-127.31C186.44,-117.56 197.74,-106.26 206.42,-97.58"/>
<polygon fill="midnightblue" stroke="midnightblue" points="174.2,-124.85 169.6,-134.4 179.15,-129.8 174.2,-124.85"/>
</g>
<!-- Node4&#45;&gt;Node2 -->
<g id="edge9" class="edge">
<title>Node4&#45;&gt;Node2</title>
<path fill="none" stroke="midnightblue" d="M177.13,-63.54C152.01,-53.14 120.84,-40.24 97.5,-30.58"/>
<polygon fill="midnightblue" stroke="midnightblue" points="175.86,-66.8 186.43,-67.4 178.53,-60.34 175.86,-66.8"/>
</g>
<!-- Node5 -->
<g id="node5" class="node">
<title>Node5</title>
<g id="a_node5"><a xlink:href="Engine_8cpp.html" target="_top" xlink:title=" ">
<polygon fill="none" stroke="black" points="145.5,-6 145.5,-25 243.5,-25 243.5,-6 145.5,-6"/>
<text text-anchor="middle" x="194.5" y="-13" font-family="Helvetica,sans-Serif" font-size="10.00">src/Api/Engine.cpp</text>
</a>
</g>
</g>
<!-- Node4&#45;&gt;Node5 -->
<g id="edge5" class="edge">
<title>Node4&#45;&gt;Node5</title>
<path fill="none" stroke="midnightblue" d="M211.08,-57.94C206.52,-46.54 201.32,-33.55 197.98,-25.19"/>
<polygon fill="midnightblue" stroke="midnightblue" points="207.89,-59.41 214.86,-67.4 214.39,-56.81 207.89,-59.41"/>
</g>
<!-- Node6 -->
<g id="node6" class="node">
<title>Node6</title>
<g id="a_node6"><a xlink:href="GameObject_8cpp.html" target="_top" xlink:title=" ">
<polygon fill="none" stroke="black" points="262,-6 262,-25 385,-25 385,-6 262,-6"/>
<text text-anchor="middle" x="323.5" y="-13" font-family="Helvetica,sans-Serif" font-size="10.00">src/Api/GameObject.cpp</text>
</a>
</g>
</g>
<!-- Node4&#45;&gt;Node6 -->
<g id="edge6" class="edge">
<title>Node4&#45;&gt;Node6</title>
<path fill="none" stroke="midnightblue" d="M251.44,-61.97C270.97,-49.65 295.22,-34.35 310.02,-25.01"/>
<polygon fill="midnightblue" stroke="midnightblue" points="249.44,-59.1 242.85,-67.4 253.17,-65.02 249.44,-59.1"/>
</g>
<!-- Node7 -->
<g id="node7" class="node">
<title>Node7</title>
<g id="a_node7"><a xlink:href="InputSubsystem_8cpp.html" target="_top" xlink:title=" ">
<polygon fill="none" stroke="black" points="403,-6 403,-25 582,-25 582,-6 403,-6"/>
<text text-anchor="middle" x="492.5" y="-13" font-family="Helvetica,sans-Serif" font-size="10.00">src/Subsystems/InputSubsystem.cpp</text>
</a>
</g>
</g>
<!-- Node4&#45;&gt;Node7 -->
<g id="edge7" class="edge">
<title>Node4&#45;&gt;Node7</title>
<path fill="none" stroke="midnightblue" d="M288.92,-65.15C342.3,-52.39 414.29,-35.19 456.81,-25.03"/>
<polygon fill="midnightblue" stroke="midnightblue" points="288.1,-61.75 279.19,-67.48 289.72,-68.56 288.1,-61.75"/>
</g>
<!-- Node8 -->
<g id="node8" class="node">
<title>Node8</title>
<g id="a_node8"><a xlink:href="RenderSubsystem_8cpp.html" target="_top" xlink:title=" ">
<polygon fill="none" stroke="black" points="600.5,-6 600.5,-25 788.5,-25 788.5,-6 600.5,-6"/>
<text text-anchor="middle" x="694.5" y="-13" font-family="Helvetica,sans-Serif" font-size="10.00">src/Subsystems/RenderSubsystem.cpp</text>
</a>
</g>
</g>
<!-- Node4&#45;&gt;Node8 -->
<g id="edge8" class="edge">
<title>Node4&#45;&gt;Node8</title>
<path fill="none" stroke="midnightblue" d="M294.46,-71.53C369.35,-61.42 488.49,-45.26 591.5,-31 605.36,-29.08 620.27,-26.99 634.32,-25.02"/>
<polygon fill="midnightblue" stroke="midnightblue" points="293.63,-68.11 284.19,-72.92 294.57,-75.05 293.63,-68.11"/>
</g>
</g>
</svg>
