<?xml version="1.0" encoding="UTF-8" standalone="no"?>
<!DOCTYPE svg PUBLIC "-//W3C//DTD SVG 1.1//EN"
 "http://www.w3.org/Graphics/SVG/1.1/DTD/svg11.dtd">
<!-- Generated by graphviz version 2.44.0 ()
 -->
<!-- Title: includes/spic&#45;api&#45;headers/WindowConfig.hpp Pages: 1 -->
<svg width="1156pt" height="240pt"
 viewBox="0.00 0.00 1155.50 240.00" xmlns="http://www.w3.org/2000/svg" xmlns:xlink="http://www.w3.org/1999/xlink">
<g id="graph0" class="graph" transform="scale(1 1) rotate(0) translate(4 236)">
<title>includes/spic&#45;api&#45;headers/WindowConfig.hpp</title>
<!-- Node1 -->
<g id="node1" class="node">
<title>Node1</title>
<g id="a_node1"><a xlink:title=" ">
<polygon fill="#bfbfbf" stroke="black" points="46,-201.5 46,-231.5 173,-231.5 173,-201.5 46,-201.5"/>
<text text-anchor="start" x="54" y="-219.5" font-family="Helvetica,sans-Serif" font-size="10.00">includes/spic&#45;api&#45;headers</text>
<text text-anchor="middle" x="109.5" y="-208.5" font-family="Helvetica,sans-Serif" font-size="10.00">/WindowConfig.hpp</text>
</a>
</g>
</g>
<!-- Node2 -->
<g id="node2" class="node">
<title>Node2</title>
<g id="a_node2"><a xlink:href="Api_8hpp.html" target="_top" xlink:title=" ">
<polygon fill="none" stroke="black" points="0,-0.5 0,-30.5 127,-30.5 127,-0.5 0,-0.5"/>
<text text-anchor="start" x="8" y="-18.5" font-family="Helvetica,sans-Serif" font-size="10.00">includes/spic&#45;api&#45;headers</text>
<text text-anchor="middle" x="63.5" y="-7.5" font-family="Helvetica,sans-Serif" font-size="10.00">/Api.hpp</text>
</a>
</g>
</g>
<!-- Node1&#45;&gt;Node2 -->
<g id="edge1" class="edge">
<title>Node1&#45;&gt;Node2</title>
<path fill="none" stroke="midnightblue" d="M94.84,-192.35C90.19,-184.02 85.49,-174.36 82.5,-165 67.32,-117.46 64.22,-57.7 63.62,-30.79"/>
<polygon fill="midnightblue" stroke="midnightblue" points="91.9,-194.25 99.98,-201.1 97.94,-190.71 91.9,-194.25"/>
</g>
<!-- Node3 -->
<g id="node3" class="node">
<title>Node3</title>
<g id="a_node3"><a xlink:href="EngineConfig_8hpp.html" target="_top" xlink:title=" ">
<polygon fill="none" stroke="black" points="92,-134.5 92,-164.5 219,-164.5 219,-134.5 92,-134.5"/>
<text text-anchor="start" x="100" y="-152.5" font-family="Helvetica,sans-Serif" font-size="10.00">includes/spic&#45;api&#45;headers</text>
<text text-anchor="middle" x="155.5" y="-141.5" font-family="Helvetica,sans-Serif" font-size="10.00">/EngineConfig.hpp</text>
</a>
</g>
</g>
<!-- Node1&#45;&gt;Node3 -->
<g id="edge2" class="edge">
<title>Node1&#45;&gt;Node3</title>
<path fill="none" stroke="midnightblue" d="M125.31,-193.16C132.02,-183.68 139.63,-172.92 145.54,-164.58"/>
<polygon fill="midnightblue" stroke="midnightblue" points="122.4,-191.21 119.48,-201.4 128.12,-195.26 122.4,-191.21"/>
</g>
<!-- Node3&#45;&gt;Node2 -->
<g id="edge3" class="edge">
<title>Node3&#45;&gt;Node2</title>
<path fill="none" stroke="midnightblue" d="M139.7,-125.83C120.63,-98.47 89.14,-53.28 73.27,-30.52"/>
<polygon fill="midnightblue" stroke="midnightblue" points="137.07,-128.17 145.65,-134.37 142.81,-124.17 137.07,-128.17"/>
</g>
<!-- Node4 -->
<g id="node4" class="node">
<title>Node4</title>
<g id="a_node4"><a xlink:href="Engine_8hpp.html" target="_top" xlink:title=" ">
<polygon fill="none" stroke="black" points="345,-67.5 345,-97.5 472,-97.5 472,-67.5 345,-67.5"/>
<text text-anchor="start" x="353" y="-85.5" font-family="Helvetica,sans-Serif" font-size="10.00">includes/spic&#45;api&#45;headers</text>
<text text-anchor="middle" x="408.5" y="-74.5" font-family="Helvetica,sans-Serif" font-size="10.00">/Engine.hpp</text>
</a>
</g>
</g>
<!-- Node3&#45;&gt;Node4 -->
<g id="edge4" class="edge">
<title>Node3&#45;&gt;Node4</title>
<path fill="none" stroke="midnightblue" d="M219.78,-131.98C261.11,-121.37 314.23,-107.72 353.58,-97.61"/>
<polygon fill="midnightblue" stroke="midnightblue" points="218.9,-128.6 210.09,-134.48 220.64,-135.38 218.9,-128.6"/>
</g>
<!-- Node4&#45;&gt;Node2 -->
<g id="edge11" class="edge">
<title>Node4&#45;&gt;Node2</title>
<path fill="none" stroke="midnightblue" d="M335.02,-68.11C280.26,-58.08 203.66,-43.9 136.5,-31 133.45,-30.41 130.34,-29.81 127.19,-29.2"/>
<polygon fill="midnightblue" stroke="midnightblue" points="334.51,-71.58 344.98,-69.94 335.77,-64.69 334.51,-71.58"/>
</g>
<!-- Node5 -->
<g id="node5" class="node">
<title>Node5</title>
<g id="a_node5"><a xlink:href="Engine_8cpp.html" target="_top" xlink:title=" ">
<polygon fill="none" stroke="black" points="145.5,-6 145.5,-25 243.5,-25 243.5,-6 145.5,-6"/>
<text text-anchor="middle" x="194.5" y="-13" font-family="Helvetica,sans-Serif" font-size="10.00">src/Api/Engine.cpp</text>
</a>
</g>
</g>
<!-- Node4&#45;&gt;Node5 -->
<g id="edge5" class="edge">
<title>Node4&#45;&gt;Node5</title>
<path fill="none" stroke="midnightblue" d="M352.56,-64.51C310.8,-51.83 255.48,-35.02 222.58,-25.03"/>
<polygon fill="midnightblue" stroke="midnightblue" points="351.74,-67.92 362.33,-67.48 353.78,-61.22 351.74,-67.92"/>
</g>
<!-- Node6 -->
<g id="node6" class="node">
<title>Node6</title>
<g id="a_node6"><a xlink:href="GameObject_8cpp.html" target="_top" xlink:title=" ">
<polygon fill="none" stroke="black" points="262,-6 262,-25 385,-25 385,-6 262,-6"/>
<text text-anchor="middle" x="323.5" y="-13" font-family="Helvetica,sans-Serif" font-size="10.00">src/Api/GameObject.cpp</text>
</a>
</g>
</g>
<!-- Node4&#45;&gt;Node6 -->
<g id="edge6" class="edge">
<title>Node4&#45;&gt;Node6</title>
<path fill="none" stroke="midnightblue" d="M381.7,-61.01C365.92,-48.94 346.78,-34.3 334.87,-25.19"/>
<polygon fill="midnightblue" stroke="midnightblue" points="379.99,-64.1 390.06,-67.4 384.24,-58.54 379.99,-64.1"/>
</g>
<!-- Node7 -->
<g id="node7" class="node">
<title>Node7</title>
<g id="a_node7"><a xlink:href="AudioSubsystem_8cpp.html" target="_top" xlink:title=" ">
<polygon fill="none" stroke="black" points="403.5,-6 403.5,-25 585.5,-25 585.5,-6 403.5,-6"/>
<text text-anchor="middle" x="494.5" y="-13" font-family="Helvetica,sans-Serif" font-size="10.00">src/Subsystems/AudioSubsystem.cpp</text>
</a>
</g>
</g>
<!-- Node4&#45;&gt;Node7 -->
<g id="edge7" class="edge">
<title>Node4&#45;&gt;Node7</title>
<path fill="none" stroke="midnightblue" d="M435.17,-61.34C451.22,-49.21 470.83,-34.39 483,-25.19"/>
<polygon fill="midnightblue" stroke="midnightblue" points="433.03,-58.57 427.16,-67.4 437.25,-64.16 433.03,-58.57"/>
</g>
<!-- Node8 -->
<g id="node8" class="node">
<title>Node8</title>
<g id="a_node8"><a xlink:href="FpsCounterSubsystem_8cpp.html" target="_top" xlink:title=" ">
<polygon fill="none" stroke="black" points="603.5,-0.5 603.5,-30.5 743.5,-30.5 743.5,-0.5 603.5,-0.5"/>
<text text-anchor="start" x="611.5" y="-18.5" font-family="Helvetica,sans-Serif" font-size="10.00">src/Subsystems/FpsCounter</text>
<text text-anchor="middle" x="673.5" y="-7.5" font-family="Helvetica,sans-Serif" font-size="10.00">Subsystem.cpp</text>
</a>
</g>
</g>
<!-- Node4&#45;&gt;Node8 -->
<g id="edge8" class="edge">
<title>Node4&#45;&gt;Node8</title>
<path fill="none" stroke="midnightblue" d="M475.56,-65.05C518.88,-54.43 574.67,-40.74 615.97,-30.61"/>
<polygon fill="midnightblue" stroke="midnightblue" points="474.55,-61.69 465.67,-67.48 476.22,-68.49 474.55,-61.69"/>
</g>
<!-- Node9 -->
<g id="node9" class="node">
<title>Node9</title>
<g id="a_node9"><a xlink:href="InputSubsystem_8cpp.html" target="_top" xlink:title=" ">
<polygon fill="none" stroke="black" points="762,-6 762,-25 941,-25 941,-6 762,-6"/>
<text text-anchor="middle" x="851.5" y="-13" font-family="Helvetica,sans-Serif" font-size="10.00">src/Subsystems/InputSubsystem.cpp</text>
</a>
</g>
</g>
<!-- Node4&#45;&gt;Node9 -->
<g id="edge9" class="edge">
<title>Node4&#45;&gt;Node9</title>
<path fill="none" stroke="midnightblue" d="M482.55,-70.63C569.92,-57.82 713.38,-36.77 793.23,-25.05"/>
<polygon fill="midnightblue" stroke="midnightblue" points="481.83,-67.2 472.44,-72.12 482.85,-74.13 481.83,-67.2"/>
</g>
<!-- Node10 -->
<g id="node10" class="node">
<title>Node10</title>
<g id="a_node10"><a xlink:href="RenderSubsystem_8cpp.html" target="_top" xlink:title=" ">
<polygon fill="none" stroke="black" points="959.5,-6 959.5,-25 1147.5,-25 1147.5,-6 959.5,-6"/>
<text text-anchor="middle" x="1053.5" y="-13" font-family="Helvetica,sans-Serif" font-size="10.00">src/Subsystems/RenderSubsystem.cpp</text>
</a>
</g>
</g>
<!-- Node4&#45;&gt;Node10 -->
<g id="edge10" class="edge">
<title>Node4&#45;&gt;Node10</title>
<path fill="none" stroke="midnightblue" d="M482.13,-75.74C586.49,-67.33 783.35,-50.54 950.5,-31 965.39,-29.26 981.45,-27.12 996.36,-25.03"/>
<polygon fill="midnightblue" stroke="midnightblue" points="481.71,-72.27 472.02,-76.55 482.27,-79.24 481.71,-72.27"/>
</g>
</g>
</svg>
